
<svg xmlns="http://www.w3.org/2000/svg" version="1.1" xmlns:xlink="http://www.w3.org/1999/xlink" preserveAspectRatio="none" x="0px" y="0px" width="506px" height="506px" viewBox="0 0 506 506">
<defs>
<linearGradient id="Gradient_1" gradientUnits="userSpaceOnUse" x1="193.91250000000002" y1="93.4625" x2="205.1875" y2="85.4375" spreadMethod="pad">
<stop  offset="0%" stop-color="#AA851C"/>

<stop  offset="100%" stop-color="#BFB027"/>
</linearGradient>

<linearGradient id="Gradient_2" gradientUnits="userSpaceOnUse" x1="221.72500000000002" y1="181.1" x2="37.77499999999999" y2="181.1" spreadMethod="pad">
<stop  offset="1.1764705882352942%" stop-color="#F62231"/>

<stop  offset="17.254901960784313%" stop-color="#F72C39"/>

<stop  offset="44.705882352941174%" stop-color="#FA474E"/>

<stop  offset="80%" stop-color="#FE7372"/>

<stop  offset="100%" stop-color="#FF9089"/>
</linearGradient>

<linearGradient id="Gradient_3" gradientUnits="userSpaceOnUse" x1="165.4875" y1="73.52499999999999" x2="177.8125" y2="159.175" spreadMethod="pad">
<stop  offset="0%" stop-color="#FFDEDB"/>

<stop  offset="100%" stop-color="#FFABA9"/>
</linearGradient>

<linearGradient id="Gradient_4" gradientUnits="userSpaceOnUse" x1="144.3" y1="71.85" x2="165.3" y2="71.85" spreadMethod="pad">
<stop  offset="0%" stop-color="#AA851C"/>

<stop  offset="100%" stop-color="#BFB027"/>
</linearGradient>

<linearGradient id="Gradient_5" gradientUnits="userSpaceOnUse" x1="90.4375" y1="56.824999999999996" x2="104.4625" y2="69.975" spreadMethod="pad">
<stop  offset="0%" stop-color="#C5C84C"/>

<stop  offset="100%" stop-color="#82A146"/>
</linearGradient>

<linearGradient id="Gradient_6" gradientUnits="userSpaceOnUse" x1="102.0375" y1="44.474999999999994" x2="116.0625" y2="57.625" spreadMethod="pad">
<stop  offset="0%" stop-color="#C5C84C"/>

<stop  offset="100%" stop-color="#82A146"/>
</linearGradient>

<linearGradient id="Gradient_7" gradientUnits="userSpaceOnUse" x1="109.8875" y1="104.025" x2="130.4125" y2="161.775" spreadMethod="pad">
<stop  offset="0%" stop-color="#EDE0BE"/>

<stop  offset="100%" stop-color="#D6D694"/>
</linearGradient>

<linearGradient id="Gradient_8" gradientUnits="userSpaceOnUse" x1="118.9125" y1="100.9125" x2="86.7875" y2="114.0875" spreadMethod="pad">
<stop  offset="0%" stop-color="#BF6B55"/>

<stop  offset="48.627450980392155%" stop-color="#D5B738"/>

<stop  offset="100%" stop-color="#C5C84C"/>
</linearGradient>

<linearGradient id="Gradient_9" gradientUnits="userSpaceOnUse" x1="149.175" y1="101.71249999999999" x2="147.325" y2="86.4875" spreadMethod="pad">
<stop  offset="0%" stop-color="#DA6F3D"/>

<stop  offset="100%" stop-color="#C0B72F"/>
</linearGradient>

<linearGradient id="Gradient_10" gradientUnits="userSpaceOnUse" x1="189.275" y1="91.6875" x2="202.025" y2="114.4125" spreadMethod="pad">
<stop  offset="0%" stop-color="#BF6B55"/>

<stop  offset="100%" stop-color="#D5B738"/>
</linearGradient>

<filter id="Filter_1" x="-20%" y="-20%" width="140%" height="140%" color-interpolation-filters="sRGB">
<feColorMatrix in="SourceGraphic" type="matrix" values="1 0 0 0 0 0 1 0 0 0 0 0 1 0 0 0 0 0 0.2 0" result="result1"/>
</filter>

<filter id="Filter_2" x="-20%" y="-20%" width="140%" height="140%" color-interpolation-filters="sRGB">
<feColorMatrix in="SourceGraphic" type="matrix" values="1 0 0 0 0 0 1 0 0 0 0 0 1 0 0 0 0 0 0.3 0" result="result1"/>
</filter>

<filter id="Filter_3" x="-20%" y="-20%" width="140%" height="140%" color-interpolation-filters="sRGB">
<feColorMatrix in="SourceGraphic" type="matrix" values="1 0 0 0 0 0 1 0 0 0 0 0 1 0 0 0 0 0 0.4 0" result="result1"/>
</filter>

<filter id="Filter_4" x="-20%" y="-20%" width="140%" height="140%" color-interpolation-filters="sRGB">
<feColorMatrix in="SourceGraphic" type="matrix" values="0 0 0 0 255 0 0 0 0 255 0 0 0 0 255 0 0 0 255 0" result="result1"/>

<feComposite in2="result1" in="BackgroundImage" operator="in" result="result2"/>

<feBlend mode="multiply" in2="result2" in="SourceGraphic" result="result3"/>
</filter>

<filter id="Filter_5" x="-20%" y="-20%" width="140%" height="140%" color-interpolation-filters="sRGB">
<feColorMatrix in="SourceGraphic" type="matrix" values="1 0 0 0 0 0 1 0 0 0 0 0 1 0 0 0 0 0 0.1 0" result="result1"/>
</filter>

<filter id="Filter_6" x="-20%" y="-20%" width="140%" height="140%" color-interpolation-filters="sRGB">
<feColorMatrix in="SourceGraphic" type="matrix" values="0 0 0 0 255 0 0 0 0 255 0 0 0 0 255 0 0 0 255 0" result="result1"/>

<feComposite in2="result1" in="BackgroundImage" operator="in" result="result2"/>

<feBlend mode="multiply" in2="result2" in="SourceGraphic" result="result3"/>
</filter>

<filter id="Filter_7" x="-20%" y="-20%" width="140%" height="140%" color-interpolation-filters="sRGB">
<feColorMatrix in="SourceGraphic" type="matrix" values="0 0 0 0 255 0 0 0 0 255 0 0 0 0 255 0 0 0 255 0" result="result1"/>

<feComposite in2="result1" in="BackgroundImage" operator="in" result="result2"/>

<feBlend mode="multiply" in2="result2" in="SourceGraphic" result="result3"/>
</filter>

<filter id="Filter_8" x="-20%" y="-20%" width="140%" height="140%" color-interpolation-filters="sRGB">
<feColorMatrix in="SourceGraphic" type="matrix" values="0 0 0 0 255 0 0 0 0 255 0 0 0 0 255 0 0 0 255 0" result="result1"/>

<feComposite in2="result1" in="BackgroundImage" operator="in" result="result2"/>

<feBlend mode="multiply" in2="result2" in="SourceGraphic" result="result3"/>
</filter>

<filter id="Filter_9" x="-20%" y="-20%" width="140%" height="140%" color-interpolation-filters="sRGB">
<feColorMatrix in="SourceGraphic" type="matrix" values="1 0 0 0 0 0 1 0 0 0 0 0 1 0 0 0 0 0 0.7 0" result="result1"/>
</filter>

<filter id="Filter_10" x="-20%" y="-20%" width="140%" height="140%" color-interpolation-filters="sRGB">
<feColorMatrix in="SourceGraphic" type="matrix" values="0 0 0 0 255 0 0 0 0 255 0 0 0 0 255 0 0 0 255 0" result="result1"/>

<feComposite in2="result1" in="BackgroundImage" operator="in" result="result2"/>

<feBlend mode="multiply" in2="result2" in="SourceGraphic" result="result3"/>
</filter>

<filter id="Filter_11" x="-20%" y="-20%" width="140%" height="140%" color-interpolation-filters="sRGB">
<feColorMatrix in="SourceGraphic" type="matrix" values="0 0 0 0 255 0 0 0 0 255 0 0 0 0 255 0 0 0 255 0" result="result1"/>

<feComposite in2="result1" in="BackgroundImage" operator="in" result="result2"/>

<feBlend mode="multiply" in2="result2" in="SourceGraphic" result="result3"/>
</filter>

<filter id="Filter_12" x="-20%" y="-20%" width="140%" height="140%" color-interpolation-filters="sRGB">
<feColorMatrix in="SourceGraphic" type="matrix" values="1 0 0 0 0 0 1 0 0 0 0 0 1 0 0 0 0 0 0.5 0" result="result1"/>
</filter>

<filter id="Filter_13" x="-20%" y="-20%" width="140%" height="140%" color-interpolation-filters="sRGB">
<feColorMatrix in="SourceGraphic" type="matrix" values="0 0 0 0 255 0 0 0 0 255 0 0 0 0 255 0 0 0 255 0" result="result1"/>

<feComposite in2="result1" in="BackgroundImage" operator="in" result="result2"/>

<feBlend mode="multiply" in2="result2" in="SourceGraphic" result="result3"/>
</filter>
</defs>

<g enable-background="new">
<g id="cartoon_cars_illustration_pack">
<g transform="matrix( 0.7797698974609375, 0, 0, 0.7797698974609375, 63.65,100.6) ">
<g>
<g>
<path fill="#DAE4E5" stroke="none" d="
M 446.2 332.15
Q 446.2 326.95 387.95 323.25 329.8 319.6 247.35 319.6 164.9 319.6 106.75 323.25 48.5 326.95 48.5 332.15 48.5 337.35 106.75 341 165.05 344.7 247.35 344.7 329.65 344.7 387.95 341 446.2 337.35 446.2 332.15 Z"/>
</g>
</g>
</g>

<g transform="matrix( 0.7796173095703125, 0, 0, 0.7796173095703125, 63.65,100.6) ">
<g>
<g>
<path fill="#AFCD79" stroke="none" d="
M 374.6 71.1
Q 354.5 5.65 336.2 3 312.05 -0.55 288.2 0.1 247.8 1.25 214.65 14.2 170.9 31.3 143.45 67.85 110.1 112.25 102.35 183.7 65.7 199.2 46.25 224.05 24.6 251.8 24.6 290.8
L 403.4 290.8
Q 423.65 290.8 432.5 280.2 437.8 273.9 438.1 265.5
L 438.1 207.6
Q 438.1 188.75 426.75 178.8 420 172.85 411.05 171.15
L 398.3 169.3
Q 387.25 112.2 374.6 71.1 Z"/>
</g>
</g>
</g>

<g transform="matrix( 0.779327392578125, 0, 0, 0.779327392578125, 63.65,100.6) ">
<g>
<g>
<path fill="#A3B96F" stroke="none" d="
M 433.05 186.4
Q 429.05 179.65 422.25 175.5 423.95 201.7 419.05 220.7 412.4 246.35 394.2 256 368.9 269.45 215 271.75 126.9 273.05 26.15 270.75 24.6 280.6 24.6 290.8
L 403.4 290.8
Q 423.65 290.8 432.5 280.2 437.8 273.9 438.1 265.5
L 438.1 207.6
Q 438.1 195.1 433.05 186.4 Z"/>
</g>
</g>
</g>

<g transform="matrix( 0.779327392578125, 0, 0, 0.779327392578125, 63.65,100.6) ">
<g>
<g>
<path fill="#A3B96F" stroke="none" d="
M 271.1 262.95
Q 271.25 261.9 262 263.1 248.6 264.9 241.7 265.05 237.25 265.15 231.1 264.6 224.6 263.9 221.95 263.75 212.95 263.15 212.35 267.2
L 219.65 268.45
Q 229.8 269.6 243.85 268.95 258.9 268.3 265.8 266.35 270.85 264.9 271.1 262.95 Z"/>
</g>
</g>
</g>

<g transform="matrix( 0.779327392578125, 0, 0, 0.779327392578125, 63.65,100.6) ">
<g>
<g>
<path fill="#A3B96F" stroke="none" d="
M 410.35 225.7
Q 409.45 225.4 406.2 232.7 402.25 241.5 399 244.7 396.6 247.1 388.05 251.35 382.2 254.3 383.85 256.5
L 389.85 254.5
Q 396.85 251.6 401.85 247 407.25 242.1 409.85 233.85 412.25 226.3 410.35 225.7 Z"/>
</g>
</g>
</g>

<g transform="matrix( 0.779327392578125, 0, 0, 0.779327392578125, 63.65,100.6) ">
<g>
<g>
<path fill="#A3B96F" stroke="none" d="
M 409.5 223.8
Q 410.25 224.05 411 223.7
L 412.6 223.1
Q 414.2 222.1 414.2 220.05 414.2 217.95 412.95 216.85
L 411.7 216.2
Q 410.8 216.15 409.85 216.65 408 217.7 408 220.5 408 223.3 409.5 223.8 Z"/>
</g>
</g>
</g>

<g transform="matrix( 0.779327392578125, 0, 0, 0.779327392578125, 63.65,100.6) ">
<g>
<g>
<path fill="#A3B96F" stroke="none" d="
M 169.35 64.4
Q 168.45 63.7 167 63.65 164.15 63.55 161.55 66.65 158.95 69.75 160.1 71.9 160.7 72.95 161.8 73.4
L 163.3 73.9
Q 165.35 73.8 167.8 70.85 170.3 67.9 170.1 65.85
L 169.35 64.4 Z"/>
</g>
</g>
</g>

<g transform="matrix( 0.779327392578125, 0, 0, 0.779327392578125, 63.65,100.6) ">
<g>
<g>
<path fill="#A3B96F" stroke="none" d="
M 155.75 69.3
L 155 67.85
Q 154.1 67.2 152.65 67.1 149.8 67 147.2 70.1 144.6 73.25 145.75 75.35 146.35 76.4 147.45 76.85
L 148.95 77.4
Q 151 77.3 153.45 74.35 155.95 71.4 155.75 69.3 Z"/>
</g>
</g>
</g>

<g transform="matrix( 0.779327392578125, 0, 0, 0.779327392578125, 63.65,100.6) ">
<g>
<g>
<path fill="#A3B96F" stroke="none" d="
M 161.95 79.6
L 161.2 78.15
Q 160.3 77.45 158.85 77.4 156 77.3 153.4 80.4 150.8 83.5 151.95 85.65 152.55 86.7 153.65 87.15
L 155.15 87.65
Q 157.2 87.55 159.65 84.6 162.15 81.65 161.95 79.6 Z"/>
</g>
</g>
</g>

<g transform="matrix( 0.779327392578125, 0, 0, 0.779327392578125, 63.65,100.6) ">
<g>
<g>
<path fill="#A3B96F" stroke="none" d="
M 379 130.25
Q 380.2 130.4 381.2 129.8
L 382.55 128.9
Q 383.7 127.25 382.8 123.45 381.95 119.65 380.15 118.65
L 378.55 118.35
Q 377.45 118.65 376.55 119.75 374.75 122 375.65 125.95 376.6 129.9 379 130.25 Z"/>
</g>
</g>
</g>

<g transform="matrix( 0.779327392578125, 0, 0, 0.779327392578125, 63.65,100.6) ">
<g>
<g>
<path fill="#A3B96F" stroke="none" d="
M 374.35 132.2
L 372.7 131.9
Q 371.6 132.25 370.7 133.35 368.9 135.55 369.85 139.5 370.75 143.45 373.15 143.8 374.35 144 375.35 143.35
L 376.7 142.45
Q 377.9 140.8 377 137.05 376.15 133.25 374.35 132.2 Z"/>
</g>
</g>
</g>

<g transform="matrix( 0.779327392578125, 0, 0, 0.779327392578125, 63.65,100.6) ">
<g>
<g>
<path fill="#A3B96F" stroke="none" d="
M 386.25 133.4
L 384.65 133.1
Q 383.55 133.45 382.65 134.55 380.85 136.75 381.75 140.7 382.7 144.65 385.1 145 386.3 145.2 387.3 144.55
L 388.65 143.65
Q 389.8 142 388.9 138.25 388.05 134.45 386.25 133.4 Z"/>
</g>
</g>
</g>

<g transform="matrix( 0.779327392578125, 0, 0, 0.779327392578125, 63.65,100.6) ">
<g>
<g>
<path fill="#94A464" stroke="none" d="
M 217.7 12.1
Q 214.55 12.1 206.6 15.7 193.65 21.55 179.1 32.25 159.2 46.9 144.1 65.7 128.8 84.7 116.15 119.45 106.25 146.5 101.5 171.7 98.45 188.1 99.65 190.05 100.3 191 101.5 188.7 102.05 180.15 104.6 166.75 109.7 139.9 119.65 115.45 151.35 37.3 219.2 12.85 219.25 12.15 217.7 12.1 Z"/>
</g>
</g>
</g>

<g transform="matrix( 0.779327392578125, 0, 0, 0.779327392578125, 63.65,100.6) ">
<g>
<g>
<path fill="#94A464" stroke="none" d="
M 398.3 169.3
Q 398.75 169.35 403.35 169.65 408.75 170.15 413.4 171.5 428.25 175.7 433.35 187 438.45 198.25 438.55 234.85 438.6 253.1 437.65 269.15 438.3 269.85 438.95 267.35 440.2 262.3 440.2 246.3 441.35 218.35 440.3 205.1 438.5 181.95 427.2 175.5 416.15 169.15 407.4 166.8
L 400.85 165.7
Q 399.3 157.35 397.25 149.05 393.15 132.5 390.75 133.05
L 393.85 151.1
Q 397.2 169.15 398.3 169.3 Z"/>
</g>
</g>
</g>

<g transform="matrix( 0.7796173095703125, 0, 0, 0.7796173095703125, 63.65,100.6) ">
<g>
<g>
<path fill="#A3B96F" stroke="none" d="
M 214.35 40.25
Q 205.1 44.8 193.6 55.25 170.6 76.2 159.3 106 147.45 137.25 146.65 162.65 146.35 172.05 147.7 178.35 148.9 183.9 150.55 184.35 155.65 185.65 203.45 185 253.45 184.35 254.2 180.7
L 214.35 40.25 Z"/>
</g>
</g>
</g>

<g transform="matrix( 0.7796173095703125, 0, 0, 0.7796173095703125, 63.65,100.6) ">
<g>
<g>
<path fill="#E0FCF0" stroke="none" d="
M 234.3 28.5
Q 214.4 38.25 197.9 53.45 175.4 74.1 163 101.75 147.6 135.9 148.65 178.8
L 200.6 179.85
Q 252.65 180.55 253.25 178.8 254.5 175 255.55 99.05 256.6 21.4 253.25 21.4 248.8 21.4 234.3 28.5 Z"/>
</g>
</g>
</g>

<g transform="matrix( 0.7796173095703125, 0, 0, 0.7796173095703125, 63.65,100.6) ">
<g>
<g>
<path fill="#D0F7E7" stroke="none" d="
M 253.25 21.1
Q 252.15 21.1 248.35 22.35 243.7 23.85 238.15 26.35 241.45 62.9 239.45 91.45 236.45 133.9 221.85 149.2 211.9 159.6 200.55 163.45 193.35 165.9 182.4 166.2 172.1 166.45 169 167.8 163.35 170.25 161.7 178.8 194.6 179.55 217.65 179.7 252.75 179.9 253.25 178.45 254.5 174.7 255.55 98.75 256.6 21.1 253.25 21.1 Z"/>
</g>
</g>
</g>

<g transform="matrix( 0.779327392578125, 0, 0, 0.779327392578125, 63.65,100.6) ">
<g>
<g>
<path fill="#D0F7E7" stroke="none" d="
M 207.75 141.65
Q 208.35 142.7 209.45 143.15
L 211 143.7
Q 213 143.6 215.5 140.65 217.95 137.7 217.75 135.6
L 217 134.15
Q 216.1 133.5 214.7 133.4 211.85 133.3 209.2 136.4 206.6 139.55 207.75 141.65 Z"/>
</g>
</g>
</g>

<g transform="matrix( 0.779327392578125, 0, 0, 0.779327392578125, 63.65,100.6) ">
<g>
<g>
<path fill="#D0F7E7" stroke="none" d="
M 203.4 139.1
L 202.65 137.65
Q 201.75 136.95 200.35 136.9 197.5 136.8 194.85 139.9 192.25 143 193.4 145.15 194 146.2 195.1 146.65
L 196.65 147.15
Q 198.65 147.05 201.15 144.1 203.6 141.15 203.4 139.1 Z"/>
</g>
</g>
</g>

<g transform="matrix( 0.779327392578125, 0, 0, 0.779327392578125, 63.65,100.6) ">
<g>
<g>
<path fill="#D0F7E7" stroke="none" d="
M 208.85 147.9
Q 207.95 147.25 206.55 147.15 203.7 147.05 201.05 150.15 198.45 153.3 199.6 155.4 200.2 156.45 201.3 156.9
L 202.85 157.45
Q 204.85 157.35 207.35 154.4 209.8 151.45 209.6 149.35
L 208.85 147.9 Z"/>
</g>
</g>
</g>

<g transform="matrix( 0.7796173095703125, 0, 0, 0.7796173095703125, 63.65,100.6) ">
<g>
<g>
<path fill="#C0F2DB" stroke="none" d="
M 256 63.55
L 255.75 63.65
Q 255.95 94.05 255.75 122.1 255.3 175.85 253.25 178.45 251.2 181.05 198.1 180.65
L 145.4 179.7
Q 144.65 181.85 150.85 182.2 155 182.4 170.1 182.5 185.65 182.9 217.85 182.4 252.85 181.85 254.2 180.7 255.65 179.5 256.6 153.65 257.5 129.45 257.5 98.35 257.5 73.75 256.65 66.25 256.35 63.9 256 63.55 Z"/>
</g>
</g>
</g>

<g transform="matrix( 0.7796173095703125, 0, 0, 0.7796173095703125, 63.65,100.6) ">
<g>
<g>
<path fill="#A3B96F" stroke="none" d="
M 326.15 184.1
Q 344.4 184.15 358.05 183.25 372.75 182.35 373.45 180.85 374.65 178.3 358.6 116.85 350.55 86.1 342.3 55.9 326.85 85.35 311.4 115.55 280.45 175.95 280.4 179.7 280.35 184 326.15 184.1 Z"/>
</g>
</g>
</g>

<g transform="matrix( 0.7796173095703125, 0, 0, 0.7796173095703125, 63.65,100.6) ">
<g>
<g>
<path fill="#E0FCF0" stroke="none" d="
M 371.6 180.05
Q 373 178.5 354.3 102.95 335.6 27.2 333.05 25.4 330.3 23.5 304.5 21.5 278.65 19.5 278.65 21.4 278.65 61.1 278.85 100.8 279.3 180.2 280.4 180.05 281.3 179.95 326 180.7 370.55 181.25 371.6 180.05 Z"/>
</g>
</g>
</g>

<g transform="matrix( 0.7796173095703125, 0, 0, 0.7796173095703125, 63.65,100.6) ">
<g>
<g>
<path fill="#D0F7E7" stroke="none" d="
M 343.7 172.05
Q 332.05 172.75 325.7 171.7 315.25 169.95 308.4 163.35 296.3 151.7 290.8 93.8 287.65 60.4 287.2 20.3 278.65 20.15 278.65 21.1 278.65 60.8 278.85 100.5 279.3 179.85 280.4 179.7 281.15 179.65 315.3 180.25 352.15 180.75 364.8 180.35 364.2 173.8 358.15 172.3 354.55 171.4 343.7 172.05 Z"/>
</g>
</g>
</g>

<g transform="matrix( 0.779327392578125, 0, 0, 0.779327392578125, 63.65,100.6) ">
<g>
<g>
<path fill="#D0F7E7" stroke="none" d="
M 328.3 155.7
Q 326.45 152.1 324.05 152.35
L 322 153.35 320.95 154.55
Q 320.2 156.45 322 159.9 323.8 163.35 325.8 163.9 326.8 164.2 327.45 163.8 328.45 163.2 329 161.9 330.2 159.3 328.3 155.7 Z"/>
</g>
</g>
</g>

<g transform="matrix( 0.779327392578125, 0, 0, 0.779327392578125, 63.65,100.6) ">
<g>
<g>
<path fill="#D0F7E7" stroke="none" d="
M 326.25 137.75
L 324.2 138.75 323.15 139.95
Q 322.45 141.85 324.25 145.3 326.05 148.75 328.05 149.3 329.05 149.6 329.65 149.2 330.65 148.6 331.25 147.3 332.45 144.7 330.55 141.1 328.7 137.5 326.25 137.75 Z"/>
</g>
</g>
</g>

<g transform="matrix( 0.779327392578125, 0, 0, 0.779327392578125, 63.65,100.6) ">
<g>
<g>
<path fill="#D0F7E7" stroke="none" d="
M 311.3 141.8
Q 310.6 143.7 312.4 147.15 314.2 150.6 316.15 151.15 317.15 151.4 317.8 151 318.8 150.45 319.4 149.15 320.6 146.55 318.7 142.95 316.85 139.35 314.4 139.6
L 312.35 140.6 311.3 141.8 Z"/>
</g>
</g>
</g>

<g transform="matrix( 0.7797698974609375, 0, 0, 0.7797698974609375, 63.65,100.6) ">
<g>
<g>
<path fill="#C0F2DB" stroke="none" d="
M 332.85 182.65
Q 353.25 182.4 361.05 181.35 365 180.85 364.8 180.35 345 181 324.5 181.25 283.6 181.75 280.4 179.7 277.2 177.65 277.6 97.45 277.8 57.4 278.65 17.7 276.15 17.7 276.4 97.2 276.6 174.35 277.55 179.7 278 182.4 293.2 182.85 299.6 183 332.85 182.65 Z"/>
</g>
</g>
</g>

<g transform="matrix( 0.779327392578125, 0, 0, 0.779327392578125, 63.65,100.6) ">
<g>
<g>
<path fill="#232435" stroke="none" d="
M 104.4 259.35
Q 91.35 272.35 91.35 290.8 91.35 309.25 104.4 322.3 117.45 335.35 135.9 335.35 154.35 335.35 167.4 322.3 180.4 309.25 180.4 290.8 180.4 272.35 167.4 259.35 154.35 246.3 135.9 246.3 117.45 246.3 104.4 259.35 Z"/>
</g>
</g>
</g>

<g transform="matrix( 0.779327392578125, 0, 0, 0.779327392578125, 63.65,100.6) ">
<g>
<g>
<path fill="#171721" stroke="none" d="
M 100.5 317.9
Q 106.75 326 115.85 330.6 125.25 335.35 135.9 335.35 154.35 335.35 167.4 322.3 180.4 309.25 180.4 290.8 180.4 280.1 175.55 270.55 174.8 280.6 174.15 284.65 172.75 293.55 169.45 300.1 160.55 318 135.9 322.5 125.9 324.35 115.45 322.25 112.35 321.6 100.5 317.9 Z"/>
</g>
</g>
</g>

<g transform="matrix( 0.779327392578125, 0, 0, 0.779327392578125, 63.65,100.6) ">
<g>
<g>
<path fill="#F2E5F5" stroke="none" d="
M 117.7 272.6
Q 110.15 280.15 110.15 290.8 110.15 301.5 117.7 309.05 125.2 316.6 135.9 316.6 146.55 316.6 154.1 309.05 161.65 301.5 161.65 290.8 161.65 280.15 154.1 272.6 146.55 265.05 135.9 265.05 125.2 265.05 117.7 272.6 Z"/>
</g>
</g>
</g>

<g transform="matrix( 0.779327392578125, 0, 0, 0.779327392578125, 63.65,100.6) ">
<g>
<g>
<path fill="#DED5E2" stroke="none" d="
M 158.95 279.4
Q 156.35 274.2 151.75 270.55 155.15 276.5 155.15 283.3 155.15 294 147.6 301.5 140.05 309.05 129.4 309.05 120.5 309.05 113.5 303.55 116.9 309.5 122.75 313 128.8 316.6 135.9 316.6 146.55 316.6 154.1 309.05 161.65 301.5 161.65 290.8 161.65 284.75 158.95 279.4 Z"/>
</g>
</g>
</g>

<g transform="matrix( 0.779327392578125, 0, 0, 0.779327392578125, 63.65,100.6) ">
<g>
<g>
<path fill="#AFCD79" stroke="none" d="
M 149.15 290.8
Q 149.15 285.35 145.25 281.45 141.4 277.55 135.9 277.55 130.4 277.55 126.5 281.45 122.6 285.3 122.6 290.8 122.6 296.3 126.5 300.2 130.4 304.1 135.9 304.1 141.4 304.1 145.25 300.2 149.15 296.3 149.15 290.8 Z"/>
</g>
</g>
</g>

<g transform="matrix( 0.779327392578125, 0, 0, 0.779327392578125, 63.65,100.6) ">
<g>
<g>
<path fill="#232435" stroke="none" d="
M 388.3 290.8
Q 388.3 272.35 375.3 259.35 362.25 246.3 343.8 246.3 325.35 246.3 312.3 259.35 299.25 272.35 299.25 290.8 299.25 309.25 312.3 322.3 325.35 335.35 343.8 335.35 362.25 335.35 375.3 322.3 388.3 309.25 388.3 290.8 Z"/>
</g>
</g>
</g>

<g transform="matrix( 0.779327392578125, 0, 0, 0.779327392578125, 63.65,100.6) ">
<g>
<g>
<path fill="#171721" stroke="none" d="
M 388.3 290.8
Q 388.3 280.1 383.45 270.55 382.7 280.6 382.05 284.65 380.65 293.55 377.35 300.1 368.45 318 343.8 322.5 333.8 324.35 323.35 322.25 320.25 321.6 308.4 317.9 314.65 326 323.75 330.6 333.15 335.35 343.8 335.35 362.25 335.35 375.3 322.3 388.3 309.25 388.3 290.8 Z"/>
</g>
</g>
</g>

<g transform="matrix( 0.779327392578125, 0, 0, 0.779327392578125, 63.65,100.6) ">
<g>
<g>
<path fill="#F2E5F5" stroke="none" d="
M 362 272.6
Q 354.45 265.05 343.8 265.05 333.1 265.05 325.55 272.6 318 280.15 318 290.8 318 301.5 325.55 309.05 333.1 316.6 343.8 316.6 354.45 316.6 362 309.05 369.55 301.5 369.55 290.8 369.55 280.15 362 272.6 Z"/>
</g>
</g>
</g>

<g transform="matrix( 0.779327392578125, 0, 0, 0.779327392578125, 63.65,100.6) ">
<g>
<g>
<path fill="#DED5E2" stroke="none" d="
M 359.65 270.55
Q 363.05 276.5 363.05 283.3 363.05 294 355.5 301.5 347.95 309.05 337.3 309.05 328.4 309.05 321.4 303.55 324.8 309.5 330.65 313 336.7 316.6 343.8 316.6 354.45 316.6 362 309.05 369.55 301.5 369.55 290.8 369.55 284.75 366.85 279.4 364.25 274.2 359.65 270.55 Z"/>
</g>
</g>
</g>

<g transform="matrix( 0.779327392578125, 0, 0, 0.779327392578125, 63.65,100.6) ">
<g>
<g>
<path fill="#AFCD79" stroke="none" d="
M 357.05 290.8
Q 357.05 285.35 353.15 281.45 349.3 277.55 343.8 277.55 338.3 277.55 334.4 281.45 330.5 285.3 330.5 290.8 330.5 296.3 334.4 300.2 338.3 304.1 343.8 304.1 349.3 304.1 353.15 300.2 357.05 296.3 357.05 290.8 Z"/>
</g>
</g>
</g>

<g transform="matrix( 0.7796173095703125, 0, 0, 0.7796173095703125, 63.65,100.6) ">
<g>
<g>
<path fill="#94A464" stroke="none" d="
M 99.35 163.3
Q 87.1 166.3 87.1 182.5 87.1 198.7 99.35 201.7 105.45 203.15 111.55 201.4
L 111.55 163.6
Q 105.45 161.85 99.35 163.3 Z"/>
</g>
</g>
</g>

<g transform="matrix( 0.7796173095703125, 0, 0, 0.7796173095703125, 63.65,100.6) ">
<g>
<g>
<path fill="#87925B" stroke="none" d="
M 90.25 169.6
Q 87.1 174.5 87.1 182.5 87.1 198.7 99.35 201.7 105.45 203.15 111.55 201.4
L 111.55 188.5
Q 102.5 187.5 96.5 180.8 92.4 176.15 90.25 169.6 Z"/>
</g>
</g>
</g>

<g transform="matrix( 0.7796173095703125, 0, 0, 0.7796173095703125, 63.65,100.6) ">
<g>
<g>
<path fill="#798150" stroke="none" d="
M 85 182.5
Q 84.85 188.95 87.5 194.1 91.15 201.1 98.95 202.25 106.3 203.35 109.65 202.5 111.35 202.05 111.55 201.4 99.1 204 92.35 198.25 86.25 193.05 86.35 182.5 86.45 174.25 88.9 169.25
L 91.35 165.85
Q 88.35 165.4 86.55 171.55 85.2 176.3 85 182.5 Z"/>
</g>
</g>
</g>

<g transform="matrix( 0.7796173095703125, 0, 0, 0.7796173095703125, 63.65,100.6) ">
<g>
<g>
<path fill="#FFDA58" stroke="none" d="
M 51.25 247.05
L 51.25 234
Q 51.25 228.15 47.1 224.05 42.95 219.9 37.15 219.9 31.3 219.9 27.2 224.05 23.05 228.15 23.05 234
L 23.05 247.05
Q 23.05 252.9 27.2 257.05 31.3 261.15 37.15 261.15 42.95 261.15 47.1 257.05 51.25 252.9 51.25 247.05 Z"/>
</g>
</g>
</g>

<g transform="matrix( 0.7796173095703125, 0, 0, 0.7796173095703125, 63.65,100.6) ">
<g>
<g>
<path fill="#FAD14D" stroke="none" d="
M 48.45 225.55
Q 45.7 221.9 41.35 220.55 43.3 223.85 43.3 227.65
L 43.3 240.75
Q 43.3 246.55 39.2 250.7 35.05 254.8 29.2 254.8 26.95 254.8 25 254.2 26.9 257.4 30.05 259.25 33.3 261.15 37.15 261.15 42.95 261.15 47.1 257.05 51.25 252.9 51.25 247.05
L 51.25 234
Q 51.25 229.3 48.45 225.55 Z"/>
</g>
</g>
</g>

<g transform="matrix( 0.779327392578125, 0, 0, 0.779327392578125, 63.65,100.6) ">
<g>
<g>
<path fill="#FBEAB7" stroke="none" d="
M 34.65 222.5
Q 35.5 221.75 34.85 221.2
L 32 222.35
Q 28.8 223.95 27.15 226 25.05 228.6 25 232.65 24.9 236.8 27.15 236.85 28.8 236.9 29.65 232.05 30.6 226.35 31.75 225.1 32.05 224.8 34.65 222.5 Z"/>
</g>
</g>
</g>

<g transform="matrix( 0.779327392578125, 0, 0, 0.779327392578125, 63.65,100.6) ">
<g>
<g>
<path fill="#FBEAB7" stroke="none" d="
M 28.25 238.9
L 27.1 238.35 25.75 238.85
Q 24.4 239.8 24.4 242 24.4 244.2 25.9 244.95 26.65 245.3 27.4 245.2 27.9 245.15 28.4 244.65 29.4 243.75 29.4 241.8 29.4 239.85 28.25 238.9 Z"/>
</g>
</g>
</g>

<g transform="matrix( 0.7796173095703125, 0, 0, 0.7796173095703125, 63.65,100.6) ">
<g>
<g>
<path fill="#F5CB44" stroke="none" d="
M 52.25 233.95
L 51.05 231.7
Q 52.55 242.9 50.05 250.9 46.85 261.1 38.1 261.1 30.05 261.1 25.75 256.65 24.4 255.25 23.6 253.55
L 23.05 252.15
Q 22.4 252.6 23.25 254.2 24.25 256 26.9 258.45 29.5 260.85 32.45 261.65 34.55 262.25 38.1 262.25 42.5 262.25 46 259.45 51.15 255.35 52.2 246.4 53.2 237.85 52.25 233.95 Z"/>
</g>
</g>
</g>

<g transform="matrix( 0.779327392578125, 0, 0, 0.779327392578125, 63.65,100.6) ">
<g>
<g>
<path fill="#BFCAD2" stroke="none" d="
M 30.65 271.5
L 19.35 271.5
Q 11.35 271.5 5.65 277.15 0 282.8 0 290.8 0 298.85 5.65 304.5 11.35 310.15 19.35 310.15
L 30.65 310.15
Q 38.65 310.15 44.3 304.5 49.95 298.8 49.95 290.8 49.95 282.8 44.3 277.15 38.65 271.5 30.65 271.5 Z"/>
</g>
</g>
</g>

<g transform="matrix( 0.779327392578125, 0, 0, 0.779327392578125, 63.65,100.6) ">
<g>
<g>
<path fill="#AFB9BF" stroke="none" d="
M 38.75 281.75
Q 38.75 289.75 33.1 295.45 27.45 301.1 19.45 301.1
L 8.15 301.1
Q 5.25 301.1 2.45 300.25 5 304.75 9.45 307.4 14 310.15 19.35 310.15
L 30.65 310.15
Q 38.65 310.15 44.3 304.5 49.95 298.8 49.95 290.8 49.95 284.35 46.1 279.2 42.3 274.15 36.3 272.35 38.75 276.8 38.75 281.75 Z"/>
</g>
</g>
</g>

<g transform="matrix( 0.779327392578125, 0, 0, 0.779327392578125, 63.65,100.6) ">
<g>
<g>
<path fill="#DCE8EF" stroke="none" d="
M 13.35 273.55
Q 9.1 275.45 5.9 278.65 2.45 282.1 2.45 285.8 2.45 288.95 4.3 289.7 5.1 290.05 7.3 284.65 9.85 278.4 12.4 276.8 16.35 274.4 16.85 273.95 17.75 273.2 16.95 272.35 15.5 272.65 13.35 273.55 Z"/>
</g>
</g>
</g>

<g transform="matrix( 0.779327392578125, 0, 0, 0.779327392578125, 63.65,100.6) ">
<g>
<g>
<path fill="#DCE8EF" stroke="none" d="
M 22.95 272.55
Q 22.55 271.7 21.1 271.7 19.65 271.7 19 272.55 18.7 272.95 18.65 273.35
L 18.95 274.05
Q 19.5 274.75 20.85 274.75 22.25 274.75 22.8 274.05
L 23.05 273.35
Q 23.15 272.95 22.95 272.55 Z"/>
</g>
</g>
</g>

<g transform="matrix( 0.779327392578125, 0, 0, 0.779327392578125, 63.65,100.6) ">
<g>
<g>
<path fill="#9BA5AA" stroke="none" d="
M 33.4 271.7
L 36.4 271.95
Q 39.95 272.55 42.75 274.15 51.75 279.25 49.9 292.45 48.05 305.65 36.35 309.25 30.5 311 25 310.15
L 25.6 311.25
Q 26.5 312.45 28 313 32.8 314.65 41.85 308.7 51.85 302.15 51.75 289.55 51.7 284.4 49.8 279.85 47.95 275.4 45.1 273.2 40.4 269.65 36.45 270.3 35.2 270.5 34.15 271.15 33.65 271.45 33.4 271.7 Z"/>
</g>
</g>
</g>

<g transform="matrix( 0.779327392578125, 0, 0, 0.779327392578125, 63.65,100.6) ">
<g>
<g>
<path fill="#BFCAD2" stroke="none" d="
M 429.6 271.5
L 418.25 271.5
Q 410.25 271.5 404.6 277.15 398.95 282.8 398.95 290.8 398.95 298.8 404.6 304.5 410.25 310.15 418.25 310.15
L 429.6 310.15
Q 437.6 310.15 443.25 304.5 448.9 298.8 448.9 290.8 448.9 282.8 443.25 277.15 437.6 271.5 429.6 271.5 Z"/>
</g>
</g>
</g>

<g transform="matrix( 0.779327392578125, 0, 0, 0.779327392578125, 63.65,100.6) ">
<g>
<g>
<path fill="#AFB9BF" stroke="none" d="
M 415.8 295.45
Q 410.15 289.8 410.15 281.75 410.15 276.8 412.6 272.35 406.6 274.15 402.8 279.2 398.95 284.35 398.95 290.8 398.95 298.85 404.6 304.5 410.3 310.15 418.3 310.15
L 429.6 310.15
Q 434.95 310.15 439.5 307.4 443.95 304.75 446.45 300.25 443.65 301.1 440.8 301.1
L 429.5 301.1
Q 421.5 301.1 415.8 295.45 Z"/>
</g>
</g>
</g>

<g transform="matrix( 0.779327392578125, 0, 0, 0.779327392578125, 63.65,100.6) ">
<g>
<g>
<path fill="#DCE8EF" stroke="none" d="
M 443 278.65
Q 439.8 275.45 435.55 273.55
L 431.95 272.35
Q 431.2 273.2 432.05 273.95 432.6 274.4 436.5 276.8 439.1 278.4 441.65 284.65 443.8 290.05 444.65 289.7 446.5 288.95 446.5 285.8 446.5 282.1 443 278.65 Z"/>
</g>
</g>
</g>

<g transform="matrix( 0.779327392578125, 0, 0, 0.779327392578125, 63.65,100.6) ">
<g>
<g>
<path fill="#DCE8EF" stroke="none" d="
M 427.8 271.7
Q 426.35 271.7 425.95 272.55
L 425.85 273.35 426.15 274.05
Q 426.7 274.75 428.05 274.75 429.45 274.75 430 274.05 430.3 273.7 430.3 273.35 430.3 272.95 429.95 272.55 429.3 271.7 427.8 271.7 Z"/>
</g>
</g>
</g>

<g transform="matrix( 0.779327392578125, 0, 0, 0.779327392578125, 63.65,100.6) ">
<g>
<g>
<path fill="#9BA5AA" stroke="none" d="
M 406.15 274.15
Q 410.65 271.6 415.5 271.7 414.45 270.65 412.45 270.3 408.5 269.65 403.8 273.2 400.95 275.4 399.1 279.85 397.2 284.4 397.2 289.55 397.05 302.15 407.05 308.7 416.1 314.65 420.95 313 423.35 312.15 423.95 310.15 418.45 311 412.6 309.25 400.85 305.65 399 292.45 397.15 279.25 406.15 274.15 Z"/>
</g>
</g>
</g>

<g transform="matrix( 0.7796173095703125, 0, 0, 0.7796173095703125, 63.65,100.6) ">
<g>
<g>
<path fill="#D23532" stroke="none" d="
M 452.4 238.9
L 452.4 227.4
Q 452.4 221.5 448.2 217.35 444 213.15 438.1 213.15 432.2 213.15 428 217.35 423.8 221.5 423.8 227.4
L 423.8 238.9
Q 423.8 244.8 428 248.95 432.2 253.15 438.1 253.15 444 253.15 448.2 248.95 452.4 244.8 452.4 238.9 Z"/>
</g>
</g>
</g>

<g transform="matrix( 0.7796173095703125, 0, 0, 0.7796173095703125, 63.65,100.6) ">
<g>
<g>
<path fill="#BD2B2E" stroke="none" d="
M 435.95 247.2
Q 433.25 243.5 433.25 238.9
L 433.25 227.4
Q 433.25 222.8 435.95 219.1 438.6 215.45 442.8 213.95 440.5 213.15 438.1 213.15 432.2 213.15 428 217.35 423.8 221.5 423.8 227.4
L 423.8 238.9
Q 423.8 244.8 428 248.95 432.2 253.15 438.1 253.15 440.5 253.15 442.8 252.35 438.6 250.85 435.95 247.2 Z"/>
</g>
</g>
</g>

<g transform="matrix( 0.7796173095703125, 0, 0, 0.7796173095703125, 63.65,100.6) ">
<g>
<g>
<path fill="#FAD14D" stroke="none" d="
M 428.05 249
Q 432.2 253.15 438.1 253.15 444 253.15 448.2 249 452.35 244.85 452.4 238.9
L 423.8 238.9
Q 423.85 244.8 428.05 249 Z"/>
</g>
</g>
</g>

<g transform="matrix( 0.7796173095703125, 0, 0, 0.7796173095703125, 63.65,100.6) ">
<g>
<g>
<path fill="#F5CA43" stroke="none" d="
M 436 247.2
Q 433.35 243.5 433.3 238.9
L 423.8 238.9
Q 423.85 244.8 428.05 249 432.2 253.15 438.1 253.15 440.45 253.15 442.85 252.35 438.65 250.85 436 247.2 Z"/>
</g>
</g>
</g>

<g transform="matrix( 0.7796173095703125, 0, 0, 0.7796173095703125, 63.65,100.6) ">
<g>
<g>
<path fill="#A9292C" stroke="none" d="
M 421.4 231.2
Q 421.2 241.4 424 247.2 426.7 252.7 432.65 253.5 435.6 253.85 438 253.15 431.25 253.05 427.7 248.95 423 243.55 422.95 230.85 422.9 219.2 429.6 215 433 212.9 436.35 213.15 432 211.2 427.55 214.5 424.25 216.95 422.8 220.05 421.55 222.75 421.4 231.2 Z"/>
</g>
</g>
</g>

<g transform="matrix( 0.7796173095703125, 0, 0, 0.7796173095703125, 63.65,100.6) ">
<g>
<g>
<path fill="#94A464" stroke="none" d="
M 142.95 193.25
Q 142.55 192.85 142 192.85 141.45 192.85 141.1 193.25 140.7 193.65 140.7 194.2
L 140.7 227.85
Q 140.7 228.4 141.1 228.8 141.45 229.2 142 229.2 142.55 229.2 142.95 228.8 143.35 228.4 143.35 227.85
L 143.35 194.2
Q 143.35 193.65 142.95 193.25 Z"/>
</g>
</g>
</g>

<g transform="matrix( 0.7796173095703125, 0, 0, 0.7796173095703125, 63.65,100.6) ">
<g>
<g>
<path fill="#94A464" stroke="none" d="
M 257.45 193.25
Q 257.05 192.85 256.5 192.85 255.95 192.85 255.6 193.25 255.2 193.65 255.2 194.2
L 255.2 227.85
Q 255.2 228.4 255.6 228.8 255.95 229.2 256.5 229.2 257.05 229.2 257.45 228.8 257.85 228.4 257.85 227.85
L 257.85 194.2
Q 257.85 193.65 257.45 193.25 Z"/>
</g>
</g>
</g>

<g transform="matrix( 0.7796173095703125, 0, 0, 0.7796173095703125, 63.65,100.6) ">
<g>
<g>
<path fill="#94A464" stroke="none" d="
M 375.3 194.65
Q 374.9 194.25 374.35 194.25 373.8 194.25 373.45 194.65 373.05 195.05 373.05 195.6
L 373.05 229.25
Q 373.05 229.8 373.45 230.2 373.8 230.6 374.35 230.6 374.9 230.6 375.3 230.2 375.7 229.8 375.7 229.25
L 375.7 195.6
Q 375.7 195.05 375.3 194.65 Z"/>
</g>
</g>
</g>

<g transform="matrix( 0.7796173095703125, 0, 0, 0.7796173095703125, 63.65,100.6) ">
<g>
<g>
<path fill="#A3B96F" stroke="none" d="
M 433.05 186.4
Q 429.05 179.65 422.25 175.5 423.95 201.7 419.05 220.7 412.4 246.35 394.2 256 368.9 269.45 215 271.75 126.9 273.05 26.15 270.75 24.6 280.6 24.6 290.8
L 403.4 290.8
Q 423.65 290.8 432.5 280.2 437.8 273.9 438.1 265.5
L 438.1 207.6
Q 438.1 195.1 433.05 186.4 Z"/>
</g>
</g>
</g>

<g transform="matrix( 0.7796173095703125, 0, 0, 0.7796173095703125, 63.65,100.6) ">
<g>
<g>
<path fill="#A3B96F" stroke="none" d="
M 271.1 262.95
Q 271.25 261.9 262 263.1 248.6 264.9 241.7 265.05 237.25 265.15 231.1 264.6 224.6 263.9 221.95 263.75 212.95 263.15 212.35 267.2
L 219.65 268.45
Q 229.8 269.6 243.85 268.95 258.9 268.3 265.8 266.35 270.85 264.9 271.1 262.95 Z"/>
</g>
</g>
</g>
</g>

<g id="Layer_1"/>

<g id="Layer_1">
<g transform="matrix( 1.8522491455078125, 0, 0, 1.8522491455078125, 670.35,1.3) ">
<g>
<g>
<path fill="#C5C84C" stroke="none" d="
M 72.75 103.5
Q 72.75 107.65 78 110.55 83.4 113.6 86.2 109.65 88 107.1 86.85 104.2 85.8 101.4 83 100.5 80.8 99.8 78.55 99.65 75.5 99.5 74.05 100.75 72.85 101.85 72.75 103.5 Z"/>
</g>
</g>
</g>

<g transform="matrix( 1.8522491455078125, 0, 0, 1.8522491455078125, 670.35,1.3) ">
<g>
<g>
<path fill="url(#Gradient_1)" stroke="none" d="
M 197.85 82.85
Q 191.7 84.9 191.4 88.25 191.1 91.95 195.85 94.75 200.55 97.5 203.25 95.55 205.15 94.1 206.85 91.35 208.75 88.2 208.55 85.9 208.4 83.8 206.85 82.8 203.95 80.75 197.85 82.85 Z"/>
</g>
</g>
</g>

<g transform="matrix( 1.8521881103515625, 0, 0, 1.8521881103515625, 670.35,1.3) ">
<g>
<g>
<path fill="url(#Gradient_2)" stroke="none" d="
M 206.75 174.75
Q 213.9 146.75 213.35 143.95 212 137.4 182.3 138.5 147.9 141.05 137.95 141.05 132.8 141.05 119.2 140.2 104.05 139.25 97.15 139.1 70.85 138.45 68.75 144.75 67.85 147.4 74.75 173.95 81.45 199.8 84.5 206.9 87.05 212.8 101.7 217.9 118.45 223.65 140.5 223.9 165.1 224.2 181.65 218.15 195.45 213.1 198 206.5 200 201.4 206.75 174.75 Z"/>
</g>
</g>
</g>

<g id="Layer_1" transform="matrix( 1.8521881103515625, 0, 0, 1.8521881103515625, 808.5,318.55) ">
<g>
<g filter="url(#Filter_1)">
<g>
<path fill="#FCF2E0" stroke="none" d="
M 113.9 43.6
Q 107.7 31.95 98.4 23.05 85.35 10.6 67.85 5.35 49.85 0 29.05 0 14.4 -0.05 0 2.55
L 3.3 14.7
Q 43.4 8.15 71.1 22.2 89.7 31.65 100.3 48.75 108.05 46.7 113.9 43.6 Z"/>
</g>
</g>
</g>
</g>

<g id="Layer_1" transform="matrix( 1.8521881103515625, 0, 0, 1.8521881103515625, 820.65,363.05) ">
<g>
<g filter="url(#Filter_1)">
<g>
<path fill="#FCF2E0" stroke="none" d="
M 61.4 28.6
Q 68.8 28.6 75.25 28 63.45 6.9 39 1.65 21.65 -2.05 0 2.4 2.15 9.3 3.15 11.6 3.75 12.95 5.15 14.35 26.45 8.9 43.2 15.65 54.05 20 61.4 28.6 Z"/>
</g>
</g>
</g>
</g>

<g id="Layer_1" transform="matrix( 1.8521881103515625, 0, 0, 1.8521881103515625, 798.4,257.25) ">
<g>
<g filter="url(#Filter_2)">
<g>
<path fill="#6E1922" stroke="none" d="
M 137.45 36.4
Q 144.6 8.4 144.05 5.6 142.7 -0.95 113 0.15 78.6 2.7 68.65 2.7 64.15 2.7 44 1.5 25.95 0.4 16.85 0.8 9.35 3.75 5 6.6 0.5 9.55 0 12.05
L 0.4 14.15
Q 2.75 17.85 16.4 18.9 71.7 23.3 98.8 41.85 109.05 48.8 113.15 56.55 116.65 63.25 114.5 67.75 110.8 75.4 88.3 80.05 80.75 81.55 70.25 82.9 59.65 84.2 56.25 84.65 64 85.5 71.2 85.55 95.8 85.85 112.35 79.8 126.15 74.75 128.7 68.15 130.7 63.05 137.45 36.4 Z"/>
</g>
</g>
</g>
</g>

<g id="Layer_1" transform="matrix( 1.8521881103515625, 0, 0, 1.8521881103515625, 812.3,289.5) ">
<g>
<g filter="url(#Filter_3)">
<g>
<path fill="#FCF2E0" stroke="none" d="
M 0 0
Q 2.25 14.25 6.7 28.5 15.65 57 26.95 57 36.25 57 40.2 29.3 42.2 15.45 42.3 1.6
L 0 0 Z"/>
</g>
</g>
</g>
</g>

<g filter="url(#Filter_4)" transform="matrix( 1, 0, 0, 1, 0,0) ">
<g id="Layer_1" transform="matrix( 1.8521881103515625, 0, 0, 1.8521881103515625, 797.3,257.25) ">
<g>
<g filter="url(#Filter_2)">
<g>
<path fill="#6E1922" stroke="none" d="
M 141.6 22.1
Q 145 7.6 144.65 5.6 143.3 -0.95 113.6 0.15 106.15 0.45 89.1 1.65 74.55 2.7 69.25 2.7 64.1 2.7 50.5 1.85 35.35 0.9 28.45 0.75 2.15 0.1 0.05 6.4 -0.55 8.2 2.8 22.4 14.35 25.9 32.25 27.95 50.75 30.05 71.85 30.05 93.35 30.05 112.05 27.9 130.2 25.75 141.6 22.1 Z"/>
</g>
</g>
</g>
</g>
</g>

<g transform="matrix( 1.8521881103515625, 0, 0, 1.8521881103515625, 670.35,1.3) ">
<g>
<g>
<path fill="#F6DFD5" stroke="none" d="
M 224.1 147.5
Q 224.05 140.5 199.55 134.2 173.5 127.5 140.35 127.5 107.2 127.55 81.25 134.25 56.75 140.6 56.8 147.6 56.85 154.25 81.35 158.9 105.9 163.6 140.55 163.6 175.2 163.55 199.65 158.85 224.15 154.15 224.1 147.5 Z"/>
</g>
</g>
</g>

<g id="Layer_1" transform="matrix( 1.8521881103515625, 0, 0, 1.8521881103515625, 959.55,240.2) ">
<g>
<g filter="url(#Filter_5)">
<g>
<path fill="#6E1922" stroke="none" d="
M 52.05 27.75
Q 67.85 23.55 67.8 18.35 67.8 13.2 52.9 7.95 37.6 2.55 14.7 0 5.15 5.75 1.65 10.65 -2.2 16.05 2.85 18.45 10.9 22.2 12.65 26.75 13.95 30.1 11.8 33.55 36.6 31.9 52.05 27.75 Z"/>
</g>
</g>
</g>
</g>

<g transform="matrix( 1.8521881103515625, 0, 0, 1.8521881103515625, 670.35,1.3) ">
<g>
<g>
<path fill="url(#Gradient_3)" stroke="none" d="
M 200.45 88.3
Q 185.6 73.4 164.55 73.4 152.8 73.4 142.3 78.5 132.15 83.45 125.05 92.25 136.8 94.2 146.35 100.2 156.45 106.55 162.4 116.4 167.05 124.05 168.75 132.8 170.4 141.2 169.3 150.05 186.55 148.95 198.1 146.7 209.75 144.45 212.3 141.6
L 213.05 139.35
Q 213.25 138.25 214.05 135.7 215.35 130.05 215.35 124.2 215.35 103.15 200.45 88.3 Z"/>
</g>
</g>
</g>

<g transform="matrix( 1.8521881103515625, 0, 0, 1.8521881103515625, 670.35,1.3) ">
<g>
<g>
<path fill="url(#Gradient_4)" stroke="none" d="
M 164.7 71.8
Q 163.9 70.05 162.15 68.4 160.55 66.9 158.65 65.95 152.1 62.55 147.1 67.4 145.05 69.4 144.5 71.9 143.9 74.55 145.2 76.5 146.7 78.7 151.5 78.95 153.5 79.05 158.5 78.6
L 159.3 78.55
Q 167.35 77.5 164.7 71.8 Z"/>
</g>
</g>
</g>

<g id="Layer_1" transform="matrix( 1.8521881103515625, 0, 0, 1.8521881103515625, 980.95,156.2) ">
<g>
<g filter="url(#Filter_5)">
<g>
<path fill="#FF1829" stroke="none" d="
M 47.45 40.4
Q 47.45 28.3 42 17.5 36.75 7.1 27.45 0 28.4 1.5 29.1 2.9 32.9 10.35 32.85 18.45 32.85 26.35 29.3 32.85 25.65 39.55 19.15 43 12.2 46.7 3.3 45.85
L 0 45.45
Q 2.7 55.45 1.4 66.25 18.65 65.15 30.2 62.9 41.85 60.65 44.4 57.8
L 45.15 55.55
Q 45.35 54.45 46.15 51.9 47.45 46.25 47.45 40.4 Z"/>
</g>
</g>
</g>
</g>

<g filter="url(#Filter_6)" transform="matrix( 1, 0, 0, 1, 0,0) ">
<g id="Layer_1" transform="matrix( 1.8521881103515625, 0, 0, 1.8521881103515625, 920.1,170) ">
<g>
<g filter="url(#Filter_2)">
<g>
<path fill="#CBB19B" stroke="none" d="
M 78.05 48.1
Q 78.1 47.7 78.7 45.65 72.1 49.3 58.65 51.05
L 46.55 52.1
Q 48.25 30.5 33.2 13.1 25.65 4.4 17.75 0
L 0 3.55
Q 8.6 6.5 15.5 11.9 22.75 17.5 27.4 25.15 31.05 31.15 33.65 39.85 36.5 49.25 37.15 58.6 53.35 57.45 64 55.25 74.85 53.05 77.3 50.35
L 78.05 48.1 Z"/>
</g>
</g>
</g>
</g>
</g>

<g transform="matrix( 1.8521881103515625, 0, 0, 1.8521881103515625, 670.35,1.3) ">
<g>
<g>
<path fill="url(#Gradient_5)" stroke="none" d="
M 112.85 72.95
L 110.9 60.05 110.8 61.15
Q 107.75 52.4 99.8 51.85 95.15 51.55 91.85 53.3 89.15 54.7 92.3 55.55 96.9 56.8 97.5 57.7 99.4 60.55 100.65 66.7 99.4 66.9 97.95 66.85 95.05 66.75 94.1 65.65 93.05 64.5 93.5 62.05 94 59.45 93.75 59.1 93.1 58.05 89.65 62.65 86.15 67.25 86.7 69.65 87.2 71.8 91.85 75.05 94.2 76.65 96.4 77.85 100.1 78.8 104.6 77.25 108.2 76 112.85 72.95 Z"/>
</g>
</g>
</g>

<g filter="url(#Filter_7)" transform="matrix( 1, 0, 0, 1, 0,0) ">
<g id="Layer_1" transform="matrix( 1.8521881103515625, 0, 0, 1.8521881103515625, 856.1,97.2) ">
<g>
<g filter="url(#Filter_2)">
<g>
<path fill="#CBB19B" stroke="none" d="
M 10.35 8.85
L 10.35 9.2
Q 7.5 0.95 0.15 0 3.05 1 4.8 2.6 6.85 4.45 6.4 6.35 6.05 7.8 4.6 9.4 4 10.05 1 12.85 1.3 13.8 0.75 14.4 0.5 14.65 0.2 14.75
L 0 14.75
Q 2.4 19.25 6.7 18.8 11.1 18.35 11.15 12.55
L 10.6 9.05 10.35 8.85 Z"/>
</g>
</g>
</g>
</g>
</g>

<g filter="url(#Filter_8)" transform="matrix( 1, 0, 0, 1, 0,0) ">
<g id="Layer_1" transform="matrix( 1.8521881103515625, 0, 0, 1.8521881103515625, 833.95,111.1) ">
<g>
<g filter="url(#Filter_2)">
<g>
<path fill="#CBB19B" stroke="none" d="
M 0.05 10.2
Q 0.5 11.4 7.5 7.15 6.2 6.9 5.55 6.2 4.55 5.05 4.9 2.9 5.35 0.05 5.35 0 3.8 2.3 2.2 5.05 -0.25 9.35 0.05 10.2 Z"/>
</g>
</g>
</g>
</g>
</g>

<g transform="matrix( 1.8521881103515625, 0, 0, 1.8521881103515625, 670.35,1.3) ">
<g>
<g>
<path fill="url(#Gradient_6)" stroke="none" d="
M 117.25 64.35
Q 118.1 60.25 118.2 54.05 118.3 47.25 116.95 48.05 114.1 49.8 112.3 54.25 110.65 58.25 110.8 61.7 111.25 62.3 113.2 64.5 114.55 66.05 115.15 67.55 116.9 65.9 117.25 64.35 Z"/>
</g>
</g>
</g>

<g transform="matrix( 1.852081298828125, 0, 0, 1.852081298828125, 670.35,1.3) ">
<g>
<g>
<path fill="#B92427" stroke="none" d="
M 96.65 68.8
Q 85.75 79.25 88.05 90.95 89.4 97.8 95.9 105.75 102.05 113.4 110.8 119.5 119.85 125.85 128.25 128.25 137.5 130.85 143.6 127.95 155.45 122.3 155.6 97.3 155.65 87.05 153.45 77.3 151.25 67.55 147.65 62.3 145.5 57.85 139.5 55.4 127.4 50.55 107.95 60.65 102.05 63.55 96.65 68.8 Z"/>
</g>
</g>
</g>

<g id="Layer_1" transform="matrix( 1.852081298828125, 0, 0, 1.852081298828125, 839,109.75) ">
<g>
<g filter="url(#Filter_9)">
<g>
<path fill="#E21622" stroke="none" d="
M 48.7 26.95
Q 49.4 16.65 46 9.3 42.4 1.5 35.4 0.2 27.75 -1.25 16.15 5.45 3.05 12.95 0.5 23.9 -0.05 26.25 0 28.25 0.05 30 0.7 32.1 3.4 29.9 9.25 27.55 19.75 23.3 31.9 23.3 38.8 23.3 44.1 25 46.85 25.85 48.7 26.95 Z"/>
</g>
</g>
</g>
</g>

<g id="Layer_1" transform="matrix( 1.852081298828125, 0, 0, 1.852081298828125, 851.5,116.2) ">
<g>
<g filter="url(#Filter_9)">
<g>
<path fill="#FFFFFF" stroke="none" d="
M 23.85 12.4
Q 27.05 9.9 28.05 7.05 29 4.4 27.7 2.5 26.5 0.65 23.9 0.15 20.15 -0.6 13.65 2.1 7.95 4.45 3.9 8.75 -0.35 13.25 0 17.3 0.25 19.9 4.3 19.9 7.25 19.9 11.3 18.65 14.75 17.55 17.95 15.95 21.8 13.95 23.85 12.4 Z"/>
</g>
</g>
</g>
</g>

<g transform="matrix( 1.85205078125, 0, 0, 1.85205078125, 670.35,1.3) ">
<g>
<g>
<path fill="#F99332" stroke="none" d="
M 104.9 77.15
Q 105.95 80 107.95 78.25 109.2 77.15 107.3 75.2 105.4 73.3 104.7 73.75 103.85 74.3 104.9 77.15 Z"/>
</g>
</g>
</g>

<g transform="matrix( 1.85205078125, 0, 0, 1.85205078125, 670.35,1.3) ">
<g>
<g>
<path fill="#F99332" stroke="none" d="
M 117.95 69.85
Q 119 72.65 121 70.95 122.25 69.85 120.3 67.9 118.4 66 117.7 66.45 116.9 67 117.95 69.85 Z"/>
</g>
</g>
</g>

<g transform="matrix( 1.85205078125, 0, 0, 1.85205078125, 670.35,1.3) ">
<g>
<g>
<path fill="#F99332" stroke="none" d="
M 129.9 77.5
Q 130.65 80.05 132.6 78.7 133.8 77.85 132.4 76 131.05 74.15 130.15 74.5 129.15 74.9 129.9 77.5 Z"/>
</g>
</g>
</g>

<g transform="matrix( 1.85205078125, 0, 0, 1.85205078125, 670.35,1.3) ">
<g>
<g>
<path fill="#F99332" stroke="none" d="
M 140.85 66.6
Q 141.05 69.2 143.2 68.2 144.5 67.6 143.4 65.5 142.3 63.35 141.55 63.65 140.65 64 140.85 66.6 Z"/>
</g>
</g>
</g>

<g transform="matrix( 1.85205078125, 0, 0, 1.85205078125, 670.35,1.3) ">
<g>
<g>
<path fill="#F99332" stroke="none" d="
M 93.45 84.9
Q 94.25 87.3 96.15 85.95 97.4 85.1 96 83.15 94.6 81.2 93.7 81.8 92.7 82.45 93.45 84.9 Z"/>
</g>
</g>
</g>

<g transform="matrix( 1.85205078125, 0, 0, 1.85205078125, 670.35,1.3) ">
<g>
<g>
<path fill="#D56430" stroke="none" d="
M 144.75 81.5
Q 144.75 83.8 146.8 83.2 148.05 82.8 147.5 80.9 146.9 78.95 145.9 79.05 144.75 79.15 144.75 81.5 Z"/>
</g>
</g>
</g>

<g transform="matrix( 1.8521881103515625, 0, 0, 1.8521881103515625, 670.35,1.3) ">
<g>
<g>
<path fill="url(#Gradient_7)" stroke="none" d="
M 173.95 139
Q 173.95 128.5 169.9 118.7 165.85 108.9 158.45 101.5 151.05 94.1 141.25 90.05 131.45 86 120.95 86 110.45 86 100.7 90.05 90.9 94.1 83.5 101.5 76.05 108.95 72 118.7 67.95 128.5 67.95 139
L 67.95 139.85 68 140.3
Q 68 144.75 89.25 147.9 110.45 151 140.5 151 158.25 150.95 172.85 149.8 173.95 144.3 173.95 139 Z"/>
</g>
</g>
</g>

<g id="Layer_1" transform="matrix( 1.8521881103515625, 0, 0, 1.8521881103515625, 824.55,169.45) ">
<g>
<g filter="url(#Filter_2)">
<g>
<path fill="#FFFFFF" stroke="none" d="
M 55.2 28.65
Q 61.9 21.3 60.7 13.3 59.65 6 47.45 2 34.65 -2.2 22.3 2 10.7 5.95 4.7 14 0 20.3 0 26.7 0 32.25 8.1 36.7 17.8 42.05 31.9 39.75 47.3 37.2 55.2 28.65 Z"/>
</g>
</g>
</g>
</g>

<g filter="url(#Filter_10)" transform="matrix( 1, 0, 0, 1, 0,0) ">
<g id="Layer_1" transform="matrix( 1.8521881103515625, 0, 0, 1.8521881103515625, 861.95,187.25) ">
<g>
<g filter="url(#Filter_1)">
<g>
<path fill="#FF552C" stroke="none" d="
M 17.7 7.45
Q 18.05 4.6 13.4 2 11.05 0.7 8.65 0
L 0 14.35
Q 4.3 13.9 8.65 12.8 17.35 10.65 17.7 7.45 Z"/>
</g>
</g>
</g>
</g>
</g>

<g filter="url(#Filter_11)" transform="matrix( 1, 0, 0, 1, 0,0) ">
<g id="Layer_1" transform="matrix( 1.8521881103515625, 0, 0, 1.8521881103515625, 795.9,172.6) ">
<g>
<g filter="url(#Filter_12)">
<g>
<path fill="#EDE0BE" stroke="none" d="
M 101.95 26.05
Q 97.9 16.25 90.5 8.85 85.4 3.75 78.75 0 82.7 5.8 84 12.05 85.35 18.8 83.35 25.55 79.1 39.85 64.45 45.55 51.6 50.55 36.05 47.55 29.5 46.3 23.6 43.3 17.05 39.95 13.25 35.3 7.4 28.2 5.55 22.8 0 34 0 46.35
L 0 47.2 0.05 47.65
Q 0.05 52.1 21.3 55.25 42.5 58.35 72.55 58.35 90.3 58.3 104.9 57.15 106 51.65 106 46.35 106 35.85 101.95 26.05 Z"/>
</g>
</g>
</g>
</g>
</g>

<g filter="url(#Filter_13)" transform="matrix( 1, 0, 0, 1, 0,0) ">
<g id="Layer_1" transform="matrix( 1.8522186279296875, 0, 0, 1.8522186279296875, 796,258.1) ">
<g>
<g filter="url(#Filter_9)">
<g>
<path fill="#EDE0BE" stroke="none" d="
M 104.9 11.05
Q 105.5 7.95 105.75 5.4 63.85 10.35 30.85 6.55 11.65 4.35 0 0
L 0 1.1 0.05 1.55
Q 0.05 6 21.3 9.15 42.5 12.25 72.55 12.25 90.3 12.2 104.9 11.05 Z"/>
</g>
</g>
</g>
</g>
</g>

<g transform="matrix( 1.8522491455078125, 0, 0, 1.8522491455078125, 670.35,1.3) ">
<g>
<g>
<path fill="url(#Gradient_8)" stroke="none" d="
M 105.55 114.95
Q 108.95 113.1 111.45 110.75 115.15 107.25 115.4 103.65 115.55 102 114.3 100.75 113.2 99.6 111.45 99.2 106.3 97.75 100.65 99.7 96.3 101.2 94.45 107.1 93.65 109.65 94.3 112.05 95.05 114.55 97.2 115.9 100.25 117.75 105.55 114.95 Z"/>
</g>
</g>
</g>

<g transform="matrix( 1.8522491455078125, 0, 0, 1.8522491455078125, 670.35,1.3) ">
<g>
<g>
<path fill="url(#Gradient_9)" stroke="none" d="
M 136.15 91.3
Q 135.75 93.2 136.95 94.35 142 99.2 150.1 100.85 159.9 102.85 160.1 93.9 160.2 90.35 157.4 88.1 154.95 86.1 151.2 85.6 147.9 85.2 144.45 85.95 140.9 86.7 138 88.55 136.5 89.5 136.15 91.3 Z"/>
</g>
</g>
</g>

<g id="Layer_1" transform="matrix( 1.8522491455078125, 0, 0, 1.8522491455078125, 973.75,144.25) ">
<g>
<g filter="url(#Filter_1)">
<g>
<path fill="#FFF5E7" stroke="none" d="
M 29.2 23.65
Q 30.8 20.55 30.7 17.55 30.55 13.35 27.4 9.15 24.45 5.25 19.85 2.7 15.2 0.1 10.7 0 5.8 -0.1 2.55 2.85 -1.35 6.4 0.7 13 2.1 17.6 5.95 22.55 9.75 27.4 14.55 29.15 20.05 31.2 25.05 28.25 27.55 26.7 29.2 23.65 Z"/>
</g>
</g>
</g>
</g>

<g transform="matrix( 1.8522491455078125, 0, 0, 1.8522491455078125, 670.35,1.3) ">
<g>
<g>
<path fill="url(#Gradient_10)" stroke="none" d="
M 193.1 93.15
Q 187.75 92.1 185.25 93.9 183.3 95.3 183.45 98.3 183.6 101.05 186.5 105.1 189.1 108.75 191.55 110.4 195.4 113 198.95 112.25 202.95 111.45 205.1 106.6 206.45 103.5 204.45 100.1 202.85 97.55 200.05 95.7 197.5 94.05 193.1 93.15 Z"/>
</g>
</g>
</g>

<g transform="matrix( 1.8522491455078125, 0, 0, 1.8522491455078125, 670.35,1.3) ">
<g>
<g>
<path fill="#C5C84C" stroke="none" d="
M 127.35 122.1
Q 130.75 119.6 130.2 117.15 129.7 114.85 125.3 113.3 120.9 111.8 119.15 113.3 117.05 115.15 117.7 119.8 118.35 124.5 120.85 124.5 124.1 124.5 127.35 122.1 Z"/>
</g>
</g>
</g>

<g transform="matrix( 1.8522491455078125, 0, 0, 1.8522491455078125, 670.35,1.3) ">
<g>
<g>
<path fill="#CB8066" stroke="none" d="
M 171.85 92
Q 173.25 92.6 176.7 90.55 180.15 88.45 180.25 86.85 180.35 85.45 176.4 84.15 172.4 82.85 171.25 83.9 169.55 85.45 169.8 88.35 170 91.2 171.85 92 Z"/>
</g>
</g>
</g>

<g transform="matrix( 1.8522491455078125, 0, 0, 1.8522491455078125, 670.35,1.3) ">
<g>
<g>
<path fill="#CB8066" stroke="none" d="
M 134.85 109.5
Q 138.15 111.45 139.7 111.1 141.85 110.6 142.15 107.15 142.45 103.8 141.05 102.75 139.8 101.8 135.5 103.15 131.2 104.55 131.3 105.9 131.4 107.5 134.85 109.5 Z"/>
</g>
</g>
</g>

<g id="Layer_1" transform="matrix( 1.8522491455078125, 0, 0, 1.8522491455078125, 925.3,163.05) ">
<g>
<g filter="url(#Filter_2)">
<g>
<path fill="#FCF2E0" stroke="none" d="
M 0.05 4.25
Q 0.3 6.25 3.75 7.9 6.95 9.4 9.05 9.15 12.2 8.8 12.85 4.75 13.45 0.75 11.25 0.25 7.8 -0.5 3.75 0.95 -0.2 2.4 0.05 4.25 Z"/>
</g>
</g>
</g>
</g>

<g id="Layer_1" transform="matrix( 1.8522491455078125, 0, 0, 1.8522491455078125, 848.25,191.85) ">
<g>
<g filter="url(#Filter_2)">
<g>
<path fill="#FCF2E0" stroke="none" d="
M 1.4 10.9
Q 3.2 12.65 7.2 10.75 11.1 8.9 11.2 7 11.3 4.2 8.5 1.8 5.65 -0.6 3.35 0.15 0.95 0.95 0.2 4.9 -0.6 8.9 1.4 10.9 Z"/>
</g>
</g>
</g>
</g>

<g id="Layer_1" transform="matrix( 1.8522491455078125, 0, 0, 1.8522491455078125, 1014.4,176.6) ">
<g>
<g filter="url(#Filter_2)">
<g>
<path fill="#FCF2E0" stroke="none" d="
M 6.9 0.35
Q 2.75 -0.55 0.9 0.9 -1.05 2.4 0.75 6.8 2.55 11.1 4.9 10.85 7.35 10.55 9.85 7.75 12.45 4.8 11.55 2.75 10.85 1.2 6.9 0.35 Z"/>
</g>
</g>
</g>
</g>

<g transform="matrix( 1.8522491455078125, 0, 0, 1.8522491455078125, 670.35,1.3) ">
<g>
<g>
<path fill="#BFB027" stroke="none" d="
M 165.45 122.85
Q 165.6 120.95 163.65 116.9 161.5 112.5 159.65 112.75 156.55 113.1 155.65 120 154.7 126.85 156.75 127 159.6 127.3 162.45 125.95 165.3 124.6 165.45 122.85 Z"/>
</g>
</g>
</g>

<g id="Layer_1" transform="matrix( 1.8522491455078125, 0, 0, 1.8522491455078125, 887.95,213.65) ">
<g>
<g filter="url(#Filter_2)">
<g>
<path fill="#EDE0BE" stroke="none" d="
M 6.35 1
Q 3.2 0 0.6 0 -0.25 2.05 0.1 4.9 0.45 7.75 1.7 9.1 4.15 8.5 6.95 6.65 10 4.7 9.95 3.4 9.85 2.1 6.35 1 Z"/>
</g>
</g>
</g>
</g>

<g id="Layer_1" transform="matrix( 1.8522491455078125, 0, 0, 1.8522491455078125, 958.1,210.5) ">
<g>
<g filter="url(#Filter_2)">
<g>
<path fill="#EDE0BE" stroke="none" d="
M 6.6 4.8
Q 4.95 1.3 3.4 0 1.3 1.05 0.4 5.7 -0.45 10 0.3 12.7 2.9 12.3 4.9 11.7 7.7 10.75 7.95 9.6 8.2 8.3 6.6 4.8 Z"/>
</g>
</g>
</g>
</g>

<g id="Layer_1" transform="matrix( 1.8522491455078125, 0, 0, 1.8522491455078125, 913.45,191.25) ">
<g>
<g filter="url(#Filter_2)">
<g>
<path fill="#EDE0BE" stroke="none" d="
M 4.65 7.55
Q 9.15 6.3 9.7 4.7 10.4 2.8 6.75 0 4.35 0.4 2.25 1.4 -0.05 2.45 0 3.35 0.05 4.3 1.5 5.55 2.8 6.65 4.65 7.55 Z"/>
</g>
</g>
</g>
</g>

<g id="Layer_1" transform="matrix( 1.8522491455078125, 0, 0, 1.8522491455078125, 984.65,157.9) ">
<g>
<g filter="url(#Filter_1)">
<g>
<path fill="#EDE0BE" stroke="none" d="
M 8.1 2.3
Q 7.55 0.7 0.85 0 -0.1 1.45 0 3.55 0.1 5.6 1.15 6.75 3.25 6.25 5.7 4.8 8.4 3.25 8.1 2.3 Z"/>
</g>
</g>
</g>
</g>
</g>

<g id="cartoon_cars_illustration_pack">
<g transform="matrix( 0.7999725341796875, 0, 0, 0.7999725341796875, -1747.7,-521.05) ">
<g>
<g>
<path fill="#DAE4E5" stroke="none" d="
M 1571.3 1322.9
Q 1513.05 1326.55 1513.05 1331.75 1513.05 1336.95 1571.3 1340.65 1629.5 1344.3 1711.9 1344.3 1794.35 1344.3 1852.55 1340.65 1910.8 1336.95 1910.8 1331.75 1910.8 1326.55 1852.55 1322.9 1794.2 1319.2 1711.9 1319.2 1629.65 1319.2 1571.3 1322.9 Z"/>
</g>
</g>
</g>

<g transform="matrix( 0.7999725341796875, 0, 0, 0.7999725341796875, -1747.7,-521.05) ">
<g>
<g>
<path fill="#FFDA58" stroke="none" d="
M 1887.55 1179.85
Q 1884.8 1147 1873.1 1119.6 1856.7 1081.3 1824.65 1059.4 1784.65 1032 1722.4 1032 1660.15 1032 1619 1059.4 1586.05 1081.3 1568 1119.6 1555.15 1147 1551 1179.85 1548.95 1196.25 1549.45 1207.2 1525.15 1230.65 1516.7 1262.15 1512.5 1277.95 1513.15 1289
L 1921.8 1289
Q 1922.75 1277.95 1919 1262.15 1911.45 1230.65 1887.8 1207.2
L 1887.95 1207.2
Q 1888.9 1196.25 1887.55 1179.85 Z"/>
</g>
</g>
</g>

<g transform="matrix( 0.7999725341796875, 0, 0, 0.7999725341796875, -1747.7,-521.05) ">
<g>
<g>
<path fill="#FFD44C" stroke="none" d="
M 1857.4 1091.45
Q 1869.75 1131.8 1869.25 1171.15 1868.75 1216.4 1850.15 1235.85 1828.9 1258.1 1694.15 1263.5 1614.05 1266.75 1516.3 1263.75 1513.95 1273.1 1513.3 1282 1513 1286.45 1513.15 1289
L 1921.8 1289
Q 1922.75 1277.95 1919 1262.15 1911.45 1230.65 1887.8 1207.2
L 1887.95 1207.2
Q 1889.4 1191 1886.3 1168.4 1880.1 1123.25 1857.4 1091.45 Z"/>
</g>
</g>
</g>

<g transform="matrix( 0.7999725341796875, 0, 0, 0.7999725341796875, -1747.7,-521.05) ">
<g>
<g>
<path fill="#FFD44C" stroke="none" d="
M 1665.85 1251.85
L 1665.6 1254.1 1666.1 1255.65
Q 1667.35 1257.25 1671.2 1257.5 1675.05 1257.8 1676.6 1256.4 1677.35 1255.7 1677.35 1254.95 1677.35 1253.8 1676.55 1252.6 1675 1250.25 1670.95 1249.95 1666.9 1249.65 1665.85 1251.85 Z"/>
</g>
</g>
</g>

<g transform="matrix( 0.7999725341796875, 0, 0, 0.7999725341796875, -1747.7,-521.05) ">
<g>
<g>
<path fill="#FFD44C" stroke="none" d="
M 1654.85 1246.1
Q 1656.1 1247.65 1659.95 1247.95 1663.8 1248.25 1665.35 1246.85 1666.1 1246.15 1666.1 1245.4 1666.1 1244.25 1665.3 1243.05 1663.75 1240.7 1659.7 1240.4 1655.65 1240.1 1654.6 1242.3
L 1654.35 1244.55 1654.85 1246.1 Z"/>
</g>
</g>
</g>

<g transform="matrix( 0.7999725341796875, 0, 0, 0.7999725341796875, -1747.7,-521.05) ">
<g>
<g>
<path fill="#FFD44C" stroke="none" d="
M 1650.15 1257.15
Q 1651.4 1258.7 1655.25 1259 1659.15 1259.3 1660.65 1257.85 1661.4 1257.15 1661.4 1256.4 1661.45 1255.3 1660.65 1254.1 1659.05 1251.75 1655 1251.45 1650.95 1251.15 1649.95 1253.35
L 1649.7 1255.6 1650.15 1257.15 Z"/>
</g>
</g>
</g>

<g transform="matrix( 0.7999725341796875, 0, 0, 0.7999725341796875, -1747.7,-521.05) ">
<g>
<g>
<path fill="#FFD44C" stroke="none" d="
M 1850.05 1212.25
Q 1850.9 1213.1 1852.1 1213.15
L 1853.7 1213.2
Q 1855.6 1212.5 1857.05 1208.9 1858.5 1205.3 1857.6 1203.4
L 1856.45 1202.25
Q 1855.4 1201.9 1854 1202.3 1851.25 1203.05 1849.75 1206.8 1848.25 1210.6 1850.05 1212.25 Z"/>
</g>
</g>
</g>

<g transform="matrix( 0.7999725341796875, 0, 0, 0.7999725341796875, -1747.7,-521.05) ">
<g>
<g>
<path fill="#FFD44C" stroke="none" d="
M 1845.05 1211.2
L 1843.9 1210.05
Q 1842.85 1209.7 1841.45 1210.05 1838.7 1210.8 1837.2 1214.6 1835.7 1218.4 1837.5 1220.05 1838.35 1220.9 1839.55 1220.95
L 1841.15 1220.95
Q 1843.05 1220.25 1844.5 1216.65 1845.95 1213.05 1845.05 1211.2 Z"/>
</g>
</g>
</g>

<g transform="matrix( 0.7999725341796875, 0, 0, 0.7999725341796875, -1747.7,-521.05) ">
<g>
<g>
<path fill="#FFD44C" stroke="none" d="
M 1854.15 1219
L 1853 1217.85
Q 1851.95 1217.5 1850.55 1217.9 1847.8 1218.65 1846.3 1222.4 1844.75 1226.2 1846.55 1227.85 1847.45 1228.7 1848.65 1228.75
L 1850.25 1228.8
Q 1852.15 1228.1 1853.6 1224.5 1855.05 1220.9 1854.15 1219 Z"/>
</g>
</g>
</g>

<g transform="matrix( 0.7999725341796875, 0, 0, 0.7999725341796875, -1747.7,-521.05) ">
<g>
<g>
<path fill="#FACD41" stroke="none" d="
M 1706.8 1031
Q 1706.25 1030 1704.25 1029.15 1700.3 1027.4 1693.2 1028.05 1670.45 1030.1 1624.85 1055.3 1578.25 1081.05 1558.85 1129.1 1552.2 1145.45 1548.75 1164.7 1548.25 1167.3 1545.3 1189.5 1543.45 1203.55 1545.25 1208.3 1546.15 1210.65 1547.45 1210.2 1547.3 1194.9 1551.65 1172.8 1560.35 1128.55 1582.95 1094.45 1605.5 1060.4 1658.4 1042.3 1684.85 1033.25 1706.8 1031 Z"/>
</g>
</g>
</g>

<g transform="matrix( 0.7999725341796875, 0, 0, 0.7999725341796875, -1747.7,-521.05) ">
<g>
<g>
<path fill="#FACD41" stroke="none" d="
M 1887.15 1206.9
Q 1892.45 1213 1897.25 1219.35 1912.6 1239.75 1917.1 1255.2 1921.6 1270.7 1922.2 1285.65 1922.5 1293.15 1921.9 1297.5
L 1922.35 1297.6
Q 1922.9 1297.55 1923.35 1296.8 1924.8 1294.45 1924.8 1286 1924.8 1272.85 1920.15 1255.75 1914.25 1234.1 1903.8 1221.1 1892.2 1206.65 1888.2 1203.05 1884.3 1199.55 1882.8 1202.1
L 1887.15 1206.9 Z"/>
</g>
</g>
</g>

<g transform="matrix( 0.7999725341796875, 0, 0, 0.7999725341796875, -1747.7,-521.05) ">
<g>
<g>
<path fill="#232435" stroke="none" d="
M 1613.55 1244.5
Q 1595.1 1244.5 1582.1 1257.55 1569.05 1270.55 1569.05 1289 1569.05 1307.45 1582.1 1320.5 1595.1 1333.55 1613.55 1333.55 1632 1333.55 1645.05 1320.5 1658.1 1307.45 1658.1 1289 1658.1 1270.55 1645.05 1257.55 1632 1244.5 1613.55 1244.5 Z"/>
</g>
</g>
</g>

<g transform="matrix( 0.7999725341796875, 0, 0, 0.7999725341796875, -1747.7,-521.05) ">
<g>
<g>
<path fill="#171721" stroke="none" d="
M 1593.55 1328.8
Q 1602.95 1333.55 1613.55 1333.55 1632 1333.55 1645.05 1320.5 1658.1 1307.45 1658.1 1289 1658.1 1278.3 1653.25 1268.75 1652.5 1278.8 1651.85 1282.85 1650.45 1291.75 1647.15 1298.3 1638.2 1316.2 1613.55 1320.7 1603.55 1322.55 1593.1 1320.45 1590.05 1319.8 1578.2 1316.1 1584.45 1324.2 1593.55 1328.8 Z"/>
</g>
</g>
</g>

<g transform="matrix( 0.7999725341796875, 0, 0, 0.7999725341796875, -1747.7,-521.05) ">
<g>
<g>
<path fill="#F2E5F5" stroke="none" d="
M 1613.55 1263.25
Q 1602.9 1263.25 1595.35 1270.8 1587.8 1278.35 1587.8 1289 1587.8 1299.7 1595.35 1307.2 1602.9 1314.75 1613.55 1314.75 1624.25 1314.75 1631.75 1307.2 1639.3 1299.7 1639.3 1289 1639.3 1278.35 1631.75 1270.8 1624.25 1263.25 1613.55 1263.25 Z"/>
</g>
</g>
</g>

<g transform="matrix( 0.7999725341796875, 0, 0, 0.7999725341796875, -1747.7,-521.05) ">
<g>
<g>
<path fill="#DED5E2" stroke="none" d="
M 1600.45 1311.2
Q 1606.5 1314.75 1613.55 1314.75 1624.25 1314.75 1631.75 1307.2 1639.3 1299.7 1639.3 1289 1639.3 1282.95 1636.65 1277.6 1634.05 1272.4 1629.45 1268.75 1632.85 1274.7 1632.85 1281.5 1632.85 1292.15 1625.3 1299.7 1617.75 1307.25 1607.1 1307.25 1598.15 1307.25 1591.2 1301.75 1594.6 1307.7 1600.45 1311.2 Z"/>
</g>
</g>
</g>

<g transform="matrix( 0.7999725341796875, 0, 0, 0.7999725341796875, -1747.7,-521.05) ">
<g>
<g>
<path fill="#FFDA58" stroke="none" d="
M 1613.55 1275.75
Q 1608.1 1275.75 1604.2 1279.65 1600.3 1283.55 1600.3 1289 1600.3 1294.5 1604.2 1298.4 1608.05 1302.3 1613.55 1302.3 1619.05 1302.3 1622.95 1298.4 1626.85 1294.5 1626.85 1289 1626.85 1283.5 1622.95 1279.65 1619.05 1275.75 1613.55 1275.75 Z"/>
</g>
</g>
</g>

<g transform="matrix( 0.7999725341796875, 0, 0, 0.7999725341796875, -1747.7,-521.05) ">
<g>
<g>
<path fill="#232435" stroke="none" d="
M 1821.45 1244.5
Q 1803 1244.5 1789.95 1257.55 1776.9 1270.55 1776.9 1289 1776.9 1307.45 1789.95 1320.5 1803 1333.55 1821.45 1333.55 1839.9 1333.55 1852.95 1320.5 1866 1307.45 1866 1289 1866 1270.55 1852.95 1257.55 1839.9 1244.5 1821.45 1244.5 Z"/>
</g>
</g>
</g>

<g transform="matrix( 0.7999725341796875, 0, 0, 0.7999725341796875, -1747.7,-521.05) ">
<g>
<g>
<path fill="#171721" stroke="none" d="
M 1861.15 1268.75
Q 1860.4 1278.8 1859.75 1282.85 1858.35 1291.75 1855.05 1298.3 1846.1 1316.2 1821.45 1320.7 1811.45 1322.55 1801 1320.45 1797.95 1319.8 1786.1 1316.1 1792.35 1324.2 1801.45 1328.8 1810.85 1333.55 1821.45 1333.55 1839.9 1333.55 1852.95 1320.5 1866 1307.45 1866 1289 1866 1278.3 1861.15 1268.75 Z"/>
</g>
</g>
</g>

<g transform="matrix( 0.7999725341796875, 0, 0, 0.7999725341796875, -1747.7,-521.05) ">
<g>
<g>
<path fill="#F2E5F5" stroke="none" d="
M 1821.45 1263.25
Q 1810.8 1263.25 1803.25 1270.8 1795.7 1278.35 1795.7 1289 1795.7 1299.7 1803.25 1307.2 1810.8 1314.75 1821.45 1314.75 1832.15 1314.75 1839.65 1307.2 1847.2 1299.7 1847.2 1289 1847.2 1278.35 1839.65 1270.8 1832.15 1263.25 1821.45 1263.25 Z"/>
</g>
</g>
</g>

<g transform="matrix( 0.7999725341796875, 0, 0, 0.7999725341796875, -1747.7,-521.05) ">
<g>
<g>
<path fill="#DED5E2" stroke="none" d="
M 1844.55 1277.6
Q 1841.95 1272.4 1837.35 1268.75 1840.75 1274.7 1840.75 1281.5 1840.75 1292.15 1833.2 1299.7 1825.65 1307.25 1815 1307.25 1806.05 1307.25 1799.1 1301.75 1802.45 1307.7 1808.35 1311.2 1814.4 1314.75 1821.45 1314.75 1832.15 1314.75 1839.65 1307.2 1847.2 1299.7 1847.2 1289 1847.2 1282.95 1844.55 1277.6 Z"/>
</g>
</g>
</g>

<g transform="matrix( 0.7999725341796875, 0, 0, 0.7999725341796875, -1747.7,-521.05) ">
<g>
<g>
<path fill="#FFDA58" stroke="none" d="
M 1821.45 1275.75
Q 1816 1275.75 1812.1 1279.65 1808.2 1283.55 1808.2 1289 1808.2 1294.5 1812.1 1298.4 1815.95 1302.3 1821.45 1302.3 1826.95 1302.3 1830.85 1298.4 1834.75 1294.5 1834.75 1289 1834.75 1283.5 1830.85 1279.65 1826.95 1275.75 1821.45 1275.75 Z"/>
</g>
</g>
</g>

<g transform="matrix( 0.7999725341796875, 0, 0, 0.7999725341796875, -1747.7,-521.05) ">
<g>
<g>
<path fill="#FFD44C" stroke="none" d="
M 1652.35 1053.4
Q 1635.65 1059.2 1620.7 1071.9 1573.85 1111.6 1561.3 1202.1
L 1614.4 1203.5
Q 1667.5 1204.45 1667.45 1202.1 1668.15 1162.3 1668.55 1124.8 1669.35 1050.3 1667.45 1050.05 1663.35 1049.55 1652.35 1053.4 Z"/>
</g>
</g>
</g>

<g transform="matrix( 0.7999725341796875, 0, 0, 0.7999725341796875, -1747.7,-521.05) ">
<g>
<g>
<path fill="#E0FCF0" stroke="none" d="
M 1665.65 1052.3
Q 1661.85 1051.7 1650.3 1056.2 1633.9 1062.65 1619.35 1075.55 1574.3 1115.55 1565.05 1200.3
L 1615.35 1201.8
Q 1665.65 1202.8 1665.65 1200.3 1666.65 1161.5 1667.15 1125.05 1668.15 1052.75 1665.65 1052.3 Z"/>
</g>
</g>
</g>

<g transform="matrix( 0.7999725341796875, 0, 0, 0.7999725341796875, -1747.7,-521.05) ">
<g>
<g>
<path fill="#D0F7E7" stroke="none" d="
M 1665.65 1052.3
Q 1664.9 1052.2 1662.7 1052.6 1659.95 1053.05 1656.6 1054.05 1658.05 1092.6 1656.75 1122.85 1654.65 1171.9 1645.6 1180.5 1640.1 1185.7 1628.5 1186.95 1624.2 1187.4 1607.05 1187.4 1594.1 1187.4 1588.35 1189.5 1580.15 1192.45 1579.3 1200.8 1610.95 1201.9 1632.9 1202.05 1665.65 1202.3 1665.65 1200.3 1666.65 1161.5 1667.15 1125.05 1668.15 1052.75 1665.65 1052.3 Z"/>
</g>
</g>
</g>

<g transform="matrix( 0.7999725341796875, 0, 0, 0.7999725341796875, -1747.7,-521.05) ">
<g>
<g>
<path fill="#D0F7E7" stroke="none" d="
M 1641.85 1158.05
Q 1642.3 1158.7 1643.05 1158.95
L 1644.1 1159.2
Q 1645.45 1159.05 1646.95 1156.9 1648.45 1154.8 1648.2 1153.45
L 1647.6 1152.5
Q 1646.95 1152.1 1646 1152.15 1644.05 1152.25 1642.5 1154.45 1640.95 1156.65 1641.85 1158.05 Z"/>
</g>
</g>
</g>

<g transform="matrix( 0.7999725341796875, 0, 0, 0.7999725341796875, -1747.7,-521.05) ">
<g>
<g>
<path fill="#D0F7E7" stroke="none" d="
M 1638.8 1156.6
L 1638.2 1155.65
Q 1637.55 1155.25 1636.6 1155.3 1634.65 1155.35 1633.1 1157.6 1631.55 1159.8 1632.45 1161.2 1632.9 1161.85 1633.65 1162.1
L 1634.7 1162.35
Q 1636.05 1162.2 1637.55 1160.05 1639.05 1157.95 1638.8 1156.6 Z"/>
</g>
</g>
</g>

<g transform="matrix( 0.7999725341796875, 0, 0, 0.7999725341796875, -1747.7,-521.05) ">
<g>
<g>
<path fill="#D0F7E7" stroke="none" d="
M 1643.5 1163.1
L 1642.9 1162.15
Q 1642.25 1161.75 1641.3 1161.8 1639.4 1161.9 1637.85 1164.1 1636.25 1166.3 1637.15 1167.7 1637.65 1168.35 1638.4 1168.6
L 1639.45 1168.85
Q 1640.75 1168.7 1642.25 1166.55 1643.75 1164.45 1643.5 1163.1 Z"/>
</g>
</g>
</g>

<g transform="matrix( 0.7999725341796875, 0, 0, 0.7999725341796875, -1747.7,-521.05) ">
<g>
<g>
<path fill="#C0F2DB" stroke="none" d="
M 1667.05 1072.4
L 1666.3 1071.95 1666.85 1134.6
Q 1666.95 1197.75 1664.65 1200.3 1662.35 1202.85 1611.1 1201.3
L 1560.3 1199.25
Q 1559.5 1201.85 1617.55 1202.6 1638.05 1202.85 1647.05 1202.75 1662.85 1202.5 1665.3 1201.1 1667.65 1199.8 1667.95 1141.05 1667.8 1080.95 1667.75 1077.7 1667.75 1073.65 1667.05 1072.4 Z"/>
</g>
</g>
</g>

<g transform="matrix( 0.7999725341796875, 0, 0, 0.7999725341796875, -1747.7,-521.05) ">
<g>
<g>
<path fill="#FFD44C" stroke="none" d="
M 1772.1 1050.05
Q 1770.2 1050.3 1771 1124.8 1771.4 1162.3 1772.1 1202.1 1772.05 1204.45 1825.1 1203.5 1851.65 1203.05 1878.2 1202.1 1865.65 1111.6 1818.8 1071.9 1803.85 1059.2 1787.15 1053.4 1776.15 1049.55 1772.1 1050.05 Z"/>
</g>
</g>
</g>

<g transform="matrix( 0.7999725341796875, 0, 0, 0.7999725341796875, -1747.7,-521.05) ">
<g>
<g>
<path fill="#E0FCF0" stroke="none" d="
M 1773.85 1052.3
Q 1771.35 1052.75 1772.35 1125.05 1772.85 1161.5 1773.85 1200.3 1773.85 1202.8 1824.2 1201.8 1849.35 1201.3 1874.5 1200.3 1865.25 1115.55 1820.15 1075.55 1805.6 1062.65 1789.2 1056.2 1777.65 1051.7 1773.85 1052.3 Z"/>
</g>
</g>
</g>

<g transform="matrix( 0.7999725341796875, 0, 0, 0.7999725341796875, -1747.7,-521.05) ">
<g>
<g>
<path fill="#D0F7E7" stroke="none" d="
M 1776.8 1052.6
Q 1774.6 1052.2 1773.85 1052.3 1771.35 1052.75 1772.35 1125.05 1772.85 1161.5 1773.85 1200.3 1773.85 1202.3 1806.65 1202.05 1828.6 1201.9 1860.25 1200.8 1859.4 1192.45 1851.2 1189.5 1845.4 1187.4 1832.45 1187.4 1815.3 1187.4 1811 1186.95 1799.4 1185.7 1793.9 1180.5 1784.9 1171.85 1782.8 1122.85 1781.5 1092.6 1782.95 1054.05 1779.6 1053.05 1776.8 1052.6 Z"/>
</g>
</g>
</g>

<g transform="matrix( 0.7999725341796875, 0, 0, 0.7999725341796875, -1747.7,-521.05) ">
<g>
<g>
<path fill="#D0F7E7" stroke="none" d="
M 1796.5 1158.95
L 1797.7 1158.05
Q 1798.6 1156.65 1797 1154.45 1795.45 1152.25 1793.55 1152.15
L 1791.95 1152.5 1791.4 1153.45
Q 1791.1 1154.8 1792.6 1156.9 1794.1 1159.05 1795.45 1159.2 1796.15 1159.3 1796.5 1158.95 Z"/>
</g>
</g>
</g>

<g transform="matrix( 0.7999725341796875, 0, 0, 0.7999725341796875, -1747.7,-521.05) ">
<g>
<g>
<path fill="#D0F7E7" stroke="none" d="
M 1801.35 1155.65
L 1800.8 1156.6
Q 1800.5 1157.95 1802 1160.05 1803.5 1162.2 1804.85 1162.35 1805.55 1162.45 1805.9 1162.1
L 1807.1 1161.2
Q 1808 1159.8 1806.4 1157.6 1804.85 1155.35 1802.95 1155.3
L 1801.35 1155.65 Z"/>
</g>
</g>
</g>

<g transform="matrix( 0.7999725341796875, 0, 0, 0.7999725341796875, -1747.7,-521.05) ">
<g>
<g>
<path fill="#D0F7E7" stroke="none" d="
M 1796.6 1162.15
L 1796.05 1163.1
Q 1795.75 1164.45 1797.25 1166.55 1798.75 1168.7 1800.1 1168.85 1800.8 1168.95 1801.15 1168.6
L 1802.35 1167.7
Q 1803.25 1166.3 1801.7 1164.1 1800.15 1161.9 1798.2 1161.8
L 1796.6 1162.15 Z"/>
</g>
</g>
</g>

<g transform="matrix( 0.7999725341796875, 0, 0, 0.7999725341796875, -1747.7,-521.05) ">
<g>
<g>
<path fill="#C0F2DB" stroke="none" d="
M 1773.25 1071.95
Q 1772.9 1071.75 1772.5 1072.4 1771.8 1073.65 1771.75 1077.7 1771.75 1080.95 1771.55 1141.05 1771.85 1199.8 1774.2 1201.1 1776.65 1202.5 1792.45 1202.75 1801.45 1202.85 1821.95 1202.6 1880.05 1201.85 1879.2 1199.25 1854.05 1200.55 1828.4 1201.3 1777.15 1202.85 1774.85 1200.3 1772.55 1197.75 1772.7 1134.6
L 1773.25 1071.95 Z"/>
</g>
</g>
</g>

<g transform="matrix( 0.7999725341796875, 0, 0, 0.7999725341796875, -1747.7,-521.05) ">
<g>
<g>
<path fill="#FFD44C" stroke="none" d="
M 1761.7 1050.05
Q 1739.75 1049.35 1719 1049.05 1677.75 1048.4 1677.7 1050.05
L 1676.3 1127
Q 1675.35 1203.95 1677.7 1204.05 1690.1 1204.85 1720.7 1205.4 1761 1206.15 1761.7 1203.75 1762.6 1200.6 1762.8 1125.5 1763 1050.1 1761.7 1050.05 Z"/>
</g>
</g>
</g>

<g transform="matrix( 0.7999725341796875, 0, 0, 0.7999725341796875, -1747.7,-521.05) ">
<g>
<g>
<path fill="#E0FCF0" stroke="none" d="
M 1760.15 1052.3
Q 1755.8 1051.25 1718.85 1050.3 1679.55 1049.25 1679.5 1052.3
L 1678 1127.1
Q 1677 1201.95 1679.5 1202.1 1699.35 1203.1 1720.8 1203.6 1759.3 1204.45 1760.15 1202.1 1761.35 1198.8 1761.65 1126 1761.95 1052.75 1760.15 1052.3 Z"/>
</g>
</g>
</g>

<g transform="matrix( 0.7999725341796875, 0, 0, 0.7999725341796875, -1747.7,-521.05) ">
<g>
<g>
<path fill="#D0F7E7" stroke="none" d="
M 1760.15 1052.55
Q 1759.1 1052.3 1747.3 1051.65 1750.6 1086.9 1751.55 1116.6 1753.1 1166 1746.8 1174 1743.15 1178.65 1732.6 1181.55 1729.9 1182.25 1712.45 1185.7 1700.1 1188.15 1694.75 1191.05 1687.25 1195.1 1687.8 1202.1
L 1687.9 1202.75
Q 1758.95 1205.7 1760.15 1202.35 1761.35 1199.05 1761.65 1126.25 1761.95 1053 1760.15 1052.55 Z"/>
</g>
</g>
</g>

<g transform="matrix( 0.7999725341796875, 0, 0, 0.7999725341796875, -1747.7,-521.05) ">
<g>
<g>
<path fill="#D0F7E7" stroke="none" d="
M 1741.45 1159.25
Q 1739.9 1161.5 1740.8 1162.85 1741.25 1163.55 1742 1163.75
L 1743.05 1164.05
Q 1744.4 1163.9 1745.9 1161.75 1747.4 1159.65 1747.15 1158.25
L 1746.55 1157.3
Q 1745.9 1156.9 1744.95 1156.95 1743 1157.05 1741.45 1159.25 Z"/>
</g>
</g>
</g>

<g transform="matrix( 0.7999725341796875, 0, 0, 0.7999725341796875, -1747.7,-521.05) ">
<g>
<g>
<path fill="#D0F7E7" stroke="none" d="
M 1737.75 1161.4
L 1737.15 1160.45
Q 1736.5 1160.05 1735.55 1160.1 1733.6 1160.2 1732.05 1162.4 1730.5 1164.6 1731.4 1166 1731.85 1166.65 1732.6 1166.9
L 1733.65 1167.2
Q 1735 1167.05 1736.5 1164.9 1738 1162.8 1737.75 1161.4 Z"/>
</g>
</g>
</g>

<g transform="matrix( 0.7999725341796875, 0, 0, 0.7999725341796875, -1747.7,-521.05) ">
<g>
<g>
<path fill="#D0F7E7" stroke="none" d="
M 1738.4 1173.7
Q 1739.7 1173.55 1741.2 1171.4 1742.7 1169.3 1742.45 1167.95
L 1741.9 1167
Q 1741.25 1166.6 1740.3 1166.6 1738.35 1166.7 1736.8 1168.9 1735.2 1171.15 1736.1 1172.5 1736.6 1173.2 1737.35 1173.4
L 1738.4 1173.7 Z"/>
</g>
</g>
</g>

<g transform="matrix( 0.7999725341796875, 0, 0, 0.7999725341796875, -1747.7,-521.05) ">
<g>
<g>
<path fill="#C0F2DB" stroke="none" d="
M 1760.7 1051.35
L 1760.15 1051.65
Q 1762.3 1052.85 1762 1126.2 1761.7 1199.1 1760.15 1202.35 1759 1204.8 1717.9 1203.7
L 1677.05 1202.1
Q 1676.75 1203.7 1689.25 1204.15 1696.4 1204.4 1712.45 1204.6 1723.6 1205 1741.2 1204.75 1759.45 1204.5 1760.55 1203.8 1761.5 1203.25 1762.25 1165.05
L 1762.8 1126.95
Q 1762.7 1109.6 1762.5 1091.8 1762.1 1056.2 1761.7 1053.85 1761.3 1051.5 1760.7 1051.35 Z"/>
</g>
</g>
</g>

<g transform="matrix( 0.7999725341796875, 0, 0, 0.7999725341796875, -1747.7,-521.05) ">
<g>
<g>
<path fill="#FACD41" stroke="none" d="
M 1556.85 1226.15
L 1556.85 1188.35
Q 1550.75 1186.6 1544.65 1188.05 1532.4 1191.05 1532.4 1207.25 1532.4 1223.45 1544.65 1226.45 1550.75 1227.9 1556.85 1226.15 Z"/>
</g>
</g>
</g>

<g transform="matrix( 0.7999725341796875, 0, 0, 0.7999725341796875, -1747.7,-521.05) ">
<g>
<g>
<path fill="#E8BF3F" stroke="none" d="
M 1556.85 1226.15
L 1556.85 1213.25
Q 1547.8 1212.25 1541.8 1205.55 1537.7 1200.95 1535.5 1194.35 1532.4 1199.15 1532.4 1207.25 1532.4 1223.45 1544.65 1226.45 1550.75 1227.9 1556.85 1226.15 Z"/>
</g>
</g>
</g>

<g transform="matrix( 0.7999725341796875, 0, 0, 0.7999725341796875, -1747.7,-521.05) ">
<g>
<g>
<path fill="#D0AC39" stroke="none" d="
M 1554.95 1227.25
Q 1556.65 1226.8 1556.85 1226.15 1544.35 1228.8 1537.6 1223.05 1531.5 1217.8 1531.65 1207.25 1531.75 1199 1534.2 1194
L 1536.6 1190.6
Q 1533.6 1190.15 1531.8 1196.3 1530.45 1201.1 1530.3 1207.25 1530.15 1213.7 1532.8 1218.85 1536.4 1225.85 1544.25 1227 1551.6 1228.1 1554.95 1227.25 Z"/>
</g>
</g>
</g>

<g transform="matrix( 0.7999725341796875, 0, 0, 0.7999725341796875, -1747.7,-521.05) ">
<g>
<g>
<path fill="#D23532" stroke="none" d="
M 1532.1 1235.9
Q 1532.1 1230.05 1528 1225.95 1523.85 1221.8 1518 1221.8 1512.15 1221.8 1508.05 1225.95 1503.9 1230.05 1503.9 1235.9
L 1503.9 1248.95
Q 1503.9 1254.8 1508.05 1258.95 1512.15 1263.05 1518 1263.05 1523.85 1263.05 1528 1258.95 1532.1 1254.8 1532.1 1248.95
L 1532.1 1235.9 Z"/>
</g>
</g>
</g>

<g transform="matrix( 0.7999725341796875, 0, 0, 0.7999725341796875, -1747.7,-521.05) ">
<g>
<g>
<path fill="#BD2B2E" stroke="none" d="
M 1529.3 1227.5
Q 1526.55 1223.8 1522.2 1222.45 1524.15 1225.75 1524.15 1229.6
L 1524.15 1242.65
Q 1524.15 1248.45 1520.05 1252.6 1515.9 1256.75 1510.05 1256.75 1508.05 1256.75 1505.85 1256.1 1507.75 1259.3 1510.9 1261.15 1514.15 1263.05 1518 1263.05 1523.85 1263.05 1528 1258.95 1532.1 1254.8 1532.1 1248.95
L 1532.1 1235.9
Q 1532.1 1231.25 1529.3 1227.5 Z"/>
</g>
</g>
</g>

<g transform="matrix( 0.7999725341796875, 0, 0, 0.7999725341796875, -1747.7,-521.05) ">
<g>
<g>
<path fill="#FDCACA" stroke="none" d="
M 1515.55 1224.4
Q 1516.35 1223.7 1515.7 1223.15 1514.45 1223.5 1512.85 1224.3 1509.7 1225.85 1508 1227.95 1505.9 1230.5 1505.85 1234.55 1505.75 1238.7 1508 1238.75 1509.65 1238.8 1510.5 1233.95 1511.5 1228.25 1512.65 1227.05 1512.95 1226.7 1515.55 1224.4 Z"/>
</g>
</g>
</g>

<g transform="matrix( 0.7999725341796875, 0, 0, 0.7999725341796875, -1747.7,-521.05) ">
<g>
<g>
<path fill="#FDCACA" stroke="none" d="
M 1509.1 1240.85
L 1507.95 1240.3
Q 1507.3 1240.35 1506.6 1240.8 1505.25 1241.7 1505.25 1243.9 1505.25 1246.1 1506.75 1246.85 1507.5 1247.2 1508.25 1247.1
L 1509.25 1246.55
Q 1510.25 1245.65 1510.25 1243.7 1510.25 1241.75 1509.1 1240.85 Z"/>
</g>
</g>
</g>

<g transform="matrix( 0.7999725341796875, 0, 0, 0.7999725341796875, -1747.7,-521.05) ">
<g>
<g>
<path fill="#A6282B" stroke="none" d="
M 1533.1 1235.85
L 1531.9 1233.6
Q 1533.4 1244.8 1530.9 1252.8 1527.7 1263 1518.95 1263 1510.9 1263 1506.6 1258.55 1505.25 1257.15 1504.45 1255.45
L 1503.9 1254.05
Q 1503.25 1254.55 1504.1 1256.1 1505.1 1257.9 1507.75 1260.35 1510.35 1262.75 1513.3 1263.55 1515.4 1264.15 1518.95 1264.15 1523.35 1264.15 1526.9 1261.35 1532 1257.25 1533.05 1248.3 1534.05 1239.75 1533.1 1235.85 Z"/>
</g>
</g>
</g>

<g transform="matrix( 0.7999725341796875, 0, 0, 0.7999725341796875, -1747.7,-521.05) ">
<g>
<g>
<path fill="#BFCAD2" stroke="none" d="
M 1531.55 1275.7
Q 1525.9 1270.05 1517.9 1270.05
L 1506.6 1270.05
Q 1498.6 1270.05 1492.9 1275.7 1487.25 1281.4 1487.25 1289.4 1487.25 1297.4 1492.9 1303.05 1498.6 1308.7 1506.6 1308.7
L 1517.9 1308.7
Q 1525.9 1308.7 1531.55 1303.05 1537.2 1297.4 1537.2 1289.4 1537.2 1281.4 1531.55 1275.7 Z"/>
</g>
</g>
</g>

<g transform="matrix( 0.7999725341796875, 0, 0, 0.7999725341796875, -1747.7,-521.05) ">
<g>
<g>
<path fill="#AFB9BF" stroke="none" d="
M 1533.35 1277.8
Q 1529.55 1272.75 1523.55 1270.9 1526 1275.35 1526 1280.35 1526 1288.35 1520.35 1294 1514.65 1299.65 1506.65 1299.65
L 1495.35 1299.65
Q 1492.6 1299.65 1489.7 1298.85 1492.2 1303.35 1496.65 1306 1501.25 1308.7 1506.6 1308.7
L 1517.9 1308.7
Q 1525.9 1308.7 1531.55 1303.05 1537.2 1297.4 1537.2 1289.4 1537.2 1282.95 1533.35 1277.8 Z"/>
</g>
</g>
</g>

<g transform="matrix( 0.7999725341796875, 0, 0, 0.7999725341796875, -1747.7,-521.05) ">
<g>
<g>
<path fill="#DCE8EF" stroke="none" d="
M 1493.15 1277.25
Q 1489.7 1280.7 1489.7 1284.4 1489.7 1287.55 1491.55 1288.3 1492.35 1288.65 1494.55 1283.2 1497.05 1276.95 1499.65 1275.4 1503.6 1273 1504.1 1272.5 1504.95 1271.75 1504.2 1270.9 1502.75 1271.2 1500.6 1272.15 1496.35 1274 1493.15 1277.25 Z"/>
</g>
</g>
</g>

<g transform="matrix( 0.7999725341796875, 0, 0, 0.7999725341796875, -1747.7,-521.05) ">
<g>
<g>
<path fill="#DCE8EF" stroke="none" d="
M 1510.2 1271.1
Q 1509.8 1270.25 1508.35 1270.25 1506.9 1270.25 1506.25 1271.1
L 1505.9 1271.95 1506.2 1272.65
Q 1506.75 1273.3 1508.1 1273.3 1509.5 1273.3 1510.05 1272.65 1510.3 1272.3 1510.3 1271.95 1510.4 1271.55 1510.2 1271.1 Z"/>
</g>
</g>
</g>

<g transform="matrix( 0.7999725341796875, 0, 0, 0.7999725341796875, -1747.7,-521.05) ">
<g>
<g>
<path fill="#9BA5AA" stroke="none" d="
M 1537.05 1278.4
Q 1535.2 1273.95 1532.35 1271.8 1527.65 1268.25 1523.7 1268.9
L 1520.65 1270.25 1523.65 1270.5
Q 1527.2 1271.1 1530 1272.7 1539 1277.8 1537.15 1291 1535.3 1304.2 1523.6 1307.8 1519.95 1308.9 1515.75 1308.9
L 1512.25 1308.7 1512.85 1309.8
Q 1513.75 1311 1515.25 1311.55 1520.05 1313.2 1529.1 1307.25 1539.1 1300.7 1539 1288.1 1538.95 1282.95 1537.05 1278.4 Z"/>
</g>
</g>
</g>

<g transform="matrix( 0.7999725341796875, 0, 0, 0.7999725341796875, -1747.7,-521.05) ">
<g>
<g>
<path fill="#BFCAD2" stroke="none" d="
M 1919.1 1270.05
Q 1911.1 1270.05 1905.45 1275.7 1899.8 1281.4 1899.8 1289.4 1899.8 1297.4 1905.45 1303.05 1911.1 1308.7 1919.1 1308.7
L 1930.4 1308.7
Q 1938.4 1308.7 1944.1 1303.05 1949.75 1297.4 1949.75 1289.4 1949.75 1281.4 1944.1 1275.7 1938.45 1270.05 1930.4 1270.05
L 1919.1 1270.05 Z"/>
</g>
</g>
</g>

<g transform="matrix( 0.7999725341796875, 0, 0, 0.7999725341796875, -1747.7,-521.05) ">
<g>
<g>
<path fill="#AFB9BF" stroke="none" d="
M 1913.45 1270.9
Q 1907.45 1272.75 1903.65 1277.8 1899.8 1282.95 1899.8 1289.4 1899.8 1297.4 1905.45 1303.05 1911.1 1308.7 1919.1 1308.7
L 1930.45 1308.7
Q 1935.8 1308.7 1940.35 1306 1944.8 1303.35 1947.3 1298.85 1944.4 1299.65 1941.65 1299.65
L 1930.35 1299.65
Q 1922.35 1299.65 1916.65 1294 1911 1288.35 1911 1280.35 1911 1275.35 1913.45 1270.9 Z"/>
</g>
</g>
</g>

<g transform="matrix( 0.7999725341796875, 0, 0, 0.7999725341796875, -1747.7,-521.05) ">
<g>
<g>
<path fill="#DCE8EF" stroke="none" d="
M 1943.85 1277.25
Q 1940.65 1274 1936.4 1272.15
L 1932.8 1270.9
Q 1932.05 1271.75 1932.9 1272.5 1933.4 1273 1937.35 1275.4 1939.95 1276.95 1942.5 1283.2 1944.65 1288.65 1945.5 1288.3 1947.35 1287.55 1947.3 1284.4 1947.3 1280.7 1943.85 1277.25 Z"/>
</g>
</g>
</g>

<g transform="matrix( 0.7999725341796875, 0, 0, 0.7999725341796875, -1747.7,-521.05) ">
<g>
<g>
<path fill="#DCE8EF" stroke="none" d="
M 1928.65 1270.25
Q 1927.2 1270.25 1926.8 1271.1
L 1926.7 1271.95 1926.95 1272.65
Q 1927.5 1273.3 1928.9 1273.3 1930.3 1273.3 1930.85 1272.65 1931.1 1272.3 1931.1 1271.95 1931.1 1271.55 1930.75 1271.1 1930.1 1270.25 1928.65 1270.25 Z"/>
</g>
</g>
</g>

<g transform="matrix( 0.7999725341796875, 0, 0, 0.7999725341796875, -1747.7,-521.05) ">
<g>
<g>
<path fill="#9BA5AA" stroke="none" d="
M 1907 1272.7
Q 1911.5 1270.15 1916.35 1270.25 1915.3 1269.2 1913.3 1268.9 1909.35 1268.25 1904.65 1271.8 1901.8 1273.95 1899.95 1278.4 1898.05 1282.95 1898.05 1288.1 1897.9 1300.7 1907.9 1307.25 1916.95 1313.2 1921.75 1311.55 1924.15 1310.7 1924.75 1308.7 1919.25 1309.55 1913.4 1307.8 1901.7 1304.2 1899.85 1291 1898 1277.8 1907 1272.7 Z"/>
</g>
</g>
</g>

<g transform="matrix( 0.7999725341796875, 0, 0, 0.7999725341796875, -1747.7,-521.05) ">
<g>
<g>
<path fill="#D23532" stroke="none" d="
M 1933.65 1234.7
Q 1933.65 1228.8 1929.45 1224.6 1925.3 1220.4 1919.4 1220.4 1913.5 1220.4 1909.3 1224.6 1905.1 1228.8 1905.1 1234.7
L 1905.1 1246.15
Q 1905.1 1252.1 1909.3 1256.25 1913.5 1260.45 1919.4 1260.45 1925.3 1260.45 1929.45 1256.25 1933.65 1252.05 1933.65 1246.15
L 1933.65 1234.7 Z"/>
</g>
</g>
</g>

<g transform="matrix( 0.7999725341796875, 0, 0, 0.7999725341796875, -1747.7,-521.05) ">
<g>
<g>
<path fill="#BD2B2E" stroke="none" d="
M 1909.3 1224.6
Q 1905.1 1228.8 1905.1 1234.7
L 1905.1 1246.15
Q 1905.1 1252.1 1909.3 1256.25 1913.5 1260.45 1919.4 1260.45 1921.7 1260.45 1924.1 1259.65 1919.9 1258.15 1917.25 1254.5 1914.55 1250.8 1914.55 1246.15
L 1914.55 1234.7
Q 1914.55 1230.1 1917.25 1226.35 1919.85 1222.75 1924.1 1221.25 1921.8 1220.4 1919.4 1220.4 1913.5 1220.4 1909.3 1224.6 Z"/>
</g>
</g>
</g>

<g transform="matrix( 0.7999725341796875, 0, 0, 0.7999725341796875, -1747.7,-521.05) ">
<g>
<g>
<path fill="#FAD14D" stroke="none" d="
M 1933.65 1246.2
L 1905.1 1246.2
Q 1905.15 1252.1 1909.3 1256.25 1913.5 1260.45 1919.4 1260.45 1925.3 1260.45 1929.45 1256.25 1933.65 1252.1 1933.65 1246.2 Z"/>
</g>
</g>
</g>

<g transform="matrix( 0.7999725341796875, 0, 0, 0.7999725341796875, -1747.7,-521.05) ">
<g>
<g>
<path fill="#F5CA43" stroke="none" d="
M 1917.3 1254.5
Q 1914.6 1250.8 1914.6 1246.2
L 1905.1 1246.2
Q 1905.15 1252.1 1909.3 1256.25 1913.5 1260.45 1919.4 1260.45 1921.85 1260.45 1924.15 1259.6 1919.95 1258.1 1917.3 1254.5 Z"/>
</g>
</g>
</g>

<g transform="matrix( 0.7999725341796875, 0, 0, 0.7999725341796875, -1747.7,-521.05) ">
<g>
<g>
<path fill="#A9292C" stroke="none" d="
M 1908.85 1221.75
Q 1905.55 1224.15 1904.1 1227.3 1902.8 1230.1 1902.65 1238.5 1902.45 1248.7 1905.3 1254.45 1908 1260 1913.95 1260.75 1916.9 1261.15 1919.3 1260.4 1912.55 1260.35 1909 1256.25 1904.25 1250.9 1904.2 1238.15 1904.15 1226.45 1910.9 1222.3 1914.25 1220.2 1917.65 1220.45 1913.3 1218.45 1908.85 1221.75 Z"/>
</g>
</g>
</g>

<g transform="matrix( 0.7999725341796875, 0, 0, 0.7999725341796875, -1747.7,-521.05) ">
<g>
<g>
<path fill="#FACD41" stroke="none" d="
M 1568.65 1206.9
Q 1568.25 1206.5 1567.7 1206.5 1567.15 1206.5 1566.75 1206.9 1566.35 1207.3 1566.35 1207.85
L 1566.35 1241.5
Q 1566.35 1242.05 1566.75 1242.45 1567.15 1242.85 1567.7 1242.85 1568.25 1242.85 1568.65 1242.45 1569.05 1242.05 1569.05 1241.5
L 1569.05 1207.85
Q 1569.05 1207.3 1568.65 1206.9 Z"/>
</g>
</g>
</g>

<g transform="matrix( 0.7999725341796875, 0, 0, 0.7999725341796875, -1747.7,-521.05) ">
<g>
<g>
<path fill="#FACD41" stroke="none" d="
M 1668.35 1206.9
Q 1668 1206.5 1667.45 1206.5 1666.9 1206.5 1666.5 1206.9 1666.1 1207.3 1666.1 1207.85
L 1666.1 1241.5
Q 1666.1 1242.05 1666.5 1242.45 1666.9 1242.85 1667.45 1242.85 1668 1242.85 1668.35 1242.45 1668.75 1242.05 1668.75 1241.5
L 1668.75 1207.85
Q 1668.75 1207.3 1668.35 1206.9 Z"/>
</g>
</g>
</g>

<g transform="matrix( 0.7999725341796875, 0, 0, 0.7999725341796875, -1747.7,-521.05) ">
<g>
<g>
<path fill="#FACD41" stroke="none" d="
M 1763.75 1206.9
Q 1763.4 1206.5 1762.85 1206.5 1762.3 1206.5 1761.9 1206.9 1761.5 1207.3 1761.5 1207.85
L 1761.5 1241.5
Q 1761.5 1242.05 1761.9 1242.45 1762.3 1242.85 1762.85 1242.85 1763.4 1242.85 1763.75 1242.45 1764.15 1242.05 1764.15 1241.5
L 1764.15 1207.85
Q 1764.15 1207.3 1763.75 1206.9 Z"/>
</g>
</g>
</g>

<g transform="matrix( 0.7999725341796875, 0, 0, 0.7999725341796875, -1747.7,-521.05) ">
<g>
<g>
<path fill="#FACD41" stroke="none" d="
M 1875.45 1206.9
Q 1875.05 1206.5 1874.5 1206.5 1873.95 1206.5 1873.55 1206.9 1873.15 1207.3 1873.15 1207.85
L 1873.15 1241.5
Q 1873.15 1242.05 1873.55 1242.45 1873.95 1242.85 1874.5 1242.85 1875.05 1242.85 1875.45 1242.45 1875.85 1242.05 1875.85 1241.5
L 1875.85 1207.85
Q 1875.85 1207.3 1875.45 1206.9 Z"/>
</g>
</g>
</g>

<g transform="matrix( 0.7999725341796875, 0, 0, 0.7999725341796875, -1747.7,-521.05) ">
<g>
<g>
<path fill="#232435" stroke="none" d="
M 1655.95 1211.6
Q 1655 1210.7 1653.7 1210.7
L 1651.35 1210.7
Q 1650.05 1210.7 1649.1 1211.6 1648.2 1212.55 1648.2 1213.85 1648.2 1215.15 1649.1 1216.1 1650.05 1217 1651.35 1217
L 1653.7 1217
Q 1655 1217 1655.95 1216.1 1656.85 1215.15 1656.85 1213.85 1656.85 1212.55 1655.95 1211.6 Z"/>
</g>
</g>
</g>

<g transform="matrix( 0.7999725341796875, 0, 0, 0.7999725341796875, -1747.7,-521.05) ">
<g>
<g>
<path fill="#232435" stroke="none" d="
M 1750.6 1211.6
Q 1749.65 1210.7 1748.35 1210.7
L 1746 1210.7
Q 1744.7 1210.7 1743.75 1211.6 1742.85 1212.55 1742.85 1213.85 1742.85 1215.15 1743.75 1216.1 1744.7 1217 1746 1217
L 1748.35 1217
Q 1749.65 1217 1750.6 1216.1 1751.5 1215.15 1751.5 1213.85 1751.5 1212.55 1750.6 1211.6 Z"/>
</g>
</g>
</g>

<g transform="matrix( 0.7999725341796875, 0, 0, 0.7999725341796875, -1747.7,-521.05) ">
<g>
<g>
<path fill="#232435" stroke="none" d="
M 1864.55 1213.85
Q 1864.55 1212.55 1863.65 1211.6 1862.7 1210.7 1861.4 1210.7
L 1859.05 1210.7
Q 1857.75 1210.7 1856.8 1211.6 1855.9 1212.55 1855.9 1213.85 1855.9 1215.15 1856.8 1216.1 1857.75 1217 1859.05 1217
L 1861.4 1217
Q 1862.7 1217 1863.65 1216.1 1864.55 1215.15 1864.55 1213.85 Z"/>
</g>
</g>
</g>
</g>
</g>
</svg>
