
<svg xmlns="http://www.w3.org/2000/svg" version="1.1" xmlns:xlink="http://www.w3.org/1999/xlink" preserveAspectRatio="none" x="0px" y="0px" width="506px" height="506px" viewBox="0 0 506 506">
<defs>
<linearGradient id="Gradient_1" gradientUnits="userSpaceOnUse" x1="1013.6125000000001" y1="256.675" x2="1035.7875000000001" y2="370.52500000000003" spreadMethod="pad">
<stop  offset="0%" stop-color="#F4B6DB"/>

<stop  offset="34.509803921568626%" stop-color="#E9B0D8"/>

<stop  offset="93.33333333333333%" stop-color="#CEA0D1"/>

<stop  offset="100%" stop-color="#CA9ED0"/>
</linearGradient>

<linearGradient id="Gradient_2" gradientUnits="userSpaceOnUse" x1="969.075" y1="305.625" x2="999.925" y2="405.475" spreadMethod="pad">
<stop  offset="0%" stop-color="#F4B6DB"/>

<stop  offset="34.509803921568626%" stop-color="#E9B0D8"/>

<stop  offset="93.33333333333333%" stop-color="#CEA0D1"/>

<stop  offset="100%" stop-color="#CA9ED0"/>
</linearGradient>

<linearGradient id="Gradient_3" gradientUnits="userSpaceOnUse" x1="1041" y1="301.8125" x2="1076.1999999999998" y2="406.48749999999995" spreadMethod="pad">
<stop  offset="0%" stop-color="#F4B6DB"/>

<stop  offset="29.019607843137255%" stop-color="#E9B0D8"/>

<stop  offset="78.43137254901961%" stop-color="#CEA0D1"/>

<stop  offset="83.92156862745098%" stop-color="#CA9ED0"/>

<stop  offset="99.2156862745098%" stop-color="#CA9ED0"/>
</linearGradient>

<filter id="Filter_1" x="-20%" y="-20%" width="140%" height="140%" color-interpolation-filters="sRGB">
<feColorMatrix in="SourceGraphic" type="matrix" values="1 0 0 0 0 0 1 0 0 0 0 0 1 0 0 0 0 0 0.2 0" result="result1"/>
</filter>

<filter id="Filter_2" x="-20%" y="-20%" width="140%" height="140%" color-interpolation-filters="sRGB">
<feColorMatrix in="SourceGraphic" type="matrix" values="0 0 0 0 255 0 0 0 0 255 0 0 0 0 255 0 0 0 255 0" result="result1"/>

<feComposite in2="result1" in="BackgroundImage" operator="in" result="result2"/>

<feBlend mode="multiply" in2="result2" in="SourceGraphic" result="result3"/>
</filter>

<filter id="Filter_3" x="-20%" y="-20%" width="140%" height="140%" color-interpolation-filters="sRGB">
<feColorMatrix in="SourceGraphic" type="matrix" values="0 0 0 0 255 0 0 0 0 255 0 0 0 0 255 0 0 0 255 0" result="result1"/>

<feComposite in2="result1" in="BackgroundImage" operator="in" result="result2"/>

<feBlend mode="multiply" in2="result2" in="SourceGraphic" result="result3"/>
</filter>

<filter id="Filter_4" x="-20%" y="-20%" width="140%" height="140%" color-interpolation-filters="sRGB">
<feColorMatrix in="SourceGraphic" type="matrix" values="1 0 0 0 0 0 1 0 0 0 0 0 1 0 0 0 0 0 0.3 0" result="result1"/>
</filter>

<filter id="Filter_5" x="-20%" y="-20%" width="140%" height="140%" color-interpolation-filters="sRGB">
<feColorMatrix in="SourceGraphic" type="matrix" values="0 0 0 0 255 0 0 0 0 255 0 0 0 0 255 0 0 0 255 0" result="result1"/>

<feComposite in2="result1" in="BackgroundImage" operator="in" result="result2"/>

<feBlend mode="multiply" in2="result2" in="SourceGraphic" result="result3"/>
</filter>

<filter id="Filter_6" x="-20%" y="-20%" width="140%" height="140%" color-interpolation-filters="sRGB">
<feColorMatrix in="SourceGraphic" type="matrix" values="1 0 0 0 0 0 1 0 0 0 0 0 1 0 0 0 0 0 0.1 0" result="result1"/>
</filter>

<filter id="Filter_7" x="-20%" y="-20%" width="140%" height="140%" color-interpolation-filters="sRGB">
<feColorMatrix in="SourceGraphic" type="matrix" values="0 0 0 0 255 0 0 0 0 255 0 0 0 0 255 0 0 0 255 0" result="result1"/>

<feComposite in2="result1" in="BackgroundImage" operator="in" result="result2"/>

<feBlend mode="multiply" in2="result2" in="SourceGraphic" result="result3"/>
</filter>

<filter id="Filter_8" x="-20%" y="-20%" width="140%" height="140%" color-interpolation-filters="sRGB">
<feColorMatrix in="SourceGraphic" type="matrix" values="0 0 0 0 255 0 0 0 0 255 0 0 0 0 255 0 0 0 255 0" result="result1"/>

<feComposite in2="result1" in="BackgroundImage" operator="in" result="result2"/>

<feBlend mode="multiply" in2="result2" in="SourceGraphic" result="result3"/>
</filter>

<filter id="Filter_9" x="-20%" y="-20%" width="140%" height="140%" color-interpolation-filters="sRGB">
<feColorMatrix in="SourceGraphic" type="matrix" values="0 0 0 0 255 0 0 0 0 255 0 0 0 0 255 0 0 0 255 0" result="result1"/>

<feComposite in2="result1" in="BackgroundImage" operator="in" result="result2"/>

<feBlend mode="multiply" in2="result2" in="SourceGraphic" result="result3"/>
</filter>

<filter id="Filter_10" x="-20%" y="-20%" width="140%" height="140%" color-interpolation-filters="sRGB">
<feColorMatrix in="SourceGraphic" type="matrix" values="0 0 0 0 255 0 0 0 0 255 0 0 0 0 255 0 0 0 255 0" result="result1"/>

<feComposite in2="result1" in="BackgroundImage" operator="in" result="result2"/>

<feBlend mode="multiply" in2="result2" in="SourceGraphic" result="result3"/>
</filter>

<filter id="Filter_11" x="-20%" y="-20%" width="140%" height="140%" color-interpolation-filters="sRGB">
<feColorMatrix in="SourceGraphic" type="matrix" values="1 0 0 0 0 0 1 0 0 0 0 0 1 0 0 0 0 0 0.6 0" result="result1"/>
</filter>

<filter id="Filter_12" x="-20%" y="-20%" width="140%" height="140%" color-interpolation-filters="sRGB">
<feColorMatrix in="SourceGraphic" type="matrix" values="1 0 0 0 0 0 1 0 0 0 0 0 1 0 0 0 0 0 0.4 0" result="result1"/>
</filter>

<filter id="Filter_13" x="-20%" y="-20%" width="140%" height="140%" color-interpolation-filters="sRGB">
<feColorMatrix in="SourceGraphic" type="matrix" values="0 0 0 0 255 0 0 0 0 255 0 0 0 0 255 0 0 0 255 0" result="result1"/>

<feComposite in2="result1" in="BackgroundImage" operator="in" result="result2"/>

<feBlend mode="multiply" in2="result2" in="SourceGraphic" result="result3"/>
</filter>

<filter id="Filter_14" x="-20%" y="-20%" width="140%" height="140%" color-interpolation-filters="sRGB">
<feColorMatrix in="SourceGraphic" type="matrix" values="0 0 0 0 255 0 0 0 0 255 0 0 0 0 255 0 0 0 255 0" result="result1"/>

<feComposite in2="result1" in="BackgroundImage" operator="in" result="result2"/>

<feBlend mode="multiply" in2="result2" in="SourceGraphic" result="result3"/>
</filter>

<filter id="Filter_15" x="-20%" y="-20%" width="140%" height="140%" color-interpolation-filters="sRGB">
<feColorMatrix in="SourceGraphic" type="matrix" values="0 0 0 0 255 0 0 0 0 255 0 0 0 0 255 0 0 0 255 0" result="result1"/>

<feComposite in2="result1" in="BackgroundImage" operator="in" result="result2"/>

<feBlend mode="multiply" in2="result2" in="SourceGraphic" result="result3"/>
</filter>

<filter id="Filter_16" x="-20%" y="-20%" width="140%" height="140%" color-interpolation-filters="sRGB">
<feColorMatrix in="SourceGraphic" type="matrix" values="0 0 0 0 255 0 0 0 0 255 0 0 0 0 255 0 0 0 255 0" result="result1"/>

<feComposite in2="result1" in="BackgroundImage" operator="in" result="result2"/>

<feBlend mode="multiply" in2="result2" in="SourceGraphic" result="result3"/>
</filter>

<filter id="Filter_17" x="-20%" y="-20%" width="140%" height="140%" color-interpolation-filters="sRGB">
<feColorMatrix in="SourceGraphic" type="matrix" values="0 0 0 0 255 0 0 0 0 255 0 0 0 0 255 0 0 0 255 0" result="result1"/>

<feComposite in2="result1" in="BackgroundImage" operator="in" result="result2"/>

<feBlend mode="multiply" in2="result2" in="SourceGraphic" result="result3"/>
</filter>

<filter id="Filter_18" x="NaN%" y="NaN%" width="NaN%" height="NaN%" color-interpolation-filters="sRGB">
<feColorMatrix in="SourceGraphic" type="matrix" values="0 0 0 0 255 0 0 0 0 255 0 0 0 0 255 0 0 0 255 0" result="result1"/>

<feComposite in2="result1" in="BackgroundImage" operator="in" result="result2"/>

<feBlend mode="multiply" in2="result2" in="SourceGraphic" result="result3"/>
</filter>

<filter id="Filter_19" x="-20%" y="-20%" width="140%" height="140%" color-interpolation-filters="sRGB">
<feColorMatrix in="SourceGraphic" type="matrix" values="0 0 0 0 255 0 0 0 0 255 0 0 0 0 255 0 0 0 255 0" result="result1"/>

<feComposite in2="result1" in="BackgroundImage" operator="in" result="result2"/>

<feBlend mode="multiply" in2="result2" in="SourceGraphic" result="result3"/>
</filter>

<filter id="Filter_20" x="-20%" y="-20%" width="140%" height="140%" color-interpolation-filters="sRGB">
<feColorMatrix in="SourceGraphic" type="matrix" values="0 0 0 0 255 0 0 0 0 255 0 0 0 0 255 0 0 0 255 0" result="result1"/>

<feComposite in2="result1" in="BackgroundImage" operator="in" result="result2"/>

<feBlend mode="multiply" in2="result2" in="SourceGraphic" result="result3"/>
</filter>

<filter id="Filter_21" x="-20%" y="-20%" width="140%" height="140%" color-interpolation-filters="sRGB">
<feColorMatrix in="SourceGraphic" type="matrix" values="0 0 0 0 255 0 0 0 0 255 0 0 0 0 255 0 0 0 255 0" result="result1"/>

<feComposite in2="result1" in="BackgroundImage" operator="in" result="result2"/>

<feBlend mode="multiply" in2="result2" in="SourceGraphic" result="result3"/>
</filter>

<filter id="Filter_22" x="-20%" y="-20%" width="140%" height="140%" color-interpolation-filters="sRGB">
<feColorMatrix in="SourceGraphic" type="matrix" values="0 0 0 0 255 0 0 0 0 255 0 0 0 0 255 0 0 0 255 0" result="result1"/>

<feComposite in2="result1" in="BackgroundImage" operator="in" result="result2"/>

<feBlend mode="multiply" in2="result2" in="SourceGraphic" result="result3"/>
</filter>

<filter id="Filter_23" x="-20%" y="-20%" width="140%" height="140%" color-interpolation-filters="sRGB">
<feColorMatrix in="SourceGraphic" type="matrix" values="0 0 0 0 255 0 0 0 0 255 0 0 0 0 255 0 0 0 255 0" result="result1"/>

<feComposite in2="result1" in="BackgroundImage" operator="in" result="result2"/>

<feBlend mode="multiply" in2="result2" in="SourceGraphic" result="result3"/>
</filter>

<filter id="Filter_24" x="-20%" y="-20%" width="140%" height="140%" color-interpolation-filters="sRGB">
<feColorMatrix in="SourceGraphic" type="matrix" values="0 0 0 0 255 0 0 0 0 255 0 0 0 0 255 0 0 0 255 0" result="result1"/>

<feComposite in2="result1" in="BackgroundImage" operator="in" result="result2"/>

<feBlend mode="multiply" in2="result2" in="SourceGraphic" result="result3"/>
</filter>

<filter id="Filter_25" x="-20%" y="-20%" width="140%" height="140%" color-interpolation-filters="sRGB">
<feColorMatrix in="SourceGraphic" type="matrix" values="0 0 0 0 255 0 0 0 0 255 0 0 0 0 255 0 0 0 255 0" result="result1"/>

<feComposite in2="result1" in="BackgroundImage" operator="in" result="result2"/>

<feBlend mode="multiply" in2="result2" in="SourceGraphic" result="result3"/>
</filter>

<filter id="Filter_26" x="-20%" y="-20%" width="140%" height="140%" color-interpolation-filters="sRGB">
<feColorMatrix in="SourceGraphic" type="matrix" values="0 0 0 0 255 0 0 0 0 255 0 0 0 0 255 0 0 0 255 0" result="result1"/>

<feComposite in2="result1" in="BackgroundImage" operator="in" result="result2"/>

<feBlend mode="multiply" in2="result2" in="SourceGraphic" result="result3"/>
</filter>
</defs>

<g enable-background="new">
<g id="cartoon_cars_illustration_pack"/>

<g id="Layer_1">
<g transform="matrix( 1.51666259765625, 0, 0, 1.51666259765625, -1296.25,-305.65) ">
<g>
<g>
<path fill="#CE865E" stroke="none" d="
M 977.35 372.05
L 982.3 389.7
Q 988.4 410.85 994.35 428.55 1013.35 485 1023.35 485 1033 485 1052.2 424.65 1058.2 405.75 1064.4 383.1
L 1069.45 364.25
Q 1066.2 360.3 1060.7 355.5 1049.65 345.85 1038.4 341.55 1002.35 327.7 977.35 372.05 Z"/>
</g>
</g>
</g>

<g id="Layer_1" transform="matrix( 1.51666259765625, 0, 0, 1.51666259765625, 208.3,317.25) ">
<g>
<g filter="url(#Filter_1)">
<g>
<path fill="#F5CE93" stroke="none" d="
M 45.75 6.35
L 47.85 10.85 40.8 11 34.4 14.1 31.55 8.35 25.7 6.65 30.25 16.1 18.25 21.95 12.35 10.05 21.6 5.5 14.9 3.55 10.25 5.85 8.1 1.6 2.65 0 6.3 7.75 0 10.85 1.5 15.35 8.35 12 14.1 23.95 5.85 28 7.45 32.45 16.15 28.2 21.95 40.1 12.25 44.9 14.05 49.2 24 44.35 29.85 56.25 19.7 61.25
Q 20.7 63.2 22 65.35
L 31.95 60.5 36.85 70.25
Q 38.1 68.55 39.7 65.95
L 36.1 58.45 45.75 53.7
Q 47.9 48.65 49.4 44.75
L 44.35 34.35 55.15 28.95 57.85 20.95
Q 52.85 10.2 51.8 8.1
L 45.75 6.35
M 48.6 12.45
L 54.3 24.5 42.35 30.2 36.45 18.2 48.6 12.45
M 28.25 42.3
L 40.15 36.45 46.05 48.4 34.05 54.2 28.25 42.3
M 38.1 32.25
L 26.2 38.05 20.35 26.15 32.25 20.3 38.1 32.25 Z"/>
</g>
</g>
</g>
</g>

<g transform="matrix( 1.51666259765625, 0, 0, 1.51666259765625, -1296.25,-305.65) ">
<g>
<g>
<path fill="#9D5D48" stroke="none" d="
M 977.35 372.05
L 981.2 385.9
Q 986.05 402.85 990.9 418.05 1006.3 424.9 1023.75 424.9 1039.6 424.9 1053.9 419.15 1059.4 401.5 1065 381.1
L 1069.45 364.25
Q 1066.2 360.3 1060.7 355.5 1049.65 345.85 1038.4 341.55 1002.35 327.7 977.35 372.05 Z"/>
</g>
</g>
</g>

<g filter="url(#Filter_2)" transform="matrix( 1, 0, 0, 1, 0,0) ">
<g id="Layer_1" transform="matrix( 1.51666259765625, 0, 0, 1.51666259765625, 185.95,207.45) ">
<g>
<g>
<g>
<path fill="#EED2F1" stroke="none" d="
M 92.1 25.9
Q 88.85 21.95 83.35 17.15 72.3 7.5 61.05 3.2 25 -10.65 0 33.7 2.05 41.45 5.4 52.9 12.05 75.85 18.4 94.3 24.6 78.35 30.3 78.45 37.1 78.65 44.8 96.65 52.25 114.1 55.65 136.2 65.6 117.85 79.85 70.05 86.95 46.15 92.1 25.9 Z"/>
</g>
</g>
</g>
</g>
</g>

<g filter="url(#Filter_3)" transform="matrix( 1, 0, 0, 1, 0,0) ">
<g id="Layer_1" transform="matrix( 1.51666259765625, 0, 0, 1.51666259765625, 185.95,219) ">
<g>
<g filter="url(#Filter_4)">
<g>
<path fill="#7A4234" stroke="none" d="
M 92.1 18.25
Q 89.3 14.85 84.45 10.5 80.35 8.7 74.65 8.65 66.8 8.5 48.45 4.4 29.8 0.25 21.85 0 9.9 8.4 0 26.05 2.5 35.55 6.5 49.05 9.6 49.4 13.9 50.1
L 17.8 58.2
Q 22.7 66.2 27.75 65.75 33.2 65.3 36.85 58.25
L 39.45 51.3 53.45 51.75 54.1 54.7
Q 55.05 58.25 56.4 61.3 60.65 70.95 67.3 71.4 72.2 71.75 78.75 66.05 86.45 40.6 92.1 18.25 Z"/>
</g>
</g>
</g>
</g>
</g>

<g transform="matrix( 1.51666259765625, 0, 0, 1.51666259765625, -1296.25,-305.65) ">
<g>
<g>
<path fill="url(#Gradient_1)" stroke="none" d="
M 1065.65 285.7
Q 1062.1 277.15 1055.6 270.65 1049.05 264.15 1040.5 260.6 1031.95 257.05 1022.75 257.05 1013.55 257.05 1004.95 260.6 996.4 264.15 989.9 270.65 983.4 277.15 979.85 285.7 976.3 294.3 976.3 303.5 976.3 312.7 979.85 321.25 983.4 329.8 989.9 336.35 996.4 342.85 1004.95 346.4 1013.55 349.95 1022.75 349.95 1031.95 349.95 1040.5 346.4 1049.05 342.85 1055.6 336.35 1062.1 329.8 1065.65 321.25 1069.2 312.7 1069.2 303.5 1069.2 294.3 1065.65 285.7 Z"/>
</g>
</g>
</g>

<g filter="url(#Filter_5)" transform="matrix( 1, 0, 0, 1, 0,0) ">
<g id="Layer_1" transform="matrix( 1.51666259765625, 0, 0, 1.51666259765625, 184.35,104.7) ">
<g>
<g filter="url(#Filter_6)">
<g>
<path fill="#9C4D7F" stroke="none" d="
M 92.9 32.85
Q 92.9 23.65 89.35 15.05 85.8 6.5 79.3 0
L 79.25 0
Q 79 3 78.45 5.75 77.1 12.65 72 19.35 66.9 26 60.6 29.2 52.75 33.15 44.8 34.2 36.9 35.25 28.25 33.5 20.9 32.05 14.05 27 7.55 22.15 3.4 15.5 0 23.9 0 32.85 0 42.05 3.55 50.6 7.1 59.15 13.6 65.7 20.1 72.2 28.65 75.75 37.25 79.3 46.45 79.3 55.65 79.3 64.2 75.75 72.75 72.2 79.3 65.7 85.8 59.15 89.35 50.6 92.9 42.05 92.9 32.85 Z"/>
</g>
</g>
</g>
</g>
</g>

<g filter="url(#Filter_7)" transform="matrix( 1, 0, 0, 1, 0,0) ">
<g id="Layer_1" transform="matrix( 1.51666259765625, 0, 0, 1.51666259765625, 193.45,153) ">
<g>
<g filter="url(#Filter_4)">
<g>
<path fill="#9C4D7F" stroke="none" d="
M 82.5 16.35
Q 92.45 10.05 85.9 5.05 74.05 -4 55.6 3 46.4 6.5 39.55 11.8 26.35 2.35 11.85 2.05 4.6 1.9 0 3.6 6 17.65 23.25 22.85 37.7 27.25 56.2 24.7 72.85 22.4 82.5 16.35 Z"/>
</g>
</g>
</g>
</g>
</g>

<g transform="matrix( 1.51666259765625, 0, 0, 1.51666259765625, -1296.25,-305.65) ">
<g>
<g>
<path fill="#A35782" stroke="none" d="
M 985.7 303.75
Q 985.4 302.3 983.75 302.5 983 302.6 982.55 302.85 982.2 297.1 977.05 296 972.05 294.95 969.15 299.25 968.05 300.9 967.95 302.9 967.8 304.95 968.7 306.7 969.65 308.5 971.2 309.5 972.8 310.6 974.95 310.75 977.05 310.85 978.8 310 980.5 309.15 981.5 307.7 982.8 308.85 984.2 308.7 984.65 308.65 984.75 308.05 985 306.6 983.4 305.35 984.45 305.5 985.1 305.15 985.85 304.7 985.7 303.75 Z"/>
</g>
</g>
</g>

<g transform="matrix( 1.51666259765625, 0, 0, 1.51666259765625, -1296.25,-305.65) ">
<g>
<g>
<path fill="url(#Gradient_2)" stroke="none" d="
M 1001.6 308.95
Q 993.05 305.4 983.85 305.4 974.65 305.4 966.1 308.95 957.5 312.5 951 319 939.1 330.9 938.15 350.2 937.3 366.75 944.35 384.4 948.45 394.6 954.6 393.3 960.65 392.1 962.65 381.5 969.6 386.65 977.5 389.35 985.45 392 993.4 391.8 994.45 396.75 996.05 399.9 998.4 404.35 1001.55 404.2 1005.4 404.05 1007.9 398.2 1009.7 394 1010.6 387.4 1014.35 385.5 1017.7 382.65 1031.75 370.9 1031 351.35 1030.25 332.5 1016.7 319 1010.2 312.5 1001.6 308.95 Z"/>
</g>
</g>
</g>

<g filter="url(#Filter_8)" transform="matrix( 1, 0, 0, 1, 0,0) ">
<g id="Layer_1" transform="matrix( 1.51666259765625, 0, 0, 1.51666259765625, 126.65,163.2) ">
<g>
<g filter="url(#Filter_6)">
<g>
<path fill="#9C4D7F" stroke="none" d="
M 68.6 31
Q 65.9 39 60.35 45.6 54.65 52.35 47.3 55.95 41.6 59.05 33 60.6 23.5 62.3 15.7 61 15.45 67.55 14.35 71 12.9 75.4 10.2 73.8 7.7 72.3 6.35 66.55 5.25 59.8 4.75 57.2 2.85 54.95 2.3 54.2 0.8 52.1 0 49.65 1 62.35 6.1 75.2 10.2 85.4 16.35 84.1 22.4 82.9 24.4 72.3 31.35 77.45 39.25 80.15 47.2 82.8 55.15 82.6 56.2 87.55 57.8 90.7 60.15 95.15 63.3 95 67.15 94.85 69.65 89 71.45 84.8 72.35 78.2 76.1 76.3 79.45 73.45 93.5 61.7 92.75 42.15 92 23.3 78.45 9.8 72.2 3.55 63.95 0 74.75 12.9 68.6 31 Z"/>
</g>
</g>
</g>
</g>
</g>

<g filter="url(#Filter_9)" transform="matrix( 1, 0, 0, 1, 0,0) ">
<g id="Layer_1" transform="matrix( 1.51666259765625, 0, 0, 1.51666259765625, 229.65,198.55) ">
<g>
<g filter="url(#Filter_4)">
<g>
<path fill="#9C4D7F" stroke="none" d="
M 15.1 14.45
Q 11.5 2.7 9.45 0 4.15 5.65 1.5 14.95 -3.85 33.55 9.25 51.95 10.7 50.9 11.55 50.15 17.55 45.15 20.95 38.15 18.75 26.45 15.1 14.45 Z"/>
</g>
</g>
</g>
</g>
</g>

<g transform="matrix( 1.51666259765625, 0, 0, 1.51666259765625, -1296.25,-305.65) ">
<g>
<g>
<path fill="#997396" stroke="none" d="
M 1044.35 305.25
L 1044.75 306.45
Q 1045.85 309.15 1048.6 310.25 1051.35 311.35 1054.05 310.25 1056.7 309.1 1057.9 306.35 1059.05 303.6 1057.85 300.95 1056.75 298.2 1054 297.1 1051.3 296 1048.55 297.1 1046.2 298.1 1045 300.45 1043.25 299.3 1041.75 300 1041.35 300.2 1041.4 300.55 1041.75 301.75 1042.95 302.55
L 1043.25 302.75
Q 1042.55 302.85 1042.2 303 1041.45 303.2 1041.1 303.8 1040.7 304.45 1041.15 305.15 1041.75 306.05 1043.7 305.45
L 1044.35 305.25 Z"/>
</g>
</g>
</g>

<g transform="matrix( 1.51666259765625, 0, 0, 1.51666259765625, -1296.25,-305.65) ">
<g>
<g>
<path fill="url(#Gradient_3)" stroke="none" d="
M 1031.85 313.4
Q 1020 321.6 1014.1 334.65 1008.05 348 1010.75 361.1 1013.7 375.5 1026.65 385.4 1030.15 388 1034.2 389.85 1035.25 398.55 1037.7 405.1 1040.35 412.15 1043.25 412.55 1045.9 412.95 1049.1 407.45 1052.3 402 1053.45 395.2 1059.9 395.9 1065.2 394.85 1081.8 391.65 1093.3 379.9 1105.55 367.35 1105.55 351.1 1105.55 341.9 1102 333.35 1098.45 324.75 1091.95 318.25 1085.45 311.75 1076.9 308.2 1068.3 304.65 1059.1 304.65 1044.35 304.65 1031.85 313.4 Z"/>
</g>
</g>
</g>

<g filter="url(#Filter_10)" transform="matrix( 1, 0, 0, 1, 0,0) ">
<g id="Layer_1" transform="matrix( 1.51666259765625, 0, 0, 1.51666259765625, 235.4,168) ">
<g>
<g filter="url(#Filter_6)">
<g>
<path fill="#9C4D7F" stroke="none" d="
M 92.05 21
Q 88.5 12.4 82 5.9 78.65 2.55 74.75 0 77.8 2.5 80.45 10.5 83.5 19.55 83.55 29.3 83.8 56 62.8 68.3 55.95 72.3 46.15 73.1 35.7 73.9 26.35 70.6 2.75 62.2 0.5 34.4 -1.2 45.2 2.6 54.9 6.7 65.4 16.7 73.05 20.2 75.65 24.25 77.5 25.3 86.2 27.75 92.75 30.4 99.8 33.3 100.2 35.95 100.6 39.15 95.1 42.35 89.65 43.5 82.85 49.95 83.55 55.25 82.5 71.85 79.3 83.35 67.55 95.6 55 95.6 38.75 95.6 29.55 92.05 21 Z"/>
</g>
</g>
</g>
</g>
</g>

<g id="Layer_1" transform="matrix( 1.51666259765625, 0, 0, 1.51666259765625, 139.2,165.1) ">
<g>
<g filter="url(#Filter_11)">
<g>
<path fill="#EED2F1" stroke="none" d="
M 52.95 27
Q 56.65 16.9 51.7 9.05 46.8 1.2 36.15 0.15 25.45 -0.9 15.3 5.45 5.15 11.8 1.5 21.85 -2.2 31.95 2.75 39.8 7.65 47.65 18.35 48.7 29 49.75 39.15 43.4 49.3 37.05 52.95 27 Z"/>
</g>
</g>
</g>
</g>

<g id="Layer_1" transform="matrix( 1.51666259765625, 0, 0, 1.51666259765625, 252.4,164.6) ">
<g>
<g filter="url(#Filter_12)">
<g>
<path fill="#EED2F1" stroke="none" d="
M 54.65 31.55
Q 59.4 21.5 55.1 12.45 50.8 3.45 40 0.8 29.15 -1.85 18.15 3.45 7.15 8.7 2.4 18.8 -2.35 28.85 1.95 37.85 6.25 46.9 17.1 49.55 27.9 52.2 38.9 46.9 49.95 41.65 54.65 31.55 Z"/>
</g>
</g>
</g>
</g>

<g id="Layer_1" transform="matrix( 1.51666259765625, 0, 0, 1.51666259765625, 209.15,88.3) ">
<g>
<g filter="url(#Filter_12)">
<g>
<path fill="#EED2F1" stroke="none" d="
M 45.8 28.25
Q 51.55 20.9 49.5 13.2 47.45 5.45 38.8 1.95 30.15 -1.6 20 1.15 9.85 3.85 4.15 11.2 -1.55 18.55 0.5 26.25 2.55 33.95 11.15 37.45 19.8 41 29.95 38.3 40.05 35.6 45.8 28.25 Z"/>
</g>
</g>
</g>
</g>

<g transform="matrix( 1.51666259765625, 0, 0, 1.51666259765625, -1296.25,-305.65) ">
<g>
<g>
<path fill="#EED2F1" stroke="none" d="
M 968.7 335.85
Q 972.05 331.2 971 326.9 969.9 322.6 964.55 322.2 959.05 321.8 954.95 328.05 950.8 334.4 954.9 338.5 957.05 340.75 960.25 340.75 965.2 340.75 968.7 335.85 Z"/>
</g>
</g>
</g>

<g transform="matrix( 1.51666259765625, 0, 0, 1.51666259765625, -1296.25,-305.65) ">
<g>
<g>
<path fill="#EED2F1" stroke="none" d="
M 1044.9 331.4
Q 1047.95 326.7 1045.8 323 1042.45 317.25 1035.7 320.8 1029.2 324.25 1028.75 330 1028.45 333.45 1031.6 335.85 1034.75 338.2 1038 337.1 1042.15 335.7 1044.9 331.4 Z"/>
</g>
</g>
</g>

<g transform="matrix( 1.51666259765625, 0, 0, 1.51666259765625, -1296.25,-305.65) ">
<g>
<g>
<path fill="#EED2F1" stroke="none" d="
M 1001.9 282.6
Q 1004.75 284.7 1008.95 283.5 1012.8 282.45 1015.45 278.3 1018.25 273.9 1016.2 270.4 1015.1 268.55 1013.1 267.75 1011.1 266.9 1009 267.45 1005.3 268.4 1002.6 271.1 999.7 273.9 999.45 277.25 999.2 280.6 1001.9 282.6 Z"/>
</g>
</g>
</g>

<g transform="matrix( 1.51666259765625, 0, 0, 1.51666259765625, -1296.25,-305.65) ">
<g>
<g>
<path fill="#997396" stroke="none" d="
M 1031.7 257.6
Q 1030.55 254.65 1027.8 253.5 1025 252.25 1021.85 253.75 1021.25 252.7 1020.45 252.45 1019.9 252.25 1019.45 252.4 1018.85 252.55 1018.75 253.15 1018.65 253.85 1019.25 255.05
L 1019.4 255.3
Q 1018.4 254.9 1017.6 254.95 1016.8 255 1016.35 255.55 1015.8 256.1 1016.2 256.85 1016.6 257.7 1018.3 258 1017.8 259.9 1018.5 261.95 1020 266.25 1024.45 266.4 1028.6 266.55 1031.05 263.5
L 1031.1 263.45
Q 1032.95 260.7 1031.7 257.6 Z"/>
</g>
</g>
</g>

<g transform="matrix( 1.51666259765625, 0, 0, 1.51666259765625, -1296.25,-305.65) ">
<g>
<g>
<path fill="#A35782" stroke="none" d="
M 997.5 319.9
Q 997 319.85 996.8 320.4 996.5 321.55 997.2 322.95 996.4 323.1 995.4 323.5 992.2 324.95 991.35 327.85 990.5 330.85 992.6 333.95 994.2 336.3 997 336.7 999.55 337.05 1001.9 335.7 1004.3 334.3 1004.95 331.9 1005.7 329.15 1003.8 326.2 1002.65 324.35 1001.4 323.65
L 1001.55 323.45
Q 1002.75 321.55 1002.2 320.9 1001.05 319.4 999.45 322.4
L 999.3 321.75
Q 998.9 320.2 997.5 319.9 Z"/>
</g>
</g>
</g>

<g transform="matrix( 1.51666259765625, 0, 0, 1.51666259765625, -1296.25,-305.65) ">
<g>
<g>
<path fill="#A35782" stroke="none" d="
M 1048.95 355.5
Q 1047.25 354.05 1044.75 354.05 1041.7 354.05 1039.9 356.15 1038.3 358.05 1038.3 360.75 1038.3 363.45 1039.95 365.35 1041.75 367.45 1044.8 367.45 1048.15 367.45 1049.95 364.95 1051.6 362.65 1051.2 359.7
L 1051.35 359.7
Q 1053.05 359.3 1053.6 358.55 1054 358.05 1053.75 357.65 1052.75 356.45 1051.35 356.95 1052.5 355.6 1052 354.65 1051.65 354 1050.95 353.95 1050.25 353.9 1049.7 354.4 1049.3 354.75 1048.95 355.5 Z"/>
</g>
</g>
</g>

<g transform="matrix( 1.51666259765625, 0, 0, 1.51666259765625, -1296.25,-305.65) ">
<g>
<g>
<path fill="#997396" stroke="none" d="
M 965.95 356.6
Q 965.95 353.9 963.95 351.8 962 349.85 959.15 349.85
L 957.9 349.95
Q 957.1 347.95 955.95 348 955.05 348.05 954.9 349 954.75 349.8 955.2 350.6 953.8 349.7 952.9 350.05 951.95 350.4 952.8 351.5 953.2 352.05 953.75 352.6 952.4 354.45 952.4 356.65 952.4 359.4 954.4 361.4 956.5 363.4 959.2 363.4 962 363.3 964 361.4 965.95 359.35 965.95 356.6 Z"/>
</g>
</g>
</g>

<g transform="matrix( 1.51666259765625, 0, 0, 1.51666259765625, -1296.25,-305.65) ">
<g>
<g>
<path fill="#A35782" stroke="none" d="
M 1086.85 308.65
Q 1085.25 307.2 1083.7 306.8 1081.9 306.35 1080.15 306.8 1078.35 307.35 1077.15 308.55 1075.1 310.6 1075.1 313.6 1075.1 315.8 1075.95 317.2 1076.7 318.55 1078.55 319.65 1079.95 320.45 1081.65 320.55 1081.75 320.55 1081.65 322.2 1081.75 323.75 1082.7 323.4 1083.55 323.1 1084 321.45
L 1084.15 320.5
Q 1084.45 320.95 1085.1 321.45 1085.8 321.95 1086.35 322.05 1086.8 322.2 1087.25 321.9 1087.95 321.4 1087.05 319.45
L 1086.7 318.75 1088.3 316.05
Q 1088.85 314.95 1088.9 313.95 1088.95 313.2 1088.75 311.75 1088.5 310.2 1086.85 308.65 Z"/>
</g>
</g>
</g>

<g filter="url(#Filter_13)" transform="matrix( 1, 0, 0, 1, 0,0) ">
<g id="Layer_1" transform="matrix( 1.51666259765625, 0, 0, 1.51666259765625, 305.6,245.8) ">
<g>
<g filter="url(#Filter_4)">
<g>
<path fill="#E1A4C9" stroke="none" d="
M 4.65 1.45
Q 4.35 1.1 3.6 0.65 2.65 0.05 1.6 0 0.55 -0.1 0.1 1 -0.3 2.1 0.45 2.8 0.9 3.25 1.8 3.7 3.1 4.5 3.95 4.2 5.2 3.7 5.15 2.65 5.1 1.95 4.65 1.45 Z"/>
</g>
</g>
</g>
</g>
</g>

<g filter="url(#Filter_14)" transform="matrix( 1, 0, 0, 1, 0,0) ">
<g id="Layer_1" transform="matrix( 1.51666259765625, 0, 0, 1.51666259765625, 339.5,215.3) ">
<g>
<g filter="url(#Filter_4)">
<g>
<path fill="#E1A4C9" stroke="none" d="
M 6.35 2.75
Q 6.1 1.5 5.2 0.75 4.35 0.05 3.35 0 2.25 -0.05 1.55 0.75 0.55 1.75 0.15 3.35 -0.35 5.35 1.55 6.9 1.9 7.2 3.15 7.3 5.15 7.5 6.15 5.05 6.6 3.95 6.35 2.75 Z"/>
</g>
</g>
</g>
</g>
</g>

<g filter="url(#Filter_15)" transform="matrix( 1, 0, 0, 1, 0,0) ">
<g id="Layer_1" transform="matrix( 1.51666259765625, 0, 0, 1.51666259765625, 317,182.05) ">
<g>
<g filter="url(#Filter_4)">
<g>
<path fill="#E1A4C9" stroke="none" d="
M 4.6 3.25
Q 4.95 1.6 3.4 0.5 2.45 -0.2 1.2 0.1 0.3 0.25 0.05 1.25 -0.25 2.3 0.7 3.05
L 0.8 3.15 0.85 3.15
Q 1.4 4.05 1.9 4.4 2.6 4.9 3.5 4.5 4.4 4.1 4.6 3.25 Z"/>
</g>
</g>
</g>
</g>
</g>

<g filter="url(#Filter_16)" transform="matrix( 1, 0, 0, 1, 0,0) ">
<g id="Layer_1" transform="matrix( 1.51666259765625, 0, 0, 1.51666259765625, 288.85,212.3) ">
<g>
<g filter="url(#Filter_4)">
<g>
<path fill="#E1A4C9" stroke="none" d="
M 6.9 5.05
Q 8.1 3.65 7.6 2.4 6.8 0.55 5.05 0.1 3.6 -0.25 2.3 0.3 1.05 0.75 0.4 1.8 -0.25 2.9 0.1 4.15 0.5 5.65 1.95 6.2 3.35 6.75 4.7 6.05
L 5.05 6
Q 6.4 5.6 6.9 5.05 Z"/>
</g>
</g>
</g>
</g>
</g>

<g filter="url(#Filter_17)" transform="matrix( 1, 0, 0, 1, 0,0) ">
<g id="Layer_1" transform="matrix( 1.51666259765625, 0, 0, 1.51666259765625, 142.1,241) ">
<g>
<g filter="url(#Filter_4)">
<g>
<path fill="#E1A4C9" stroke="none" d="
M 4.35 2.9
Q 4.55 1.7 3.6 0.8 2.8 0.1 2.15 0.05 1.45 -0.1 0.85 0.2 0.25 0.5 0.05 1.2 -0.15 1.95 0.25 2.6 0.65 3.15 1.4 3.35
L 1.5 3.4 1.45 3.35 1.5 3.35
Q 1.5 3.3666015625 1.5 3.4 2.1 3.95 2.9 4 3.35 4.05 3.8 3.7 4.3 3.35 4.35 2.9 Z"/>
</g>
</g>
</g>
</g>
</g>

<g filter="url(#Filter_18)" transform="matrix( 1, 0, 0, 1, 0,0) ">
<g id="Layer_1" transform="matrix( 1.51666259765625, 0, 0, 1.51666259765625, 144.2,246.05) "/>
</g>

<g filter="url(#Filter_19)" transform="matrix( 1, 0, 0, 1, 0,0) ">
<g id="Layer_1" transform="matrix( 1.51666259765625, 0, 0, 1.51666259765625, 192.2,206.65) ">
<g>
<g filter="url(#Filter_4)">
<g>
<path fill="#E1A4C9" stroke="none" d="
M 3.8 0.6
Q 3.45 0.15 2.95 0.05 2.1 -0.15 1.4 0.4
L 0.45 1.15
Q -0.05 1.6 -0.05 2.3 0 3 0.45 3.45 1.45 4.55 2.75 3.45
L 3.05 3.2 3.2 3.1 3.3 3
Q 4 2.5 4.15 1.55 4.2 1.05 3.8 0.6 Z"/>
</g>
</g>
</g>
</g>
</g>

<g filter="url(#Filter_20)" transform="matrix( 1, 0, 0, 1, 0,0) ">
<g id="Layer_1" transform="matrix( 1.51666259765625, 0, 0, 1.51666259765625, 199.6,179.95) ">
<g>
<g filter="url(#Filter_4)">
<g>
<path fill="#E1A4C9" stroke="none" d="
M 3.15 4.05
Q 4.25 3.4 3.9 2.2 3.6 1 2.35 0.2 1.6 -0.3 0.8 0.2 0.35 0.5 0.1 0.95 -0.15 1.5 0.05 1.95 0.6 3.35 1.15 3.8 2.2 4.6 3.15 4.05 Z"/>
</g>
</g>
</g>
</g>
</g>

<g filter="url(#Filter_21)" transform="matrix( 1, 0, 0, 1, 0,0) ">
<g id="Layer_1" transform="matrix( 1.51666259765625, 0, 0, 1.51666259765625, 201.8,261) ">
<g>
<g filter="url(#Filter_4)">
<g>
<path fill="#E1A4C9" stroke="none" d="
M 4.35 2.15
Q 4.15 1.35 3.4 0.6 2.95 0.05 2.15 0.05
L 2.05 0 1.95 0 1.25 0.05
Q 0.2 0.35 0.1 1.15 0.05 1.45 0.05 1.65
L 0.05 1.7
Q -0.05 2.1 0.05 2.55
L 0.15 2.95 0.1 2.85 0.25 3.3
Q 0.8 4.8 2.3 4.85 2.95 4.9 3.8 4.25 4.65 3.6 4.35 2.15 Z"/>
</g>
</g>
</g>
</g>
</g>

<g transform="matrix( 1.51666259765625, 0, 0, 1.51666259765625, -1296.25,-305.65) ">
<g>
<g>
<path fill="#C15668" stroke="none" d="
M 1031.35 274.95
L 1031.25 275.45 1031.2 275.6
Q 1030.95 277.05 1031.35 277.85 1031.85 278.65 1032.85 278.8 1033.8 278.9 1034.5 278.25 1035.25 277.5 1035.2 276.25 1035.1 275 1034.35 274.25 1033.75 273.65 1032.85 273.75 1031.9 273.85 1031.55 274.6
L 1031.35 274.95 Z"/>
</g>
</g>
</g>

<g transform="matrix( 1.51666259765625, 0, 0, 1.51666259765625, -1296.25,-305.65) ">
<g>
<g>
<path fill="#C15668" stroke="none" d="
M 1072.9 335.55
Q 1072.4 335.25 1071.35 335.15 1070.55 335 1069.65 335.5 1068.85 335.95 1068.9 336.85 1068.9 337.8 1069.65 338.2 1070.2 338.5 1070.35 338.55 1070.6 338.65 1071.15 338.65
L 1071.3 338.65 1072.05 338.75
Q 1073.35 338.8 1073.7 337.45 1074.05 336.15 1072.9 335.55 Z"/>
</g>
</g>
</g>

<g transform="matrix( 1.51666259765625, 0, 0, 1.51666259765625, -1296.25,-305.65) ">
<g>
<g>
<path fill="#C15668" stroke="none" d="
M 1079.9 375.9
Q 1080 375.05 1079.6 374.35 1078.75 372.9 1076.85 373.25 1075.8 373.45 1074.8 374.35 1073.85 375.2 1074.25 376.5 1074.6 377.8 1075.8 378.15 1077.7 378.65 1079.2 377.3 1079.8 376.75 1079.9 375.9 Z"/>
</g>
</g>
</g>

<g transform="matrix( 1.51666259765625, 0, 0, 1.51666259765625, -1296.25,-305.65) ">
<g>
<g>
<path fill="#C15668" stroke="none" d="
M 995.8 359.85
Q 995.6 359.25 995 358.8 993.8 357.9 992.75 358.05 991.35 358.2 991.1 359.3 990.75 360.45 991.85 361.25 991.944140625 361.2970703125 992.75 361.65 992.9 361.75 992.95 361.75
L 993.65 362
Q 994.2 362.2 994.8 361.95 995.35 361.75 995.65 361.2 996 360.55 995.8 359.85 Z"/>
</g>
</g>
</g>

<g transform="matrix( 1.51666259765625, 0, 0, 1.51666259765625, -1296.25,-305.65) ">
<g>
<g>
<path fill="#C15668" stroke="none" d="
M 1061.05 289.45
Q 1061.15 288.8 1060.75 288.2 1060.15 287.3 1059.05 287.25 1058.75 287.2 1058.05 287.4 1056.7 287.75 1056.25 289.35 1055.85 290.65 1056.85 291.6 1058 292.85 1059.6 291.95 1060.95 291.3 1061.05 289.45 Z"/>
</g>
</g>
</g>

<g transform="matrix( 1.51666259765625, 0, 0, 1.51666259765625, -1296.25,-305.65) ">
<g>
<g>
<path fill="#C15668" stroke="none" d="
M 974.15 359.15
Q 974.65 358.35 974.15 357.5 973.55 356.5 972.25 356.75 971.6 356.85 970.85 357.35 970 358 969.6 358.3 969.15 358.65 969.05 359.35 969 360.05 969.3 360.55 969.65 361.2 970.4 361.4 971.2 361.65 971.8 361.2 972.25 360.9 973.1 360.3 973.8 359.75 974.15 359.15 Z"/>
</g>
</g>
</g>

<g filter="url(#Filter_22)" transform="matrix( 1, 0, 0, 1, 0,0) ">
<g id="Layer_1" transform="matrix( 1.51666259765625, 0, 0, 1.51666259765625, 137.55,214.65) ">
<g>
<g filter="url(#Filter_4)">
<g>
<path fill="#955668" stroke="none" d="
M 3.45 2.1
Q 2.95 0.65 1.95 0.15 1.2 -0.2 0.5 0.3 -0.15 0.8 0.05 1.6 0.45 2.9 1.05 3.7 1.95 4.85 2.95 4.25 4 3.65 3.45 2.1 Z"/>
</g>
</g>
</g>
</g>
</g>

<g filter="url(#Filter_23)" transform="matrix( 1, 0, 0, 1, 0,0) ">
<g id="Layer_1" transform="matrix( 1.51666259765625, 0, 0, 1.51666259765625, 261.55,245.75) ">
<g>
<g filter="url(#Filter_4)">
<g>
<path fill="#955668" stroke="none" d="
M 5.9 3.55
Q 5.9 3.15 5.45 2.15 4.7 0.8 3.55 0.3 1.9 -0.55 0.7 0.65 0 1.35 0 2.3 0.05 3.2 0.7 4 1.85 5.4 3.7 5.5 5.65 5.55 5.9 3.55 Z"/>
</g>
</g>
</g>
</g>
</g>

<g filter="url(#Filter_24)" transform="matrix( 1, 0, 0, 1, 0,0) ">
<g id="Layer_1" transform="matrix( 1.51666259765625, 0, 0, 1.51666259765625, 263,149.35) ">
<g>
<g filter="url(#Filter_4)">
<g>
<path fill="#955668" stroke="none" d="
M 6.5 1.65
Q 6.2 0.6 5.05 0.15 4.05 -0.25 2.35 0.35 0.65 0.9 0.25 1.9 -0.5 3.55 0.95 4.55 1.45 4.95 2.2 4.95 2.5 4.95 3.55 4.75 5.2 4.45 6 3.6 6.75 2.65 6.5 1.65 Z"/>
</g>
</g>
</g>
</g>
</g>

<g filter="url(#Filter_25)" transform="matrix( 1, 0, 0, 1, 0,0) ">
<g id="Layer_1" transform="matrix( 1.51666259765625, 0, 0, 1.51666259765625, 363.3,227.85) ">
<g>
<g filter="url(#Filter_4)">
<g>
<path fill="#955668" stroke="none" d="
M 3.7 2.95
Q 3.95 1.45 3.1 0.4 2.85 0.05 2.3 0 1.75 -0.05 1.4 0.2 0.7 0.65 0.15 2 -0.35 3.3 0.75 4.55 1.3 5.1 2 4.85 3.45 4.35 3.7 2.95 Z"/>
</g>
</g>
</g>
</g>
</g>

<g filter="url(#Filter_26)" transform="matrix( 1, 0, 0, 1, 0,0) ">
<g id="Layer_1" transform="matrix( 1.51666259765625, 0, 0, 1.51666259765625, 170.3,263.35) ">
<g>
<g filter="url(#Filter_4)">
<g>
<path fill="#955668" stroke="none" d="
M 5.7 2.85
Q 5.7 1.85 5 1.15 4.5 0.65 3.9 0.35 3 -0.15 1.65 0.1 0.45 0.4 0.1 1.7 -0.4 3.55 1.6 4.7 3.65 5.9 5 4.55 5.7 3.85 5.7 2.85 Z"/>
</g>
</g>
</g>
</g>
</g>

<g transform="matrix( 1.51666259765625, 0, 0, 1.51666259765625, -1296.25,-305.65) ">
<g>
<g>
<path fill="#FFFFFF" stroke="none" d="
M 966.8 319.75
L 964.25 319.45
Q 962.85 319.45 961.75 320.1 959.25 321.55 959.25 324.45 959.25 326.5 960.7 327.95 961.6 328.85 962.95 329.25 964.25 329.65 965.6 329.25
L 966.8 329.1
Q 968 328.75 968.95 327.85 970.35 326.45 970.35 324.45 970.35 323.2 969.7 322
L 968.95 321
Q 968 320.15 966.8 319.75 Z"/>
</g>
</g>
</g>

<g transform="matrix( 1.51666259765625, 0, 0, 1.51666259765625, -1296.25,-305.65) ">
<g>
<g>
<path fill="#FFFFFF" stroke="none" d="
M 1008.4 269.65
Q 1008.8 271.15 1010.15 271.95 1012.05 273.05 1014.15 271.9 1016.25 270.75 1016.25 268.55 1016.25 267.35 1015.5 266.3 1014.65 265.2 1013.5 264.95 1012.85 264.8 1012.1 264.8 1010.65 264.65 1009.4 265.9 1007.8 267.4 1008.4 269.65 Z"/>
</g>
</g>
</g>

<g transform="matrix( 1.51666259765625, 0, 0, 1.51666259765625, -1296.25,-305.65) ">
<g>
<g>
<path fill="#FFFFFF" stroke="none" d="
M 1045.55 321.7
Q 1045.15 320.25 1043.7 319.3 1043.15 318.9 1041.5 318.7 1040 318.55 1038.7 319.85 1037.55 321.1 1037.55 322.65 1037.55 324.25 1038.7 325.4 1040 326.7 1041.8 326.55
L 1041.85 326.6
Q 1043.7 326.6 1044.9 325.05 1046.1 323.5 1045.55 321.7 Z"/>
</g>
</g>
</g>

<g id="Layer_1" transform="matrix( 1.51666259765625, 0, 0, 1.51666259765625, 210.15,187.05) ">
<g>
<g filter="url(#Filter_4)">
<g>
<path fill="#FFFFFF" stroke="none" d="
M 7.2 2.75
Q 6.95 1.2 5.75 0.45 4.5 -0.3 3 0.15 1.5 0.6 0.65 2 -0.2 3.45 0.05 4.95 0.3 6.5 1.55 7.25 2.75 8 4.25 7.55 5.75 7.1 6.6 5.7 7.45 4.3 7.2 2.75 Z"/>
</g>
</g>
</g>
</g>

<g id="Layer_1" transform="matrix( 1.51666259765625, 0, 0, 1.51666259765625, 250.55,80.35) ">
<g>
<g filter="url(#Filter_4)">
<g>
<path fill="#FFFFFF" stroke="none" d="
M 6.9 2.75
Q 6.8 1.2 5.7 0.5 4.65 -0.25 3.2 0.15 1.8 0.6 0.85 1.9 -0.1 3.25 0 4.75 0.1 6.25 1.15 7 2.2 7.75 3.65 7.3 5.1 6.85 6.05 5.55 7 4.25 6.9 2.75 Z"/>
</g>
</g>
</g>
</g>

<g id="Layer_1" transform="matrix( 1.51666259765625, 0, 0, 1.51666259765625, 337,161.3) ">
<g>
<g filter="url(#Filter_1)">
<g>
<path fill="#FFFFFF" stroke="none" d="
M 7.35 2.85
Q 7.3 1.25 6.15 0.45 5 -0.35 3.45 0.15 1.95 0.65 0.95 2.1 -0.05 3.55 0.05 5.2 0.1 6.8 1.25 7.55 2.4 8.35 3.95 7.85 5.5 7.35 6.45 5.9 7.45 4.45 7.35 2.85 Z"/>
</g>
</g>
</g>
</g>

<g id="Layer_1" transform="matrix( 1.51666259765625, 0, 0, 1.51666259765625, 150.3,227.3) ">
<g>
<g filter="url(#Filter_1)">
<g>
<path fill="#FFFFFF" stroke="none" d="
M 5.35 0.05
Q 3.7 -0.15 2.2 0.8 0.65 1.75 0.15 3.4 -0.35 5 0.5 6.3 1.35 7.6 3 7.8 4.7 8.05 6.2 7.05 7.7 6.05 8.2 4.45 8.7 2.8 7.9 1.55 7.05 0.25 5.35 0.05 Z"/>
</g>
</g>
</g>
</g>

<g id="Layer_1" transform="matrix( 1.51666259765625, 0, 0, 1.51666259765625, 281.05,233.85) ">
<g>
<g filter="url(#Filter_1)">
<g>
<path fill="#FFFFFF" stroke="none" d="
M 7 2.45
Q 6.6 0.95 5.35 0.3 4.1 -0.3 2.65 0.35 1.2 0.95 0.5 2.45 -0.25 3.95 0.15 5.5 0.5 7 1.75 7.65 3.05 8.25 4.45 7.65 5.9 7 6.65 5.5 7.35 4 7 2.45 Z"/>
</g>
</g>
</g>
</g>
</g>
</g>
</svg>
