
<svg xmlns="http://www.w3.org/2000/svg" version="1.1" xmlns:xlink="http://www.w3.org/1999/xlink" preserveAspectRatio="none" x="0px" y="0px" width="506px" height="506px" viewBox="0 0 506 506">
<defs/>

<g id="cartoon_cars_illustration_pack">
<g transform="matrix( 0.32989501953125, 0, 0, 0.32989501953125, 173.1,82.7) ">
<g>
<g>
<path fill="#F0EDED" stroke="none" d="
M 508.35 76.45
Q 501.95 61.4 490.35 49.75 478.7 38.1 463.65 31.75 448.05 25.1 431.05 25.1
L 121.4 25.1
Q 104.4 25.1 88.8 31.75 73.75 38.1 62.1 49.75 50.45 61.4 44.1 76.45 37.45 92.05 37.45 109.05
L 37.45 937.2
Q 37.45 954.2 44.1 969.8 50.45 984.85 62.1 996.5 73.75 1008.1 88.8 1014.5 104.4 1021.15 121.4 1021.15
L 431.05 1021.15
Q 448.05 1021.15 463.65 1014.5 478.7 1008.1 490.35 996.5 501.95 984.85 508.35 969.8 515 954.2 515 937.2
L 515 109.05
Q 515 92.05 508.35 76.45 Z"/>
</g>
</g>
</g>

<g transform="matrix( 0.32989501953125, 0, 0, 0.32989501953125, 173.1,82.7) ">
<g>
<g>
<path fill="#2E3D47" stroke="none" d="
M 477.6 84
Q 477.6 67 470.95 51.4 464.55 36.3 452.95 24.7 441.3 13.05 426.2 6.65 410.6 0 393.6 0
L 84 0
Q 67 0 51.4 6.65 36.3 13.05 24.7 24.7 13.05 36.3 6.65 51.4 0 67 0 84
L 0 912.1
Q 0 929.1 6.65 944.7 13.05 959.8 24.7 971.45 36.3 983.05 51.4 989.45 67 996.1 84 996.1
L 393.6 996.1
Q 410.6 996.1 426.2 989.45 441.3 983.05 452.95 971.45 464.6 959.8 470.95 944.7 477.6 929.1 477.6 912.1
L 477.6 84 Z"/>
</g>
</g>
</g>

<g>
<g>
<g>
<path fill="#FFF0D8" stroke="none" d="
M 326.95 110.4
Q 326.95 105.55 325.05 101.1 323.2 96.8 319.9 93.45 316.55 90.15 312.25 88.3 307.8 86.4 302.95 86.4
L 200.8 86.4
Q 195.95 86.4 191.5 88.3 187.2 90.15 183.85 93.45 180.55 96.8 178.7 101.1 176.8 105.55 176.8 110.4
L 176.8 383.6
Q 176.8 388.45 178.7 392.9 180.55 397.2 183.85 400.55 187.2 403.85 191.5 405.7 195.95 407.6 200.8 407.6
L 302.95 407.6
Q 307.8 407.6 312.25 405.7 316.55 403.85 319.9 400.55 323.2 397.2 325.05 392.9 326.95 388.45 326.95 383.6
L 326.95 110.4 Z"/>
</g>
</g>
</g>

<g transform="matrix( 0.32989501953125, 0, 0, 0.32989501953125, 173.1,82.7) ">
<g>
<g>
<path fill="#2E3D47" stroke="none" d="
M 289.15 33.7
Q 298.1 33.7 304.4 27.4
L 317 14.75
Q 323.15 8.6 323.3 0
L 154.3 0
Q 154.45 8.6 160.6 14.75
L 173.2 27.4
Q 179.5 33.7 188.45 33.7
L 289.15 33.7 Z"/>
</g>
</g>
</g>

<g transform="matrix( 0.05999755859375, 0, 0, 0.05999755859375, 210.15,208.35) ">
<g>
<g>
<path fill="#3EB351" stroke="none" d="
M 1405.15 702.6
Q 1405.15 559.65 1349.95 429.1 1296.6 303 1199.4 205.8 1102.15 108.55 976.05 55.2 845.5 0 702.6 0 559.65 0 429.1 55.2 303 108.55 205.8 205.8 108.55 303 55.2 429.1 0 559.65 0 702.6 0 845.5 55.2 976.05 108.55 1102.15 205.8 1199.4 303 1296.6 429.1 1349.95 559.65 1405.15 702.6 1405.15 845.5 1405.15 976.05 1349.95 1102.15 1296.6 1199.4 1199.4 1296.6 1102.15 1349.95 976.05 1405.15 845.5 1405.15 702.6 Z"/>
</g>
</g>
</g>

<g transform="matrix( 0.05999755859375, 0, 0, 0.05999755859375, 210.15,208.35) ">
<g>
<g>
<path fill="#FFFFFF" stroke="none" d="
M 740.6 789
Q 709.65 766.5 669.05 725 628 684.85 605.45 653.85 583 622.8 572.35 601.45 559.8 577.5 556.25 558.5 556.25 555.9 557.6 551.75 559 547.7 560.75 546
L 604.55 502.2
Q 616.25 490.55 619.75 473.5 623.35 456.6 615.3 442.15
L 519.6 260.55
Q 513.45 250.8 504.35 244 495.5 237.3 483.75 237.3 467.65 237.3 455.1 249.75
L 336.05 368.8
Q 327.25 376.7 320.85 389.85 314.7 402.7 312.85 415.35 312.85 417.1 311.95 433.3 311.05 449.35 315.55 477.55 320.05 505.8 332.5 544.65 344.9 583.35 370.1 631.5 395.25 679.5 436.3 735.75 477.8 792.5 540.15 853.9 619.2 933.75 688.65 979.1 758.25 1024.7 813.55 1047.6 868.5 1070.45 906.6 1076.3 944.8 1082.1 961.65 1082.1 968.3 1082.1 973.3 1081.6 977.5 1081.25 978.6 1081.25 991.5 1079.2 1004.2 1073.1 1017 1066.9 1025.2 1057.9
L 1144.25 939.8
Q 1159.45 924.55 1156.75 903.95 1153.2 886.1 1134.35 874.5
L 961.65 772.35 960.7 772.35
Q 951.75 767 936.6 767 915.1 767 899 781.35
L 847.95 833.25
Q 846.4 834.95 842.2 836.45 838.15 837.75 836.4 837.75
L 825.15 835.5
Q 813.95 833.25 792.95 822.6 772.05 811.8 740.6 789 Z"/>
</g>
</g>
</g>
</g>
</svg>
