
<svg xmlns="http://www.w3.org/2000/svg" version="1.1" xmlns:xlink="http://www.w3.org/1999/xlink" preserveAspectRatio="none" x="0px" y="0px" width="506px" height="506px" viewBox="0 0 506 506">
<defs/>

<g id="cartoon_cars_illustration_pack">
<g transform="matrix( 0.113006591796875, 0, 0, 0.113006591796875, 105.8,81.5) ">
<g>
<g>
<path fill="#6F242B" stroke="none" d="
M 1214.65 1726.4
Q 1177.95 1709.4 1160.9 1704.85 1133.05 1697.45 1109.05 1704.6 1084.55 1711.85 1065.35 1722.4 1054.2 1728.5 1038.5 1739.9 1036.8 1741.1 1035.95 1742.6 1035.35 1743.65 1034.45 1743.8 1031.1 1744.5 1030.8 1743.65 1030.65 1743.1 1032 1741 1035.5 1735.6 1032.35 1733.4 1013.8 1720.5 1003.45 1714.9 986.15 1705.6 969.5 1702.65 926.3 1695 897.25 1710 885.7 1716 874.45 1726.45 867.75 1732.75 855.6 1746.4
L 846.9 1756.05
Q 844.45 1756.75 844.2 1756 844.1 1755.55 845.1 1753.65 847.65 1748.8 845.25 1746.9 831.5 1736.1 824.05 1731.1 811.55 1722.7 799.9 1718.1 770.2 1706.4 734.6 1714.95 703.2 1722.5 676.65 1753.9 668.45 1763.65 659.55 1776.9 632.7 1766.45 614.2 1763.8 585.7 1759.8 558.1 1769.1 517.4 1782.8 499.25 1809.3 486.95 1827.15 482.65 1856.95 483.3 1850.7 480.65 1850.7 464.45 1850.6 456.95 1850.95
L 454 1851.05
Q 434.3 1852.4 413.3 1862.95 393.05 1873.1 376.8 1889.2 363.15 1902.75 354.1 1918.85 344.55 1935.8 341.5 1953.25 323.8 1951.75 307.75 1955.85 288.2 1960.85 269.2 1974.6 245.45 1991.8 234.4 2010.45 225.95 2024.75 223.55 2043.15 210.3 2045.2 198.65 2050.3 184.2 2056.65 170.3 2068.35 140.7 2093.25 133.35 2118.5 127.9 2137.25 133.95 2164 123.7 2170.05 116.15 2176.3 106.35 2184.45 98.45 2195 80.25 2219.25 79.6 2241.3 79.1 2259 90.3 2277.95 68.8 2291 57.6 2308.85 43.3 2331.6 43.3 2364.95
L 43.45 2364.95
Q 42.85 2395.1 58.25 2416.85 69.6 2432.9 92.95 2447.65 79.9 2467.85 79.6 2485.95 79.2 2509.15 98.45 2534.85 106.6 2545.75 116.85 2554.1 124.6 2560.45 135.3 2566.6 127 2623.35 147.05 2652.4 163.05 2675.55 200.25 2683.85 210.75 2686.15 223.55 2686.7 225.95 2705.1 234.4 2719.4 245.4 2738.05 269.2 2755.25 286.6 2767.9 304.6 2773.15 319.7 2777.55 336 2776.95 336.15 2799.05 345.85 2817.2 357.9 2839.7 386.1 2859.55
L 386.3 2859.55
Q 409.85 2876 437.7 2880.65 455.95 2883.7 484.15 2881.95 489.05 2908.05 502.55 2925.1 520.85 2948.25 558.1 2960.75 585.75 2970.05 614.25 2966 632.7 2963.4 659.65 2952.9 668.65 2966.4 676.65 2975.95 703.2 3007.35 734.6 3014.9 770.2 3023.45 799.9 3011.75 811.55 3007.15 824.05 2998.75 831.5 2993.75 845.25 2982.95 847.65 2981.05 845.1 2976.2 844.1 2974.3 844.2 2973.85 844.45 2973.1 846.9 2973.8
L 855.6 2983.45
Q 867.75 2997.1 874.45 3003.4 885.7 3013.85 897.25 3019.85 926.3 3034.85 969.5 3027.2 986.15 3024.25 1003.45 3014.95 1013.8 3009.35 1032.35 2996.45 1035.5 2994.25 1032 2988.85 1030.65 2986.75 1030.8 2986.2 1031.1 2985.35 1034.45 2986.05 1035.35 2986.2 1035.95 2987.25 1036.8 2988.75 1038.5 2990 1054.3 3001.4 1065.35 3007.45 1084.6 3018 1109.05 3025.25 1149.25 3037.25 1175.25 3023.35 1185.7 3017.8 1195.8 3007.15 1201.9 3000.75 1212.9 2986.35 1213.9 2985.05 1211.5 2982.65 1210.6 2981.75 1210.6 2981.4 1210.6 2980.95 1212.25 2980.95 1214.65 2980.95 1215.1 2981.8 1215.35 2982.35 1214.85 2984.1 1213.65 2988.55 1216.65 2991.2 1239.15 3011.4 1252.55 3019.2 1274.9 3032.3 1299.4 3032.3
L 1299.4 3032.5
Q 1323.8 3032.5 1346.1 3019.2 1359.25 3011.35 1381.05 2991.35 1382.45 2990.05 1380.35 2988.4 1379.65 2987.85 1376.15 2986.05 1374.3 2985.05 1375 2984.75 1375.6 2984.45 1378.15 2984.45 1379.1 2984.45 1380.4 2987 1382.25 2990.55 1384.25 2992.6 1396.6 3005.05 1403.2 3010.6 1414.25 3019.85 1425.05 3024.6 1452.05 3036.5 1489.75 3025.25 1514.15 3018 1533.45 3007.45 1544.4 3001.45 1560.3 2990 1562 2988.75 1562.85 2987.25 1563.45 2986.2 1564.35 2986.05 1567.7 2985.35 1568 2986.2 1568.15 2986.75 1566.8 2988.85 1563.3 2994.25 1566.45 2996.45 1585.05 3009.4 1595.35 3014.95 1612.6 3024.25 1629.3 3027.2 1672.45 3034.85 1701.5 3019.85 1713.05 3013.85 1724.35 3003.4 1731.1 2997.1 1743.2 2983.45
L 1751.9 2973.8
Q 1754.35 2973.1 1754.55 2973.85 1754.7 2974.3 1753.7 2976.2 1751.15 2981.05 1753.55 2982.95 1767.3 2993.75 1774.75 2998.75 1787.25 3007.15 1798.9 3011.75 1828.6 3023.45 1864.2 3014.9 1895.65 3007.35 1922.1 2975.95 1930.25 2966.35 1939.1 2952.9 1966.05 2963.4 1984.5 2966 2013.05 2970.05 2040.7 2960.75 2081.45 2947.05 2099.6 2920.5 2111.9 2902.6 2116.15 2872.75 2115.5 2879.15 2118.15 2879.15 2134.35 2879.25 2141.85 2878.9
L 2144.8 2878.8
Q 2164.5 2877.5 2185.5 2866.95 2205.75 2856.75 2222 2840.65 2235.65 2827.1 2244.7 2811.05 2254.25 2794.05 2257.3 2776.6 2275 2778.15 2291.05 2774 2310.6 2769 2329.6 2755.25 2353.35 2738.05 2364.4 2719.4 2372.85 2705.1 2375.25 2686.75 2388.5 2684.65 2400.15 2679.55 2414.65 2673.2 2428.5 2661.5 2458.1 2636.6 2465.45 2611.35 2470.9 2592.6 2464.85 2565.85 2475.1 2559.8 2482.65 2553.55 2492.45 2545.35 2500.35 2534.85 2519.65 2509.15 2519.2 2485.95 2518.9 2467.85 2505.85 2447.65 2529.2 2432.9 2540.55 2416.85 2555.9 2395.15 2555.35 2364.95 2556.05 2331.5 2541.75 2308.75 2530.55 2291 2508.55 2277.85 2519.7 2258.9 2519.15 2241.25 2518.55 2219.25 2500.35 2195 2492.45 2184.5 2482.65 2176.3 2475.1 2170.05 2464.85 2164 2470.9 2137.25 2465.45 2118.5 2458.1 2093.25 2428.5 2068.35 2414.65 2056.65 2400.15 2050.3 2388.5 2045.2 2375.25 2043.15 2372.85 2024.75 2364.4 2010.45 2353.35 1991.8 2329.6 1974.6 2310.6 1960.85 2291.05 1955.85 2275 1951.75 2257.3 1953.25 2254.25 1935.8 2244.7 1918.85 2235.65 1902.75 2222 1889.25 2205.75 1873.15 2185.5 1862.95 2164.5 1852.4 2144.8 1851.1
L 2143.45 1851
Q 2135.55 1850.6 2118.15 1850.7 2115.5 1850.7 2116.15 1857.05 2111.85 1827.2 2099.6 1809.35 2081.4 1782.8 2040.7 1769.1 2013.05 1759.8 1984.55 1763.85 1966.1 1766.45 1939.15 1776.95 1930.05 1763.35 1922.1 1753.9 1895.65 1722.55 1864.2 1714.95 1828.6 1706.4 1798.9 1718.1 1787.25 1722.7 1774.75 1731.1 1767.3 1736.1 1753.55 1746.9 1751.15 1748.8 1753.7 1753.65 1754.7 1755.55 1754.55 1756 1754.35 1756.75 1751.9 1756.05
L 1743.2 1746.4
Q 1731.1 1732.75 1724.35 1726.45 1713.1 1716 1701.5 1710 1672.5 1695 1629.3 1702.65 1612.6 1705.6 1595.35 1714.9 1585.05 1720.45 1566.45 1733.4 1563.3 1735.6 1566.8 1741 1568.15 1743.1 1568 1743.65 1567.7 1744.5 1564.35 1743.8 1563.45 1743.65 1562.85 1742.6 1562 1741.15 1560.3 1739.9 1544.5 1728.5 1533.45 1722.4 1514.2 1711.85 1489.75 1704.6 1451.85 1693.3 1422.05 1704 1410 1708.35 1396.95 1716.95 1389.05 1722.2 1373.9 1734.1 1365.5 1740.7 1361.35 1743.55 1354.5 1748.3 1349.95 1749.95 1318.4 1761.25 1278.75 1751.3 1255.6 1745.5 1214.65 1726.4
M 1097.9 1821.9
Q 1106.9 1815.35 1113.45 1811.75 1124.4 1805.7 1137.95 1801.65 1138.4 1801.5 1148.2 1806.5 1162.3 1813.7 1172.25 1818.3 1200.5 1831.45 1216.15 1837.6 1242.6 1848 1265.95 1852.9 1326.55 1865.7 1384.05 1845.05 1399.45 1839.5 1413.55 1830.5 1422.1 1825.05 1436.5 1813.7 1445.6 1806.55 1449.7 1804.25 1456.5 1800.35 1460.85 1801.65 1474.4 1805.7 1485.35 1811.75 1491.85 1815.3 1500.85 1821.9 1513.65 1831.15 1520.4 1834.75 1531.35 1840.6 1544.55 1843.25 1566.1 1847.55 1587.3 1838.75 1600.1 1833.4 1624.3 1816.6 1633.8 1809.95 1637.95 1807.25 1644.75 1802.85 1646.7 1802.5 1653.15 1801.35 1658.7 1804.95 1662 1807.1 1667.55 1813.35 1681.85 1829.45 1690.75 1836.5 1705.5 1848.15 1724.55 1853.5 1752.75 1861.5 1776.45 1852.15 1786.1 1848.35 1796.85 1841.05 1803.4 1836.6 1816.15 1826.55 1825.3 1819.35 1829.6 1816.75 1836.9 1812.25 1840.8 1813.2 1841.25 1813.3 1842 1814.9 1843.1 1817.2 1844.85 1819.3 1853.65 1829.7 1866.45 1851.55 1886.55 1885.95 1914.2 1887.7 1925.7 1888.45 1941.2 1883.95 1950.65 1881.2 1971.05 1873.15 1984.7 1867.85 1991.25 1866.05 2002.65 1862.95 2008.6 1864.95 2013.2 1866.5 2015.25 1870.95 2016.45 1873.55 2017.15 1878.9
L 2016.95 1878.9
Q 2018.6 1891.85 2020.3 1898.15 2023.05 1908.45 2029.05 1917.8 2043.85 1940.8 2068.6 1947.7 2078.7 1950.55 2092.5 1951.35 2100.9 1951.8 2118.55 1951.7 2131.8 1951.7 2138.05 1952.05 2139.9 1952.2 2143.4 1954.65 2146.75 1957.05 2150.7 1960.9
L 2157.45 1967.6
Q 2154.1 2017.9 2170.1 2039.7 2184.15 2058.75 2218.05 2061.05 2226.3 2061.6 2234.8 2060.4 2239.8 2059.65 2250.25 2057.25 2257.5 2055.55 2261.2 2055.2 2267.4 2054.6 2270.15 2056.6 2273.55 2059.05 2274.75 2061.4 2275.45 2062.85 2275.55 2065.15 2276.3 2077.05 2277.5 2083.25 2279.6 2093.7 2284.85 2104.2 2296.6 2127.75 2313.95 2135.7 2321.15 2139 2331 2140.5 2337 2141.45 2350.05 2142.3 2354.9 2142.6 2357.35 2143.1 2361.45 2143.9 2363.55 2145.6 2364.55 2146.45 2364.3 2148.85 2364.15 2150.2 2363.2 2153.85 2360.85 2163.5 2360.45 2165.25 2352.9 2199.25 2367.2 2218.6 2373.1 2226.65 2383.95 2234.05 2390.7 2238.7 2405.9 2247 2397.05 2258.95 2392.5 2271.1
L 2392.35 2271.05
Q 2378.8 2307.55 2394.2 2327.45 2400.6 2335.7 2413.35 2343.2 2421.15 2347.8 2439.45 2356.25 2454.3 2363.1 2454.3 2363.35
L 2454.3 2366.5
Q 2454.35 2368.35 2452.9 2368.8 2451.95 2369.05 2449.15 2368.75 2442.05 2368 2438.65 2369.95
L 2436 2371.6
Q 2419.9 2380.9 2412.15 2386.55 2400.5 2395.1 2394.5 2403.95 2380.05 2425.2 2392.55 2458.8 2395.1 2465.75 2398.75 2472.05 2401.65 2477.1 2405.9 2482.85 2390.65 2491.2 2383.95 2495.75 2373.1 2503.2 2367.15 2511.2 2352.9 2530.55 2360.45 2564.6 2360.85 2566.35 2363.2 2576 2364.15 2579.65 2364.3 2581 2364.55 2583.4 2363.55 2584.25 2361.45 2585.95 2357.35 2586.75 2354.9 2587.25 2350.05 2587.55 2336.95 2588.45 2331 2589.35 2321.15 2590.85 2313.95 2594.15 2296.6 2602.1 2284.85 2625.65 2279.6 2636.15 2277.5 2646.6 2276.3 2652.8 2275.55 2664.7 2275.45 2667 2274.75 2668.45 2273.55 2670.8 2270.15 2673.25 2267.4 2675.25 2261.2 2674.65 2257.5 2674.3 2250.25 2672.6 2240 2670.25 2234.75 2669.5 2226.25 2668.25 2218.05 2668.8 2184.15 2671.1 2170.1 2690.15 2154.1 2711.9 2157.45 2762.25
L 2150.7 2768.95
Q 2146.8 2772.85 2143.4 2775.2 2139.95 2777.65 2138.05 2777.8
L 2136.7 2777.9
Q 2131.15 2778.15 2118.55 2778.15 2100.85 2778.05 2092.5 2778.5 2078.7 2779.3 2068.6 2782.15 2043.85 2789 2029.05 2812.05 2023.1 2821.4 2020.3 2831.7 2018.6 2838.05 2016.95 2850.95
L 2016.65 2854.1
Q 2015.95 2858 2014.45 2860.4 2012.4 2863.6 2008.6 2864.9 2002.65 2866.9 1991.25 2863.8 1984.7 2862.05 1971.05 2856.7 1950.65 2848.65 1941.2 2845.9 1925.7 2841.4 1914.2 2842.15 1886.55 2843.9 1866.45 2878.3 1853.65 2900.15 1844.85 2910.55 1843.1 2912.65 1842 2914.95 1841.25 2916.55 1840.8 2916.65 1836.9 2917.6 1829.6 2913.15 1825.3 2910.5 1816.15 2903.3 1803.4 2893.25 1796.85 2888.8 1786.1 2881.5 1776.45 2877.7 1752.75 2868.35 1724.55 2876.35 1705.5 2881.7 1690.75 2893.35 1681.85 2900.4 1667.55 2916.5 1662 2922.75 1658.7 2924.9 1653.15 2928.5 1646.7 2927.35 1644.75 2927 1637.95 2922.6 1633.8 2919.9 1624.3 2913.25 1600.1 2896.45 1587.3 2891.1 1566.1 2882.3 1544.55 2886.6 1531.35 2889.25 1520.4 2895.1 1513.65 2898.7 1500.85 2907.95 1491.85 2914.55 1485.35 2918.1 1474.4 2924.15 1460.85 2928.2 1459.9 2928.5 1459.1 2926.15 1457.9 2922.85 1456.35 2921.25 1437.45 2902.2 1425.35 2895.05 1405.05 2883.05 1378.15 2883.05 1358.8 2883.05 1341.7 2893.3 1331.25 2899.55 1312.5 2916.85 1308.95 2920.15 1304.1 2926.5 1300.6 2931.1 1299.4 2931.1
L 1299.4 2931.3
Q 1298.5 2931.3 1294.15 2926.4 1288.05 2919.6 1284 2915.95 1263.3 2897.45 1251.9 2890.7 1232.95 2879.55 1212.25 2879.55 1182.3 2879.55 1161.95 2893.85 1153.8 2899.55 1145.85 2908.45 1141.05 2913.75 1132.45 2924.95 1132.3 2925.15 1133.5 2925.75 1134 2926 1138.7 2928.1 1141 2929.1 1137.95 2928.2
L 1135.9 2927.6
Q 1123.25 2923.6 1112.8 2917.75 1106.8 2914.35 1097.9 2907.95 1085.2 2898.75 1078.4 2895.1 1067.45 2889.25 1054.25 2886.6 1032.7 2882.3 1011.5 2891.1 998.7 2896.45 974.5 2913.25 965 2919.9 960.85 2922.6 954.05 2927 952.1 2927.35 945.65 2928.5 940.1 2924.9 936.8 2922.75 931.25 2916.5 917 2900.4 908.1 2893.35 893.3 2881.7 874.25 2876.35 846 2868.35 822.3 2877.7 812.7 2881.5 801.95 2888.8 795.45 2893.25 782.65 2903.3 773.5 2910.5 769.2 2913.15 761.9 2917.6 757.95 2916.65 757.5 2916.55 756.8 2914.95 755.7 2912.65 753.95 2910.55 745.15 2900.15 732.35 2878.3 712.2 2843.85 684.6 2842.15 673.1 2841.4 657.6 2845.9 648.2 2848.65 627.7 2856.7 614.15 2862 607.55 2863.8 596.15 2866.9 590.2 2864.9 585.5 2863.3 583.5 2858.8 582.3 2856.15 581.65 2850.75 579.95 2837.55 578.3 2831.5 575.6 2821.2 569.7 2812.05 554.35 2788.15 531.05 2782.15 521.45 2779.7 508.35 2779.55 500.4 2779.5 483.35 2780.6 468.55 2781.5 461.75 2781.2 449.8 2780.6 444.3 2776.85
L 444.35 2776.75
Q 439.8 2773.55 438.9 2768.7 438.35 2765.8 439.2 2760.3 442.15 2740.3 441.35 2730.15 440 2713.55 429.95 2697.7 413.55 2671.85 392.2 2667.95 383.3 2666.35 371.45 2667.95 364.15 2668.95 348.55 2672.6 341.3 2674.3 337.6 2674.65 331.4 2675.25 328.6 2673.25 325.25 2670.8 324.05 2668.45 323.35 2667 323.25 2664.7 322.5 2652.8 321.3 2646.6 319.2 2636.15 313.95 2625.65 301.15 2600.05 278.95 2591.75 269.95 2588.35 257.75 2587.1 250.4 2586.35 235.1 2586 229.15 2585.85 227.55 2585.75 223.65 2585.55 222.05 2585.2 220.2 2584.8 221.45 2584.1 224.2 2582.9 226.35 2581.6 235.85 2575.9 238.35 2564.6 245.9 2530.55 231.6 2511.2 225.7 2503.2 214.85 2495.75 208.15 2491.2 192.9 2482.85 197.15 2477.1 200.05 2472.05 203.7 2465.75 206.25 2458.8 219 2424.45 203.6 2402.9 197.25 2394.05 184.9 2385.35 177.45 2380.1 160.1 2370.05
L 160.15 2369.95 158.7 2369.25
Q 152 2365.7 144.95 2364.25 145.9 2362.8 150.7 2360.25 153.6 2358.7 159.75 2355.9 178.05 2347.5 185.75 2342.95 198.35 2335.55 204.7 2327.35 219.85 2307.6 206.25 2271.05 203.7 2264.1 200.05 2257.8 197.15 2252.75 192.9 2247 208.1 2238.7 214.85 2234.05 225.7 2226.65 231.6 2218.6 245.9 2199.25 238.35 2165.25 237.25 2160.35 235.55 2153.85 234.65 2150.3 234.5 2148.85 234.25 2146.45 235.25 2145.6 237.3 2143.9 241.45 2143.1 243.9 2142.6 248.75 2142.3 261.8 2141.45 267.8 2140.5 277.65 2139 284.9 2135.7 302.2 2127.75 313.95 2104.2 319.2 2093.7 321.3 2083.25 322.5 2077.05 323.25 2065.15 323.35 2062.85 324.05 2061.4 325.25 2059.05 328.6 2056.6 331.4 2054.6 337.6 2055.2 341.3 2055.55 348.55 2057.25 358.85 2059.65 364 2060.35 372.5 2061.6 380.75 2061.05 414.65 2058.75 428.7 2039.7 444.7 2017.95 441.35 1967.6
L 448.1 1960.9
Q 452.05 1957.05 455.4 1954.65 458.9 1952.2 460.75 1952.05
L 462.1 1951.95
Q 467.6 1951.7 480.2 1951.7 497.9 1951.8 506.25 1951.35 520.05 1950.55 530.2 1947.75 554.9 1940.85 569.7 1917.8 575.7 1908.5 578.5 1898.15 580.2 1891.8 581.85 1878.9
L 582.1 1875.75
Q 582.85 1871.85 584.35 1869.45 586.4 1866.25 590.2 1864.95 596.15 1862.95 607.55 1866.05 614.15 1867.85 627.7 1873.15 648.15 1881.2 657.6 1883.95 673.1 1888.45 684.6 1887.7 712.25 1885.95 732.35 1851.55
L 732.55 1851.55
Q 745.6 1829.2 753.95 1819.3 755.7 1817.2 756.8 1814.9 757.5 1813.3 757.95 1813.2 761.9 1812.25 769.2 1816.75 773.5 1819.35 782.65 1826.55 795.45 1836.6 801.95 1841.05 812.7 1848.35 822.3 1852.15 846 1861.5 874.25 1853.5 893.3 1848.15 908.1 1836.5 917 1829.45 931.25 1813.35 936.8 1807.1 940.1 1804.95 945.65 1801.35 952.1 1802.5 954.05 1802.85 960.85 1807.25 965 1809.95 974.5 1816.6 998.75 1833.45 1011.5 1838.75 1032.7 1847.55 1054.25 1843.25 1067.45 1840.6 1078.4 1834.75 1085.2 1831.1 1097.9 1821.9
M 482.3 2864.15
L 481.9 2863.35 482.25 2863.3 484.55 2866.75
Q 486.1 2869.15 485 2867.7 483.1 2865.15 482.3 2864.15
M 2116.55 1860.05
Q 2116.8 1861.45 2117.2 1863.85 2117.5 1865.7 2117.35 1866.25
L 2116.55 1860.05
M 2117.2 1866.45
L 2116.85 1866.5
Q 2116.1 1866.1 2114.25 1863.1 2113.2 1861.45 2113.25 1861.45
L 2114.05 1862.5
Q 2116.6 1865.85 2117.2 1866.45 Z"/>
</g>
</g>
</g>

<g transform="matrix( 0.113006591796875, 0, 0, 0.113006591796875, 105.8,81.5) ">
<g>
<g>
<path fill="#F4AE2D" stroke="none" d="
M 1191.7 1771.55
Q 1174 1763.35 1165.35 1759.85 1137.85 1748.85 1123.5 1753.1 1095.75 1761.35 1073.25 1777.3 1059.6 1786.9 1058.65 1787.5 1051.25 1792.15 1044.35 1793.5 1037.25 1794.95 1026.55 1789.65 1019.45 1786.15 1005.75 1776.6 989.9 1765.6 983.35 1761.8 970.55 1754.35 960.8 1752.6 940 1748.9 924.75 1754.7 913.2 1759.15 901.85 1770.7 899 1773.6 892.6 1780.8 886.85 1787.3 883.4 1790.65 872.3 1801.45 860.6 1804.75 848.05 1808.3 834.45 1801.1 828.2 1797.8 809.8 1783.5 793.6 1770.9 782 1766.35 764.75 1759.65 746.25 1764.1 731.25 1767.7 715.3 1786.6 704 1800 688.75 1826 683.25 1835.4 671.2 1833.95 664.15 1833.1 644.75 1825.5 624 1817.35 611.6 1815 591.3 1811.25 574.15 1817.05 542.55 1827.7 534.8 1854.75 533.1 1860.65 531.2 1875.2 529.75 1886.35 527.15 1890.45 521.15 1899.7 500.05 1900.95 494 1901.3 479.85 1901.2 465.5 1901.15 457.9 1901.55 447 1902.1 434.65 1908.65 422.7 1914.9 412.45 1925.05 401.95 1935.4 396.25 1947 390.05 1959.5 390.8 1970.75 392.7 1998.7 386.05 2006.5 383.05 2010.05 377.8 2010.5 373.7 2010.9 366.35 2009.35 357.3 2007.25 352.2 2006.2 343.1 2004.3 335.9 2004.1 315.6 2003.5 298.9 2015.6 277.05 2031.45 273.75 2051.4 273.65 2052.05 272.4 2067 271.65 2075.9 268.8 2081.6 265.65 2087.95 258.7 2090.05 255.1 2091.15 243.5 2091.9 231.95 2092.7 224.45 2095 212.8 2098.55 202.75 2107 183.15 2123.5 182.65 2142.2 182.45 2149.1 184.7 2158.9 186.05 2164.5 189.05 2176.15 190.85 2184.3 186.1 2190.3 182.55 2194.75 173.05 2200.15 157.1 2209.2 155.45 2210.25 145 2217.15 138.85 2225.3 132.25 2234.1 133 2243.3 133.6 2250.7 139.2 2259.55 141.1 2262.6 150.2 2274.55 156.9 2283.35 158.9 2288.7 161.9 2296.75 152.65 2302.85 149.3 2305.05 142.45 2308.25 130.7 2313.75 129.9 2314.15 113.6 2322.2 105.45 2331.75 94 2345.15 94 2364.95 93.5 2380.05 104.85 2392.3 112.55 2400.65 129.4 2410.6 148.65 2421.95 152.45 2425.1 161.95 2433 158.9 2441.2 156.9 2446.55 150.2 2455.3 141.1 2467.2 139.2 2470.3 133.6 2479.15 133 2486.55 132.25 2495.75 138.85 2504.55 145 2512.7 155.45 2519.6 157.15 2520.65 173.05 2529.7 182.6 2535.1 186.1 2539.55 190.85 2545.55 189.05 2553.7 179.65 2596 187.65 2615.75 193.95 2631.15 212.55 2634.8 223.2 2636.9 245.6 2636.95 263.85 2638.35 268.8 2648.25 271.65 2653.95 272.4 2662.85 273.65 2677.8 273.75 2678.5 275.3 2687.85 280.15 2695.45 286.3 2705.15 298.9 2714.25 312.4 2724 327.9 2725.5 338.8 2726.55 353.6 2723.4 371.8 2719.5 373.95 2719.35 383.25 2718.7 387.15 2724.85 391.45 2731.6 390.3 2743.65 390.05 2746.45 388.8 2754.65 387.75 2761.95 387.45 2766.4 386.55 2780.75 391.5 2791.7 397.95 2806.05 415.2 2818.15 429.45 2828.1 448.6 2830.8 461.25 2832.6 481.65 2831.4 503.35 2830.1 509.45 2830.65 522.3 2831.85 527.15 2839.4 529.75 2843.5 531.2 2854.65 533.1 2869.2 534.8 2875.15 542.55 2902.15 574.15 2912.8 591.3 2918.6 611.6 2914.85 624 2912.5 644.75 2904.35 664.15 2896.75 671.2 2895.9 683.25 2894.45 688.75 2903.85 704 2929.85 715.3 2943.25 731.25 2962.15 746.25 2965.75 764.75 2970.2 782 2963.5 793.6 2958.95 809.8 2946.35 828.2 2932.05 834.45 2928.75 848.05 2921.55 860.6 2925.1 872.3 2928.4 883.4 2939.2 889.8 2945.4 901.85 2959.15 913.2 2970.7 924.75 2975.15 940 2980.95 960.8 2977.25 970.55 2975.5 983.35 2968.05 989.9 2964.25 1005.75 2953.25 1019.45 2943.7 1026.55 2940.2 1037.25 2934.9 1044.35 2936.35 1051.25 2937.7 1058.65 2942.35 1059.6 2942.95 1073.25 2952.6 1095.75 2968.5 1123.5 2976.75 1140.3 2981.75 1152.15 2975.75 1160.3 2971.6 1170.05 2959.05 1182 2943.75 1186.9 2939.6 1197.9 2930.25 1212.25 2930.25 1220.7 2930.25 1232 2938.3 1237.65 2942.3 1253.05 2956.05 1266.95 2968.45 1275.45 2973.75 1288.3 2981.8 1299.4 2981.8 1309.9 2981.8 1321.95 2974.3 1330.25 2969.15 1342.75 2957.8 1357.65 2944.2 1361.5 2941.25 1371.4 2933.75 1378.15 2933.75 1392.15 2933.75 1404.4 2942.55 1409.15 2945.95 1424.15 2960.8 1435.95 2972.45 1445.2 2976.3 1458.5 2981.75 1475.3 2976.75 1503.05 2968.5 1525.55 2952.6 1539.25 2942.9 1540.15 2942.35 1547.6 2937.7 1554.45 2936.35 1561.55 2934.9 1572.25 2940.2 1579.35 2943.7 1593.05 2953.25 1608.9 2964.25 1615.45 2968.05 1628.25 2975.5 1638 2977.25 1658.8 2980.95 1674.05 2975.15 1685.6 2970.7 1696.95 2959.15 1709.05 2945.4 1715.4 2939.2 1726.5 2928.4 1738.2 2925.1 1750.75 2921.55 1764.35 2928.75 1770.6 2932.05 1789 2946.35 1805.2 2958.95 1816.75 2963.5 1834 2970.2 1852.5 2965.75 1867.55 2962.15 1883.5 2943.25 1894.85 2929.8 1910 2903.85 1915.5 2894.45 1927.55 2895.9 1934.65 2896.75 1954.05 2904.35 1974.8 2912.5 1987.2 2914.85 2007.5 2918.6 2024.65 2912.8 2056.25 2902.15 2064 2875.15 2065.7 2869.25 2067.6 2854.65 2069.05 2843.5 2071.65 2839.4 2077.6 2830.15 2098.75 2828.9 2104.8 2828.55 2118.95 2828.65 2133.3 2828.7 2140.9 2828.3 2151.75 2827.75 2164.15 2821.2 2176.1 2814.95 2186.3 2804.85 2196.8 2794.45 2202.55 2782.9 2208.75 2770.4 2207.95 2759.15 2206.05 2731.15 2212.75 2723.35 2215.7 2719.85 2220.95 2719.35 2225.1 2719 2232.45 2720.5 2236.75 2721.4 2246.55 2723.65 2255.7 2725.55 2262.85 2725.75 2283.15 2726.35 2299.85 2714.25 2312.45 2705.15 2318.6 2695.45 2323.5 2687.85 2325.05 2678.5 2325.15 2677.85 2326.4 2662.85 2327.15 2653.9 2330 2648.25 2333.15 2641.9 2340.1 2639.8 2343.7 2638.75 2355.3 2637.95 2366.8 2637.15 2374.35 2634.9 2385.95 2631.35 2396 2622.9 2415.6 2606.35 2416.15 2587.7 2416.35 2580.75 2414.05 2570.95 2411.1 2559.65 2409.75 2553.7 2407.95 2545.55 2412.7 2539.55 2416.2 2535.1 2425.75 2529.7 2441.65 2520.65 2443.35 2519.6 2453.8 2512.7 2459.95 2504.55 2466.55 2495.75 2465.8 2486.55 2465.2 2479.15 2459.6 2470.3 2457.65 2467.15 2448.55 2455.3 2441.85 2446.5 2439.85 2441.2 2436.85 2433 2446.3 2425.1 2450.1 2421.95 2469.4 2410.6 2486.25 2400.65 2493.95 2392.3 2505.3 2380.05 2504.8 2364.95 2505.45 2345.5 2494.15 2332.2 2486.1 2322.7 2469.55 2314.55 2469.05 2314.25 2456.85 2308.55 2449.85 2305.25 2446.4 2303 2436.85 2296.75 2439.85 2288.7 2441.85 2283.35 2448.55 2274.55 2457.65 2262.65 2459.6 2259.55 2465.2 2250.7 2465.8 2243.3 2466.55 2234.1 2459.95 2225.3 2453.8 2217.15 2443.35 2210.25 2441.7 2209.2 2425.75 2200.15 2416.25 2194.75 2412.7 2190.3 2407.95 2184.3 2409.75 2176.15 2412.75 2164.5 2414.05 2158.9 2416.35 2149.1 2416.15 2142.2 2415.6 2123.5 2396 2107 2385.95 2098.55 2374.35 2095 2366.8 2092.7 2355.3 2091.9 2343.7 2091.15 2340.1 2090.05 2333.15 2087.95 2330 2081.6 2327.15 2075.95 2326.4 2067 2325.15 2052 2325.05 2051.4 2323.5 2042 2318.6 2034.4 2312.45 2024.7 2299.85 2015.6 2283.15 2003.5 2262.85 2004.1 2255.7 2004.3 2246.55 2006.2 2236.75 2008.45 2232.45 2009.35 2225.1 2010.9 2220.95 2010.5 2215.7 2010.05 2212.75 2006.5 2206.05 1998.7 2207.95 1970.75 2208.75 1959.5 2202.55 1947 2196.8 1935.45 2186.3 1925.05 2176.1 1914.9 2164.15 1908.65 2151.75 1902.1 2140.9 1901.55 2133.3 1901.15 2118.95 1901.2 2104.8 1901.3 2098.75 1900.95 2077.6 1899.7 2071.65 1890.45 2069.05 1886.35 2067.6 1875.2 2065.7 1860.6 2064 1854.75 2056.25 1827.7 2024.65 1817.05 2007.5 1811.25 1987.2 1815 1974.8 1817.3 1954.05 1825.5 1934.65 1833.1 1927.55 1833.95 1915.5 1835.4 1910 1826 1894.85 1800.05 1883.5 1786.6 1867.55 1767.7 1852.5 1764.1 1834 1759.65 1816.75 1766.35 1805.2 1770.9 1789 1783.5 1770.6 1797.8 1764.35 1801.1 1750.75 1808.3 1738.2 1804.75 1726.5 1801.45 1715.4 1790.65 1711.95 1787.3 1706.2 1780.8 1699.85 1773.65 1696.95 1770.7 1685.6 1759.15 1674.05 1754.7 1658.8 1748.9 1638 1752.6 1628.25 1754.35 1615.45 1761.8 1608.9 1765.6 1593.05 1776.6 1579.35 1786.15 1572.25 1789.65 1561.55 1794.95 1554.45 1793.5 1547.6 1792.15 1540.15 1787.5 1539.25 1786.95 1525.55 1777.3 1503.05 1761.35 1475.3 1753.1 1458.15 1748 1443.25 1751.7 1431.55 1754.65 1418 1764.2 1410.1 1769.75 1394.3 1782.25 1379.75 1792.95 1367 1797.5 1329.85 1810.85 1289.25 1805.2 1259.1 1801.05 1221.3 1784.95 1211.65 1780.85 1191.7 1771.55 Z"/>
</g>
</g>
</g>

<g transform="matrix( 0.113006591796875, 0, 0, 0.113006591796875, 105.8,81.5) ">
<g>
<g>
<path fill="#EA8829" stroke="none" d="
M 239.5 2319.05
Q 243.2 2302.95 229.55 2297.95 217.1 2293.4 197.55 2299.85 177.4 2306.5 163.65 2320.6 147.85 2336.65 147.85 2356 147.4 2370.15 156.55 2380.35 162.85 2387.3 176.45 2394.6 192 2402.9 194.9 2405.3 202.35 2411.4 199.4 2419.05 197.5 2424.05 191 2432.3 182.25 2443.45 180.35 2446.35 174.95 2454.65 174.4 2461.6 173.7 2470.25 180.05 2478.5 185.95 2486.15 196.05 2492.6 197.65 2493.6 213.05 2502.05 222.2 2507.15 225.6 2511.3 230.2 2516.9 228.45 2524.55 219.4 2564.25 227.15 2582.75 233.2 2597.2 251.1 2600.6 261.4 2602.55 283 2602.6 300.6 2603.9 305.35 2613.2 308.1 2618.55 308.85 2626.9 310.05 2641 310.15 2641.55 313.3 2660.25 334.4 2675.1 347.4 2684.25 362.4 2685.65 372.85 2686.65 387.15 2683.7 404.7 2680.05 406.8 2679.9 415.75 2679.3 419.5 2685.05 423.65 2691.35 422.55 2702.7 422.3 2705.35 421.15 2712.95 420.1 2719.8 419.85 2724 419 2737.45 423.75 2747.75 429.95 2761.15 446.6 2772.5 460.3 2781.85 478.75 2784.4 491 2786.1 510.65 2784.95 531.6 2783.75 537.5 2784.25 549.85 2785.4 554.55 2792.45 557.05 2796.3 558.45 2806.75 560.3 2820.4 561.95 2825.95 569.4 2851.3 599.9 2861.3 616.45 2866.75 636 2863.2 647.95 2861.05 667.95 2853.4 686.7 2846.25 693.55 2845.45 705.15 2844.1 710.45 2852.9 725.05 2877.25 736 2889.85 751.4 2907.55 765.9 2910.95 783.75 2915.15 800.35 2908.8 811.55 2904.55 827.2 2892.75 844.9 2879.35 850.9 2876.25 864.05 2869.45 876.15 2872.8 887.45 2875.9 898.15 2886 904.3 2891.85 915.95 2904.75 926.85 2915.6 938 2919.75 952.7 2925.2 972.8 2921.75 982.2 2920.1 994.55 2913.1 1000.9 2909.5 1016.15 2899.2 1029.4 2890.3 1036.25 2887 1046.55 2882 1053.4 2883.35 1060.05 2884.65 1067.2 2889 1068.05 2889.5 1081.25 2898.6 1103 2913.5 1129.75 2921.25 1145.95 2925.95 1157.4 2920.3 1165.25 2916.4 1174.65 2904.65 1186.15 2890.3 1190.85 2886.4 1201.45 2877.65 1215.3 2877.65 1223.45 2877.65 1234.4 2885.2 1239.85 2889 1254.7 2901.85 1268.15 2913.45 1276.3 2918.45 1288.75 2926 1299.4 2926 1309.55 2926 1321.15 2918.95 1329.15 2914.15 1341.2 2903.5 1355.6 2890.75 1359.3 2888 1368.85 2880.95 1375.35 2880.95 1388.85 2880.95 1400.7 2889.2 1405.25 2892.4 1419.75 2906.3 1431.1 2917.2 1440 2920.8 1452.85 2925.95 1469.05 2921.25 1495.8 2913.5 1517.55 2898.6 1530.75 2889.5 1531.6 2889 1538.75 2884.65 1545.4 2883.35 1552.25 2882 1562.55 2887 1569.4 2890.3 1582.65 2899.2 1597.95 2909.55 1604.25 2913.1 1616.6 2920.1 1626 2921.75 1646.1 2925.2 1660.8 2919.75 1671.95 2915.6 1682.85 2904.75 1694.5 2891.85 1700.65 2886 1711.35 2875.9 1722.65 2872.8 1734.75 2869.45 1747.85 2876.25 1753.85 2879.35 1771.6 2892.75 1787.25 2904.55 1798.45 2908.8 1815.05 2915.15 1832.9 2910.95 1847.4 2907.55 1862.75 2889.85 1873.65 2877.3 1888.35 2852.9 1893.65 2844.1 1905.25 2845.45 1912.1 2846.25 1930.85 2853.4 1950.85 2861.05 1962.8 2863.2 1982.35 2866.75 1998.9 2861.3 2029.4 2851.3 2036.9 2825.95 2038.5 2820.4 2040.35 2806.75 2041.75 2796.3 2044.25 2792.45 2050 2783.8 2070.4 2782.6 2076.25 2782.3 2089.85 2782.35 2103.75 2782.45 2111.05 2782.05 2121.55 2781.5 2133.45 2775.4 2145 2769.5 2154.85 2760.05 2164.95 2750.3 2170.5 2739.45 2176.45 2727.75 2175.75 2717.2 2173.9 2690.95 2180.35 2683.65 2183.2 2680.35 2188.3 2679.9 2192.25 2679.55 2199.35 2681 2203.45 2681.8 2212.95 2683.95 2221.75 2685.7 2228.7 2685.9 2248.25 2686.45 2264.35 2675.1 2285.5 2660.25 2288.65 2641.55 2288.75 2640.95 2289.95 2626.9 2290.65 2618.55 2293.4 2613.2 2296.45 2607.25 2303.15 2605.3 2306.65 2604.3 2317.8 2603.55 2328.95 2602.8 2336.2 2600.65 2347.4 2597.35 2357.1 2589.4 2376 2573.95 2376.55 2556.45 2376.75 2549.95 2374.5 2540.75 2371.65 2530.15 2370.35 2524.55 2368.6 2516.9 2373.2 2511.3 2376.6 2507.15 2385.75 2502.05 2401.15 2493.6 2402.75 2492.6 2412.85 2486.15 2418.75 2478.5 2425.1 2470.25 2424.4 2461.6 2423.85 2454.65 2418.45 2446.35 2416.6 2443.5 2407.8 2432.3 2401.3 2424.05 2399.4 2419.05 2396.45 2411.4 2403.75 2405.35 2406.55 2403.05 2421.8 2394.85 2435.15 2387.7 2441.35 2380.8 2450.35 2370.65 2449.9 2356.5 2450.5 2337.6 2434.85 2321.55 2421.1 2307.45 2400.8 2300.6 2381 2293.95 2368.35 2298.4 2354.5 2303.3 2358.2 2319.55 2359.65 2325.8 2364.25 2334.35 2369.45 2343.9 2370.45 2346.95 2372.7 2353.7 2370.25 2359.8 2367.3 2367.1 2357.1 2375.45 2347.4 2383.35 2336.2 2386.7 2328.95 2388.8 2317.8 2389.55 2306.65 2390.3 2303.15 2391.35 2296.45 2393.3 2293.4 2399.25 2290.65 2404.55 2289.95 2412.95 2288.75 2427 2288.65 2427.6 2285.5 2446.3 2264.35 2461.15 2248.25 2472.5 2228.7 2471.95 2221.75 2471.7 2212.95 2469.95 2203.45 2467.85 2199.35 2467 2192.25 2465.55 2188.3 2465.9 2183.2 2466.35 2180.35 2469.65 2173.9 2476.95 2175.75 2503.2 2176.45 2513.75 2170.5 2525.45 2164.95 2536.3 2154.85 2546.05 2145 2555.55 2133.45 2561.45 2121.55 2567.55 2111.05 2568.1 2103.7 2568.5 2089.85 2568.4 2076.2 2568.3 2070.4 2568.65 2050 2569.8 2044.25 2578.5 2041.75 2582.3 2040.35 2592.8 2038.5 2606.45 2036.9 2612 2029.4 2637.35 1998.9 2647.35 1982.35 2652.8 1962.8 2649.25 1950.85 2647.1 1930.85 2639.45 1912.1 2632.25 1905.25 2631.45 1893.65 2630.1 1888.35 2638.9 1873.7 2663.3 1862.75 2675.9 1847.4 2693.6 1832.9 2697 1815.05 2701.15 1798.45 2694.85 1787.25 2690.6 1771.6 2678.8 1753.85 2665.4 1747.85 2662.3 1734.75 2655.5 1722.65 2658.85 1711.35 2661.95 1700.65 2672.05 1694.5 2677.9 1682.85 2690.8 1671.95 2701.65 1660.8 2705.75 1646.1 2711.25 1626 2707.75 1616.6 2706.15 1604.25 2699.15 1597.95 2695.55 1582.65 2685.25 1569.4 2676.3 1562.55 2673 1552.25 2668.05 1545.4 2669.4 1538.75 2670.7 1531.6 2675.05 1530.75 2675.55 1517.55 2684.6 1495.8 2699.5 1469.05 2707.25 1452.85 2711.95 1440 2706.8 1431.1 2703.25 1419.75 2692.3 1405.25 2678.4 1400.7 2675.2 1388.85 2666.95 1375.35 2666.95 1368.8 2666.95 1359.3 2674 1355.6 2676.75 1341.2 2689.5 1329.15 2700.15 1321.15 2705 1309.55 2712.05 1299.4 2712.05 1288.75 2712.05 1276.3 2704.45 1268.1 2699.5 1254.7 2687.85 1239.85 2675 1234.4 2671.25 1223.45 2663.7 1215.3 2663.7 1201.45 2663.7 1190.85 2672.45 1186.15 2676.35 1174.65 2690.7 1165.25 2702.45 1157.4 2706.3 1145.95 2711.95 1129.75 2707.25 1103 2699.5 1081.25 2684.6 1068.05 2675.55 1067.2 2675.05 1060.05 2670.7 1053.4 2669.4 1046.55 2668.05 1036.25 2673 1029.4 2676.3 1016.15 2685.25 1000.9 2695.55 994.55 2699.15 982.2 2706.15 972.8 2707.75 952.7 2711.25 938 2705.75 926.85 2701.65 915.95 2690.8 904.3 2677.9 898.15 2672.05 887.45 2661.95 876.15 2658.85 864.05 2655.5 850.9 2662.3 844.9 2665.4 827.2 2678.8 811.55 2690.6 800.35 2694.85 783.75 2701.15 765.9 2697 751.4 2693.6 736 2675.9 725 2663.2 710.45 2638.9 705.15 2630.1 693.55 2631.45 686.7 2632.25 667.95 2639.45 647.95 2647.1 636 2649.25 616.45 2652.8 599.9 2647.35 569.4 2637.35 561.95 2612 560.3 2606.45 558.45 2592.8 557.05 2582.3 554.55 2578.5 549.85 2571.45 537.5 2570.3 531.6 2569.8 510.65 2571 491 2572.15 478.75 2570.45 460.3 2567.9 446.6 2558.55 429.95 2547.2 423.75 2533.75 419 2523.45 419.85 2510.05 420.1 2505.85 421.15 2499 422.3 2491.35 422.55 2488.7 423.65 2477.4 419.5 2471.05 415.75 2465.3 406.8 2465.9 404.7 2466.05 387.15 2469.7 372.85 2472.65 362.4 2471.7 347.4 2470.3 334.4 2461.15 313.3 2446.3 310.15 2427.6 310.05 2427.05 308.85 2412.95 308.1 2404.55 305.35 2399.25 300.55 2389.9 284.7 2390 282.1 2390 270.65 2390.8 261.8 2391.4 256.65 2390.9 241.2 2389.3 236.45 2375.9 230.4 2358.75 239.5 2319.05 Z"/>
</g>
</g>
</g>

<g transform="matrix( 0.113006591796875, 0, 0, 0.113006591796875, 105.8,81.5) ">
<g>
<g>
<path fill="#6F242B" stroke="none" d="
M 236.15 1357.6
Q 181.35 1432.1 169.7 1515.65 157.3 1604.5 184.35 1726.7 209.25 1839.15 261.65 1955.4 317.7 2079.8 388.65 2170.25 424.35 2215.75 459.25 2245.7 495.7 2277.05 528.65 2289.2 551.95 2297.85 575.5 2289.15 599.25 2280.35 611.55 2258.15 648.6 2191.15 680.05 2055.1 711.2 1920.25 725.45 1767.4 738.45 1628.3 733.9 1507.95 728.9 1375.7 703.2 1287.5 693.55 1254.4 672.3 1230.95 651.95 1208.55 621.75 1195.75 593.7 1183.85 559.4 1182.15 526.1 1180.5 489.45 1188.6 457.55 1195.6 424.4 1209.65 390.9 1223.85 359 1244.05 285.4 1290.7 236.15 1357.6
M 517.1 1320.35
Q 533.7 1316.75 546.5 1316.55 559.7 1316.35 567.95 1319.8 572.25 1321.65 573.55 1326.3 595.65 1401.95 599.45 1520.65 602.9 1628.65 591 1756.35 581.2 1861.55 563.1 1958.75 545.15 2055.1 522.95 2122.85 489.1 2087.3 452.6 2027.85 416.85 1969.6 384.95 1898.8 339.7 1798.35 317.7 1704.65 293.8 1602.8 303.5 1533.05 310.8 1480.7 347.6 1432.45 380.7 1389.1 430.5 1357.6 452.15 1343.9 474.35 1334.35 496.4 1324.9 517.1 1320.35 Z"/>
</g>
</g>
</g>

<g transform="matrix( 0.113006591796875, 0, 0, 0.113006591796875, 105.8,81.5) ">
<g>
<g>
<path fill="#CCD9EA" stroke="none" d="
M 306.7 1376.55
Q 247.6 1445.4 236.6 1524.35 225.15 1606.35 252.7 1722.9 278.05 1830.05 329.75 1941.2 380.3 2049.8 439.25 2126.5 501.1 2207 552.65 2226 584.1 2169.05 611.85 2052.5 639.2 1937.55 654.2 1801.55 670.05 1658 667.25 1533 664.1 1395.05 638.4 1306.9 630.9 1281.15 610.6 1266.55 591.45 1252.8 562.6 1249.95 534.9 1247.25 501.35 1254.9 468.2 1262.45 433.7 1279.15 398.55 1296.15 366.55 1320.4 333.05 1345.85 306.7 1376.55 Z"/>
</g>
</g>
</g>

<g transform="matrix( 0.113006591796875, 0, 0, 0.113006591796875, 105.8,81.5) ">
<g>
<g>
<path fill="#FFFFFF" stroke="none" d="
M 306.7 1376.55
Q 247.6 1445.4 236.6 1524.35 232.1 1556.5 233.8 1594.75 270.85 1650.9 318.85 1681.7 368.5 1713.6 422.9 1713.6 462.35 1713.6 499.75 1696.6 536 1680.1 567.9 1648.85 599.35 1618 624.1 1575.25 649 1532.3 665.1 1480.8 658.95 1377.35 638.4 1306.9 630.9 1281.15 610.6 1266.55 591.45 1252.8 562.6 1249.95 534.9 1247.25 501.35 1254.9 468.2 1262.45 433.7 1279.15 398.55 1296.15 366.55 1320.4 333.05 1345.85 306.7 1376.55 Z"/>
</g>
</g>
</g>

<g transform="matrix( 0.113006591796875, 0, 0, 0.113006591796875, 105.8,81.5) ">
<g>
<g>
<path fill="#6F242B" stroke="none" d="
M 1485.5 422.75
Q 1399.65 405.9 1299.15 405.9 1198.65 405.9 1112.85 422.75 1029.7 439.1 957.65 471.85
L 952.25 474.6
Q 884.45 506.15 825.1 553 769.15 597.1 717.75 657.15 605.45 788.35 528.05 966.55 458.4 1126.85 417.45 1324.3 352.1 1639.5 360.25 2048.85 363.35 2206.7 430.15 2326.85 492.45 2439.05 608.5 2516 621.6 2524.7 637.45 2526.95 652.75 2529.1 667.6 2524.9
L 674.5 2522.8
Q 679.55 2529.35 683.3 2533.6 713 2567.9 749.45 2576.4 786.6 2585.1 817.15 2575.75 838.55 2569.15 864.3 2550 887.2 2574.3 908.8 2583.15 939.7 2595.75 985 2587.95 1002.7 2584.9 1020.15 2576.3 1031.95 2570.45 1049.2 2558.85 1061.3 2566.65 1074 2572.6 1090.15 2580.1 1109.6 2585.7 1150.15 2597.45 1177.6 2588.6 1198.5 2581.9 1217.8 2560.1 1236.65 2575.75 1252.7 2583.15 1274.4 2593.15 1299.4 2593.2
L 1299.4 2593.45
Q 1323.65 2593.45 1344.8 2583.7 1360.75 2576.4 1378.65 2561.35 1401 2582.05 1421.75 2588.4 1450.15 2597 1489.2 2585.7 1508.65 2580.1 1524.8 2572.6 1537.5 2566.65 1549.6 2558.85 1566.85 2570.5 1578.65 2576.3 1596.05 2584.9 1613.8 2587.95 1659.05 2595.75 1689.95 2583.15 1711.6 2574.3 1734.45 2550 1760.25 2569.15 1781.6 2575.75 1812.15 2585.1 1849.3 2576.4 1868.65 2571.9 1885.85 2560.35 1901.35 2549.95 1915.5 2533.6 1920.35 2528 1924.25 2522.8
L 1930.6 2524.8
Q 1946.95 2529.55 1963.7 2526.5 1979.9 2523.55 1992.85 2514 2106.65 2437.65 2168.25 2326.8 2235 2206.6 2238.1 2048.85 2246.25 1639.5 2180.9 1324.3 2139.95 1126.85 2070.3 966.55 1992.9 788.35 1880.6 657.15 1828.2 595.9 1771 551.2 1710.3 503.75 1640.7 472.1
L 1640.55 472.05 1640.7 471.85
Q 1568.65 439.1 1485.5 422.75
M 1581.3 585.25
L 1581.4 585.05
Q 1636.35 610.05 1685.3 648.7 1731.4 685.1 1774.6 735.55 1876.05 854 1946.5 1017.7 2009.85 1164.95 2047.8 1347.95 2110.75 1651.4 2102.9 2046.9 2100.35 2174.7 2047.9 2269.1 2008.45 2340.15 1939.75 2393.2 1921.25 2386.45 1909.1 2384.05 1893.4 2381 1880.9 2383.35 1851.95 2388.7 1829.25 2426.4
L 1829.35 2426.45 1829.25 2426.65
Q 1819.8 2442.3 1813.5 2450.45 1812.8 2447.2 1810.55 2445.45 1796.1 2434.4 1788.65 2429.55 1776.4 2421.5 1765.25 2417.4 1737.7 2407.3 1703.55 2416.7 1681.3 2422.85 1664.75 2435.3 1654.85 2442.75 1639.3 2459.8 1638.4 2460.75 1639 2462.9 1639.4 2464.4 1638.15 2464.2 1637.55 2464.05 1635.8 2462.7 1633.3 2460.75 1631.6 2459.4 1628.55 2456.7 1624.65 2454 1597.7 2435.8 1582.9 2430.15 1558.45 2420.85 1531.6 2426.05 1515.65 2429.15 1503.25 2435.5 1495.5 2439.4 1481.55 2449.25
L 1481.7 2449.4 1481.55 2449.5
Q 1476.65 2452.95 1473.4 2454.95 1468 2458.2 1462.15 2460.75 1442.85 2441.9 1428.15 2434.1 1405.7 2422.15 1375.35 2422.15 1351.45 2422.15 1331.7 2433.15 1319.55 2439.9 1298.8 2458.4
L 1298.15 2457.75 1298 2457.9
Q 1275.35 2438.15 1262.15 2430.8 1240.55 2418.85 1215.3 2418.85 1184.1 2418.85 1162.45 2430.7 1146.65 2439.35 1131 2458.05 1126.15 2455.6 1121.15 2452.2
L 1117.25 2449.25
Q 1103.3 2439.4 1095.55 2435.5 1083.15 2429.15 1067.2 2426.05 1040.35 2420.85 1015.9 2430.15 1001.1 2435.8 974.15 2454
L 974.3 2454.2 974.15 2454.25
Q 970.55 2456.7 965.2 2461 961.4 2464.05 960.6 2464.2 959.35 2464.4 959.8 2462.9 960.4 2460.75 959.5 2459.8 943.95 2442.75 934 2435.25 917.45 2422.8 895.25 2416.7 861.05 2407.3 833.55 2417.4 822.4 2421.5 810.1 2429.55 802.7 2434.4 788.25 2445.45 786.05 2447.15 785.25 2450.45 778.95 2442.25 769.55 2426.65 746.75 2388.75 717.75 2383.35 705.15 2381.05 689.45 2384.15 677.3 2386.55 658.75 2393.3 589.95 2340.25 550.45 2269.15 497.95 2174.65 495.4 2046.9 487.6 1651.2 550.55 1347.95 588.5 1164.95 651.85 1017.7 722.3 854 823.75 735.55 866.05 686.15 911.05 650.25 958.8 612.15 1012.25 587.2
L 1017.05 585.25
Q 1075.1 558.9 1143.75 545.7 1214.65 532.1 1299.15 532.1 1383.7 532.1 1454.6 545.7 1523.25 558.9 1581.3 585.25
M 1036.3 2548.7
L 1035.9 2549.2
Q 1034.15 2548.65 1034.1 2548.5 1034.1 2548.3 1036.3 2548.7
M 1815.2 2454.2
Q 1817.4 2453.8 1817.7 2453.8 1818.25 2453.7 1816.45 2454.15 1815.6 2454.35 1815.2 2454.2 Z"/>
</g>
</g>
</g>

<g transform="matrix( 0.113006591796875, 0, 0, 0.113006591796875, 105.8,81.5) ">
<g>
<g>
<path fill="#FFFFFF" stroke="none" d="
M 1611 528.55
Q 1479.95 469 1299.15 469 1118.35 469 987.35 528.55 925.05 556.85 870.2 599.95 818.55 640.5 770.75 696.35 567.45 933.85 484 1336.15 419.85 1645.45 427.85 2047.9 430.65 2190.7 490.3 2298 545.15 2396.7 647.7 2464.75 655.35 2462.55 668.3 2457.6 681 2452.7 686.05 2451.3 694.8 2448.85 700.3 2449.85 706.75 2451.05 710.45 2457.2 725.15 2481.6 736.05 2494.15 751.4 2511.9 765.9 2515.3 783.75 2519.45 800.35 2513.15 811.55 2508.9 827.2 2497.05 844.95 2483.65 850.95 2480.55 864.1 2473.75 876.15 2477.1 887.45 2480.2 898.15 2490.35 904.3 2496.2 915.95 2509.1 926.85 2519.95 938 2524.05 952.7 2529.55 972.8 2526.05 982.2 2524.45 994.55 2517.45 1000.9 2513.8 1016.15 2503.55 1029.4 2494.6 1036.25 2491.3 1046.55 2486.3 1053.4 2487.65 1060 2488.95 1067.2 2493.3 1067.95 2493.75 1081.25 2502.9 1102.95 2517.8 1129.75 2525.55 1145.95 2530.25 1157.4 2524.6 1165.25 2520.75 1174.65 2508.95 1186.15 2494.6 1190.85 2490.7 1201.45 2481.95 1215.3 2481.95 1223.45 2481.95 1234.4 2489.5 1239.85 2493.3 1254.7 2506.15 1268.15 2517.75 1276.3 2522.75 1288.75 2530.3 1299.4 2530.3 1309.55 2530.3 1321.15 2523.25 1329.15 2518.45 1341.2 2507.8 1355.6 2495.05 1359.3 2492.3 1368.85 2485.25 1375.35 2485.25 1388.85 2485.25 1400.7 2493.5 1405.25 2496.7 1419.75 2510.6 1431.1 2521.55 1440 2525.1 1452.85 2530.25 1469.05 2525.55 1495.85 2517.8 1517.55 2502.9 1530.85 2493.75 1531.6 2493.3 1538.8 2488.95 1545.4 2487.65 1552.25 2486.3 1562.55 2491.3 1569.4 2494.6 1582.65 2503.55 1597.9 2513.85 1604.25 2517.45 1616.6 2524.45 1626 2526.05 1646.1 2529.55 1660.8 2524.05 1671.95 2519.95 1682.85 2509.1 1694.5 2496.2 1700.65 2490.35 1711.35 2480.2 1722.65 2477.1 1734.75 2473.75 1747.85 2480.55 1753.85 2483.65 1771.6 2497.05 1787.25 2508.9 1798.45 2513.15 1815.05 2519.45 1832.9 2515.3 1847.4 2511.9 1862.75 2494.15 1873.65 2481.6 1888.35 2457.2 1892.05 2451.1 1898.45 2449.9 1903.9 2448.85 1912.65 2451.3 1917.75 2452.7 1930.3 2457.5 1943.25 2462.45 1950.75 2464.65 2053.25 2396.6 2108.1 2297.9 2167.7 2190.65 2170.5 2047.9 2178.5 1645.45 2114.35 1336.15 2030.9 933.85 1827.6 696.35 1779.8 640.5 1728.15 599.95 1673.3 556.85 1611 528.55 Z"/>
</g>
</g>
</g>

<g transform="matrix( 0.113006591796875, 0, 0, 0.113006591796875, 105.8,81.5) ">
<g>
<g>
<path fill="#CCD9EA" stroke="none" d="
M 923.35 627.55
Q 884.2 656 847.15 691.15 811.1 725.3 779.85 763.05 595.95 985.3 524.45 1372.25 471.95 1656.65 479.65 2044.4 483.15 2220.1 578.25 2338.5 663.05 2444 819.5 2502.7 838.25 2488 847.3 2482.6 862.65 2473.4 876.15 2477.1 887.45 2480.2 898.15 2490.35 904.3 2496.2 915.95 2509.1 926.85 2519.95 938 2524.05 952.7 2529.55 972.8 2526.05 982.2 2524.45 994.55 2517.45 1000.9 2513.8 1016.15 2503.55 1029.4 2494.6 1036.25 2491.3 1046.55 2486.3 1053.4 2487.65 1060 2488.95 1067.2 2493.3 1067.95 2493.75 1081.25 2502.9 1102.95 2517.8 1129.75 2525.55 1143 2529.4 1152.9 2526.4 1160.85 2523.95 1168.25 2516.35
L 1148.5 2504
Q 919.15 2359.8 812.2 2123.15 763.3 2014.85 737.9 1883.6 714.55 1763.05 710.2 1618.15 702.25 1352.2 751.6 1129.4 810.8 862.5 949.25 674.05 993.25 614.2 991.2 598.25 988.8 579.9 923.35 627.55 Z"/>
</g>
</g>
</g>

<g transform="matrix( 0.113006591796875, 0, 0, 0.113006591796875, 105.8,81.5) ">
<g>
<g>
<path fill="#6F242B" stroke="none" d="
M 1299.6 412.4
L 1299.15 412.4
Q 1199.45 412.4 1114.45 429.1 1032.05 445.3 960.75 477.7
L 955.95 480.1
Q 888.7 511.35 829.75 557.8 774.2 601.6 723.2 661.2 534.65 881.45 445.4 1233.8 374.65 1512.75 367.2 1874.2 365.55 1953.8 389 1989.5 411.2 2023.25 460.8 2024.25 479.2 2024.65 500.15 2017.9 501.8 2023 504.1 2028.15 513 2048.35 528.15 2062.55 542.8 2076.3 562.85 2084.05 580.45 2090.7 600.1 2091.65 619.45 2092.55 640 2087.85 664.55 2082.3 690.75 2068.1 698.4 2079.8 708.35 2089.55 723.15 2104 741.7 2113.05 759.75 2121.85 780.5 2125.1 798.9 2128.05 818.45 2126.3 837.85 2124.6 857.2 2118.35 880.1 2110.95 901.35 2097.45 921.7 2121.15 952.25 2130.6 971.75 2136.65 992.8 2135.95 1014.15 2135.25 1036.2 2127.7 1056 2120.9 1076.5 2108.15 1082.5 2122.65 1090.85 2133.45 1092.9 2136.1 1095.05 2138.35 1109.8 2155.4 1129.35 2163.8 1148 2171.8 1170.6 2171.65
L 1171 2171.65
Q 1188.7 2171.45 1206.75 2165.6 1224.25 2159.95 1241.3 2149.3 1256.15 2140.05 1271.05 2126.55 1285.8 2113.2 1299.4 2096.8 1313.05 2113.25 1327.75 2126.6 1342.7 2140.1 1357.45 2149.3 1374.65 2160 1392.2 2165.65 1410.4 2171.5 1428.15 2171.65 1452.3 2171.85 1472 2162.65 1492.6 2153.05 1507.75 2133.45
L 1507.8 2133.35 1507.95 2133.45
Q 1516.3 2122.65 1522.3 2108.15 1542.75 2120.9 1562.55 2127.7 1584.65 2135.25 1606 2135.95 1627.05 2136.65 1646.55 2130.6 1679.35 2120.5 1700.5 2093.7 1730.35 2113.45 1761.7 2121.6 1780.8 2126.55 1799.4 2126.95 1818.15 2127.35 1835.35 2123.15 1855.6 2118.2 1872 2107.6 1888.9 2096.65 1900.95 2080.2
L 1904 2075.6
Q 1907.2 2070.65 1909.95 2065.45 1938.95 2079.95 1964.55 2085.75 1986.85 2090.85 2006.95 2089.65 2027.4 2088.45 2045 2080.8
L 2045.25 2080.8
Q 2086.45 2063 2100.4 2018.55 2120.2 2024.7 2138 2024.25 2187.6 2023.25 2209.8 1989.5 2233.25 1953.8 2231.6 1874.2 2224.15 1513.05 2153.4 1233.8 2064.1 881.4 1875.6 661.2 1823.7 600.55 1767.05 556.25 1706.9 509.2 1638.05 477.9
L 1638.05 477.7
Q 1566.75 445.3 1484.3 429.1 1399.3 412.4 1299.6 412.4
M 1584.8 579.4
L 1584.9 579.2
Q 1640.6 604.5 1690.15 643.65 1736.8 680.45 1780.5 731.5 1952.05 931.9 2035.05 1259.4 2103.25 1528.45 2110.35 1875.95 2110.65 1891.1 2129.3 1903.55 2133.45 1906.35 2138.65 1909.55 2140.9 1911.45 2135.6 1911.55 2133.7 1911.6 2116.1 1901.2 2105.05 1894.7 2073.6 1875.5
L 2070.9 1873.85 2070.8 1874
Q 2060.5 1867.7 2048.35 1865.65 2035.85 1863.55 2023.35 1866.35 1998.95 1871.85 1985.85 1891.8 1972.75 1911.7 1978.65 1934.45 1985.05 1959.15 1985.35 1973.95 1968.05 1968.3 1945.75 1954.1 1923.35 1939.9 1898 1918.5 1887.05 1909.2 1872.7 1905.7 1857.95 1902.05 1842.95 1905.4 1818.55 1910.9 1805.45 1930.85 1792.35 1950.8 1798.25 1973.5 1806.1 2003.3 1802 2014.15 1798.65 2014.05 1794.05 2012.85 1775.25 2007.95 1757.1 1991.95 1737.55 1974.7 1724.05 1948.85 1716.8 1930.7 1698.95 1920.5 1680.9 1910.15 1659.75 1912.55 1634.75 1915.35 1619.2 1933.85 1603.7 1952.3 1606.75 1975.55 1610.9 2006.85 1605.35 2021.95
L 1604.4 2021.6
Q 1587.6 2015.8 1567.6 1998.2 1546.25 1979.4 1523.45 1949.05 1514.3 1935.65 1499 1928.6 1483.25 1921.35 1465.7 1923.1 1440.7 1925.6 1424.9 1943.75 1409.1 1961.95 1411.75 1985.2 1416.6 2026.35 1414.55 2048.1 1396.55 2033.4 1381.65 2010.5 1366.1 1986.65 1359.45 1962.1 1355.5 1942.2 1338.75 1929.15 1321.8 1915.9 1299.6 1915.9
L 1299.15 1915.95
Q 1278.25 1915.95 1261.7 1928 1244.85 1940.25 1240 1959.65 1233.65 1984.8 1217.85 2009.45 1202.7 2033.05 1184.25 2048.1 1182.2 2026.45 1187 1985.2 1188.7 1970.05 1182 1956.15 1175.1 1941.8 1161.15 1932.85 1140.5 1919.55 1115.75 1923.75 1091.05 1927.95 1076.75 1947.2 1053.55 1978.35 1031.85 1997.65 1011.45 2015.7 994.4 2021.6
L 993.45 2021.95
Q 987.9 2007.05 992 1975.5 994.6 1955.8 983.3 1938.85 971.85 1921.65 951.2 1915.15 927.35 1907.65 904.8 1918 882.25 1928.4 874.15 1950.55 865.45 1974.4 849.5 1990.9 834.8 2006.1 817.3 2011.8 807.8 2014.8 800.95 2013.7 797.85 2013.25 796.3 2011.75 791.4 2006.95 789.7 1996.4 787.85 1984.95 789.95 1967.7
L 789.8 1967.65
Q 791.45 1953.4 785.65 1940.15 779.65 1926.45 767.1 1917.25 747.4 1902.8 722.5 1905.55 697.55 1908.25 682 1926.55 664.9 1946.7 646.85 1960.1 629.55 1972.95 614.35 1977.35 612.9 1963.35 619.3 1937.75 623.2 1925.9 621.45 1913.65 619.65 1901 612.05 1890.2 598.25 1870.65 573.6 1865.85 549 1861.05 527.9 1873.85
L 525.2 1875.5 525.3 1875.65 525.2 1875.7
Q 494.2 1894.65 482.9 1901.3 465.4 1911.6 463.15 1911.55 457.85 1911.45 460.15 1909.55 465.3 1906.35 469.45 1903.55 488.1 1891.1 488.4 1875.95 495.6 1528.3 563.75 1259.4 646.75 931.9 818.3 731.5 861.15 681.45 906.85 645.1 955.35 606.5 1009.65 581.15
L 1014 579.4
Q 1072.75 552.7 1142.15 539.35 1213.75 525.6 1299.15 525.6
L 1299.6 525.6
Q 1385 525.6 1456.6 539.35 1526.05 552.7 1584.8 579.4 Z"/>
</g>
</g>
</g>

<g transform="matrix( 0.113006591796875, 0, 0, 0.113006591796875, 105.8,81.5) ">
<g>
<g>
<path fill="#FFFFFF" stroke="none" d="
M 1299.6 469
L 1299.15 469
Q 1118.35 469 987.35 528.55 925.05 556.85 870.2 599.95 818.55 640.5 770.75 696.35 590.7 906.65 504.55 1246.6 435.1 1520.65 427.8 1875.1 426.8 1922.95 434.75 1945.1 442.35 1966.15 459.5 1967.75 474.55 1969.2 501.75 1955.6 518 1947.5 561.2 1921.15 547.45 1974.1 559.15 2004.2 569.75 2031.5 598.6 2034.95 626.25 2038.2 661.45 2018.85 697.8 1998.85 729.55 1961.5 723.1 2015.05 746.8 2044.55 757.4 2057.7 773 2064.35 788.05 2070.75 806 2070.45 823.75 2070.15 842.05 2063.4 860.75 2056.45 877.5 2043.7 914.65 2015.4 931.7 1968.7 925.1 2018.05 939.3 2047.7 952.9 2076.1 981.75 2079.2 1011.15 2082.35 1047.9 2058.1 1087.5 2031.9 1126.65 1979.25 1116.75 2063.25 1137.4 2096.35 1146.4 2110.8 1160.75 2114.25 1174.1 2117.45 1190.9 2110.9 1206.75 2104.75 1223.75 2090.7 1240.35 2077 1255.4 2057.95 1287.95 2016.9 1299.15 1972.5
L 1299.6 1972.5
Q 1310.85 2016.9 1343.35 2057.95 1358.45 2077 1375.05 2090.7 1392.05 2104.75 1407.9 2110.9 1424.7 2117.45 1438 2114.25 1452.4 2110.8 1461.4 2096.35 1482.05 2063.25 1472.1 1979.25 1511.25 2031.9 1550.85 2058.1 1587.6 2082.35 1617.05 2079.2 1645.9 2076.1 1659.5 2047.7 1673.7 2018.05 1667.1 1968.7 1690.1 2015.45 1729.45 2043.75 1747.25 2056.55 1766 2063.5 1784.4 2070.25 1801.25 2070.55 1818.35 2070.8 1831.65 2064.35 1845.45 2057.6 1853.5 2044.25 1871.5 2014.4 1857.2 1960.2 1900.85 1997.2 1939.7 2016.4 1978.85 2035.75 2005.3 2033.1 2033.1 2030.3 2041.95 2003.55 2051.5 1974.7 2037.6 1921.15 2080.8 1947.5 2097.05 1955.6 2124.25 1969.2 2139.3 1967.75 2156.45 1966.15 2164.05 1945.1 2172 1922.95 2171 1875.1 2163.7 1520.65 2094.25 1246.6 2008.1 906.65 1828.05 696.35 1780.25 640.5 1728.6 599.95 1673.75 556.85 1611.45 528.55 1480.4 469 1299.6 469 Z"/>
</g>
</g>
</g>

<g transform="matrix( 0.113006591796875, 0, 0, 0.113006591796875, 105.8,81.5) ">
<g>
<g>
<path fill="#CCD9EA" stroke="none" d="
M 2082 1619.2
Q 2046.85 1699.85 1999.25 1770 1950.1 1842.35 1890.85 1898.65 1829 1957.4 1759.55 1995.25 1799.4 2018.85 1847.75 2052.05 1859.9 2038.35 1862.65 2016.15 1865.6 1992.1 1857.2 1960.2 1900.85 1997.2 1939.7 2016.4 1978.85 2035.75 2005.3 2033.1 2033.1 2030.3 2041.95 2003.55 2051.5 1974.7 2037.6 1921.15 2080.8 1947.5 2097.05 1955.6 2124.25 1969.2 2139.3 1967.75 2156.45 1966.15 2164.05 1945.1 2172 1922.95 2171 1875.1 2166.25 1649.05 2136.4 1456.1 2116.55 1539.75 2082 1619.2 Z"/>
</g>
</g>
</g>

<g transform="matrix( 0.113006591796875, 0, 0, 0.113006591796875, 105.8,81.5) ">
<g>
<g>
<path fill="#CCD9EA" stroke="none" d="
M 923.35 627.55
Q 884.2 656 847.15 691.15 811.1 725.3 779.85 763.05 606.2 972.9 532.8 1329.55 477 1600.55 478.65 1965.2 492.8 1960.9 515.15 1948.55 528.35 1941.25 561.2 1921.15 547.45 1974.1 559.15 2004.2 569.75 2031.5 598.6 2034.95 626.25 2038.2 661.45 2018.85 697.8 1998.85 729.55 1961.5 723.85 2008.9 742 2037.8 758.4 2063.9 789.85 2069.25 760.85 1992.85 742.45 1906.05 725 1823.8 716.8 1730.8 711.95 1676.75 710.2 1618.15 702.25 1352.15 751.65 1129.4 810.8 862.45 949.25 674.05 993.25 614.2 991.2 598.25 988.8 579.9 923.35 627.55 Z"/>
</g>
</g>
</g>

<g transform="matrix( 0.113006591796875, 0, 0, 0.113006591796875, 105.8,81.5) ">
<g>
<g>
<path fill="#6F242B" stroke="none" d="
M 1526.25 170.6
Q 1513.3 160.65 1495.8 155.45 1478.25 150.2 1457.9 150.15 1449.1 150.15 1439.5 151.2 1460.75 117.65 1461.15 91.35 1461.6 59.45 1432.85 28.45 1413.75 7.8 1383.6 2 1363.5 -1.9 1339.5 1.75 1315.35 5.45 1289.9 16.35 1266.9 26.2 1244 41.35 1219.95 57.25 1197.9 77.65
L 1188.4 86.8
Q 1185.1 66.8 1174.35 51.1 1165.45 38.1 1152.75 29.45 1140.35 21 1124.95 17.1 1100.55 10.95 1072.75 17.45 1037.4 25.7 1004.8 52.7 968.9 82.45 948.7 125.55 937.95 148.4 930.3 172.95 913 228.7 913.6 285.65 914.3 349.15 937.4 406.9 962.8 470.4 1013.35 521.75 1069.35 578.55 1154.15 618.3 1197.25 638.5 1246.65 653.8
L 1246.65 653.7
Q 1264.85 659.3 1282.3 651.45 1299.85 643.55 1307.65 625.9 1329.25 577.25 1348 547.3 1370.45 511.55 1393.85 493.9 1415.2 477.8 1442.55 476.15 1471.95 474.4 1509.95 489.2 1519.75 493 1530.2 492.6 1541 492.25 1550.75 487.45 1576.95 474.45 1593.45 452.6 1609.1 431.85 1613.7 406.35 1616.4 391.3 1614.8 376.15 1613.2 360.85 1607.25 346.4 1601.5 332.35 1592.05 320.05 1582.3 307.35 1569.15 297.3 1556.1 287.35 1540.4 280.5 1550.2 264.85 1553.65 250.2 1559.55 225.45 1552.15 204.85 1545.05 185.1 1526.25 170.6
M 1356.6 101.3
Q 1349.4 108.9 1343.85 114.8 1333.1 126.15 1325.45 136.05 1294.2 176.3 1281.05 199.55 1258.8 238.8 1254.6 277.3 1252.4 298.1 1265.55 314.45 1278.75 330.75 1299.55 332.95 1312.45 334.3 1324.4 329.35 1335.95 324.55 1343.95 314.9 1362.4 292.65 1385.05 277.2 1405.35 263.35 1426.5 256.55 1412.6 266.75 1393.85 278.35 1376.05 289.35 1371.25 309.7 1366.4 330.1 1377.4 347.85 1385.85 361.5 1400.55 367.75 1414.95 373.9 1430.25 370.85
L 1430.3 371.05
Q 1458.3 365.4 1478.85 367.7 1497.25 369.7 1507.75 377.75 1511.55 380.65 1513.2 383.7 1459.35 368.65 1413.5 376.9 1370.55 384.6 1332.85 413.05 1304.45 434.5 1279.3 468.85 1257 499.3 1235.15 542.95 1215.2 535.35 1196.9 526.8 1131.1 495.95 1088.35 453.65 1049.75 415.45 1031.3 369.25 1015.05 328.65 1014.75 283.4 1014.5 242.75 1026.95 202.65 1032.45 184.85 1040.2 168.3 1048.5 150.6 1061.1 137.55 1072.6 125.6 1085.5 119.65
L 1083.95 123.65
Q 1077.05 141.95 1073.1 165.95 1069.5 188.05 1068.55 213.75 1067.5 240.55 1069.35 269.55 1071.1 296.25 1074.9 319.8 1078.25 340.45 1095.25 352.7 1112.25 364.95 1132.95 361.6 1148.85 359 1160.35 347.7 1171.55 336.6 1174.55 321.2 1184.7 268.35 1210.75 222.75 1233.8 182.4 1266.85 151.7 1282.4 137.3 1298.75 126.35 1314.4 115.9 1329.55 109.45 1345.45 102.55 1356.6 101.3 Z"/>
</g>
</g>
</g>

<g transform="matrix( 0.113006591796875, 0, 0, 0.113006591796875, 105.8,81.5) ">
<g>
<g>
<path fill="#E73135" stroke="none" d="
M 1373.05 51.5
Q 1358.8 49.05 1340.3 52.95 1300.9 61.3 1258.4 93 1211.3 128.1 1177.45 180.2 1138.6 240 1124.8 311.7 1118 269.85 1118.8 224.75 1119.7 172.25 1131.3 141.45 1145.85 102.8 1133.95 81.9 1128.7 72.65 1118.65 68.3 1109 64.1 1096.25 64.95 1069.4 66.75 1041.8 87.6 1011.5 110.5 994.45 146.9 969.1 201 964.9 260.45 960.2 328.1 984.55 388.6 1012.4 457.8 1075.85 510.5 1147.65 570.15 1261.5 605.5 1285.8 550.8 1307.8 516.55 1334.2 475.45 1363.35 453.5 1395.7 429.05 1434.65 425.6 1476.5 421.85 1528.35 442.05 1554.7 429 1562.4 404.05 1569.85 379.9 1556.35 357.3 1541.85 333.05 1509.35 322.75 1472.1 310.95 1420.4 321.3 1490.05 278.25 1503 243.6 1508.5 228.8 1502.15 218.15 1496.15 208.05 1480.85 203.6 1465.6 199.15 1444.75 201.35 1422.9 203.65 1399.6 212.8 1345 234.3 1304.9 282.6 1308.35 251.25 1330.6 215.3 1338.9 201.95 1351.55 185.05 1358.8 175.35 1373.15 156.95 1398.2 124.25 1404.3 106.5 1412.9 81.3 1395.85 62.9 1387.6 54.05 1373.05 51.5 Z"/>
</g>
</g>
</g>

<g transform="matrix( 0.113006591796875, 0, 0, 0.113006591796875, 105.8,81.5) ">
<g>
<g>
<path fill="#BE171D" stroke="none" d="
M 1298.85 197.1
Q 1303.05 187.25 1304.45 181.95 1306.3 174.85 1304.9 170.3 1303.4 165.25 1297.6 162.2 1273.5 149.5 1244.75 171.25 1219.2 190.6 1196.05 231.85 1174.1 271 1163.1 313.5 1151.7 357.75 1157.55 385.8 1128.7 367.35 1109.6 332.95 1103.5 321.95 1095.85 304.35 1086.8 283.7 1084.25 278.55 1070.2 250.45 1055.55 248.2 1049.05 247.2 1043.45 251.85 1038.05 256.4 1034.35 265.6 1026.4 285.6 1029.45 316.3 1032.85 350.95 1049.6 385.7 1086.1 461.4 1149.65 525.55 1178.35 554.55 1207.5 575.35 1236.6 596.15 1261.5 605.5 1285.8 550.8 1307.8 516.55 1334.2 475.45 1363.35 453.5 1395.7 429.05 1434.65 425.6 1476.5 421.85 1528.35 442.05 1535.05 418.75 1524.15 399.25 1513.95 381.05 1490 368.75 1466.7 356.8 1435 352.75 1402.7 348.65 1368.3 353.55 1395.3 327.75 1412.25 298.5 1419.85 285.45 1422.8 275.55 1425.85 265.5 1423.35 261.05 1420.2 255.5 1407.5 255.55 1393.85 255.65 1375.85 262.6 1355.05 270.55 1334.2 285.6 1309.95 303.1 1288.55 328.2 1275.65 296.2 1278.3 264.5 1280.2 242.15 1290.8 215.9 1291.2 214.95 1298.85 197.1 Z"/>
</g>
</g>
</g>

<g transform="matrix( 0.113006591796875, 0, 0, 0.113006591796875, 105.8,81.5) ">
<g>
<g>
<path fill="#6F242B" stroke="none" d="
M 1440.6 1373.25
Q 1437.8 1358.4 1426.2 1348.9 1414.4 1339.25 1398.75 1339.5
L 1211.35 1343.05
Q 1197.2 1342.65 1185 1350.75 1172.55 1358.95 1167.1 1372.75 1158.1 1395.65 1149.7 1420.2 1139 1451.65 1130.9 1481.3 1108.85 1562.2 1110.25 1617.4 1111.25 1659.95 1125.8 1688 1141.95 1719.15 1174.6 1731.95 1179.7 1734 1184.8 1735.4 1192.85 1737.55 1198.35 1738.5
L 1198.4 1738.4
Q 1227.75 1743.35 1253.15 1735.1 1277.05 1727.4 1296.95 1708.25 1301.6 1703.85 1306.4 1698.2 1311.05 1703.5 1315.45 1707.75 1336.1 1727.7 1360.45 1736.05 1387.1 1745.15 1416.7 1739.8 1423.7 1738.6 1430.9 1736.45 1495.25 1717.15 1502.9 1644.25 1508.65 1589.15 1481.45 1498.45 1476.35 1481.65 1469.3 1460.5 1465.4 1448.95 1457.1 1425.05 1449.3 1402.6 1446.5 1394.05 1441.8 1379.7 1440.6 1373.25
M 1363.6 1428.05
Q 1366.8 1437.55 1373.75 1457.6 1382 1481.45 1385.2 1491 1392 1511.2 1397 1527.85 1412.65 1580.05 1416.9 1609.4 1422.55 1648.3 1409.45 1652.25
L 1405.35 1653.25
Q 1398.15 1654.55 1391 1651.7 1384.45 1649.05 1378.3 1643.05 1369.85 1634.9 1363 1622.35 1356.6 1610.65 1352.4 1596.65 1350.3 1589.55 1348.8 1581.5 1345.6 1563.75 1330.6 1554.1 1315.65 1544.45 1297.65 1548.6 1283.45 1551.85 1273.5 1562.75 1263.8 1573.45 1261.8 1587.4 1259.95 1597.9 1257.75 1606 1249.95 1634.7 1237.65 1646.5 1230 1653.85 1217.35 1651.65
L 1217.25 1651.55 1212.15 1650.5 1210.55 1649.95
Q 1199.05 1645.45 1198.2 1610.85 1197.15 1568.55 1215.7 1500.35 1225 1466.4 1237.95 1430.45
L 1363.6 1428.05 Z"/>
</g>
</g>
</g>

<g transform="matrix( 0.113006591796875, 0, 0, 0.113006591796875, 105.8,81.5) ">
<g>
<g>
<path fill="#E73135" stroke="none" d="
M 1418.7 1450.8
Q 1407.5 1418.45 1405.1 1411.15 1398.9 1392.35 1397.25 1383.45
L 1208 1387.05
Q 1193.15 1424.65 1181.25 1463.4 1164.95 1516.6 1158.35 1559.3 1150.15 1612.7 1157.9 1645.55 1167.1 1684.4 1198.5 1692.95 1242.6 1705 1271.35 1673.2 1296.2 1645.75 1305.45 1591.45 1309.45 1613.7 1318.75 1634.2 1328.75 1656.15 1342.85 1671.35 1358.4 1688.1 1376.95 1694.3 1397.5 1701.15 1420.15 1694.35 1453.7 1684.25 1458.95 1641.1 1463.2 1606.25 1448.9 1548.3 1439.85 1511.7 1418.7 1450.8 Z"/>
</g>
</g>
</g>

<g transform="matrix( 0.113006591796875, 0, 0, 0.113006591796875, 105.8,81.5) ">
<g>
<g>
<path fill="#BE171D" stroke="none" d="
M 1443.2 1526.9
Q 1434.65 1496.45 1415.55 1441.65 1399.45 1395.45 1397.2 1383.45
L 1207.95 1387.05
Q 1196.25 1416.8 1186.1 1447.95 1172.65 1489.45 1164.7 1525.65 1153.3 1577.75 1170.45 1613.25 1177.95 1628.7 1190.25 1639.2 1201.85 1649.05 1216.25 1653.25 1230.2 1657.35 1244.55 1655.5 1259.05 1653.6 1271.4 1645.9 1299.1 1628.7 1305.4 1591.45 1308.35 1607.7 1317.85 1621.2 1326.8 1633.85 1340.3 1642.5 1353.35 1650.8 1368.4 1654.1 1383.55 1657.35 1397.85 1654.9 1412.85 1652.25 1424.35 1643.7 1436.75 1634.5 1443.6 1619.4 1459.45 1584.6 1443.2 1526.9 Z"/>
</g>
</g>
</g>

<g transform="matrix( 0.113006591796875, 0, 0, 0.113006591796875, 105.8,81.5) ">
<g>
<g>
<path fill="#6F242B" stroke="none" d="
M 1321.2 1087.95
Q 1310.9 1082.35 1299.25 1082.45 1287.95 1082.55 1278.05 1087.95
L 1277.75 1088.1
Q 1213.35 1123.2 1151.95 1177.5 1090.15 1232.15 1038.9 1299 1029.55 1311.25 1029.65 1326.6 1029.7 1341.7 1038.8 1353.7 1087.05 1423.2 1150.35 1476.7 1207.5 1524.85 1279.1 1561.5 1289 1566.5 1300 1566.45 1310.65 1566.35 1320.15 1561.5 1391.8 1524.8 1448.85 1476.7 1512.9 1422.75 1561.6 1352.05 1570 1339.8 1569.55 1325 1569.1 1310.5 1560.35 1299 1508.8 1231.85 1447.25 1177.5 1385.85 1123.1 1321.2 1087.95
M 1390.5 1407.7
Q 1349.15 1442.55 1299.6 1470.2 1250.05 1442.5 1208.75 1407.7 1166.25 1371.8 1131.7 1327.65 1169.65 1282.3 1211.75 1245.05 1255.1 1206.75 1299.6 1179.65 1344.2 1206.75 1387.45 1245.05 1429.5 1282.2 1467.55 1327.65 1433 1371.85 1390.5 1407.7 Z"/>
</g>
</g>
</g>

<g transform="matrix( 0.113006591796875, 0, 0, 0.113006591796875, 105.8,81.5) ">
<g>
<g>
<path fill="#F4AE2D" stroke="none" d="
M 1299.6 1521.3
Q 1366.4 1487.15 1419.7 1442.2 1479.25 1392 1524.45 1326.4 1478.15 1266.1 1423.25 1216.5 1362.85 1161.95 1299.6 1127.55 1236.4 1162 1176 1216.5 1121.1 1266.1 1074.8 1326.4 1120 1391.95 1179.55 1442.2 1232.85 1487.1 1299.6 1521.3 Z"/>
</g>
</g>
</g>

<g transform="matrix( 0.113006591796875, 0, 0, 0.113006591796875, 105.8,81.5) ">
<g>
<g>
<path fill="#FFDB34" stroke="none" d="
M 1519.75 1333.1
L 1524.45 1326.4
Q 1478.15 1266.1 1423.25 1216.5 1362.85 1161.95 1299.6 1127.55 1358.15 1184.8 1391.2 1230.45 1438.95 1296.3 1449.35 1355.85 1462.9 1352.3 1484.55 1344.5 1506.3 1336.65 1519.75 1333.1 Z"/>
</g>
</g>
</g>

<g transform="matrix( 0.113006591796875, 0, 0, 0.113006591796875, 105.8,81.5) ">
<g>
<g>
<path fill="#6F242B" stroke="none" d="
M 1534.45 1333.25
Q 1536.7 1327.85 1535.3 1322.1 1534 1316.6 1530.1 1313.75 1526.2 1310.9 1521.85 1312.2 1474.8 1323.1 1412.4 1330.5 1350.4 1337.9 1299.6 1338.7 1248.8 1337.9 1186.8 1330.5 1124.2 1323.05 1076.8 1312.1 1072.2 1311 1068.35 1314.45 1064.5 1317.9 1063.65 1323.85 1062.85 1329.3 1065.15 1334.05 1067.4 1338.75 1071.5 1340.35 1136.7 1366 1187.4 1378.15 1242.7 1391.45 1293.85 1392.05 1346.45 1392.7 1403.15 1380.1 1459.05 1367.65 1527.75 1340.35 1532.25 1338.6 1534.45 1333.25 Z"/>
</g>
</g>
</g>

<g transform="matrix( 0.113006591796875, 0, 0, 0.113006591796875, 105.8,81.5) ">
<g>
<g>
<path fill="#6F242B" stroke="none" d="
M 1417.3 1344.55
Q 1353.2 1352.4 1299.6 1353.25 1246.05 1352.4 1181.95 1344.55 1120.9 1337.1 1074.8 1326.4 1139.2 1351.75 1189.25 1363.75 1243.7 1376.85 1293.95 1377.5 1345.65 1378.1 1401.5 1365.65 1456.6 1353.35 1524.45 1326.4 1478.35 1337.1 1417.3 1344.55 Z"/>
</g>
</g>
</g>

<g transform="matrix( 0.113006591796875, 0, 0, 0.113006591796875, 105.8,81.5) ">
<g>
<g>
<path fill="#6F242B" stroke="none" d="
M 1096.95 878.95
Q 1079.35 855.5 1055.3 842.65 1030.4 829.35 1002.15 829.35 973.9 829.35 947.2 842.65 921.4 855.5 900.6 878.95 879.8 902.4 867.2 932.8 854.15 964.25 851.8 998.75 849.45 1033.2 858.25 1064.7 866.7 1095.1 884.35 1118.55 901.95 1142 926 1154.85 950.9 1168.15 979.15 1168.15 1007.4 1168.15 1034.1 1154.85 1059.9 1142 1080.7 1118.55 1101.5 1095.1 1114.1 1064.7 1127.15 1033.2 1129.5 998.75 1131.85 964.25 1123.05 932.8 1114.6 902.4 1096.95 878.95 Z"/>
</g>
</g>
</g>

<g transform="matrix( 0.113006591796875, 0, 0, 0.113006591796875, 105.8,81.5) ">
<g>
<g>
<path fill="#FFFFFF" stroke="none" d="
M 1032.65 898.75
Q 1007.75 898.75 988.7 920.25 969.6 941.7 967.55 972.1 965.5 1002.5 981.65 1024 989.3 1034.15 999.7 1039.75 1010.45 1045.5 1022.7 1045.5 1047.65 1045.5 1066.7 1024 1085.8 1002.5 1087.85 972.1 1089.9 941.7 1073.75 920.25 1066.1 910.1 1055.7 904.5 1044.9 898.75 1032.65 898.75 Z"/>
</g>
</g>
</g>

<g transform="matrix( 0.113006591796875, 0, 0, 0.113006591796875, 105.8,81.5) ">
<g>
<g>
<path fill="#6F242B" stroke="none" d="
M 1708.65 878.95
Q 1687.85 855.5 1662.05 842.65 1635.35 829.35 1607.1 829.35 1578.85 829.35 1553.95 842.65 1529.9 855.5 1512.3 878.95 1494.65 902.4 1486.2 932.8 1477.4 964.25 1479.75 998.75 1482.1 1033.2 1495.15 1064.7 1507.75 1095.1 1528.55 1118.55 1549.35 1142 1575.15 1154.85 1601.85 1168.15 1630.1 1168.15 1658.35 1168.15 1683.25 1154.85 1707.25 1142 1724.9 1118.55 1742.55 1095.1 1751 1064.7 1759.8 1033.2 1757.45 998.75 1755.1 964.25 1742.05 932.8 1729.45 902.4 1708.65 878.95 Z"/>
</g>
</g>
</g>

<g transform="matrix( 0.113006591796875, 0, 0, 0.113006591796875, 105.8,81.5) ">
<g>
<g>
<path fill="#FFFFFF" stroke="none" d="
M 1641.7 972.1
Q 1639.65 941.7 1620.55 920.25 1601.5 898.75 1576.55 898.75 1564.3 898.75 1553.55 904.5 1543.15 910.1 1535.5 920.25 1519.35 941.75 1521.4 972.1 1523.45 1002.5 1542.55 1024 1561.6 1045.5 1586.55 1045.5 1598.8 1045.5 1609.55 1039.75 1620 1034.15 1627.6 1024 1643.75 1002.5 1641.7 972.1 Z"/>
</g>
</g>
</g>

<g transform="matrix( 0.113006591796875, 0, 0, 0.113006591796875, 105.8,81.5) ">
<g>
<g>
<path fill="#CCD9EA" stroke="none" d="
M 959.1 771.9
Q 964.35 771.5 970.95 764.75 977.8 757.75 983.25 746.85 996.3 720.65 1008.95 705.15 1025.25 685.05 1051.3 668.05 1066 658.5 1068.6 649.75 1070.9 641.95 1063.25 637.55 1055.75 633.25 1043 634.65 1029 636.2 1015.35 644.2 993.95 656.8 977.45 682.7 960.95 708.6 953.6 741.1 950 757 951.9 765.05 953.55 772.25 959.1 771.9 Z"/>
</g>
</g>
</g>

<g transform="matrix( 0.113006591796875, 0, 0, 0.113006591796875, 105.8,81.5) ">
<g>
<g>
<path fill="#CCD9EA" stroke="none" d="
M 1034.65 788.1
Q 1039.7 783.65 1044.15 773.8 1050.7 759.4 1056.8 752 1064.95 742.05 1077.1 737.45 1086.05 734.05 1088 728.2 1089.75 722.9 1085.4 718.1 1081 713.25 1073.2 712.1 1064.45 710.8 1055.35 715.1 1040.8 721.9 1030.05 736.7 1019.2 751.7 1018.25 766.65 1017.6 776.8 1019.8 783.35 1021.9 789.6 1025.9 790.9 1029.95 792.25 1034.65 788.1 Z"/>
</g>
</g>
</g>

<g transform="matrix( 0.113006591796875, 0, 0, 0.113006591796875, 105.8,81.5) ">
<g>
<g>
<path fill="#6F242B" stroke="none" d="
M 1251.15 2214.55
Q 1251.15 2300.45 1277.6 2368.45 1302.6 2432.6 1350.25 2478.85 1400.6 2527.7 1472.1 2552.4 1540.1 2575.9 1622.05 2575.9 1704.05 2575.9 1772 2552.4 1843.5 2527.7 1893.9 2478.85 1941.55 2432.6 1966.55 2368.45 1993 2300.45 1993 2214.55 1993 2122 1963.15 2024.5 1933.6 1928 1882.2 1850.65 1830.45 1772.75 1766 1729.2 1696.6 1682.35 1622.05 1682.35 1544.05 1682.35 1471.8 1733.6 1404.85 1781.05 1352.55 1865.15 1305.25 1941.2 1278.35 2033.2 1251.15 2126.35 1251.15 2214.55
M 1622.05 1785.35
Q 1668.95 1785.35 1715.65 1819.35 1758.95 1850.9 1796.5 1907.4 1839.85 1972.7 1864.75 2054.15 1889.95 2136.45 1889.95 2214.55 1889.95 2278.4 1871.85 2327.4 1854.8 2373.6 1822.25 2405.2 1787.1 2439.25 1734.4 2456.5 1684.3 2472.9 1622.05 2472.9 1559.8 2472.9 1509.7 2456.5 1457 2439.25 1421.85 2405.2 1389.3 2373.6 1372.25 2327.4 1354.15 2278.35 1354.15 2214.55 1354.15 2140.15 1377.15 2061.5 1399.9 1983.75 1439.9 1919.5 1478.3 1857.8 1523.65 1822.95 1572.6 1785.35 1622.05 1785.35 Z"/>
</g>
</g>
</g>

<g transform="matrix( 0.113006591796875, 0, 0, 0.113006591796875, 105.8,81.5) ">
<g>
<g>
<path fill="#FDE7D0" stroke="none" d="
M 1746.4 1778.25
Q 1685.8 1733.85 1622.05 1733.85 1558.3 1733.85 1497.75 1778.25 1441.6 1819.4 1396.2 1892.35 1352.55 1962.5 1327.75 2047.35 1302.65 2133.2 1302.65 2214.55 1302.65 2294.05 1327.75 2355.05 1351.35 2412.4 1396.2 2451.35 1438.55 2488.1 1497.75 2506.7 1554.15 2524.4 1622.05 2524.4 1689.95 2524.4 1746.4 2506.7 1805.55 2488.1 1847.9 2451.35 1892.75 2412.4 1916.35 2355.05 1941.45 2294.05 1941.45 2214.55 1941.45 2133.2 1916.35 2047.35 1891.55 1962.5 1847.9 1892.35 1802.55 1819.4 1746.4 1778.25 Z"/>
</g>
</g>
</g>

<g transform="matrix( 0.113006591796875, 0, 0, 0.113006591796875, 105.8,81.5) ">
<g>
<g>
<path fill="#E4BA9F" stroke="none" d="
M 1336.1 2189.9
Q 1331.95 2256.6 1347.9 2311.25 1365.3 2370.7 1405.8 2412.9 1445.5 2454.25 1502.15 2474.85 1554.7 2493.9 1615.35 2493 1665.3 2492.3 1710.65 2480.7 1754.95 2469.4 1791.4 2448.65 1827.75 2427.95 1853.1 2399.6 1878.95 2370.75 1891.25 2336.45 1788.3 2371.3 1693.85 2356.05 1603.7 2341.45 1535.75 2284 1468.15 2226.85 1435.45 2138.35 1401.5 2046.5 1411.5 1937.2 1379.85 1998.25 1360.55 2061.15 1339.95 2128.4 1336.1 2189.9 Z"/>
</g>
</g>
</g>

<g transform="matrix( 0.113006591796875, 0, 0, 0.113006591796875, 105.8,81.5) ">
<g>
<g>
<path fill="#E4BA9F" stroke="none" d="
M 1765.2 2041.6
Q 1757 2011.8 1733.4 1992.25 1709.8 1972.7 1684.65 1974.8 1672.3 1975.85 1662.55 1982.4 1653.15 1988.8 1647.5 1999.45 1635.55 2021.95 1643.75 2051.75 1651.95 2081.5 1675.55 2101.1 1699.1 2120.65 1724.25 2118.55 1736.6 2117.5 1746.35 2110.95 1755.75 2104.55 1761.4 2093.9 1773.4 2071.4 1765.2 2041.6 Z"/>
</g>
</g>
</g>

<g transform="matrix( 0.113006591796875, 0, 0, 0.113006591796875, 105.8,81.5) ">
<g>
<g>
<path fill="#E4BA9F" stroke="none" d="
M 1726.75 1894.05
Q 1719.85 1907 1724.55 1924.15 1729.3 1941.3 1742.85 1952.55 1756.45 1963.8 1770.9 1962.55 1785.35 1961.35 1792.25 1948.4 1799.15 1935.45 1794.45 1918.3 1789.75 1901.2 1776.15 1889.95 1762.55 1878.7 1748.1 1879.9 1733.65 1881.1 1726.75 1894.05 Z"/>
</g>
</g>
</g>

<g transform="matrix( 0.113006591796875, 0, 0, 0.113006591796875, 105.8,81.5) ">
<g>
<g>
<path fill="#CCD9EA" stroke="none" d="
M 2056.05 2192
Q 2049.65 2187.8 2039.1 2197.4 2027.3 2208.1 2014.5 2232.75 1990.4 2272.8 1947.85 2310.9 1909.4 2345.25 1854 2379.6 1831.45 2393.6 1825.7 2406.5 1820.55 2418.1 1830.05 2425.55 1839.25 2432.75 1858.05 2432.9 1878.05 2433 1900.85 2424.7 1917.75 2418.55 1940.4 2398.75 1961.25 2380.45 1983.6 2353.65 2005.1 2327.9 2023 2300.25 2041.15 2272.15 2050.95 2249.3 2060.35 2227.3 2061.35 2211.1 2062.3 2196.1 2056.05 2192 Z"/>
</g>
</g>
</g>

<g transform="matrix( 0.113006591796875, 0, 0, 0.113006591796875, 105.8,81.5) ">
<g>
<g>
<path fill="#CCD9EA" stroke="none" d="
M 1933 2196.55
Q 1927.1 2194 1919.5 2199.6 1911.35 2205.6 1903.3 2219.75 1891.55 2240.55 1881.4 2250.85 1867.85 2264.7 1848.95 2270 1835.05 2273.9 1831.35 2282.4 1828 2290.1 1833.9 2297.9 1839.85 2305.75 1851.4 2308.55 1864.35 2311.7 1878.65 2306.5 1901.4 2298.2 1919.55 2277.4 1937.85 2256.3 1941.25 2233.95 1943.6 2218.8 1941.15 2208.65 1938.85 2199.1 1933 2196.55 Z"/>
</g>
</g>
</g>

<g transform="matrix( 0.113006591796875, 0, 0, 0.113006591796875, 105.8,81.5) ">
<g>
<g>
<path fill="#6F242B" stroke="none" d="
M 2164.45 1319.25
Q 2138.65 1330.05 2128.1 1355.85 2121.65 1371.5 2123.35 1388.3 2140.15 1549.7 2112.65 1690.15 2085.75 1827.25 2017 1942.45 1946.35 2060.7 1832.1 2155.4 1719.85 2248.45 1567.7 2316.85 1493.8 2350.05 1437.1 2387.5 1389.15 2419.15 1358.95 2449.95 1334.35 2475.05 1323.1 2497.25 1310.95 2521.15 1311.8 2543.85 1312.65 2565.9 1325.65 2584.5 1336.35 2599.7 1353.85 2608.3
L 1354.15 2608.45 1354.1 2608.55 1358.45 2610.35
Q 1368.25 2614.3 1378.95 2615 1417.95 2620.9 1479.2 2617.4 1550 2613.35 1622.6 2597.65 1660.65 2589.5 1699.35 2578.25 1697.65 2585.95 1697.1 2592.9 1693.1 2650.25 1744.1 2670.3 1760.5 2676.75 1778.55 2675.3 1794.95 2674 1825.55 2665.3 1861.6 2655.1 1900.4 2638.95 1899.05 2652.15 1902.3 2664.05 1905.75 2676.4 1914.5 2688.6 1916.55 2691.45 1918.6 2693.7
L 1919.45 2694.8
Q 1945.8 2724.5 1991.95 2720.15 2032.25 2716.35 2086.35 2686.85
L 2092.55 2683.4
Q 2098.5 2708.3 2116.1 2719.8 2134 2731.5 2164.7 2729.9 2253.7 2725.1 2346.9 2618 2380.45 2579.4 2416.9 2525.15 2447.95 2478.95 2482.1 2419.85
L 2484.3 2415.65
Q 2496.45 2394.1 2506.55 2369.4 2527 2319.5 2540.05 2255.75 2552.9 2192.85 2557.55 2121.6 2567.25 1973.25 2541.05 1826.15 2512.05 1663.15 2445.55 1540.9 2371.6 1404.9 2262.1 1341.7
L 2257.95 1339.5
Q 2237.2 1327.8 2216 1319.1 2190.2 1308.5 2164.45 1319.25
M 2355.05 1663.3
Q 2389.65 1746.55 2407.95 1849.4 2431.1 1979.25 2423.75 2107.25 2416.5 2233.75 2381.9 2318.15 2374.75 2335.6 2367.2 2349.2
L 2365.35 2352.2
Q 2321.05 2429 2282.3 2482.1 2278.45 2474.95 2273.05 2468.8 2254.45 2447.9 2226.5 2446.3 2198.6 2444.7 2177.7 2463.25 2174.3 2466.3 2163.05 2474.8 2150.6 2484.2 2134.3 2495.9 2117.7 2507.7 2105.9 2515.8
L 2114.05 2498.65
Q 2123.65 2480.5 2121.5 2460 2119.3 2439.05 2105.45 2423 2087.2 2401.9 2059.35 2399.9 2031.45 2397.9 2010.35 2416.15 1962.95 2457.05 1903 2488.95
L 1905.25 2485.7 1905.15 2485.6
Q 1915.7 2470.55 1917.2 2452.15 1918.65 2433.25 1910 2416.25 1897.3 2391.4 1870.8 2382.85 1844.25 2374.25 1819.45 2386.95 1766.5 2414.15 1705.4 2434.9 1651.65 2453.15 1594.1 2465.6 1575.65 2469.6 1555 2473.5 1585.8 2456.5 1622.6 2439.95 1794 2362.9 1921.5 2256.45 2051.15 2148.15 2132.65 2011.65 2197 1903.9 2230.05 1780.85 2263.7 1655.45 2264.55 1515.5 2317.5 1572.95 2355.05 1663.3
M 2022.15 2607.45
Q 2018.25 2601.8 2019.05 2600.95 2019.75 2600.3 2024.2 2602.7 2025.8 2607.95 2025.6 2609.15 2025.3 2610.65 2022.15 2607.45 Z"/>
</g>
</g>
</g>

<g transform="matrix( 0.113006591796875, 0, 0, 0.113006591796875, 105.8,81.5) ">
<g>
<g>
<path fill="#FFFFFF" stroke="none" d="
M 2380 1561.45
Q 2303.65 1427.85 2190.4 1381.45 2226.85 1731 2068.4 1987.65 1992.05 2111.3 1871.8 2210.1 1753.55 2307.2 1595.15 2378.4 1532.35 2406.65 1483.75 2437.5 1442.1 2463.9 1414.7 2489.7 1391.2 2511.8 1382.95 2528.6 1375.4 2543.95 1383.4 2547.8 1396.15 2554 1440.7 2553.1 1490.4 2552.15 1551.9 2542.3 1624.75 2530.6 1695.5 2508.95 1778.75 2483.55 1850.05 2446.9 1795.65 2524.3 1775.35 2566.2 1754.4 2609.45 1773.25 2607.95 1787.25 2606.85 1814.95 2598.5 1847.8 2588.6 1883.8 2572.95 1981 2530.6 2054.45 2467.1 2037.85 2502.5 2017.8 2541.05 2006.7 2562.45 1988.95 2595.7 1975.85 2620.7 1971.55 2631.55 1966.2 2645.15 1969.2 2649.25 1978.1 2661.7 2016.6 2645.9 2048.2 2633 2097.45 2602.1 2135.7 2578.15 2177.5 2548 2211.75 2523.3 2222.6 2513.7 2211.85 2544.95 2196.6 2577.25 2187.85 2595.8 2172.7 2624.2 2160.75 2646.65 2158.4 2653.1 2154.9 2662.9 2161.25 2662.55 2221.4 2659.3 2295.95 2573.65 2353.85 2507.05 2423.7 2386.05 2448.15 2343.75 2464.6 2282.7 2480.75 2223.05 2487.75 2151.15 2494.75 2079.2 2491.95 2002.35 2489.1 1923.55 2476.15 1847.15 2447.9 1680.25 2380 1561.45 Z"/>
</g>
</g>
</g>

<g transform="matrix( 0.113006591796875, 0, 0, 0.113006591796875, 105.8,81.5) ">
<g>
<g>
<path fill="#CCD9EA" stroke="none" d="
M 1952.35 2374.95
Q 1960.7 2350.45 1949.9 2340.35 1931.95 2323.55 1875.25 2342.85 1851.05 2351.1 1815.2 2367.25 1789.65 2378.8 1743.2 2401.35 1678.85 2432.55 1661.65 2440.75 1612.55 2464.05 1572.9 2481.2 1467.55 2526.65 1383.4 2547.8 1396.1 2554 1440.7 2553.1 1490.35 2552.15 1551.85 2542.3 1624.75 2530.6 1695.45 2508.95 1778.75 2483.55 1850.05 2446.9 1795.65 2524.3 1775.35 2566.2 1754.4 2609.45 1773.25 2607.95 1787.25 2606.85 1814.95 2598.5 1847.85 2588.6 1883.8 2572.95 1981 2530.55 2054.5 2467.1 2037.9 2502.45 2017.85 2541.05 2006.7 2562.45 1989 2595.7 1975.85 2620.65 1971.55 2631.55 1966.2 2645.15 1969.2 2649.25 1978.1 2661.7 2016.6 2645.9 2048.2 2633 2097.45 2602.1 2135.7 2578.15 2177.5 2548 2211.75 2523.35 2222.6 2513.7 2211.85 2544.95 2196.6 2577.25 2187.85 2595.8 2172.7 2624.2 2160.75 2646.65 2158.4 2653.1 2154.9 2662.9 2161.25 2662.55 2221.2 2659.3 2294.1 2579.05 2357.15 2509.6 2417.45 2397.8 2368.05 2444 2313.45 2506.8 2288.55 2535.45 2283.6 2540.8 2271.45 2553.8 2266.55 2555.25 2258 2557.75 2259.8 2541.45 2260.85 2532.35 2268.55 2501.3 2276.4 2469.65 2278.45 2453.45 2281.7 2427.75 2275.25 2416.55 2271.2 2409.5 2248.4 2424.1 2236.6 2431.65 2199.1 2460.2 2164 2486.9 2146.8 2497.15 2120.45 2512.8 2111.1 2507.1 2105.85 2503.95 2115.85 2479.15 2120.5 2467.6 2140.9 2424.4 2159.3 2385.45 2166.55 2365.45 2177.35 2335.45 2173.05 2324.6 2166.3 2307.55 2127.45 2332.2 2103.9 2347.1 2042.95 2396.7 1980.1 2447.75 1952.75 2465.7 1906.9 2495.9 1890.15 2487.05 1886.7 2485.25 1899.2 2465.8 1917.55 2438.7 1927.7 2422.6 1946.05 2393.45 1952.35 2374.95 Z"/>
</g>
</g>
</g>

<g transform="matrix( 0.113006591796875, 0, 0, 0.113006591796875, 105.8,81.5) ">
<g>
<g>
<path fill="#CCD9EA" stroke="none" d="
M 2412.5 2109
Q 2403.25 2097.2 2393.55 2094.45 2383.6 2091.7 2379 2100 2373.85 2109.3 2377.85 2129.3 2384.95 2164.85 2381.55 2194.85 2378.9 2218.05 2367.75 2250.25 2363.1 2263.7 2362.85 2275.1 2362.6 2286.15 2366.6 2290.8 2370.8 2295.7 2378.15 2291.25 2386.4 2286.25 2396.7 2270.3 2417.8 2237.6 2425.9 2202.8 2434.05 2167.85 2427.05 2139.8 2422.6 2121.85 2412.5 2109 Z"/>
</g>
</g>
</g>

<g transform="matrix( 0.113006591796875, 0, 0, 0.113006591796875, 105.8,81.5) ">
<g>
<g>
<path fill="#CCD9EA" stroke="none" d="
M 2308.35 2141.75
Q 2300.8 2142 2297.85 2147.8 2294.55 2154.2 2299 2164.4 2305.1 2178.3 2303.45 2193.2 2302.25 2204.3 2295.6 2221.55 2291.05 2233.25 2291.45 2241.1 2291.8 2248.4 2296.25 2250.65 2300.6 2252.9 2307.5 2249.6 2314.75 2246.1 2322.7 2237.3 2334.4 2224.3 2338 2203.05 2341.6 2182 2335.4 2164.3 2331.5 2153.2 2323.3 2147 2316 2141.45 2308.35 2141.75 Z"/>
</g>
</g>
</g>
</g>
</svg>
