
<svg xmlns="http://www.w3.org/2000/svg" version="1.1" xmlns:xlink="http://www.w3.org/1999/xlink" preserveAspectRatio="none" x="0px" y="0px" width="506px" height="506px" viewBox="0 0 506 506">
<defs/>

<g id="cartoon_cars_illustration_pack">
<g transform="matrix( 0.4799041748046875, 0, 0, 0.4799041748046875, 83.4,88.05) ">
<g>
<g>
<path fill="#35130F" stroke="none" d="
M 279.3 67.45
Q 273.1 6.85 257.9 1.4 248.6 -1.95 220.6 2.2 191.9 6.5 163.55 15.9 131.15 26.6 114.25 39.45 94.25 54.65 100.15 70.1 105.95 85.25 123.45 91.25 136.95 95.85 159.2 95.3 160.75 95.25 194.5 92.8 212.05 91.55 216.35 94.35 218.95 96.05 225.8 117.75 232.75 139.55 236.9 142.6 240.35 145.1 247.95 144.25 254.7 143.5 262.8 140.4 270.6 137.45 276.15 133.75 281.95 129.85 282.4 126.95 282.35 97.75 279.3 67.45 Z"/>
</g>
</g>
</g>

<g transform="matrix( 0.4799041748046875, 0, 0, 0.4799041748046875, 83.4,88.05) ">
<g>
<g>
<path fill="#CDB4A4" stroke="none" d="
M 504.75 512.15
Q 493.55 511.65 486.45 514.1 478.65 516.7 480.1 521.55 482.75 530.55 489.25 550.25 495.7 569.7 498.4 578.95 507.65 610.95 502.7 620.85 498.75 628.75 487.55 644 479.75 656 485.25 658.65 491.75 661.8 512.05 661.45 531.6 661.1 537.6 658.35 544.6 655.1 549.1 643.35 554.6 628.9 551.9 609.5 546.5 570.2 545.6 564.5 541.45 538.85 536.85 525.65 534.75 519.65 524.9 515.95 516.2 512.65 504.75 512.15 Z"/>
</g>
</g>
</g>

<g transform="matrix( 0.4799041748046875, 0, 0, 0.4799041748046875, 83.4,88.05) ">
<g>
<g>
<path fill="#CDB4A4" stroke="none" d="
M 300.95 525.65
Q 298.85 519.65 289 515.95 280.3 512.65 268.85 512.15 257.7 511.65 250.55 514.1 242.75 516.7 244.2 521.55 246.85 530.55 253.35 550.25 259.8 569.7 262.5 578.95 271.75 610.95 266.8 620.85 262.85 628.75 251.65 644 243.85 656 249.35 658.65 255.85 661.8 276.15 661.45 295.7 661.1 301.7 658.35 308.7 655.1 313.2 643.35 318.7 628.9 316 609.5 310.6 570.2 309.7 564.5 305.55 538.85 300.95 525.65 Z"/>
</g>
</g>
</g>

<g transform="matrix( 0.4798583984375, 0, 0, 0.4798583984375, 83.4,88.05) ">
<g>
<g>
<path fill="#CDB4A4" stroke="none" d="
M 747.55 393.35
Q 735.65 380.15 713.45 389.35 697.1 396.15 670.45 417.9 641.35 442.85 628.85 452.4 607.75 468.55 599 466.35 599.2 472.65 601.1 480 602.7 486.4 604.35 489.45 646.3 497.2 682.05 489.85 714.1 483.25 735.1 466.15 754.9 450.05 758.55 430.1 762.3 409.75 747.55 393.35 Z"/>
</g>
</g>
</g>

<g transform="matrix( 0.4798583984375, 0, 0, 0.4798583984375, 83.4,88.05) ">
<g>
<g>
<path fill="#73310B" stroke="none" d="
M 747.55 393.35
Q 735.25 379.65 711.7 390.1 694.95 397.55 666.7 421 696.8 447 715.95 478.35 747 462.85 756.3 438.2 760.7 426.45 758.6 415.05 756.45 403.2 747.55 393.35 Z"/>
</g>
</g>
</g>

<g transform="matrix( 0.4799041748046875, 0, 0, 0.4799041748046875, 83.4,88.05) ">
<g>
<g>
<path fill="#ECD9CC" stroke="none" d="
M 391.75 149.4
Q 375.7 119.95 345.1 105.5 316.8 92.1 283 94.5 249.7 96.85 221.95 113.55 192.7 131.2 178.7 159.8 169.4 178.75 157.85 188.35 147.55 196.95 134 199.2 123.3 201 106.8 199.1 86.85 196.15 75.85 194.8 70.15 206.1 53.35 245.5 38.05 281.45 34.1 288.1 73.65 335.3 128.1 360.55 142.45 367.2 166.3 375.75 186.3 382.9 192.4 386.55 212.85 398.7 225.35 436.65 234.9 465.7 237.45 500.1 239.95 534 248.55 552.3 258.85 574.15 282.25 585.8 307 598.15 352.8 602.4 398.15 606.65 474.5 603.9 579 600.15 609.7 550.05 621.65 530.55 621.35 505.3 621.1 484.6 612.85 463 600.95 431.7 562.45 421.6 534.85 414.4 484.2 417.15 457 419 444.15 419.85 421.5 421.3 408.55 421 372.8 420.15 365.85 404.5 363.15 398.45 365.2 388.5 366.9 380.3 372.55 366.9 389.2 331.15 397.45 308.9 412.3 269.05 413.05 234.95 414 190.3 391.75 149.4 Z"/>
</g>
</g>
</g>

<g transform="matrix( 0.4799041748046875, 0, 0, 0.4799041748046875, 83.4,88.05) ">
<g>
<g>
<path fill="#EA4E2D" stroke="none" d="
M 226.35 305.5
Q 217 311.35 217 319.55 217 327.75 226.35 333.55 235.7 339.35 248.95 339.35 262.2 339.35 271.55 333.55 280.9 327.75 280.9 319.55 280.9 311.35 271.55 305.5 262.2 299.7 248.95 299.7 235.7 299.7 226.35 305.5 Z"/>
</g>
</g>
</g>

<g transform="matrix( 0.4798583984375, 0, 0, 0.4798583984375, 83.4,88.05) ">
<g>
<g>
<path fill="#FFFFFF" stroke="none" d="
M 309.75 171.95
Q 290.35 152.55 262.9 152.55 235.5 152.55 216.1 171.95 196.7 191.35 196.7 218.75 196.7 246.15 216.1 265.55 235.5 284.95 262.9 284.95 290.35 284.95 309.75 265.55 329.15 246.15 329.15 218.75 329.15 191.35 309.75 171.95 Z"/>
</g>
</g>
</g>

<g transform="matrix( 0.4798583984375, 0, 0, 0.4798583984375, 83.4,88.05) ">
<g>
<g>
<path fill="#35130F" stroke="none" d="
M 299.4 187.3
Q 287.05 174.95 269.6 174.95 252.15 174.95 239.85 187.3 227.5 199.65 227.5 217.1 227.5 234.55 239.85 246.85 252.15 259.2 269.6 259.2 287.05 259.2 299.4 246.85 311.75 234.55 311.75 217.1 311.75 199.65 299.4 187.3 Z"/>
</g>
</g>
</g>

<g transform="matrix( 0.4798583984375, 0, 0, 0.4798583984375, 83.4,88.05) ">
<g>
<g>
<path fill="#FFFFFF" stroke="none" d="
M 267.4 195.05
Q 264.1 191.7 259.4 191.7 254.7 191.7 251.4 195.05 248.05 198.35 248.05 203.05 248.05 207.75 251.4 211.05 254.7 214.35 259.4 214.35 264.1 214.35 267.4 211.05 270.7 207.75 270.7 203.05 270.7 198.35 267.4 195.05 Z"/>
</g>
</g>
</g>

<g transform="matrix( 0.4799041748046875, 0, 0, 0.4799041748046875, 83.4,88.05) ">
<g>
<g>
<path fill="#35130F" stroke="none" d="
M 86.85 196.25
Q 54.95 191 41.8 190.8 13.8 190.4 5.35 203.25 -8.1 223.8 11.65 258 21.55 275.1 34.1 288.1 42.6 279.9 53.45 264.3 75.15 233.15 86.85 196.25 Z"/>
</g>
</g>
</g>

<g transform="matrix( 0.4799041748046875, 0, 0, 0.4799041748046875, 83.4,88.05) ">
<g>
<g>
<path fill="#35130F" stroke="none" d="
M 149.45 369.55
L 160.4 373.65
Q 173.45 362.25 180.9 348.15 190.65 329.8 190.1 308.3 190.05 306.2 188.5 304.75 186.95 303.25 184.85 303.3 182.7 303.4 181.25 304.9 179.8 306.55 179.85 308.55 180.3 327.75 171.6 344 163.8 358.55 149.45 369.55 Z"/>
</g>
</g>
</g>

<g transform="matrix( 0.4798583984375, 0, 0, 0.4798583984375, 83.4,88.05) ">
<g>
<g>
<path fill="#FFC345" stroke="none" d="
M 379.25 377.35
Q 378.3 375.15 376 374.25 373.75 373.4 371.5 374.35 340.2 388.15 280.25 414.9 227.4 438.55 217.8 442.7 215.65 443.65 214.75 445.8 213.92890625 447.7615234375 214.5 449.75
L 225.85 480.35
Q 226.7 482.7 229 483.7 231.35 484.7 233.65 483.7 259.45 472.7 389.25 414.55 391.45 413.6 392.35 411.3 393.25 409.05 392.25 406.85
L 379.25 377.35 Z"/>
</g>
</g>
</g>

<g transform="matrix( 0.4798126220703125, 0, 0, 0.4798126220703125, 83.4,88.05) ">
<g>
<g>
<path fill="#E7321D" stroke="none" d="
M 252.65 456
Q 252.75 451.15 249.35 447.65 246 444.2 241.1 444.1 236.25 444.05 232.8 447.4 229.3 450.8 229.25 455.65 229.2 460.5 232.55 464 235.9 467.45 240.75 467.5 245.6 467.6 249.1 464.2 252.6 460.85 252.65 456 Z"/>
</g>
</g>
</g>

<g transform="matrix( 0.4798126220703125, 0, 0, 0.4798126220703125, 83.4,88.05) ">
<g>
<g>
<path fill="#E7321D" stroke="none" d="
M 293.9 439
Q 294 434.15 290.6 430.65 287.2 427.2 282.35 427.1 277.5 427.05 274.05 430.4 270.6 433.8 270.5 438.65 270.45 443.55 273.8 447 277.2 450.5 282.05 450.55 286.9 450.65 290.35 447.25 293.85 443.85 293.9 439 Z"/>
</g>
</g>
</g>

<g transform="matrix( 0.4798126220703125, 0, 0, 0.4798126220703125, 83.4,88.05) ">
<g>
<g>
<path fill="#E7321D" stroke="none" d="
M 317.65 411.15
Q 314.2 414.55 314.1 419.4 314.05 424.25 317.4 427.7 320.8 431.2 325.65 431.25 330.55 431.35 334 427.95 337.5 424.6 337.55 419.7 337.65 414.85 334.25 411.4 330.85 407.95 326 407.85 321.15 407.8 317.65 411.15 Z"/>
</g>
</g>
</g>

<g transform="matrix( 0.4798126220703125, 0, 0, 0.4798126220703125, 83.4,88.05) ">
<g>
<g>
<path fill="#E7321D" stroke="none" d="
M 374.1 394.05
Q 370.75 390.6 365.85 390.5 361 390.45 357.5 393.8 354.05 397.2 353.95 402.05 353.9 406.9 357.3 410.4 360.7 413.85 365.5 413.9 370.35 414 373.85 410.6 377.35 407.25 377.4 402.4 377.5 397.55 374.1 394.05 Z"/>
</g>
</g>
</g>

<g transform="matrix( 0.4799041748046875, 0, 0, 0.4799041748046875, 83.4,88.05) ">
<g>
<g>
<path fill="#ECD9CC" stroke="none" d="
M 319.35 538.2
Q 308.2 537.7 301.05 540.15 293.3 542.75 294.7 547.6 297.3 556.55 303.85 576.3 310.3 595.65 313 605 322.3 637 317.35 646.85 313.4 654.75 302.2 670.05 294.4 682.05 299.85 684.7 306.4 687.85 326.65 687.5 346.25 687.15 352.25 684.4 359.25 681.15 363.7 669.4 369.25 654.95 366.55 635.55 360.9 594.95 360.2 590.55 356.05 564.9 351.45 551.7 349.35 545.7 339.5 542 330.8 538.7 319.35 538.2 Z"/>
</g>
</g>
</g>

<g transform="matrix( 0.4799041748046875, 0, 0, 0.4799041748046875, 83.4,88.05) ">
<g>
<g>
<path fill="#ECD9CC" stroke="none" d="
M 555.25 538.2
Q 544.1 537.7 536.95 540.15 529.2 542.75 530.6 547.6 533.2 556.55 539.75 576.3 546.2 595.65 548.9 605 558.2 637 553.25 646.85 549.3 654.75 538.1 670.05 530.3 682.05 535.75 684.7 542.3 687.85 562.55 687.5 582.15 687.15 588.15 684.4 595.15 681.15 599.6 669.4 605.15 654.95 602.45 635.55 596.8 594.95 596.1 590.55 591.95 564.9 587.35 551.7 585.25 545.7 575.4 542 566.7 538.7 555.25 538.2 Z"/>
</g>
</g>
</g>

<g transform="matrix( 0.4799041748046875, 0, 0, 0.4799041748046875, 83.4,88.05) ">
<g>
<g>
<path fill="#35130F" stroke="none" d="
M 529.5 172.5
Q 541.5 161.15 530.1 138.8 520.4 119.8 495.85 96.15 474.4 75.4 450.35 59.1 426.95 43.2 417.1 42.2 401.05 40.5 369.2 92.45 353.3 118.4 340.6 144.7 339.75 147.55 343.3 153.6 346.7 159.3 352.4 165.35 366.4 180.1 374.85 178.55 380.2 177.55 393.8 163.5 407.95 148.85 410.35 147.9 411.95 147.25 426.75 155.25 447.25 166.3 459.35 171.45 508.4 192.35 529.5 172.5 Z"/>
</g>
</g>
</g>
</g>
</svg>
