
<svg xmlns="http://www.w3.org/2000/svg" version="1.1" xmlns:xlink="http://www.w3.org/1999/xlink" preserveAspectRatio="none" x="0px" y="0px" width="506px" height="506px" viewBox="0 0 506 506">
<defs/>

<g id="cartoon_cars_illustration_pack">
<g transform="matrix( 0.1950225830078125, 0.0776519775390625, -0.0776519775390625, 0.1950225830078125, -84.4,-524) ">
<g>
<g>
<path fill="#FEE9CE" stroke="none" d="
M 3548.05 2708.8
Q 3548.05 2711.5 3550.65 2711.5 3553.3 2711.5 3553.3 2708.8 3553.3 2706.05 3550.65 2706.05 3548.05 2706.05 3548.05 2708.8 Z"/>
</g>
</g>
</g>

<g transform="matrix( 0.1950225830078125, 0.0776519775390625, -0.0776519775390625, 0.1950225830078125, -84.4,-524) ">
<g>
<g>
<path fill="#3E5F8B" stroke="none" d="
M 3006.75 2287.45
Q 2890.85 2228.85 2772.6 2229.7 2662.3 2230.45 2564.95 2282.3 2470.95 2332.35 2406.4 2420.25 2341.15 2509.1 2319.5 2618.45 2291.55 2759.7 2315.4 2922.7 2334.45 3053.1 2385.65 3191.4 2422.2 3290.2 2471.1 3383.05 2495.6 3429.5 2512.75 3456.15
L 3494.3 3076.85
Q 3486.25 3038.85 3468.55 2979 3433.1 2859.3 3384.95 2750.15 3317.5 2597.3 3234.15 2487.3 3129.95 2349.75 3006.75 2287.45 Z"/>
</g>
</g>
</g>

<g transform="matrix( 0.194976806640625, 0.0776214599609375, -0.0776214599609375, 0.194976806640625, -84.4,-524) ">
<g>
<g>
<path fill="#FEE9CE" stroke="none" d="
M 2523 2881.95
Q 2517 2879.7 2511.05 2882.05 2497 2887.55 2491.25 2913 2484.25 2943.85 2492.7 2994.65 2493.4 2999.1 2497.8 3000.05 2502.25 3001 2504.7 2997.25 2516.15 2980.05 2524.35 2964.3 2535.9 2942.15 2538.9 2926.5 2543.15 2904.35 2533.25 2890.3 2528.9 2884.2 2523 2881.95 Z"/>
</g>
</g>
</g>

<g transform="matrix( 0.194976806640625, 0.0776214599609375, -0.0776214599609375, 0.194976806640625, -84.4,-524) ">
<g>
<g>
<path fill="#FEE9CE" stroke="none" d="
M 2484.6 2969.7
Q 2480.05 2918.4 2465.55 2890.35 2453.6 2867.1 2438.6 2865.3 2432.2 2864.55 2427 2868.25 2421.85 2871.9 2419.2 2878.9 2413.1 2894.95 2422.75 2915.35 2429.6 2929.75 2446.3 2948.3 2458.2 2961.55 2473.6 2975.25 2476.95 2978.25 2480.95 2976.25 2485 2974.2 2484.6 2969.7 Z"/>
</g>
</g>
</g>

<g transform="matrix( 0.194976806640625, 0.0776214599609375, -0.0776214599609375, 0.194976806640625, -84.4,-524) ">
<g>
<g>
<path fill="#FEE9CE" stroke="none" d="
M 2532 2985.25
Q 2525.85 2983.4 2520.05 2986.15 2506.45 2992.65 2502.5 3018.45 2497.75 3049.7 2509.75 3099.8 2510.8 3104.2 2515.25 3104.8 2519.75 3105.45 2521.95 3101.5 2532.2 3083.55 2539.2 3067.3 2549.15 3044.35 2551 3028.55 2553.65 3006.15 2542.8 2992.85 2538.05 2987.05 2532 2985.25 Z"/>
</g>
</g>
</g>

<g transform="matrix( 0.194976806640625, 0.0776214599609375, -0.0776214599609375, 0.194976806640625, -84.4,-524) ">
<g>
<g>
<path fill="#FEE9CE" stroke="none" d="
M 2446.6 2974.65
Q 2440.2 2974.35 2435.25 2978.4 2430.35 2982.4 2428.25 2989.55 2423.3 3006 2434.4 3025.65 2442.2 3039.5 2460.25 3056.85 2472.95 3069.1 2489.35 3081.8 2492.9 3084.55 2496.75 3082.25 2500.6 3079.95 2499.9 3075.5 2491.7 3024.65 2475.25 2997.7 2461.7 2975.35 2446.6 2974.65 Z"/>
</g>
</g>
</g>

<g transform="matrix( 0.194976806640625, 0.0776214599609375, -0.0776214599609375, 0.194976806640625, -84.4,-524) ">
<g>
<g>
<path fill="#FEE9CE" stroke="none" d="
M 2550.95 3089.4
Q 2544.75 3087.7 2539 3090.6 2525.55 3097.4 2522.25 3123.3 2518.25 3154.65 2531.5 3204.4 2532.65 3208.8 2537.15 3209.3 2541.6 3209.85 2543.7 3205.85 2553.5 3187.6 2560.15 3171.2 2569.5 3148.05 2571 3132.2 2573.1 3109.75 2561.9 3096.7 2557 3091.05 2550.95 3089.4 Z"/>
</g>
</g>
</g>

<g transform="matrix( 0.194976806640625, 0.0776214599609375, -0.0776214599609375, 0.194976806640625, -84.4,-524) ">
<g>
<g>
<path fill="#FEE9CE" stroke="none" d="
M 2465.25 3080.85
Q 2458.85 3080.7 2454 3084.9 2449.2 3089.05 2447.25 3096.25 2442.7 3112.85 2454.3 3132.2 2462.5 3145.85 2480.9 3162.75 2493.95 3174.7 2510.6 3186.95 2514.25 3189.6 2518.05 3187.2 2521.9 3184.85 2521.05 3180.4 2511.6 3129.75 2494.5 3103.2 2480.35 3081.2 2465.25 3080.85 Z"/>
</g>
</g>
</g>

<g transform="matrix( 0.194976806640625, 0.0776214599609375, -0.0776214599609375, 0.194976806640625, -84.4,-524) ">
<g>
<g>
<path fill="#FEE9CE" stroke="none" d="
M 2578.3 3191.35
Q 2572.05 3189.7 2566.35 3192.65 2552.95 3199.55 2549.85 3225.5 2546.05 3256.85 2559.65 3306.55 2560.8 3310.9 2565.3 3311.4 2569.75 3311.9 2571.85 3307.9 2581.5 3289.7 2588.05 3273.15 2597.25 3249.95 2598.65 3234.05 2600.6 3211.55 2589.3 3198.65 2584.35 3193 2578.3 3191.35 Z"/>
</g>
</g>
</g>

<g transform="matrix( 0.194976806640625, 0.0776214599609375, -0.0776214599609375, 0.194976806640625, -84.4,-524) ">
<g>
<g>
<path fill="#FEE9CE" stroke="none" d="
M 2492.6 3183.45
Q 2486.15 3183.35 2481.35 3187.55 2476.6 3191.75 2474.65 3198.95 2470.25 3215.55 2481.95 3234.85 2490.25 3248.45 2508.75 3265.2 2522 3277.15 2538.65 3289.2 2542.3 3291.85 2546.1 3289.45 2549.9 3287.05 2549.05 3282.6 2539.25 3232.05 2521.95 3205.6 2507.65 3183.7 2492.6 3183.45 Z"/>
</g>
</g>
</g>

<g transform="matrix( 0.194976806640625, 0.0776214599609375, -0.0776214599609375, 0.194976806640625, -84.4,-524) ">
<g>
<g>
<path fill="#FEE9CE" stroke="none" d="
M 2524.75 2822.15
Q 2529 2800 2519.1 2785.95 2514.75 2779.85 2508.85 2777.6 2502.85 2775.35 2496.9 2777.7 2482.85 2783.2 2477.05 2808.65 2470.05 2839.5 2478.5 2890.3 2479.25 2894.75 2483.65 2895.7 2488.1 2896.65 2490.55 2892.9 2502 2875.7 2510.2 2859.95 2521.75 2837.8 2524.75 2822.15 Z"/>
</g>
</g>
</g>

<g transform="matrix( 0.194976806640625, 0.0776214599609375, -0.0776214599609375, 0.194976806640625, -84.4,-524) ">
<g>
<g>
<path fill="#FEE9CE" stroke="none" d="
M 2424.45 2760.95
Q 2418.05 2760.2 2412.85 2763.9 2407.7 2767.55 2405.05 2774.55 2398.95 2790.6 2408.6 2811 2415.4 2825.35 2432.15 2843.95 2444 2857.1 2459.4 2870.9 2462.75 2873.9 2466.8 2871.9 2470.85 2869.85 2470.45 2865.4 2465.9 2814.1 2451.4 2786 2439.45 2762.75 2424.45 2760.95 Z"/>
</g>
</g>
</g>

<g transform="matrix( 0.194976806640625, 0.0776214599609375, -0.0776214599609375, 0.194976806640625, -84.4,-524) ">
<g>
<g>
<path fill="#FEE9CE" stroke="none" d="
M 2517.3 2719.5
Q 2524.1 2698 2515.85 2682.9 2512.3 2676.35 2506.7 2673.45 2501 2670.5 2494.75 2672.1 2480.2 2675.95 2471.5 2700.6 2461 2730.4 2463.5 2781.85 2463.75 2786.35 2468 2787.8 2472.3 2789.25 2475.2 2785.8 2488.6 2769.95 2498.5 2755.35 2512.5 2734.65 2517.3 2719.5 Z"/>
</g>
</g>
</g>

<g transform="matrix( 0.194976806640625, 0.0776214599609375, -0.0776214599609375, 0.194976806640625, -84.4,-524) ">
<g>
<g>
<path fill="#FEE9CE" stroke="none" d="
M 2424.75 2647.15
Q 2418.5 2645.65 2412.9 2648.7 2407.35 2651.75 2403.9 2658.35 2396 2673.6 2403.25 2695 2408.4 2710.1 2422.85 2730.45 2433.15 2744.95 2446.8 2760.35 2449.8 2763.75 2454 2762.2 2458.25 2760.65 2458.35 2756.15 2459.75 2704.65 2448.65 2675.1 2439.4 2650.65 2424.75 2647.15 Z"/>
</g>
</g>
</g>

<g transform="matrix( 0.194976806640625, 0.0776214599609375, -0.0776214599609375, 0.194976806640625, -84.4,-524) ">
<g>
<g>
<path fill="#FEE9CE" stroke="none" d="
M 2518.55 2572.7
Q 2513.3 2569 2506.9 2569.8 2491.95 2571.6 2480 2594.85 2465.6 2622.95 2461.1 2674.25 2460.7 2678.75 2464.7 2680.75 2468.75 2682.8 2472.1 2679.75 2487.55 2665.9 2499.35 2652.75 2516 2634.15 2522.8 2619.8 2532.45 2599.4 2526.35 2583.35 2523.7 2576.35 2518.55 2572.7 Z"/>
</g>
</g>
</g>

<g transform="matrix( 0.194976806640625, 0.0776214599609375, -0.0776214599609375, 0.194976806640625, -84.4,-524) ">
<g>
<g>
<path fill="#FEE9CE" stroke="none" d="
M 2460.8 2566.45
Q 2454.95 2541 2440.9 2535.55 2434.9 2533.2 2428.9 2535.5 2423 2537.75 2418.7 2543.85 2408.8 2557.9 2413.1 2580.05 2416.15 2595.7 2427.7 2617.85 2435.9 2633.55 2447.4 2650.7 2449.9 2654.45 2454.3 2653.5 2458.7 2652.55 2459.45 2648.1 2467.8 2597.25 2460.8 2566.45 Z"/>
</g>
</g>
</g>

<g transform="matrix( 0.194976806640625, 0.0776214599609375, -0.0776214599609375, 0.194976806640625, -84.4,-524) ">
<g>
<g>
<path fill="#FEE9CE" stroke="none" d="
M 2534.7 2467.6
Q 2529.6 2463.7 2523.2 2464.25 2508.15 2465.5 2495.35 2488.3 2479.9 2515.85 2473.55 2566.95 2473 2571.4 2476.95 2573.6 2480.85 2575.75 2484.35 2572.85 2500.25 2559.6 2512.55 2546.9 2529.9 2528.95 2537.25 2514.8 2547.65 2494.75 2542.1 2478.5 2539.7 2471.4 2534.7 2467.6 Z"/>
</g>
</g>
</g>

<g transform="matrix( 0.194976806640625, 0.0776214599609375, -0.0776214599609375, 0.194976806640625, -84.4,-524) ">
<g>
<g>
<path fill="#FEE9CE" stroke="none" d="
M 2458.5 2427.6
Q 2452.6 2425.05 2446.5 2427.1 2440.55 2429.15 2436 2435.1 2425.6 2448.75 2429.05 2471.05 2431.5 2486.75 2442.3 2509.35 2449.85 2525.2 2460.75 2542.95 2463.1 2546.8 2467.55 2546 2471.95 2545.2 2472.85 2540.75 2483.1 2490.25 2477.2 2459.25 2472.35 2433.55 2458.5 2427.6 Z"/>
</g>
</g>
</g>

<g transform="matrix( 0.194976806640625, 0.0776214599609375, -0.0776214599609375, 0.194976806640625, -84.4,-524) ">
<g>
<g>
<path fill="#FEE9CE" stroke="none" d="
M 2559.25 2368.3
Q 2557 2361.2 2552.05 2357.25 2547.05 2353.2 2540.65 2353.6 2525.6 2354.55 2512.3 2377 2496.2 2404.2 2488.65 2455.15 2488 2459.6 2491.9 2461.85 2495.8 2464.1 2499.3 2461.3 2515.5 2448.45 2528.1 2436 2545.9 2418.45 2553.55 2404.5 2564.4 2384.7 2559.25 2368.3 Z"/>
</g>
</g>
</g>

<g transform="matrix( 0.194976806640625, 0.0776214599609375, -0.0776214599609375, 0.194976806640625, -84.4,-524) ">
<g>
<g>
<path fill="#FEE9CE" stroke="none" d="
M 2769.7 2803.4
Q 2764.35 2798.2 2758.1 2797.1 2751.8 2796 2746.35 2799.45 2733.6 2807.45 2732.75 2833.6 2731.7 2865.15 2749.55 2913.45 2751.15 2917.7 2755.65 2917.8 2760.15 2917.9 2761.85 2913.75 2769.9 2894.55 2774.95 2877.7 2782.1 2853.75 2782.1 2837.85 2782.1 2815.3 2769.7 2803.4 Z"/>
</g>
</g>
</g>

<g transform="matrix( 0.194976806640625, 0.0776214599609375, -0.0776214599609375, 0.194976806640625, -84.4,-524) ">
<g>
<g>
<path fill="#FEE9CE" stroke="none" d="
M 2672.05 2796.65
Q 2665.65 2797.1 2661.2 2801.7 2656.85 2806.3 2655.55 2813.65 2652.6 2830.55 2665.95 2848.75 2675.35 2861.6 2695.3 2876.7 2709.3 2887.3 2727.15 2898.05 2731 2900.35 2734.6 2897.6 2738.15 2894.85 2736.9 2890.55 2722.75 2841 2703.25 2816.15 2687.1 2795.6 2672.05 2796.65 Z"/>
</g>
</g>
</g>

<g transform="matrix( 0.194976806640625, 0.0776214599609375, -0.0776214599609375, 0.194976806640625, -84.4,-524) ">
<g>
<g>
<path fill="#FEE9CE" stroke="none" d="
M 2786.4 2896.85
Q 2780.05 2896.2 2774.85 2900 2762.7 2908.95 2763.7 2935.05 2764.9 2966.65 2786.15 3013.55 2788 3017.65 2792.5 3017.4 2797 3017.2 2798.45 3012.95 2805.1 2993.3 2808.95 2976.05 2814.4 2951.65 2813.25 2935.8 2811.65 2913.3 2798.45 2902.3 2792.7 2897.5 2786.4 2896.85 Z"/>
</g>
</g>
</g>

<g transform="matrix( 0.194976806640625, 0.0776214599609375, -0.0776214599609375, 0.194976806640625, -84.4,-524) ">
<g>
<g>
<path fill="#FEE9CE" stroke="none" d="
M 2700.55 2902.5
Q 2694.2 2903.4 2690.1 2908.35 2686.05 2913.2 2685.3 2920.65 2683.55 2937.75 2698.15 2954.95 2708.5 2967.1 2729.4 2980.7 2744.4 2990.5 2762.7 2999.7 2766.7 3001.75 2770.1 2998.8 2773.45 2995.8 2771.9 2991.55 2754.3 2943.15 2733.05 2919.75 2715.5 2900.4 2700.55 2902.5 Z"/>
</g>
</g>
</g>

<g transform="matrix( 0.194976806640625, 0.0776214599609375, -0.0776214599609375, 0.194976806640625, -84.4,-524) ">
<g>
<g>
<path fill="#FEE9CE" stroke="none" d="
M 2852.35 3033.8
Q 2850.2 3011.35 2836.75 3000.65 2830.85 2996.05 2824.6 2995.55 2818.15 2995.05 2813.1 2998.95 2801.15 3008.2 2802.8 3034.25 2804.8 3065.8 2827.2 3112.2 2829.15 3116.25 2833.65 3115.9 2838.1 3115.6 2839.45 3111.3 2845.6 3091.55 2849.05 3074.15 2853.9 3049.65 2852.35 3033.8 Z"/>
</g>
</g>
</g>

<g transform="matrix( 0.194976806640625, 0.0776214599609375, -0.0776214599609375, 0.194976806640625, -84.4,-524) ">
<g>
<g>
<path fill="#FEE9CE" stroke="none" d="
M 2738.9 3003.3
Q 2732.55 3004.4 2728.6 3009.4 2724.65 3014.4 2724.1 3021.85 2722.75 3038.95 2737.8 3055.8 2748.35 3067.65 2769.65 3080.75 2784.6 3090 2803.4 3098.95 2807.45 3100.9 2810.75 3097.85 2814.05 3094.75 2812.4 3090.55 2793.6 3042.6 2771.8 3019.75 2753.75 3000.8 2738.9 3003.3 Z"/>
</g>
</g>
</g>

<g transform="matrix( 0.194976806640625, 0.0776214599609375, -0.0776214599609375, 0.194976806640625, -84.4,-524) ">
<g>
<g>
<path fill="#FEE9CE" stroke="none" d="
M 2870.7 3090.55
Q 2864.3 3090.1 2859.25 3094.05 2847.35 3103.35 2849.15 3129.45 2851.35 3160.95 2874.05 3207.2 2876.05 3211.2 2880.55 3210.85 2885.05 3210.5 2886.35 3206.2 2892.4 3186.4 2895.7 3169 2900.35 3144.5 2898.7 3128.65 2896.4 3106.2 2882.85 3095.6 2877 3091 2870.7 3090.55 Z"/>
</g>
</g>
</g>

<g transform="matrix( 0.194976806640625, 0.0776214599609375, -0.0776214599609375, 0.194976806640625, -84.4,-524) ">
<g>
<g>
<path fill="#FEE9CE" stroke="none" d="
M 2785.05 3098.9
Q 2778.7 3100 2774.8 3105.05 2770.9 3110.05 2770.35 3117.5 2769.15 3134.6 2784.3 3151.35 2795 3163.15 2816.35 3176.15 2831.5 3185.35 2850.2 3194.1 2854.3 3196 2857.55 3192.95 2860.8 3189.85 2859.15 3185.65 2840 3137.85 2818.05 3115.1 2799.9 3096.3 2785.05 3098.9 Z"/>
</g>
</g>
</g>

<g transform="matrix( 0.194976806640625, 0.0776214599609375, -0.0776214599609375, 0.194976806640625, -84.4,-524) ">
<g>
<g>
<path fill="#FEE9CE" stroke="none" d="
M 2736.15 2703.55
Q 2730.75 2698.4 2724.55 2697.3 2718.25 2696.15 2712.8 2699.6 2700.05 2707.65 2699.15 2733.75 2698.1 2765.35 2716 2813.65 2717.55 2817.9 2722.05 2818 2726.55 2818.1 2728.3 2813.95 2736.35 2794.75 2741.4 2777.9 2748.55 2753.95 2748.55 2738.05 2748.55 2715.45 2736.15 2703.55 Z"/>
</g>
</g>
</g>

<g transform="matrix( 0.194976806640625, 0.0776214599609375, -0.0776214599609375, 0.194976806640625, -84.4,-524) ">
<g>
<g>
<path fill="#FEE9CE" stroke="none" d="
M 2669.7 2716.35
Q 2653.55 2695.8 2638.5 2696.85 2632.1 2697.3 2627.65 2701.9 2623.3 2706.45 2622 2713.85 2619.05 2730.75 2632.4 2748.95 2641.8 2761.8 2661.75 2776.9 2675.9 2787.6 2693.6 2798.2 2697.45 2800.55 2701.05 2797.8 2704.6 2795.05 2703.35 2790.7 2689.2 2741.2 2669.7 2716.35 Z"/>
</g>
</g>
</g>

<g transform="matrix( 0.194976806640625, 0.0776214599609375, -0.0776214599609375, 0.194976806640625, -84.4,-524) ">
<g>
<g>
<path fill="#FEE9CE" stroke="none" d="
M 2702.8 2595.35
Q 2696.65 2593.5 2690.85 2596.3 2677.25 2602.8 2673.4 2628.65 2668.7 2659.9 2680.85 2709.95 2681.9 2714.35 2686.35 2714.95 2690.8 2715.6 2693 2711.65 2703.2 2693.65 2710.2 2677.4 2720.05 2654.45 2721.9 2638.6 2724.5 2616.2 2713.6 2602.95 2708.85 2597.15 2702.8 2595.35 Z"/>
</g>
</g>
</g>

<g transform="matrix( 0.194976806640625, 0.0776214599609375, -0.0776214599609375, 0.194976806640625, -84.4,-524) ">
<g>
<g>
<path fill="#FEE9CE" stroke="none" d="
M 2617.4 2585
Q 2610.95 2584.7 2606 2588.8 2601.15 2592.8 2599 2599.95 2594.1 2616.45 2605.25 2636.05 2613.1 2649.85 2631.2 2667.15 2643.8 2679.25 2660.35 2692.05 2663.9 2694.8 2667.8 2692.5 2671.65 2690.15 2670.9 2685.7 2662.6 2634.85 2646.1 2607.95 2632.45 2585.65 2617.4 2585 Z"/>
</g>
</g>
</g>

<g transform="matrix( 0.194976806640625, 0.0776214599609375, -0.0776214599609375, 0.194976806640625, -84.4,-524) ">
<g>
<g>
<path fill="#FEE9CE" stroke="none" d="
M 2695.45 2494.2
Q 2689.6 2491.55 2683.5 2493.55 2669.1 2498.15 2661.75 2523.2 2652.9 2553.55 2658.15 2604.75 2658.65 2609.25 2662.95 2610.5 2667.3 2611.7 2670 2608.1 2682.5 2591.65 2691.65 2576.45 2704.55 2555.05 2708.55 2539.65 2714.15 2517.8 2705.15 2503.2 2701.2 2496.85 2695.45 2494.2 Z"/>
</g>
</g>
</g>

<g transform="matrix( 0.194976806640625, 0.0776214599609375, -0.0776214599609375, 0.194976806640625, -84.4,-524) ">
<g>
<g>
<path fill="#FEE9CE" stroke="none" d="
M 2612.2 2472.35
Q 2605.9 2471.2 2600.45 2474.55 2595.05 2477.9 2592 2484.7 2584.9 2500.35 2593.3 2521.3 2599.2 2536.05 2614.75 2555.65 2625.75 2569.5 2640.3 2584.25 2643.5 2587.45 2647.65 2585.65 2651.75 2583.9 2651.65 2579.4 2650.3 2527.9 2637.6 2499 2627.05 2475.1 2612.2 2472.35 Z"/>
</g>
</g>
</g>

<g transform="matrix( 0.194976806640625, 0.0776214599609375, -0.0776214599609375, 0.194976806640625, -84.4,-524) ">
<g>
<g>
<path fill="#FEE9CE" stroke="none" d="
M 2691.5 2387.95
Q 2685.8 2385.05 2679.6 2386.8 2665.05 2390.9 2656.8 2415.7 2646.8 2445.65 2650.2 2497.05 2650.45 2501.55 2654.75 2502.9 2659.05 2504.3 2661.9 2500.8 2675.05 2484.75 2684.7 2470 2698.4 2449.05 2702.9 2433.8 2709.35 2412.15 2700.85 2397.25 2697.15 2390.75 2691.5 2387.95 Z"/>
</g>
</g>
</g>

<g transform="matrix( 0.194976806640625, 0.0776214599609375, -0.0776214599609375, 0.194976806640625, -84.4,-524) ">
<g>
<g>
<path fill="#FEE9CE" stroke="none" d="
M 2609.15 2363
Q 2602.9 2361.6 2597.3 2364.8 2591.8 2367.95 2588.5 2374.6 2580.85 2390 2588.45 2411.25 2593.8 2426.2 2608.6 2446.35 2619.1 2460.55 2633.1 2475.85 2636.15 2479.2 2640.35 2477.55 2644.55 2475.95 2644.6 2471.45 2645.15 2419.95 2633.5 2390.6 2623.9 2366.3 2609.15 2363 Z"/>
</g>
</g>
</g>

<g transform="matrix( 0.194976806640625, 0.0776214599609375, -0.0776214599609375, 0.194976806640625, -84.4,-524) ">
<g>
<g>
<path fill="#FEE9CE" stroke="none" d="
M 2687.8 2276.3
Q 2682.15 2273.3 2675.9 2274.9 2661.3 2278.6 2652.45 2303.2 2641.75 2332.95 2643.95 2384.4 2644.15 2388.9 2648.4 2390.4 2652.7 2391.85 2655.6 2388.45 2669.15 2372.7 2679.1 2358.15 2693.25 2337.55 2698.15 2322.4 2705.1 2300.95 2696.95 2285.8 2693.4 2279.25 2687.8 2276.3 Z"/>
</g>
</g>
</g>

<g transform="matrix( 0.194976806640625, 0.0776214599609375, -0.0776214599609375, 0.194976806640625, -84.4,-524) ">
<g>
<g>
<path fill="#FEE9CE" stroke="none" d="
M 2934.5 2736.35
Q 2928.15 2737.45 2924.2 2742.5 2920.35 2747.45 2919.8 2754.9 2918.6 2772.05 2933.7 2788.8 2944.35 2800.6 2965.75 2813.6 2980.8 2822.75 2999.6 2831.6 3003.7 2833.5 3006.95 2830.4 3010.25 2827.3 3008.55 2823.15 2989.45 2775.3 2967.5 2752.6 2949.35 2733.75 2934.5 2736.35 Z"/>
</g>
</g>
</g>

<g transform="matrix( 0.194976806640625, 0.0776214599609375, -0.0776214599609375, 0.194976806640625, -84.4,-524) ">
<g>
<g>
<path fill="#FEE9CE" stroke="none" d="
M 2987.8 2684.5
Q 2975.95 2693.8 2977.7 2719.85 2979.85 2751.4 3002.55 2797.65 3004.55 2801.7 3009.05 2801.35 3013.55 2800.95 3014.85 2796.65 3020.9 2776.85 3024.2 2759.5 3028.9 2734.95 3027.3 2719.1 3025 2696.65 3011.45 2686.05 3005.6 2681.45 2999.3 2681 2992.9 2680.55 2987.8 2684.5 Z"/>
</g>
</g>
</g>

<g transform="matrix( 0.194976806640625, 0.0776214599609375, -0.0776214599609375, 0.194976806640625, -84.4,-524) ">
<g>
<g>
<path fill="#FEE9CE" stroke="none" d="
M 2980.75 2830.1
Q 2974.35 2830.75 2970.05 2835.5 2965.8 2840.2 2964.75 2847.6 2962.3 2864.6 2976.2 2882.35 2986 2894.9 3006.4 2909.4 3020.7 2919.55 3038.9 2929.75 3042.8 2931.95 3046.3 2929.1 3049.8 2926.2 3048.4 2921.95 3032.75 2872.9 3012.5 2848.65 2995.75 2828.6 2980.75 2830.1 Z"/>
</g>
</g>
</g>

<g transform="matrix( 0.194976806640625, 0.0776214599609375, -0.0776214599609375, 0.194976806640625, -84.4,-524) ">
<g>
<g>
<path fill="#FEE9CE" stroke="none" d="
M 3049.25 2779.5
Q 3042.9 2778.6 3037.6 2782.2 3025.1 2790.6 3025 2816.75 3024.9 2848.35 3044.25 2896.1 3045.95 2900.25 3050.45 2900.25 3054.95 2900.2 3056.55 2896 3064 2876.65 3068.55 2859.55 3074.95 2835.4 3074.5 2819.5 3073.8 2796.95 3061.05 2785.4 3055.55 2780.4 3049.25 2779.5 Z"/>
</g>
</g>
</g>

<g transform="matrix( 0.194976806640625, 0.0776214599609375, -0.0776214599609375, 0.194976806640625, -84.4,-524) ">
<g>
<g>
<path fill="#FEE9CE" stroke="none" d="
M 3018.65 2929.2
Q 3012.25 2929.7 3007.85 2934.35 3003.5 2938.95 3002.25 2946.3 2999.4 2963.25 3012.85 2981.35 3022.35 2994.1 3042.35 3009.1 3056.5 3019.7 3074.3 3030.25 3078.15 3032.55 3081.75 3029.8 3085.3 3027 3084.05 3022.7 3069.6 2973.25 3049.95 2948.5 3033.7 2928.05 3018.65 2929.2 Z"/>
</g>
</g>
</g>

<g transform="matrix( 0.194976806640625, 0.0776214599609375, -0.0776214599609375, 0.194976806640625, -84.4,-524) ">
<g>
<g>
<path fill="#FEE9CE" stroke="none" d="
M 3100 2886.5
Q 3094.6 2881.4 3088.4 2880.3 3082.05 2879.25 3076.65 2882.7 3063.95 2890.8 3063.2 2916.95 3062.35 2948.55 3080.5 2996.75 3082.1 3000.95 3086.6 3001.05 3091.1 3001.1 3092.8 2996.95 3100.7 2977.9 3105.7 2960.8 3112.7 2936.85 3112.6 2920.9 3112.5 2898.35 3100 2886.5 Z"/>
</g>
</g>
</g>

<g transform="matrix( 0.194976806640625, 0.0776214599609375, -0.0776214599609375, 0.194976806640625, -84.4,-524) ">
<g>
<g>
<path fill="#FEE9CE" stroke="none" d="
M 3037.25 3035.75
Q 3032.85 3040.35 3031.6 3047.7 3028.6 3064.6 3041.95 3082.8 3051.35 3095.65 3071.25 3110.75 3085.4 3121.45 3103.1 3132.1 3106.95 3134.45 3110.55 3131.7 3114.1 3128.95 3112.85 3124.6 3098.75 3075.05 3079.25 3050.2 3063.15 3029.65 3048.1 3030.7 3041.7 3031.15 3037.25 3035.75 Z"/>
</g>
</g>
</g>

<g transform="matrix( 0.194976806640625, 0.0776214599609375, -0.0776214599609375, 0.194976806640625, -84.4,-524) ">
<g>
<g>
<path fill="#FEE9CE" stroke="none" d="
M 3106.4 2984.6
Q 3093.65 2992.6 3092.75 3018.75 3091.7 3050.3 3109.5 3098.65 3111.05 3102.9 3115.6 3103 3120.05 3103.1 3121.8 3098.95 3129.85 3079.85 3134.95 3062.9 3142.1 3038.95 3142.15 3023.05 3142.15 3000.5 3129.8 2988.6 3124.4 2983.4 3118.2 2982.3 3111.85 2981.15 3106.4 2984.6 Z"/>
</g>
</g>
</g>

<g transform="matrix( 0.194976806640625, 0.0776214599609375, -0.0776214599609375, 0.194976806640625, -84.4,-524) ">
<g>
<g>
<path fill="#FEE9CE" stroke="none" d="
M 2957.65 2735
Q 2961.75 2736.9 2965 2733.85 2968.3 2730.75 2966.6 2726.55 2947.5 2678.7 2925.55 2656 2907.4 2637.15 2892.55 2639.75 2886.25 2640.85 2882.3 2645.9 2878.4 2650.85 2877.9 2658.3 2876.65 2675.45 2891.8 2692.2 2902.45 2704 2923.8 2717 2939 2726.3 2957.65 2735 Z"/>
</g>
</g>
</g>

<g transform="matrix( 0.194976806640625, 0.0776214599609375, -0.0776214599609375, 0.194976806640625, -84.4,-524) ">
<g>
<g>
<path fill="#FEE9CE" stroke="none" d="
M 2969.5 2589.45
Q 2963.65 2584.85 2957.35 2584.4 2950.95 2583.95 2945.85 2587.9 2934 2597.2 2935.75 2623.25 2937.9 2654.8 2960.6 2701.05 2962.6 2705.1 2967.1 2704.75 2971.6 2704.35 2972.9 2700.05 2978.95 2680.25 2982.25 2662.9 2986.95 2638.35 2985.35 2622.5 2983.05 2600.05 2969.5 2589.45 Z"/>
</g>
</g>
</g>

<g transform="matrix( 0.194976806640625, 0.0776214599609375, -0.0776214599609375, 0.194976806640625, -84.4,-524) ">
<g>
<g>
<path fill="#FEE9CE" stroke="none" d="
M 2922.5 2633.45
Q 2925.4 2630 2923.25 2626 2898.75 2580.7 2874.35 2560.65 2854.15 2544.05 2839.7 2548.35 2833.5 2550.15 2830.2 2555.65 2826.9 2561.05 2827.25 2568.5 2828 2585.65 2844.95 2600.55 2856.9 2611.05 2879.65 2621.5 2895.65 2628.85 2915.35 2635.45 2919.65 2636.9 2922.5 2633.45 Z"/>
</g>
</g>
</g>

<g transform="matrix( 0.194976806640625, 0.0776214599609375, -0.0776214599609375, 0.194976806640625, -84.4,-524) ">
<g>
<g>
<path fill="#FEE9CE" stroke="none" d="
M 2931.45 2560.95
Q 2933.3 2536 2929.85 2520.5 2924.95 2498.45 2910.3 2489.5 2903.9 2485.6 2897.6 2485.9 2891.2 2486.15 2886.65 2490.7 2875.9 2501.3 2880.7 2527 2886.5 2558.05 2914.35 2601.35 2916.8 2605.15 2921.2 2604.3 2925.65 2603.45 2926.45 2599 2930.15 2578.55 2931.45 2560.95 Z"/>
</g>
</g>
</g>

<g transform="matrix( 0.194976806640625, 0.0776214599609375, -0.0776214599609375, 0.194976806640625, -84.4,-524) ">
<g>
<g>
<path fill="#FEE9CE" stroke="none" d="
M 2812.3 2474.6
Q 2790.05 2460.9 2776.3 2467.1 2770.45 2469.7 2767.9 2475.6 2765.35 2481.4 2766.7 2488.75 2769.8 2505.65 2788.6 2518.1 2801.85 2526.9 2825.8 2534.15 2842.7 2539.3 2863.05 2543.15 2867.5 2544 2869.85 2540.2 2872.25 2536.4 2869.6 2532.75 2839.2 2491.15 2812.3 2474.6 Z"/>
</g>
</g>
</g>

<g transform="matrix( 0.194976806640625, 0.0776214599609375, -0.0776214599609375, 0.194976806640625, -84.4,-524) ">
<g>
<g>
<path fill="#FEE9CE" stroke="none" d="
M 2868.95 2467.15
Q 2867.35 2442.25 2861.85 2427.3 2854.05 2406.1 2838.3 2399.25 2831.45 2396.25 2825.25 2397.35 2818.95 2398.5 2815.05 2403.6 2805.85 2415.55 2814.05 2440.35 2824 2470.35 2857.45 2509.5 2860.35 2512.95 2864.65 2511.5 2868.9 2510 2869.1 2505.5 2870.05 2485 2868.95 2467.15 Z"/>
</g>
</g>
</g>

<g transform="matrix( 0.194976806640625, 0.0776214599609375, -0.0776214599609375, 0.194976806640625, -84.4,-524) ">
<g>
<g>
<path fill="#FEE9CE" stroke="none" d="
M 2797.2 2458.05
Q 2801.65 2458.75 2803.9 2454.85 2806.2 2450.95 2803.4 2447.4 2771.45 2406.95 2743.95 2391.4 2721.2 2378.55 2707.7 2385.25 2701.95 2388.1 2699.6 2394.05 2697.3 2399.95 2698.9 2407.25 2702.6 2424 2721.85 2435.75 2735.45 2444.05 2759.6 2450.45 2776.7 2454.95 2797.2 2458.05 Z"/>
</g>
</g>
</g>

<g transform="matrix( 0.194976806640625, 0.0776214599609375, -0.0776214599609375, 0.194976806640625, -84.4,-524) ">
<g>
<g>
<path fill="#FEE9CE" stroke="none" d="
M 2744.05 2320.4
Q 2735.3 2332.65 2744.45 2357.15 2755.5 2386.75 2790.4 2424.65 2793.45 2427.95 2797.65 2426.35 2801.85 2424.75 2801.9 2420.2 2802.05 2399.55 2800.3 2381.9 2797.75 2357.05 2791.75 2342.35 2783.15 2321.45 2767.15 2315.15 2760.2 2312.45 2754.05 2313.8 2747.8 2315.15 2744.05 2320.4 Z"/>
</g>
</g>
</g>

<g transform="matrix( 0.194976806640625, 0.0776214599609375, -0.0776214599609375, 0.194976806640625, -84.4,-524) ">
<g>
<g>
<path fill="#FEE9CE" stroke="none" d="
M 2671.85 2305
Q 2648.8 2292.65 2635.45 2299.7 2629.75 2302.65 2627.55 2308.7 2625.4 2314.6 2627.2 2321.85 2631.25 2338.55 2650.8 2349.85 2664.55 2357.85 2688.85 2363.65 2706 2367.75 2726.6 2370.4 2731.1 2370.95 2733.25 2367.05 2735.45 2363.1 2732.55 2359.6 2699.7 2319.9 2671.85 2305 Z"/>
</g>
</g>
</g>

<g transform="matrix( 0.194976806640625, 0.0776214599609375, -0.0776214599609375, 0.194976806640625, -84.4,-524) ">
<g>
<g>
<path fill="#FEE9CE" stroke="none" d="
M 3134.95 2642.2
Q 3128.95 2644.45 3126 2650.15 3123.15 2655.8 3124 2663.2 3126.05 2680.25 3144.05 2693.85 3156.75 2703.45 3180.15 2712.2 3196.7 2718.35 3216.8 2723.5 3221.2 2724.6 3223.8 2720.95 3226.45 2717.3 3224 2713.5 3196.25 2670.1 3170.4 2651.9 3149.05 2636.85 3134.95 2642.2 Z"/>
</g>
</g>
</g>

<g transform="matrix( 0.194976806640625, 0.0776214599609375, -0.0776214599609375, 0.194976806640625, -84.4,-524) ">
<g>
<g>
<path fill="#FEE9CE" stroke="none" d="
M 3222.8 2607.8
Q 3216.35 2586.15 3201.05 2578.3 3194.4 2574.9 3188.15 2575.65 3181.75 2576.4 3177.55 2581.25 3167.65 2592.6 3174.3 2617.85 3182.35 2648.4 3213.35 2689.55 3216.05 2693.15 3220.4 2692 3224.7 2690.8 3225.2 2686.3 3227.4 2665.85 3227.4 2648.05 3227.35 2623.05 3222.8 2607.8 Z"/>
</g>
</g>
</g>

<g transform="matrix( 0.194976806640625, 0.0776214599609375, -0.0776214599609375, 0.194976806640625, -84.4,-524) ">
<g>
<g>
<path fill="#FEE9CE" stroke="none" d="
M 3198 2725.55
Q 3191.85 2727.4 3188.5 2732.9 3185.25 2738.3 3185.6 2745.75 3186.4 2762.9 3203.4 2777.75 3215.4 2788.25 3238.1 2798.6 3254.25 2805.95 3273.85 2812.45 3278.15 2813.9 3281.05 2810.45 3283.9 2806.95 3281.75 2803 3257.15 2757.75 3232.7 2737.8 3212.45 2721.25 3198 2725.55 Z"/>
</g>
</g>
</g>

<g transform="matrix( 0.194976806640625, 0.0776214599609375, -0.0776214599609375, 0.194976806640625, -84.4,-524) ">
<g>
<g>
<path fill="#FEE9CE" stroke="none" d="
M 3255.75 2663
Q 3249.35 2663.3 3244.8 2667.8 3234.1 2678.45 3238.95 2704.1 3244.8 2735.15 3272.8 2778.4 3275.25 2782.2 3279.65 2781.3 3284.1 2780.45 3284.9 2776 3288.55 2755.55 3289.8 2737.95 3291.55 2713 3288.05 2697.5 3283.15 2675.5 3268.45 2666.55 3262.05 2662.7 3255.75 2663 Z"/>
</g>
</g>
</g>

<g transform="matrix( 0.194976806640625, 0.0776214599609375, -0.0776214599609375, 0.194976806640625, -84.4,-524) ">
<g>
<g>
<path fill="#FEE9CE" stroke="none" d="
M 3244.2 2822.85
Q 3240.8 2828.15 3241 2835.6 3241.4 2852.8 3258 2868.05 3269.75 2878.85 3292.2 2889.75 3308.15 2897.55 3327.6 2904.5 3331.85 2906.05 3334.8 2902.65 3337.75 2899.25 3335.7 2895.25 3312.2 2849.4 3288.25 2828.8 3268.45 2811.8 3253.9 2815.75 3247.7 2817.45 3244.2 2822.85 Z"/>
</g>
</g>
</g>

<g transform="matrix( 0.194976806640625, 0.0776214599609375, -0.0776214599609375, 0.194976806640625, -84.4,-524) ">
<g>
<g>
<path fill="#FEE9CE" stroke="none" d="
M 3313.2 2754.6
Q 3306.8 2754.75 3302.1 2759.15 3291.15 2769.55 3295.35 2795.3 3300.45 2826.5 3327.35 2870.4 3329.7 2874.25 3334.15 2873.5 3338.6 2872.75 3339.5 2868.3 3343.65 2848 3345.35 2830.4 3347.7 2805.55 3344.65 2789.9 3340.25 2767.75 3325.8 2758.5 3319.5 2754.5 3313.2 2754.6 Z"/>
</g>
</g>
</g>

<g transform="matrix( 0.194976806640625, 0.0776214599609375, -0.0776214599609375, 0.194976806640625, -84.4,-524) ">
<g>
<g>
<path fill="#FEE9CE" stroke="none" d="
M 3301.95 2909.85
Q 3295.7 2911.5 3292.25 2916.9 3288.8 2922.2 3288.9 2929.65 3289.2 2946.85 3305.7 2962.2 3317.35 2973.05 3339.75 2984.15 3355.65 2992 3375.05 2999.15 3379.3 3000.7 3382.3 2997.35 3385.3 2993.95 3383.25 2989.95 3360.05 2943.95 3336.2 2923.2 3316.5 2906 3301.95 2909.85 Z"/>
</g>
</g>
</g>

<g transform="matrix( 0.194976806640625, 0.0776214599609375, -0.0776214599609375, 0.194976806640625, -84.4,-524) ">
<g>
<g>
<path fill="#FEE9CE" stroke="none" d="
M 3374.2 2853.1
Q 3367.95 2849.05 3361.65 2849.15 3355.25 2849.25 3350.55 2853.6 3339.5 2863.9 3343.55 2889.75 3348.45 2920.95 3375.05 2965.05 3377.4 2968.9 3381.8 2968.15 3386.25 2967.4 3387.2 2963 3391.5 2942.75 3393.3 2925.15 3395.85 2900.3 3392.85 2884.65 3388.6 2862.5 3374.2 2853.1 Z"/>
</g>
</g>
</g>

<g transform="matrix( 0.194976806640625, 0.0776214599609375, -0.0776214599609375, 0.194976806640625, -84.4,-524) ">
<g>
<g>
<path fill="#FEE9CE" stroke="none" d="
M 3075.55 2555.25
Q 3069.55 2557.5 3066.6 2563.2 3063.75 2568.85 3064.6 2576.25 3066.65 2593.3 3084.65 2606.9 3097.35 2616.5 3120.75 2625.25 3137.5 2631.5 3157.4 2636.5 3161.8 2637.65 3164.4 2634 3167.05 2630.35 3164.6 2626.55 3136.85 2583.15 3111 2564.95 3089.65 2549.9 3075.55 2555.25 Z"/>
</g>
</g>
</g>

<g transform="matrix( 0.194976806640625, 0.0776214599609375, -0.0776214599609375, 0.194976806640625, -84.4,-524) ">
<g>
<g>
<path fill="#FEE9CE" stroke="none" d="
M 3141.65 2491.35
Q 3135 2487.95 3128.75 2488.7 3122.35 2489.45 3118.15 2494.3 3108.25 2505.65 3114.9 2530.9 3122.95 2561.45 3153.95 2602.6 3156.65 2606.2 3161 2605 3165.3 2603.8 3165.8 2599.35 3168 2578.9 3168 2561.1 3167.95 2536.1 3163.4 2520.85 3156.95 2499.2 3141.65 2491.35 Z"/>
</g>
</g>
</g>

<g transform="matrix( 0.194976806640625, 0.0776214599609375, -0.0776214599609375, 0.194976806640625, -84.4,-524) ">
<g>
<g>
<path fill="#FEE9CE" stroke="none" d="
M 3097.1 2546.7
Q 3101.55 2547.3 3103.75 2543.35 3105.95 2539.45 3103.1 2535.95 3070.5 2496.05 3042.75 2480.95 3019.8 2468.5 3006.4 2475.4 3000.7 2478.35 2998.45 2484.4 2996.25 2490.3 2997.95 2497.55 3001.95 2514.3 3021.4 2525.7 3035.15 2533.75 3059.4 2539.75 3076.65 2544 3097.1 2546.7 Z"/>
</g>
</g>
</g>

<g transform="matrix( 0.194976806640625, 0.0776214599609375, -0.0776214599609375, 0.194976806640625, -84.4,-524) ">
<g>
<g>
<path fill="#FEE9CE" stroke="none" d="
M 3098.9 2470.55
Q 3096 2445.7 3089.7 2431.1 3080.75 2410.35 3064.7 2404.35 3057.7 2401.75 3051.55 2403.2 3045.3 2404.65 3041.65 2409.95 3033.1 2422.4 3042.65 2446.75 3054.15 2476.15 3089.7 2513.45 3092.8 2516.7 3097 2515 3101.2 2513.3 3101.15 2508.8 3100.95 2488.05 3098.9 2470.55 Z"/>
</g>
</g>
</g>

<g transform="matrix( 0.194976806640625, 0.0776214599609375, -0.0776214599609375, 0.194976806640625, -84.4,-524) ">
<g>
<g>
<path fill="#FEE9CE" stroke="none" d="
M 3028.35 2465.9
Q 3032.85 2465.9 3034.5 2461.7 3036.15 2457.55 3032.85 2454.45 2995.15 2419.35 2965.6 2408.15 2941.15 2398.9 2928.85 2407.55 2923.55 2411.25 2922.15 2417.5 2920.75 2423.65 2923.45 2430.65 2929.7 2446.65 2950.5 2455.35 2965.2 2461.45 2990.05 2464.1 3007.65 2465.95 3028.35 2465.9 Z"/>
</g>
</g>
</g>

<g transform="matrix( 0.194976806640625, 0.0776214599609375, -0.0776214599609375, 0.194976806640625, -84.4,-524) ">
<g>
<g>
<path fill="#FEE9CE" stroke="none" d="
M 2976.95 2329.25
Q 2969.65 2327.6 2963.75 2329.85 2957.75 2332.2 2954.9 2337.95 2948.1 2351.4 2960.85 2374.2 2976.3 2401.8 3016.55 2433.95 3020.05 2436.75 3024 2434.5 3027.9 2432.25 3027.25 2427.8 3024.25 2407.35 3019.85 2390.2 3013.55 2366 3005.35 2352.35 2993.7 2333.05 2976.95 2329.25 Z"/>
</g>
</g>
</g>

<g transform="matrix( 0.194976806640625, 0.0776214599609375, -0.0776214599609375, 0.194976806640625, -84.4,-524) ">
<g>
<g>
<path fill="#FEE9CE" stroke="none" d="
M 2846.05 2340.1
Q 2840.95 2344 2839.75 2350.3 2838.6 2356.5 2841.55 2363.35 2848.35 2379.15 2869.5 2387.05 2884.4 2392.65 2909.35 2394.35 2926.95 2395.55 2947.65 2394.75 2952.15 2394.55 2953.65 2390.3 2955.15 2386.05 2951.75 2383.1 2912.8 2349.4 2882.85 2339.3 2858.05 2330.95 2846.05 2340.1 Z"/>
</g>
</g>
</g>

<g transform="matrix( 0.194976806640625, 0.0776214599609375, -0.0776214599609375, 0.194976806640625, -84.4,-524) ">
<g>
<g>
<path fill="#FEE9CE" stroke="none" d="
M 2891.25 2260.1
Q 2883.95 2258.7 2878.1 2261.2 2872.2 2263.7 2869.55 2269.55 2863.3 2283.25 2876.85 2305.6 2893.3 2332.6 2934.7 2363.25 2938.3 2365.9 2942.1 2363.5 2945.95 2361.15 2945.15 2356.7 2941.4 2336.3 2936.35 2319.4 2929.2 2295.45 2920.5 2282.15 2908.15 2263.25 2891.25 2260.1 Z"/>
</g>
</g>
</g>

<g transform="matrix( 0.194976806640625, 0.0776214599609375, -0.0776214599609375, 0.194976806640625, -84.4,-524) ">
<g>
<g>
<path fill="#FEE9CE" stroke="none" d="
M 2795.7 2268.05
Q 2770.75 2260.3 2759 2269.7 2753.95 2273.7 2752.95 2280 2751.9 2286.25 2755.05 2293.05 2762.2 2308.65 2783.5 2316.1 2798.55 2321.35 2823.5 2322.45 2841.25 2323.25 2861.85 2321.95 2866.35 2321.7 2867.7 2317.4 2869.1 2313.1 2865.6 2310.25 2825.85 2277.45 2795.7 2268.05 Z"/>
</g>
</g>
</g>

<g transform="matrix( 0.1950225830078125, 0.0776519775390625, -0.0776519775390625, 0.1950225830078125, -84.4,-524) ">
<g>
<g>
<path fill="#A0CCA8" stroke="none" d="
M 2693.45 3168.5
L 2693.4 3168.55
Q 2691.55 3169.25 2690.7 3171.1 2689.9 3173 2690.65 3174.85 2697.15 3191.4 2703.3 3205.05 2704.15 3206.8 2705.9 3207.55 2707.7 3208.3 2709.5 3207.6
L 2709.8 3207.5
Q 2711.65 3206.65 2712.35 3204.75 2713.05 3202.85 2712.2 3201 2706.4 3188.3 2699.7 3171.3 2699 3169.45 2697.15 3168.6 2695.3 3167.8 2693.45 3168.5
M 2577.85 2729.4
Q 2576.7 2731.05 2577.05 2733.05 2579.8 2749.1 2582.7 2765.15 2583.1 2767.15 2584.75 2768.3 2586.4 2769.45 2588.4 2769.05
L 2589.25 2768.8
Q 2590.9 2768.2 2591.75 2766.7 2592.65 2765.15 2592.3 2763.4 2589.3 2746.9 2586.65 2731.4 2586.3 2729.4 2584.65 2728.25 2583 2727.05 2581 2727.4 2579 2727.75 2577.85 2729.4
M 2575 2656.5
Q 2574.75 2654.5 2573.1 2653.25 2571.5 2652.05 2569.5 2652.3 2567.5 2652.6 2566.25 2654.2 2565.05 2655.8 2565.35 2657.8 2567.9 2676.15 2570.05 2690.1 2570.35 2692.1 2572 2693.3 2573.6 2694.5 2575.6 2694.2
L 2576.65 2693.9
Q 2578.2 2693.3 2579.1 2691.85 2579.95 2690.35 2579.7 2688.65 2577.55 2674.9 2575 2656.5
M 2557.55 2578.6
Q 2556.25 2580.15 2556.45 2582.15 2558.25 2600.8 2559.85 2614.65 2560.1 2616.65 2561.65 2617.95 2563.2 2619.2 2565.25 2618.95 2565.85 2618.9 2566.45 2618.65 2568 2618.05 2568.85 2616.65 2569.75 2615.2 2569.55 2613.55 2568 2600.25 2566.15 2581.25 2565.95 2579.25 2564.4 2577.95 2562.85 2576.65 2560.85 2576.85 2558.85 2577.05 2557.55 2578.6
M 2561.8 2505.8
Q 2561.8 2503.8 2560.35 2502.4 2558.85 2500.95 2556.85 2501 2554.8 2501.05 2553.4 2502.5 2552 2503.95 2552.05 2505.95 2552.25 2520.75 2553.2 2538.7 2553.3 2540.75 2554.8 2542.05 2556.35 2543.4 2558.35 2543.3 2559.15 2543.2 2559.8 2543 2561.3 2542.45 2562.15 2541.1 2563.05 2539.8 2562.95 2538.15 2562.05 2522.35 2561.8 2505.8
M 2560 2428.45
Q 2558.25 2429.5 2557.8 2431.5 2554.8 2444.55 2553.35 2462.1 2553.15 2464.15 2554.45 2465.65 2555.75 2467.2 2557.8 2467.35 2558.75 2467.5 2559.95 2467.05 2561.25 2466.55 2562.1 2465.45 2562.95 2464.35 2563.05 2462.9 2564.4 2446.3 2567.3 2433.7 2567.75 2431.7 2566.7 2430 2565.65 2428.3 2563.65 2427.85 2561.7 2427.35 2560 2428.45
M 2672.15 3097.1
Q 2670.35 3096.15 2668.45 3096.8 2666.55 3097.4 2665.6 3099.2 2664.65 3101 2665.3 3102.9 2670.6 3119.4 2675.6 3133.9 2676.3 3135.8 2678.1 3136.7 2679.9 3137.6 2681.8 3136.95
L 2681.95 3136.85
Q 2683.8 3136.2 2684.65 3134.4 2685.5 3132.6 2684.8 3130.75 2679.25 3114.5 2674.6 3099.95 2673.95 3098 2672.15 3097.1
M 2643.95 3026.25
Q 2642.95 3028 2643.5 3029.95 2648.75 3048.7 2652.5 3061.3 2653.05 3063.25 2654.85 3064.2 2656.6 3065.15 2658.55 3064.6
L 2658.95 3064.5
Q 2660.7 3063.85 2661.55 3062.1 2662.4 3060.4 2661.85 3058.55 2656.35 3039.8 2652.9 3027.3 2652.35 3025.4 2650.55 3024.4 2648.8 3023.4 2646.85 3023.95 2644.95 3024.5 2643.95 3026.25
M 2631.3 2951
Q 2629.6 2949.95 2627.6 2950.45 2625.65 2950.95 2624.6 2952.65 2623.55 2954.4 2624.05 2956.35 2628.75 2975.2 2632.15 2987.95 2632.65 2989.95 2634.4 2990.95 2636.15 2992 2638.1 2991.45
L 2638.6 2991.3
Q 2640.35 2990.6 2641.2 2989 2642.05 2987.35 2641.55 2985.5 2637.35 2969.4 2633.5 2954 2633 2952.05 2631.3 2951
M 2616.1 2880.2
Q 2615.65 2878.25 2613.95 2877.15 2612.25 2876.05 2610.25 2876.5 2608.3 2876.95 2607.2 2878.65 2606.15 2880.35 2606.55 2882.35 2610.1 2898.15 2613.85 2914.1 2614.3 2916.1 2616.05 2917.15 2617.75 2918.2 2619.7 2917.75
L 2620.35 2917.55
Q 2622.05 2916.9 2622.9 2915.3 2623.75 2913.7 2623.35 2911.9 2619.6 2895.9 2616.1 2880.2
M 2600.45 2805.95
Q 2600.05 2803.95 2598.35 2802.85 2596.7 2801.75 2594.7 2802.1 2592.7 2802.5 2591.6 2804.2 2590.5 2805.85 2590.85 2807.85 2594.3 2825.1 2597.4 2839.85 2597.8 2841.85 2599.5 2842.95 2601.15 2844.05 2603.15 2843.65
L 2603.9 2843.4
Q 2605.55 2842.75 2606.45 2841.2 2607.3 2839.65 2606.95 2837.85 2603.4 2821.05 2600.45 2805.95 Z"/>
</g>
</g>
</g>

<g transform="matrix( 0.1950225830078125, 0.0776519775390625, -0.0776519775390625, 0.1950225830078125, -84.4,-524) ">
<g>
<g>
<path fill="#A0CCA8" stroke="none" d="
M 2449 3260.9
Q 2448.15 3262.7 2448.85 3264.6 2452.45 3274.55 2454.85 3280.8 2458.55 3290.35 2460.6 3295.2 2461.35 3297.05 2463.2 3297.8 2465 3298.55 2466.85 3297.85
L 2466.95 3297.85
Q 2468.85 3297.05 2469.6 3295.2 2470.4 3293.3 2469.6 3291.45 2467.4 3286.15 2464 3277.3 2461.25 3270.2 2458 3261.3 2457.35 3259.4 2455.5 3258.55 2453.7 3257.7 2451.8 3258.4 2449.85 3259.05 2449 3260.9
M 2434.55 3189.4
Q 2433.95 3187.45 2432.2 3186.5 2430.4 3185.55 2428.45 3186.1 2426.55 3186.7 2425.6 3188.45 2424.65 3190.25 2425.2 3192.15 2430 3208.2 2434.85 3223.35 2435.45 3225.25 2437.25 3226.2 2439.05 3227.15 2441 3226.5
L 2441.25 3226.4
Q 2443.05 3225.7 2443.9 3224 2444.75 3222.25 2444.15 3220.4 2439.8 3206.9 2434.55 3189.4
M 2414.2 3116.4
Q 2413.7 3114.45 2411.95 3113.45 2410.2 3112.4 2408.25 3112.9 2406.3 3113.45 2405.3 3115.15 2404.25 3116.9 2404.75 3118.85 2410.1 3139.25 2413.2 3150.35 2413.75 3152.3 2415.5 3153.3 2417.25 3154.35 2419.2 3153.8
L 2419.65 3153.6
Q 2421.4 3152.95 2422.25 3151.3 2423.1 3149.6 2422.6 3147.8 2417.55 3129.35 2414.2 3116.4
M 2387.35 3041.3
Q 2386.3 3043 2386.75 3044.95 2390.6 3061.9 2394.2 3076.7 2394.65 3078.65 2396.4 3079.7 2398.1 3080.8 2400.05 3080.3 2400.55 3080.2 2400.65 3080.1 2402.4 3079.45 2403.25 3077.85 2404.1 3076.2 2403.65 3074.4 2399.7 3057.8 2396.25 3042.8 2395.8 3040.8 2394.1 3039.75 2392.35 3038.65 2390.4 3039.1 2388.4 3039.55 2387.35 3041.3
M 2380.5 2968.65
Q 2380.15 2966.7 2378.45 2965.55 2376.75 2964.4 2374.8 2964.8 2372.8 2965.2 2371.65 2966.9 2370.55 2968.55 2370.95 2970.55 2373.85 2985.5 2377.45 3002.5 2377.85 3004.5 2379.55 3005.6 2381.2 3006.65 2383.2 3006.25
L 2383.95 3006.05
Q 2385.6 3005.4 2386.45 3003.85 2387.35 3002.25 2386.95 3000.5 2383.1 2982.15 2380.5 2968.65
M 2367.1 2894.1
Q 2366.8 2892.1 2365.15 2890.95 2363.55 2889.75 2361.55 2890.1 2359.55 2890.4 2358.35 2892.05 2357.15 2893.65 2357.5 2895.65 2359.9 2910.7 2362.95 2927.8 2363.3 2929.8 2364.95 2930.95 2366.6 2932.15 2368.6 2931.75
L 2369.5 2931.5
Q 2371.1 2930.9 2372 2929.4 2372.85 2927.85 2372.55 2926.1 2370.55 2914.75 2367.1 2894.1
M 2356.5 2819.15
Q 2356.25 2817.1 2354.65 2815.9 2353.05 2814.65 2351.05 2814.9 2349.05 2815.15 2347.8 2816.7 2346.55 2818.3 2346.8 2820.3 2348.3 2833.1 2351 2852.65 2351.3 2854.7 2352.9 2855.9 2354.5 2857.1 2356.5 2856.8 2357.25 2856.7 2357.6 2856.55 2359.15 2855.95 2360.05 2854.5 2360.9 2853 2360.65 2851.3 2358.4 2835.05 2356.5 2819.15
M 2347.7 2740.5
Q 2346.15 2739.15 2344.15 2739.3 2342.15 2739.4 2340.8 2740.95 2339.5 2742.45 2339.6 2744.45 2340.75 2761.6 2342.2 2777.05 2342.4 2779.05 2343.95 2780.35 2345.5 2781.65 2347.5 2781.45 2348.2 2781.35 2348.8 2781.15 2350.3 2780.6 2351.2 2779.2 2352.05 2777.8 2351.9 2776.15 2350.45 2760.2 2349.35 2743.85 2349.2 2741.8 2347.7 2740.5
M 2347.2 2668.35
Q 2347.25 2666.35 2345.85 2664.9 2344.45 2663.45 2342.45 2663.4 2340.4 2663.35 2338.95 2664.75 2337.5 2666.2 2337.45 2668.2 2337.25 2683.95 2337.6 2700.95 2337.7 2702.95 2339.15 2704.35 2340.6 2705.75 2342.6 2705.7 2343.4 2705.7 2344.25 2705.35 2345.65 2704.8 2346.5 2703.55 2347.4 2702.25 2347.35 2700.7 2347 2683.9 2347.2 2668.35
M 2355.05 2594.05
Q 2355.45 2592.05 2354.4 2590.35 2353.3 2588.65 2351.3 2588.25 2349.35 2587.8 2347.65 2588.9 2345.95 2590 2345.5 2591.95 2342.1 2607.7 2340.1 2624.45 2339.9 2626.45 2341.1 2628.05 2342.35 2629.65 2344.35 2629.85 2345.55 2630 2346.7 2629.6 2347.95 2629.1 2348.75 2628.05 2349.6 2626.95 2349.8 2625.6 2351.7 2609.45 2355.05 2594.05
M 2379 2523.4
Q 2379.85 2521.6 2379.2 2519.7 2378.5 2517.8 2376.7 2516.95 2374.85 2516.1 2372.95 2516.75 2371.05 2517.45 2370.2 2519.25 2363.35 2533.8 2357.6 2549.75 2356.9 2551.65 2357.8 2553.45 2358.65 2555.3 2360.55 2555.95 2362.35 2556.55 2363.95 2555.95 2366.05 2555.1 2366.8 2553 2372.15 2538 2379 2523.4
M 2417.85 2459.6
Q 2419.1 2458 2418.8 2456 2418.55 2454 2416.95 2452.75 2415.35 2451.55 2413.3 2451.8 2411.3 2452.1 2410.1 2453.7 2400.25 2466.65 2391.3 2480.75 2390.25 2482.5 2390.7 2484.45 2391.15 2486.4 2392.85 2487.5 2394.9 2488.8 2397.2 2487.9 2398.75 2487.35 2399.55 2485.95 2408.3 2472.15 2417.85 2459.6
M 2468.65 2404.6
Q 2470.15 2403.2 2470.3 2401.2 2470.4 2399.2 2469.05 2397.7 2467.7 2396.2 2465.7 2396.1 2463.65 2395.95 2462.15 2397.3 2449.9 2408.35 2438.55 2420.3 2437.15 2421.75 2437.2 2423.75 2437.25 2425.75 2438.7 2427.15 2439.75 2428.15 2441.2 2428.45 2442.55 2428.7 2443.85 2428.2 2444.85 2427.8 2445.6 2427 2456.85 2415.2 2468.65 2404.6
M 2496.3 2369.7
Q 2494.65 2370.9 2494.35 2372.9 2494 2374.9 2495.2 2376.55 2496.15 2377.9 2497.8 2378.35 2499.4 2378.8 2500.9 2378.2 2501.45 2378 2502 2377.6 2518 2366.1 2528.85 2360.2 2530.6 2359.2 2531.2 2357.3 2531.75 2355.35 2530.8 2353.6 2529.85 2351.8 2527.9 2351.25 2526 2350.65 2524.2 2351.6 2521.15 2353.25 2516.3 2356.25 2506.7 2362.2 2496.3 2369.7 Z"/>
</g>
</g>
</g>

<g transform="matrix( 0.1950225830078125, 0.0776519775390625, -0.0776519775390625, 0.1950225830078125, -84.4,-524) ">
<g>
<g>
<path fill="#A0CCA8" stroke="none" d="
M 2955.75 3116.2
Q 2953.8 3116.75 2952.8 3118.45 2951.75 3120.2 2952.25 3122.15
L 2955.9 3136.75
Q 2956.4 3138.75 2958.1 3139.8 2959.85 3140.85 2961.8 3140.35
L 2962.4 3140.15
Q 2964.1 3139.5 2964.95 3137.9 2965.8 3136.25 2965.4 3134.45
L 2961.7 3119.75
Q 2961.2 3117.8 2959.5 3116.75 2957.75 3115.7 2955.75 3116.2
M 2941.5 3046.4
Q 2940.95 3044.5 2939.15 3043.5 2937.4 3042.55 2935.45 3043.1 2933.55 3043.65 2932.55 3045.45 2931.6 3047.2 2932.15 3049.15 2937 3065.8 2941.05 3080.35 2941.6 3082.3 2943.4 3083.3 2945.15 3084.3 2947.1 3083.75
L 2947.55 3083.6
Q 2949.3 3082.9 2950.15 3081.25 2950.95 3079.6 2950.45 3077.75 2945.95 3061.5 2941.5 3046.4
M 2913.1 2970.6
Q 2911.2 2971.2 2910.25 2973 2909.3 2974.8 2909.95 2976.7 2917.85 3001.85 2919.65 3007.7 2920.25 3009.65 2922.05 3010.6 2923.85 3011.5 2925.75 3010.9
L 2926.05 3010.8
Q 2927.85 3010.15 2928.7 3008.4 2929.55 3006.7 2929 3004.85
L 2919.25 2973.75
Q 2918.6 2971.85 2916.8 2970.9 2915 2969.95 2913.1 2970.6
M 2895.5 2901.6
Q 2894.85 2899.7 2893.05 2898.8 2891.2 2897.85 2889.3 2898.5 2887.4 2899.15 2886.5 2900.95 2885.6 2902.8 2886.25 2904.7 2890.35 2916.7 2896.55 2935.5 2897.2 2937.45 2899 2938.35 2900.8 2939.25 2902.7 2938.6
L 2902.95 2938.55
Q 2904.75 2937.85 2905.6 2936.1 2906.45 2934.3 2905.8 2932.45 2902.5 2922.4 2895.5 2901.6
M 2870.7 2829.8
Q 2870.05 2827.9 2868.2 2827 2866.35 2826.15 2864.45 2826.8 2862.55 2827.45 2861.7 2829.3 2860.85 2831.15 2861.5 2833.05 2871.9 2862.75 2872.2 2863.7 2872.85 2865.6 2874.7 2866.5 2876.5 2867.4 2878.4 2866.75
L 2878.6 2866.65
Q 2880.4 2865.95 2881.25 2864.2 2882.1 2862.35 2881.45 2860.5
L 2870.7 2829.8
M 2845 2758.3
Q 2844.3 2756.45 2842.45 2755.6 2840.65 2754.75 2838.75 2755.4
L 2838.65 2755.45
Q 2836.8 2756.15 2836 2757.95 2835.15 2759.8 2835.85 2761.65
L 2846.9 2792.2
Q 2847.6 2794.1 2849.45 2794.95 2851.25 2795.85 2853.15 2795.15
L 2853.25 2795.1
Q 2855.1 2794.4 2855.95 2792.6 2856.8 2790.8 2856.1 2788.9
L 2845 2758.3
M 2829.9 2721.35
Q 2830.7 2719.5 2830 2717.65
L 2818.6 2687.15
Q 2817.9 2685.25 2816.05 2684.4 2814.25 2683.6 2812.35 2684.3
L 2812.3 2684.3
Q 2810.45 2685 2809.6 2686.85 2808.8 2688.7 2809.5 2690.55
L 2820.85 2721
Q 2821.55 2722.9 2823.4 2723.75 2825.25 2724.6 2827.15 2723.9
L 2827.2 2723.9
Q 2829.05 2723.15 2829.9 2721.35
M 2791.6 2616.2
Q 2790.9 2614.3 2789.05 2613.45 2787.2 2612.65 2785.3 2613.4 2783.45 2614.1 2782.6 2615.95 2781.8 2617.8 2782.5 2619.7
L 2794.15 2650.05
Q 2794.85 2651.95 2796.7 2652.75 2798.55 2653.55 2800.45 2652.85 2802.35 2652.15 2803.15 2650.3 2803.95 2648.45 2803.25 2646.55
L 2791.6 2616.2
M 2736 2474.85
Q 2735.25 2473 2733.4 2472.25 2731.6 2471.45 2729.75 2472.15
L 2729.65 2472.15
Q 2727.8 2472.9 2727 2474.75 2726.2 2476.6 2726.95 2478.5
L 2739.05 2508.7
Q 2739.75 2510.55 2741.6 2511.35 2743.4 2512.15 2745.3 2511.45
L 2745.35 2511.4
Q 2747.25 2510.7 2748.05 2508.85 2748.85 2507 2748.1 2505.1
L 2736 2474.85
M 2707.5 2404.5
Q 2706.7 2402.6 2704.85 2401.85 2702.95 2401.05 2701.1 2401.85 2699.25 2402.6 2698.5 2404.45 2697.7 2406.35 2698.45 2408.2
L 2710.75 2438.3
Q 2711.5 2440.15 2713.35 2440.95 2715.15 2441.75 2717 2441.05
L 2717.1 2441
Q 2719 2440.25 2719.75 2438.4 2720.55 2436.5 2719.75 2434.65
L 2707.5 2404.5
M 2764.05 2545.45
Q 2763.35 2543.6 2761.5 2542.75 2759.65 2541.95 2757.8 2542.65
L 2757.75 2542.7
Q 2755.9 2543.4 2755.05 2545.25 2754.25 2547.15 2755 2549
L 2766.85 2579.25
Q 2767.55 2581.1 2769.4 2581.95 2771.25 2582.75 2773.15 2582.05 2775.05 2581.3 2775.85 2579.45 2776.65 2577.65 2775.95 2575.75
L 2764.05 2545.45
M 2671.95 2331.7
Q 2670.1 2332.5 2669.35 2334.35 2668.6 2336.25 2669.4 2338.1
L 2681.95 2368.1
Q 2682.7 2369.95 2684.5 2370.75 2686.35 2371.5 2688.2 2370.8
L 2688.3 2370.75
Q 2690.15 2369.95 2690.95 2368.1 2691.7 2366.25 2690.95 2364.4
L 2678.35 2334.3
Q 2677.55 2332.45 2675.7 2331.7 2673.8 2330.95 2671.95 2331.7 Z"/>
</g>
</g>
</g>

<g transform="matrix( 0.1950225830078125, 0.0776519775390625, -0.0776519775390625, 0.1950225830078125, -84.4,-524) ">
<g>
<g>
<path fill="#A0CCA8" stroke="none" d="
M 3238.4 2987.55
Q 3237.45 2985.8 3235.5 2985.2 3233.55 2984.6 3231.8 2985.55 3230 2986.5 3229.4 2988.4 3228.8 2990.35 3229.75 2992.1
L 3244.8 3020.9
Q 3245.65 3022.6 3247.4 3023.25 3249.15 3023.9 3250.9 3023.2
L 3251.4 3023
Q 3253.2 3022.05 3253.8 3020.15 3254.4 3018.2 3253.45 3016.4
L 3238.4 2987.55
M 3193.6 2921.6
Q 3193.05 2923.55 3194 2925.3
L 3209.45 2953.85
Q 3210.3 2955.5 3212.05 2956.15 3213.75 2956.8 3215.5 2956.1
L 3216.05 2955.85
Q 3217.8 2954.9 3218.4 2953 3219 2951.05 3218.05 2949.25
L 3202.55 2920.65
Q 3201.6 2918.85 3199.65 2918.3 3197.7 2917.7 3195.95 2918.7 3194.2 2919.65 3193.6 2921.6
M 3144.9 2820.2
Q 3145.4 2818.2 3144.4 2816.45 3131 2793.3 3128.1 2788.3 3127.1 2786.55 3125.15 2786.05 3123.15 2785.55 3121.45 2786.55 3119.7 2787.55 3119.2 2789.5 3118.7 2791.45 3119.7 2793.2
L 3135.95 2821.35
Q 3136.85 2822.9 3138.55 2823.5 3140.25 2824.1 3141.9 2823.45
L 3142.6 2823.15
Q 3144.35 2822.15 3144.9 2820.2
M 3165.85 2854.2
Q 3164.85 2852.45 3162.9 2851.9 3160.95 2851.35 3159.2 2852.35 3157.45 2853.35 3156.9 2855.3 3156.35 2857.25 3157.35 2859 3167.1 2876.3 3173.15 2887.35 3174.05 2888.95 3175.8 2889.55 3177.5 2890.2 3179.2 2889.5
L 3179.8 2889.25
Q 3181.55 2888.3 3182.1 2886.3 3182.7 2884.35 3181.7 2882.6
L 3165.85 2854.2
M 2875.1 2409.65
Q 2873.85 2408.1 2871.85 2407.85 2869.85 2407.6 2868.25 2408.85 2866.7 2410.15 2866.45 2412.15 2866.2 2414.15 2867.45 2415.7 2877.3 2428.1 2887.4 2441.3 2888.4 2442.6 2890 2443 2891.55 2443.4 2893.05 2442.85 2893.45 2442.7 2894.25 2442.2 2895.85 2440.95 2896.15 2438.95 2896.4 2436.95 2895.15 2435.35 2887 2424.65 2875.1 2409.65
M 3086.3 2720.85
Q 3084.35 2720.35 3082.6 2721.4 3080.9 2722.45 3080.4 2724.4 3079.95 2726.35 3081 2728.1
L 3097.7 2755.9
Q 3098.65 2757.45 3100.3 2758.05 3102 2758.6 3103.65 2758
L 3104.4 2757.6
Q 3106.1 2756.6 3106.6 2754.65 3107.1 2752.7 3106.1 2750.95 3097 2735.7 3089.3 2723.05 3088.25 2721.3 3086.3 2720.85
M 3049.35 2658.45
Q 3048.3 2656.75 3046.3 2656.3 3044.35 2655.85 3042.65 2656.95 3040.95 2658 3040.5 2660 3040.05 2661.95 3041.1 2663.65 3050.15 2677.9 3058.35 2691.2 3059.3 2692.7 3060.95 2693.25 3062.65 2693.8 3064.25 2693.15
L 3065.05 2692.75
Q 3066.75 2691.7 3067.25 2689.75 3067.7 2687.8 3066.65 2686.05
L 3049.35 2658.45
M 3026 2621.9
L 3008.15 2594.65
Q 3007.05 2592.95 3005.05 2592.55 3003.1 2592.2 3001.4 2593.3 2999.7 2594.4 2999.3 2596.4 2998.9 2598.35 3000 2600.05 3009 2613.6 3017.8 2627.2 3018.75 2628.65 3020.4 2629.2 3022.05 2629.7 3023.65 2629.1
L 3024.55 2628.65
Q 3026.25 2627.55 3026.65 2625.6 3027.1 2623.6 3026 2621.9
M 2956.7 2533.7
Q 2956.35 2535.7 2957.5 2537.35 2967.2 2551.25 2975.9 2564.1 2976.85 2565.5 2978.5 2566 2980.1 2566.5 2981.7 2565.9 2981.95 2565.85 2982.7 2565.4 2984.35 2564.25 2984.75 2562.3 2985.1 2560.3 2983.95 2558.6 2975.8 2546.55 2965.5 2531.8 2964.4 2530.15 2962.4 2529.8 2960.4 2529.45 2958.75 2530.6 2957.05 2531.7 2956.7 2533.7
M 2921.25 2470.05
Q 2920.05 2468.4 2918.05 2468.1 2916.05 2467.8 2914.45 2469 2912.85 2470.2 2912.5 2472.2 2912.2 2474.2 2913.4 2475.85 2924.3 2490.55 2932.5 2502.05 2933.5 2503.45 2935.1 2503.9 2936.7 2504.35 2938.25 2503.75 2938.9 2503.45 2939.35 2503.15 2940.95 2502 2941.3 2500 2941.6 2498 2940.45 2496.35 2930.3 2482.25 2921.25 2470.05
M 2826.6 2351.1
Q 2825.25 2349.55 2823.25 2349.45 2821.2 2349.3 2819.7 2350.6 2818.15 2351.95 2818.05 2353.95 2817.9 2355.95 2819.2 2357.5 2827.95 2367.5 2840.25 2382.15 2841.25 2383.35 2842.8 2383.75 2844.3 2384.15 2845.75 2383.6 2846.65 2383.2 2847.1 2382.8 2848.65 2381.5 2848.85 2379.5 2849 2377.45 2847.7 2375.9 2836.75 2362.8 2826.6 2351.1
M 2797.15 2325.7
Q 2798.65 2324.3 2798.7 2322.3 2798.75 2320.3 2797.35 2318.8 2787.95 2308.85 2780.3 2301.35 2775.6 2296.8 2774.15 2295.55 2772.65 2294.2 2770.65 2294.3 2768.6 2294.4 2767.25 2295.9 2765.9 2297.4 2766 2299.45 2766.1 2301.45 2767.6 2302.8 2767.95 2303 2773.5 2308.4 2781.05 2315.8 2790.3 2325.55 2791.35 2326.6 2792.8 2326.95 2794.2 2327.25 2795.55 2326.75 2796.5 2326.35 2797.15 2325.7 Z"/>
</g>
</g>
</g>

<g transform="matrix( 0.1950225830078125, 0.0776519775390625, -0.0776519775390625, 0.1950225830078125, -84.4,-524) ">
<g>
<g>
<path fill="#A0CCA8" stroke="none" d="
M 3403.15 2870.7
Q 3405.05 2870 3405.9 2868.15 3406.7 2866.3 3405.95 2864.4
L 3405.7 2863.75
Q 3400.15 2849.35 3393.45 2834.1 3392.65 2832.25 3390.75 2831.55 3388.85 2830.8 3387 2831.6 3385.15 2832.45 3384.4 2834.3 3383.7 2836.2 3384.5 2838.05 3391.15 2853.1 3396.6 2867.25
L 3396.85 2867.9
Q 3397.6 2869.8 3399.45 2870.65 3401.3 2871.45 3403.15 2870.7
M 3351.6 2766.05
Q 3350.95 2767.95 3351.85 2769.75 3360.2 2786.15 3366.3 2798.8 3367.15 2800.55 3368.95 2801.25 3370.7 2801.95 3372.45 2801.25
L 3372.85 2801.1
Q 3374.65 2800.2 3375.3 2798.3 3375.95 2796.4 3375.1 2794.55 3368.1 2780.1 3360.55 2765.35 3359.65 2763.5 3357.75 2762.9 3355.8 2762.25 3354 2763.2 3352.2 2764.1 3351.6 2766.05
M 3318.35 2696.15
Q 3316.55 2697.1 3316 2699.05 3315.4 2701 3316.4 2702.75 3323.75 2716.15 3331.85 2731.35 3332.75 2733 3334.5 2733.6 3336.2 2734.25 3337.9 2733.6
L 3338.45 2733.35
Q 3340.25 2732.4 3340.85 2730.45 3341.45 2728.5 3340.5 2726.75 3331.6 2710.1 3324.95 2698.05 3324 2696.3 3322.05 2695.75 3320.1 2695.2 3318.35 2696.15
M 3278.55 2633.05
Q 3278.05 2635.05 3279.05 2636.75 3286.85 2650.15 3295.25 2664.95 3296.2 2666.5 3297.9 2667.1 3299.6 2667.7 3301.25 2667.05 3301.6 2667 3301.9 2666.75 3303.65 2665.75 3304.2 2663.8 3304.75 2661.85 3303.75 2660.1 3298.1 2650.15 3287.5 2631.85 3286.5 2630.1 3284.55 2629.6 3282.55 2629.1 3280.8 2630.1 3279.05 2631.1 3278.55 2633.05
M 3248.45 2566.6
Q 3247.35 2564.9 3245.4 2564.4 3243.45 2563.95 3241.7 2565 3240 2566.05 3239.55 2568 3239.05 2570 3240.15 2571.7 3246.7 2582.3 3257 2599.45 3257.95 2601 3259.6 2601.55 3261.3 2602.15 3262.9 2601.5
L 3263.7 2601.1
Q 3265.45 2600.1 3265.9 2598.15 3266.4 2596.2 3265.35 2594.45 3258.75 2583.4 3248.45 2566.6
M 3207.7 2502.35
Q 3206.6 2500.65 3204.6 2500.25 3202.65 2499.8 3200.95 2500.9 3199.25 2502.05 3198.85 2504 3198.45 2505.95 3199.55 2507.65 3210.1 2523.9 3217.15 2535 3218.1 2536.45 3219.75 2537 3221.4 2537.55 3223 2536.9
L 3223.9 2536.5
Q 3225.6 2535.4 3226 2533.45 3226.45 2531.45 3225.35 2529.75 3217.4 2517.15 3207.7 2502.35
M 3136.9 2411.8
Q 3137.5 2411.55 3138.1 2411.15 3139.7 2409.9 3140 2407.9 3140.25 2405.9 3139 2404.3 3127.85 2389.65 3118.6 2378.65 3117.3 2377.1 3115.3 2376.95 3113.3 2376.75 3111.75 2378.05 3110.2 2379.3 3110 2381.35 3109.8 2383.35 3111.1 2384.9 3120.5 2396.15 3131.25 2410.2 3132.25 2411.55 3133.85 2411.95 3135.35 2412.35 3136.9 2411.8
M 3181.25 2473.45
Q 3181.7 2473.35 3182.25 2472.95 3183.9 2471.8 3184.3 2469.85 3184.65 2467.85 3183.5 2466.15 3171.8 2449.1 3164.85 2439.4 3163.7 2437.75 3161.7 2437.4 3159.7 2437.05 3158.05 2438.25 3156.4 2439.4 3156.05 2441.4 3155.75 2443.4 3156.9 2445.05 3165 2456.4 3175.45 2471.65 3176.4 2473.1 3178.05 2473.6 3179.7 2474.05 3181.25 2473.45
M 3063.05 2325.45
Q 3061.4 2324.25 3059.4 2324.6 3057.4 2324.95 3056.25 2326.6 3055.1 2328.25 3055.45 2330.25 3055.8 2332.25 3057.45 2333.4 3070.8 2342.85 3082.15 2353.4 3083.2 2354.4 3084.6 2354.65 3085.95 2354.9 3087.25 2354.4 3088.35 2354 3089.05 2353.2 3090.45 2351.75 3090.4 2349.7 3090.3 2347.7 3088.85 2346.3 3076.8 2335.1 3063.05 2325.45
M 2995.6 2288.75
Q 2993.75 2287.95 2991.85 2288.7 2990 2289.45 2989.2 2291.3 2988.4 2293.2 2989.15 2295.05 2989.95 2296.9 2991.8 2297.7 3007.15 2304.15 3020.9 2311.35 3022.9 2312.35 3024.9 2311.55 3026.6 2310.95 3027.5 2309.25 3028.4 2307.45 3027.8 2305.55 3027.2 2303.6 3025.4 2302.7 3011.35 2295.4 2995.6 2288.75
M 2954.55 2273.4
Q 2938.75 2268.2 2923.15 2263.95 2921.2 2263.45 2919.45 2264.45 2917.7 2265.45 2917.15 2267.4 2916.65 2269.35 2917.65 2271.1 2918.65 2272.85 2920.6 2273.4 2937.35 2278 2951.5 2282.7 2953.25 2283.25 2954.8 2282.6 2956.95 2281.75 2957.65 2279.55 2958.3 2277.65 2957.4 2275.85 2956.45 2274.05 2954.55 2273.4
M 2781.65 2238.5
Q 2772.85 2237.8 2772.55 2237.75 2770.55 2237.65 2769.05 2239 2767.5 2240.35 2767.4 2242.35 2767.3 2244.35 2768.6 2245.85 2769.95 2247.4 2771.95 2247.5 2772.05 2247.5 2780.7 2248.2 2791.8 2249.2 2804.15 2250.7 2805.4 2250.85 2806.5 2250.45 2807.75 2249.95 2808.6 2248.9 2809.45 2247.8 2809.6 2246.45 2809.85 2244.45 2808.6 2242.85 2807.35 2241.3 2805.35 2241.05 2792.8 2239.5 2781.65 2238.5
M 2848.55 2247.45
Q 2846.55 2247.1 2844.9 2248.25 2843.3 2249.4 2842.9 2251.4 2842.55 2253.4 2843.75 2255.05 2844.9 2256.7 2846.9 2257.05 2861.85 2259.65 2878.7 2263.2 2880.05 2263.5 2881.45 2263 2883.9 2262 2884.45 2259.45 2884.9 2257.45 2883.8 2255.8 2882.7 2254.1 2880.7 2253.65 2866.15 2250.55 2848.55 2247.45 Z"/>
</g>
</g>
</g>

<g transform="matrix( 0.1950225830078125, 0.0776519775390625, -0.0776519775390625, 0.1950225830078125, -84.4,-524) ">
<g>
<g>
<path fill="#3E5F8B" stroke="none" d="
M 3040.9 3122
Q 3019.9 3126.5 2960.55 3135.65 2896.45 3145.5 2845.6 3155.65 2723.2 3180.1 2583.95 3236.95 2532.75 3257.85 2472.9 3285.75 2454.5 3294.35 2379.05 3330.6 2351.8 3343.7 2357.35 3396.4 2362.2 3442.8 2390.55 3508.05 2417.2 3569.45 2452.5 3620.65 2489.1 3673.8 2516.95 3689.2 2543.3 3703.8 2597 3689.15 2641 3677.2 2705.75 3644.7 2748.35 3623.35 2816.85 3583.95 2886.9 3543.65 2904 3534.95 2975.25 3498.7 3055.25 3470.65 3148.6 3437.85 3306.4 3396.7 3387.15 3375.6 3460.35 3346.4 3529.45 3318.8 3581.1 3288.35 3631.9 3258.35 3655.85 3231.5 3680.45 3203.9 3671.6 3185.05 3660.6 3162.25 3655.5 3151.4 3646.75 3132.85 3638.8 3113.25 3618.15 3062.25 3577.3 2940.4 3555.5 2875.35 3512.55 2868.1 3476.75 2862.05 3420.05 2896.4 3397.5 2910.05 3367.35 2932.6 3351.05 2944.75 3312.4 2975.15 3276.6 3003.25 3256.85 3017.75 3226.25 3040.2 3202.3 3054.15 3150.75 3084.15 3112.75 3099.8 3078.5 3113.9 3040.9 3122 Z"/>
</g>
</g>
</g>

<g transform="matrix( 0.1950225830078125, 0.0776519775390625, -0.0776519775390625, 0.1950225830078125, -84.4,-524) ">
<g>
<g>
<path fill="#FEE9CE" stroke="none" d="
M 3508 3097.45
Q 3519.95 3074.15 3541.3 3060.7 3562.6 3047.25 3592.85 3043.95 3602.3 3042.9 3612.5 3043
L 3609.05 3033.25
Q 3600.4 3033.35 3592.1 3034.25 3559.6 3037.75 3535.95 3052.7 3512.3 3067.65 3499.3 3093 3484.7 3121.5 3461.95 3141.1 3439.2 3160.7 3408.8 3171.05 3348.9 3191.4 3267.6 3174.05 3196.2 3158.8 3130.6 3185.9 3102.15 3197.6 3078.75 3216.1 3056.55 3233.65 3042.2 3254.55 3024.7 3280 2996.65 3300.65 2968.65 3321.3 2935.1 3333.4 2901.85 3345.4 2867.5 3347.35 2822.2 3349.95 2779 3334.75 2753.95 3325.9 2721.85 3328.6 2690.6 3331.15 2656.15 3344.3 2621.7 3357.45 2588.2 3379.55 2553.75 3402.25 2524.25 3431.9 2493.15 3463.1 2458.05 3483.2 2431.35 3498.45 2404.2 3506.3 2397.45 3508.25 2391.2 3509.6
L 2395.25 3518.65
Q 2400.6 3517.45 2406.35 3515.8 2444 3505.05 2479.75 3481.25 2506.9 3463.1 2531.2 3438.75 2559 3410.85 2591.7 3389 2624.45 3367.15 2658 3354.05 2691.7 3340.95 2722.05 3338.35 2752.45 3335.75 2775.75 3343.95 2820.8 3359.8 2867.95 3357.15 2903.8 3355.1 2938.4 3342.6 2973.35 3329.95 3002.6 3308.4 3031.9 3286.8 3050.25 3260.05 3063.95 3240.15 3085.1 3223.5 3107.45 3205.9 3134.6 3194.75 3197.25 3169 3265.6 3183.55 3349.5 3201.45 3411.95 3180.3
L 3419 3177.75
Q 3478.55 3154.85 3508 3097.45 Z"/>
</g>
</g>
</g>

<g transform="matrix( 0.1950225830078125, 0.0776519775390625, -0.0776519775390625, 0.1950225830078125, -84.4,-524) ">
<g>
<g>
<path fill="#FEE9CE" stroke="none" d="
M 3527.45 3148.05
Q 3539.4 3124.75 3560.75 3111.35 3582.05 3097.9 3612.3 3094.6 3621.65 3093.6 3631.05 3093.6
L 3627.4 3083.85
Q 3620.05 3084 3611.55 3084.85 3579.05 3088.35 3555.4 3103.3 3531.8 3118.3 3518.8 3143.6 3504.15 3172.1 3481.45 3191.7 3458.7 3211.35 3428.25 3221.65 3368.3 3242.05 3287.1 3224.65 3215.65 3209.4 3150.1 3236.5 3121.65 3248.25 3098.25 3266.75 3076.05 3284.25 3061.7 3305.15 3044.2 3330.65 3016.15 3351.3 2988.1 3371.95 2954.55 3384.05 2921.3 3396.05 2886.95 3398 2841.65 3400.6 2798.45 3385.35 2773.4 3376.55 2741.3 3379.2 2710.05 3381.8 2675.6 3394.95 2641.15 3408.05 2607.7 3430.15 2573.25 3452.85 2543.75 3482.5 2512.65 3513.75 2477.5 3533.8 2450.85 3549.05 2423.65 3556.9 2419.3 3558.2 2415.25 3559.15
L 2420.05 3568 2425.8 3566.45
Q 2463.45 3555.7 2499.2 3531.85 2526.4 3513.75 2550.65 3489.4 2578.45 3461.5 2611.2 3439.65 2643.95 3417.75 2677.45 3404.7 2711.1 3391.6 2741.5 3389 2771.95 3386.35 2795.25 3394.55 2840.25 3410.45 2887.4 3407.75 2923.25 3405.7 2957.85 3393.2 2992.8 3380.55 3022.1 3359 3051.4 3337.4 3069.7 3310.7 3083.4 3290.8 3104.55 3274.1 3126.85 3256.55 3154.05 3245.35 3216.7 3219.6 3285.05 3234.2 3369.05 3252.15 3431.4 3230.9 3435 3229.7 3438.45 3228.35 3498 3205.45 3527.45 3148.05 Z"/>
</g>
</g>
</g>

<g transform="matrix( 0.1950225830078125, 0.0776519775390625, -0.0776519775390625, 0.1950225830078125, -84.4,-524) ">
<g>
<g>
<path fill="#FEE9CE" stroke="none" d="
M 3580.2 3161.95
Q 3601.5 3148.5 3631.8 3145.2 3641.6 3144.15 3652.15 3144.25
L 3647.8 3134.5
Q 3639.2 3134.6 3631 3135.5 3598.5 3139 3574.85 3153.95 3551.2 3168.9 3538.25 3194.25 3523.65 3222.75 3500.9 3242.35 3478.15 3261.95 3447.75 3272.3 3387.85 3292.65 3306.55 3275.3 3235.15 3260.05 3169.55 3287.15 3141.1 3298.85 3117.7 3317.35 3095.5 3334.9 3081.15 3355.8 3063.65 3381.25 3035.6 3401.9 3007.55 3422.55 2974 3434.65 2940.75 3446.65 2906.4 3448.6 2861.15 3451.2 2817.95 3436 2792.9 3427.2 2760.75 3429.85 2729.55 3432.45 2695.1 3445.6 2660.65 3458.7 2627.15 3480.8 2592.75 3503.5 2563.2 3533.15 2532.05 3564.4 2496.95 3584.45 2470.25 3599.7 2443.1 3607.55
L 2449.2 3615.9
Q 2485.6 3604.8 2520.15 3581.5 2546.6 3563.65 2570.1 3540 2597.85 3512.1 2630.65 3490.25 2663.35 3468.4 2696.9 3455.3 2730.55 3442.2 2760.95 3439.6 2791.4 3437 2814.7 3445.2 2859.75 3461.05 2906.9 3458.4 2942.75 3456.35 2977.35 3443.85 3012.3 3431.2 3041.55 3409.65 3070.85 3388.05 3089.2 3361.3 3102.85 3341.4 3124 3324.75 3146.35 3307.15 3173.55 3296 3236.2 3270.25 3304.5 3284.85 3388.5 3302.7 3450.85 3281.55 3454.45 3280.35 3457.9 3279 3487.55 3267.6 3509.95 3247.45 3532.3 3227.3 3546.95 3198.7 3558.9 3175.4 3580.2 3161.95 Z"/>
</g>
</g>
</g>

<g transform="matrix( 0.1950225830078125, 0.0776519775390625, -0.0776519775390625, 0.1950225830078125, -84.4,-524) ">
<g>
<g>
<path fill="#FEE9CE" stroke="none" d="
M 2688.8 3526.8
Q 2683.75 3538.2 2688.2 3549.8 2692.65 3561.45 2704.05 3566.5 2715.45 3571.55 2727.05 3567.1 2738.7 3562.65 2743.75 3551.25 2748.8 3539.9 2744.35 3528.25 2739.85 3516.6 2728.5 3511.55 2717.1 3506.5 2705.5 3510.95 2693.9 3515.4 2688.8 3526.8 Z"/>
</g>
</g>
</g>

<g transform="matrix( 0.1950225830078125, 0.0776519775390625, -0.0776519775390625, 0.1950225830078125, -84.4,-524) ">
<g>
<g>
<path fill="#FEE9CE" stroke="none" d="
M 2932.75 3311.8
Q 2944.4 3307.35 2949.45 3295.95 2954.5 3284.6 2950.05 3272.95 2945.6 3261.35 2934.2 3256.3 2922.85 3251.25 2911.2 3255.7 2899.6 3260.15 2894.5 3271.55 2889.45 3282.95 2893.9 3294.55 2898.4 3306.2 2909.8 3311.25 2921.15 3316.3 2932.75 3311.8 Z"/>
</g>
</g>
</g>

<g transform="matrix( 0.1950225830078125, 0.0776519775390625, -0.0776519775390625, 0.1950225830078125, -84.4,-524) ">
<g>
<g>
<path fill="#FEE9CE" stroke="none" d="
M 2423.2 3426.75
Q 2411.6 3431.2 2406.55 3442.6 2401.5 3454 2405.95 3465.6 2410.4 3477.2 2421.8 3482.25 2433.15 3487.3 2444.8 3482.85 2456.45 3478.4 2461.5 3467 2466.55 3455.65 2462.1 3444 2457.6 3432.35 2446.2 3427.3 2434.8 3422.25 2423.2 3426.75 Z"/>
</g>
</g>
</g>

<g transform="matrix( 0.1950225830078125, 0.0776519775390625, -0.0776519775390625, 0.1950225830078125, -84.4,-524) ">
<g>
<g>
<path fill="#FEE9CE" stroke="none" d="
M 3258.7 3353.25
Q 3263.75 3341.9 3259.3 3330.25 3254.85 3318.65 3243.45 3313.6 3232.1 3308.55 3220.45 3313 3208.85 3317.45 3203.75 3328.85 3198.7 3340.25 3203.15 3351.85 3207.6 3363.5 3219 3368.55 3230.4 3373.6 3242 3369.1 3253.65 3364.65 3258.7 3353.25 Z"/>
</g>
</g>
</g>

<g transform="matrix( 0.1950225830078125, 0.0776519775390625, -0.0776519775390625, 0.1950225830078125, -84.4,-524) ">
<g>
<g>
<path fill="#FEE9CE" stroke="none" d="
M 3382.3 3089.65
Q 3370.7 3094.1 3365.6 3105.5 3360.55 3116.9 3365 3128.5 3369.45 3140.15 3380.85 3145.2 3392.25 3150.25 3403.85 3145.75 3415.5 3141.3 3420.55 3129.9 3425.6 3118.55 3421.15 3106.9 3416.7 3095.3 3405.3 3090.25 3393.95 3085.2 3382.3 3089.65 Z"/>
</g>
</g>
</g>

<g transform="matrix( 0.1950225830078125, 0.0776519775390625, -0.0776519775390625, 0.1950225830078125, -84.4,-524) ">
<g>
<g>
<path fill="#FEE9CE" stroke="none" d="
M 3622.3 3167.95
Q 3610.9 3162.9 3599.3 3167.35 3587.7 3171.8 3582.6 3183.2 3577.55 3194.6 3582 3206.2 3586.45 3217.85 3597.85 3222.9 3609.25 3227.95 3620.85 3223.5 3632.5 3219 3637.55 3207.6 3642.6 3196.2 3638.15 3184.6 3633.7 3173 3622.3 3167.95 Z"/>
</g>
</g>
</g>

<g transform="matrix( 0.1950225830078125, 0.0776519775390625, -0.0776519775390625, 0.1950225830078125, -84.4,-524) ">
<g>
<g>
<path fill="#AD0D2C" stroke="none" d="
M 3040.9 3122
Q 3019.9 3126.5 2960.55 3135.65 2896.45 3145.5 2845.6 3155.65 2723.2 3180.1 2583.95 3236.95 2532.75 3257.85 2472.9 3285.75 2454.5 3294.35 2379.05 3330.6 2359.6 3339.95 2356.85 3370.1 2354.4 3397.4 2365.75 3439 2367.65 3445.95 2374.15 3444.55 2380.05 3443.25 2391.8 3434.5 2399.65 3428.65 2419.2 3412.25 2443.4 3391.95 2456.9 3381.15 2511.45 3337.55 2565.15 3306.1 2639.65 3262.45 2720.6 3236.45 2787.1 3215.15 2887.6 3193.25 2961.95 3177.05 3077.15 3156.05 3141 3144.4 3261.4 3122.65 3359.2 3104.4 3412.45 3090.95 3514.65 3065.15 3556.25 3020.75 3574.3 3001.5 3579.35 2980.05 3584 2960.3 3577.3 2940.4 3555.5 2875.35 3512.55 2868.1 3476.75 2862.05 3420.05 2896.4 3397.5 2910.05 3367.35 2932.6 3351.05 2944.75 3312.4 2975.15 3276.6 3003.25 3256.85 3017.75 3226.25 3040.2 3202.3 3054.15 3150.75 3084.15 3112.75 3099.8 3078.5 3113.9 3040.9 3122 Z"/>
</g>
</g>
</g>

<g transform="matrix( 0.195068359375, 0.077667236328125, -0.077667236328125, 0.195068359375, -84.4,-524) ">
<g>
<g>
<path fill="#AD0D2C" stroke="none" d="
M 2856.75 2142.6
Q 2865.05 2115.75 2852.55 2092.35 2840.5 2069.7 2813.95 2059 2786.05 2047.75 2752.6 2054.4 2715.3 2061.85 2680.25 2090.4 2673.35 2096 2668.95 2094.9 2665.05 2093.9 2662.55 2087.25 2660.6 2082.15 2658.7 2071.15 2656.6 2057.6 2655.3 2050.2 2650.2 2022.05 2640.7 2008.6 2627 1989.35 2600.85 1991.65 2551.45 1996.05 2527.25 2030.5 2509.7 2055.5 2503.55 2101.45 2502.2 2111.15 2499.9 2136.65 2498.1 2156.4 2496.2 2165.2 2493.4 2177.8 2488.2 2182.1 2482.25 2187.05 2471.75 2182.55 2442.6 2170.05 2419 2182 2398.25 2192.55 2387 2218.7 2376.35 2243.5 2379 2270.4 2381.8 2298.6 2398.35 2314.75 2419.65 2335.6 2441.95 2337.2 2449.75 2337.8 2459.55 2336.1 2465 2335.15 2474.7 2333.2 2482.65 2332 2487.75 2333.45 2494.1 2335.25 2498.9 2341.65 2509.65 2356.05 2516.8 2401.5 2521.35 2430.3 2545.05 2441.2 2566.45 2451 2595.05 2443.3 2623.5 2435.65 2643.65 2414.9 2665.8 2392.15 2667.7 2363.05 2669.05 2342.1 2680.05 2342.35 2691.15 2342.65 2705.25 2364.95 2716.4 2382.55 2750.65 2384 2782.4 2385.4 2814.5 2373.1 2848.2 2360.2 2858.45 2340.65 2870.3 2318.1 2844.1 2295.25 2817.75 2272.25 2811.65 2252.6 2806.6 2236.25 2815 2217.95 2818.2 2210.9 2824.4 2201.25 2828.05 2195.6 2836.05 2183.75 2851.2 2160.65 2856.75 2142.6 Z"/>
</g>
</g>
</g>
</g>
</svg>
