
<svg xmlns="http://www.w3.org/2000/svg" version="1.1" xmlns:xlink="http://www.w3.org/1999/xlink" preserveAspectRatio="none" x="0px" y="0px" width="506px" height="506px" viewBox="0 0 506 506">
<defs/>

<g id="cartoon_cars_illustration_pack">
<g transform="matrix( 0.18988037109375, 0, 0, 0.18988037109375, 59.8,105.25) ">
<g>
<g>
<path fill="#FCAE1B" stroke="none" d="
M 1594.9 571.65
Q 1542.85 554.65 1472 540.6 1323.2 511.15 1140.4 502.5 941.15 493.05 760.65 511.85 557.05 533.1 412.25 587.4 393 570.4 364.6 565.75 337.1 561.25 315.5 570.4 292.3 580.25 287.75 601.7 282.6 626.25 304.3 659.85 265.4 678.75 224.4 727.15 184.2 774.65 150.2 840.8 115.2 908.9 93.9 983.1 71.15 1062.4 67.8 1136.3 52.5 1138.8 38.85 1147.95 26.3 1156.4 16.85 1169.3 7.8 1181.65 3.4 1195.65 -1 1209.75 0.3 1222.3 1.65 1235.5 9.2 1244.4 17.35 1254.1 31.8 1257.3 65.5 1264.9 124.85 1236.55 182.05 1278.15 279.2 1312.9 371.75 1346 494.45 1370.75 613.05 1394.7 750.1 1408.9 885.45 1422.9 1025.8 1426.05 1167.65 1429.25 1301.1 1421.1 1438.8 1412.65 1555.55 1392.75 1678 1371.9 1768.8 1339.85 1864.95 1305.95 1920.35 1261.2 1926.75 1275.35 1938.1 1283.65 1948.5 1291.3 1961.8 1293.1 1974.4 1294.8 1987.25 1291.05 2000 1287.35 2010.2 1279.15 2020.8 1270.6 2026.35 1258.9 2032.3 1246.3 2031.4 1231.95 2029.3 1198.3 1991.3 1164.05 2010.15 1040 1922.05 867.25 1891.1 806.6 1849.25 744.7 1820.5 702.25 1792.6 667.6 1818.5 640 1818.4 615.25 1818.35 592.55 1797.35 580.9 1776.2 569.1 1744.75 574.9 1710 581.3 1676 607.6 1647.8 588.95 1594.9 571.65 Z"/>
</g>
</g>
</g>

<g transform="matrix( 0.18988037109375, 0, 0, 0.18988037109375, 59.8,105.25) ">
<g>
<g>
<path fill="#F58E1E" stroke="none" d="
M 1795.85 734.75
Q 1771.8 711.95 1620.8 692.95 1499.95 677.75 1303.85 665.7 1163.8 657.05 1000 650.85
L 864.3 646.35 293.75 587.65
Q 285.25 600.3 287.2 617.6 289.4 636.75 304.3 659.85 279.95 671.65 254.25 695.65 229.15 719.05 204.65 752.2 243.45 760.45 285.15 782 326.7 803.45 361.9 833.25 398.7 864.45 420.9 898.55 444.95 935.45 448.2 970.4 418.8 974.3 404.8 977.1 379.65 982.1 361.25 989.9 313.4 1010.2 296.4 1056.3 341.15 1043.7 376.65 1040.35 413.15 1036.9 443.65 1042.8 474.2 1048.7 501.65 1064.6 528.45 1080.1 555 1106.65 570.75 1109.45 599.3 1116.15 615.8 1120 653.15 1128.85 726.65 1145.75 779.6 1151.75 855.05 1160.3 914.35 1151.15 986.1 1140.1 1037.35 1102.95 1054.55 1141.25 1121.6 1160.25 1183.1 1177.7 1269.35 1174.75 1354.1 1171.85 1430.9 1150.6 1512.45 1127.95 1556.55 1091.9 1642.4 1021.65 1713.35 1002.6 1775.25 985.95 1821.55 1009.05 1808.25 966.25 1758.4 953 1742.8 948.85 1725.45 948.15
L 1711.2 948.3 1717.7 941.85
Q 1725.9 933.5 1734.25 924.25 1761.1 894.55 1779.8 866.35 1805.95 826.9 1812.15 796.05 1819.9 757.5 1795.85 734.75 Z"/>
</g>
</g>
</g>

<g transform="matrix( 0.18988037109375, 0, 0, 0.18988037109375, 59.8,105.25) ">
<g>
<g>
<path fill="#CD5B22" stroke="none" d="
M 1700 684.35
Q 1698.75 683.1 1697 683.1 1695.3 683.05 1694 684.25 1692.75 685.5 1692.75 687.25 1692.7 689 1693.95 690.25 1730.55 727.95 1762.6 778.1 1796.45 831 1819.8 889.45 1845.05 952.65 1855.2 1015.35 1866.25 1083.75 1858.45 1146.7 1687.95 1243.45 1370.35 1268.6 1149.45 1286.05 885.45 1267.75 759.55 1259.05 635.75 1242.95 523.65 1228.35 427 1209.55 337 1192.05 278.45 1174.5 220.95 1157.25 209.35 1144.7 202.5 1087.8 216.1 1017.65 228.4 954.4 255.85 887.5 281.2 825.65 314.55 772.35 346.95 720.55 378.2 690.35 379.45 689.1 379.45 687.35 379.5 685.65 378.3 684.35 377.05 683.1 375.3 683.1 373.6 683.05 372.3 684.25 339.7 715.8 306.7 768.25 272.6 822.45 247.05 884.95 219.35 952.6 207.2 1017 193.75 1088.2 201.1 1147 201.25 1148.05 202 1149.15 213.45 1163.4 273.7 1181.8 333.35 1200.05 427.15 1218.15 524.7 1237.05 638.7 1251.75 761.75 1267.7 884.9 1276.2 1018.4 1285.4 1144.35 1285.4 1358 1285.4 1526.45 1258.95 1737.2 1225.85 1864.45 1153 1866.3 1151.95 1866.55 1149.9 1874.85 1085.7 1863.8 1015.9 1853.65 951.95 1828.05 887.5 1804.35 827.9 1769.9 773.9 1737.3 722.75 1700 684.35 Z"/>
</g>
</g>
</g>

<g transform="matrix( 0.1898345947265625, 0, 0, 0.1898345947265625, 59.8,105.25) ">
<g>
<g>
<path fill="#8FA8D5" stroke="none" d="
M 1552.45 566.4
Q 1502.8 551.65 1436.1 565.2 1389.55 574.7 1314.75 602.2 1273.7 617.6 1253.45 625.15 1217.4 638.6 1193.65 646.35 1127.2 668.1 1084.35 669.45 1031.05 671.1 998.55 643.15 947.85 674.8 890.85 715.15 776.9 795.9 745.55 839.7 789 910.3 908.45 958.35 1012.3 1000.15 1154.55 1018.25 1283.45 1034.65 1397.85 1026.75 1451.95 1023 1491.55 1014 1532.25 1004.8 1552.3 991.2 1603.8 956.25 1636.2 899.75 1664.2 850.75 1668.75 804.2 1674.2 748.05 1664.3 700.75 1653.8 650.25 1627.05 616.5 1598.05 579.9 1552.45 566.4 Z"/>
</g>
</g>
</g>

<g transform="matrix( 0.1898345947265625, 0, 0, 0.1898345947265625, 59.8,105.25) ">
<g>
<g>
<path fill="#517CBA" stroke="none" d="
M 1385 708.85
Q 1351.15 720.4 1329.6 746.65 1308 772.95 1304.75 806.6 1300.8 847 1325.15 886.7 1349.35 926.25 1398.15 959.45 1372.95 964.65 1356.45 972.35 1340.25 979.95 1333.7 989.5 1328.8 996.75 1329.7 1004.6 1331.8 1022.1 1359.95 1028.8 1388.15 1035.5 1435.9 1029.8 1440.3 1029.3 1443.1 1025.75 1445.85 1022.25 1445.3 1017.8 1444.8 1013.4 1441.3 1010.65 1437.8 1007.9 1433.35 1008.4 1395.65 1012.9 1371.7 1009.1 1355.35 1006.55 1351.3 1002 1354.1 996.55 1369.45 990.15 1391.8 980.8 1429.5 976.3 1433 975.9 1435.55 973.55 1438.1 971.15 1438.8 967.75 1439.5 964.35 1438.1 961.15 1436.65 958 1433.6 956.25 1378.65 924.65 1350.55 886.05 1322.45 847.45 1326.2 808.7 1328.85 781.45 1346.55 760.1 1364.2 738.75 1391.95 729.25 1426.95 717.35 1464.2 729.3 1501.45 741.2 1532.4 774.2 1535.45 777.45 1539.9 777.6 1544.35 777.75 1547.6 774.7 1550.85 771.6 1551 767.15 1551.15 762.7 1548.1 759.45 1512.65 721.7 1469.4 708.25 1426.15 694.85 1385 708.85 Z"/>
</g>
</g>
</g>

<g transform="matrix( 0.1898345947265625, 0, 0, 0.1898345947265625, 59.8,105.25) ">
<g>
<g>
<path fill="#E72F1D" stroke="none" d="
M 970.45 749
Q 943.2 765.25 921.55 785.55 900.6 805.2 887.75 826 874.85 846.8 871.9 865.6 868.9 885 877 899.55
L 877.1 899.65 877.6 900.65 893.45 927.15 893.7 927.65
Q 902.3 942.15 920.8 949 938.65 955.7 963.25 954.4 987.8 953.1 1015.3 944.05 1043.7 934.7 1071.25 918.3 1098.75 901.95 1120.5 881.4 1141.55 861.55 1154.4 840.6 1167.25 819.6 1169.9 800.75 1172.7 781.25 1164.1 766.75
L 1147.35 738.6 1147.3 738.6
Q 1138.4 724.55 1119.85 717.95 1101.95 711.55 1077.55 713 1053.1 714.4 1025.9 723.45 997.7 732.8 970.45 749 Z"/>
</g>
</g>
</g>

<g transform="matrix( 0.1898345947265625, 0, 0, 0.1898345947265625, 59.8,105.25) ">
<g>
<g>
<path fill="#FEB81A" stroke="none" d="
M 1039 908.7
Q 1015.15 922.9 1008.3 949.85 1001.5 976.75 1015.7 1000.65 1029.9 1024.5 1056.85 1031.35 1083.75 1038.15 1107.6 1023.95 1131.5 1009.75 1138.35 982.8 1145.15 955.9 1130.95 932 1116.75 908.15 1089.8 901.3 1062.85 894.5 1039 908.7 Z"/>
</g>
</g>
</g>

<g transform="matrix( 0.1898345947265625, 0, 0, 0.1898345947265625, 59.8,105.25) ">
<g>
<g>
<path fill="#E76D1D" stroke="none" d="
M 1049.3 925.95
Q 1032.6 935.95 1027.8 954.8 1023 973.6 1032.95 990.35 1042.9 1007.05 1061.75 1011.85 1080.6 1016.65 1097.35 1006.7 1114.1 996.75 1118.85 977.85 1123.65 959 1113.65 942.3 1103.7 925.6 1084.85 920.8 1066 916 1049.3 925.95 Z"/>
</g>
</g>
</g>

<g transform="matrix( 0.1898345947265625, 0, 0, 0.1898345947265625, 59.8,105.25) ">
<g>
<g>
<path fill="#ADBEDC" stroke="none" d="
M 1656.5 663
L 1647 660.65 1658.3 723.15
Q 1667 738.65 1657.2 772.2 1647.15 806.7 1622.3 843.15 1594.5 883.85 1557.2 912.95 1514.25 946.45 1465.65 958.65 1404.35 974 1312.2 945.2 1279.85 935.05 1238.85 917.9 1195.25 898.95 1177.75 891.5 1150.05 879.7 1119.5 892.05 1090.6 903.75 1071.5 931.35 1051.6 960.1 1052.1 992.7 1052.65 1029.25 1079.65 1059.35 1112.65 1096.15 1181.15 1107.1 1241.55 1116.75 1321.3 1105.45 1393.4 1095.2 1463 1070.9 1530.35 1047.35 1569.25 1019.95 1659.65 956.35 1699.85 873.9 1717.7 837.4 1723.1 801.35 1728.3 766.85 1721.55 736.85 1712 694.4 1678.55 673.3 1668.1 666.7 1656.5 663 Z"/>
</g>
</g>
</g>

<g transform="matrix( 0.1898345947265625, 0, 0, 0.1898345947265625, 59.8,105.25) ">
<g>
<g>
<path fill="#F8EFE1" stroke="none" d="
M 1357.85 1099.25
Q 1373.7 1067.8 1374.95 1025.45 1376 989.9 1367.2 958.95 1322 950.75 1263.7 927.95 1243.9 920.2 1217.35 908.7 1189.6 896.55 1177.75 891.5 1150.05 879.7 1119.5 892.05 1090.6 903.75 1071.5 931.35 1051.6 960.1 1052.1 992.7 1052.65 1029.25 1079.65 1059.35 1116.55 1100.45 1197.25 1109.25 1267.6 1116.85 1357.85 1099.25 Z"/>
</g>
</g>
</g>

<g transform="matrix( 0.1898345947265625, 0, 0, 0.1898345947265625, 59.8,105.25) ">
<g>
<g>
<path fill="#8FA8D5" stroke="none" d="
M 641.95 935.3
Q 621.4 942.2 608 956 595.1 969.35 591.1 986.8 587.05 1004.3 592.75 1022.65 606.05 1065.3 688.15 1076.4 718.7 1080.5 760.6 1080.45 784.8 1080.4 828.2 1078.5 924.25 1075.8 989.5 1055.6 1020.75 1045.95 1037.6 1033.8 1055.1 1021.25 1054.8 1007.6 1054.55 996.5 1048.2 986.8 1040.85 975.5 1026.35 968.1 990.35 949.7 919.5 958.7 875.3 964.35 842.1 961.8 816.9 959.9 790.7 952.25 762.2 942.85 746.65 938.6 719.6 931.2 691.3 929.5 663.95 927.9 641.95 935.3 Z"/>
</g>
</g>
</g>

<g transform="matrix( 0.1898345947265625, 0, 0, 0.1898345947265625, 59.8,105.25) ">
<g>
<g>
<path fill="#F8EFE1" stroke="none" d="
M 1014.2 1046.65
Q 1055.3 1028.9 1054.8 1007.6 1054.3 983.7 1026.45 970.5 991.55 954 919.5 958.7 917.65 958.85 913.6 959.05 906.05 966.8 908.9 973.7 912.35 982 930.4 984.6 917.15 989.95 909.95 997.1 903.25 1003.75 903.15 1010.4 903.05 1016.95 909.25 1021.4 915.75 1026.05 927.35 1026.95 908.7 1033.85 902.45 1048.5 899.6 1055.2 900.85 1061.4 902.15 1067.9 907.85 1072.45 974.25 1063.9 1014.2 1046.65 Z"/>
</g>
</g>
</g>

<g transform="matrix( 0.189788818359375, 0, 0, 0.189788818359375, 59.8,105.25) ">
<g>
<g>
<path fill="#35130F" stroke="none" d="
M 988.55 980.3
Q 986.55 980.6 985.3 982.2 984 983.8 984.2 985.8 984.45 987.8 985.95 989 987.5 990.15 989.5 989.9 999.6 988.45 1018.5 989.7 1038.1 991 1051.95 994.35 1049.25 988.05 1044.3 982.9 1030 980.5 1014.25 979.75 998.1 978.95 988.55 980.3 Z"/>
</g>
</g>
</g>

<g transform="matrix( 0.189788818359375, 0, 0, 0.189788818359375, 59.8,105.25) ">
<g>
<g>
<path fill="#35130F" stroke="none" d="
M 1019.4 1018.8
Q 1040.45 1016.5 1052.7 1017.25 1054.85 1012.35 1054.8 1007.65 1041.35 1006.7 1018 1009.35 998.4 1011.5 987.1 1014.15 985.15 1014.6 984.05 1016.3 982.95 1018 983.3 1019.95 983.7 1021.9 985.3 1022.95 986.95 1024 988.95 1023.55 1000.45 1020.85 1019.4 1018.8 Z"/>
</g>
</g>
</g>

<g transform="matrix( 0.1898345947265625, 0, 0, 0.1898345947265625, 59.8,105.25) ">
<g>
<g>
<path fill="#ADBEDC" stroke="none" d="
M 746.25 243.8
Q 746.45 227 741.25 217.3 735.35 206.35 724.05 208.45 703.95 212.2 693.25 247.25 689.45 259.6 688.2 271.65 687.9623046875 273.9033203125 687.85 275.75 687.0955078125 272.7833984375 685.95 268.75 680.8 250.65 672.95 235.75 662.45 215.95 650.35 209 635.3 200.3 619.05 212.65 594.2 231.55 621.85 268.55 635.7 287.05 654.5 301.75 641.2 293.1 624.4 288.25 590.75 278.55 573.15 297.75 568.15 303.2 570.8 311.8 573.5 320.5 582.85 328.3 593.05 336.8 607.8 341 624.7 345.85 644.4 343.95
L 728.55 295.3
Q 736.25 289.65 741.3 274.35 746.1 259.8 746.25 243.8 Z"/>
</g>
</g>
</g>

<g transform="matrix( 0.1898345947265625, 0, 0, 0.1898345947265625, 59.8,105.25) ">
<g>
<g>
<path fill="#ADBEDC" stroke="none" d="
M 1131.6 108.25
Q 1099.25 57.95 1065.7 29.4 1031.45 0.3 1003.1 0 956.45 -0.45 922.15 83.45 908.6 116.55 895.7 165.85 886.9 199.3 874.9 255.1 832.35 253.7 776.3 269.75 721.25 285.5 667.15 314 610.9 343.6 569.65 379.8 524.95 419 506.1 459 480.2 444.25 438 431.5 395.2 418.55 352.1 412.7 305.1 406.3 271.7 410.5 234.05 415.2 220.3 432.8 206.2 450.8 212.7 492.15 219.1 532.75 243.75 586.05 269.3 641.4 308.85 697.65 351.55 758.4 403.4 809.9 460.5 866.55 522.85 905.8 591.65 949.15 662.55 968.4 826.65 1012.95 984.45 925.7 1150.1 834.1 1209.7 670.25 1235.6 599.1 1239.85 517.55 1243.75 443.25 1229.6 364.7 1216.65 292.75 1189.9 224.15 1164.85 160 1131.6 108.25 Z"/>
</g>
</g>
</g>

<g transform="matrix( 0.1898345947265625, 0, 0, 0.1898345947265625, 59.8,105.25) ">
<g>
<g>
<path fill="#F8EFE1" stroke="none" d="
M 917.05 679.7
Q 901.5 680.45 893.3 682 882.45 684.1 874.65 688.85 866.8 693.65 850.35 715.9 824.55 750.75 812.35 765.25 808.1 770.3 795.3 783.7 780.6 799.15 772.85 807.85 743.65 840.6 733 864.3 727.3 877.05 732.1 889.2 736.65 900.65 749.95 910.2 762.9 919.5 782.15 925.6 801.55 931.8 824.2 933.7 866.9 937.35 911.45 929.05 954.1 921.1 989.2 904 1019.25 889.4 1054.6 854.75 1094.05 816.1 1116.75 773.85 1140.5 729.7 1138.2 698.6 1135.95 668.2 1109.5 657.95 1097.7 653.4 1062.2 659.8 1016.15 669.35 989.65 673.5 969.5 676.65 948.35 678.1 945.55 678.3 917.05 679.7 Z"/>
</g>
</g>
</g>

<g transform="matrix( 0.189788818359375, 0, 0, 0.189788818359375, 59.8,105.25) ">
<g>
<g>
<path fill="#517CBA" stroke="none" d="
M 1093.9 141.15
Q 1074.8 110.85 1055.25 93.3 1034.2 74.4 1016.45 73.9 991.25 73.2 971.1 100.3 954.95 121.95 942.7 160.3 933.95 187.75 928.05 220.7 925.1 237.25 923.9 248.25
L 950 247.4
Q 982.1 246.8 1012.05 248.05 1107.9 252 1146.2 272.85 1140.45 240.6 1126.25 205.15 1112.4 170.6 1093.9 141.15 Z"/>
</g>
</g>
</g>

<g transform="matrix( 0.189788818359375, 0, 0, 0.189788818359375, 59.8,105.25) ">
<g>
<g>
<path fill="#517CBA" stroke="none" d="
M 271.6 527.5
Q 276.75 554.3 293.2 588.2 309.2 621.2 331.75 652.45 354.95 684.7 379.15 706.65 381.85 663.1 427.1 575.05 441.25 547.55 457.95 518.85
L 471.85 495.7
Q 461.6 491.55 445.7 486.15 413.95 475.35 385.75 469.2 295.55 449.55 274.9 483.85 266.05 498.6 271.6 527.5 Z"/>
</g>
</g>
</g>

<g transform="matrix( 0.1898345947265625, 0, 0, 0.1898345947265625, 59.8,105.25) ">
<g>
<g>
<path fill="#151E34" stroke="none" d="
M 969.95 552.75
Q 967.25 549.85 963.3 549.75 959.4 549.6 956.5 552.3 953.6 554.95 953.5 558.9 953.35 562.8 956.05 565.7 983 594.55 1015.85 596.75 1044.85 598.65 1068.05 580.25 1079.05 571.55 1086.45 559.25 1094.1 546.6 1096.75 532.15 1102.65 499.4 1082.3 469.05 1080.35 466.15 1077.05 465.2 1073.75 464.3 1070.6 465.65
L 1069.15 466.45
Q 1065.9 468.65 1065.1 472.55 1064.35 476.4 1066.55 479.65 1082.9 504 1078.15 529.2 1073.95 551.3 1056.25 565.35 1039.1 579 1017.75 577.85 992.05 576.45 969.95 552.75 Z"/>
</g>
</g>
</g>

<g transform="matrix( 0.1898345947265625, 0, 0, 0.1898345947265625, 59.8,105.25) ">
<g>
<g>
<path fill="#151E34" stroke="none" d="
M 737.45 690.05
Q 735.65 687.05 732.35 685.95 729.1 684.85 725.9 686.1
L 724.4 686.85
Q 721.05 688.9 720.1 692.7 719.2 696.55 721.2 699.9 736.4 725 730.55 749.95 725.35 771.85 707.05 785.05 689.3 797.85 667.95 795.75 642.35 793.15 621.35 768.5 618.8 765.5 614.9 765.2 611 764.85 607.95 767.4 605 769.95 604.65 773.9 604.35 777.8 606.9 780.8 632.5 810.85 665.25 814.55 694.1 817.75 718.15 800.45 729.55 792.25 737.5 780.3 745.75 768 749 753.7 756.45 721.3 737.45 690.05 Z"/>
</g>
</g>
</g>

<g transform="matrix( 0.189788818359375, 0, 0, 0.189788818359375, 59.8,105.25) ">
<g>
<g>
<path fill="#151E34" stroke="none" d="
M 1034.7 392.85
Q 1022.2 390.75 1012.15 392.85 1001.15 395.15 995.5 402.45 990.65 408.7 990.9 416.8 991.15 424.3 995.45 429 1000 433.95 1006.35 432.3 1027.1 426.85 1055.15 421.55 1072.7 418.25 1074.25 416.15 1076.5 413.2 1071.1 408.3 1065.9 403.5 1056.15 399.25 1045.7 394.7 1034.7 392.85 Z"/>
</g>
</g>
</g>

<g transform="matrix( 0.189788818359375, 0, 0, 0.189788818359375, 59.8,105.25) ">
<g>
<g>
<path fill="#151E34" stroke="none" d="
M 596.7 634.7
Q 590 630.2 582.1 631 572.9 631.9 565.1 639.95 558 647.35 553.1 659.05 548.8 669.35 547.15 680.65 545.6 691.15 546.85 698.1 548.15 705.3 551.85 704.95 554.4 704.75 566.55 691.7 586 670.7 601.6 656.05 606.4 651.55 604.65 645.05 602.95 638.9 596.7 634.7 Z"/>
</g>
</g>
</g>

<g transform="matrix( 0.189788818359375, 0, 0, 0.189788818359375, 59.8,105.25) ">
<g>
<g>
<path fill="#151E34" stroke="none" d="
M 901.1 722.9
Q 899.55 725.75 900.5 728.85 904.85 743.1 920 767 928.55 780.45 938.2 793.55 939.95 808.05 931.3 822.4 923.35 835.5 910.3 843.25 898 850.65 885.95 850.05 873.9 849.45 864.85 841.1 862.75 839.15 859.9 839.3 857.05 839.4 855.15 841.5 853.2 843.6 853.35 846.45 853.45 849.3 855.55 851.2 868.1 862.75 884.4 863.8 900.75 864.9 917.1 855.2
L 917.3 855.1
Q 931.1 846.9 940.55 833.25 950.7 818.55 952.05 802.55 965.4 809.55 983.35 807.45 999.6 805.55 1014.8 797.05 1033.05 786.75 1042.25 771.6 1052.7 754.4 1046.5 737.7 1045.5 735.05 1042.9 733.85 1040.3 732.7 1037.65 733.65 1035 734.65 1033.8 737.25 1032.65 739.85 1033.6 742.5 1037.85 753.85 1029.5 766.25 1022.1 777.2 1008.05 785.05 993.1 793.45 978 794.15 960.9 794.95 951.3 784.85 944.55 776.1 935.15 761.65 919.5 737.5 915.5 724.3 914.55 721.2 911.7 719.65 908.85 718.15 905.75 719.05 902.65 720.05 901.1 722.9 Z"/>
</g>
</g>
</g>

<g transform="matrix( 0.189788818359375, 0, 0, 0.189788818359375, 59.8,105.25) ">
<g>
<g>
<path fill="#EF7479" stroke="none" d="
M 947.2 687.3
Q 960.95 662 960.25 645.65 959.45 627.35 940.75 619.25 927.55 613.55 906.6 616.65 887.3 619.5 866.6 628.9 847.8 637.45 830.7 652.4 809.3 671.1 805.9 688.55 802.25 707.9 814.55 719.85 826.65 731.55 853 735.25 865.95 737.05 887.55 734.85 906.45 732.9 909.5 731.2 914.15 728.65 926.1 715.6 940.2 700.2 947.2 687.3 Z"/>
</g>
</g>
</g>

<g transform="matrix( 0.189727783203125, 0, 0, 0.189727783203125, 59.8,105.25) ">
<g>
<g>
<path fill="#151E34" stroke="none" d="
M 946.2 740.9
Q 948.25 740.85 949.65 739.35 980.7 706.75 1021.7 676.4 1061.3 647.1 1104.7 623.9 1148.05 600.7 1188.5 587.2 1230.35 573.25 1262.95 571.8 1264.1 571.75 1265.1 571.2 1266.3 570.5 1267 569.3 1267.75 568.05 1267.65 566.65 1267.6 564.6 1266.05 563.2 1264.55 561.8 1262.5 561.9 1229.1 563.35 1186.25 577.6 1144.95 591.3 1100.6 614.95 1056.25 638.55 1015.9 668.4 974.05 699.35 942.5 732.5 941.1 734 941.15 736.05 941.2 738.1 942.65 739.5 944.15 740.95 946.2 740.9 Z"/>
</g>
</g>
</g>

<g transform="matrix( 0.189727783203125, 0, 0, 0.189727783203125, 59.8,105.25) ">
<g>
<g>
<path fill="#151E34" stroke="none" d="
M 1292.75 593.75
Q 1291.25 592.35 1289.2 592.4 1252.5 593.6 1209.55 603.65 1167.9 613.45 1125.45 630.35 1082.95 647.3 1045.3 669.1 1006.45 691.6 977.55 716.55 976 717.9 975.85 719.95 975.7 722 977.05 723.55 978.35 725.1 980.4 725.25 982.45 725.4 984.05 724.05 1012.35 699.6 1050.45 677.55 1087.35 656.15 1129 639.55 1170.65 622.95 1211.45 613.35 1253.55 603.5 1289.5 602.3 1290.65 602.3 1291.75 601.7 1292.95 601 1293.65 599.85 1294.4 598.6 1294.3 597.2 1294.25 595.15 1292.75 593.75 Z"/>
</g>
</g>
</g>

<g transform="matrix( 0.189727783203125, 0, 0, 0.189727783203125, 59.8,105.25) ">
<g>
<g>
<path fill="#151E34" stroke="none" d="
M 1298.25 648.15
Q 1298.4 646.15 1297.05 644.6 1295.65 643.05 1293.6 642.9 1256.95 640.65 1213.3 646.65 1170.9 652.5 1127.05 665.35 1083.15 678.25 1043.6 696.45 1002.8 715.2 971.7 737.35 970 738.5 969.7 740.55 969.35 742.55 970.55 744.25 971.7 745.9 973.75 746.25 975.75 746.6 977.45 745.4 1007.95 723.7 1047.9 705.3 1086.7 687.45 1129.7 674.85 1172.75 662.2 1214.25 656.5 1257.05 650.6 1293 652.8 1294.5 652.9 1295.7 652.2 1298.1 650.9 1298.25 648.15 Z"/>
</g>
</g>
</g>

<g transform="matrix( 0.189727783203125, 0, 0, 0.189727783203125, 59.8,105.25) ">
<g>
<g>
<path fill="#151E34" stroke="none" d="
M 902.05 761.45
Q 900.35 760.3 898.35 760.7 853.45 769.8 805.05 788.8 758.3 807.1 714.7 832.1 671.1 857.05 637.5 884.75 602.7 913.45 583.65 940.95 582.5 942.65 582.85 944.65 583.2 946.7 584.9 947.85 586.1 948.65 587.55 948.75 588.95 948.8 590.15 948.1 591.15 947.6 591.8 946.6 610.4 919.75 644.45 891.75 677.35 864.7 720.1 840.3 762.8 815.9 808.7 797.95 856.2 779.35 900.3 770.4 902.3 770 903.45 768.3 904.6 766.6 904.2 764.55 903.8 762.55 902.05 761.45 Z"/>
</g>
</g>
</g>

<g transform="matrix( 0.189727783203125, 0, 0, 0.189727783203125, 59.8,105.25) ">
<g>
<g>
<path fill="#151E34" stroke="none" d="
M 870 782.25
Q 868.15 781.3 866.2 781.9 829.7 793.1 790 814 751.45 834.3 714.55 861.3 677.6 888.3 647.2 918.35 615.85 949.35 595.3 979.8 594.15 981.5 594.55 983.5 594.95 985.55 596.65 986.65 597.8 987.45 599.25 987.5 600.6 987.55 601.8 986.9 602.8 986.35 603.5 985.35 623.6 955.5 654.35 925.1 684.2 895.65 720.4 869.2 756.6 842.8 794.4 822.9 833.3 802.4 869.1 791.4 871.05 790.8 872.05 789 873 787.15 872.4 785.2 871.8 783.2 870 782.25 Z"/>
</g>
</g>
</g>

<g transform="matrix( 0.189727783203125, 0, 0, 0.189727783203125, 59.8,105.25) ">
<g>
<g>
<path fill="#151E34" stroke="none" d="
M 890.65 788
Q 888.8 787.2 886.9 788 851.6 802.55 814.05 827.1 777.6 850.95 743.35 881.25 709.1 911.55 681.6 944.35 653.3 978.15 635.7 1010.4 634.75 1012.2 635.3 1014.15 635.9 1016.15 637.7 1017.1 638.85 1017.75 640.15 1017.7 641.4 1017.7 642.5 1017.1 643.7 1016.45 644.45 1015.15 661.7 983.55 689.4 950.45 716.35 918.3 749.9 888.6 783.5 858.85 819.2 835.5 856.05 811.45 890.65 797.15 892.55 796.35 893.35 794.45 894.15 792.6 893.35 790.7 892.55 788.8 890.65 788 Z"/>
</g>
</g>
</g>
</g>
</svg>
