
<svg xmlns="http://www.w3.org/2000/svg" version="1.1" xmlns:xlink="http://www.w3.org/1999/xlink" preserveAspectRatio="none" x="0px" y="0px" width="506px" height="506px" viewBox="0 0 506 506">
<defs/>

<g id="cartoon_cars_illustration_pack"/>

<g id="Layer_1">
<g transform="matrix( 0.3805694580078125, 0, 0, 0.3805694580078125, -31.4,5.65) ">
<g>
<g>
<path fill="#FAB52B" stroke="none" d="
M 1059 837.85
L 1054.25 835.8 1052.75 838.95
Q 1052.35 839.75 1051.05 842.85
L 1048.8 848.2
Q 1045.75 856.15 1043.75 863 1041.1 871.8 1038.85 882.65 1036.75 892.4 1034.7 906.1 1033.45 914.4 1030.95 932.2 1028.55 948.55 1026.05 959.5 1022.75 974.25 1017.4 985.95 1011.65 998.85 1002.8 1008.65 998.3 1013.7 993.35 1017.75 988 1022.1 982.85 1025.3 972.95 1031.45 960.6 1036.25 950.6 1040.1 939.05 1043.05 929.1 1045.55 920.2 1047.1
L 905.45 1049.45
Q 902.3 1049.85 895.85 1050.6
L 892.45 1051 895 1070.85 898.55 1070.25
Q 903 1069.55 908.5 1068.55
L 924 1065.35
Q 933.65 1063.15 943.9 1060.05 956.2 1056.3 966.95 1051.55 980.2 1045.7 991.3 1038.05 997.3 1033.95 1002.95 1028.8 1008.4 1023.85 1013.45 1017.65 1023 1005.95 1029 990.85 1034.15 977.9 1037 961.75 1039.1 950.05 1040.75 933.4 1042.35 915.45 1043.25 907.2 1044.45 894.9 1046.2 884 1047.7 874.2 1050.05 864.75 1051.7 858.1 1054.25 850.2 1056 845.35 1056.15 844.95
L 1059 837.85 Z"/>
</g>
</g>
</g>

<g transform="matrix( 0.3805694580078125, 0, 0, 0.3805694580078125, -31.4,5.65) ">
<g>
<g>
<path fill="#FBB42C" stroke="none" d="
M 603.9 933.5
Q 584.7 933.5 567.2 940.9 550.25 948.05 537.2 961.1 524.15 974.15 516.95 991.1 509.55 1008.6 509.55 1027.8 509.55 1047 516.95 1064.5 524.15 1081.45 537.2 1094.5 550.25 1107.55 567.2 1114.75 584.7 1122.15 603.9 1122.15
L 874.5 1122.15
Q 893.7 1122.15 911.2 1114.75 928.15 1107.55 941.2 1094.5 954.25 1081.45 961.4 1064.5 968.8 1047 968.8 1027.8 968.8 1008.6 961.4 991.1 954.25 974.15 941.2 961.1 928.15 948.05 911.2 940.9 893.7 933.5 874.5 933.5
L 603.9 933.5 Z"/>
</g>
</g>
</g>

<g transform="matrix( 0.3805694580078125, 0, 0, 0.3805694580078125, -31.4,5.65) ">
<g>
<g>
<path fill="#FDC62F" stroke="none" d="
M 802.65 744.8
L 675.7 744.8
Q 659.45 744.8 644.45 750.8 629.95 756.6 618.45 767.3 594.25 789.8 591.75 822.75
L 576.1 1049.8
Q 573.5 1084.8 598.35 1104.3 621.2 1122.15 660.05 1122.15
L 818.3 1122.15
Q 857.15 1122.15 880 1104.3 904.85 1084.8 902.25 1049.8
L 886.6 822.75
Q 884.1 789.8 859.9 767.3 848.4 756.6 833.9 750.8 818.9 744.8 802.65 744.8 Z"/>
</g>
</g>
</g>

<g transform="matrix( 0.3805694580078125, 0, 0, 0.3805694580078125, -31.4,5.65) ">
<g>
<g>
<path fill="#FFD73C" stroke="none" d="
M 762.65 818.55
Q 762.65 815.05 759.15 812.55 755.6 810.05 750.65 810.05
L 702.85 810.05
Q 697.85 810.05 694.35 812.55 690.85 815 690.85 818.55
L 690.85 898.1
Q 690.85 901.65 694.35 904.1 697.85 906.6 702.85 906.6
L 750.65 906.6
Q 755.6 906.6 759.15 904.1 762.65 901.6 762.65 898.1
L 762.65 818.55 Z"/>
</g>
</g>
</g>

<g transform="matrix( 0.3805694580078125, 0, 0, 0.3805694580078125, -31.4,5.65) ">
<g>
<g>
<path fill="#FFD73C" stroke="none" d="
M 639.35 1048.85
Q 617.25 1052.7 600.95 1068.25 584.65 1083.75 579.7 1105.5 578.25 1111.9 582.25 1117.05 586.3 1122.2 592.85 1122.25 629.05 1122.6 653.6 1122.55 667.5 1122.55 702.45 1122.25 709.55 1122.2 714.55 1117.2 719.55 1112.15 719.5 1105.05 719.45 1064.75 720.7 936.65
L 721.95 816.55 648 816.55 639.35 1048.85 Z"/>
</g>
</g>
</g>

<g transform="matrix( 0.3805694580078125, 0, 0, 0.3805694580078125, -31.4,5.65) ">
<g>
<g>
<path fill="#FFD73C" stroke="none" d="
M 805 816.55
L 731.05 816.55 732.3 936.65
Q 733.55 1064.75 733.5 1105.05 733.45 1112.15 738.45 1117.2 743.45 1122.2 750.55 1122.25 785.5 1122.55 799.45 1122.55 823.95 1122.6 860.15 1122.25 866.7 1122.2 870.75 1117.05 874.75 1111.9 873.3 1105.5 868.35 1083.75 852.05 1068.25 835.75 1052.7 813.65 1048.85
L 805 816.55 Z"/>
</g>
</g>
</g>

<g transform="matrix( 0.3805694580078125, 0, 0, 0.3805694580078125, -31.4,5.65) ">
<g>
<g>
<path fill="#F48921" stroke="none" d="
M 973.95 322.75
Q 983.2 313.5 983.2 300.4 983.2 287.25 973.95 278 965.9 269.95 954.55 268.85 943.4 267.8 934.1 274 938.35 263.65 935.15 252.9 931.9 242 922.45 235.65 913.3 229.5 902.3 230.35 891.5 231.25 883.55 238.5 885.2 227.85 880 218.35 874.7 208.65 864.55 204.4 854.05 199.95 843.2 203.25 832.45 206.5 826.15 215.7 826.2 204.55 819.15 195.8 812.05 186.9 800.9 184.55 788.1 181.9 777.1 189.1 766.15 196.3 763.5 209.1
L 762.75 212.7 762.75 209.05
Q 762.75 195.95 753.45 186.65 744.2 177.4 731.05 177.4 719.65 177.4 710.9 184.65 702.25 191.8 700.05 202.75 695.8 192.45 685.9 187.1 675.9 181.65 664.7 183.85 653.9 186 646.75 194.4 639.75 202.65 639.2 213.4 632.85 204.7 622.5 201.65 611.9 198.55 601.7 202.7 591.15 207 585.75 217 580.4 226.9 582.5 237.85 574.65 229.95 563.5 228.7 552.15 227.45 542.65 233.7 531.65 240.9 529 253.75 526.35 266.55 533.55 277.5
L 535.55 280.6 532.95 278
Q 523.7 268.75 510.6 268.75 497.45 268.75 488.2 278 480.15 286.05 479.05 297.4 478 308.55 484.2 317.85 473.85 313.6 463.1 316.8 452.2 320.05 445.85 329.5 439.7 338.7 440.55 349.65 441.45 360.45 448.7 368.4 438.05 366.75 428.55 371.95 418.85 377.25 414.6 387.4 410.15 397.9 413.45 408.8 416.7 419.5 425.9 425.8 414.75 425.75 405.95 432.8 397.05 439.9 394.75 451.05 392.1 463.85 399.3 474.85 406.45 485.8 419.3 488.5
L 422.9 489.2 419.25 489.2
Q 406.15 489.2 396.85 498.5 387.6 507.75 387.6 520.9 387.6 532.3 394.85 541.05 402 549.7 412.95 551.9 402.65 556.15 397.3 566.05 391.85 576.05 394.05 587.25 396.2 598.05 404.6 605.2 412.85 612.2 423.6 612.75 414.9 619.1 411.85 629.5 408.75 640.05 412.9 650.25 417.2 660.8 427.2 666.2 437.1 671.55 448.05 669.45 440.1 677.3 438.85 688.5 437.6 699.8 443.9 709.3 451.05 720.3 463.9 722.95 476.75 725.6 487.7 718.4
L 490.8 716.4 488.2 719
Q 478.95 728.25 478.95 741.4 478.95 754.5 488.2 763.75 496.25 771.8 507.6 772.9 518.75 773.95 528.05 767.75 523.8 778.1 527 788.85 530.2 799.8 539.7 806.1 548.9 812.25 559.85 811.4 570.65 810.5 578.6 803.25 576.95 813.9 582.15 823.4 587.4 833.1 597.55 837.35 608.1 841.8 618.95 838.5 629.7 835.3 636 826.05 635.95 837.2 643 846 650.1 854.9 661.25 857.2 674.05 859.85 685.05 852.65 696 845.5 698.65 832.65
L 699.4 829.05 699.4 832.7
Q 699.4 845.8 708.7 855.1 717.95 864.35 731.05 864.35 742.45 864.35 751.25 857.1 759.9 849.95 762.1 839 766.35 849.3 776.25 854.7 786.25 860.1 797.45 857.9 808.25 855.75 815.4 847.35 822.4 839.1 822.95 828.35 829.3 837.05 839.7 840.1 850.25 843.2 860.45 839.05 871 834.75 876.4 824.75 881.75 814.85 879.65 803.9 887.5 811.85 898.7 813.1 910 814.35 919.5 808.05 930.45 800.9 933.15 788.05 935.8 775.2 928.6 764.25
L 926.6 761.15 929.2 763.75
Q 938.45 773 951.6 773 964.7 773 973.95 763.75 982.05 755.7 983.1 744.35 984.15 733.2 977.95 723.9 988.3 728.2 999.05 725 1009.95 721.75 1016.3 712.25 1022.45 703.1 1021.6 692.1 1020.7 681.3 1013.45 673.35 1024.1 675 1033.6 669.8 1043.3 664.55 1047.55 654.4 1052 643.85 1048.7 633 1045.5 622.25 1036.25 615.95 1047.4 616 1056.2 608.95 1065.05 601.85 1067.4 590.7 1070.05 577.9 1062.85 566.9 1055.7 555.95 1042.85 553.3
L 1039.25 552.55 1042.9 552.55
Q 1056 552.55 1065.3 543.25 1074.55 534 1074.55 520.9 1074.55 509.5 1067.3 500.7 1060.15 492.05 1049.2 489.85 1059.5 485.6 1064.9 475.7 1070.3 465.7 1068.1 454.5 1065.95 443.7 1057.55 436.55 1049.3 429.55 1038.55 429 1047.25 422.65 1050.3 412.3 1053.4 401.7 1049.25 391.5 1044.95 380.95 1034.95 375.55 1025.05 370.2 1014.1 372.3 1022 364.45 1023.25 353.3 1024.5 341.95 1018.25 332.45 1011.05 321.5 998.25 318.85 985.4 316.15 974.45 323.35
L 971.35 325.35 973.95 322.75 Z"/>
</g>
</g>
</g>

<g transform="matrix( 0.3805694580078125, 0, 0, 0.3805694580078125, -31.4,5.65) ">
<g>
<g>
<path fill="#FFD73C" stroke="none" d="
M 536.35 319.55
Q 520.2 335.7 520.2 358.5 520.2 381.3 536.35 397.45 552.45 413.6 575.3 413.6 598.1 413.6 614.25 397.45 630.35 381.3 630.35 358.5 630.35 335.7 614.25 319.55 598.1 303.4 575.3 303.4 552.45 303.4 536.35 319.55 Z"/>
</g>
</g>
</g>

<g transform="matrix( 0.3805694580078125, 0, 0, 0.3805694580078125, -31.4,5.65) ">
<g>
<g>
<path fill="#FAB52B" stroke="none" d="
M 539.35 358.5
Q 539.35 373.4 549.9 383.9 560.4 394.4 575.3 394.4 590.15 394.4 600.7 383.9 611.2 373.4 611.2 358.5 611.2 343.6 600.7 333.1 590.15 322.55 575.3 322.55 560.4 322.55 549.9 333.1 539.35 343.6 539.35 358.5 Z"/>
</g>
</g>
</g>

<g transform="matrix( 0.3805694580078125, 0, 0, 0.3805694580078125, -31.4,5.65) ">
<g>
<g>
<path fill="#FFD73C" stroke="none" d="
M 835.95 319.55
Q 819.8 335.7 819.8 358.5 819.8 381.3 835.95 397.45 852.05 413.6 874.85 413.6 897.7 413.6 913.8 397.45 929.95 381.3 929.95 358.5 929.95 335.7 913.8 319.55 897.7 303.4 874.85 303.4 852.05 303.4 835.95 319.55 Z"/>
</g>
</g>
</g>

<g transform="matrix( 0.3805694580078125, 0, 0, 0.3805694580078125, -31.4,5.65) ">
<g>
<g>
<path fill="#FAB52B" stroke="none" d="
M 838.95 358.5
Q 838.95 373.4 849.5 383.9 860 394.4 874.85 394.4 889.75 394.4 900.25 383.9 910.8 373.4 910.8 358.5 910.8 343.6 900.25 333.1 889.75 322.55 874.85 322.55 860 322.55 849.5 333.1 838.95 343.6 838.95 358.5 Z"/>
</g>
</g>
</g>

<g transform="matrix( 0.3805694580078125, 0, 0, 0.3805694580078125, -31.4,5.65) ">
<g>
<g>
<path fill="#FFD73C" stroke="none" d="
M 885.15 393.7
Q 854.1 355.9 815.85 334.45 774.45 311.25 731.05 311.25 687.7 311.25 646.25 334.45 608.05 355.9 577 393.7 547.3 429.9 530.3 473.4 513.2 517.2 513.2 557.85 513.2 597.95 530.3 634.6 546.85 670 577 697.3 607.15 724.6 646.25 739.55 686.75 755.05 731.05 755.05 775.4 755.05 815.85 739.55 854.95 724.6 885.15 697.3 915.3 670 931.85 634.6 948.95 597.95 948.95 557.85 948.95 517.2 931.85 473.4 914.85 429.9 885.15 393.7 Z"/>
</g>
</g>
</g>

<g transform="matrix( 0.3805694580078125, 0, 0, 0.3805694580078125, -31.4,5.65) ">
<g>
<g>
<path fill="#FDC62F" stroke="none" d="
M 747.2 430.35
Q 739.25 418.7 731.05 418.7 722.85 418.7 714.9 430.35 707.7 440.95 701.75 459.45 696.15 476.85 692.85 497.15 689.6 517.4 689.6 534.65 689.6 566 701.75 577.1 706.9 581.8 714.9 583.65 721.1 585.05 731.05 585.05 741.05 585.05 747.2 583.65 755.25 581.8 760.4 577.1 772.55 566 772.55 534.65 772.55 517.4 769.3 497.15 766 476.85 760.4 459.45 754.45 440.95 747.2 430.35 Z"/>
</g>
</g>
</g>

<g transform="matrix( 0.3805694580078125, 0, 0, 0.3805694580078125, -31.4,5.65) ">
<g>
<g>
<path fill="#FFFED9" stroke="none" d="
M 691.45 565.75
Q 673.2 572 659.1 583.4 645 594.8 637.3 609.55 629.3 624.85 629.3 641.6 629.3 658.35 637.3 673.65 645 688.45 659.1 699.85 673.2 711.25 691.45 717.5 710.35 724 731.05 724 751.8 724 770.7 717.5 788.95 711.25 803.05 699.85 817.15 688.45 824.85 673.65 832.85 658.35 832.85 641.6 832.85 624.85 824.85 609.55 817.15 594.8 803.05 583.4 788.95 572 770.7 565.75 751.75 559.25 731.05 559.25 710.35 559.25 691.45 565.75 Z"/>
</g>
</g>
</g>

<g transform="matrix( 0.3805694580078125, 0, 0, 0.3805694580078125, -31.4,5.65) ">
<g>
<g>
<path fill="#000000" stroke="none" d="
M 690.05 558
Q 690.05 572.9 704.75 588.9 711.15 595.85 718.15 600.05 725.4 604.4 731.05 604.4 736.75 604.4 744 600.05 751 595.85 757.4 588.9 772.1 572.9 772.1 558 772.1 544.2 760.05 540.1 752.7 537.6 731.05 537.6 709.4 537.6 702.05 540.1 690.05 544.2 690.05 558 Z"/>
</g>
</g>
</g>

<g transform="matrix( 0.3805694580078125, 0, 0, 0.3805694580078125, -31.4,5.65) ">
<g>
<g>
<path fill="#231F20" stroke="none" d="
M 743.85 677.95
Q 752.95 683.3 765.6 684.3 768.9 684.5 770.5 684.5 787.85 684.5 801 676.5 815.6 667.6 817.95 652.4
L 813 651.65
Q 810.75 665.9 796 673.6 782.6 680.6 766 679.3 753 678.3 744.15 672.1 733.55 664.65 733.55 652.05
L 733.55 604.4 728.55 604.4 728.55 652.05
Q 728.55 664.65 717.95 672.1 709.15 678.3 696.15 679.3 679.55 680.6 666.15 673.6 651.4 665.9 649.15 651.65
L 644.2 652.4
Q 646.6 667.6 661.15 676.5 674.3 684.5 691.65 684.5 693.25 684.5 696.55 684.3 709.2 683.3 718.3 677.95 727.25 672.6 731.05 664.05 734.9 672.65 743.85 677.95 Z"/>
</g>
</g>
</g>

<g transform="matrix( 0.3805694580078125, 0, 0, 0.3805694580078125, -31.4,5.65) ">
<g>
<g>
<path fill="#231F20" stroke="none" d="
M 664.95 483.6
Q 664.95 476.05 659.6 470.65 654.25 465.3 646.65 465.3 639.1 465.3 633.75 470.65 628.4 476 628.4 483.6 628.4 491.2 633.75 496.5 639.1 501.85 646.65 501.85 654.25 501.85 659.6 496.5 664.95 491.15 664.95 483.6 Z"/>
</g>
</g>
</g>

<g transform="matrix( 0.3805694580078125, 0, 0, 0.3805694580078125, -31.4,5.65) ">
<g>
<g>
<path fill="#231F20" stroke="none" d="
M 488.35 578.9
Q 487.3 578.8 486.5 579.45 485.7 580.1 485.6 581.15 485.5 582.15 486.15 583 486.8 583.8 487.8 583.9
L 600.5 595.9 600.75 595.9
Q 601.7 595.9 602.4 595.25 603.15 594.65 603.25 593.7 603.35 592.65 602.7 591.85 602.05 591.05 601 590.95
L 488.35 578.9 Z"/>
</g>
</g>
</g>

<g transform="matrix( 0.3805694580078125, 0, 0, 0.3805694580078125, -31.4,5.65) ">
<g>
<g>
<path fill="#231F20" stroke="none" d="
M 607.5 640.8
Q 608.1 639.9 607.85 638.9 607.65 637.9 606.75 637.4 605.85 636.85 604.85 637.05
L 501.25 660.7
Q 500.25 660.95 499.7 661.85 499.15 662.7 499.4 663.7 499.6 664.6 500.25 665.15 500.95 665.65 501.8 665.65
L 502.35 665.6 605.95 641.9
Q 606.95 641.7 607.5 640.8 Z"/>
</g>
</g>
</g>

<g transform="matrix( 0.3805694580078125, 0, 0, 0.3805694580078125, -31.4,5.65) ">
<g>
<g>
<path fill="#231F20" stroke="none" d="
M 616.3 688.4
Q 617.15 687.8 617.3 686.75 617.5 685.7 616.9 684.9 616.3 684.05 615.3 683.85 614.25 683.7 613.4 684.3
L 539.55 736.5
Q 538.7 737.1 538.5 738.1 538.35 739.15 538.95 740 539.65 741.05 540.95 741.05 541.8 741.05 542.4 740.6
L 616.3 688.4 Z"/>
</g>
</g>
</g>

<g transform="matrix( 0.3805694580078125, 0, 0, 0.3805694580078125, -31.4,5.65) ">
<g>
<g>
<path fill="#231F20" stroke="none" d="
M 821.75 483.6
Q 821.75 476 816.4 470.65 811.05 465.3 803.5 465.3 795.95 465.3 790.55 470.65 785.2 476.05 785.2 483.6 785.2 491.15 790.55 496.5 795.9 501.85 803.5 501.85 811.1 501.85 816.4 496.5 821.75 491.2 821.75 483.6 Z"/>
</g>
</g>
</g>

<g transform="matrix( 0.3805694580078125, 0, 0, 0.3805694580078125, -31.4,5.65) ">
<g>
<g>
<path fill="#231F20" stroke="none" d="
M 856.2 590.95
Q 855.15 591.05 854.5 591.85 853.9 592.65 853.95 593.7 854.05 594.65 854.8 595.25 855.5 595.9 856.45 595.9
L 856.7 595.9 969.4 583.9
Q 970.4 583.8 971.05 583 971.7 582.15 971.6 581.15 971.5 580.1 970.7 579.45 969.9 578.8 968.85 578.9
L 856.2 590.95 Z"/>
</g>
</g>
</g>

<g transform="matrix( 0.3805694580078125, 0, 0, 0.3805694580078125, -31.4,5.65) ">
<g>
<g>
<path fill="#231F20" stroke="none" d="
M 955.4 665.65
Q 956.25 665.65 956.95 665.15 957.65 664.6 957.85 663.7 958.1 662.7 957.5 661.85 956.95 661 955.95 660.75
L 852.35 637.05
Q 851.35 636.85 850.45 637.4 849.6 637.9 849.35 638.9 849.15 639.9 849.7 640.8 850.25 641.7 851.25 641.9
L 954.85 665.6 955.4 665.65 Z"/>
</g>
</g>
</g>

<g transform="matrix( 0.3805694580078125, 0, 0, 0.3805694580078125, -31.4,5.65) ">
<g>
<g>
<path fill="#231F20" stroke="none" d="
M 843.8 684.3
Q 842.95 683.7 841.9 683.85 840.9 684.05 840.3 684.9 839.7 685.7 839.9 686.75 840.05 687.8 840.9 688.4
L 914.8 740.6
Q 915.5 741.05 916.25 741.05 917.55 741.05 918.3 740 918.85 739.15 918.7 738.1 918.5 737.1 917.7 736.5
L 843.8 684.3 Z"/>
</g>
</g>
</g>

<g transform="matrix( 0.3805694580078125, 0, 0, 0.3805694580078125, -31.4,5.65) ">
<g>
<g>
<path fill="#F48921" stroke="none" d="
M 1094.2 820.3
Q 1096.55 814.5 1098.3 811.25 1103.7 801.3 1112.35 798 1101.05 792.65 1085.9 793.9 1071.15 795.15 1059.85 802.05 1047.7 809.45 1045.1 820.3 1042.1 832.7 1052.5 846.65 1069 849.7 1078.35 844.3 1085.4 840.2 1090.3 829.55 1091.25 827.5 1094.2 820.3 Z"/>
</g>
</g>
</g>

<g transform="matrix( 0.3805694580078125, 0, 0, 0.3805694580078125, -31.4,5.65) ">
<g>
<g>
<path fill="#613817" stroke="none" d="
M 659.7 425.3
Q 661 425.95 662.4 425.45 663.75 424.95 664.35 423.65 665 422.35 664.5 420.95 664 419.6 662.7 419 647.2 411.65 629.55 415.7 611.85 419.75 602.35 432.75 601.5 433.95 601.75 435.35 601.95 436.8 603.15 437.65 604 438.3 605.2 438.3 607 438.3 608.05 436.85 615.95 425.95 631.3 422.55 646.6 419.1 659.7 425.3 Z"/>
</g>
</g>
</g>

<g transform="matrix( 0.3805694580078125, 0, 0, 0.3805694580078125, -31.4,5.65) ">
<g>
<g>
<path fill="#613817" stroke="none" d="
M 851.3 438.3
Q 852.5 438.3 853.35 437.65 854.5 436.8 854.75 435.35 854.95 433.9 854.1 432.75 844.65 419.75 826.95 415.7 809.3 411.65 793.8 419 792.5 419.6 792 420.95 791.5 422.35 792.15 423.65 792.75 424.95 794.1 425.45 795.5 425.95 796.8 425.3 809.9 419.1 825.2 422.55 840.55 425.95 848.45 436.85 849.5 438.3 851.3 438.3 Z"/>
</g>
</g>
</g>
</g>
</svg>
