
<svg xmlns="http://www.w3.org/2000/svg" version="1.1" xmlns:xlink="http://www.w3.org/1999/xlink" preserveAspectRatio="none" x="0px" y="0px" width="506px" height="506px" viewBox="0 0 506 506">
<defs/>

<g id="cartoon_cars_illustration_pack">
<g transform="matrix( 0.2299652099609375, 0, 0, 0.2299652099609375, 115.9,120.95) ">
<g>
<g>
<path fill="#231F20" stroke="none" d="
M 1191.9 24.65
Q 1194 9.35 1188.55 3.9 1183.1 -1.55 1167.8 0.55 1149.45 3.05 1121.2 16.2 1063.2 43.1 973.7 108.6 932.5 138.7 886.35 175.85
L 1016.6 306.1
Q 1053.8 259.95 1083.85 218.75 1149.6 128.95 1176.25 71.25 1189.4 42.9 1191.9 24.65 Z"/>
</g>
</g>
</g>

<g transform="matrix( 0.2299652099609375, 0, 0, 0.2299652099609375, 115.9,120.95) ">
<g>
<g>
<path fill="#231F20" stroke="none" d="
M 447.7 715.05
L 433.55 729.2 372.25 667.95
Q 345.35 697.75 317.15 730.4
L 404.45 817.7 390.3 831.85 304.05 745.6
Q 275.95 778.55 250.6 809.7
L 301.8 860.9 287.65 875.05 238 825.4
Q 211 859.1 186.65 891.65
L 258.6 963.55 244.45 977.7 174.65 907.95
Q 109.75 996.8 83.15 1054.25 70 1082.5 67.5 1100.85 66.65 1106.8 67.05 1111.25
L 0 1178.35 14.1 1192.45 81.2 1125.4
Q 85.65 1125.8 91.6 1124.95 109.95 1122.45 138.2 1109.3 196.1 1082.45 285.7 1016.95 367.35 957.2 463 874.55 558.55 791.9 658.4 694.75
L 497.7 534.05
Q 439.3 594.1 385.7 653.05
L 447.7 715.05 Z"/>
</g>
</g>
</g>

<g transform="matrix( 0.2299652099609375, 0, 0, 0.2299652099609375, 115.9,120.95) ">
<g>
<g>
<path fill="#231F20" stroke="none" d="
M 743.9 268.4
Q 767.7 258.1 796.3 251.1 675.2 355.8 549 482.05 530.1 500.9 511.65 519.7
L 672.75 680.8
Q 691.6 662.35 710.4 643.45 793.3 560.6 868.2 478.5 942.55 396.95 1003.95 321.75
L 870.7 188.5
Q 854.2 201.95 835.3 217.85 827.2 222 817.05 225.1 811.05 226.95 797.1 230.35 765.3 237.95 742.8 247.1 704 262.75 657.85 293.2 596.55 333.7 517.15 402.9 437.7 472.15 337.2 572.65
L 351.35 586.8
Q 542.85 395.25 661.9 314.85 706.95 284.4 743.9 268.4 Z"/>
</g>
</g>
</g>
</g>
</svg>
