
<svg xmlns="http://www.w3.org/2000/svg" version="1.1" xmlns:xlink="http://www.w3.org/1999/xlink" preserveAspectRatio="none" x="0px" y="0px" width="506px" height="506px" viewBox="0 0 506 506">
<defs/>

<g id="cartoon_cars_illustration_pack">
<g transform="matrix( 0.3399200439453125, 0, 0, 0.3399200439453125, 105.45,94.35) ">
<g>
<g>
<path fill="#EE651E" stroke="none" d="
M 745.7 485.95
Q 761.75 469.8 765.3 465.4 773.8 454.85 771.05 449.45 757.75 423.35 709.05 454.8 693.8 464.6 676.85 479
L 662.95 491.45
Q 656.05 490.05 652.25 483.6 648.75 477.65 648.3 468.5 647.9 459.7 650.35 450.05 652.85 440.3 657.6 432.35 651.1 426.4 639.2 429.65 628.6 432.5 616.4 441.65 604.8 450.35 596.7 460.95 588.25 472.05 587.65 480.15 585.25 472.65 578.65 449.6 573.2 430.5 569.9 421.55 565.05 408.3 560.7 404.15 555.65 399.25 550.45 405.8 544.1 413.8 542.9 440.8 542.35 454.3 543 466.2 538.75 449.9 532.4 434.6 519.7 404 509.2 408.9 498.05 414.1 495.8 424 494.2 431.05 497.1 444.15 501.2 462.65 501.55 466.2 502.8 478.7 497.65 486.9 478 474.05 454.4 455.15 430.8 435.75 421.2 428.55 405.5 416.65 396.3 414 385.3 410.85 377.8 418.6 401.55 439.45 408.55 462.95 412 474.7 410.75 482.3 380.85 461.55 347.25 443.85 280.05 408.4 261.45 423.6 251.45 431.75 258.65 440.05 263.45 445.65 279.1 453.4 296.3 461.95 299.25 464.4 305.85 469.85 295.4 473.7 284.9 477.55 269.4 468.8 260.7 463.85 240.9 447.95 222.15 432.95 212.8 428.25 197.95 420.75 188.15 426.55 178.2 432.45 180.3 440.75 181.9 446.95 191 455.9 196.05 460.85 205.7 469.75 212.4 476.8 209.95 480.15 207.55 483.45 192.05 478.35 171.3 470.75 159.7 467.05 138.8 460.4 127.15 461.2 111.75 462.25 108.8 475.75 104.65 494.95 171 551.15 204.15 579.3 238.15 603.55
L 274.1 621.6
Q 317.1 643.05 353.2 660.55 468.35 716.3 468.9 710.25 469.2 707.05 496.8 701.65 510.05 699.1 557.7 691.25 600.3 684.2 619.35 680.05 647.9 673.85 649.65 669.3 651.25 665.05 664.3 641.9 681.75 611.25 691.2 594.5 728.15 528.95 725.7 525.7 720.5 518.7 727.4 507.35 732.15 499.6 745.7 485.95 Z"/>
</g>
</g>
</g>

<g transform="matrix( 0.339874267578125, 0, 0, 0.339874267578125, 105.45,94.35) ">
<g>
<g>
<path fill="#3B2932" stroke="none" d="
M 735 455
Q 750.7 430.95 739.65 422.95 727.55 414.15 686.55 439.8 673.7 447.8 659.55 458.25
L 647.95 467.15
Q 678.3 433.55 702.75 398 751.6 326.9 722.1 317.2 692.65 307.5 646.6 380.4 623.6 416.9 606.5 455.3 614.85 427.95 620.35 401.4 631.4 348.35 617.25 352.3 601.6 356.7 579.9 399.9 571 417.55 564.1 436.3 557.35 454.7 555.05 467 552.5 480.8 550.3 487.8 547.4 496.9 543 502.4 533.95 513.65 509.2 517.55
L 510.85 527.55
Q 513.6 539.4 518.95 548.9 536.05 579.3 572.95 574.45 594.15 571.65 628.3 550.65 659.8 531.25 690.1 504.2 720.8 476.75 735 455 Z"/>
</g>
</g>
</g>

<g transform="matrix( 0.339874267578125, 0, 0, 0.339874267578125, 105.45,94.35) ">
<g>
<g>
<path fill="#5F4250" stroke="none" d="
M 319.9 414.75
Q 313.55 404.85 299.1 400.7 284.2 396.5 267.4 400.55 248.7 405.1 233.5 418.95 216.1 434.8 206.05 460.6 185.5 513.5 188.5 568.9 189.7 590.5 194.35 606.6 198.65 621.5 203.9 625.4 215.75 634.3 225.45 600.95 228.45 590.55 230.9 577.15
L 232.75 565.85 234.5 577.7
Q 236.95 592.05 240.15 604.55 250.4 644.6 264.7 651.15 279 657.7 283.8 631.2 285.35 622.9 285.7 612.3
L 285.8 603.35 289.75 614.9
Q 294.75 628.8 300.2 640.55 317.7 678.1 333.05 679.9 344.75 681.3 340.25 654.3 338.85 645.8 336 635.6
L 333.45 627 340.8 636.15
Q 349.9 647.15 358.65 656.4 386.6 686.15 400.6 687.8 404 688.2 405.4 683.05 407.05 677 404.8 666.05 398.75 636.7 368.55 587.7 331.6 527.8 325.3 470.25 324.2 460.4 323.45 434.85 323 419.5 319.9 414.75 Z"/>
</g>
</g>
</g>

<g transform="matrix( 0.339874267578125, 0, 0, 0.339874267578125, 105.45,94.35) ">
<g>
<g>
<path fill="#EEBF52" stroke="none" d="
M 377.05 369.35
Q 352.4 367.85 329 372.1 303.35 376.75 283.05 387.65 257.65 401.3 244.15 434.35 230.95 466.6 233.1 506.85 235.35 548.95 253.95 586.8 274.45 628.4 310.75 655.8 373.7 703.3 464.65 690.8 493.05 686.9 520.85 677.45 534.8 672.75 543 668.8 541.8 655.75 538.8 635.1 532.8 593.85 523.9 555.95 495.5 434.6 448.9 392.3 438.75 383.1 419.55 376.95 400.3 370.8 377.05 369.35 Z"/>
</g>
</g>
</g>

<g transform="matrix( 0.339874267578125, 0, 0, 0.339874267578125, 105.45,94.35) ">
<g>
<g>
<path fill="#4BB7A2" stroke="none" d="
M 390.05 372.6
Q 379.45 376 370.3 380.65 347.5 392.25 335.3 420.4 323.45 447.85 325.4 482.1 327.45 517.9 344.15 550.1 362.6 585.5 395.25 608.8 427.55 631.8 468.7 638.25 485.6 634.45 516.05 633.25 531.3 632.7 543.15 632.85 546.3 623.5 548.45 607.95 552.8 576.9 547.8 546.1 540.85 503 516.3 466.65 485.55 421.15 428.95 388.8 418.35 382.75 412.3 380 401.05 374.85 390.05 372.6 Z"/>
</g>
</g>
</g>

<g transform="matrix( 0.339874267578125, 0, 0, 0.339874267578125, 105.45,94.35) ">
<g>
<g>
<path fill="#5F4250" stroke="none" d="
M 714.3 563.4
Q 716.85 560.95 713.65 556.4 709.85 551.05 699.5 545.6 671.65 531 611.95 522.95 538.9 513.1 488.15 479.95 479.5 474.3 458.3 457.95 445.55 448.15 439.65 447.45 427.4 446.05 414.5 455 401.15 464.25 393.3 480.55 384.55 498.7 385.65 520.2 386.95 544.85 401.15 570.1 430.35 621.9 477.25 656.25 495.5 669.6 511.65 676.55 526.55 682.95 533.2 681.3 548.25 677.6 527.65 647.6 521.25 638.25 512.05 627.35
L 504.1 618.35 514.9 624.8
Q 528.1 632.4 540.35 638.1 579.6 656.35 594.4 649.15 609.2 641.95 590.9 620.4 585.2 613.65 576.9 606.3
L 569.7 600.3 581.65 604.8
Q 596.3 609.95 609.4 613.35 651.45 624.1 663.05 612.9 671.95 604.35 647.1 590.05 639.35 585.55 629.15 581.05
L 620.5 577.45 632.75 577.55
Q 647.65 577.5 661.05 576.6 703.7 573.65 714.3 563.4 Z"/>
</g>
</g>
</g>

<g transform="matrix( 0.339874267578125, 0, 0, 0.339874267578125, 105.45,94.35) ">
<g>
<g>
<path fill="#9BD1C6" stroke="none" d="
M 236.1 416.8
Q 224.05 438.25 237.35 441.3 232.75 445.9 228.45 453.25 224 460.8 222.2 467.35 220.15 474.7 222.25 478.15 224.6 482.15 232.2 480.15 230.1 486.5 229.85 496.95 229.55 507.5 231.25 516.65 233.15 526.75 236.75 531 240.9 535.9 246.6 531.9 246.3 542.15 249.1 551.9 251.7 560.9 255.9 566.1 260.15 571.3 263.9 569.9 268.05 568.35 269.95 558.9 276.15 570.8 284.6 579.1 292.65 586.95 299.15 588.2 305.9 589.5 307.55 582.65 309.45 575 304.05 558.9 306.4 563.45 312 569.15 318.45 575.7 323.4 577.4 337.4 582.15 329.45 545.05 334.2 551.5 341.45 554.95 349.3 558.65 355 556.15 361.7 553.15 363.15 542.2 364.85 529.35 358.85 506.9 365.2 510.5 368.1 511.3 373.35 512.75 375.8 509.1 382.3 499.5 370.55 452.15 379.95 463.45 385.75 461.9 390.65 460.55 392.5 450.3 394.1 441.6 393.15 429.1 392.25 417.6 389.95 409.95
L 250.85 395.95 245.75 402.35
Q 239.9 410.1 236.1 416.8 Z"/>
</g>
</g>
</g>

<g transform="matrix( 0.3397979736328125, 0, 0, 0.3397979736328125, 105.45,94.35) ">
<g>
<g>
<path fill="#5F4250" stroke="none" d="
M 301.55 457.15
Q 301.15 456.7 300.5 456.7 299.85 456.7 299.45 457.15 299 457.55 299 458.2 299 465.4 303.85 470.55 306.05 472.85 308.8 474.2 311.55 475.55 314.4 475.7 319.1 476 322.5 473 326.55 469.45 327.4 462.25 327.5 461.65 327.1 461.15 326.7 460.7 326.05 460.6 325.4 460.55 324.9 460.9 324.45 461.3 324.35 461.9 323.75 467.2 321.15 470.05 318.55 472.95 314.55 472.7 309.75 472.4 306 468.4 302 464.1 302 458.2 302 457.55 301.55 457.15 Z"/>
</g>
</g>
</g>

<g transform="matrix( 0.3397979736328125, 0, 0, 0.3397979736328125, 105.45,94.35) ">
<g>
<g>
<path fill="#5F4250" stroke="none" d="
M 315.8 497.8
Q 315.35 497.35 314.7 497.35 314.05 497.35 313.65 497.8 313.2 498.25 313.2 498.9 313.2 506.1 318.05 511.2 320.25 513.55 323 514.9 325.75 516.25 328.6 516.4 333.3 516.65 336.7 513.7 340.75 510.15 341.6 502.95 341.7 502.3 341.3 501.8 340.9 501.35 340.25 501.25 339.6 501.2 339.1 501.55 338.65 501.95 338.55 502.6 337.95 507.9 335.35 510.75 332.75 513.6 328.75 513.35 323.95 513.05 320.25 509.05 316.25 504.8 316.25 498.9 316.25 498.25 315.8 497.8 Z"/>
</g>
</g>
</g>

<g transform="matrix( 0.3397979736328125, 0, 0, 0.3397979736328125, 105.45,94.35) ">
<g>
<g>
<path fill="#5F4250" stroke="none" d="
M 268.25 500.35
Q 267.65 505.65 265.05 508.5 262.45 511.4 258.45 511.15 253.65 510.85 249.95 506.85 245.95 502.6 245.95 496.65 245.95 496 245.5 495.6 245.05 495.15 244.4 495.15 243.75 495.15 243.35 495.6 242.9 496 242.9 496.65 242.9 503.85 247.75 509 249.95 511.3 252.7 512.65 255.45 514 258.3 514.15 263 514.45 266.4 511.45 270.45 507.9 271.3 500.7 271.4 500.1 271 499.6 270.6 499.1 269.95 499.05 269.3 499 268.8 499.35 268.35 499.75 268.25 500.35 Z"/>
</g>
</g>
</g>

<g transform="matrix( 0.3397979736328125, 0, 0, 0.3397979736328125, 105.45,94.35) ">
<g>
<g>
<path fill="#5F4250" stroke="none" d="
M 295.05 532.4
Q 290.25 532.1 286.5 528.1 282.5 523.85 282.5 517.95 282.5 517.3 282.05 516.85 281.65 516.4 281 516.4 280.35 516.4 279.95 516.85 279.5 517.3 279.5 517.95 279.5 525.15 284.35 530.25 286.55 532.6 289.3 533.95 292.05 535.3 294.9 535.45 299.6 535.7 303 532.75 307.05 529.2 307.9 522 307.95 521.35 307.55 520.85 307.2 520.4 306.55 520.3 305.9 520.25 305.4 520.6 304.95 521 304.85 521.65 304.25 526.95 301.65 529.8 299.05 532.65 295.05 532.4 Z"/>
</g>
</g>
</g>

<g transform="matrix( 0.3397979736328125, 0, 0, 0.3397979736328125, 105.45,94.35) ">
<g>
<g>
<path fill="#5F4250" stroke="none" d="
M 297.8 439.95
Q 295.2 442.8 291.2 442.55 286.4 442.25 282.65 438.25 278.65 433.95 278.65 428.05 278.65 427.45 278.2 427 277.8 426.55 277.15 426.55 276.5 426.55 276.1 427 275.65 427.45 275.65 428.05 275.65 435.25 280.5 440.4 282.65 442.7 285.45 444.05 288.2 445.4 291.05 445.6 295.75 445.85 299.15 442.9 303.2 439.35 304.05 432.15 304.15 431.5 303.75 431 303.35 430.55 302.7 430.45 302.05 430.4 301.55 430.75 301.1 431.15 301 431.8 300.4 437.1 297.8 439.95 Z"/>
</g>
</g>
</g>

<g transform="matrix( 0.3397979736328125, 0, 0, 0.3397979736328125, 105.45,94.35) ">
<g>
<g>
<path fill="#5F4250" stroke="none" d="
M 270.8 465.5
Q 268.2 468.4 264.2 468.15 259.4 467.85 255.65 463.85 251.65 459.55 251.65 453.65 251.65 453 251.2 452.6 250.75 452.15 250.1 452.15 249.5 452.15 249.05 452.6 248.6 453 248.6 453.65 248.6 460.75 253.45 466 255.65 468.3 258.4 469.65 261.15 471 264 471.15 268.7 471.45 272.1 468.45 276.15 464.9 277 457.7 277.1 457.1 276.7 456.6 276.3 456.1 275.65 456.05 275.05 456 274.55 456.35 274.1 456.75 274 457.35 273.4 462.65 270.8 465.5 Z"/>
</g>
</g>
</g>

<g transform="matrix( 0.3397979736328125, 0, 0, 0.3397979736328125, 105.45,94.35) ">
<g>
<g>
<path fill="#5F4250" stroke="none" d="
M 278.2 480.6
Q 277.8 480.15 277.15 480.15 276.5 480.15 276.1 480.6 275.65 481.05 275.65 481.7 275.65 488.9 280.5 494 282.7 496.35 285.45 497.7 288.2 499.05 291.05 499.2 295.75 499.45 299.15 496.5 303.2 492.95 304.05 485.75 304.15 485.1 303.75 484.6 303.35 484.15 302.7 484.05 302.05 484 301.55 484.35 301.1 484.75 301 485.4 300.4 490.7 297.8 493.55 295.2 496.4 291.2 496.15 286.4 495.85 282.65 491.9 278.65 487.6 278.65 481.7 278.65 481.05 278.2 480.6 Z"/>
</g>
</g>
</g>

<g transform="matrix( 0.339874267578125, 0, 0, 0.339874267578125, 105.45,94.35) ">
<g>
<g>
<path fill="#4BB7A2" stroke="none" d="
M 421.55 85.95
Q 411.1 80.2 407 74.7 402.1 68.25 403.1 59 404.1 49.8 398.25 44.75 392.9 40.1 386.65 42.2 380 44.45 379.1 52.95 377.95 63.2 386.3 78.6 360.5 72.3 353.15 54.1 350.1 46.55 349.45 35.55 349.05 28.25 349.75 14.2 350.25 3.45 340.6 0.65 331.35 -2 322.6 4.6 312.85 12 313.05 25.75 313.35 42.5 329.35 63.65 304.15 49.45 284.9 46 269.1 43.2 258.85 47.8 250.55 51.55 248.2 58.7 246.1 65.2 250 68.35 253.1 70.85 260.4 71.75 264.5 72.3 275.1 72.65 296.05 73.35 302.3 77.7 243.65 86.6 210.7 122.45 174.25 162 171.6 232.05 147.1 249.2 139.85 275.6 132.3 303.1 146.65 330.3 162.45 360.35 201.6 382.2 245.95 406.9 314.45 417.5 384.35 428.3 434.6 423.05 481.15 418.2 507.65 400 532.55 382.85 537.35 355.75 541.95 329.65 527.3 298 542.95 228.2 526 179.9 511.75 139.25 475 115 461.8 106.3 444.85 97.75 428 89.55 421.55 85.95 Z"/>
</g>
</g>
</g>

<g transform="matrix( 0.339874267578125, 0, 0, 0.339874267578125, 105.45,94.35) ">
<g>
<g>
<path fill="#CFE8E1" stroke="none" d="
M 376.7 153
Q 359.2 165.5 348.9 191.55 337.75 219.7 335.95 261.15 310.3 260.05 286.65 254.95 279.25 253.35 272.95 251.55
L 268.15 250.05
Q 279.9 237.1 287.35 217.5 302.3 178.35 280.9 145.4 268.85 126.85 244.4 124.9 221.45 123.1 199.75 136.15 173.85 173.5 171.6 232.05 147.1 249.2 139.85 275.6 132.3 303.1 146.65 330.3 162.45 360.35 201.6 382.2 245.95 406.9 314.45 417.5 384.35 428.3 434.6 423.05 481.15 418.2 507.65 400 532.55 382.85 537.35 355.75 541.95 329.65 527.3 298
L 506.55 286
Q 507.55 263.3 501.65 236.05 489.8 181.45 455.2 158.45 434.15 144.4 413.9 142.85 393.15 141.2 376.7 153 Z"/>
</g>
</g>
</g>

<g transform="matrix( 0.3397979736328125, 0, 0, 0.3397979736328125, 105.45,94.35) ">
<g>
<g>
<path fill="#EB5026" stroke="none" d="
M 389.6 302.65
Q 377.35 306.95 376.35 315.1 375.35 323.25 386.1 330.45 396.9 337.65 413.15 339.65 429.4 341.7 441.65 337.4 453.9 333.1 454.9 324.95 455.9 316.8 445.15 309.6 434.35 302.45 418.1 300.4 401.8 298.4 389.6 302.65 Z"/>
</g>
</g>
</g>

<g transform="matrix( 0.3397979736328125, 0, 0, 0.3397979736328125, 105.45,94.35) ">
<g>
<g>
<path fill="#EB5026" stroke="none" d="
M 194 249.55
Q 177.75 247.55 165.5 251.85 153.3 256.15 152.3 264.3 151.3 272.45 162.05 279.65 172.85 286.85 189.1 288.85 205.4 290.9 217.6 286.55 229.85 282.25 230.85 274.1 231.85 265.95 221.05 258.8 210.3 251.6 194 249.55 Z"/>
</g>
</g>
</g>

<g transform="matrix( 0.3397979736328125, 0, 0, 0.3397979736328125, 105.45,94.35) ">
<g>
<g>
<path fill="#F39730" stroke="none" d="
M 362.75 292.15
Q 362.25 286.75 347.1 280.8 332.95 275.25 313.45 271.9 293.1 268.4 278.65 269.4 262.25 270.6 259.7 277.45 253.75 293.6 252.3 312.25 250.7 332.2 254.95 347.6 259.05 362.4 262.75 367.65 265.65 371.85 268.75 370.5 269.55 370.15 284.95 355.25 302.25 338.55 315.65 329.25 327.15 321.3 348.3 310.35 355.85 305.85 359.15 302 363.2 297.4 362.75 292.15 Z"/>
</g>
</g>
</g>

<g transform="matrix( 0.3397979736328125, 0, 0, 0.3397979736328125, 105.45,94.35) ">
<g>
<g>
<path fill="#67130C" stroke="none" d="
M 290.85 285.95
L 275.1 283.5
Q 272.15 287.7 269.85 297.15 267.7 306 266.85 316.2 266.05 326.6 267 333.8 268.05 341.75 271 343.15 282.2 331.2 294.1 320.05 315.9 299.65 329.65 292.2 310.4 289 290.85 285.95 Z"/>
</g>
</g>
</g>

<g transform="matrix( 0.3397979736328125, 0, 0, 0.3397979736328125, 105.45,94.35) ">
<g>
<g>
<path fill="#EB5026" stroke="none" d="
M 275 313.6
Q 271.35 329.15 274.05 339.9 286.45 326.9 298.4 316.1 317.3 298.9 329.65 292.2
L 291.35 286
Q 279.4 294.55 275 313.6 Z"/>
</g>
</g>
</g>

<g transform="matrix( 0.3397979736328125, 0, 0, 0.3397979736328125, 105.45,94.35) ">
<g>
<g>
<path fill="#FCAE1B" stroke="none" d="
M 333.4 294.5
Q 338.6 294.25 362.75 292.15 363.95 279.2 348.9 267.4 341.05 261.3 325.75 254.05 321.55 252.05 318.25 246.75 316.75 244.3 313.2 236.55 310.25 230 307.85 227.15 304.35 222.95 299.5 222.45 294.45 221.9 288.95 225.1 282.1 229.85 277.75 232.8 259.7 245.05 234.75 247.05 216.65 248.5 209.6 251.5 202.3 254.55 207.6 258.9 243.45 288.25 294.55 293.65 312.55 295.5 333.4 294.5 Z"/>
</g>
</g>
</g>

<g transform="matrix( 0.339874267578125, 0, 0, 0.339874267578125, 105.45,94.35) ">
<g>
<g>
<path fill="#090A08" stroke="none" d="
M 407.5 219.5
Q 421.85 220.3 433.05 232.3 445 245.1 445 262.8 445 264.7 446.35 266 447.7 267.35 449.55 267.35 451.45 267.35 452.75 266 454.1 264.7 454.1 262.8 454.1 252.45 450.35 242.95 446.55 233.4 439.55 225.95 433.05 219 424.75 214.95 416.5 210.9 408 210.4 393.95 209.65 383.75 218.55 371.6 229.1 369.15 250.65 368.95 252.5 370.1 254 371.25 255.5 373.15 255.7 375.05 255.95 376.5 254.75 377.95 253.6 378.15 251.7 380 235.9 387.75 227.35 395.55 218.85 407.5 219.5 Z"/>
</g>
</g>
</g>

<g transform="matrix( 0.339874267578125, 0, 0, 0.339874267578125, 105.45,94.35) ">
<g>
<g>
<path fill="#090A08" stroke="none" d="
M 203.5 194.35
Q 211.3 185.85 223.25 186.5 237.6 187.35 248.8 199.3 260.75 212.15 260.75 229.8 260.75 231.7 262.1 233 263.45 234.35 265.3 234.35 267.2 234.35 268.5 233 269.85 231.7 269.85 229.8 269.85 219.45 266.1 209.95 262.35 200.4 255.3 192.95 248.75 186.05 240.5 182 232.25 177.9 223.75 177.45 209.7 176.65 199.5 185.55 187.35 196.1 184.9 217.7 184.7 219.6 185.85 221.05 187.05 222.5 188.9 222.7 190.75 222.95 192.25 221.75 193.75 220.6 193.95 218.7 195.75 202.9 203.5 194.35 Z"/>
</g>
</g>
</g>

<g transform="matrix( 0.339874267578125, 0, 0, 0.339874267578125, 105.45,94.35) ">
<g>
<g>
<path fill="#FCAE1B" stroke="none" d="
M 839.45 482.55
Q 833.45 473.95 810.9 473.2 791.05 472.5 762.7 477.9 736.4 482.85 712.85 491 688.9 499.25 679.3 506.85 643.2 535.45 632.65 558.25 628.6 567.05 627.1 577.45 626.2 583.5 625.4 595.65 617.8 592.05 605.95 592.45 593.65 592.9 581.65 597.6 568.35 602.8 559 612 548.4 622.45 544.55 636.65 534.3 628.65 518.4 624.2 502 619.65 485.3 620.55 466.95 621.5 452.95 628.95 437.15 637.35 429.15 652.85 417.85 627.65 383.8 620.15 369.2 616.95 353.05 617.85 337.55 618.7 323.9 623.1 324.55 604.7 310.55 585.8 298.15 569 277.75 556 258.35 543.65 240.35 540 221.5 536.15 213.25 543.9 200.1 517.25 174.7 499.7 152.75 484.55 125.4 478.45 100.9 472.95 80.5 476.3 60.5 479.6 55.15 489.5 52.2 494.95 59.25 498.9 63 500.95 77.35 505.45 91.35 509.85 97.95 513.7 108.15 519.7 109.75 528.2 54.45 518 23.1 537.7 11.85 544.75 5.4 554.7 0.3 562.65 0 568.75 -0.25 574.35 7.25 577.2 12.65 579.3 24.7 580.55 42.8 582.45 44.1 582.65 54.15 584.2 57.35 587.4 46.5 588.85 34.4 601.9 23.2 613.95 14.45 632 5.65 650.05 2.9 666.75 -0.1 684.85 5.15 695.25 10.2 705.15 21.8 698.8 27.55 695.7 42.35 682.3 32.95 707.35 32.05 737.25 31.25 762.7 36.05 774.4 41.15 786.95 48.85 786.35 59.25 785.55 72.75 760.15 72.05 769.2 74.8 781.15 77.7 793.55 83.4 805 97.2 832.75 118 838.4 122.85 839.7 124.7 839.55 126.8 839.4 127.7 837.25 128.4 835.55 129 830.25 130.1 820.6 130.6 817.3 136.75 845.75 169.4 871.9 181.6 881.75 194.7 888.8 206.35 895.05 212.8 896.2 223.9 898.15 225.95 891.55 227.8 885.6 222.6 871.4 229.85 881.75 246.7 892.6 262.75 902.95 282.3 910.5 302.35 918.25 318.95 920.25 337.05 922.5 346.2 917.1 349.05 915.45 346.65 912.25 345.8 911.1 339.75 905.4 334.35 900.4 332.3 896.65 329.25 891.2 331.2 886.05 387.75 932.7 436.15 916.45 451.25 911.4 463.75 900.65 467.65 897.3 470.8 893.75
L 473.2 890.9 471.25 896.15
Q 469.1 902.6 468.3 908.25 465.8 926.5 477.6 930.8 503.2 940.2 529.85 919.05 538.2 912.45 545.65 903.6
L 551.4 896.05 550.9 900.35
Q 550.45 905.55 550.55 910.25 550.95 925.25 556.9 929.3 572.3 939.75 599.75 906.75 608.3 896.4 617.05 882.95
L 624.1 871.6 623.55 877.95
Q 623.1 885.6 623.55 892.35 624.95 913.8 634.8 917.5 651.95 923.95 681.75 884.25 691.05 871.85 700.5 856.3
L 708.1 843.25 707.6 850.25
Q 707.2 858.7 707.65 865.8 709.15 888.6 718.8 889.7 736.45 891.75 760.35 845.2 767.85 830.7 775.05 813.05
L 780.75 798.3 780.45 805.2
Q 780.45 813.4 781.9 820.2 786.5 841.85 803.7 840.75 832.1 838.95 845 788.45 849 772.65 851 753.9
L 852.2 738.3 852.2 744.35
Q 852.55 751.45 854.4 756.35 860.3 772.15 878.85 760.75 897.4 749.35 887.5 703.35 884.4 688.95 878.8 672.85
L 873.85 659.6 878.2 665.85
Q 883.55 673.1 888.8 677.9 905.65 693.25 914.95 678.45 929.4 655.5 883.2 614 868.75 601.05 850 587.8
L 834.1 577.1 843.35 580.6
Q 854.5 584.65 864.2 587.25 895.2 595.45 899.8 586 902.85 579.8 897.45 568.45 891.45 555.9 878.35 545.1 862.8 532.35 841.4 526 816.1 518.45 785.4 520.95 785.8 515.35 796.95 511.3 799 510.55 819.7 504.95 833.95 501.1 838.8 497 845.6 491.3 839.45 482.55 Z"/>
</g>
</g>
</g>

<g transform="matrix( 0.3397979736328125, 0, 0, 0.3397979736328125, 105.45,94.35) ">
<g>
<g>
<path fill="#EE651E" stroke="none" d="
M 768.65 632.15
Q 764.65 630.85 765.35 633.45 765.9 635.45 769.95 641.05 782.75 658.9 785.15 664.2 788.45 671.5 790.4 684.2 791.1 688.9 791.75 690.55 792.65 693.05 794.55 693.3 798.4 693.85 799 685.65 799.6 677.55 796.55 666.8 793.15 654.75 786.65 645.9 778.95 635.45 768.65 632.15 Z"/>
</g>
</g>
</g>

<g transform="matrix( 0.3397979736328125, 0, 0, 0.3397979736328125, 105.45,94.35) ">
<g>
<g>
<path fill="#EE651E" stroke="none" d="
M 741.85 778.85
Q 741.3 780.8 741.8 787.7 743.45 809.55 742.75 815.4 741.75 823.35 736.8 835.2 735 839.6 734.65 841.35 734.2 843.95 735.65 845.15 738.65 847.6 743.4 840.95 748.15 834.3 751.15 823.55 754.5 811.5 753.55 800.55 752.45 787.65 745.35 779.45 742.6 776.25 741.85 778.85 Z"/>
</g>
</g>
</g>

<g transform="matrix( 0.3397979736328125, 0, 0, 0.3397979736328125, 105.45,94.35) ">
<g>
<g>
<path fill="#EE651E" stroke="none" d="
M 829.3 557.9
Q 831.85 558.6 833.2 557.25 835.9 554.5 829.7 549.15 823.55 543.8 813.1 539.9 801.4 535.45 790.4 535.4 777.45 535.35 768.65 541.7 765.2 544.15 767.7 545.1 769.65 545.85 776.55 545.95 798.4 546.25 804.15 547.5 812 549.2 823.35 555.2 827.55 557.4 829.3 557.9 Z"/>
</g>
</g>
</g>

<g transform="matrix( 0.3397979736328125, 0, 0, 0.3397979736328125, 105.45,94.35) ">
<g>
<g>
<path fill="#EE651E" stroke="none" d="
M 497.85 815.95
Q 497.2 818.5 498.05 827.2 498.5 832.3 499.75 844.55 500.65 855.5 499.95 862.25 498.9 872.35 492.95 887.5 490.7 893.1 490.35 895.35 489.85 898.65 491.75 900.15 495.6 903.2 501.45 894.65 507.3 886.1 510.8 872.4 514.75 857 513.25 843.2 511.5 826.85 502.3 816.65 498.7 812.7 497.85 815.95 Z"/>
</g>
</g>
</g>

<g transform="matrix( 0.3397979736328125, 0, 0, 0.3397979736328125, 105.45,94.35) ">
<g>
<g>
<path fill="#EE651E" stroke="none" d="
M 603.35 774.35
Q 603.5 776.5 606.4 783.3 608.1 787.2 612.25 796.7 615.75 805.25 616.95 810.8 618.7 819.15 617.85 832.8 617.5 837.85 617.8 839.75 618.25 842.55 620.15 843.25 624 844.65 626.5 836.35 629 828 628.25 816.15 627.45 802.8 622.7 792.15 617.05 779.55 607.1 773.75 603.2 771.5 603.35 774.35 Z"/>
</g>
</g>
</g>

<g transform="matrix( 0.3397979736328125, 0, 0, 0.3397979736328125, 105.45,94.35) ">
<g>
<g>
<path fill="#EE651E" stroke="none" d="
M 656.05 631.9
Q 661.6 637.25 663.85 636 666.85 634.3 662.9 628.3 658.95 622.3 651.1 616.4 642.25 609.8 632.95 607.1 622 603.95 613.05 607.15 609.55 608.4 611.4 609.8 612.85 610.9 618.7 612.65 637.15 618.25 641.7 620.7 647.9 624.05 656.05 631.9 Z"/>
</g>
</g>
</g>

<g transform="matrix( 0.3397979736328125, 0, 0, 0.3397979736328125, 105.45,94.35) ">
<g>
<g>
<path fill="#EE651E" stroke="none" d="
M 191.05 570.9
Q 192.85 571.2 198.85 570.05 217.7 566.4 222.95 566.45 230.05 566.5 240.85 569.65 244.9 570.8 246.45 570.9 248.8 571.05 249.7 569.65 251.55 566.75 245.25 563.25 238.95 559.8 229.25 558.25 218.35 556.55 208.9 558.5 197.7 560.75 191.25 567.8 188.75 570.55 191.05 570.9 Z"/>
</g>
</g>
</g>

<g transform="matrix( 0.3397979736328125, 0, 0, 0.3397979736328125, 105.45,94.35) ">
<g>
<g>
<path fill="#EE651E" stroke="none" d="
M 295.4 627.25
Q 297.4 624.65 296.45 622.5 294.55 618.1 285.55 622.7 276.55 627.3 267.2 637.4 256.65 648.75 251.5 661.3 245.4 676.15 248.55 689.15 249.8 694.25 252.05 691.8 253.75 689.95 257.1 682.1 261.25 671.9 263.7 666.4 268.05 656.6 271.75 651.15 277.35 643 289.55 632.8 294.05 629.05 295.4 627.25 Z"/>
</g>
</g>
</g>

<g transform="matrix( 0.3397979736328125, 0, 0, 0.3397979736328125, 105.45,94.35) ">
<g>
<g>
<path fill="#EE651E" stroke="none" d="
M 404.15 677.35
Q 404.55 674.1 402.65 672.7 398.8 669.85 393.35 678.35 387.9 686.85 384.85 700.3 381.5 715.45 383.35 728.85 385.55 744.75 394.8 754.4 398.4 758.2 399.15 754.95 399.7 752.45 398.65 744 397.1 733.1 396.45 727.1 395.25 716.5 395.75 709.9 396.45 700.05 401.85 685.1 403.85 679.55 404.15 677.35 Z"/>
</g>
</g>
</g>

<g transform="matrix( 0.3397979736328125, 0, 0, 0.3397979736328125, 105.45,94.35) ">
<g>
<g>
<path fill="#EE651E" stroke="none" d="
M 84.05 673.9
Q 84.45 670.65 82.55 669.25 78.7 666.4 73.25 674.9 67.8 683.4 64.75 696.85 61.4 712 63.25 725.4 65.45 741.3 74.7 750.95 78.3 754.75 79.05 751.5 79.6 749 78.55 740.55 77 729.65 76.35 723.65 75.15 713.05 75.65 706.45 76.35 696.6 81.75 681.65 83.75 676.1 84.05 673.9 Z"/>
</g>
</g>
</g>

<g transform="matrix( 0.3397979736328125, 0, 0, 0.3397979736328125, 105.45,94.35) ">
<g>
<g>
<path fill="#EE651E" stroke="none" d="
M 161.1 777.65
Q 157.4 775.65 153.75 783.75 150.1 791.85 149.25 803.9 148.3 817.5 151.65 828.95 155.65 842.45 164.95 849.65 168.6 852.45 168.8 849.55 168.95 847.35 166.9 840.1 164.15 830.85 162.8 825.75 160.4 816.65 159.95 810.85 159.3 802.15 162 788.5 163 783.4 163 781.45 162.95 778.6 161.1 777.65 Z"/>
</g>
</g>
</g>

<g transform="matrix( 0.3397979736328125, 0, 0, 0.3397979736328125, 105.45,94.35) ">
<g>
<g>
<path fill="#EE651E" stroke="none" d="
M 387.4 648.1
Q 388.45 645.4 387.15 643.8 384.45 640.55 378 646.65 371.55 652.75 366.15 663.6 360.05 675.8 358.8 687.65 357.3 701.65 363.15 711.85 365.45 715.85 366.75 713.25 367.75 711.25 368.6 703.8 369.6 694.2 370.3 688.95 371.6 679.6 373.4 674.1 376.1 665.8 383.85 654.2 386.7 649.9 387.4 648.1 Z"/>
</g>
</g>
</g>

<g transform="matrix( 0.3397979736328125, 0, 0, 0.3397979736328125, 105.45,94.35) ">
<g>
<g>
<path fill="#EE651E" stroke="none" d="
M 677.55 582.15
Q 680.55 579 687.85 571.3 694.5 564.6 699.25 561.3 706.4 556.35 719.6 551.75 724.45 550.05 726.1 549 728.55 547.5 728.45 545.45 728.25 541.25 719.45 542.2 710.65 543.2 699.8 548.6 687.6 554.65 679.45 563.35 669.8 573.65 668.35 585.3 667.75 589.85 670.35 588.55 672.35 587.6 677.55 582.15 Z"/>
</g>
</g>
</g>

<g transform="matrix( 0.3397979736328125, 0, 0, 0.3397979736328125, 105.45,94.35) ">
<g>
<g>
<path fill="#FFD180" stroke="none" d="
M 155.75 631.3
Q 157.1 627.45 155.1 625.25 151.1 620.8 142.35 629.85 133.55 638.85 126.55 654.55 118.65 672.2 117.55 689.1 116.3 709.05 125.2 723.15 128.7 728.65 130.35 724.9 131.65 722 132.45 711.4 133.3 697.7 134 690.2 135.25 676.9 137.45 669 140.8 657.1 151.1 640.15 154.9 633.9 155.75 631.3 Z"/>
</g>
</g>
</g>

<g transform="matrix( 0.3397979736328125, 0, 0, 0.3397979736328125, 105.45,94.35) ">
<g>
<g>
<path fill="#FFD180" stroke="none" d="
M 66.55 554.75
Q 69 555.8 78 556.2 83.25 556.45 95.95 557 107.2 557.7 113.95 559.4 124.1 561.95 138.65 570.3 144 573.35 146.25 574.05 149.55 575.1 151.35 573.35 155 569.85 147.15 562.65 139.35 555.45 125.9 549.85 110.8 543.6 96.5 543.1 79.6 542.45 67.9 550.35 63.35 553.4 66.55 554.75 Z"/>
</g>
</g>
</g>

<g transform="matrix( 0.3397979736328125, 0, 0, 0.3397979736328125, 105.45,94.35) ">
<g>
<g>
<path fill="#FFD180" stroke="none" d="
M 242.6 754.35
Q 242.6 750.3 240 748.9 234.75 746.05 229.5 757.5 224.25 768.9 222.9 786 221.35 805.25 226 821.5 231.45 840.7 244.6 851 249.7 855 250.05 850.9 250.3 847.75 247.5 837.5 243.7 824.35 241.85 817.05 238.55 804.15 238 795.95 237.15 783.6 241.15 764.3 242.65 757.15 242.6 754.35 Z"/>
</g>
</g>
</g>

<g transform="matrix( 0.3397979736328125, 0, 0, 0.3397979736328125, 105.45,94.35) ">
<g>
<g>
<path fill="#FFD180" stroke="none" d="
M 307.1 669.15
Q 311.8 658.75 323.55 644.7 327.9 639.5 329.05 637.2 330.8 633.85 329.3 631.6 326.25 627 316.95 634.05 307.7 641.05 299.15 654.45 289.45 669.45 286.15 684.75 282.25 702.8 288.45 716.9 290.9 722.45 292.95 719.25 294.5 716.75 296.7 707.2 299.35 694.8 301 688.05 303.95 676.1 307.1 669.15 Z"/>
</g>
</g>
</g>

<g transform="matrix( 0.3397979736328125, 0, 0, 0.3397979736328125, 105.45,94.35) ">
<g>
<g>
<path fill="#FFD180" stroke="none" d="
M 72 599
Q 73.8 597.05 73.2 595.25 72 591.55 64.4 594.6 56.85 597.65 48.55 605.1 39.25 613.5 34.15 623.25 28.15 634.75 29.75 645.45 30.4 649.65 32.35 647.85 33.9 646.45 37.15 640.4 47.5 621.1 51.25 616.55 56.35 610.4 66.9 603.05 70.8 600.3 72 599 Z"/>
</g>
</g>
</g>

<g transform="matrix( 0.3397979736328125, 0, 0, 0.3397979736328125, 105.45,94.35) ">
<g>
<g>
<path fill="#FFD180" stroke="none" d="
M 833.9 730.7
Q 833.25 732.65 833.4 739.55 833.95 761.45 832.95 767.25 831.55 775.15 826 786.75 823.95 791 823.55 792.75 822.95 795.3 824.35 796.6 827.25 799.2 832.3 792.8 837.4 786.4 840.9 775.85 844.9 763.95 844.5 753 844 740.05 837.35 731.5 834.75 728.2 833.9 730.7 Z"/>
</g>
</g>
</g>

<g transform="matrix( 0.3397979736328125, 0, 0, 0.3397979736328125, 105.45,94.35) ">
<g>
<g>
<path fill="#FFD180" stroke="none" d="
M 744.25 572.35
Q 744.8 575.25 748.65 576.5 751.3 577.35 758.6 578.05 778.25 579.95 789.75 584.4 797.45 587.35 808.8 594.35 815.2 598.3 826.65 605.85 835.6 611.55 838.7 612.25 842.7 613.15 840.4 607.05 834.45 591.5 817.75 580.55 803.6 571.3 784.75 567.05 768 563.25 755.55 564.9 743.1 566.5 744.25 572.35 Z"/>
</g>
</g>
</g>

<g transform="matrix( 0.3397979736328125, 0, 0, 0.3397979736328125, 105.45,94.35) ">
<g>
<g>
<path fill="#FFD180" stroke="none" d="
M 771.9 604.8
Q 771.25 607 773.5 609.25 775.05 610.75 779.85 613.85 792.8 622.2 799.2 629.4 803.45 634.2 808.85 643.05 811.9 648.1 817.15 657.4 821.35 664.55 823.25 666.15 825.7 668.2 826.25 663.15 827.7 650.2 820 636.7 813.5 625.25 801.95 615.55 791.65 606.95 782.45 603.65 773.2 600.35 771.9 604.8 Z"/>
</g>
</g>
</g>

<g transform="matrix( 0.3397979736328125, 0, 0, 0.3397979736328125, 105.45,94.35) ">
<g>
<g>
<path fill="#FFD180" stroke="none" d="
M 688.8 695.45
Q 689.7 698.3 693.65 705.05 704.3 723.35 707.6 736.15 709.8 744.7 710.8 758.95 711.35 766.95 711.95 781.6 712.55 792.95 713.9 796.1 715.6 800.1 719.45 794.3 729.3 779.4 728.4 758.05 727.6 740 719.55 721 712.4 704.05 703.2 694.25 694.05 684.4 689.65 689.05 687.5 691.35 688.8 695.45 Z"/>
</g>
</g>
</g>

<g transform="matrix( 0.3397979736328125, 0, 0, 0.3397979736328125, 105.45,94.35) ">
<g>
<g>
<path fill="#FFD180" stroke="none" d="
M 567 756.95
Q 567.15 759.9 569.2 767.5 574.75 787.95 574.65 801.1 574.55 809.9 571.85 823.9 570.35 831.8 567.15 846.1 564.8 857.25 565.25 860.6 565.9 864.95 571.1 860.35 584.45 848.5 589.1 827.65 593 810 590.15 789.55 587.6 771.3 581.25 759.45 574.95 747.6 569.5 750.95 566.8 752.6 567 756.95 Z"/>
</g>
</g>
</g>

<g transform="matrix( 0.3397979736328125, 0, 0, 0.3397979736328125, 105.45,94.35) ">
<g>
<g>
<path fill="#FFD180" stroke="none" d="
M 568.7 669.65
Q 581.85 679.65 588 687.75 592.15 693.2 597.1 703.1 599.9 708.65 604.65 719 608.5 726.95 610.35 728.8 612.8 731.2 613.85 725.9 616.45 712.3 609.45 697.25 603.5 684.55 592.05 673.3 581.85 663.3 572.35 659 562.85 654.7 561.1 659.35 560.25 661.65 562.4 664.2 563.9 665.95 568.7 669.65 Z"/>
</g>
</g>
</g>

<g transform="matrix( 0.3397979736328125, 0, 0, 0.3397979736328125, 105.45,94.35) ">
<g>
<g>
<path fill="#FFD180" stroke="none" d="
M 706.4 519.9
Q 712.55 517 723.25 514.1 729.3 512.5 740.35 509.9 748.95 507.75 751.15 506.3 753.95 504.4 748.95 502.3 736.2 497 720.05 500.8 706.4 504.05 693.1 513 681.25 520.95 675.1 529.4 668.95 537.85 673.15 540.5 675.2 541.8 678.15 540.2 680.2 539.05 684.75 535.1 697.15 524.3 706.4 519.9 Z"/>
</g>
</g>
</g>

<g transform="matrix( 0.3397979736328125, 0, 0, 0.3397979736328125, 105.45,94.35) ">
<g>
<g>
<path fill="#FFD180" stroke="none" d="
M 166.15 521.65
Q 170.2 525.4 175.6 532.6 178.65 536.65 183.95 544.2 188.15 550.05 189.9 551.2 192.2 552.8 192.25 548.4 192.4 537.15 184.65 526.15 178.1 516.85 167.35 509.5 157.8 502.95 149.6 500.9 141.35 498.8 140.6 502.75 140.25 504.7 142.35 506.45 143.8 507.65 148.2 509.9 160.05 516 166.15 521.65 Z"/>
</g>
</g>
</g>

<g transform="matrix( 0.3397979736328125, 0, 0, 0.3397979736328125, 105.45,94.35) ">
<g>
<g>
<path fill="#FFD180" stroke="none" d="
M 441.1 886.8
Q 440.05 885.15 437.3 885.3 435.45 885.4 430.7 886.75 417.9 890.35 409.55 890.35 404 890.35 395.15 888.75 385.25 886.75 381.15 885.9 374.1 884.5 372 884.85 369.25 885.25 372.2 888.5 379.75 896.85 392.9 899.6 404.05 901.95 416.95 900.05 428.4 898.35 435.8 894.25 443.25 890.2 441.1 886.8 Z"/>
</g>
</g>
</g>
</g>
</svg>
