<svg xmlns="http://www.w3.org/2000/svg" width="227.79" height="219.765" viewBox="0 0 227.79 219.765">
  <g id="Group_3627" data-name="Group 3627" transform="translate(-3052.1 -1241.012)">
    <path id="Path_1181" data-name="Path 1181" d="M3532.871,1581.157l20.74,6.065a49.562,49.562,0,0,0-2.531,6.655,62.676,62.676,0,0,0-1.6,7.476l-11.107-.393-9.632-5.672a49.339,49.339,0,0,0,2.854-7.152A37.645,37.645,0,0,0,3532.871,1581.157Z" transform="translate(-373.041 -266.215)" fill="#ffae8d"/>
    <path id="Path_1182" data-name="Path 1182" d="M3480.206,1300.325c7.043-11.749,15.093-13,23.363-15.8,7.491-2.537,9.314,2.012,15.789,5.882,13.623,8.144,16.3,28.735,5.987,45.99s-26.272,26.661-46.167,15.475c-9.313-5.236-12.2-15.982-9.94-27.71,0,0-5.124-1.852-3.668-5.8,1.936-5.25,4.938-.747,7.739-3.427S3476.8,1306.008,3480.206,1300.325Z" transform="translate(-323.398 -33.484)" fill="#ffae8d"/>
    <path id="Path_1183" data-name="Path 1183" d="M3520.374,1406.212c.649-1.156,1.567-1.875,2.05-1.605s.348,1.426-.3,2.583-1.567,1.875-2.05,1.605S3519.725,1407.369,3520.374,1406.212Z" transform="translate(-366.032 -127.993)"/>
    <path id="Path_1184" data-name="Path 1184" d="M3555.407,1609.384a.656.656,0,0,0-.463-.211,32.214,32.214,0,0,1-8.932-2.066.672.672,0,0,0-.863.4.681.681,0,0,0,.394.874,33.4,33.4,0,0,0,9.337,2.128.671.671,0,0,0,.7-.647A.654.654,0,0,0,3555.407,1609.384Z" transform="translate(-385.851 -286.492)" fill="#cb6339"/>
    <path id="Path_1185" data-name="Path 1185" d="M3494.636,1460.021a6.026,6.026,0,1,1,2.039,8.332A6.065,6.065,0,0,1,3494.636,1460.021Z" transform="translate(-345.665 -169.065)" fill="#fe7960"/>
    <path id="Path_1186" data-name="Path 1186" d="M3496.7,1533.938a.46.46,0,0,0-.344.056c-2.808,1.77-5.444,2.505-8.17,1.534a.453.453,0,0,0-.576.278.44.44,0,0,0,.266.568c3.049,1.086,5.939.282,8.958-1.619a.449.449,0,0,0,.141-.62A.433.433,0,0,0,3496.7,1533.938Z" transform="translate(-340.831 -229.25)" fill="#9d321c"/>
    <path id="Path_1187" data-name="Path 1187" d="M3538.266,1372.78a6.3,6.3,0,0,0-2.779-1.462c-.812-.147-1.456-.361-1.906.031l-.047-.008a1.374,1.374,0,0,0,.287,1.921,10.644,10.644,0,0,1,2.625,1.443,16.665,16.665,0,0,1,2.666,2.767c.618.524,1.125-.305.913-1.479A5.375,5.375,0,0,0,3538.266,1372.78Z" transform="translate(-376.577 -101.834)" fill="#320c0c"/>
    <path id="Path_1188" data-name="Path 1188" d="M3564.41,1282.311a23.936,23.936,0,0,1,11.959-9.347c11.162-3.617,26.735,2.788,32.889,17.158,9.326,21.773-6.037,36.152-6.037,36.152s-11.548,1.268-16.257-.633c0,0-10-5.782-7.984-12.73C3584.691,1293.218,3564.41,1282.311,3564.41,1282.311Z" transform="translate(-400.959 -24.231)" fill="#8c482a"/>
    <path id="Path_1189" data-name="Path 1189" d="M3596.731,1315.328a9.191,9.191,0,0,0-3.442-1.583.449.449,0,0,0-.167.882c3.885.72,9.666,6.986,13.769,15.091,4.7,9.284,6.414,19.1,4,26.9a.45.45,0,0,0,.863.254c2.489-8.056.739-18.084-4.056-27.557C3604.538,1323.07,3600.391,1317.866,3596.731,1315.328Z" transform="translate(-423.145 -56.919)" fill="#320c0c"/>
    <path id="Path_1190" data-name="Path 1190" d="M3664.2,1285.253a17.62,17.62,0,0,0-8.17-2.985.452.452,0,1,0-.081.9c6.965.543,14.376,6.842,18.242,15.769,4.416,10.2,3.736,22.113-2.977,33.323a.45.45,0,0,0,.772.462c6.863-11.461,7.556-23.687,3.026-34.145A30.348,30.348,0,0,0,3664.2,1285.253Z" transform="translate(-472.283 -32.288)" fill="#320c0c"/>
    <path id="Path_1191" data-name="Path 1191" d="M3614.63,1302.424c-1.856-1.229-3.568-1.832-4.88-1.641a.454.454,0,0,0,.134.9c3.03-.44,9.095,4.494,13.293,11.7,5.44,9.336,7.463,21.041,4.722,33.866a.453.453,0,1,0,.887.187c2.789-13.048.72-24.979-4.831-34.5A32.63,32.63,0,0,0,3614.63,1302.424Z" transform="translate(-436.149 -46.753)" fill="#320c0c"/>
    <path id="Path_1192" data-name="Path 1192" d="M3634.877,1288.292a47.24,47.24,0,0,0-8.288-4.267.445.445,0,0,0-.585.24.459.459,0,0,0,.251.592c12.03,4.84,19.152,12.668,21.663,22.48,2.115,8.265.775,17.61-3.172,25.626a.444.444,0,1,0,.8.394c4.037-8.2,5.415-17.753,3.244-26.239C3646.848,1299.547,3642.242,1293.118,3634.877,1288.292Z" transform="translate(-449.141 -33.637)" fill="#320c0c"/>
    <path id="Path_1193" data-name="Path 1193" d="M3657.311,1537.349a.17.17,0,1,1,.027.273A.2.2,0,0,1,3657.311,1537.349Z" transform="translate(-473.637 -231.832)" fill="#8c482a"/>
    <path id="Path_1194" data-name="Path 1194" d="M3537.745,1311.934a.441.441,0,0,1,.376.727c-.045.053-.688.843-.935,1.151-.7.882-1.412,1.807-2.093,2.744-.41.564-.8,1.106-1.153,1.636a13.733,13.733,0,0,0-2.368,4.711.443.443,0,0,1-.488.4.454.454,0,0,1-.4-.5c.137-1.162,1.031-2.9,2.509-5.1.363-.539.746-1.105,1.162-1.678.689-.949,1.418-1.888,2.13-2.779.053-.067.13-.144.209-.243-.123.022-.226.027-.356.053a17.661,17.661,0,0,0-3.4,1.057,9.6,9.6,0,0,0-5.542,5.242.449.449,0,0,1-.584.249.435.435,0,0,1-.252-.571,10.49,10.49,0,0,1,6.025-5.757,18.479,18.479,0,0,1,3.57-1.108c.416-.085.8-.14,1.146-.187C3537.424,1311.967,3537.722,1311.936,3537.745,1311.934Z" transform="translate(-371.314 -55.506)" fill="#8c482a"/>
    <path id="Path_1195" data-name="Path 1195" d="M3065.4,1865.908c-7.792,12.444,1.386,67.441.865,69.365-1.581,5.833-12.74,5.33-14.019,8.244-1.24,2.825,5.736,1.749,10.3,2.026,3.823.232,7.837.885,8.456,0,1.358-1.941-1.17-6.549-.592-9.562.322-1.676,10.132-33.968,9.146-58.859-.241-6.088,13.485-7.765,8.387-11.815C3084.606,1862.655,3071.133,1856.752,3065.4,1865.908Z" transform="translate(0 -485.216)" fill="#ffae8d"/>
    <path id="Path_1196" data-name="Path 1196" d="M3520.676,1332.6l-.168-31.8s3.11-11.571,5.386-21.573c2.107-9.257,4.166-16.449,4.459-17.257,1.224-3.371,9.923-6.462,9.471-8.675-.231-1.132-4.955.686-4.955.686s5.235-8.758,4.192-9.392-4.174,3.567-4.174,3.567,2.141-5.976.99-6.395c-1.256-.456-4.011,5.557-4.011,5.557s1.111-6.111-.171-6.3-3.077,4.957-3.077,4.957.479-4.852-.521-4.935-2.288,5.011-3.178,9.481c-.928,4.659.286,6-1.306,9.426-.821,1.767-12.834,21.227-18.092,36.052-3.791,10.69-.666,47.671-.666,47.671Z" transform="translate(-353.402)" fill="#ffae8d"/>
    <path id="Path_1197" data-name="Path 1197" d="M3563.061,2087.768s15.907,12.45,29.537,14.823c23.464,4.086,60.973,1.813,62.875,2.609,5.583,2.337,12.513,2.624,16.718,2.489,5.854-.187,9.184-.433,6.853-3.474-1.788-2.333-7.637-1.695-11.241-5.159-6.513-6.261-7.769,1.08-11.52-.79-15.709-7.829-30.6-12.837-55-16.63l-17.428-13.449Z" transform="translate(-399.904 -647.39)" fill="#ffae8d"/>
    <path id="Path_1198" data-name="Path 1198" d="M3095.028,1858.7c-9.248,9.132-.271,71.8-.271,71.8l8.288.677s5.373-12.606,7.644-24.059a88.671,88.671,0,0,0,1.439-21.753,143.193,143.193,0,0,0,25.016,13.344c11.3,4.6,29.113,9.666,29.113,9.666s35.713,23.148,50.131,28.827c7.8,3.073,68.383.676,68.383.676l2.283-7.642a292.946,292.946,0,0,0-29.044-10.587c-13.9-4.052-25.849-6.148-25.849-6.148s-9.95-12.117-16.582-18.744-17.383-15.211-17.383-15.211a48.854,48.854,0,0,0-4.075-6.12,29.814,29.814,0,0,0-4.517-4.438s-14.386,4.735-35.948-1.419c-12.015-3.43-26.772-10.532-38.539-12.721C3105.767,1853.1,3098.415,1855.35,3095.028,1858.7Z" transform="translate(-30.325 -479.942)" fill="#258faa"/>
    <path id="Path_1199" data-name="Path 1199" d="M3393.215,1623.923s4.886,6.072,10.86,7.283a20.809,20.809,0,0,0,11.5-1.322s2.968,23.052-7.663,42.068c-8.742,15.634-.833,21.287-.833,21.287s-11.5,6.708-24.648,4.988c-15.168-1.984-20.5-11.842-20.5-11.842s.175-19.856,5.044-33.457A50.466,50.466,0,0,1,3393.215,1623.923Z" transform="translate(-242.485 -299.686)" fill="#df517e"/>
    <path id="Path_1200" data-name="Path 1200" d="M3491.7,1589.775l22.091-1.579s6.481,35.368-10.988,36.047C3487.484,1624.839,3491.7,1589.775,3491.7,1589.775Z" transform="translate(-343.638 -271.724)" fill="#df517e"/>
    <path id="Path_1201" data-name="Path 1201" d="M3512.669,1661.158a.463.463,0,0,0-.5.406,32,32,0,0,1-3.058,10.615c-2.422,4.721-5.82,7.216-10.371,6.733-5.334-.566-8.368-4.907-9.76-11.916a45.974,45.974,0,0,1-.71-5.426c-.068-.869-.21-3.3-.241-3.625a.442.442,0,0,0-.479-.409.458.458,0,0,0-.413.492c.03.31.163,2.723.232,3.608a46.955,46.955,0,0,0,.736,5.536c1.461,7.351,4.714,12.018,10.541,12.636,4.978.528,8.694-2.206,11.268-7.226a32.9,32.9,0,0,0,3.156-10.938A.44.44,0,0,0,3512.669,1661.158Z" transform="translate(-340.477 -325.991)" fill="#8e1c46"/>
    <path id="Path_1202" data-name="Path 1202" d="M3584.269,1416.8a.456.456,0,0,0-.562.309c-.013.045-3.557,12.043-3.612,12.226-1.107,3.687-2.012,6.623-2.642,8.558-.385,1.184-.37,3.808-.084,7.5.086,1.116.2,2.3.323,3.513.115,1.094.228,2.144.352,3.134.043.346.16,1.218.168,1.279a.445.445,0,0,0,.506.379.456.456,0,0,0,.394-.506c-.008-.059-.125-.921-.169-1.265-.123-.984-.251-2.032-.366-3.12-.127-1.207-.238-2.378-.323-3.485-.274-3.558-.276-6.129.056-7.153.632-1.943,1.547-4.879,2.656-8.572.055-.183,3.6-12.194,3.612-12.24A.456.456,0,0,0,3584.269,1416.8Z" transform="translate(-410.937 -137.566)" fill="#cb6339"/>
    <path id="Path_1203" data-name="Path 1203" d="M3473.343,1981.432a.45.45,0,0,0-.45.45c.018,14.5-16.01,27.332-30.832,25.168a.447.447,0,0,0-.126.885c15.349,2.241,31.875-10.986,31.857-26.053A.449.449,0,0,0,3473.343,1981.432Z" transform="translate(-304.803 -579.49)" fill="#064656"/>
    <path id="Path_1204" data-name="Path 1204" d="M3532.643,1537.8c-1.866,8,1.7,10.57,1.7,10.57s-5.484,1.187-5.644,6.095a21.036,21.036,0,0,0,1.093,7.967s-4.373,1.372-3.708,7.3,1.636,5.488,1.636,5.488l-1.2,2.937s-7.461.917-8.6,5.654c-1.984,8.228-3.97,11.1-3.97,11.1a19.57,19.57,0,0,0,12.35-6.311c3.488-4.053,2.2-9.363,2.2-9.363l1-3.1s4.781-3.071,6.544-5.947c3.068-5,.383-7.211.383-7.211s6.454-4.442,7.529-8.726-1.217-5.6-1.217-5.6,8.06-4.133,12.871-11.137,8.4-21.1,8.4-21.1l-16.081-1.2S3535.656,1524.89,3532.643,1537.8Z" transform="translate(-361.466 -214.609)" fill="#8c482a"/>
    <path id="Path_1205" data-name="Path 1205" d="M3630.1,1525.557a.338.338,0,0,0-.478-.026c-.012.011-.2.188-.272.261-.209.207-.444.454-.707.736-.752.8-1.556,1.743-2.375,2.809a39.868,39.868,0,0,0-5.765,10.3,31.637,31.637,0,0,0-2.046,12.926.338.338,0,0,0,.352.32.331.331,0,0,0,.326-.345,30.949,30.949,0,0,1,2-12.653,39.254,39.254,0,0,1,5.673-10.127c.806-1.049,1.6-1.972,2.333-2.761.257-.276.494-.513.7-.715.122-.12.205-.2.248-.241A.341.341,0,0,0,3630.1,1525.557Z" transform="translate(-443.223 -222.611)" fill="#320c0c"/>
    <path id="Path_1206" data-name="Path 1206" d="M3665.983,1523.347a.362.362,0,0,0-.236-.125.337.337,0,0,0-.367.31c0,.028,0,.084-.009.172-.015.149-.038.332-.065.534-.081.579-.2,1.243-.363,2a39.88,39.88,0,0,1-2.307,7.066,52.449,52.449,0,0,1-14.41,19.168.339.339,0,0,0-.031.478.329.329,0,0,0,.468.048,53.166,53.166,0,0,0,14.6-19.417,40.5,40.5,0,0,0,2.333-7.184c.169-.77.292-1.45.375-2.047.029-.21.059-.4.075-.555.01-.1.016-.158.018-.193A.352.352,0,0,0,3665.983,1523.347Z" transform="translate(-466.469 -220.871)" fill="#320c0c"/>
    <path id="Path_1207" data-name="Path 1207" d="M3656.539,1525.337a.364.364,0,0,0-.192-.188.331.331,0,0,0-.431.2c-.017.044-.269.723-.381,1.008-.32.814-.7,1.734-1.124,2.747-1.224,2.9-2.629,5.93-4.183,8.965a93.526,93.526,0,0,1-6.575,11.088,53.182,53.182,0,0,1-3.737,4.746.341.341,0,0,0,.037.478.332.332,0,0,0,.474-.011,54.013,54.013,0,0,0,3.773-4.817,94.017,94.017,0,0,0,6.627-11.157c1.562-3.05,2.973-6.1,4.2-9.008.431-1.019.812-1.949,1.134-2.769.112-.287.373-.983.39-1.029A.316.316,0,0,0,3656.539,1525.337Z" transform="translate(-459.99 -222.362)" fill="#320c0c"/>
    <path id="Path_1208" data-name="Path 1208" d="M3646.231,1526.284a.33.33,0,0,0-.47.05c-4.707,5.941-10.921,18.6-14.484,28.869a.348.348,0,0,0,.206.438.332.332,0,0,0,.432-.2c3.541-10.2,9.723-22.813,14.377-28.686A.339.339,0,0,0,3646.231,1526.284Z" transform="translate(-453.278 -223.209)" fill="#320c0c"/>
    <path id="Path_1209" data-name="Path 1209" d="M3616.165,1676.28a.337.337,0,0,0-.461-.122.332.332,0,0,0-.111.46c1.165,1.963.643,4.366-1.175,6.908a16.961,16.961,0,0,1-4.945,4.6.337.337,0,0,0-.141.457.352.352,0,0,0,.466.146,17.581,17.581,0,0,0,5.174-4.794C3616.928,1681.2,3617.5,1678.527,3616.165,1676.28Z" transform="translate(-436.087 -340.531)" fill="#320c0c"/>
    <path id="Path_1210" data-name="Path 1210" d="M3594.972,1672.673a.343.343,0,0,0-.449-.174,5.257,5.257,0,0,0-.49.258,9.455,9.455,0,0,0-4.014,4.585,11.241,11.241,0,0,0,.084,8.035.355.355,0,0,0,.436.224.331.331,0,0,0,.206-.427,10.591,10.591,0,0,1-.107-7.564,8.81,8.81,0,0,1,3.737-4.265c.119-.07.23-.131.325-.18.055-.028.092-.039.109-.047A.334.334,0,0,0,3594.972,1672.673Z" transform="translate(-420.456 -337.681)" fill="#320c0c"/>
    <path id="Path_1211" data-name="Path 1211" d="M3604.081,1676.37a.338.338,0,0,0-.475-.056c-2.615,2.11-4.254,5.78-4.769,11.979a.344.344,0,0,0,.31.367.326.326,0,0,0,.359-.3c.5-6.03,2.068-9.525,4.53-11.511A.338.338,0,0,0,3604.081,1676.37Z" transform="translate(-427.903 -340.632)" fill="#320c0c"/>
    <path id="Path_1212" data-name="Path 1212" d="M3610.052,1674.566a.357.357,0,0,0-.245-.1.319.319,0,0,0-.318.338,12.964,12.964,0,0,1-.843,4.292,24.018,24.018,0,0,1-4.79,7.847.337.337,0,0,0,.022.476.342.342,0,0,0,.482-.018,24.675,24.675,0,0,0,4.916-8.073,13.553,13.553,0,0,0,.88-4.528A.326.326,0,0,0,3610.052,1674.566Z" transform="translate(-431.764 -339.239)" fill="#320c0c"/>
    <path id="Path_1213" data-name="Path 1213" d="M3591.711,1736.91a.351.351,0,0,0-.258-.053.323.323,0,0,0-.269.382,11.05,11.05,0,0,1-1.166,5.088,13.853,13.853,0,0,1-4.279,5.72.343.343,0,0,0,.4.558,14.529,14.529,0,0,0,4.509-6,11.421,11.421,0,0,0,1.2-5.475A.341.341,0,0,0,3591.711,1736.91Z" transform="translate(-417.543 -388.069)" fill="#320c0c"/>
    <path id="Path_1214" data-name="Path 1214" d="M3579.974,1734.96a.349.349,0,0,0-.259-.038c-1.16.267-2.648,1.949-3.511,4.028a9.246,9.246,0,0,0,.153,7.787.349.349,0,0,0,.457.167.33.33,0,0,0,.148-.449,8.584,8.584,0,0,1-.131-7.228c.789-1.9,2.144-3.437,3.055-3.646a.334.334,0,0,0,.249-.407A.362.362,0,0,0,3579.974,1734.96Z" transform="translate(-409.576 -386.551)" fill="#320c0c"/>
    <path id="Path_1215" data-name="Path 1215" d="M3589.656,1736.558a.332.332,0,0,0-.466.088.353.353,0,0,0,.1.478c1.3.858-.631,6.557-3.008,9.856a.343.343,0,0,0,.555.4C3589.457,1743.753,3591.478,1737.763,3589.656,1736.558Z" transform="translate(-418.031 -387.793)" fill="#320c0c"/>
    <path id="Path_1216" data-name="Path 1216" d="M3532.438,1807.671a.335.335,0,0,0-.248-.074c-.055,0-.11.016-.182.023-.116.013-.243.025-.379.045a11.026,11.026,0,0,0-1.2.241,8.58,8.58,0,0,0-4.637,2.85,3.008,3.008,0,0,0-.26.375,7.065,7.065,0,0,0-.688,2.107c-.053.247-.23,1.159-.258,1.293-.111.54-.215.981-.33,1.42a14.36,14.36,0,0,1-3.433,6.369.349.349,0,0,0,.029.485.335.335,0,0,0,.476-.026,14.98,14.98,0,0,0,3.579-6.637c.118-.452.228-.905.341-1.456.028-.138.2-1.044.25-1.286a6.531,6.531,0,0,1,.625-1.919,2.275,2.275,0,0,1,.193-.293,7.96,7.96,0,0,1,4.3-2.619,10.485,10.485,0,0,1,1.125-.235c.128-.019.249-.029.356-.04l.174-.017a.328.328,0,0,0,.291-.372A.346.346,0,0,0,3532.438,1807.671Z" transform="translate(-366.778 -443.436)" fill="#320c0c"/>
    <path id="Path_1217" data-name="Path 1217" d="M3540.986,1812.6a.353.353,0,0,0-.21-.16.33.33,0,0,0-.4.254c-.034.164-.069.343-.11.611-.012.076-.087.6-.106.717a14.683,14.683,0,0,1-.381,1.722c-1.007,3.51-3.6,6.689-8.943,9.717a.334.334,0,0,0-.126.459.349.349,0,0,0,.468.131c5.488-3.11,8.194-6.421,9.25-10.1a15.329,15.329,0,0,0,.4-1.8c.019-.115.094-.642.106-.717.04-.256.068-.426.1-.575A.333.333,0,0,0,3540.986,1812.6Z" transform="translate(-374.549 -447.222)" fill="#320c0c"/>
    <path id="Path_1218" data-name="Path 1218" d="M3545.363,1814.309a.341.341,0,0,0-.481,0,9.748,9.748,0,0,0-1.773,2.708c-.176.372-.759,1.686-.836,1.856a16.189,16.189,0,0,1-3.635,5.254.343.343,0,0,0,0,.482.34.34,0,0,0,.479.012,16.832,16.832,0,0,0,3.774-5.449c.081-.177.665-1.494.837-1.856a9.09,9.09,0,0,1,1.658-2.533A.337.337,0,0,0,3545.363,1814.309Z" transform="translate(-380.711 -448.615)" fill="#320c0c"/>
    <path id="Path_1219" data-name="Path 1219" d="M3570.3,1792.4c.464-1.184.892-2.292,2.477-1.722,1.525.548,1.064,1.528.6,2.711s-.8,1.957-2.28,1.574C3569.706,1794.608,3569.838,1793.587,3570.3,1792.4Z" transform="translate(-405.319 -430.078)"/>
    <path id="Path_1220" data-name="Path 1220" d="M3629.51,1458.817c1.4-2.338,6.154-3.828,8.649-2.336a4.3,4.3,0,0,1,.989,6.884c-1.965,1.9-4.553,3.024-7.047,1.532S3628.112,1461.155,3629.51,1458.817Z" transform="translate(-451.489 -168.168)" fill="#ffae8d"/>
    <path id="Path_1221" data-name="Path 1221" d="M3646.407,1463.46a2.707,2.707,0,0,1,.936,1.956.443.443,0,1,1-.882.074,1.747,1.747,0,0,0-2.09-1.733,5.682,5.682,0,0,0-3.531,1.682.44.44,0,1,1-.637-.606,6.555,6.555,0,0,1,4.118-1.964A2.983,2.983,0,0,1,3646.407,1463.46Z" transform="translate(-460.184 -173.632)" fill="#cb6339"/>
  </g>
</svg>
