<svg xmlns="http://www.w3.org/2000/svg" width="248.472" height="212.146" viewBox="0 0 248.472 212.146">
  <g id="Group_3620" data-name="Group 3620" transform="translate(-4150.389 -1393.227)">
    <path id="Path_1135" data-name="Path 1135" d="M4375.017,1733.908l25.236,4.934a36.863,36.863,0,0,0-4.453,8.491,26.679,26.679,0,0,0-1.167,11.582l-12.325-.581-12.08-6.8a61.173,61.173,0,0,0,3.37-8.938A46.679,46.679,0,0,0,4375.017,1733.908Z" transform="translate(-165.721 -256.814)" fill="#ffae8d"/>
    <path id="Path_1136" data-name="Path 1136" d="M4314.651,1427.127c8.454-14.736,18.408-16.474,28.6-20.145,9.228-3.325,11.6,2.273,19.718,6.919,17.087,9.776,20.9,35.245,8.519,56.889-6.147,10.745-16.632,12.35-24.467,19.043-10.984,9.383-19.857,7.992-32.416,1.246-11.673-6.271-15.505-19.528-12.985-34.126,0,0-6.4-2.175-4.686-7.109,2.276-6.557,6.106-1.043,9.516-4.434S4310.562,1434.256,4314.651,1427.127Z" transform="translate(-110.247 -9.611)" fill="#ffae8d"/>
    <path id="Path_1137" data-name="Path 1137" d="M4356.375,1543c.777-1.45,1.9-2.363,2.5-2.04s.466,1.76-.311,3.21-1.9,2.363-2.5,2.04S4355.6,1544.452,4356.375,1543Z" transform="translate(-154.759 -111.317)"/>
    <path id="Path_1138" data-name="Path 1138" d="M4400.407,1757.04a.811.811,0,0,0-.625-.087,39.945,39.945,0,0,1-11.348.719.832.832,0,0,0-.882.784.843.843,0,0,0,.779.9,41.416,41.416,0,0,0,11.852-.79.834.834,0,0,0,.6-1.017A.814.814,0,0,0,4400.407,1757.04Z" transform="translate(-178.778 -274.166)" fill="#cb6339"/>
    <path id="Path_1139" data-name="Path 1139" d="M4353.861,1606.336a7.474,7.474,0,1,1,2.727,10.284A7.524,7.524,0,0,1,4353.861,1606.336Z" transform="translate(-152.619 -157.753)" fill="#fe7960"/>
    <path id="Path_1140" data-name="Path 1140" d="M4334.264,1682.6a.569.569,0,0,0-.426.077c-3.44,2.261-6.691,3.236-10.095,2.1a.562.562,0,0,0-.707.359.545.545,0,0,0,.343.7c3.807,1.275,7.373.209,11.07-2.221a.557.557,0,0,0,.161-.772A.541.541,0,0,0,4334.264,1682.6Z" transform="translate(-130.123 -218.128)" fill="#9d321c"/>
    <path id="Path_1141" data-name="Path 1141" d="M4375.718,1506.11a7.825,7.825,0,0,0-3.481-1.746c-1.011-.164-1.813-.413-2.364.083l-.059-.008a1.7,1.7,0,0,0,.4,2.376,13.185,13.185,0,0,1,3.29,1.727,20.707,20.707,0,0,1,3.372,3.367c.78.635,1.388-.4,1.1-1.855A6.671,6.671,0,0,0,4375.718,1506.11Z" transform="translate(-165.164 -83.619)" fill="#320c0c"/>
    <path id="Path_1142" data-name="Path 1142" d="M4402.422,1406.494s4.957-8.544,14.608-11.876c13.756-4.751,33.219,2.821,41.194,20.493,12.083,26.779-6.626,44.976-6.626,44.976s-14.29,1.847-20.175-.4c0,0-12.537-6.932-10.2-15.6C4427.832,1419.537,4402.422,1406.494,4402.422,1406.494Z" transform="translate(-189.989 0)" fill="#8c482a"/>
    <path id="Path_1143" data-name="Path 1143" d="M4438.334,1442.014a11.388,11.388,0,0,0-4.305-1.881.557.557,0,1,0-.187,1.1c4.834.8,12.152,8.433,17.433,18.388,6.048,11.4,8.409,23.536,5.606,33.268a.558.558,0,0,0,1.077.294c2.895-10.049.487-22.442-5.686-34.077C4448.2,1451.428,4442.934,1445.074,4438.334,1442.014Z" transform="translate(-213.325 -35.353)" fill="#320c0c"/>
    <path id="Path_1144" data-name="Path 1144" d="M4512.26,1407.855a21.852,21.852,0,0,0-10.2-3.508.561.561,0,0,0-.078,1.12c8.65.507,17.991,8.143,23,19.121,5.718,12.539,5.158,27.333-2.9,41.394a.558.558,0,1,0,.968.554c8.238-14.376,8.806-29.552,2.94-42.415A37.642,37.642,0,0,0,4512.26,1407.855Z" transform="translate(-264.645 -8.382)" fill="#320c0c"/>
    <path id="Path_1145" data-name="Path 1145" d="M4457.849,1427.484c-2.33-1.479-4.469-2.187-6.091-1.919a.563.563,0,0,0,.187,1.111c3.748-.618,11.387,5.356,16.763,14.189,6.97,11.448,9.756,25.915,6.662,41.884a.562.562,0,1,0,1.1.21c3.147-16.247.3-30.992-6.812-42.673C4466.169,1434.549,4461.732,1429.949,4457.849,1427.484Z" transform="translate(-226.834 -24.335)" fill="#320c0c"/>
    <path id="Path_1146" data-name="Path 1146" d="M4480.253,1411.99a58.669,58.669,0,0,0-10.379-5.094.552.552,0,0,0-.72.311.569.569,0,0,0,.326.729c15.034,5.716,24.052,15.253,27.4,27.362,2.82,10.2,1.38,21.82-3.323,31.854a.551.551,0,1,0,1,.47c4.811-10.263,6.292-22.143,3.4-32.615C4495.367,1425.662,4489.5,1417.8,4480.253,1411.99Z" transform="translate(-240.266 -10.275)" fill="#320c0c"/>
    <path id="Path_1147" data-name="Path 1147" d="M4508.738,1683.641a.211.211,0,1,1,.04.337A.245.245,0,0,1,4508.738,1683.641Z" transform="translate(-270.098 -218.803)" fill="#8c482a"/>
    <path id="Path_1148" data-name="Path 1148" d="M4375.224,1438.5a.547.547,0,0,1,.485.892c-.055.068-.834,1.062-1.132,1.45-.852,1.11-1.708,2.274-2.531,3.452-.494.709-.962,1.392-1.391,2.057-1.684,2.615-2.707,4.692-2.825,5.9a.55.55,0,0,1-.6.506.563.563,0,0,1-.5-.612c.142-1.445,1.209-3.616,2.989-6.381.436-.678.9-1.389,1.4-2.108.832-1.193,1.713-2.374,2.574-3.5.064-.084.158-.182.254-.306-.152.031-.279.038-.44.075a21.918,21.918,0,0,0-4.191,1.392c-3.278,1.483-5.665,3.65-6.749,6.632a.557.557,0,0,1-.719.323.54.54,0,0,1-.326-.7c1.2-3.3,3.807-5.686,7.335-7.282a22.923,22.923,0,0,1,4.4-1.458c.513-.115.994-.193,1.417-.259C4374.827,1438.547,4375.2,1438.5,4375.224,1438.5Z" transform="translate(-159.134 -34.124)" fill="#8c482a"/>
    <path id="Path_1149" data-name="Path 1149" d="M4513.777,1675.245c3.764,9.462,11.778,18.067,11.778,18.067s-4.742,5.093-1.428,10.2a26.088,26.088,0,0,0,6.755,7.337s-3.48,4.495,1.4,10.061,5.554,4.429,5.554,4.429l.858,3.84s-6.947,6.219-4.755,11.852c3.808,9.782,3.821,14.114,3.821,14.114a24.271,24.271,0,0,0,8.1-15.173c.681-6.6-4.4-11.088-4.4-11.088l-1.175-3.864s2.692-6.513,2.45-10.69c-.419-7.266-4.718-7.612-4.718-7.612s3.425-9.094,1.485-14.217-5.206-4.84-5.206-4.84,5.278-9.917,5.215-20.457-6.391-27.434-6.391-27.434l-21.941,3.658S4507.7,1659.968,4513.777,1675.245Z" transform="translate(-271.227 -185.852)" fill="#8c482a"/>
    <path id="Path_1150" data-name="Path 1150" d="M4606.285,1844.653a.417.417,0,0,0-.555.2.411.411,0,0,0,.212.548c2.577,1.173,3.748,3.99,3.7,7.864a21.03,21.03,0,0,1-1.78,8.182.419.419,0,0,0,.18.565.437.437,0,0,0,.578-.182,21.787,21.787,0,0,0,1.873-8.546C4610.543,1849.117,4609.233,1846,4606.285,1844.653Z" transform="translate(-343.218 -340.267)" fill="#320c0c"/>
    <path id="Path_1151" data-name="Path 1151" d="M4576.756,1857.46a.425.425,0,0,0-.58.141,6.538,6.538,0,0,0-.316.609,11.729,11.729,0,0,0-.839,7.512c.658,2.95,2.5,5.7,5.777,8.12a.44.44,0,0,0,.6-.08.41.41,0,0,0-.093-.58c-3.111-2.3-4.852-4.876-5.466-7.625a10.927,10.927,0,0,1,.783-6.989c.071-.157.142-.3.2-.413a1.089,1.089,0,0,1,.078-.125A.415.415,0,0,0,4576.756,1857.46Z" transform="translate(-319.888 -349.906)" fill="#320c0c"/>
    <path id="Path_1152" data-name="Path 1152" d="M4588.9,1855.892a.419.419,0,0,0-.523.279c-1.167,4-.236,8.9,3.628,15.574a.429.429,0,0,0,.578.155.4.4,0,0,0,.149-.563c-3.76-6.494-4.641-11.162-3.541-14.928A.419.419,0,0,0,4588.9,1855.892Z" transform="translate(-329.809 -348.756)" fill="#320c0c"/>
    <path id="Path_1153" data-name="Path 1153" d="M4597.976,1848.154a.444.444,0,0,0-.323.067.4.4,0,0,0-.083.569,16.058,16.058,0,0,1,2.182,4.967,29.767,29.767,0,0,1,.683,11.383.419.419,0,0,0,.36.47.425.425,0,0,0,.478-.36,30.622,30.622,0,0,0-.713-11.7,16.833,16.833,0,0,0-2.312-5.234A.406.406,0,0,0,4597.976,1848.154Z" transform="translate(-337.032 -342.93)" fill="#320c0c"/>
    <path id="Path_1154" data-name="Path 1154" d="M4620.024,1915.924a.431.431,0,0,0-.3.128.4.4,0,0,0,0,.58c.865.852,1.877,3.287,2.417,6.007a17.187,17.187,0,0,1-.306,8.854.419.419,0,0,0,.258.534.424.424,0,0,0,.542-.247,18.023,18.023,0,0,0,.34-9.3c-.57-2.868-1.641-5.428-2.653-6.426A.422.422,0,0,0,4620.024,1915.924Z" transform="translate(-353.703 -394.022)" fill="#320c0c"/>
    <path id="Path_1155" data-name="Path 1155" d="M4600.48,1924.983a.434.434,0,0,0-.291.144c-.991,1.094-1.315,3.861-.721,6.589a11.47,11.47,0,0,0,5.671,7.82.434.434,0,0,0,.584-.154.41.41,0,0,0-.168-.561,10.646,10.646,0,0,1-5.253-7.266c-.544-2.5-.252-5.018.527-5.877a.414.414,0,0,0-.035-.59A.449.449,0,0,0,4600.48,1924.983Z" transform="translate(-338.303 -400.85)" fill="#320c0c"/>
    <path id="Path_1156" data-name="Path 1156" d="M4609.326,1922.927a.412.412,0,0,0-.413.419.44.44,0,0,0,.446.413c1.928-.045,4,7.123,3.919,12.166a.425.425,0,0,0,.85.019C4614.22,1930.4,4612.034,1922.864,4609.326,1922.927Z" transform="translate(-345.647 -399.301)" fill="#320c0c"/>
    <path id="Path_1157" data-name="Path 1157" d="M4616.369,2004.066a.421.421,0,0,0-.305.1c-.052.044-.1.094-.169.154-.11.1-.229.2-.354.315a13.684,13.684,0,0,0-1.051,1.1,10.646,10.646,0,0,0-2.7,6.186,3.721,3.721,0,0,0,0,.567,8.777,8.777,0,0,0,.792,2.632c.122.289.586,1.343.653,1.5.269.629.475,1.151.669,1.679a17.809,17.809,0,0,1,1.015,8.917.432.432,0,0,0,.374.473.414.414,0,0,0,.465-.364,18.574,18.574,0,0,0-1.057-9.292c-.2-.544-.41-1.083-.685-1.724-.069-.161-.538-1.2-.657-1.487a8.143,8.143,0,0,1-.724-2.4,3.056,3.056,0,0,1-.011-.435,9.869,9.869,0,0,1,2.523-5.712,12.753,12.753,0,0,1,.979-1.036c.116-.11.232-.206.334-.294l.165-.141a.408.408,0,0,0,.033-.584A.432.432,0,0,0,4616.369,2004.066Z" transform="translate(-347.805 -460.465)" fill="#320c0c"/>
    <path id="Path_1158" data-name="Path 1158" d="M4633.064,2006.447a.441.441,0,0,0-.328-.014.409.409,0,0,0-.227.541c.081.192.173.4.321.7.042.085.339.677.4.8a18.126,18.126,0,0,1,.831,2.024c1.461,4.286,1.072,9.361-2.223,16.227a.415.415,0,0,0,.2.557.432.432,0,0,0,.569-.2c3.384-7.053,3.794-12.342,2.262-16.837a19.152,19.152,0,0,0-.874-2.116c-.062-.131-.359-.721-.4-.8-.141-.289-.233-.482-.306-.656A.421.421,0,0,0,4633.064,2006.447Z" transform="translate(-362.898 -462.231)" fill="#320c0c"/>
    <path id="Path_1159" data-name="Path 1159" d="M4628.6,2012.991a.422.422,0,0,0-.486.344,12.09,12.09,0,0,0,.113,4.013c.084.5.421,2.254.463,2.482a20.092,20.092,0,0,1,.021,7.925.426.426,0,0,0,.836.163,20.892,20.892,0,0,0-.018-8.221c-.043-.237-.381-1.992-.463-2.482a11.292,11.292,0,0,1-.106-3.754A.419.419,0,0,0,4628.6,2012.991Z" transform="translate(-360.034 -467.19)" fill="#320c0c"/>
    <path id="Path_1160" data-name="Path 1160" d="M4621.276,1987.026c-.366-1.534-.715-2.965,1.3-3.508,1.941-.522,2.165.8,2.532,2.336s.576,2.556-1.206,3.218C4622.23,1989.692,4621.641,1988.559,4621.276,1987.026Z" transform="translate(-354.754 -444.888)"/>
    <path id="Path_1161" data-name="Path 1161" d="M4584.833,1663.5a.448.448,0,0,0-.329.039.419.419,0,0,0-.154.576c.018.029.06.085.112.181.09.162.2.364.311.59.329.647.68,1.4,1.045,2.288a49.49,49.49,0,0,1,2.656,8.829,65.054,65.054,0,0,1-1.094,29.723.42.42,0,0,0,.307.508.408.408,0,0,0,.511-.283,65.95,65.95,0,0,0,1.11-30.11,50.252,50.252,0,0,0-2.713-8.967c-.373-.9-.73-1.683-1.068-2.349-.119-.234-.222-.448-.316-.619-.058-.1-.1-.172-.119-.21A.435.435,0,0,0,4584.833,1663.5Z" transform="translate(-327.087 -203.724)" fill="#320c0c"/>
    <path id="Path_1162" data-name="Path 1162" d="M4568.521,1671.92a.455.455,0,0,0-.33-.055.411.411,0,0,0-.3.506c.015.057.238.927.326,1.3.251,1.056.52,2.258.8,3.593.8,3.815,1.524,7.9,2.091,12.09a116.119,116.119,0,0,1,1.159,15.947,65.717,65.717,0,0,1-.443,7.479.423.423,0,0,0,.376.461.412.412,0,0,0,.474-.347,66.768,66.768,0,0,0,.43-7.578,116.653,116.653,0,0,0-1.155-16.053c-.571-4.212-1.294-8.314-2.1-12.148-.284-1.342-.555-2.559-.808-3.621-.088-.372-.316-1.265-.331-1.324A.4.4,0,0,0,4568.521,1671.92Z" transform="translate(-314.714 -210.036)" fill="#320c0c"/>
    <path id="Path_1163" data-name="Path 1163" d="M4554.3,1682.879a.41.41,0,0,0-.443.383c-.584,9.383,2.06,26.678,5.7,39.652a.43.43,0,0,0,.52.3.41.41,0,0,0,.3-.506c-3.619-12.894-6.259-30.114-5.681-39.39A.42.42,0,0,0,4554.3,1682.879Z" transform="translate(-304.083 -218.346)" fill="#320c0c"/>
    <path id="Path_1164" data-name="Path 1164" d="M4536.528,1696.74a.419.419,0,0,0-.5.311c0,.021-.07.333-.093.459-.067.36-.131.777-.2,1.25-.2,1.351-.35,2.877-.428,4.542a49.474,49.474,0,0,0,1.423,14.567,39.255,39.255,0,0,0,7.073,14.61.42.42,0,0,0,.586.076.411.411,0,0,0,.086-.582,38.41,38.41,0,0,1-6.928-14.3,48.671,48.671,0,0,1-1.4-14.329c.077-1.639.228-3.138.419-4.465.067-.463.14-.872.2-1.221.039-.208.066-.352.081-.422A.422.422,0,0,0,4536.528,1696.74Z" transform="translate(-290.114 -228.788)" fill="#320c0c"/>
    <path id="Path_1165" data-name="Path 1165" d="M4497.509,1625.479c1.678-2.932,7.541-4.894,10.669-3.1s4.058,5.828,1.39,8.514c-2.391,2.407-5.573,3.858-8.7,2.068S4495.831,1628.411,4497.509,1625.479Z" transform="translate(-261.198 -172.222)" fill="#ffae8d"/>
    <path id="Path_1166" data-name="Path 1166" d="M4518.637,1631.217a3.36,3.36,0,0,1,1.208,2.4.549.549,0,0,1-1.093.113,2.166,2.166,0,0,0-2.633-2.1,7.044,7.044,0,0,0-4.338,2.17.545.545,0,0,1-.8-.737,8.132,8.132,0,0,1,5.061-2.534A3.7,3.7,0,0,1,4518.637,1631.217Z" transform="translate(-271.711 -178.878)" fill="#cb6339"/>
    <path id="Path_1167" data-name="Path 1167" d="M4408.73,2063.473a41.653,41.653,0,0,1,33.785,7.633,436.606,436.606,0,0,1,44,3.06c23.8,2.9,51.187,8.532,51.187,8.532s4.673-4.164,7.581-3.308c1.246.367,3.42,4.042,7.306,6.229,5.186,2.919,12.45,4.6,12.424,6-.085,4.556-22.408.456-22.408.456s-141.17,26.59-171.546-5.528C4368.281,2083.6,4388.416,2067.527,4408.73,2063.473Z" transform="translate(-166.153 -504.604)" fill="#ffae8d"/>
    <path id="Path_1168" data-name="Path 1168" d="M4398.335,2080.828l36.624-36.038s10.241-6.431,22.128-2.936c8.068,2.372,15.068,10.43,15.068,10.43s20.73,2.165,42.462,5.553,44.467,8,44.467,8l.263,10.291s-81.174,18.861-123.57,15.469C4412.676,2089.75,4398.335,2080.828,4398.335,2080.828Z" transform="translate(-186.908 -488.167)" fill="#258faa"/>
    <path id="Path_1169" data-name="Path 1169" d="M4311.227,1776.763s1.792,2.84,11.8,5.976c6.574,2.06,9.253.882,9.253.882s12.96,28.232,11.02,43.807c-1.6,12.846,8.159,17.451,8.159,17.451s-3.752,10.606-14.747,22.44-26.57,22.365-26.57,22.365-27.4-28.877-22.514-63.358S4305.279,1780.406,4311.227,1776.763Z" transform="translate(-103.017 -289.119)" fill="#df517e"/>
    <path id="Path_1170" data-name="Path 1170" d="M4194.444,1924.817l-27.041,75.364s-5.694-1.263-8.682-.63c-6.28,1.33-8.332,5.337-8.332,5.337s3.271.343,10.3.615c3.347.129,9,1.267,11.068.015,1.041-.631,1.154-2.825,2.439-4.869,9.011-14.336,42.076-65.339,42.076-65.339a51.609,51.609,0,0,0-10.834-7.673A30.961,30.961,0,0,0,4194.444,1924.817Z" transform="translate(0 -400.726)" fill="#ffae8d"/>
    <path id="Path_1171" data-name="Path 1171" d="M4175.8,2238.455a11.492,11.492,0,0,0-6.554,2.631.55.55,0,1,0,.715.837,10.517,10.517,0,0,1,5.8-2.352.558.558,0,0,0,.035-1.116Z" transform="translate(-14.06 -637.152)" fill="#cb6339"/>
    <path id="Path_1172" data-name="Path 1172" d="M4316.453,1859.378a79.641,79.641,0,0,0,12.052,7.6c8.578,4.5,13.669,4.858,13.669,4.858s17.14-30.056,1.7-37.758S4316.453,1859.378,4316.453,1859.378Z" transform="translate(-125.183 -331.444)" fill="#df517e"/>
    <path id="Path_1173" data-name="Path 1173" d="M4338,1827.937a12.5,12.5,0,0,0-3.678.313c-8.949,2.036-15.745,11.475-21.125,25.9a.557.557,0,1,0,1.045.383c5.257-14.1,11.881-23.279,20.341-25.2,9.34-2.126,15.524,7.431,12.968,18.318a.564.564,0,1,0,1.1.262C4351.029,1837.767,4346.143,1828.52,4338,1827.937Z" transform="translate(-122.701 -327.674)" fill="#86193c"/>
    <path id="Path_1174" data-name="Path 1174" d="M4491.02,2036.95a.537.537,0,0,0-.4.122c-4.783,3.9-7.562,5.663-10.981,6.431a.551.551,0,0,0-.418.663.563.563,0,0,0,.663.436c3.644-.819,6.519-2.646,11.434-6.658a.56.56,0,0,0,.087-.785A.586.586,0,0,0,4491.02,2036.95Z" transform="translate(-247.87 -485.253)" fill="#86193c"/>
    <path id="Path_1175" data-name="Path 1175" d="M4489.753,2039.638a.569.569,0,0,0-.332.279c-.079.157-.824,1.656-.958,1.917-.2.389-.393.739-.575,1.063a29.486,29.486,0,0,1-3.852,5.176,38.256,38.256,0,0,1-6.309,5.595.552.552,0,0,0-.228.75.571.571,0,0,0,.767.227,38.429,38.429,0,0,0,6.606-5.821,30.666,30.666,0,0,0,3.992-5.386c.191-.338.386-.68.592-1.081.137-.266.881-1.779.959-1.935a.557.557,0,0,0-.244-.749A.536.536,0,0,0,4489.753,2039.638Z" transform="translate(-246.533 -487.26)" fill="#86193c"/>
    <path id="Path_1176" data-name="Path 1176" d="M4501.9,2032.781a.526.526,0,0,0-.384.157c-1,1.024-2.445,1.673-5.143,2.562a.564.564,0,0,0-.347.715.545.545,0,0,0,.7.349c2.873-.947,4.42-1.642,5.595-2.841a.552.552,0,0,0-.017-.784A.572.572,0,0,0,4501.9,2032.781Z" transform="translate(-260.528 -482.112)" fill="#86193c"/>
  </g>
</svg>
