<svg xmlns="http://www.w3.org/2000/svg" width="131.935" height="237.846" viewBox="0 0 131.935 237.846">
  <g id="Group_3628" data-name="Group 3628" transform="translate(-2019.533 -248.082)">
    <path id="Path_1222" data-name="Path 1222" d="M2374.979,500.711s-1.068,13.26,4.051,18.945c6.081,6.753,9.991,6.374,9.991,6.374s-3.056,5.406.883,9.151a23.277,23.277,0,0,0,7.389,4.961s-2.085,4.625,3.305,8.441,5.741,2.688,5.741,2.688l1.544,3.155s-4.735,6.842-1.66,11.274c5.34,7.7,6.252,11.453,6.252,11.453a21.658,21.658,0,0,0,3.875-14.853c-.782-5.866-6.122-8.707-6.122-8.707l-1.824-3.109s.981-6.212-.1-9.787c-1.876-6.218-5.678-5.625-5.678-5.625s1.08-8.6-1.669-12.646-5.525-3.117-5.525-3.117,2.518-9.7.27-18.838-9.125-20.182-9.125-20.182l-11.421,22.144Z" transform="translate(-265.045 -173.195)" fill="#8c482a"/>
    <path id="Path_1223" data-name="Path 1223" d="M2379.916,539.588a.375.375,0,0,0-.374.375c0,.019.009.3.015.417.017.327.048.7.087,1.127.112,1.214.295,2.57.573,4.031a44.126,44.126,0,0,0,4.267,12.344,35.016,35.016,0,0,0,9.177,11.207.374.374,0,0,0,.524-.055.366.366,0,0,0-.046-.523,34.271,34.271,0,0,1-8.987-10.966,43.436,43.436,0,0,1-4.193-12.144c-.274-1.438-.456-2.77-.565-3.962-.038-.416-.06-.786-.076-1.1-.01-.188-.016-.318-.017-.382A.377.377,0,0,0,2379.916,539.588Z" transform="translate(-268.518 -217.424)" fill="#320c0c"/>
    <path id="Path_1224" data-name="Path 1224" d="M2405.018,493.6a.4.4,0,0,0-.277.1.374.374,0,0,0-.014.531c.022.022.07.062.136.134.111.122.247.276.393.448.419.493.882,1.078,1.382,1.768a44.158,44.158,0,0,1,4.142,7.109,58.057,58.057,0,0,1,5.235,26.022.375.375,0,0,0,.372.377.364.364,0,0,0,.384-.351,58.854,58.854,0,0,0-5.3-26.36,44.8,44.8,0,0,0-4.22-7.217c-.512-.706-.984-1.308-1.416-1.816-.152-.179-.286-.343-.4-.471-.072-.078-.119-.129-.146-.157A.387.387,0,0,0,2405.018,493.6Z" transform="translate(-287.224 -183.124)" fill="#320c0c"/>
    <path id="Path_1225" data-name="Path 1225" d="M2397.752,504.634a.408.408,0,0,0-.3.02.367.367,0,0,0-.155.5c.025.046.4.755.553,1.057.438.864.921,1.851,1.443,2.951,1.492,3.143,2.966,6.539,4.33,10.057a103.539,103.539,0,0,1,4.323,13.6,58.847,58.847,0,0,1,1.172,6.582.377.377,0,0,0,.423.321.367.367,0,0,0,.339-.4,59.8,59.8,0,0,0-1.2-6.665,104.184,104.184,0,0,0-4.343-13.691c-1.371-3.537-2.852-6.946-4.352-10.1-.525-1.105-1.014-2.106-1.454-2.975-.154-.3-.538-1.032-.563-1.08A.352.352,0,0,0,2397.752,504.634Z" transform="translate(-281.73 -191.339)" fill="#320c0c"/>
    <path id="Path_1226" data-name="Path 1226" d="M2388.207,516.656a.366.366,0,0,0-.3.425c1.445,8.264,7.338,22.723,13.2,33.224a.385.385,0,0,0,.513.152.366.366,0,0,0,.155-.5c-5.823-10.436-11.7-24.83-13.126-33A.374.374,0,0,0,2388.207,516.656Z" transform="translate(-274.749 -200.316)" fill="#320c0c"/>
    <path id="Path_1227" data-name="Path 1227" d="M2456.511,642.6a.374.374,0,0,0-.44.291.368.368,0,0,0,.3.431c2.48.482,4.082,2.683,4.845,6.056a18.78,18.78,0,0,1,.157,7.471.373.373,0,0,0,.274.453.39.39,0,0,0,.463-.278,19.455,19.455,0,0,0-.153-7.806C2461.135,645.59,2459.35,643.155,2456.511,642.6Z" transform="translate(-325.592 -294.253)" fill="#320c0c"/>
    <path id="Path_1228" data-name="Path 1228" d="M2436.8,658.47a.379.379,0,0,0-.473.243,5.685,5.685,0,0,0-.147.595,10.465,10.465,0,0,0,.834,6.693,12.444,12.444,0,0,0,6.7,5.845.393.393,0,0,0,.507-.2.366.366,0,0,0-.2-.484,11.721,11.721,0,0,1-6.329-5.48,9.746,9.746,0,0,1-.775-6.228c.03-.151.061-.287.091-.4a1.3,1.3,0,0,1,.042-.125A.369.369,0,0,0,2436.8,658.47Z" transform="translate(-310.602 -306.081)" fill="#320c0c"/>
    <path id="Path_1229" data-name="Path 1229" d="M2445.293,655.273a.374.374,0,0,0-.4.351c-.181,3.715,1.646,7.771,6.389,12.761a.382.382,0,0,0,.532.014.36.36,0,0,0,.013-.52c-4.615-4.853-6.35-8.721-6.179-12.218A.374.374,0,0,0,2445.293,655.273Z" transform="translate(-317.254 -303.709)" fill="#320c0c"/>
    <path id="Path_1230" data-name="Path 1230" d="M2450.22,647.218a.4.4,0,0,0-.267.126.353.353,0,0,0,.046.511,14.333,14.333,0,0,1,2.927,3.857,26.564,26.564,0,0,1,2.96,9.736.374.374,0,0,0,.41.332.379.379,0,0,0,.34-.412,27.314,27.314,0,0,0-3.054-10.006,15.011,15.011,0,0,0-3.094-4.061A.362.362,0,0,0,2450.22,647.218Z" transform="translate(-320.968 -297.7)" fill="#320c0c"/>
    <path id="Path_1231" data-name="Path 1231" d="M2482.427,699.743a.388.388,0,0,0-.234.174.358.358,0,0,0,.118.5c.928.56,2.313,2.462,3.347,4.71a15.332,15.332,0,0,1,1.576,7.748.379.379,0,0,0,.754.083,16.087,16.087,0,0,0-1.64-8.144c-1.092-2.371-2.554-4.37-3.64-5.025A.377.377,0,0,0,2482.427,699.743Z" transform="translate(-345.038 -336.871)" fill="#320c0c"/>
    <path id="Path_1232" data-name="Path 1232" d="M2469.335,710.732a.383.383,0,0,0-.222.186c-.633,1.155-.339,3.624.744,5.867a10.234,10.234,0,0,0,6.549,5.607.387.387,0,0,0,.474-.255.366.366,0,0,0-.262-.452,9.5,9.5,0,0,1-6.07-5.213c-.992-2.053-1.263-4.3-.765-5.209a.37.37,0,0,0-.153-.5A.4.4,0,0,0,2469.335,710.732Z" transform="translate(-335.079 -345.062)" fill="#320c0c"/>
    <path id="Path_1233" data-name="Path 1233" d="M2474.834,707.694a.367.367,0,0,0-.271.45.392.392,0,0,0,.473.266c1.664-.441,4.955,5.348,5.933,9.742a.38.38,0,0,0,.742-.16C2480.635,713.156,2477.171,707.075,2474.834,707.694Z" transform="translate(-339.381 -342.776)" fill="#320c0c"/>
    <path id="Path_1234" data-name="Path 1234" d="M2501.481,772.02a.374.374,0,0,0-.244.15c-.037.049-.068.1-.115.168-.076.105-.158.219-.242.347a12.287,12.287,0,0,0-.685,1.17,9.5,9.5,0,0,0-1.058,5.931,3.321,3.321,0,0,0,.118.492,7.833,7.833,0,0,0,1.235,2.12c.166.225.788,1.043.879,1.165.365.49.652.9.931,1.318a15.9,15.9,0,0,1,2.736,7.527.386.386,0,0,0,.422.333.37.37,0,0,0,.328-.412,16.583,16.583,0,0,0-2.851-7.845c-.287-.43-.581-.855-.953-1.354-.093-.125-.717-.932-.879-1.153a7.267,7.267,0,0,1-1.126-1.929,2.6,2.6,0,0,1-.1-.375,8.812,8.812,0,0,1,1-5.482,11.535,11.535,0,0,1,.634-1.1c.078-.119.159-.226.229-.324.043-.06.076-.105.114-.156a.364.364,0,0,0-.093-.514A.386.386,0,0,0,2501.481,772.02Z" transform="translate(-357.632 -390.783)" fill="#320c0c"/>
    <path id="Path_1235" data-name="Path 1235" d="M2513.375,772.8a.39.39,0,0,0-.287.055.365.365,0,0,0-.084.517c.11.149.233.31.424.541.053.065.435.517.515.615a16.165,16.165,0,0,1,1.143,1.583c2.16,3.415,2.878,7.9,1.447,14.545a.371.371,0,0,0,.287.442.385.385,0,0,0,.452-.291c1.47-6.825.725-11.5-1.54-15.082a17.018,17.018,0,0,0-1.2-1.655c-.082-.1-.462-.55-.515-.615-.182-.222-.3-.37-.4-.505A.37.37,0,0,0,2513.375,772.8Z" transform="translate(-368.008 -391.367)" fill="#320c0c"/>
    <path id="Path_1236" data-name="Path 1236" d="M2509.493,779.538a.377.377,0,0,0-.351.4,10.792,10.792,0,0,0,.933,3.459c.177.419.835,1.868.918,2.058a17.927,17.927,0,0,1,1.667,6.873.379.379,0,0,0,.4.355.375.375,0,0,0,.362-.387,18.635,18.635,0,0,0-1.725-7.13c-.087-.2-.746-1.65-.918-2.058a10.074,10.074,0,0,1-.873-3.236A.373.373,0,0,0,2509.493,779.538Z" transform="translate(-365.18 -396.393)" fill="#320c0c"/>
    <path id="Path_1237" data-name="Path 1237" d="M2498.607,758.084c-.637-1.255-1.237-2.424.4-3.315,1.575-.857,2.046.245,2.683,1.5s1.032,2.1-.377,3.043C2499.991,760.2,2499.244,759.339,2498.607,758.084Z" transform="translate(-356.836 -377.693)"/>
    <path id="Path_1238" data-name="Path 1238" d="M2088.07,485.885s1.073,13.264-4.044,18.928c-6.079,6.728-9.989,6.333-9.989,6.333s3.058,5.418-.88,9.148a23.153,23.153,0,0,1-7.388,4.932s2.087,4.634-3.3,8.427-5.74,2.665-5.74,2.665l-1.542,3.148s4.738,6.861,1.665,11.281c-5.337,7.675-6.248,11.427-6.248,11.427a21.734,21.734,0,0,1-3.88-14.869c.78-5.864,6.119-8.683,6.119-8.683l1.823-3.1s-.983-6.216.094-9.786c1.874-6.21,5.676-5.6,5.676-5.6s-1.083-8.609,1.665-12.64,5.523-3.094,5.523-3.094-2.521-9.715-.277-18.839,9.118-20.144,9.118-20.144l11.429,22.19Z" transform="translate(-20.157 -162.102)" fill="#8c482a"/>
    <path id="Path_1239" data-name="Path 1239" d="M2162.025,524.877a.375.375,0,0,0-.385.363c0,.012,0,.042,0,.081-.016.494-.062,1.206-.161,2.1a43.7,43.7,0,0,1-.722,4.373,42.277,42.277,0,0,1-4.724,12.382,33.711,33.711,0,0,1-8.211,9.574.361.361,0,0,0-.061.518.381.381,0,0,0,.53.049,34.423,34.423,0,0,0,8.4-9.773,43.01,43.01,0,0,0,4.805-12.6,44.2,44.2,0,0,0,.738-4.442c.1-.911.147-1.643.164-2.155,0-.043,0-.077,0-.092A.375.375,0,0,0,2162.025,524.877Z" transform="translate(-95.576 -206.451)" fill="#320c0c"/>
    <path id="Path_1240" data-name="Path 1240" d="M2144.459,478.81a.38.38,0,0,0-.266.114c-.023.024-.066.069-.125.133-.1.105-.211.23-.338.377-.36.417-.763.912-1.2,1.492a42.439,42.439,0,0,0-3.687,5.93,57.887,57.887,0,0,0-6.137,28.037.379.379,0,0,0,.758-.01,57.186,57.186,0,0,1,6.061-27.693,41.826,41.826,0,0,1,3.612-5.829c.425-.566.823-1.043,1.172-1.447.121-.14.222-.267.314-.367.054-.059.095-.092.112-.11a.362.362,0,0,0-.01-.521A.377.377,0,0,0,2144.459,478.81Z" transform="translate(-84.404 -172.092)" fill="#320c0c"/>
    <path id="Path_1241" data-name="Path 1241" d="M2150.372,489.843a.361.361,0,0,0-.222.174c-.023.042-.359.679-.5.948-.39.766-.818,1.652-1.289,2.633-1.344,2.8-2.71,5.853-3.993,9.051a109.833,109.833,0,0,0-4.664,14.062,61.432,61.432,0,0,0-1.456,7.762.385.385,0,0,0,.335.421.377.377,0,0,0,.418-.327,60.855,60.855,0,0,1,1.44-7.682,109.045,109.045,0,0,1,4.635-13.96c1.277-3.181,2.63-6.228,3.968-9.016.468-.976.9-1.849,1.288-2.61.135-.266.462-.9.484-.937a.362.362,0,0,0-.165-.494A.37.37,0,0,0,2150.372,489.843Z" transform="translate(-88.547 -180.308)" fill="#320c0c"/>
    <path id="Path_1242" data-name="Path 1242" d="M2156.1,501.929a.362.362,0,0,0-.429.291c-1.425,8.165-7.3,22.538-13.115,32.95a.357.357,0,0,0,.154.493.382.382,0,0,0,.516-.137c5.856-10.478,11.744-24.919,13.185-33.178A.365.365,0,0,0,2156.1,501.929Z" transform="translate(-91.726 -189.331)" fill="#320c0c"/>
    <path id="Path_1243" data-name="Path 1243" d="M2110.018,627.565c-2.838.541-4.618,2.971-5.437,6.6a19.5,19.5,0,0,0-.155,7.814.366.366,0,0,0,.449.265.362.362,0,0,0,.282-.437,18.84,18.84,0,0,1,.163-7.478c.762-3.37,2.362-5.563,4.841-6.035a.358.358,0,0,0,.293-.425A.375.375,0,0,0,2110.018,627.565Z" transform="translate(-63.076 -283.038)" fill="#320c0c"/>
    <path id="Path_1244" data-name="Path 1244" d="M2124.091,643.509a.367.367,0,0,0-.247.463c.01.034.035.106.061.211.044.179.086.376.125.607a9.6,9.6,0,0,1-1.314,6.8,12.209,12.209,0,0,1-5.836,4.587.37.37,0,0,0-.2.488.386.386,0,0,0,.5.2,12.95,12.95,0,0,0,6.183-4.882,10.3,10.3,0,0,0,1.41-7.3c-.042-.251-.085-.469-.134-.666-.03-.12-.055-.21-.07-.258A.381.381,0,0,0,2124.091,643.509Z" transform="translate(-72.433 -294.923)" fill="#320c0c"/>
    <path id="Path_1245" data-name="Path 1245" d="M2119.2,640.29a.375.375,0,0,0-.362.387c.172,3.5-1.558,7.361-6.172,12.2a.362.362,0,0,0,.01.521.4.4,0,0,0,.546-.02c4.742-4.97,6.557-9.013,6.375-12.73A.379.379,0,0,0,2119.2,640.29Z" transform="translate(-69.389 -292.534)" fill="#320c0c"/>
    <path id="Path_1246" data-name="Path 1246" d="M2115.1,632.18a.388.388,0,0,0-.277.091,14.916,14.916,0,0,0-3.087,4.05,27.183,27.183,0,0,0-3.044,9.987.375.375,0,0,0,.335.41.368.368,0,0,0,.418-.315,26.469,26.469,0,0,1,2.96-9.725,14.2,14.2,0,0,1,2.922-3.838.374.374,0,0,0,.038-.53A.4.4,0,0,0,2115.1,632.18Z" transform="translate(-66.499 -286.484)" fill="#320c0c"/>
    <path id="Path_1247" data-name="Path 1247" d="M2085.425,684.635a.382.382,0,0,0-.286.044c-1.086.65-2.54,2.64-3.631,5.006a16.04,16.04,0,0,0-1.639,8.135.385.385,0,0,0,.422.333.371.371,0,0,0,.328-.412A15.318,15.318,0,0,1,2082.2,690c1.034-2.243,2.4-4.13,3.331-4.686a.373.373,0,0,0,.132-.514A.384.384,0,0,0,2085.425,684.635Z" transform="translate(-44.957 -325.602)" fill="#320c0c"/>
    <path id="Path_1248" data-name="Path 1248" d="M2092.094,695.649a.38.38,0,0,0-.286.032.367.367,0,0,0-.155.5c.5.909.228,3.156-.763,5.2a9.442,9.442,0,0,1-6.067,5.189.36.36,0,0,0-.259.45.38.38,0,0,0,.461.266,10.177,10.177,0,0,0,6.548-5.582c1.083-2.239,1.382-4.718.748-5.876A.393.393,0,0,0,2092.094,695.649Z" transform="translate(-48.494 -333.813)" fill="#320c0c"/>
    <path id="Path_1249" data-name="Path 1249" d="M2089.337,692.6c-2.337-.629-5.8,5.445-6.871,10.275a.359.359,0,0,0,.287.431.377.377,0,0,0,.452-.279c.976-4.39,4.268-10.168,5.932-9.72a.387.387,0,0,0,.474-.255A.373.373,0,0,0,2089.337,692.6Z" transform="translate(-46.932 -331.516)"/>
    <path id="Path_1250" data-name="Path 1250" d="M2063.892,756.806a.371.371,0,0,0-.276.067.364.364,0,0,0-.084.517c.042.057.072.1.122.168.08.113.164.244.253.382a11.585,11.585,0,0,1,.72,1.273,8.7,8.7,0,0,1,.882,5.238,4.978,4.978,0,0,1-.97,1.931c-.171.241-1.446,1.94-1.852,2.525a16.623,16.623,0,0,0-3.087,8.192.364.364,0,0,0,.336.4.377.377,0,0,0,.418-.326,15.9,15.9,0,0,1,2.964-7.851c.4-.57,1.671-2.258,1.852-2.513a5.521,5.521,0,0,0,1.079-2.227,9.432,9.432,0,0,0-.943-5.68,12.366,12.366,0,0,0-.751-1.356c-.1-.148-.19-.274-.277-.4-.054-.076-.092-.136-.133-.192A.4.4,0,0,0,2063.892,756.806Z" transform="translate(-29.883 -379.436)" fill="#320c0c"/>
    <path id="Path_1251" data-name="Path 1251" d="M2056.892,757.52a.375.375,0,0,0-.244.15c.009-.012-1.355,1.655-1.845,2.375-2.474,3.633-3.331,8.353-1.8,15.475a.379.379,0,0,0,.448.288.369.369,0,0,0,.293-.437c-1.494-6.932-.674-11.449,1.685-14.914.467-.686,1.822-2.338,1.832-2.352a.363.363,0,0,0-.093-.514A.387.387,0,0,0,2056.892,757.52Z" transform="translate(-24.395 -379.968)" fill="#320c0c"/>
    <path id="Path_1252" data-name="Path 1252" d="M2063.213,764.287a.375.375,0,0,0-.407.339,9.858,9.858,0,0,1-.814,3.1c-.115.277-.24.56-.413.94.007-.016-.349.758-.45.985a18.687,18.687,0,0,0-1.84,7.385.379.379,0,0,0,.756.037,18.029,18.029,0,0,1,1.78-7.133c.1-.224.445-.988.438-.974.175-.386.307-.678.426-.962a10.565,10.565,0,0,0,.872-3.313A.374.374,0,0,0,2063.213,764.287Z" transform="translate(-29.652 -385.018)" fill="#320c0c"/>
    <path id="Path_1253" data-name="Path 1253" d="M2073.953,742.867c.636-1.252,1.237-2.419-.4-3.316-1.576-.863-2.046.237-2.682,1.49s-1.031,2.094.378,3.044C2072.571,744.977,2073.317,744.119,2073.953,742.867Z" transform="translate(-37.859 -366.339)"/>
    <path id="Path_1254" data-name="Path 1254" d="M2240.528,603.111l25.751,1.253a65.2,65.2,0,0,0-1.1,8.852,82.559,82.559,0,0,0,.205,9.577l-13,2.805-12.749-4.059a64.922,64.922,0,0,0,1.34-9.553A49.438,49.438,0,0,0,2240.528,603.111Z" transform="translate(-164.163 -264.804)" fill="#ffae8d"/>
    <path id="Path_1255" data-name="Path 1255" d="M2159.417,336.979c-.8-9.626-1.765-26.933,3.53-35.982,6.417-10.964,21.235-12.792,31.147-12.31,8.326.405,19.361,3.485,25.365,11.888,7.042,9.856,8.9,24.965,7.778,37.472-.825,9.167-4.119,19.859-9.868,27.234-6.643,8.521-16.05,13.711-25.748,13.239-6.483-.316-12.782-5.132-17.9-9.427C2164.555,361.4,2160.311,347.719,2159.417,336.979Z" transform="translate(-103.863 -30.234)" fill="#ffae8d"/>
    <path id="Path_1256" data-name="Path 1256" d="M2141.376,487.111c.166-3.41-3.433-8.253-6.783-8.416a5.28,5.28,0,0,0-5.38,6.516c.657,3.347,2.415,6.306,5.766,6.469S2141.21,490.52,2141.376,487.111Z" transform="translate(-81.717 -172.001)" fill="#ffae8d"/>
    <path id="Path_1257" data-name="Path 1257" d="M2139.872,486.536a3.024,3.024,0,0,0-2.362,1.331.545.545,0,0,0,.14.771.57.57,0,0,0,.787-.124c.834-1.142,2.159-1.117,3.724-.1,1.352.882,2.52,2.363,2.551,3.063a.571.571,0,0,0,1.14-.049c-.05-1.128-1.442-2.874-3.065-3.933A5.062,5.062,0,0,0,2139.872,486.536Z" transform="translate(-87.917 -177.852)" fill="#cb6339"/>
    <path id="Path_1258" data-name="Path 1258" d="M2416.067,481.605c.166-3.41,4.218-7.88,7.569-7.717a5.28,5.28,0,0,1,4.722,7.008c-.979,3.267-3.017,6.041-6.367,5.878S2415.9,485.015,2416.067,481.605Z" transform="translate(-295.755 -168.418)" fill="#ffae8d"/>
    <path id="Path_1259" data-name="Path 1259" d="M2429.849,481.959a5.083,5.083,0,0,0-3,.664c-1.719.9-3.262,2.511-3.421,3.629a.553.553,0,0,0,.479.625.558.558,0,0,0,.639-.467c.1-.694,1.417-2.053,2.848-2.8,1.656-.864,2.978-.771,3.7.447a.572.572,0,0,0,.771.211.558.558,0,0,0,.215-.765A3.01,3.01,0,0,0,2429.849,481.959Z" transform="translate(-301.242 -174.415)" fill="#cb6339"/>
    <path id="Path_1260" data-name="Path 1260" d="M2359.143,456.009h0a1.228,1.228,0,0,1,1.181,1.272l-.125,2.578a1.242,1.242,0,0,1-2.481-.121l.125-2.578A1.228,1.228,0,0,1,2359.143,456.009Z" transform="translate(-252.238 -155.084)"/>
    <path id="Path_1261" data-name="Path 1261" d="M2226.452,449.742h0a1.227,1.227,0,0,1,1.181,1.272l-.125,2.578a1.242,1.242,0,0,1-2.481-.121l.125-2.578A1.228,1.228,0,0,1,2226.452,449.742Z" transform="translate(-153.269 -150.41)"/>
    <path id="Path_1262" data-name="Path 1262" d="M2290.744,514.858a.664.664,0,0,1,.384.329,5.77,5.77,0,0,1-1.309,6.285c-1.916,1.992-4.839,2.5-8.086,1.075a.635.635,0,0,1-.333-.85.677.677,0,0,1,.882-.326c2.741,1.2,5.044.8,6.565-.786a4.517,4.517,0,0,0,1.083-4.837.639.639,0,0,1,.318-.86A.65.65,0,0,1,2290.744,514.858Z" transform="translate(-195.273 -198.952)" fill="#cb6339"/>
    <path id="Path_1263" data-name="Path 1263" d="M2356.011,417.2a6.982,6.982,0,0,0-3.459-.339c-.895.188-1.643.237-1.942.827l-.052.012a1.521,1.521,0,0,0,1.1,1.85,11.756,11.756,0,0,1,3.293.383,18.487,18.487,0,0,1,3.888,1.723c.853.279,1.026-.782.32-1.9A5.952,5.952,0,0,0,2356.011,417.2Z" transform="translate(-246.852 -125.822)" fill="#320c0c"/>
    <path id="Path_1264" data-name="Path 1264" d="M2213.707,409.9a6.979,6.979,0,0,1,3.462.305c.843.349,1.57.536,1.752,1.171l.048.021a1.528,1.528,0,0,1-1.426,1.615,11.774,11.774,0,0,0-3.308-.23,18.518,18.518,0,0,0-4.145.976c-.891.117-.86-.958.044-1.922A5.984,5.984,0,0,1,2213.707,409.9Z" transform="translate(-141.644 -120.616)" fill="#320c0c"/>
    <path id="Path_1265" data-name="Path 1265" d="M2148.76,305.54a36.619,36.619,0,0,1,13.939-25.1c13.411-10.733,24.829-14.913,24.829-14.913s-1.947-1.223,11.756,10.639,16.382,32.168,16.382,32.168,11.25-8.215,9.627-22.531c-3.535-31.186-21.215-36.091-30.229-35.611a6.574,6.574,0,0,0-4.946,2.428,4.736,4.736,0,0,0-3.582-3.794c-6.9-2.011-21.272-.93-33.62,15.655C2138.642,283.656,2148.76,305.54,2148.76,305.54Z" transform="translate(-93.791)" fill="#8c482a"/>
    <path id="Path_1266" data-name="Path 1266" d="M2190.874,306.98c-8.923,1.492-17.065,6.8-23.917,14.733-5.438,6.294-9.712,13.978-11.332,19.673a.548.548,0,0,0,.393.679.574.574,0,0,0,.706-.382c1.575-5.537,5.761-13.07,11.1-19.245,6.694-7.746,14.62-12.919,23.247-14.361a.568.568,0,0,0,.47-.648A.574.574,0,0,0,2190.874,306.98Z" transform="translate(-101.49 -43.924)" fill="#320c0c"/>
    <path id="Path_1267" data-name="Path 1267" d="M2213.116,284.423c-5.068-.008-10.353,2.107-15.711,6a70.953,70.953,0,0,0-14.1,14.251.539.539,0,0,0,.116.77.568.568,0,0,0,.787-.112,69.8,69.8,0,0,1,13.874-14.007c5.909-4.3,11.663-6.346,17.045-5.673a.557.557,0,1,0,.148-1.1A17.645,17.645,0,0,0,2213.116,284.423Z" transform="translate(-122.068 -27.106)" fill="#320c0c"/>
    <path id="Path_1268" data-name="Path 1268" d="M2186.327,262.72c-5.98.1-12.641,3.405-18.922,9.2-7.936,7.325-14.142,17.66-16.126,27.18a.559.559,0,0,0,.442.658.569.569,0,0,0,.672-.431c1.935-9.287,8.016-19.42,15.79-26.595,8.089-7.466,16.721-10.607,23.434-7.988a.573.573,0,0,0,.738-.311.553.553,0,0,0-.32-.721A14.877,14.877,0,0,0,2186.327,262.72Z" transform="translate(-98.256 -10.917)" fill="#320c0c"/>
    <path id="Path_1269" data-name="Path 1269" d="M2323.781,311.416a.582.582,0,0,0-.389.2.545.545,0,0,0,.081.779c.832.669,4.565,3.529,5.215,4.037,2.466,1.927,4.523,3.634,6.485,5.442,7.288,6.71,11.88,13.523,13.141,21.015a.569.569,0,0,0,.653.46.556.556,0,0,0,.469-.637c-1.308-7.776-6.036-14.783-13.489-21.645-1.988-1.831-4.066-3.559-6.553-5.5-.66-.516-4.385-3.366-5.2-4.026A.559.559,0,0,0,2323.781,311.416Z" transform="translate(-226.541 -47.237)" fill="#320c0c"/>
    <path id="Path_1270" data-name="Path 1270" d="M2327.9,291.236a.555.555,0,1,0-.078,1.107c5.655.422,12.635,4.827,17.812,11.651,6.1,8.045,9.211,18.533,8.223,30.321a.56.56,0,0,0,.528.592.553.553,0,0,0,.6-.5c1.01-12.058-2.181-22.8-8.448-31.061C2341.184,296.279,2333.917,291.686,2327.9,291.236Z" transform="translate(-229.547 -32.186)" fill="#320c0c"/>
    <path id="Path_1271" data-name="Path 1271" d="M2338.18,275.344a19.073,19.073,0,0,0-1.977-.015.551.551,0,1,0,.041,1.1,20.238,20.238,0,0,1,14.492,5.658c5.235,4.759,9.312,12.326,11.811,22.79a.578.578,0,0,0,.69.415.549.549,0,0,0,.423-.662c-2.548-10.666-6.737-18.428-12.15-23.35A21.816,21.816,0,0,0,2338.18,275.344Z" transform="translate(-235.783 -20.309)" fill="#320c0c"/>
    <path id="Path_1272" data-name="Path 1272" d="M2337.8,263.409a8.353,8.353,0,0,0-2.144.243.553.553,0,0,0-.388.687.572.572,0,0,0,.7.381c2.072-.564,6.382.065,10.315,1.706,4.882,2.037,8.684,5.3,10.525,9.549a.57.57,0,0,0,.744.29.551.551,0,0,0,.308-.726c-1.968-4.547-5.991-7.992-11.124-10.133A24.809,24.809,0,0,0,2337.8,263.409Z" transform="translate(-235.479 -11.432)" fill="#320c0c"/>
    <path id="Path_1273" data-name="Path 1273" d="M2303.413,317.609a.564.564,0,0,0,.3.13.533.533,0,0,1-.291-.107C2303.415,317.625,2303.421,317.616,2303.413,317.609Zm.367-.966a.607.607,0,0,0-.324.1.649.649,0,0,0-.187.188,3.04,3.04,0,0,0-.193.315c-.155.284-.335.678-.529,1.132a23.85,23.85,0,0,0-1.311,4.055c-.945,4.185-.677,8.118,1.3,11.333a.584.584,0,0,0,.783.2.552.552,0,0,0,.191-.766c-1.8-2.932-2.045-6.594-1.157-10.528a22.81,22.81,0,0,1,1.242-3.873c.18-.423.351-.779.489-1.03.035-.064.055-.1.077-.135a.553.553,0,0,0,.2-.407.508.508,0,0,0-.215-.45A.543.543,0,0,0,2303.78,316.643Z" transform="translate(-209.72 -51.137)" fill="#8c482a"/>
    <path id="Path_1274" data-name="Path 1274" d="M2312.726,318.422c-.021.034,0,.023-.027.068-.04.018-.028-.006-.06.008A.558.558,0,0,0,2312.726,318.422Zm.122-.561a.813.813,0,0,1,.029.14c0,.027-.029.059-.028.08C2312.849,318.006,2312.88,317.932,2312.848,317.86Zm-.386-.331c-.17-.041-.165-.037-.516.125-.209.322-.212.327-.19.5a.646.646,0,0,0,.04.152.55.55,0,0,0,.249.243c.046.043.094.116.18.205.246.26.569.626.92,1.052a35.136,35.136,0,0,1,2.816,3.943c2.485,4.056,3.747,7.991,3.189,11.367a.554.554,0,0,0,.467.636.561.561,0,0,0,.65-.454c.609-3.688-.72-7.854-3.33-12.114a36.405,36.405,0,0,0-2.9-4.075c-.366-.444-.711-.833-.976-1.112-.117-.124-.211-.217-.282-.28a.915.915,0,0,0-.16-.124A.582.582,0,0,0,2312.461,317.529Z" transform="translate(-217.951 -51.782)" fill="#8c482a"/>
    <path id="Path_1275" data-name="Path 1275" d="M2312.28,313.146a.555.555,0,0,0-.426,0,.546.546,0,0,0-.3.726c.028.064.083.191.159.378.129.313.267.679.421,1.085.439,1.162.875,2.437,1.272,3.8a37.929,37.929,0,0,1,1.583,8.836,20.093,20.093,0,0,1-.212,4.109.554.554,0,0,0,.466.636.57.57,0,0,0,.65-.466,21.058,21.058,0,0,0,.222-4.316,38.877,38.877,0,0,0-1.618-9.092c-.405-1.391-.854-2.706-1.3-3.893-.157-.417-.3-.786-.431-1.109-.047-.113-.162-.383-.17-.4A.565.565,0,0,0,2312.28,313.146Z" transform="translate(-217.775 -48.499)" fill="#8c482a"/>
    <path id="Path_1276" data-name="Path 1276" d="M2288.324,315.4a.581.581,0,0,0-.42.119c-.063.051-.177.147-.334.284-.257.227-.536.5-.844.8a27.9,27.9,0,0,0-2.605,2.916c-3.333,4.326-4.914,8.974-3.7,13.647a.572.572,0,0,0,.691.4.555.555,0,0,0,.412-.674c-1.118-4.288.362-8.623,3.508-12.707a26.786,26.786,0,0,1,2.493-2.806c.295-.287.563-.544.806-.759.144-.127.246-.21.3-.252a.548.548,0,0,0,.073-.783A.557.557,0,0,0,2288.324,315.4Z" transform="translate(-194.284 -50.208)" fill="#8c482a"/>
    <path id="Path_1277" data-name="Path 1277" d="M2269.135,315.584a.586.586,0,0,0-.43.083c-.1.061-.856.538-1.124.709-.527.336-1.008.654-1.493.98-1.278.859-2.47,1.727-3.6,2.648-4.3,3.507-7.006,7.16-7.417,11.012a.561.561,0,0,0,.5.615.574.574,0,0,0,.628-.5c.373-3.5,2.917-6.94,7.014-10.28,1.1-.9,2.262-1.741,3.513-2.582.477-.321.948-.626,1.468-.958l1.125-.72a.548.548,0,0,0,.168-.767A.555.555,0,0,0,2269.135,315.584Z" transform="translate(-175.678 -50.339)" fill="#8c482a"/>
    <path id="Path_1278" data-name="Path 1278" d="M2269.088,629.711a.759.759,0,0,0-.571.053c-6.66,3.491-15.824,3.581-22.21-.861a.761.761,0,0,0-1.05.169.723.723,0,0,0,.175,1.027c6.894,4.8,16.668,4.712,23.8.974a.733.733,0,0,0,.309-1A.766.766,0,0,0,2269.088,629.711Z" transform="translate(-168.254 -283.937)" fill="#cb6339"/>
    <ellipse id="Ellipse_20" data-name="Ellipse 20" cx="6.758" cy="6.669" rx="6.758" ry="6.669" transform="translate(2100.865 325.054) rotate(-87.21)" fill="#fe7960"/>
    <ellipse id="Ellipse_21" data-name="Ellipse 21" cx="6.758" cy="6.669" rx="6.758" ry="6.669" transform="matrix(0.049, -0.999, 0.999, 0.049, 2064.33, 325.125)" fill="#fe7960"/>
    <path id="Path_1279" data-name="Path 1279" d="M2274.593,576.155a.5.5,0,0,0-.35.155c-5.569,5.692-15.595,6.1-21.536.945a.5.5,0,0,0-.66.762c6.34,5.5,16.973,5.049,22.91-1.018a.5.5,0,0,0-.364-.843Z" transform="translate(-173.297 -244.698)" fill="#b33302"/>
    <path id="Path_1280" data-name="Path 1280" d="M2056.082,927.41l-11.527,3.972c1.184,5.955-7.673,34.7-6.806,38.143s1.886,5.158.219,6.207-4.974.9-8.069,1.025c-5.308.21-10.608-.132-10.358-2.031.4-3.007,10.734-3,11.126-6.975s-6.316-50.834,3.939-55.958a52.32,52.32,0,0,1,18.621-5.57Z" transform="translate(0 -490.884)" fill="#ffae8d"/>
    <path id="Path_1281" data-name="Path 1281" d="M2392.382,913.487l11.322,4.523c-1.47,5.891,5.992,35.025,4.96,38.426s-2.132,5.062-.518,6.189,4.925,1.141,8.01,1.412c5.292.466,10.6.379,10.444-1.529-.25-3.022-10.577-3.518-10.777-7.5s8.759-50.47-1.238-56.083a52.325,52.325,0,0,0-18.331-6.461Z" transform="translate(-278.094 -480.62)" fill="#ffae8d"/>
    <path id="Path_1282" data-name="Path 1282" d="M2055.184,897.243c-3.378,13.271,1,50.477,1,50.477l8.307.16a220.668,220.668,0,0,0,5.731-21.381,57.98,57.98,0,0,0,1.191-14.784,123.56,123.56,0,0,0,20.06.176,140.753,140.753,0,0,0,19.408-3.374,131.944,131.944,0,0,0,18.958,2.6c9.7.529,20.739-2.672,20.739-2.672s-1.312,3.659.025,12.84,5.323,23.88,5.323,23.88l7.631-.516s7.95-33.133,2.728-51.815c-2.532-9.058-18.562-12.608-20.426-13.084a60.027,60.027,0,0,0-10.043-1.59l-46.181.732s-6.11,1.781-12.145,3.9S2057.094,889.738,2055.184,897.243Z" transform="translate(-25.635 -469.951)" fill="#258faa"/>
    <path id="Path_1283" data-name="Path 1283" d="M2408.933,532.674l3.735.02a67.118,67.118,0,0,1,3.8-11.15c2.68-6.1,7.324-15.744,7.324-15.744s-.564-3.376-1.338-6.691c-.618-2.644-1.571-5.261-1.008-6.02,1.262-1.7,3.511,4.325,3.511,4.325.261-1.671.706-2.575.887-3.9.343-2.51.425-4.846,1.347-5.012,1.46-.264,1.536,5.143,1.536,5.143s.689-6.695,2.277-6.551c1.771.161.352,6.467.352,6.467s1.935-4.936,3.029-4.586-.681,5.849-.681,5.849,1.653-3.6,2.87-2.62c.941.754-1.667,5.311-1.667,5.311a18.018,18.018,0,0,1-5.323,10.318s-1.538,23.8-6.233,33.5c-5.5,11.369-19.448,10.01-19.448,10.01Z" transform="translate(-286.687 -178.273)" fill="#ffae8d"/>
    <path id="Path_1284" data-name="Path 1284" d="M2490.728,520.653a.569.569,0,0,0-.338.731c.621,1.72-.271,4.852-1.6,6.508a.554.554,0,0,0,.086.788.575.575,0,0,0,.8-.086c1.553-1.938,2.55-5.439,1.776-7.585A.579.579,0,0,0,2490.728,520.653Z" transform="translate(-349.908 -203.277)" fill="#cb6339"/>
    <path id="Path_1285" data-name="Path 1285" d="M2493.884,517.318a.55.55,0,0,0-.414.1.573.573,0,0,0-.146.794,10.637,10.637,0,0,0,6.081,3.785.569.569,0,0,0,.091-1.135,9.554,9.554,0,0,1-5.232-3.316A.593.593,0,0,0,2493.884,517.318Z" transform="translate(-353.308 -200.808)" fill="#cb6339"/>
    <path id="Path_1286" data-name="Path 1286" d="M2077.015,529.619l-3.719-.343a67.089,67.089,0,0,0-2.7-11.466c-2.074-6.335-5.76-16.381-5.76-16.381s.889-3.3,1.982-6.529c.872-2.572,2.075-5.083,1.587-5.893-1.091-1.814-3.915,3.963-3.915,3.963-.1-1.688-.453-2.631-.5-3.962-.1-2.532.047-4.864-.854-5.12-1.428-.4-2.028,4.969-2.028,4.969s-.036-6.73-1.63-6.741c-1.778-.012-.979,6.4-.979,6.4s-1.446-5.1-2.57-4.859.11,5.888.11,5.888-1.3-3.74-2.6-2.887c-1.01.659,1.143,5.448,1.143,5.448a18.022,18.022,0,0,0,4.3,10.786s-.782,23.838,2.949,33.949c4.373,11.851,18.385,11.852,18.385,11.852Z" transform="translate(-25.085 -174.558)" fill="#ffae8d"/>
    <path id="Path_1287" data-name="Path 1287" d="M2084.81,516.779a.57.57,0,0,1,.266.761c-.785,1.651-.2,4.854.959,6.632a.554.554,0,0,1-.162.775.575.575,0,0,1-.793-.163c-1.357-2.079-2.01-5.662-1.03-7.721A.578.578,0,0,1,2084.81,516.779Z" transform="translate(-47.769 -200.373)" fill="#cb6339"/>
    <path id="Path_1288" data-name="Path 1288" d="M2070.6,513.63a.551.551,0,0,1,.4.144.572.572,0,0,1,.067.8,10.631,10.631,0,0,1-6.42,3.176.569.569,0,0,1,.02-1.138,9.552,9.552,0,0,0,5.529-2.792A.592.592,0,0,1,2070.6,513.63Z" transform="translate(-33.236 -198.062)" fill="#cb6339"/>
    <path id="Path_1289" data-name="Path 1289" d="M2136.6,680.575l.818-24.511,26.251-2.628s4.444,4.562,12.686,4.205c9.3-.4,12.125-4.4,12.125-4.4l23.746,3-.049,23.348s-10.581.785-11.554,1.683-.7,29.335-.7,29.335a36.864,36.864,0,0,1-23.874,8.138c-14.871-.134-27.724-7.5-27.724-7.5s3.3-25.94,1.648-27.345S2136.6,680.575,2136.6,680.575Z" transform="translate(-87.317 -302.191)" fill="#df517e"/>
  </g>
</svg>
