<svg xmlns="http://www.w3.org/2000/svg" width="78.927" height="78.928" viewBox="0 0 78.927 78.928">
  <g id="Group_3625" data-name="Group 3625" transform="translate(-420.542 -772.141)">
    <path id="Path_1177" data-name="Path 1177" d="M499.469,811.608a39.434,39.434,0,1,1-25.393-36.882A39.463,39.463,0,0,1,499.469,811.608Z" transform="translate(0 0)" fill="#ffcc5c"/>
    <circle id="Ellipse_17" data-name="Ellipse 17" cx="30.713" cy="30.713" r="30.713" transform="translate(429.293 780.892)" fill="#fffffa"/>
    <circle id="Ellipse_18" data-name="Ellipse 18" cx="16.558" cy="16.558" r="16.558" transform="translate(443.448 795.047)" fill="#ffd577"/>
    <circle id="Ellipse_19" data-name="Ellipse 19" cx="2.403" cy="2.403" r="2.403" transform="translate(457.603 809.202)" fill="#ffa454"/>
    <path id="Path_1178" data-name="Path 1178" d="M487.039,805.081l-1.181-2.2a.823.823,0,0,0-1.424-.045l-1.318,2.124a.823.823,0,0,0,.673,1.256l.547.017v16.587h1.406V806.275l.546.017A.823.823,0,0,0,487.039,805.081Z" transform="translate(1282.166 326.772) rotate(90)" fill="#ffa454"/>
    <path id="Path_1179" data-name="Path 1179" d="M475.585,835.986H463.261l.017-.546a.823.823,0,0,0-1.211-.751l-2.2,1.181a.823.823,0,0,0-.045,1.424l2.124,1.318a.823.823,0,0,0,1.256-.674l.017-.546h12.368Z" transform="translate(-15.604 -25.058)" fill="#ffa454"/>
    <g id="Group_3621" data-name="Group 3621" transform="translate(455.766 783.542)">
      <rect id="Rectangle_1311" data-name="Rectangle 1311" width="1.097" height="4.61" rx="0.548" transform="translate(5.22 0.174)" fill="#ffa454"/>
      <rect id="Rectangle_1312" data-name="Rectangle 1312" width="1.097" height="4.61" rx="0.548" transform="translate(7.164 0.174)" fill="#ffa454"/>
      <rect id="Rectangle_1313" data-name="Rectangle 1313" width="1.097" height="5.915" rx="0.548" transform="translate(0 0.775) rotate(-45)" fill="#ffa454"/>
      <rect id="Rectangle_1314" data-name="Rectangle 1314" width="1.097" height="5.915" rx="0.548" transform="matrix(0.707, 0.707, -0.707, 0.707, 4.182, 0)" fill="#ffa454"/>
    </g>
    <g id="Group_3622" data-name="Group 3622" transform="translate(432.386 809.127)">
      <rect id="Rectangle_1315" data-name="Rectangle 1315" width="1.097" height="4.61" rx="0.548" transform="translate(0 0.174)" fill="#ffa454"/>
      <rect id="Rectangle_1316" data-name="Rectangle 1316" width="1.097" height="5.915" rx="0.548" transform="translate(1.334 0.775) rotate(-45)" fill="#ffa454"/>
      <rect id="Rectangle_1317" data-name="Rectangle 1317" width="1.097" height="5.915" rx="0.548" transform="translate(5.516 0) rotate(45)" fill="#ffa454"/>
    </g>
    <g id="Group_3623" data-name="Group 3623" transform="translate(456.612 833.552)">
      <rect id="Rectangle_1318" data-name="Rectangle 1318" width="1.097" height="4.61" rx="0.548" transform="translate(4.375 0.155)" fill="#ffa454"/>
      <rect id="Rectangle_1319" data-name="Rectangle 1319" width="1.097" height="4.853" rx="0.548" transform="translate(0 0.385) rotate(-20.537)" fill="#ffa454"/>
      <rect id="Rectangle_1320" data-name="Rectangle 1320" width="1.097" height="4.853" rx="0.548" transform="translate(2.385 4.929) rotate(-159.463)" fill="#ffa454"/>
    </g>
    <g id="Group_3624" data-name="Group 3624" transform="translate(481.671 809.3)">
      <rect id="Rectangle_1321" data-name="Rectangle 1321" width="1.097" height="4.61" rx="0.548" transform="translate(1.96)" fill="#ffa454"/>
      <rect id="Rectangle_1322" data-name="Rectangle 1322" width="1.097" height="4.61" rx="0.548" transform="translate(0)" fill="#ffa454"/>
      <rect id="Rectangle_1323" data-name="Rectangle 1323" width="1.097" height="4.61" rx="0.548" transform="translate(3.904)" fill="#ffa454"/>
    </g>
    <path id="Path_1180" data-name="Path 1180" d="M491.979,774.725a22.272,22.272,0,0,1-26.821-.475,39.6,39.6,0,0,1,26.821.475Z" transform="translate(-17.902 0)" fill="#ffb451"/>
  </g>
</svg>
