<svg xmlns="http://www.w3.org/2000/svg" width="165.516" height="29.435" viewBox="0 0 165.516 29.435">
  <g id="Group_22" data-name="Group 22" transform="translate(-1622.879 -246.443)" style="mix-blend-mode: overlay;isolation: isolate">
    <g id="Path_131" data-name="Path 131" transform="translate(-300.59 0)" fill="none" stroke-miterlimit="10">
      <path d="M2010.226,275.853h-29.409V246.443Z" stroke="none"/>
      <path d="M 2007.812133789062 274.8525390625 L 1981.81689453125 248.8573760986328 L 1981.81689453125 274.8525390625 L 2007.812133789062 274.8525390625 M 2010.226318359375 275.8525390625 L 1980.81689453125 275.8525390625 L 1980.81689453125 246.4431610107422 L 2010.226318359375 275.8525390625 Z" stroke="none" fill="#000"/>
    </g>
    <g id="Rectangle_12" data-name="Rectangle 12" transform="translate(1680.228 246.443)" fill="none" stroke="#000" stroke-miterlimit="10" stroke-width="1">
      <path d="M0,0H17.413a7.352,7.352,0,0,1,7.352,7.352v0A7.352,7.352,0,0,1,17.413,14.7H0a0,0,0,0,1,0,0V0A0,0,0,0,1,0,0Z" stroke="none"/>
      <path d="M.5.5H17.413a6.852,6.852,0,0,1,6.852,6.852v0A6.852,6.852,0,0,1,17.413,14.2H.5a0,0,0,0,1,0,0V.5A0,0,0,0,1,.5.5Z" fill="none"/>
    </g>
    <g id="Rectangle_13" data-name="Rectangle 13" transform="translate(1694.932 275.878) rotate(180)" fill="none" stroke="#000" stroke-miterlimit="10" stroke-width="1">
      <rect width="14.705" height="29.409" stroke="none"/>
      <rect x="0.5" y="0.5" width="13.705" height="28.409" fill="none"/>
    </g>
    <g id="Rectangle_14" data-name="Rectangle 14" transform="translate(1644.936 275.865) rotate(180)" fill="none" stroke="#000" stroke-miterlimit="10" stroke-width="1">
      <rect width="14.705" height="29.409" stroke="none"/>
      <rect x="0.5" y="0.5" width="13.705" height="28.409" fill="none"/>
    </g>
    <g id="Path_132" data-name="Path 132" transform="translate(0 -0.068)" fill="none" stroke-miterlimit="10">
      <path d="M1637.584,246.524h-14.7v14.7h29.409v-14.7Z" stroke="none"/>
      <path d="M 1623.879150390625 247.5237426757812 L 1623.879150390625 260.2283935546875 L 1651.28857421875 260.2283935546875 L 1651.28857421875 247.5237426757812 L 1623.879150390625 247.5237426757812 M 1622.879150390625 246.5237426757812 L 1652.28857421875 246.5237426757812 L 1652.28857421875 261.2283935546875 L 1622.879150390625 261.2283935546875 L 1622.879150390625 246.5237426757812 Z" stroke="none" fill="#000"/>
    </g>
    <g id="Path_133" data-name="Path 133" transform="translate(-713.401 0)" fill="none" stroke-miterlimit="10">
      <path d="M2487.092,246.443h-14.7v14.7H2501.8v-14.7Z" stroke="none"/>
      <path d="M 2473.38720703125 247.4432373046875 L 2473.38720703125 260.1478881835938 L 2500.79638671875 260.1478881835938 L 2500.79638671875 247.4432373046875 L 2473.38720703125 247.4432373046875 M 2472.38720703125 246.4432373046875 L 2501.79638671875 246.4432373046875 L 2501.79638671875 261.1478881835938 L 2472.38720703125 261.1478881835938 L 2472.38720703125 246.4432373046875 Z" stroke="none" fill="#000"/>
    </g>
    <g id="Path_134" data-name="Path 134" transform="translate(-713.401 0)" fill="none" stroke-miterlimit="10">
      <path d="M2472.387,275.853H2501.8V246.443Z" stroke="none"/>
      <path d="M 2500.79638671875 274.8526000976562 L 2500.79638671875 248.8574523925781 L 2474.801513671875 274.8526000976562 L 2500.79638671875 274.8526000976562 M 2501.79638671875 275.8526000976562 L 2472.38720703125 275.8526000976562 L 2501.79638671875 246.4432373046875 L 2501.79638671875 275.8526000976562 Z" stroke="none" fill="#000"/>
    </g>
    <g id="Path_135" data-name="Path 135" transform="translate(-454.738 0)" fill="none" stroke-miterlimit="10">
      <path d="M2193.784,246.443h-29.409v29.409Z" stroke="none"/>
      <path d="M 2165.374755859375 247.4431762695312 L 2165.374755859375 273.4383239746094 L 2191.369873046875 247.4431762695312 L 2165.374755859375 247.4431762695312 M 2164.374755859375 246.4431762695312 L 2193.7841796875 246.4431762695312 L 2164.374755859375 275.8525390625 L 2164.374755859375 246.4431762695312 Z" stroke="none" fill="#000"/>
    </g>
    <g id="Path_136" data-name="Path 136" transform="translate(-454.738 0)" fill="none" stroke-miterlimit="10">
      <path d="M2193.784,275.853h-29.409V246.443Z" stroke="none"/>
      <path d="M 2191.369873046875 274.8525390625 L 2165.374755859375 248.8573760986328 L 2165.374755859375 274.8525390625 L 2191.369873046875 274.8525390625 M 2193.7841796875 275.8525390625 L 2164.374755859375 275.8525390625 L 2164.374755859375 246.4431610107422 L 2193.7841796875 275.8525390625 Z" stroke="none" fill="#000"/>
    </g>
    <g id="Rectangle_15" data-name="Rectangle 15" transform="translate(1741.664 261.174)" fill="none" stroke="#000" stroke-miterlimit="10" stroke-width="1">
      <rect width="14.705" height="14.705" stroke="none"/>
      <rect x="0.5" y="0.5" width="13.705" height="13.705" fill="none"/>
    </g>
    <g id="Rectangle_16" data-name="Rectangle 16" transform="translate(1741.664 246.469)" fill="none" stroke="#000" stroke-miterlimit="10" stroke-width="1">
      <rect width="14.705" height="14.705" stroke="none"/>
      <rect x="0.5" y="0.5" width="13.705" height="13.705" fill="none"/>
    </g>
    <g id="Path_137" data-name="Path 137" transform="translate(-115.611 -0.068)" fill="none" stroke-miterlimit="10">
      <path d="M1795.839,275.933h-35.291l17.646-29.409Z" stroke="none"/>
      <path d="M 1794.072387695312 274.9330139160156 L 1778.193115234375 248.4673309326172 L 1762.313598632812 274.9330139160156 L 1794.072387695312 274.9330139160156 M 1795.838623046875 275.9330139160156 L 1760.54736328125 275.9330139160156 L 1778.193115234375 246.523681640625 L 1795.838623046875 275.9330139160156 Z" stroke="none" fill="#000"/>
    </g>
    <g id="Path_138" data-name="Path 138" transform="translate(-167.86 -87.148)" fill="none" stroke-miterlimit="10">
      <path d="M1822.764,363.013l7.677-12.8,7.677,12.8Z" stroke="none"/>
      <path d="M 1836.352416992188 362.0133361816406 L 1830.44140625 352.161376953125 L 1824.530151367188 362.0133361816406 L 1836.352416992188 362.0133361816406 M 1838.11865234375 363.0133361816406 L 1822.763916015625 363.0133361816406 L 1830.44140625 350.2177124023438 L 1838.11865234375 363.0133361816406 Z" stroke="none" fill="#000"/>
    </g>
  </g>
</svg>
