<svg xmlns="http://www.w3.org/2000/svg" width="175" height="31.122" viewBox="0 0 175 31.122">
  <g id="Group_3413" data-name="Group 3413" transform="translate(-166.467 -7.943)">
    <path id="Path_139" data-name="Path 139" d="M555.5,39.038H524.4V7.943Z" transform="translate(-297.304 0)" fill="#e16b77" style="isolation: isolate"/>
    <path id="Rectangle_17" data-name="Rectangle 17" d="M0,0H18.411a7.774,7.774,0,0,1,7.774,7.774v0a7.774,7.774,0,0,1-7.774,7.774H0a0,0,0,0,1,0,0V0A0,0,0,0,1,0,0Z" transform="translate(227.101 7.943)" fill="#f0d38d" style="isolation: isolate"/>
    <rect id="Rectangle_18" data-name="Rectangle 18" width="15.547" height="31.094" transform="translate(242.648 39.065) rotate(180)" fill="#f54c31"/>
    <rect id="Rectangle_19" data-name="Rectangle 19" width="15.547" height="31.094" transform="translate(189.788 39.051) rotate(180)" fill="#f66e96" style="isolation: isolate"/>
    <path id="Path_140" data-name="Path 140" d="M182.014,8.024H166.467V23.571h31.094V8.024Z" transform="translate(0 -0.067)" fill="#f66e96" style="isolation: isolate"/>
    <path id="Path_141" data-name="Path 141" d="M1031.522,7.943h-15.547V23.49h31.094V7.943Z" transform="translate(-705.602 0)" fill="#9670c7" style="isolation: isolate"/>
    <path id="Path_142" data-name="Path 142" d="M1015.975,39.038h31.094V7.943Z" transform="translate(-705.602 0)" fill="#9670c7" style="isolation: isolate"/>
    <path id="Path_143" data-name="Path 143" d="M739.057,7.943H707.963V39.038Z" transform="translate(-449.767 0)" fill="#c6a5ba" style="isolation: isolate"/>
    <path id="Path_144" data-name="Path 144" d="M739.057,39.038H707.963V7.943Z" transform="translate(-449.767 0)" fill="#c6a5ba" style="isolation: isolate"/>
    <rect id="Rectangle_20" data-name="Rectangle 20" width="15.547" height="15.547" transform="translate(292.058 23.518)" fill="#66baa0" style="isolation: isolate"/>
    <rect id="Rectangle_21" data-name="Rectangle 21" width="15.547" height="15.547" transform="translate(292.058 7.97)" fill="#66baa0" style="isolation: isolate"/>
    <path id="Path_145" data-name="Path 145" d="M341.449,39.118H304.135L322.792,8.024Z" transform="translate(-114.347 -0.067)" fill="#f5d38b" style="isolation: isolate"/>
    <path id="Path_146" data-name="Path 146" d="M366.352,125.246l8.117-13.529,8.117,13.529Z" transform="translate(-166.025 -86.195)" fill="#f7ab53" style="isolation: isolate"/>
  </g>
</svg>
