<svg xmlns="http://www.w3.org/2000/svg" width="287.651" height="122.801" viewBox="0 0 287.651 122.801">
  <g id="Group_5235" data-name="Group 5235" transform="translate(-43.675 -344.599)">
    <g id="Group_23" data-name="Group 23" transform="translate(-122.792 336.656)">
      <path id="Path_139" data-name="Path 139" d="M575.515,59.054H524.4V7.943Z" transform="translate(-258.272 0)" fill="#e16b77" style="isolation: isolate"/>
      <path id="Rectangle_17" data-name="Rectangle 17" d="M0,0H30.263A12.778,12.778,0,0,1,43.04,12.778v0A12.778,12.778,0,0,1,30.263,25.555H0a0,0,0,0,1,0,0V0A0,0,0,0,1,0,0Z" transform="translate(266.133 7.943)" fill="#f0d38d" style="isolation: isolate"/>
      <rect id="Rectangle_18" data-name="Rectangle 18" width="25.555" height="51.111" transform="translate(291.688 59.099) rotate(180)" fill="#f54c31"/>
      <rect id="Rectangle_19" data-name="Rectangle 19" width="25.555" height="51.111" transform="translate(204.8 59.076) rotate(180)" fill="#f66e96" style="isolation: isolate"/>
      <path id="Path_140" data-name="Path 140" d="M192.022,8.024H166.467V33.579h51.111V8.024Z" transform="translate(0 -0.058)" fill="#f66e96" style="isolation: isolate"/>
      <path id="Path_141" data-name="Path 141" d="M1041.53,7.943h-25.555V33.5h51.111V7.943Z" transform="translate(-612.968 0)" fill="#9670c7" style="isolation: isolate"/>
      <path id="Path_142" data-name="Path 142" d="M1015.975,59.054h51.111V7.943Z" transform="translate(-612.968 0)" fill="#9670c7" style="isolation: isolate"/>
      <path id="Path_143" data-name="Path 143" d="M759.073,7.943H707.963V59.054Z" transform="translate(-390.719 0)" fill="#c6a5ba" style="isolation: isolate"/>
      <path id="Path_144" data-name="Path 144" d="M759.073,59.054H707.963V7.943Z" transform="translate(-390.719 0)" fill="#c6a5ba" style="isolation: isolate"/>
      <rect id="Rectangle_20" data-name="Rectangle 20" width="25.555" height="25.555" transform="translate(372.903 33.543)" fill="#66baa0" style="isolation: isolate"/>
      <rect id="Rectangle_21" data-name="Rectangle 21" width="25.555" height="25.555" transform="translate(372.903 7.988)" fill="#66baa0" style="isolation: isolate"/>
      <path id="Path_145" data-name="Path 145" d="M365.468,59.134H304.135L334.8,8.024Z" transform="translate(-99.335 -0.058)" fill="#f5d38b" style="isolation: isolate"/>
      <path id="Path_146" data-name="Path 146" d="M366.352,133.955l13.342-22.238,13.343,22.238Z" transform="translate(-144.228 -74.879)" fill="#f7ab53" style="isolation: isolate"/>
    </g>
    <text id="My_Holiday" data-name="My Holiday" transform="translate(133 451.401)" fill="#dd5966" font-size="64" font-family="SillyKids-Outline, Silly Kids Outline"><tspan x="0" y="0">Kids</tspan></text>
  </g>
</svg>
