<svg xmlns="http://www.w3.org/2000/svg" width="70.3" height="85.625" viewBox="0 0 70.3 85.625">
  <g id="Frame_61" data-name="Frame 61" opacity="0.61">
    <g id="Frame_61-2" data-name="Frame 61" transform="translate(0)" fill="#fafafa">
      <path d="M11.071,8.622,57.506,1.563a8.7,8.7,0,0,1,7.407,2.311,10.12,10.12,0,0,1,2.321,3.358,12.111,12.111,0,0,1,.958,4.387l1.72,49.6a13.336,13.336,0,0,1-.634,4.514,13.964,13.964,0,0,1-2.019,3.978,12.808,12.808,0,0,1-3.1,3.031,10.6,10.6,0,0,1-3.889,1.663L15,83.468a9.643,9.643,0,0,1-4.228-.07,9,9,0,0,1-3.567-1.8,9.667,9.667,0,0,1-2.529-3.23,11.346,11.346,0,0,1-1.109-4.366L.678,22.4a13.6,13.6,0,0,1,.61-4.835,13.927,13.927,0,0,1,2.166-4.212,12.85,12.85,0,0,1,3.377-3.131A11.053,11.053,0,0,1,11.071,8.622Z" stroke="none"/>
      <path d="M 60.16121292114258 71.60481262207031 C 61.20559310913086 71.39773559570312 62.19118118286133 70.96479797363281 63.07924652099609 70.35972595214844 C 63.96651840209961 69.75522613525391 64.75687408447266 68.97863006591797 65.41163635253906 68.08325958251953 C 66.06613159179688 67.18827819824219 66.58550262451172 66.17413330078125 66.93092346191406 65.09382629394531 C 67.27639770507812 64.01338958740234 67.44808959960938 62.86617660522461 67.40689849853516 61.70499420166016 L 65.64455413818359 12.02559566497803 C 65.60201263427734 10.82642459869385 65.3465576171875 9.716288566589355 64.92092132568359 8.735486030578613 C 64.49476623535156 7.753537178039551 63.89789581298828 6.900900840759277 63.17309188842773 6.218383312225342 C 62.44725036621094 5.534899711608887 61.59300231933594 5.021908283233643 60.65343856811523 4.720643520355225 C 59.71246337890625 4.418928146362305 58.68593597412109 4.329573631286621 57.61736297607422 4.494069576263428 L 11.22896671295166 11.63510990142822 C 10.09277629852295 11.81001472473145 9.021514892578125 12.23053741455078 8.057721138000488 12.84122085571289 C 7.092993259429932 13.45249462127686 6.236427783966064 14.25398826599121 5.530597686767578 15.1897439956665 C 4.824458599090576 16.12590789794922 4.269582271575928 17.1959285736084 3.908397436141968 18.34348106384277 C 3.547265768051147 19.4908618927002 3.379989862442017 20.71505165100098 3.448653936386108 21.95951461791992 L 6.291416168212891 73.48158264160156 C 6.357818126678467 74.68504333496094 6.649293899536133 75.78723907470703 7.118865489959717 76.74937438964844 C 7.58788013458252 77.71039581298828 8.234409332275391 78.53134918212891 9.011590003967285 79.17404174804688 C 9.787653923034668 79.8157958984375 10.69386863708496 80.27969360351562 11.6836986541748 80.52788543701172 C 12.67203426361084 80.77571868896484 13.74374198913574 80.80846405029297 14.85275554656982 80.58856964111328 L 60.16121292114258 71.60481262207031 M 60.26749420166016 74.40870666503906 L 15.00405597686768 83.467529296875 C 13.52416610717773 83.76371002197266 12.09447288513184 83.723876953125 10.77595233917236 83.39738464355469 C 9.454773902893066 83.07022094726562 8.245199203491211 82.45521545410156 7.209022998809814 81.60211181640625 C 6.170858383178711 80.74736022949219 5.306980133056641 79.65376281738281 4.679774284362793 78.37178802490234 C 4.05156946182251 77.08776092529297 3.661068677902222 75.61531829833984 3.570846319198608 74.00581359863281 L 0.6781391501426697 22.40202140808105 C 0.5848143696784973 20.73717498779297 0.8067536354064941 19.10048675537109 1.288155913352966 17.56718635559082 C 1.769653558731079 16.03357696533203 2.510323524475098 14.60464096069336 3.453745365142822 13.35523891448975 C 4.396616458892822 12.10656452178955 5.541298866271973 11.03814029693604 6.831113815307617 10.22416210174561 C 8.119260787963867 9.411235809326172 9.551294326782227 8.852646827697754 11.07059860229492 8.621701240539551 L 57.50626754760742 1.563148975372314 C 58.93438720703125 1.346062898635864 60.30457305908203 1.467396855354309 61.55923080444336 1.871823191642761 C 62.8114013671875 2.275444746017456 63.94852066040039 2.961031436920166 64.91375732421875 3.873708009719849 C 65.877197265625 4.784669399261475 66.66961669921875 5.922066211700439 67.2347412109375 7.231778144836426 C 67.79898834228516 8.539457321166992 68.13691711425781 10.01949024200439 68.19235992431641 11.61865901947021 L 69.91211700439453 61.22225189208984 C 69.96578979492188 62.77046966552734 69.73717498779297 64.29843139648438 69.27789306640625 65.73662567138672 C 68.81867980957031 67.17454528808594 68.12852478027344 68.52382659912109 67.25852966308594 69.71464538574219 C 66.38807678222656 70.90611267089844 65.33695220947266 71.93977355957031 64.15606689453125 72.74524688720703 C 62.97373962402344 73.55169677734375 61.66057205200195 74.12990570068359 60.26749420166016 74.40870666503906 Z" stroke="none" fill="#d9f3f3"/>
    </g>
  </g>
</svg>
