<svg id="Frame_62" data-name="Frame 62" xmlns="http://www.w3.org/2000/svg" width="120.261" height="128.05" viewBox="0 0 120.261 128.05">
  <g id="Frame_62-2" data-name="Frame 62" fill="#fafafa" stroke-linecap="round">
    <path d="M20.674,1.8l87.5,13.866a12.452,12.452,0,0,1,4.577,1.694,12.868,12.868,0,0,1,5.633,7.454,12.265,12.265,0,0,1,.363,4.841l-10.923,87.129A10.549,10.549,0,0,1,106.358,121a10.348,10.348,0,0,1-2.938,3.1,10.824,10.824,0,0,1-3.982,1.695,11.732,11.732,0,0,1-4.605.01L10.9,109.561a11.92,11.92,0,0,1-4.176-1.684,12.823,12.823,0,0,1-5.289-6.954,11.667,11.667,0,0,1-.485-4.445L8.3,11.73A11.539,11.539,0,0,1,9.586,7.318a10.727,10.727,0,0,1,2.749-3.344,10.422,10.422,0,0,1,3.828-1.95A10.782,10.782,0,0,1,20.674,1.8Z" stroke="none"/>
    <path d="M 95.17147064208984 123.0081329345703 C 96.36609649658203 123.2383193969727 97.53465270996094 123.2220077514648 98.62484741210938 122.9953231811523 C 99.71607971191406 122.7684097290039 100.7289886474609 122.3307113647461 101.6108551025391 121.7183837890625 C 102.4936370849609 121.1054153442383 103.2451705932617 120.3174667358398 103.8124084472656 119.3909301757812 C 104.3802185058594 118.4634780883789 104.7633514404297 117.3972702026367 104.908576965332 116.22900390625 L 115.7310791015625 29.16473960876465 C 115.8855514526367 27.92202758789062 115.7792739868164 26.69527244567871 115.4548721313477 25.54153060913086 C 115.1303100585938 24.38726043701172 114.5875396728516 23.30653381347656 113.869499206543 22.35640716552734 C 113.1514129638672 21.4062328338623 112.2583160400391 20.58705902099609 111.2333831787109 19.95580291748047 C 110.2088241577148 19.32477378845215 109.0529479980469 18.88179016113281 107.8090133666992 18.68347549438477 L 20.40639305114746 4.749247550964355 C 19.23018455505371 4.561729431152344 18.08735656738281 4.630820274353027 17.02837371826172 4.915801525115967 C 15.97040557861328 5.200509071350098 14.99627304077148 5.700654029846191 14.1560640335083 6.375590324401855 C 13.31672859191895 7.049826622009277 12.61105251312256 7.898480892181396 12.0888147354126 8.881149291992188 C 11.56709384918213 9.862837791442871 11.22838973999023 10.97837924957275 11.12228870391846 12.18770885467529 L 3.681522607803345 96.9970703125 C 3.581580877304077 98.13620758056641 3.715990543365479 99.26517486572266 4.044244766235352 100.331298828125 C 4.372356414794922 101.3969421386719 4.894270896911621 102.4002151489258 5.569754600524902 103.2883758544922 C 6.245203495025635 104.1764907836914 7.074464797973633 104.9498519897461 8.017491340637207 105.5556640625 C 8.960836410522461 106.1616592407227 10.01838970184326 106.6002426147461 11.1502103805542 106.8183288574219 L 95.17147064208984 123.0081329345703 M 94.83223724365234 125.8085708618164 L 10.90149402618408 109.5609664916992 C 9.391754150390625 109.2687072753906 7.98231029510498 108.6840591430664 6.725773334503174 107.8771362304688 C 5.469797611236572 107.0705871582031 4.365943431854248 106.0415573120117 3.467007875442505 104.859748840332 C 2.568012475967407 103.6778564453125 1.873504161834717 102.3425369262695 1.436615705490112 100.9233016967773 C 0.9994766116142273 99.50327301025391 0.8200347423553467 97.99847412109375 0.9519042372703552 96.47847747802734 L 8.30430793762207 11.73037719726562 C 8.444334030151367 10.11633968353271 8.893405914306641 8.627926826477051 9.586212158203125 7.318159580230713 C 10.27993869781494 6.006652355194092 11.21814727783203 4.87408447265625 12.33520221710205 3.974083423614502 C 13.45380687713623 3.072834968566895 14.75172805786133 2.404819965362549 16.16277694702148 2.024091482162476 C 17.57563400268555 1.642875790596008 19.10163688659668 1.549753904342651 20.67394256591797 1.798912882804871 L 108.1746597290039 15.66491317749023 C 109.838020324707 15.92850112915039 111.3828659057617 16.51832389831543 112.7516403198242 17.35938262939453 C 114.1210632324219 18.20084762573242 115.3135070800781 19.29332542419434 116.2716369628906 20.56130218505859 C 117.2296905517578 21.82918739318848 117.9529418945312 23.27185821533203 118.3844757080078 24.81354904174805 C 118.8157501220703 26.35429191589355 118.9554214477539 27.99310493469238 118.7471771240234 29.65422439575195 L 107.8242416381836 116.7829284667969 C 107.6285247802734 118.3439865112305 107.116081237793 119.7672882080078 106.3575897216797 121.0042037963867 C 105.6000823974609 122.2394561767578 104.5973205566406 123.288703918457 103.4196166992188 124.1039276123047 C 102.243537902832 124.9180221557617 100.8929595947266 125.4987487792969 99.43767547607422 125.7985229492188 C 97.98423004150391 126.0979232788086 96.42605590820312 126.1171188354492 94.83223724365234 125.8085708618164 Z" stroke="none" fill="#d9f3f3"/>
  </g>
</svg>
