<svg xmlns="http://www.w3.org/2000/svg" width="69.612" height="107.094" viewBox="0 0 69.612 107.094">
  <g id="Group_5239" data-name="Group 5239" transform="translate(-154.694 -652.312)">
    <path id="Path_1333" data-name="Path 1333" d="M1110.414,3502.947v-49.635" transform="translate(-915 -2801)" fill="none" stroke="#daf3f4" stroke-width="3"/>
    <g id="_x31_12_x2C__Controller_x2C__Device_x2C__Game" transform="translate(114.721 641.281)" opacity="0.38">
      <g id="Group_3600" data-name="Group 3600" transform="translate(39.973 52.597)">
        <path id="Path_1087" data-name="Path 1087" d="M124.845,335a2.345,2.345,0,1,0,2.345,2.345A2.348,2.348,0,0,0,124.845,335Zm0,3.127a.782.782,0,1,1,.782-.782A.783.783,0,0,1,124.845,338.129Z" transform="translate(-109.563 -290.972)" fill="#9ee0e2"/>
        <path id="Path_1088" data-name="Path 1088" d="M159.845,335a2.345,2.345,0,1,0,2.345,2.345A2.348,2.348,0,0,0,159.845,335Zm0,3.127a.782.782,0,1,1,.782-.782A.783.783,0,0,1,159.845,338.129Z" transform="translate(-139.091 -290.972)" fill="#9ee0e2"/>
        <path id="Path_1089" data-name="Path 1089" d="M124.845,370a2.345,2.345,0,1,0,2.345,2.345A2.348,2.348,0,0,0,124.845,370Zm0,3.127a.782.782,0,1,1,.782-.782A.783.783,0,0,1,124.845,373.129Z" transform="translate(-109.563 -320.5)" fill="#9ee0e2"/>
        <path id="Path_1090" data-name="Path 1090" d="M159.845,370a2.345,2.345,0,1,0,2.345,2.345A2.348,2.348,0,0,0,159.845,370Zm0,3.127a.782.782,0,1,1,.782-.782A.783.783,0,0,1,159.845,373.129Z" transform="translate(-139.091 -320.5)" fill="#9ee0e2"/>
        <path id="Path_1091" data-name="Path 1091" d="M355.162,335.629h-2.345v-2.345a.782.782,0,0,0-.782-.782h-3.127a.782.782,0,0,0-.782.782v2.345h-2.345a.782.782,0,0,0-.782.782v3.127a.782.782,0,0,0,.782.782h2.345v2.345a.782.782,0,0,0,.782.782h3.127a.782.782,0,0,0,.782-.782v-2.345h2.345a.782.782,0,0,0,.782-.782v-3.127A.782.782,0,0,0,355.162,335.629Zm-.782,3.127h-2.345a.782.782,0,0,0-.782.782v2.345H349.69v-2.345a.782.782,0,0,0-.782-.782h-2.345v-1.563h2.345a.782.782,0,0,0,.782-.782v-2.345h1.563v2.345a.782.782,0,0,0,.782.782h2.345Z" transform="translate(-297.277 -288.863)" fill="#9ee0e2"/>
        <path id="Path_1092" data-name="Path 1092" d="M101.594,106.425H89.086V103.3a.782.782,0,0,0-.782-.782H86.741v-.391A2.74,2.74,0,0,0,84.787,99.5V96.262h17.98a4.3,4.3,0,1,0,0-8.6H69.152a2.736,2.736,0,1,1,0-5.472H88.3a.782.782,0,0,0,.782-.782V78.283a.782.782,0,0,0-1.563,0v2.345H69.152a4.3,4.3,0,0,0,0,8.6h33.614a2.736,2.736,0,1,1,0,5.472H84a.782.782,0,0,0-.782.782V99.5a2.74,2.74,0,0,0-1.954,2.621v.391H79.705a.782.782,0,0,0-.782.782v3.127c-14.1.011-13.3-.027-13.505.03a16.416,16.416,0,1,0,17.116,13.259h2.941a16.418,16.418,0,1,0,16.118-13.289Zm-18.761-4.3a1.173,1.173,0,0,1,2.345,0v.391H82.832Zm-2.345,1.954h7.036v2.345H80.487Zm21.107,33.614a14.872,14.872,0,0,1-14.385-18.567.782.782,0,0,0-.757-.977H81.558a.782.782,0,0,0-.757.977,14.855,14.855,0,1,1-15.128-11.12c.519-.026-3.789-.019,35.921-.019a14.853,14.853,0,1,1,0,29.705Z" transform="translate(-48.398 -73.73)" fill="#9ee0e2"/>
        <path id="Path_1093" data-name="Path 1093" d="M100.162,302.5a10.162,10.162,0,1,0,10.162,10.162A10.174,10.174,0,0,0,100.162,302.5Zm0,18.761a8.6,8.6,0,1,1,8.6-8.6A8.609,8.609,0,0,1,100.162,321.263Z" transform="translate(-82.144 -263.553)" fill="#9ee0e2"/>
        <path id="Path_1094" data-name="Path 1094" d="M325.162,302.5a10.162,10.162,0,1,0,10.162,10.162A10.174,10.174,0,0,0,325.162,302.5Zm0,18.761a8.6,8.6,0,1,1,8.6-8.6A8.609,8.609,0,0,1,325.162,321.263Z" transform="translate(-271.967 -263.553)" fill="#9ee0e2"/>
        <path id="Path_1095" data-name="Path 1095" d="M240.944,317.5H230.782a.782.782,0,0,0,0,1.563h10.162a.782.782,0,0,0,0-1.563Z" transform="translate(-200.256 -276.208)" fill="#9ee0e2"/>
        <path id="Path_1096" data-name="Path 1096" d="M231.416,303.284a.782.782,0,0,0-.782-.782H215.782a.782.782,0,0,0,0,1.563h14.853A.782.782,0,0,0,231.416,303.284Z" transform="translate(-187.601 -263.553)" fill="#9ee0e2"/>
        <path id="Path_1097" data-name="Path 1097" d="M200.782,289.065h19.543a.782.782,0,0,0,0-1.563H200.782a.782.782,0,0,0,0,1.563Z" transform="translate(-174.947 -250.898)" fill="#9ee0e2"/>
        <path id="Path_1098" data-name="Path 1098" d="M84.69,176.882a4.69,4.69,0,1,0-4.69-4.69A4.7,4.7,0,0,0,84.69,176.882Zm0-7.817a3.127,3.127,0,1,1-3.127,3.127A3.13,3.13,0,0,1,84.69,169.064Z" transform="translate(-73.708 -149.659)" fill="#9ee0e2"/>
        <path id="Path_1099" data-name="Path 1099" d="M428.909,180.318A3.909,3.909,0,1,0,425,176.41,3.913,3.913,0,0,0,428.909,180.318Zm0-6.254a2.345,2.345,0,1,1-2.345,2.345A2.348,2.348,0,0,1,428.909,174.064Z" transform="translate(-364.769 -153.877)" fill="#9ee0e2"/>
        <ellipse id="Ellipse_7" data-name="Ellipse 7" cx="1.421" cy="0.711" rx="1.421" ry="0.711" transform="translate(0 11.372)" fill="#9ee0e2"/>
        <circle id="Ellipse_8" data-name="Ellipse 8" cx="1.421" cy="1.421" r="1.421" transform="translate(9.95 0)" fill="#9ee0e2"/>
        <ellipse id="Ellipse_9" data-name="Ellipse 9" cx="0.711" cy="1.421" rx="0.711" ry="1.421" transform="translate(49.751 1.421)" fill="#9ee0e2"/>
        <ellipse id="Ellipse_10" data-name="Ellipse 10" cx="0.711" cy="1.421" rx="0.711" ry="1.421" transform="translate(66.809 11.372)" fill="#9ee0e2"/>
        <ellipse id="Ellipse_11" data-name="Ellipse 11" cx="1.421" cy="0.711" rx="1.421" ry="0.711" transform="translate(52.594 27.008)" fill="#9ee0e2"/>
        <ellipse id="Ellipse_12" data-name="Ellipse 12" cx="0.711" cy="1.421" rx="0.711" ry="1.421" transform="translate(24.165 22.743)" fill="#9ee0e2"/>
        <ellipse id="Ellipse_13" data-name="Ellipse 13" cx="0.711" cy="1.421" rx="0.711" ry="1.421" transform="translate(2.843 31.272)" fill="#9ee0e2"/>
      </g>
    </g>
  </g>
</svg>
