<svg xmlns="http://www.w3.org/2000/svg" width="122.74" height="128.203" viewBox="0 0 122.74 128.203">
  <g id="Frame_61" data-name="Frame 61" opacity="0.51">
    <g id="Frame_61-2" data-name="Frame 61" fill="#fafafa">
      <path d="M10.6,18.7,91.343,2.339a11.122,11.122,0,0,1,4.645.041,11.392,11.392,0,0,1,4.128,1.848,11.96,11.96,0,0,1,3.161,3.348,12.516,12.516,0,0,1,1.743,4.531L120.605,100.5a12.516,12.516,0,0,1-.088,4.854,11.96,11.96,0,0,1-1.825,4.227,11.392,11.392,0,0,1-3.246,3.149,11.122,11.122,0,0,1-4.351,1.627L29.624,126.6a10.25,10.25,0,0,1-4.336-.282,11.2,11.2,0,0,1-3.834-1.965,12.225,12.225,0,0,1-2.931-3.323,12.736,12.736,0,0,1-1.628-4.364L2.035,32.389a12.736,12.736,0,0,1,.037-4.658A12.225,12.225,0,0,1,3.69,23.606a11.2,11.2,0,0,1,2.931-3.158A10.25,10.25,0,0,1,10.6,18.7Z" stroke="none"/>
      <path d="M 110.5634460449219 111.3430023193359 C 111.7615127563477 111.1613082885742 112.860237121582 110.734375 113.8209381103516 110.117919921875 C 114.7825469970703 109.5008697509766 115.6056900024414 108.6940383911133 116.2515029907227 107.7534484863281 C 116.8977813720703 106.8121871948242 117.366340637207 105.7372360229492 117.6182708740234 104.5849380493164 C 117.8703155517578 103.4322128295898 117.9054870605469 102.2024993896484 117.6850662231445 100.9524688720703 L 102.1198272705078 12.67759990692139 C 101.8994140625 11.42757320404053 101.4457778930664 10.2840461730957 100.8146743774414 9.28702449798584 C 100.1838302612305 8.290403366088867 99.37586975097656 7.440526008605957 98.44663238525391 6.777071475982666 C 97.51806640625 6.114089012145996 96.46862030029297 5.637445449829102 95.35395812988281 5.386499404907227 C 94.2403564453125 5.135788440704346 93.06187438964844 5.110394477844238 91.87390899658203 5.349416732788086 L 11.11053085327148 21.59935569763184 C 10.00949573516846 21.82089233398438 9.003814697265625 22.27557182312012 8.128046989440918 22.90749549865723 C 7.253071784973145 23.53885269165039 6.507620334625244 24.34724807739258 5.926125526428223 25.27710342407227 C 5.345027446746826 26.20632743835449 4.927511692047119 27.25708770751953 4.707998275756836 28.3741283416748 C 4.488568782806396 29.49073600769043 4.466915130615234 30.6739559173584 4.677596092224121 31.86878776550293 L 19.5555477142334 116.2458343505859 C 19.76622772216797 117.440673828125 20.19125938415527 118.5451278686523 20.77936172485352 119.5193557739258 C 21.36768531799316 120.4939422607422 22.1194019317627 121.3385391235352 22.98326873779297 122.0129699707031 C 23.84772682189941 122.687873840332 24.82470893859863 123.1925582885742 25.86285209655762 123.486572265625 C 26.90193939208984 123.780876159668 28.00247764587402 123.8641662597656 29.11288070678711 123.6957550048828 L 110.5634460449219 111.3430023193359 M 111.0943298339844 114.3538131713867 L 29.62424659729004 126.5958557128906 C 28.14124298095703 126.818717956543 26.67319297790527 126.7065505981445 25.28826522827148 126.3134689331055 C 23.90499877929688 125.9208602905273 22.60432624816895 125.2479019165039 21.45401000976562 124.3482284545898 C 20.30473709106445 123.4493560791016 19.30514526367188 122.3238830566406 18.52279281616211 121.0248641967773 C 17.74083518981934 119.7265014648438 17.17554664611816 118.2542190551758 16.89454078674316 116.6605606079102 L 2.035223722457886 32.38920211791992 C 1.754218697547913 30.79554176330566 1.781866312026978 29.21869468688965 2.072601318359375 27.73119735717773 C 2.363483667373657 26.24294471740723 2.917853116989136 24.84345626831055 3.690388441085815 23.60572624206543 C 4.463625431060791 22.36687469482422 5.45569372177124 21.28964805603027 6.621256351470947 20.44761085510254 C 7.788219928741455 19.60456085205078 9.129377365112305 18.99706077575684 10.59916305541992 18.69924926757812 L 91.34302520751953 2.338607549667358 C 92.92941284179688 2.017167806625366 94.50234985351562 2.04798412322998 95.98841857910156 2.379573106765747 C 97.47633361816406 2.711575984954834 98.87681579589844 3.345028162002563 100.1159515380859 4.227970600128174 C 101.3562622070312 5.111753463745117 102.4345016479492 6.245181560516357 103.2765274047852 7.575735569000244 C 104.1190185546875 8.906997680664062 104.7246551513672 10.43496608734131 105.0193939208984 12.10653018951416 L 120.6050872802734 100.4973754882812 C 120.8998336791992 102.1689376831055 120.8533096313477 103.8118896484375 120.516960144043 105.3510208129883 C 120.1807861328125 106.8893356323242 119.5552291870117 108.3231887817383 118.6919784545898 109.5778884887695 C 117.8295593261719 110.8313903808594 116.7301940917969 111.9056243896484 115.4455642700195 112.7265167236328 C 114.1625213623047 113.5463790893555 112.6949844360352 114.1132965087891 111.0943298339844 114.3538131713867 Z" stroke="none" fill="#d9f3f3"/>
    </g>
  </g>
</svg>
