<svg xmlns="http://www.w3.org/2000/svg" width="127.984" height="132.56" viewBox="0 0 127.984 132.56">
  <g id="Frame_61" data-name="Frame 61" opacity="0.51">
    <g id="Frame_61-2" data-name="Frame 61" fill="#fafafa">
      <path d="M11.75,14.722,97.563,1.652a10.5,10.5,0,0,1,4.4.266,11.331,11.331,0,0,1,3.884,1.955,12.192,12.192,0,0,1,2.966,3.32,12.6,12.6,0,0,1,1.642,4.368l15.495,87.876a12.6,12.6,0,0,1-.049,4.666,12.192,12.192,0,0,1-1.652,4.134,11.331,11.331,0,0,1-2.981,3.165,10.5,10.5,0,0,1-4.039,1.753L32.116,130.223a11.345,11.345,0,0,1-4.69-.04,11.529,11.529,0,0,1-4.162-1.845A11.956,11.956,0,0,1,20.081,125a12.393,12.393,0,0,1-1.75-4.523L2.131,28.6a12.393,12.393,0,0,1,.1-4.849,11.956,11.956,0,0,1,1.848-4.229,11.529,11.529,0,0,1,3.28-3.157A11.346,11.346,0,0,1,11.75,14.722Z" stroke="none"/>
      <path d="M 116.7121505737305 110.2513046264648 C 117.8293685913086 110.0286636352539 118.8504943847656 109.5726089477539 119.740348815918 108.9391403198242 C 120.6294708251953 108.3061752319336 121.3876647949219 107.4959716796875 121.9798431396484 106.5642166137695 C 122.571662902832 105.6330413818359 122.9978103637695 104.5802230834961 123.2231903076172 103.4611740112305 C 123.4485092163086 102.342529296875 123.4732818603516 101.1573333740234 123.2622909545898 99.96076965332031 L 107.7498321533203 11.98523998260498 C 107.5388412475586 10.78867340087891 107.1102066040039 9.683431625366211 106.5158843994141 8.709297180175781 C 105.9213485717773 7.734827041625977 105.1608200073242 6.891258716583252 104.2862167358398 6.218643665313721 C 103.4110641479492 5.545614242553711 102.4214859008789 5.043595314025879 101.369499206543 4.752907752990723 C 100.316650390625 4.461982727050781 99.20111846923828 4.382687091827393 98.07514190673828 4.555578231811523 L 12.27978897094727 17.72921752929688 C 11.07043361663818 17.9149112701416 9.960992813110352 18.34531784057617 8.990580558776855 18.96462821960449 C 8.019346237182617 19.58446502685547 7.187537670135498 20.39341926574707 6.534412384033203 21.33537864685059 C 5.880867004394531 22.2779426574707 5.406393527984619 23.35344696044922 5.150264263153076 24.50546646118164 C 4.894042491912842 25.65789604187012 4.856405258178711 26.88652801513672 5.076484680175781 28.1346607208252 L 21.25747489929199 119.9016189575195 C 21.47755432128906 121.1497497558594 21.93313980102539 122.2914199829102 22.56806755065918 123.2867279052734 C 23.2027645111084 124.2816696166992 24.0164680480957 125.1300354003906 24.95297431945801 125.7922210693359 C 25.88887786865234 126.4539794921875 26.94720077514648 126.9296646118164 28.07185935974121 127.179931640625 C 29.19556427001953 127.4300003051758 30.38530921936035 127.4549942016602 31.58524131774902 127.2158584594727 L 116.7121505737305 110.2513046264648 M 117.2240829467773 113.1545791625977 L 32.11552429199219 130.2232666015625 C 30.51313591003418 130.5446472167969 28.92522048950195 130.5141296386719 27.42576599121094 130.1832275390625 C 25.92461776733398 129.8519592285156 24.51246643066406 129.2196960449219 23.26371955871582 128.3383331298828 C 22.01390075683594 127.4561920166016 20.92817497253418 126.3248291015625 20.08116149902344 124.9966201782227 C 19.23374176025391 123.6677627563477 18.6256275177002 122.1424713134766 18.33136940002441 120.4736480712891 L 2.131199359893799 28.59792518615723 C 1.836941599845886 26.92910766601562 1.886698007583618 25.28780746459961 2.228520393371582 23.749267578125 C 2.570178985595703 22.21146583557129 3.203476905822754 20.77698135375977 4.076216697692871 19.52058792114258 C 4.948208332061768 18.26526832580566 6.058947563171387 17.18814468383789 7.356265068054199 16.36342811584473 C 8.652117729187012 15.53964424133301 10.1338357925415 14.96788120269775 11.74950218200684 14.7218132019043 L 97.56321716308594 1.652302742004395 C 99.06700897216797 1.423273682594299 100.5550918579102 1.529913902282715 101.9584350585938 1.918368816375732 C 103.3602676391602 2.306400299072266 104.6778564453125 2.975719451904297 105.8425521850586 3.87287974357605 C 107.0062942504883 4.769302368164062 108.0177612304688 5.893474578857422 108.8084945678711 7.192427635192871 C 109.5988693237305 8.490782737731934 110.1690444946289 9.964288711547852 110.4505004882812 11.56045341491699 L 125.9453659057617 99.43625640869141 C 126.2268218994141 101.0324172973633 126.1949920654297 102.6120681762695 125.896354675293 104.1024627685547 C 125.5975723266602 105.5935134887695 125.0315933227539 106.9958419799805 124.24462890625 108.2362213134766 C 123.4570236206055 109.4776229858398 122.4478073120117 110.5572052001953 121.2632369995117 111.4012908935547 C 120.0773773193359 112.2462921142578 118.7155151367188 112.85546875 117.2240829467773 113.1545791625977 Z" stroke="none" fill="#d9f3f3"/>
    </g>
  </g>
</svg>
