<svg xmlns="http://www.w3.org/2000/svg" width="418.482" height="656.222" viewBox="0 0 418.482 656.222">
  <g id="Group_5234" data-name="Group 5234" transform="translate(17.768 -108.877)">
    <g id="Group_17" data-name="Group 17" transform="translate(276.002 153.023)" opacity="0.31">
      <g id="Group_8" data-name="Group 8">
        <path id="Path_18" data-name="Path 18" d="M384.116,258.269a20.115,20.115,0,0,0-5.359.87,8.143,8.143,0,0,0-2.891-6.492,11.522,11.522,0,0,0-7.766-2.5c-1.589.063-3,.61-5.824,1.665a53.524,53.524,0,0,0-5.072,2.2,30.335,30.335,0,0,0-5.264-5.132,17.6,17.6,0,0,0-5.681-3.313,13.131,13.131,0,0,0-9.707.625,10.481,10.481,0,0,0-3.4,3.123,12.482,12.482,0,0,0-.916,1.573,6.038,6.038,0,0,1-.541,1.074c-.317.049-.855-2.168-1.022-2.829a37.76,37.76,0,0,0-2.34-6.472,16.686,16.686,0,0,0-4.393-5.454c-7.175-6.308-18.117-4.5-18.892-4.359-3.443.635-11.889,2.195-15.24,9.561-2.445,5.376-.765,10.741-.156,12.436l-1.408.164-1.408.164c-1.789.035-2.123-.271-3.922-.326a7.91,7.91,0,0,0-4.286.688,4.429,4.429,0,0,0-2.22,2.517c-.35,1.463.741,2.355.121,3-.485.5-1.295.1-2.651.414a5.477,5.477,0,0,0-3.373,2.377c-.838,1.4-.607,2.876-.289,4.913a11.04,11.04,0,0,0,4.87,7.9c3.61,2.616,9.607,4.192,14.607,2.106,2.092-.873,1.4-1.3,6.418-4.27,0,0,4.524-2.615,7.8-2.285,1.959.2,1.772,1.13,3.668,1.272,3.522.264,5.133-2.713,7.62-2.085,1.6.405,1.146,1.718,3.284,2.853,2.366,1.256,5.18.845,7.053.571a15.487,15.487,0,0,0,4.827-1.506c2.058-1.076,2.224-1.858,3.4-2.332,2.763-1.115,6.21,1.88,8.676,2.533,11.8,3.121,28.511,1.736,33.327-3,.58-.571.725-1.176,1.576-1.706,3.744-2.333,9.08,2.063,13.059.007a5.75,5.75,0,0,0,2.879-4.976,5.009,5.009,0,0,0-1.633-3.9C389.579,258.13,386.487,258.209,384.116,258.269Z" transform="translate(-268.682 -228.421)" fill="#f2f7f8"/>
        <path id="Path_19" data-name="Path 19" d="M311.319,272.486c-6.7,2.4-13.131,5.423-22.989,5.364-11.351-.068-15.757-4.205-17.23-5.842-.906-1.006-3.567-3.963-3.179-7.811.075-.744.571-4.561,3.633-5.812a5.9,5.9,0,0,1,4.127.011A6.343,6.343,0,0,1,276,253.48c1.481-2.657,4.952-3.38,7.448-2.724a6.815,6.815,0,0,1,2.9,1.633,15.092,15.092,0,0,1-1.611-4.188,15.862,15.862,0,0,1,.58-8.571c1.95-5.827,6.713-8.9,8.483-10.036,10.148-6.538,21.586-2.688,22.252-2.452,2.386.846,9.875,3.5,13.17,11.08a18.924,18.924,0,0,1,1.414,9.27,9.092,9.092,0,0,1,1.908-4.034c2.3-2.738,5.6-3.143,7.123-3.329a15.611,15.611,0,0,1,9.536,2.18,19.708,19.708,0,0,1,7.853,8.034,13.294,13.294,0,0,1,10.265-4.08c3.594.284,7.876,2.249,9.75,6.171a9.973,9.973,0,0,1,.948,4.008,9.1,9.1,0,0,1,5.62-2.547,8.651,8.651,0,0,1,8.077,4.337,6.017,6.017,0,0,1,.752,2.984c-.078,2.937-2.528,5.275-4.7,6.176-3.178,1.32-6.556-.114-7.434-.459C370.2,262.955,336.373,263.53,311.319,272.486Zm49.587-.206s9.728-.221,14-4.425a4.657,4.657,0,0,0,.526-.647,3.472,3.472,0,0,1,1.06-1.066c1.93-1.2,4.314-.632,6.619-.08,2.219.532,4.515,1.082,6.445.085a5.679,5.679,0,0,0,2.848-4.929,5.964,5.964,0,0,0-.954-2.12c-2.376-3.309-7.385-2.833-7.9-2.777a10.518,10.518,0,0,0-5.858,2.718,12.313,12.313,0,0,0-3.307-5.658,10.69,10.69,0,0,0-6.043-3.168c-3.661-.46-6.655,1.395-9.667,3.287a25.278,25.278,0,0,0-2.407,1.715,13.752,13.752,0,0,0-5.791-8.554c-5.884-3.647-13.936.8-16.937,2.392a27.908,27.908,0,0,0-4.022,2.6,12.734,12.734,0,0,0-3.48-9.1c-.871-.88-2.966-2.994-5.889-3.212-6.07-.453-7.695,7.869-15.257,8.833-4.124.526-6.041-1.645-9.368,0a10.247,10.247,0,0,0-4.666,5.7,9.932,9.932,0,0,0-7.366.156,5.929,5.929,0,0,0-3.29,3.027,5.194,5.194,0,0,0-.223,2.993,9.919,9.919,0,0,0-5.3,5.429,8.553,8.553,0,0,0-.263,5.659c1.668,4.512,8.539,5.636,10.517,5.959,9.22,1.508,12.992-3.1,32.778-5.521,0,0,.443-.068,1.038-.123C321.424,271.2,326.172,271.392,360.906,272.279Z" transform="translate(-267.883 -225.802)" fill="#fff"/>
        <path id="Path_20" data-name="Path 20" d="M389.963,282.787a11.015,11.015,0,0,1-7-2.006,13.2,13.2,0,0,1-2.185-2.182c-1.52-1.823-1.451-2.52-2.547-3.786a9.454,9.454,0,0,0-4.371-2.769,10.089,10.089,0,0,0-5.7.112,13.431,13.431,0,0,0-6.359,3.856,22.274,22.274,0,0,0-25.518-3.08,7.7,7.7,0,0,0-4.572-2.091c-2.965-.166-4.935,2.077-7.174,3.563-2.444,1.624-6.505,3.244-13.385,2.564a15.1,15.1,0,0,1-22.539,1.944,10.17,10.17,0,0,0-3.6,1.353,6.939,6.939,0,0,0-2.877,2.759c-1.232,2.645.448,5.571.864,6.295,2.626,4.577,8.767,5.587,10.726,5.909,8.787,1.446,16.883-2.145,24.368-2.452a26.054,26.054,0,0,1,4.751.153c1.974.256,2.675.6,4.651.864a32.085,32.085,0,0,0,4.871.188c5.34-.178,14.921-2.882,16.072-3.2,14.739-4.047,31.014,3.478,34.153-1.1a4.98,4.98,0,0,1,1.576-1.705c2-1.264,3.452-.379,6.467-1.03a10.04,10.04,0,0,0,5.727-3.3,7.5,7.5,0,0,0,1.549-3.555,7.41,7.41,0,0,0-.082-2.607,6.867,6.867,0,0,1-1.351,2.665C394.478,282.559,391.357,282.716,389.963,282.787Z" transform="translate(-273.283 -243.181)" fill="#ceeaf0"/>
      </g>
      <g id="Group_9" data-name="Group 9" transform="translate(39.804 28.906)">
        <path id="Path_21" data-name="Path 21" d="M418.242,300.605c.365.256.9-.377,1.941-.61a8.184,8.184,0,0,1,2.832-.048,7.006,7.006,0,0,1,2.534.735c1.316.765,1.629,2.056.892,3-1,1.286-3.684,1.8-5.573,1.839-3.43.071-4.093-1.428-7.58-1.472-2.848-.035-2.977.877-7.023,1.288-1.294.131-6.144.623-9.067-.959-.475-.258-2.284-1.319-1.736-2.389.378-.738,1.788-1.3,3.069-1.425,1.091-.107,1.915.27,2.082-.048.127-.242-.3-.513-.552-1.231a3.445,3.445,0,0,1,.044-2.15,4.111,4.111,0,0,1,1.523-2.085,5.322,5.322,0,0,1,5.32-.307,7.034,7.034,0,0,1,2.606,2.348c.471.768.551,1.313,1.086,1.5.661.23.873-.483,2.367-.742a6.687,6.687,0,0,1,2.682.132l.091.025a3.509,3.509,0,0,1,2.19,1.57C418.22,300.146,417.991,300.429,418.242,300.605Z" transform="translate(-357.52 -281.438)" fill="#ceeaf0"/>
        <path id="Path_22" data-name="Path 22" d="M355.09,294.419c-.538-.153-1.318-.392-2.282-.736-.476-.17-.852-.316-1.174-.442a8.189,8.189,0,0,0-4.979-.53c-.606.094-1.36.212-2.428.283-4.35.289-8.8.588-10.378-1.674a4.7,4.7,0,0,1,.068-4.745c1.322-2.3,4.677-3.383,8.05-2.154a8.654,8.654,0,0,1,1.591-3.458c2.181-2.815,6.348-4.38,9.747-3.118a7.286,7.286,0,0,1,2.608,1.7,14.217,14.217,0,0,1,6.116-5.211c4.387-1.9,8.433-.824,10.664-.231a20.612,20.612,0,0,1,9.184,5.329,7.426,7.426,0,0,1,6.689-1.587,7.03,7.03,0,0,1,4.884,5.185,12.1,12.1,0,0,1,4.641-.876,9.869,9.869,0,0,1,6.009,1.814c.989.746,2.424,1.828,2.48,3.369.085,2.349-3.073,4.256-4.827,4.8a17.861,17.861,0,0,1-4.5.669,11.886,11.886,0,0,1-2.336-.163,7.65,7.65,0,0,0-2.013-.1,9.132,9.132,0,0,0-2.4.5,9,9,0,0,1-2.765.513,14.947,14.947,0,0,1-2.926-.207,13.282,13.282,0,0,1-3.061-.786,4.98,4.98,0,0,0-4.2.1,5.379,5.379,0,0,1-2.555.547,5.873,5.873,0,0,1-1.634-.268,8.128,8.128,0,0,0-2.04-.34,13.585,13.585,0,0,0-3.3.257,8.863,8.863,0,0,0-2.462.807,14.679,14.679,0,0,1-2.618.967c-.608.166-1.161.317-1.744.427a11.841,11.841,0,0,1-1.911.18A14.115,14.115,0,0,1,355.09,294.419Z" transform="translate(-333.234 -273.259)" fill="#fff"/>
        <path id="Path_23" data-name="Path 23" d="M386.15,283.816a21.371,21.371,0,0,0-4.081-2.834,18.9,18.9,0,0,0-6.917-2.272c-5.981-.488-10.654,3.968-11.629,4.937-3.028-2.311-6.622-2.414-8.439-.738-.931.858-2.084,2.818-1.509,4.148.319.736,1.345,1.694,1.031,2.2a7.822,7.822,0,0,0-4.4-1.473c-.412,0-3.931-.014-4.722,2.047a3.222,3.222,0,0,0,.64,3.056c1.885,2.247,6.568,1.312,6.84,1.254a20.821,20.821,0,0,1,3.63-.4,8.524,8.524,0,0,1,1.023.065c1.534.2,1.7.615,4.931,1.565a10.237,10.237,0,0,0,3.572.7c1.187-.078,1.847-.473,2.671-.258.613.16.55.457,1.254.848a6.383,6.383,0,0,0,2.472.636,8.255,8.255,0,0,0,4.527-1.106c1.4-.838,1.313-1.607,2.69-1.876a5.207,5.207,0,0,1,1.668-.014c1.791.216,2.159,1,4.225,1.7a12.913,12.913,0,0,0,2.179.529c4.085.59,6.4-2.35,11.685-2.381,2.679-.015,2.8.736,5.181.517,2.807-.258,5.951-1.615,6.769-3.692.618-1.57-.184-3.313-2.24-4.435a10.58,10.58,0,0,0-5.329-1.243,23.1,23.1,0,0,0-7.13.968,7.048,7.048,0,0,0-2.77-2.9C390.356,281.35,386.367,283.685,386.15,283.816Z" transform="translate(-337.962 -275.376)" fill="#f2f7f8"/>
        <path id="Path_24" data-name="Path 24" d="M386.562,291.291c.365.256.9-.378,1.941-.61a8.176,8.176,0,0,1,2.831-.048,7,7,0,0,1,2.535.734c1.316.766,1.629,2.056.892,3-1,1.286-3.684,1.8-5.573,1.839-3.431.071-4.093-1.428-7.58-1.471-2.848-.035-2.977.876-7.023,1.287-1.294.132-6.144.624-9.067-.959-.475-.257-2.284-1.319-1.736-2.388.378-.739,1.788-1.3,3.069-1.425,1.091-.107,1.915.27,2.082-.048.127-.242-.3-.513-.552-1.231a3.443,3.443,0,0,1,.044-2.149,4.108,4.108,0,0,1,1.523-2.085,5.323,5.323,0,0,1,5.32-.308,7.034,7.034,0,0,1,2.606,2.348c.471.769.55,1.313,1.086,1.5.661.229.873-.484,2.367-.742a6.664,6.664,0,0,1,2.682.132l.091.025a3.5,3.5,0,0,1,2.189,1.569C386.54,290.831,386.311,291.115,386.562,291.291Z" transform="translate(-345.135 -277.797)" fill="#fff"/>
        <path id="Path_25" data-name="Path 25" d="M386.1,299.56a3.313,3.313,0,0,0-1.409-.261c-2.053.1-4.36.649-6,.835a9.736,9.736,0,0,1-3.708-.12A16.975,16.975,0,0,0,380,299.3c1.78-.6,2.011-1.124,3.913-1.565a7.578,7.578,0,0,1,3.443-.209c1.786.372,1.8,1.249,3.12,1.423,2.015.266,2.5-1.713,5.071-2,2.084-.23,2.472.988,4.494.651,1.874-.312,1.913-1.384,4.011-2.276,2.122-.9,5.189-1.016,7.146.442,1.688,1.258,1.105,2.607,2.614,3.675,2.894,2.048,7.757-1.219,8.039-.644.295.6-4.763,4.621-8.037,3.818a7.813,7.813,0,0,0-3.143-.711,2.69,2.69,0,0,1-2.016-.3c-.259-.21-.275-.374-.484-.464-.663-.284-1.665.855-2.284,1.388-2.553,2.2-7.832,2.087-9.626.083-.354-.4-.6-.9-1.186-1.008-.939-.175-1.331.935-2.55,1.186-1.288.265-2.564-.621-3.656-1.381C387.723,300.618,387.365,299.974,386.1,299.56Z" transform="translate(-349.556 -281.624)" fill="#ceeaf0"/>
      </g>
    </g>
    <g id="Group_18" data-name="Group 18" transform="translate(-17.768 108.877)" opacity="0.31">
      <g id="Group_3" data-name="Group 3">
        <path id="Path_7" data-name="Path 7" d="M142.9,295.678c-4.153,2.979-8.58-.214-12.534,2.725-1.632,1.212-1.818,2.464-2.811,4.057-5.117,8.207-22.573,10.871-34.813,5.714-3.472-1.463-5.337-4.522-9-4.2-3.288.29-4.3,1.715-8.929,2.765-3.642.825-6.488.549-10.437.133-6.666-.7-8.627-2.1-13.322-2.993-13.241-2.522-19.246,4.471-25.044-.028A10.788,10.788,0,0,1,22.1,294.9c.336-5.3,4.971-8.3,5.524-8.642a13.163,13.163,0,0,1,6.523-1.844c4.763-.207,6.245,2.01,8.652,1.066,2.348-.922,1.9-3.409,4.37-8.012.891-1.66,5.406-9.638,12.844-11.069,1.559-.3,3.882-.738,6.015.435,2.813,1.546,3.528,4.5,4.812,4.212.781-.173.641-1.239,1.82-1.9a4.29,4.29,0,0,1,3.922.195c2.3,1.252,2.191,3.952,3.188,4,1.25.061,1.38-4.188,4.039-7.7,3.761-4.965,10.318-5.461,10.814-5.491.425-.026,7.06-.333,11.592,4.353a17.332,17.332,0,0,1,3.681,6.213c1.292,3.824.612,6.151,1.9,6.727,1.455.651,2.752-2.171,6.95-3.444a10.279,10.279,0,0,1,6.8-.036,9.993,9.993,0,0,1,5.184,5.008c1.141,2.631.186,4.063,1.339,4.876,1.54,1.086,3.528-1.32,7.341-.664a7.952,7.952,0,0,1,3.741,1.606c.266.214,3.085,2.559,2.8,5.909A7.318,7.318,0,0,1,142.9,295.678Z" transform="translate(-22.023 -260.08)" fill="#f2f7f8"/>
        <path id="Path_8" data-name="Path 8" d="M106.583,310.845a36.274,36.274,0,0,1-13.9-2.648,17.452,17.452,0,0,1-3.383-2.037c-1.7-1.213-3.3-2.358-5.582-2.157a12.421,12.421,0,0,0-4.122,1.169,25.77,25.77,0,0,1-4.8,1.594c-3.727.845-6.7.532-10.459.135a39.966,39.966,0,0,1-8.448-1.759,39.808,39.808,0,0,0-4.879-1.235,32.732,32.732,0,0,0-14,.618c-3.938.862-5.352.881-7.387.464a9.451,9.451,0,0,1-3.456-1.272c-2.916-1.886-4.3-5.636-4.174-8.853a11.763,11.763,0,0,1,5.2-8.929,14.98,14.98,0,0,1,10.175-2.977,13.218,13.218,0,0,1,3.491.885c-.265-1.4-1.422-8.3,3-14.154,4.5-5.958,13.259-8.826,20.037-5.629a15.374,15.374,0,0,1,6.884,6.886,4.217,4.217,0,0,1,2.13-2.546,4.267,4.267,0,0,1,3.788.146,4.5,4.5,0,0,1,2.142,3.537c2.791-7.048,8.992-11.807,15.734-12.033a17.034,17.034,0,0,1,11.6,4.42,17.812,17.812,0,0,1,5.609,12.88,11.714,11.714,0,0,1,6.232-4.9,10.986,10.986,0,0,1,8.03.374,10.852,10.852,0,0,1,5.415,5.789,10.653,10.653,0,0,1,.605,5.15,9.232,9.232,0,0,1,3.129-1.229,9.714,9.714,0,0,1,7.956,2.173c.7.638,3.094,2.8,2.829,5.967a7.333,7.333,0,0,1-3.08,5.024c-2.1,1.508-4.29,1.448-6.406,1.389-2.148-.059-4.176-.115-6.127,1.335a6.484,6.484,0,0,0-2.049,2.674c-.218.433-.443.881-.745,1.366-2.435,3.9-7.822,6.783-14.781,7.9A39.339,39.339,0,0,1,106.583,310.845Zm-22.348-7c1.248.042,2.736.49,5.139,2.206a17.319,17.319,0,0,0,3.358,2.023,37.67,37.67,0,0,0,20.041,2.15c6.922-1.109,12.275-3.966,14.689-7.838.3-.479.523-.924.739-1.355a6.6,6.6,0,0,1,2.089-2.721c1.989-1.478,4.134-1.419,6.21-1.361,2.093.057,4.259.118,6.325-1.365l.039.054-.039-.054a7.194,7.194,0,0,0,3.025-4.926c.276-3.288-2.466-5.6-2.779-5.852a7.882,7.882,0,0,0-3.711-1.593,9.3,9.3,0,0,0-4.649.544c-3.036.971-3.493,2.319-4.538,1.978-1.721-.56-.661-4.242-3.191-6.94a7.922,7.922,0,0,0-4.855-2.241c-3.709-.452-7.56,1.7-9.9,5.416-3.017-6.42-6-8.1-8.217-8.4-5.3-.735-8.675,6.052-15.873,5.976a13.932,13.932,0,0,1-7.843-2.8,5.627,5.627,0,0,1-2.988,3.921,4.221,4.221,0,0,1-3.735,0,3.99,3.99,0,0,1-1.789-2.42c-.108.663-1.673,9.294-9.681,12.833a17.269,17.269,0,0,1-13.734-.225,17.47,17.47,0,0,1-6.529-5.178,6.866,6.866,0,0,1-3.827,3.377c-2.17.613-3.432-.684-5.853-.9-3.42-.306-8.107,1.637-9.567,5.4-1.647,4.247,1.476,9.133,4.856,11.2,1.966,1.205,3.774,1.257,7.1,1.307,6.08.093,20.645-1.284,21.382-1.046l.077.025c.159.051.518.164.975.3.652.191,1.517.427,2.545.658a41.463,41.463,0,0,0,4.826.772c3.749.4,6.71.708,10.415-.132.9-.2,1.663-.422,2.332-.643,1.151-.381,1.822-.693,2.444-.944A11.7,11.7,0,0,1,84.235,303.845Z" transform="translate(-21.988 -260.04)" fill="#fff"/>
      </g>
      <path id="Path_9" data-name="Path 9" d="M90.44,319.325a17.048,17.048,0,0,1-10.271-2.241c-1.793,2.131-4.652,4.833-8.03,4.669-2.975-.144-3.338-2.366-6.536-3.361-5.045-1.571-7.495,2.913-17.771,4.653-4.1.695-6.381,1.081-9.158.086-3.521-1.261-4.749-3.637-7.973-3.893a9.343,9.343,0,0,0-6.171,2.1,16.084,16.084,0,0,0,3.173,3.885c3.9,3.471,8.466,4,11.443,4.351,4.806.561,8.58-.239,12.639-1.1a57.483,57.483,0,0,0,7.283-2.054c1.33.484,3.236,1.135,5.558,1.787a86.077,86.077,0,0,0,18.344,2.882,216.107,216.107,0,0,0,25.312.3c7.616-.347,12.743-.963,17.576-4.483a21.874,21.874,0,0,0,3.977-3.751,11.41,11.41,0,0,0,7.144.242c4.141-1.3,7.7-5.357,6.879-7.4-.272-.673-1.163-1.481-7.293-1.717-9.634-.371-11.931,1.453-18.232.962-7.873-.613-7.547-3.716-12.767-3.017C98.833,313.131,97.192,318.439,90.44,319.325Z" transform="translate(-22.982 -280.402)" fill="#ceeaf0"/>
      <path id="Path_10" data-name="Path 10" d="M204.862,314.731a12.889,12.889,0,0,0-3.144-2.4,10.592,10.592,0,0,0-3.852-1.344,9.773,9.773,0,0,0-6.193,1.472,16.176,16.176,0,0,0-22.885-.841,7.517,7.517,0,0,0-3.986-.874,8.39,8.39,0,0,0-6.126,3.851,12.531,12.531,0,0,0-2.639-1.176,9.335,9.335,0,0,0-6.052-.212c-.861.309-2.729.981-3.161,2.637a2.991,2.991,0,0,0,.414,2.38c1.318,1.645,4.879.623,5.746.624,8.291.011,57.4,5.236,58.839-1.493a3.142,3.142,0,0,0-.965-2.618C209.192,313.192,205.9,314.335,204.862,314.731Z" transform="translate(-70.754 -278.505)" fill="#fff"/>
      <path id="Path_11" data-name="Path 11" d="M204.709,320.212a8.569,8.569,0,0,0-2.9-2.043,9.517,9.517,0,0,0-5.5-.421c-9.792,1.732-10.569,3.143-14.182,2.9-5.383-.36-6.68-3.419-12.813-3.545a16.3,16.3,0,0,0-6.124.886,15.03,15.03,0,0,0-4.12,2.306,11.821,11.821,0,0,0-8.906-.207c-.744.322-2.686,1.162-2.611,1.969.181,1.928,11.632.99,28.459,2.635,0,0,25.2,2.465,33.9-1.523.6-.276,2.271-1.042,2.23-1.981-.029-.686-.956-1.157-1.325-1.345C208.519,318.673,205.778,319.732,204.709,320.212Z" transform="translate(-71.074 -282.345)" fill="#ceeaf0"/>
    </g>
    <g id="Group_27" data-name="Group 27" transform="translate(52.345 713.877)" opacity="0.31">
      <g id="Group_3-2" data-name="Group 3">
        <path id="Path_7-2" data-name="Path 7" d="M142.9,295.678c-4.153,2.979-8.58-.214-12.534,2.725-1.632,1.212-1.818,2.464-2.811,4.057-5.117,8.207-22.573,10.871-34.813,5.714-3.472-1.463-5.337-4.522-9-4.2-3.288.29-4.3,1.715-8.929,2.765-3.642.825-6.488.549-10.437.133-6.666-.7-8.627-2.1-13.322-2.993-13.241-2.522-19.246,4.471-25.044-.028A10.788,10.788,0,0,1,22.1,294.9c.336-5.3,4.971-8.3,5.524-8.642a13.163,13.163,0,0,1,6.523-1.844c4.763-.207,6.245,2.01,8.652,1.066,2.348-.922,1.9-3.409,4.37-8.012.891-1.66,5.406-9.638,12.844-11.069,1.559-.3,3.882-.738,6.015.435,2.813,1.546,3.528,4.5,4.812,4.212.781-.173.641-1.239,1.82-1.9a4.29,4.29,0,0,1,3.922.195c2.3,1.252,2.191,3.952,3.188,4,1.25.061,1.38-4.188,4.039-7.7,3.761-4.965,10.318-5.461,10.814-5.491.425-.026,7.06-.333,11.592,4.353a17.332,17.332,0,0,1,3.681,6.213c1.292,3.824.612,6.151,1.9,6.727,1.455.651,2.752-2.171,6.95-3.444a10.279,10.279,0,0,1,6.8-.036,9.993,9.993,0,0,1,5.184,5.008c1.141,2.631.186,4.063,1.339,4.876,1.54,1.086,3.528-1.32,7.341-.664a7.952,7.952,0,0,1,3.741,1.606c.266.214,3.085,2.559,2.8,5.909A7.318,7.318,0,0,1,142.9,295.678Z" transform="translate(-22.023 -260.08)" fill="#f2f7f8"/>
        <path id="Path_8-2" data-name="Path 8" d="M106.583,310.845a36.274,36.274,0,0,1-13.9-2.648,17.452,17.452,0,0,1-3.383-2.037c-1.7-1.213-3.3-2.358-5.582-2.157a12.421,12.421,0,0,0-4.122,1.169,25.77,25.77,0,0,1-4.8,1.594c-3.727.845-6.7.532-10.459.135a39.966,39.966,0,0,1-8.448-1.759,39.808,39.808,0,0,0-4.879-1.235,32.732,32.732,0,0,0-14,.618c-3.938.862-5.352.881-7.387.464a9.451,9.451,0,0,1-3.456-1.272c-2.916-1.886-4.3-5.636-4.174-8.853a11.763,11.763,0,0,1,5.2-8.929,14.98,14.98,0,0,1,10.175-2.977,13.218,13.218,0,0,1,3.491.885c-.265-1.4-1.422-8.3,3-14.154,4.5-5.958,13.259-8.826,20.037-5.629a15.374,15.374,0,0,1,6.884,6.886,4.217,4.217,0,0,1,2.13-2.546,4.267,4.267,0,0,1,3.788.146,4.5,4.5,0,0,1,2.142,3.537c2.791-7.048,8.992-11.807,15.734-12.033a17.034,17.034,0,0,1,11.6,4.42,17.812,17.812,0,0,1,5.609,12.88,11.714,11.714,0,0,1,6.232-4.9,10.986,10.986,0,0,1,8.03.374,10.852,10.852,0,0,1,5.415,5.789,10.653,10.653,0,0,1,.605,5.15,9.232,9.232,0,0,1,3.129-1.229,9.714,9.714,0,0,1,7.956,2.173c.7.638,3.094,2.8,2.829,5.967a7.333,7.333,0,0,1-3.08,5.024c-2.1,1.508-4.29,1.448-6.406,1.389-2.148-.059-4.176-.115-6.127,1.335a6.484,6.484,0,0,0-2.049,2.674c-.218.433-.443.881-.745,1.366-2.435,3.9-7.822,6.783-14.781,7.9A39.339,39.339,0,0,1,106.583,310.845Zm-22.348-7c1.248.042,2.736.49,5.139,2.206a17.319,17.319,0,0,0,3.358,2.023,37.67,37.67,0,0,0,20.041,2.15c6.922-1.109,12.275-3.966,14.689-7.838.3-.479.523-.924.739-1.355a6.6,6.6,0,0,1,2.089-2.721c1.989-1.478,4.134-1.419,6.21-1.361,2.093.057,4.259.118,6.325-1.365l.039.054-.039-.054a7.194,7.194,0,0,0,3.025-4.926c.276-3.288-2.466-5.6-2.779-5.852a7.882,7.882,0,0,0-3.711-1.593,9.3,9.3,0,0,0-4.649.544c-3.036.971-3.493,2.319-4.538,1.978-1.721-.56-.661-4.242-3.191-6.94a7.922,7.922,0,0,0-4.855-2.241c-3.709-.452-7.56,1.7-9.9,5.416-3.017-6.42-6-8.1-8.217-8.4-5.3-.735-8.675,6.052-15.873,5.976a13.932,13.932,0,0,1-7.843-2.8,5.627,5.627,0,0,1-2.988,3.921,4.221,4.221,0,0,1-3.735,0,3.99,3.99,0,0,1-1.789-2.42c-.108.663-1.673,9.294-9.681,12.833a17.269,17.269,0,0,1-13.734-.225,17.47,17.47,0,0,1-6.529-5.178,6.866,6.866,0,0,1-3.827,3.377c-2.17.613-3.432-.684-5.853-.9-3.42-.306-8.107,1.637-9.567,5.4-1.647,4.247,1.476,9.133,4.856,11.2,1.966,1.205,3.774,1.257,7.1,1.307,6.08.093,20.645-1.284,21.382-1.046l.077.025c.159.051.518.164.975.3.652.191,1.517.427,2.545.658a41.463,41.463,0,0,0,4.826.772c3.749.4,6.71.708,10.415-.132.9-.2,1.663-.422,2.332-.643,1.151-.381,1.822-.693,2.444-.944A11.7,11.7,0,0,1,84.235,303.845Z" transform="translate(-21.988 -260.04)" fill="#fff"/>
      </g>
      <path id="Path_9-2" data-name="Path 9" d="M90.44,319.325a17.048,17.048,0,0,1-10.271-2.241c-1.793,2.131-4.652,4.833-8.03,4.669-2.975-.144-3.338-2.366-6.536-3.361-5.045-1.571-7.495,2.913-17.771,4.653-4.1.695-6.381,1.081-9.158.086-3.521-1.261-4.749-3.637-7.973-3.893a9.343,9.343,0,0,0-6.171,2.1,16.084,16.084,0,0,0,3.173,3.885c3.9,3.471,8.466,4,11.443,4.351,4.806.561,8.58-.239,12.639-1.1a57.483,57.483,0,0,0,7.283-2.054c1.33.484,3.236,1.135,5.558,1.787a86.077,86.077,0,0,0,18.344,2.882,216.107,216.107,0,0,0,25.312.3c7.616-.347,12.743-.963,17.576-4.483a21.874,21.874,0,0,0,3.977-3.751,11.41,11.41,0,0,0,7.144.242c4.141-1.3,7.7-5.357,6.879-7.4-.272-.673-1.163-1.481-7.293-1.717-9.634-.371-11.931,1.453-18.232.962-7.873-.613-7.547-3.716-12.767-3.017C98.833,313.131,97.192,318.439,90.44,319.325Z" transform="translate(-22.982 -280.402)" fill="#ceeaf0"/>
      <path id="Path_10-2" data-name="Path 10" d="M204.862,314.731a12.889,12.889,0,0,0-3.144-2.4,10.592,10.592,0,0,0-3.852-1.344,9.773,9.773,0,0,0-6.193,1.472,16.176,16.176,0,0,0-22.885-.841,7.517,7.517,0,0,0-3.986-.874,8.39,8.39,0,0,0-6.126,3.851,12.531,12.531,0,0,0-2.639-1.176,9.335,9.335,0,0,0-6.052-.212c-.861.309-2.729.981-3.161,2.637a2.991,2.991,0,0,0,.414,2.38c1.318,1.645,4.879.623,5.746.624,8.291.011,57.4,5.236,58.839-1.493a3.142,3.142,0,0,0-.965-2.618C209.192,313.192,205.9,314.335,204.862,314.731Z" transform="translate(-70.754 -278.505)" fill="#fff"/>
      <path id="Path_11-2" data-name="Path 11" d="M204.709,320.212a8.569,8.569,0,0,0-2.9-2.043,9.517,9.517,0,0,0-5.5-.421c-9.792,1.732-10.569,3.143-14.182,2.9-5.383-.36-6.68-3.419-12.813-3.545a16.3,16.3,0,0,0-6.124.886,15.03,15.03,0,0,0-4.12,2.306,11.821,11.821,0,0,0-8.906-.207c-.744.322-2.686,1.162-2.611,1.969.181,1.928,11.632.99,28.459,2.635,0,0,25.2,2.465,33.9-1.523.6-.276,2.271-1.042,2.23-1.981-.029-.686-.956-1.157-1.325-1.345C208.519,318.673,205.778,319.732,204.709,320.212Z" transform="translate(-71.074 -282.345)" fill="#ceeaf0"/>
    </g>
    <g id="Group_19" data-name="Group 19" transform="translate(0 227.257)" opacity="0.31">
      <g id="Group_12" data-name="Group 12" transform="translate(0)">
        <g id="Group_11" data-name="Group 11">
          <path id="Path_26" data-name="Path 26" d="M156.641,429.1c-2.583,3.389-7.713,4.606-12.534,2.724a21.817,21.817,0,0,1-2.811,4.058c-7.8,8.891-22.2,10.3-32.867,7.087a35.128,35.128,0,0,1-10.943-5.572,26.946,26.946,0,0,1-15.173,2.844A61.321,61.321,0,0,1,69,443.768c-3.916.576-21.309,2.741-35.458-6.828-4.8-3.246-6.139-5.755-6.6-7.874-.976-4.454,1.4-9.587,3.647-11.048a21,21,0,0,0,4.43-3.661A6.448,6.448,0,0,0,35.9,413.1c2.773-5-2.52-8.952-1.2-15.142,1.555-7.293,11.767-14.68,19.466-13.288,3.87.7,5.032,3.246,8.647,2.734,4.589-.651,4.968-5.074,9.2-5.78,5.009-.835,11.294,4.228,12.2,9.218.481,2.637-.484,5.569-.1,5.652.294.063.474-1.636,1.779-2.865,1.7-1.6,4.789-1.9,7.222-.809,2.364,1.061,4.28,3.513,4.205,5.937-.088,2.835-2.874,4.792-2.632,5.035s2.671-2.375,6.058-4.1c4.82-2.459,10.016-1,10.749-.781,5.9,1.75,9.383,7.017,9.771,7.621,1.26,1.962,1.39,3.058,2.685,3.553,2.181.834,3.718-1.542,8.531-2.656,2.025-.468,4.31-1,6.8-.035a9.991,9.991,0,0,1,5.184,5.008c1.141,2.631.186,4.063,1.339,4.876,1.54,1.085,3.528-1.321,7.341-.665a6.84,6.84,0,0,1,3.741,1.607C159.371,420.631,159.07,425.909,156.641,429.1Z" transform="translate(-24.613 -376.913)" fill="#e9f4f6"/>
          <path id="Path_27" data-name="Path 27" d="M140.729,438.728a35.941,35.941,0,0,0-11.738-4.31c-8.458-1.235-10.681,3.042-17.616,1.458-5.943-1.358-6.308-4.957-11.947-7.179-4.166-1.641-10.736-2.344-20.985,2.463A16.783,16.783,0,0,0,71.2,426.7c-6.156-1.826-14.043-.061-17.21,4.741-3.276,4.966.522,10.113-3.419,13.838-2.47,2.335-6.171,2.4-6.877,2.413-5.168.091-8.1-3.5-9.531-2.413-1.2.912-.588,4.567.985,7.338,5.837,10.279,25.874,10.129,36.515,8.536a62.556,62.556,0,0,0,13.31-3.53,26.946,26.946,0,0,0,15.173-2.844,35.128,35.128,0,0,0,10.943,5.572c10.672,3.212,25.063,1.8,32.867-7.087a21.817,21.817,0,0,0,2.811-4.058,12.632,12.632,0,0,0,6.618.7c1.292-.222,5.247-.9,5.916-3.429a3.286,3.286,0,0,0-1.362-3.615c-1.276-.591-2.47.769-4.222,1.327C149.946,445.391,146.649,441.892,140.729,438.728Z" transform="translate(-27.28 -394.293)" fill="#ceeaf0"/>
          <path id="Path_28" data-name="Path 28" d="M157.571,415.754a8.478,8.478,0,0,0-4.237-3.035,9.508,9.508,0,0,0-5.5.144,12.864,12.864,0,0,0-3.335,1.391,11,11,0,0,0-1.833-8.021c-4.006-5.262-11.97-3.543-12.751-3.362a15.02,15.02,0,0,0-7.283,4.182c-.293-1.124-2.255-8.176-9.193-11.6a16.789,16.789,0,0,0-11.412-1.313,15.824,15.824,0,0,0-5.183,2.41,8.184,8.184,0,0,0-5.317-8.04,8.4,8.4,0,0,0-7.285,1.3c.023-.391.362-8.852-6.568-13.47a15.407,15.407,0,0,0-12.782-1.715,15.079,15.079,0,0,0-7.614,5.826c-.888-.349-10.37-3.887-18.977,1.85A20.419,20.419,0,0,0,29.514,402a18.605,18.605,0,0,0,2.7,7.1,15.546,15.546,0,0,0-4.4,2.979,14,14,0,0,0-3.745,5.737,11.851,11.851,0,0,0,.224,9.031c1.9,3.886,5.875,5.711,6.105,5.457.1-.114-.537-.674-1.246-1.749a12.427,12.427,0,0,1-2-7.19,12.189,12.189,0,0,1,4.109-8.218,12.715,12.715,0,0,1,6.363-3.016,19.958,19.958,0,0,1,1.7-12.811c.375-.737,4.084-7.758,12.155-9.938a19.257,19.257,0,0,1,8.118-.375c5.055.85,6.841,3.584,12.9,5.139a28.1,28.1,0,0,0,5.84.855,23.452,23.452,0,0,0,4.052,5.385,10.15,10.15,0,0,0,3.652,2.739,8.989,8.989,0,0,0,7.457-.913,19.336,19.336,0,0,1,11.337-3.279,18.6,18.6,0,0,1,11.643,4.5,18.39,18.39,0,0,1,5.478,8.675c.67-.7,4.673-4.757,10.52-4.414a11.079,11.079,0,0,1,6.979,2.737,11.4,11.4,0,0,1,3.5,8.374,8.383,8.383,0,0,1,4.3-2.9c2.823-.761,6.736-.01,8.62,3.01,1.335,2.14,1.111,5.518-.626,7.171a3.671,3.671,0,0,1-.476.381,3.71,3.71,0,0,0,.553-.272,6.572,6.572,0,0,0,2.24-10.434Z" transform="translate(-23.265 -373.95)" fill="#fff"/>
        </g>
      </g>
      <path id="Path_29" data-name="Path 29" d="M76.209,444.28c4.793-.161,9.247-3.444,11.49-8.4,4.011,3.15,6.856,3.384,8.683,3.051,4.589-.836,4.94-5.646,10.931-7.646a19.306,19.306,0,0,1,9.017-.568c3.369.707,5.417,2.3,7.7,1.328a5.617,5.617,0,0,0,2.719-2.933,6.844,6.844,0,0,1-2.053-.585,10.621,10.621,0,0,1-4.256-4.078,23.6,23.6,0,0,0-9.517-5.511,24.093,24.093,0,0,0-16.012,1.016,23.741,23.741,0,0,0-5.256,3.1,17.4,17.4,0,0,0-.206-3.184,16.465,16.465,0,0,0-3.191-7.674c-3.265-3.854-9.38-5.181-14.387-3.6-5.639,1.779-8.118,6.639-8.933,8.236a19.8,19.8,0,0,0,1.317,19.78C65.677,438.7,69.615,444.5,76.209,444.28Z" transform="translate(-37.974 -387.237)" fill="#e9f4f6"/>
      <path id="Path_30" data-name="Path 30" d="M68.947,441.817l.062-.063c-3.616-3.3-6.342-8.572-5.275-11.863A4.276,4.276,0,0,1,65.7,427.27c1.381-.658,2.324.291,3.848.3,3.838.012,4.6-5.982,9.324-6.956a7.575,7.575,0,0,1,5.146.978,9.154,9.154,0,0,1,4.194,5.986,21.071,21.071,0,0,1,6.709-4.253,21.843,21.843,0,0,1,12.346-.938,26.877,26.877,0,0,1,9.439,4.173c3.389,2.34,5.35,4.823,7.749,4.273a4.259,4.259,0,0,0,2.373-1.717,6.844,6.844,0,0,1-2.053-.585,10.62,10.62,0,0,1-4.256-4.078c-3.037-4.737-9.982-6.456-10.749-6.646-5.316-1.316-9.956.336-12.693,1.31a28.013,28.013,0,0,0-7.342,3.938,17.4,17.4,0,0,0-.206-3.184,16.519,16.519,0,0,0-3.191-7.674c-3.148-3.724-9.2-5.239-14.387-3.6-5.639,1.779-8.118,6.639-8.933,8.236-4.873,9.551,1.062,19.367,1.317,19.78A21.6,21.6,0,0,0,68.947,441.817Z" transform="translate(-38.057 -387.235)" fill="#fff"/>
      <path id="Path_31" data-name="Path 31" d="M171.958,457.233a3.585,3.585,0,0,1,.695-2.424,3.825,3.825,0,0,1,2.893-1.328,4.816,4.816,0,0,1,3.18,1,5.558,5.558,0,0,1,4.895-5.775c.407-.066,3.467-.513,5.129,1.484a5.539,5.539,0,0,1,1.11,2.965,5.858,5.858,0,0,1-.046,1.41,3.686,3.686,0,0,1,5.957-.432,4.967,4.967,0,0,1,1.138,4.214,3.022,3.022,0,0,1,3.352,4.691,13.28,13.28,0,0,1-1.052.83,14.9,14.9,0,0,1-6.189,2.417c-4.9.617-6.317-2.479-11.409-1.5-1.334.258-.968.418-2.525.749-.984.209-6.86,1.454-10.814-1.843-.833-.694-2.42-2.05-2.259-3.911a3.756,3.756,0,0,1,2.684-3.2A3.943,3.943,0,0,1,171.958,457.233Z" transform="translate(-79.063 -403.139)" fill="#fff"/>
      <path id="Path_32" data-name="Path 32" d="M183.689,466.715a10.661,10.661,0,0,0-5.229,3.116,5.1,5.1,0,0,0-3.742-2.626c-1.517-.116-3.485.612-3.718,1.833-.239,1.248,1.433,2.492,1.788,2.756,2.548,1.9,4.822.832,11.082,1.141,3.732.185,4.642.648,7.686.329,4.4-.46,5.451-1.737,5.833-2.472a3.22,3.22,0,0,0,.3-1.978c-.35-1.912-2.513-2.674-2.746-2.752-.291-.1-2.389-.8-3.714.474a3.059,3.059,0,0,0-.859,1.807,6.017,6.017,0,0,0-2.065-1.5A6.975,6.975,0,0,0,183.689,466.715Z" transform="translate(-81.008 -409.848)" fill="#e9f4f6"/>
    </g>
    <g id="Group_26" data-name="Group 26" transform="translate(231 615.257)" opacity="0.31">
      <g id="Group_12-2" data-name="Group 12" transform="translate(0)">
        <g id="Group_11-2" data-name="Group 11">
          <path id="Path_26-2" data-name="Path 26" d="M156.641,429.1c-2.583,3.389-7.713,4.606-12.534,2.724a21.817,21.817,0,0,1-2.811,4.058c-7.8,8.891-22.2,10.3-32.867,7.087a35.128,35.128,0,0,1-10.943-5.572,26.946,26.946,0,0,1-15.173,2.844A61.321,61.321,0,0,1,69,443.768c-3.916.576-21.309,2.741-35.458-6.828-4.8-3.246-6.139-5.755-6.6-7.874-.976-4.454,1.4-9.587,3.647-11.048a21,21,0,0,0,4.43-3.661A6.448,6.448,0,0,0,35.9,413.1c2.773-5-2.52-8.952-1.2-15.142,1.555-7.293,11.767-14.68,19.466-13.288,3.87.7,5.032,3.246,8.647,2.734,4.589-.651,4.968-5.074,9.2-5.78,5.009-.835,11.294,4.228,12.2,9.218.481,2.637-.484,5.569-.1,5.652.294.063.474-1.636,1.779-2.865,1.7-1.6,4.789-1.9,7.222-.809,2.364,1.061,4.28,3.513,4.205,5.937-.088,2.835-2.874,4.792-2.632,5.035s2.671-2.375,6.058-4.1c4.82-2.459,10.016-1,10.749-.781,5.9,1.75,9.383,7.017,9.771,7.621,1.26,1.962,1.39,3.058,2.685,3.553,2.181.834,3.718-1.542,8.531-2.656,2.025-.468,4.31-1,6.8-.035a9.991,9.991,0,0,1,5.184,5.008c1.141,2.631.186,4.063,1.339,4.876,1.54,1.085,3.528-1.321,7.341-.665a6.84,6.84,0,0,1,3.741,1.607C159.371,420.631,159.07,425.909,156.641,429.1Z" transform="translate(-24.613 -376.913)" fill="#e9f4f6"/>
          <path id="Path_27-2" data-name="Path 27" d="M140.729,438.728a35.941,35.941,0,0,0-11.738-4.31c-8.458-1.235-10.681,3.042-17.616,1.458-5.943-1.358-6.308-4.957-11.947-7.179-4.166-1.641-10.736-2.344-20.985,2.463A16.783,16.783,0,0,0,71.2,426.7c-6.156-1.826-14.043-.061-17.21,4.741-3.276,4.966.522,10.113-3.419,13.838-2.47,2.335-6.171,2.4-6.877,2.413-5.168.091-8.1-3.5-9.531-2.413-1.2.912-.588,4.567.985,7.338,5.837,10.279,25.874,10.129,36.515,8.536a62.556,62.556,0,0,0,13.31-3.53,26.946,26.946,0,0,0,15.173-2.844,35.128,35.128,0,0,0,10.943,5.572c10.672,3.212,25.063,1.8,32.867-7.087a21.817,21.817,0,0,0,2.811-4.058,12.632,12.632,0,0,0,6.618.7c1.292-.222,5.247-.9,5.916-3.429a3.286,3.286,0,0,0-1.362-3.615c-1.276-.591-2.47.769-4.222,1.327C149.946,445.391,146.649,441.892,140.729,438.728Z" transform="translate(-27.28 -394.293)" fill="#ceeaf0"/>
          <path id="Path_28-2" data-name="Path 28" d="M157.571,415.754a8.478,8.478,0,0,0-4.237-3.035,9.508,9.508,0,0,0-5.5.144,12.864,12.864,0,0,0-3.335,1.391,11,11,0,0,0-1.833-8.021c-4.006-5.262-11.97-3.543-12.751-3.362a15.02,15.02,0,0,0-7.283,4.182c-.293-1.124-2.255-8.176-9.193-11.6a16.789,16.789,0,0,0-11.412-1.313,15.824,15.824,0,0,0-5.183,2.41,8.184,8.184,0,0,0-5.317-8.04,8.4,8.4,0,0,0-7.285,1.3c.023-.391.362-8.852-6.568-13.47a15.407,15.407,0,0,0-12.782-1.715,15.079,15.079,0,0,0-7.614,5.826c-.888-.349-10.37-3.887-18.977,1.85A20.419,20.419,0,0,0,29.514,402a18.605,18.605,0,0,0,2.7,7.1,15.546,15.546,0,0,0-4.4,2.979,14,14,0,0,0-3.745,5.737,11.851,11.851,0,0,0,.224,9.031c1.9,3.886,5.875,5.711,6.105,5.457.1-.114-.537-.674-1.246-1.749a12.427,12.427,0,0,1-2-7.19,12.189,12.189,0,0,1,4.109-8.218,12.715,12.715,0,0,1,6.363-3.016,19.958,19.958,0,0,1,1.7-12.811c.375-.737,4.084-7.758,12.155-9.938a19.257,19.257,0,0,1,8.118-.375c5.055.85,6.841,3.584,12.9,5.139a28.1,28.1,0,0,0,5.84.855,23.452,23.452,0,0,0,4.052,5.385,10.15,10.15,0,0,0,3.652,2.739,8.989,8.989,0,0,0,7.457-.913,19.336,19.336,0,0,1,11.337-3.279,18.6,18.6,0,0,1,11.643,4.5,18.39,18.39,0,0,1,5.478,8.675c.67-.7,4.673-4.757,10.52-4.414a11.079,11.079,0,0,1,6.979,2.737,11.4,11.4,0,0,1,3.5,8.374,8.383,8.383,0,0,1,4.3-2.9c2.823-.761,6.736-.01,8.62,3.01,1.335,2.14,1.111,5.518-.626,7.171a3.671,3.671,0,0,1-.476.381,3.71,3.71,0,0,0,.553-.272,6.572,6.572,0,0,0,2.24-10.434Z" transform="translate(-23.265 -373.95)" fill="#fff"/>
        </g>
      </g>
      <path id="Path_29-2" data-name="Path 29" d="M76.209,444.28c4.793-.161,9.247-3.444,11.49-8.4,4.011,3.15,6.856,3.384,8.683,3.051,4.589-.836,4.94-5.646,10.931-7.646a19.306,19.306,0,0,1,9.017-.568c3.369.707,5.417,2.3,7.7,1.328a5.617,5.617,0,0,0,2.719-2.933,6.844,6.844,0,0,1-2.053-.585,10.621,10.621,0,0,1-4.256-4.078,23.6,23.6,0,0,0-9.517-5.511,24.093,24.093,0,0,0-16.012,1.016,23.741,23.741,0,0,0-5.256,3.1,17.4,17.4,0,0,0-.206-3.184,16.465,16.465,0,0,0-3.191-7.674c-3.265-3.854-9.38-5.181-14.387-3.6-5.639,1.779-8.118,6.639-8.933,8.236a19.8,19.8,0,0,0,1.317,19.78C65.677,438.7,69.615,444.5,76.209,444.28Z" transform="translate(-37.974 -387.237)" fill="#e9f4f6"/>
      <path id="Path_30-2" data-name="Path 30" d="M68.947,441.817l.062-.063c-3.616-3.3-6.342-8.572-5.275-11.863A4.276,4.276,0,0,1,65.7,427.27c1.381-.658,2.324.291,3.848.3,3.838.012,4.6-5.982,9.324-6.956a7.575,7.575,0,0,1,5.146.978,9.154,9.154,0,0,1,4.194,5.986,21.071,21.071,0,0,1,6.709-4.253,21.843,21.843,0,0,1,12.346-.938,26.877,26.877,0,0,1,9.439,4.173c3.389,2.34,5.35,4.823,7.749,4.273a4.259,4.259,0,0,0,2.373-1.717,6.844,6.844,0,0,1-2.053-.585,10.62,10.62,0,0,1-4.256-4.078c-3.037-4.737-9.982-6.456-10.749-6.646-5.316-1.316-9.956.336-12.693,1.31a28.013,28.013,0,0,0-7.342,3.938,17.4,17.4,0,0,0-.206-3.184,16.519,16.519,0,0,0-3.191-7.674c-3.148-3.724-9.2-5.239-14.387-3.6-5.639,1.779-8.118,6.639-8.933,8.236-4.873,9.551,1.062,19.367,1.317,19.78A21.6,21.6,0,0,0,68.947,441.817Z" transform="translate(-38.057 -387.235)" fill="#fff"/>
      <path id="Path_31-2" data-name="Path 31" d="M171.958,457.233a3.585,3.585,0,0,1,.695-2.424,3.825,3.825,0,0,1,2.893-1.328,4.816,4.816,0,0,1,3.18,1,5.558,5.558,0,0,1,4.895-5.775c.407-.066,3.467-.513,5.129,1.484a5.539,5.539,0,0,1,1.11,2.965,5.858,5.858,0,0,1-.046,1.41,3.686,3.686,0,0,1,5.957-.432,4.967,4.967,0,0,1,1.138,4.214,3.022,3.022,0,0,1,3.352,4.691,13.28,13.28,0,0,1-1.052.83,14.9,14.9,0,0,1-6.189,2.417c-4.9.617-6.317-2.479-11.409-1.5-1.334.258-.968.418-2.525.749-.984.209-6.86,1.454-10.814-1.843-.833-.694-2.42-2.05-2.259-3.911a3.756,3.756,0,0,1,2.684-3.2A3.943,3.943,0,0,1,171.958,457.233Z" transform="translate(-79.063 -403.139)" fill="#fff"/>
      <path id="Path_32-2" data-name="Path 32" d="M183.689,466.715a10.661,10.661,0,0,0-5.229,3.116,5.1,5.1,0,0,0-3.742-2.626c-1.517-.116-3.485.612-3.718,1.833-.239,1.248,1.433,2.492,1.788,2.756,2.548,1.9,4.822.832,11.082,1.141,3.732.185,4.642.648,7.686.329,4.4-.46,5.451-1.737,5.833-2.472a3.22,3.22,0,0,0,.3-1.978c-.35-1.912-2.513-2.674-2.746-2.752-.291-.1-2.389-.8-3.714.474a3.059,3.059,0,0,0-.859,1.807,6.017,6.017,0,0,0-2.065-1.5A6.975,6.975,0,0,0,183.689,466.715Z" transform="translate(-81.008 -409.848)" fill="#e9f4f6"/>
    </g>
    <g id="Group_20" data-name="Group 20" transform="translate(252.12 456.529)" opacity="0.31">
      <g id="Group_5" data-name="Group 5" transform="translate(0 0.955)">
        <path id="Path_12" data-name="Path 12" d="M361.567,354.937c-3.835,2.751-7.923-.2-11.576,2.516-1.507,1.12-1.679,2.277-2.6,3.747-4.725,7.58-20.846,10.04-32.151,5.278-3.207-1.351-4.929-4.176-8.309-3.879-2.924.258-3.938,2.262-8.246,2.553a14.349,14.349,0,0,1-5.141-.574,8.8,8.8,0,0,1-1.841-.783c-1.934-1.126-2-1.465-2.695-1.576-1.724-.273-2.247,2.543-5.586,4a5.789,5.789,0,0,1-4.491.3c-.256-.113-1.507-.665-1.662-1.651-.15-.96.827-1.774.666-1.941-.185-.191-1.5.837-2.12,1.28-2.709,1.927-7.223,3.373-9.309,1.727a3.527,3.527,0,0,1-1.3-2.759c.062-1.172.91-1.761.677-2.1-.354-.518-2.424.678-5.15,1.274-1.762.385-4.043.884-6.062.08-2.917-1.161-4.776-4.835-4.675-8.21.152-5.052,4.683-7.735,5.34-8.125a11.612,11.612,0,0,1,5.785-1.559,10.2,10.2,0,0,1,3.715.557c1.3.476,2.221,1.158,2.418.931s-.64-.88-.961-2.207a3.487,3.487,0,0,1,.171-2.52c.914-1.564,3.3-1.518,3.6-1.509,2,.057,3.208,1.3,3.625.874.319-.328-.406-1.032-.384-2.408a3.786,3.786,0,0,1,4.821-3.707c1.6.347,2.11,1.511,2.78,1.238.705-.287.331-1.655.909-3.564.172-.569.959-3.288,3.2-4.321a6.489,6.489,0,0,1,5.555.4c2.6,1.428,3.259,4.153,4.444,3.89.722-.16.593-1.144,1.681-1.756a3.962,3.962,0,0,1,3.622.18c2.128,1.157,2.024,3.65,2.944,3.695,1.154.057,1.274-3.868,3.73-7.109,3.473-4.585,9.528-5.043,9.987-5.071.392-.024,6.521-.307,10.705,4.021a16.008,16.008,0,0,1,3.4,5.738c1.194,3.533.565,5.681,1.755,6.213,1.344.6,2.542-2,6.418-3.181a9.491,9.491,0,0,1,6.279-.033,9.229,9.229,0,0,1,4.787,4.625c1.054,2.43.172,3.753,1.236,4.5,1.423,1,3.258-1.22,6.78-.614a7.341,7.341,0,0,1,3.455,1.484c.245.2,2.849,2.363,2.589,5.457A6.757,6.757,0,0,1,361.567,354.937Z" transform="translate(-249.938 -322.061)" fill="#f2f7f8"/>
        <path id="Path_13" data-name="Path 13" d="M328.022,368.944a33.5,33.5,0,0,1-12.841-2.446,16.085,16.085,0,0,1-3.125-1.881c-1.568-1.12-3.05-2.177-5.155-1.992a8.432,8.432,0,0,0-3.21,1.073,11.912,11.912,0,0,1-5.037,1.481,14.436,14.436,0,0,1-5.163-.577,8.9,8.9,0,0,1-1.853-.788c-.85-.495-1.35-.845-1.68-1.077a2.119,2.119,0,0,0-.993-.492c-.822-.129-1.364.475-2.114,1.312a9.543,9.543,0,0,1-3.437,2.687,5.56,5.56,0,0,1-4.54.3c-.992-.437-1.6-1.041-1.7-1.7a2.3,2.3,0,0,1,.5-1.556c.085-.132.2-.314.183-.352-.116-.12-1.292.741-1.678,1.024-.135.1-.258.189-.362.263-2.925,2.081-7.344,3.333-9.383,1.726a3.593,3.593,0,0,1-1.322-2.811,3.2,3.2,0,0,1,.507-1.476c.154-.27.266-.465.181-.588-.177-.259-1,.027-2.035.388a25.89,25.89,0,0,1-3.052.911c-1.81.4-4.062.888-6.1.077-2.794-1.112-4.821-4.667-4.713-8.269.146-4.857,4.337-7.564,5.37-8.176,5.467-3.237,11.438-.3,11.9-.059a4.534,4.534,0,0,1-.8-4.719,4.311,4.311,0,0,1,5.215-2.288,2.917,2.917,0,0,1,1.132.943,6.992,6.992,0,0,1,.943-5.283,4.512,4.512,0,0,1,2.17-1.793,4.324,4.324,0,0,1,3.868.566,3.829,3.829,0,0,1,1.132,1.509,7.549,7.549,0,0,1,4.34-8.114,7.365,7.365,0,0,1,8.679,2.265,6.333,6.333,0,0,1,1.1,3.059,4.088,4.088,0,0,1,5.218-2.965,4.392,4.392,0,0,1,2.547,2.264,4.915,4.915,0,0,1,.5,2.818,12.253,12.253,0,0,1,1.106-4.328c2.237-4.786,7.538-7.656,12.6-7.852.731-.029,6.671-.183,10.753,4.039a16.058,16.058,0,0,1,3.413,5.761,18.96,18.96,0,0,1,.837,3.9c.161,1.244.259,2,.886,2.276s1.225-.178,2.135-.87a12.8,12.8,0,0,1,4.24-2.314,9.485,9.485,0,0,1,6.319-.031,9.251,9.251,0,0,1,4.822,4.658,7.63,7.63,0,0,1,.615,2.838c.046.765.076,1.271.6,1.64.654.46,1.387.217,2.4-.118a8.374,8.374,0,0,1,4.354-.507,7.39,7.39,0,0,1,3.483,1.5c.295.238,2.872,2.411,2.612,5.51a6.771,6.771,0,0,1-2.844,4.639c-1.942,1.393-3.962,1.337-5.916,1.283-1.983-.055-3.857-.107-5.659,1.232a6,6,0,0,0-1.892,2.469c-.2.4-.409.814-.688,1.261-2.248,3.606-7.224,6.265-13.651,7.295A36.32,36.32,0,0,1,328.022,368.944Zm-20.639-6.464c.551,0,1.551-.244,4.746,2.037a15.988,15.988,0,0,0,3.1,1.868,34.8,34.8,0,0,0,18.509,1.986c6.392-1.024,11.336-3.663,13.565-7.239.276-.442.483-.854.683-1.251a6.1,6.1,0,0,1,1.929-2.513c1.836-1.364,3.818-1.31,5.736-1.257,1.934.054,3.933.108,5.841-1.26l.036.05-.036-.05a6.646,6.646,0,0,0,2.794-4.549c.255-3.037-2.277-5.172-2.567-5.4a7.283,7.283,0,0,0-3.427-1.471,8.271,8.271,0,0,0-4.294.5c-1.009.334-1.807.6-2.511.1-.573-.4-.606-.961-.652-1.733a7.533,7.533,0,0,0-.6-2.8,9.125,9.125,0,0,0-4.754-4.592,9.371,9.371,0,0,0-6.239.035,12.7,12.7,0,0,0-4.2,2.293c-.911.693-1.569,1.194-2.26.884s-.8-1.129-.957-2.372a18.851,18.851,0,0,0-.831-3.877,16.152,16.152,0,0,0-3.385-5.714c-4.16-4.053-10.233-3.281-10.811-3.2-.5.071-6.222.966-8.822,5.146a43.131,43.131,0,0,0-2.369,4.737c-.971,2.245-1.437,3.8-2.042,3.757s-.49-1.574-1.96-3.1a4.433,4.433,0,0,0-2.205-1.389c-2.12-.451-3.965,1.5-4.166,1.715a10.18,10.18,0,0,0-2.451-2.287c-.936-.618-4.111-2.713-7.106-1.389a6.61,6.61,0,0,0-3.267,3.839,7.828,7.828,0,0,0-.327,4.329,4.547,4.547,0,0,0-3.312-2.108,3.876,3.876,0,0,0-2.547.66c-1.23.893-1.506,2.4-1.737,3.653a9.082,9.082,0,0,0-.15,1.63,5.092,5.092,0,0,0-1.811-.65,3.905,3.905,0,0,0-3.349.735,3.766,3.766,0,0,0-.735,3.185c.331,1.862,1.771,2.823,1.552,3.1-.241.311-1.929-.93-3.757-1.634a12.322,12.322,0,0,0-9.72.49c-1.035.527-4.855,2.472-5.554,6.616-.553,3.277.978,7.141,3.706,8.342,2.469,1.087,5.862-.047,6.026-.083a25.979,25.979,0,0,0,3.037-.907c1.215-.423,1.947-.678,2.177-.342.128.188,0,.411-.176.719a3.1,3.1,0,0,0-.49,1.422,3.459,3.459,0,0,0,1.275,2.707c1.994,1.572,6.346.326,9.236-1.73.1-.074.227-.163.36-.261,1.117-.818,1.677-1.179,1.839-1.011.094.1,0,.25-.168.5a2.205,2.205,0,0,0-.481,1.47c.1.615.673,1.185,1.626,1.6a5.444,5.444,0,0,0,4.441-.3,9.457,9.457,0,0,0,3.4-2.656c.747-.834,1.336-1.492,2.224-1.352a2.229,2.229,0,0,1,1.045.512c.348.244.826.579,1.671,1.071a8.811,8.811,0,0,0,1.828.777,14.308,14.308,0,0,0,5.118.571,11.588,11.588,0,0,0,2.507-.432,18.386,18.386,0,0,0,2.484-1.035A9.69,9.69,0,0,1,307.383,362.48Z" transform="translate(-249.898 -322.025)" fill="#fff"/>
      </g>
      <g id="Group_6" data-name="Group 6" transform="translate(3.061 25.539)">
        <path id="Path_14" data-name="Path 14" d="M283.164,371.546c-3.5,1.129-5.849-2.518-12.484-4a17.525,17.525,0,0,0-9.758.31c-1.567.566-5.34,1.93-5.922,5.035A4.933,4.933,0,0,0,256.148,377c2.227,2.433,6.891,1.352,7.447,1.215,1.7-.418,2.907-1.186,3.3-.733.4.47-.707,1.51-.632,3.022.08,1.632,1.495,2.794,2.171,3.351,3.262,2.687,10.163,2.625,13.872,2.516,10.175-.3,15.513-.518,21.985-3.648A36.808,36.808,0,0,0,308.981,380a40.47,40.47,0,0,0,8.625,3.8c2.724.835,13.231,4.056,23.85-.155,4.464-1.77,3.605-2.735,7.95-4.164,5.753-1.894,9.631-.983,14.093-4.268A8.039,8.039,0,0,0,366.264,372c.078-.175,1.621-3.78-.342-6.7a7.336,7.336,0,0,0-5.106-2.865c-5.417-.6-7.727,5.088-13.784,5.421a11.857,11.857,0,0,1-6.5-1.7c-1.166,1.277-10.277,10.951-22.858,9.431a23.869,23.869,0,0,1-10.285-3.856,26.97,26.97,0,0,1-5.111,2.168,16.73,16.73,0,0,1-6.814,1.084c-4.952-.615-7.944-5.611-8.632-6.828A6.868,6.868,0,0,1,283.164,371.546Z" transform="translate(-254.924 -362.387)" fill="#ceeaf0"/>
      </g>
      <path id="Path_15" data-name="Path 15" d="M417.525,353.275c-6.448,5.452-19.019,3.8-27.909-.074a40.571,40.571,0,0,1-5.961-3.217c1.035.082,1.757-.041,1.983-.462.585-1.085-2.062-4.263-5.264-5.456a10.012,10.012,0,0,0-6.957.191,11.343,11.343,0,0,0-3.163-5.616,11.063,11.063,0,0,0-7.668-3.079c-2.151.084-3.756.92-6.131,2.157a25.69,25.69,0,0,0-3.746,2.385,18.722,18.722,0,0,0-6.471-2.725,17.688,17.688,0,0,0-11.039,1.066,17.5,17.5,0,0,0-7.031,5.923c-2.325,3.437-2.189,6.182-3.794,6.45-1.646.274-2.173-2.547-5.453-3.785a10.053,10.053,0,0,0-7.233.437c-3.989,1.718-5.3,5.338-5.725,5.091-.544-.317.615-6.849,5.77-9.506.446-.23,4.547-2.263,8.563-.386a8.569,8.569,0,0,1,2.415,1.7,4.213,4.213,0,0,1-.451-2.212,4.678,4.678,0,0,1,3.767-4.029,4.9,4.9,0,0,1,3.625.873,4.124,4.124,0,0,1-.384-2.408,4.745,4.745,0,0,1,4.821-3.707,4.628,4.628,0,0,1,2.78,1.238,7.2,7.2,0,0,1,.909-3.563,7.776,7.776,0,0,1,7.955-3.647,8.148,8.148,0,0,1,5.243,3.617,3.779,3.779,0,0,1,1.681-1.755,4.205,4.205,0,0,1,3.622.18,5.761,5.761,0,0,1,2.944,3.695,16.173,16.173,0,0,1,3.73-7.109,14.787,14.787,0,0,1,9.987-5.071c.392-.024,6.521-.308,10.706,4.02a17.366,17.366,0,0,1,3.4,5.738,26.012,26.012,0,0,1,1.755,6.213,11.274,11.274,0,0,1,4.465-3.718c.335-.152,5.633-2.469,9.6.309a10.647,10.647,0,0,1,3.417,4.82,15.751,15.751,0,0,1,1.236,4.5,11.65,11.65,0,0,1,5.81-.775,8.11,8.11,0,0,1,4.425,1.644c.157.128,2.846,2.395,2.59,5.458A7.042,7.042,0,0,1,417.525,353.275Z" transform="translate(-271.767 -320.456)" fill="#fff"/>
      <path id="Path_16" data-name="Path 16" d="M408.163,364.894a12.106,12.106,0,0,1,6.9.076c3.644,1.009,5.941,3.441,6.773,2.709.339-.3.081-.809.135-1.9a8.317,8.317,0,0,1,1.87-4.5,8.169,8.169,0,0,1,8.432-2.109A9.162,9.162,0,0,1,437.509,364c2.83,5.547-.559,11.263-.774,11.611a13.118,13.118,0,0,1-4.741,4.451c-1.31.733-3.354,1.6-17.9,1.064-4.237-.155-6.356-.233-7.934-.387a33.544,33.544,0,0,0-5.612-.387c-3.164.16-3.516.881-5.9.968-.864.031-6.659.235-8.128-3.1-.964-2.185.264-5.147,2.141-6.66a7.332,7.332,0,0,1,4.172-1.408c3.835-.373,4.621,1.44,7.137,1.1C403.679,370.758,403.562,366.435,408.163,364.894Z" transform="translate(-303.173 -335.441)" fill="#ceeaf0"/>
      <path id="Path_17" data-name="Path 17" d="M393.935,381.347c-2.258,0-6.276-.4-7.48-3.132-1-2.266.339-5.245,2.152-6.706a7.384,7.384,0,0,1,4.194-1.417,8.55,8.55,0,0,1,4.333.634,5.252,5.252,0,0,0,2.8.468c1.826-.246,2.7-1.405,3.716-2.747a8.923,8.923,0,0,1,4.473-3.617,11.774,11.774,0,0,1,6.921.075,18.772,18.772,0,0,1,4.339,1.948c1.155.655,1.989,1.129,2.4.769.2-.172.177-.431.145-.858a7.917,7.917,0,0,1-.024-1.017,8.433,8.433,0,0,1,1.88-4.52,8.2,8.2,0,0,1,8.474-2.121,9.153,9.153,0,0,1,5.261,4.851c2.87,5.625-.626,11.406-.776,11.65a13.136,13.136,0,0,1-4.755,4.465c-1.526.853-4.044,1.578-17.921,1.069-4.235-.155-6.358-.233-7.937-.387-.7-.069-1.283-.135-1.8-.194a20.574,20.574,0,0,0-3.807-.194,13.96,13.96,0,0,0-3.363.545,9.954,9.954,0,0,1-2.539.423C394.418,381.341,394.187,381.347,393.935,381.347Zm-.126-11.228c-.309,0-.641.015-1,.051a7.312,7.312,0,0,0-4.152,1.4c-1.79,1.442-3.113,4.381-2.129,6.613,1.319,2.992,6.1,3.146,8.09,3.073a9.876,9.876,0,0,0,2.522-.42,14,14,0,0,1,3.38-.547,20.54,20.54,0,0,1,3.82.194c.515.058,1.1.125,1.8.193,1.576.155,3.7.232,7.927.387,12.921.474,16-.178,17.339-.777a5.862,5.862,0,0,0,.546-.282c3.988-2.255,6.6-7.988,4.927-12.822-.1-.283-1.944-5.39-6.116-5.865a6.74,6.74,0,0,0-5.314,1.905c-2.3,2.292-1.594,5.326-3.309,5.916-.924.317-1.563-.414-3.409-1.354-.831-.424-7.062-3.51-11.33-1.4a12.747,12.747,0,0,0-3.259,2.456c-1.227,1.271-1.708,2.306-3.058,2.657a4.8,4.8,0,0,1-1.905.05,14.857,14.857,0,0,1-2.07-.744,11.292,11.292,0,0,0-1.9-.562A8.061,8.061,0,0,0,393.808,370.119Z" transform="translate(-303.147 -335.415)" fill="#fff"/>
    </g>
    <g id="Group_21" data-name="Group 21" transform="translate(193.448 222.132)" opacity="0.31">
      <g id="Group_14" data-name="Group 14">
        <path id="Path_33" data-name="Path 33" d="M231.485,213.044c-3.515,3.031-8.439,2.311-9.655,2.1a19.633,19.633,0,0,1-5.361,5.587c-8.33,5.721-19.123,3.052-23.621,1.94a42.118,42.118,0,0,1-5.738-1.864,12.784,12.784,0,0,1-8.263,1.85,12.465,12.465,0,0,1-5.63-2.223A38.975,38.975,0,0,1,158.4,224.6c-5.392.39-12.049.908-16.272-3.485a11.37,11.37,0,0,1-3.176-8.554c.087-.885.584-4.669,3.731-6.774a9.168,9.168,0,0,1,5.024-1.42,8.408,8.408,0,0,1,3.1.465c1.081.4,1.852.965,2.017.776s-.534-.733-.8-1.841a2.911,2.911,0,0,1,.143-2.1c.762-1.3,2.755-1.266,3-1.259,1.671.048,2.676,1.088,3.023.729.266-.274-.339-.861-.32-2.009a3.432,3.432,0,0,1,.887-2.25,3.472,3.472,0,0,1,3.133-.842c1.333.29,1.76,1.26,2.319,1.032.588-.239.276-1.381.758-2.972.144-.476.8-2.743,2.669-3.6a5.412,5.412,0,0,1,4.633.335c2.167,1.192,2.718,3.464,3.706,3.245.6-.133.494-.954,1.4-1.464a3.3,3.3,0,0,1,3.02.15c1.774.965,1.688,3.044,2.456,3.082.962.047,1.063-3.226,3.111-5.93,2.9-3.824,7.947-4.206,8.33-4.229.327-.02,5.439-.256,8.929,3.353a13.35,13.35,0,0,1,2.835,4.786c1,2.946.471,4.738,1.464,5.182,1.121.5,2.121-1.672,5.353-2.653a7.917,7.917,0,0,1,5.237-.027,7.7,7.7,0,0,1,3.994,3.858c.878,2.026.143,3.13,1.031,3.756,1.187.836,2.718-1.018,5.655-.512a6.119,6.119,0,0,1,2.882,1.237,5,5,0,0,1-.191,8.384Z" transform="translate(-138.911 -185.62)" fill="#e9f4f6"/>
        <path id="Path_34" data-name="Path 34" d="M232.277,204.588a6.674,6.674,0,0,0-2.905-1.248,6.978,6.978,0,0,0-3.631.422c-.846.28-1.458.482-2,.1-.437-.308-.462-.73-.5-1.368a6.369,6.369,0,0,0-.513-2.366,7.714,7.714,0,0,0-4.022-3.885,7.91,7.91,0,0,0-5.27.026,10.668,10.668,0,0,0-3.536,1.93c-.759.577-1.261.958-1.781.725s-.6-.86-.739-1.9a15.841,15.841,0,0,0-.7-3.254,13.39,13.39,0,0,0-2.847-4.8c-3.535-3.656-8.749-3.382-8.969-3.369a12.878,12.878,0,0,0-8.368,4.25,15.7,15.7,0,0,0-2.808,3.773,4.858,4.858,0,0,0-2.869-1.784,4.289,4.289,0,0,0-2.572.264,4.219,4.219,0,0,0-1.649,1.319,6.057,6.057,0,0,0-2.437-3.3,6.481,6.481,0,0,0-5.477-.461,7.509,7.509,0,0,0-3.693,2.638,7.678,7.678,0,0,0-1.319,2.77,5,5,0,0,0-1.913-.2,4.293,4.293,0,0,0-2.9,1.319,4.055,4.055,0,0,0-.989,2.44,23.243,23.243,0,0,0-5.759.376,17.067,17.067,0,0,0-5.783,1.933c-4.539,2.721-6.175,8.06-5.937,8.211a8.657,8.657,0,0,1,2.827-2.762,7.5,7.5,0,0,1,5.794-.39c.336.133,1.742.73,2.761,1.17a9.068,9.068,0,0,0,1.085.439,5.6,5.6,0,0,0,2.921.139c2.525-.632,3.628-3.262,3.788-3.662a8.064,8.064,0,0,0,4.918-2.7,7.721,7.721,0,0,0,1.587-3.173,7.36,7.36,0,0,0,2.5,1.465,6.654,6.654,0,0,0,4.047.188c2.994-.911,4.038-4.111,4.138-4.435a4.183,4.183,0,0,1,2.876-1.154,3.9,3.9,0,0,1,2.438.881c1.246,1.074,1.1,2.554,1.635,2.589.5.033.894-1.261,1.7-3.134a36.117,36.117,0,0,1,1.975-3.952c2.168-3.486,6.945-4.233,7.358-4.292.482-.069,5.548-.713,9.017,2.668a13.467,13.467,0,0,1,2.824,4.766,15.777,15.777,0,0,1,.693,3.234c.135,1.037.224,1.721.8,1.978s1.125-.16,1.885-.738a10.583,10.583,0,0,1,3.5-1.913,7.817,7.817,0,0,1,5.2-.029,7.607,7.607,0,0,1,3.965,3.831,6.27,6.27,0,0,1,.5,2.332c.038.644.066,1.109.544,1.445.587.414,1.252.194,2.094-.085a6.889,6.889,0,0,1,3.581-.418,6.06,6.06,0,0,1,2.858,1.227,6.683,6.683,0,0,1,2.141,4.508A6.38,6.38,0,0,0,232.277,204.588Z" transform="translate(-139.479 -185.587)" fill="#fff"/>
        <path id="Path_35" data-name="Path 35" d="M232.965,219.608c-1.347-.811-3.251,1.843-6.292,2.9a37.2,37.2,0,0,1-13.989,1.981,44.148,44.148,0,0,1-11.71-1.75c-3.709-1.227-6.861-3.536-10.937-3.311-7.838.434-14,6.348-21.478,8.058a18.757,18.757,0,0,1-15.843-3.957,12.451,12.451,0,0,1-2.829,1.5c-1.522.569-3.857,1.442-6.247.5a7.227,7.227,0,0,1-3.733-3.743,11.6,11.6,0,0,0-.92,5.387,12.966,12.966,0,0,0,3.164,7.131c4.114,4.418,10.968,3.868,16.272,3.485a38.975,38.975,0,0,0,14.813-4.17,12.472,12.472,0,0,0,5.63,2.223,12.784,12.784,0,0,0,8.263-1.85,42.118,42.118,0,0,0,5.738,1.864c4.5,1.112,15.291,3.781,23.621-1.94a19.633,19.633,0,0,0,5.361-5.587c1.216.212,6.14.932,9.655-2.1a5.781,5.781,0,0,0,2.351-3.832C233.871,222.179,234,220.229,232.965,219.608Z" transform="translate(-138.929 -198.812)" fill="#ceeaf0"/>
      </g>
      <path id="Path_36" data-name="Path 36" d="M212.221,207.006a14.436,14.436,0,0,1,7.126.078,15.591,15.591,0,0,1,5.125,2.328,10.244,10.244,0,0,1,13.89-8.781,12.309,12.309,0,0,1,7.288,6.823,8.7,8.7,0,0,1,6.557.83c.787.468,3.921,2.516,3.854,5.923-.075,3.829-4.125,5.775-4.4,5.9-3.089,1.425-7,.618-9.924-2.03a20.9,20.9,0,0,1-4.9,4.6c-10.9,7.284-25.144,1.368-26.688.7-1.144-.495-2.047-.967-2.606-1.272a13.251,13.251,0,0,1-8.182,2.525c-1.525-.07-6.32-.291-7.925-3.764a6.642,6.642,0,0,1,.743-6.319,7.276,7.276,0,0,1,4.807-2.959,8.49,8.49,0,0,1,6.766,1.993A14.5,14.5,0,0,1,212.221,207.006Z" transform="translate(-159.25 -191.228)" fill="#fff"/>
    </g>
    <g id="Group_25" data-name="Group 25" transform="translate(13.448 557.132)" opacity="0.31">
      <g id="Group_14-2" data-name="Group 14">
        <path id="Path_33-2" data-name="Path 33" d="M231.485,213.044c-3.515,3.031-8.439,2.311-9.655,2.1a19.633,19.633,0,0,1-5.361,5.587c-8.33,5.721-19.123,3.052-23.621,1.94a42.118,42.118,0,0,1-5.738-1.864,12.784,12.784,0,0,1-8.263,1.85,12.465,12.465,0,0,1-5.63-2.223A38.975,38.975,0,0,1,158.4,224.6c-5.392.39-12.049.908-16.272-3.485a11.37,11.37,0,0,1-3.176-8.554c.087-.885.584-4.669,3.731-6.774a9.168,9.168,0,0,1,5.024-1.42,8.408,8.408,0,0,1,3.1.465c1.081.4,1.852.965,2.017.776s-.534-.733-.8-1.841a2.911,2.911,0,0,1,.143-2.1c.762-1.3,2.755-1.266,3-1.259,1.671.048,2.676,1.088,3.023.729.266-.274-.339-.861-.32-2.009a3.432,3.432,0,0,1,.887-2.25,3.472,3.472,0,0,1,3.133-.842c1.333.29,1.76,1.26,2.319,1.032.588-.239.276-1.381.758-2.972.144-.476.8-2.743,2.669-3.6a5.412,5.412,0,0,1,4.633.335c2.167,1.192,2.718,3.464,3.706,3.245.6-.133.494-.954,1.4-1.464a3.3,3.3,0,0,1,3.02.15c1.774.965,1.688,3.044,2.456,3.082.962.047,1.063-3.226,3.111-5.93,2.9-3.824,7.947-4.206,8.33-4.229.327-.02,5.439-.256,8.929,3.353a13.35,13.35,0,0,1,2.835,4.786c1,2.946.471,4.738,1.464,5.182,1.121.5,2.121-1.672,5.353-2.653a7.917,7.917,0,0,1,5.237-.027,7.7,7.7,0,0,1,3.994,3.858c.878,2.026.143,3.13,1.031,3.756,1.187.836,2.718-1.018,5.655-.512a6.119,6.119,0,0,1,2.882,1.237,5,5,0,0,1-.191,8.384Z" transform="translate(-138.911 -185.62)" fill="#e9f4f6"/>
        <path id="Path_34-2" data-name="Path 34" d="M232.277,204.588a6.674,6.674,0,0,0-2.905-1.248,6.978,6.978,0,0,0-3.631.422c-.846.28-1.458.482-2,.1-.437-.308-.462-.73-.5-1.368a6.369,6.369,0,0,0-.513-2.366,7.714,7.714,0,0,0-4.022-3.885,7.91,7.91,0,0,0-5.27.026,10.668,10.668,0,0,0-3.536,1.93c-.759.577-1.261.958-1.781.725s-.6-.86-.739-1.9a15.841,15.841,0,0,0-.7-3.254,13.39,13.39,0,0,0-2.847-4.8c-3.535-3.656-8.749-3.382-8.969-3.369a12.878,12.878,0,0,0-8.368,4.25,15.7,15.7,0,0,0-2.808,3.773,4.858,4.858,0,0,0-2.869-1.784,4.289,4.289,0,0,0-2.572.264,4.219,4.219,0,0,0-1.649,1.319,6.057,6.057,0,0,0-2.437-3.3,6.481,6.481,0,0,0-5.477-.461,7.509,7.509,0,0,0-3.693,2.638,7.678,7.678,0,0,0-1.319,2.77,5,5,0,0,0-1.913-.2,4.293,4.293,0,0,0-2.9,1.319,4.055,4.055,0,0,0-.989,2.44,23.243,23.243,0,0,0-5.759.376,17.067,17.067,0,0,0-5.783,1.933c-4.539,2.721-6.175,8.06-5.937,8.211a8.657,8.657,0,0,1,2.827-2.762,7.5,7.5,0,0,1,5.794-.39c.336.133,1.742.73,2.761,1.17a9.068,9.068,0,0,0,1.085.439,5.6,5.6,0,0,0,2.921.139c2.525-.632,3.628-3.262,3.788-3.662a8.064,8.064,0,0,0,4.918-2.7,7.721,7.721,0,0,0,1.587-3.173,7.36,7.36,0,0,0,2.5,1.465,6.654,6.654,0,0,0,4.047.188c2.994-.911,4.038-4.111,4.138-4.435a4.183,4.183,0,0,1,2.876-1.154,3.9,3.9,0,0,1,2.438.881c1.246,1.074,1.1,2.554,1.635,2.589.5.033.894-1.261,1.7-3.134a36.117,36.117,0,0,1,1.975-3.952c2.168-3.486,6.945-4.233,7.358-4.292.482-.069,5.548-.713,9.017,2.668a13.467,13.467,0,0,1,2.824,4.766,15.777,15.777,0,0,1,.693,3.234c.135,1.037.224,1.721.8,1.978s1.125-.16,1.885-.738a10.583,10.583,0,0,1,3.5-1.913,7.817,7.817,0,0,1,5.2-.029,7.607,7.607,0,0,1,3.965,3.831,6.27,6.27,0,0,1,.5,2.332c.038.644.066,1.109.544,1.445.587.414,1.252.194,2.094-.085a6.889,6.889,0,0,1,3.581-.418,6.06,6.06,0,0,1,2.858,1.227,6.683,6.683,0,0,1,2.141,4.508A6.38,6.38,0,0,0,232.277,204.588Z" transform="translate(-139.479 -185.587)" fill="#fff"/>
        <path id="Path_35-2" data-name="Path 35" d="M232.965,219.608c-1.347-.811-3.251,1.843-6.292,2.9a37.2,37.2,0,0,1-13.989,1.981,44.148,44.148,0,0,1-11.71-1.75c-3.709-1.227-6.861-3.536-10.937-3.311-7.838.434-14,6.348-21.478,8.058a18.757,18.757,0,0,1-15.843-3.957,12.451,12.451,0,0,1-2.829,1.5c-1.522.569-3.857,1.442-6.247.5a7.227,7.227,0,0,1-3.733-3.743,11.6,11.6,0,0,0-.92,5.387,12.966,12.966,0,0,0,3.164,7.131c4.114,4.418,10.968,3.868,16.272,3.485a38.975,38.975,0,0,0,14.813-4.17,12.472,12.472,0,0,0,5.63,2.223,12.784,12.784,0,0,0,8.263-1.85,42.118,42.118,0,0,0,5.738,1.864c4.5,1.112,15.291,3.781,23.621-1.94a19.633,19.633,0,0,0,5.361-5.587c1.216.212,6.14.932,9.655-2.1a5.781,5.781,0,0,0,2.351-3.832C233.871,222.179,234,220.229,232.965,219.608Z" transform="translate(-138.929 -198.812)" fill="#ceeaf0"/>
      </g>
      <path id="Path_36-2" data-name="Path 36" d="M212.221,207.006a14.436,14.436,0,0,1,7.126.078,15.591,15.591,0,0,1,5.125,2.328,10.244,10.244,0,0,1,13.89-8.781,12.309,12.309,0,0,1,7.288,6.823,8.7,8.7,0,0,1,6.557.83c.787.468,3.921,2.516,3.854,5.923-.075,3.829-4.125,5.775-4.4,5.9-3.089,1.425-7,.618-9.924-2.03a20.9,20.9,0,0,1-4.9,4.6c-10.9,7.284-25.144,1.368-26.688.7-1.144-.495-2.047-.967-2.606-1.272a13.251,13.251,0,0,1-8.182,2.525c-1.525-.07-6.32-.291-7.925-3.764a6.642,6.642,0,0,1,.743-6.319,7.276,7.276,0,0,1,4.807-2.959,8.49,8.49,0,0,1,6.766,1.993A14.5,14.5,0,0,1,212.221,207.006Z" transform="translate(-159.25 -191.228)" fill="#fff"/>
    </g>
  </g>
</svg>
