<svg xmlns="http://www.w3.org/2000/svg" width="28.618" height="37.653" viewBox="0 0 28.618 37.653">
  <path id="Path_6653" data-name="Path 6653" d="M0,618.237a.676.676,0,0,1,.7-.773c.393-.016,9.264.127,10.819.2a.732.732,0,0,1,.786.818c-.047.928.209,19.664.248,21.3.019.8,0,1.6-.031,2.392-.016.392.113.544.5.494,2.8-.36,13.33.083,13.67.08.967-.011,1.447.374,1.51,1.322.123,1.863.2,3.729.285,5.593.053,1.138.08,2.276.134,3.414a1.3,1.3,0,0,1-1.3,1.446c-1.531.108-24.171.66-24.883.582a1.02,1.02,0,0,1-.977-.8c-.171-.84-1.329-28.265-1.46-36.076" transform="translate(0 -617.464)" fill="#fbb158" fill-rule="evenodd"/>
</svg>
