<svg xmlns="http://www.w3.org/2000/svg" width="28.666" height="37.652" viewBox="0 0 28.666 37.652">
  <path id="Path_6661" data-name="Path 6661" d="M1051.481,1296.459c3.007-.132,5.979-.077,8.982-.128,1.244-.021,4.625-.641,4.381,1.4a48.119,48.119,0,0,0-.1,7.744c.027.639-.2.833-.83.8-.535-.03-1.075.033-1.613.027-7.564-.082-15.133.362-22.693.518-.392.008-.784.011-1.175,0a1.439,1.439,0,0,1-1.187-1.193c-.038-1.514-.05-3.029-.086-4.543-.017-.7-.039-1.395-.11-2.087a2.05,2.05,0,0,1,.745-1.752,170.8,170.8,0,0,0,15-16.5c.133-.166.257-.342.417-.556l-3.051-.19c-1.513-.1-3.026-.2-4.54-.285-.764-.04-1.532-.006-2.3-.051-.659-.039-.8-.208-.83-.874-.078-1.669-.148-3.338-.224-5.008-.055-1.2-1.078-4.459,1.007-4.5,1.5-.027,3-.094,4.5-.106,3.223-.027,6.446.039,9.667.166,1.567.062,3.131.17,4.7.232.941.037,2.549-.253,3.092.766a7.233,7.233,0,0,1,.214,2.4q.1,1.359.192,2.718c.214,3.013-.034,4.782-2.073,7.119q-3.866,4.434-7.72,8.877c-1.433,1.661-2.888,3.3-4.374,5" transform="translate(-1037.045 -1269.177)" fill="#fbb158" fill-rule="evenodd"/>
</svg>
