<svg xmlns="http://www.w3.org/2000/svg" width="11.119" height="37.652" viewBox="0 0 11.119 37.652">
  <path id="Path_6658" data-name="Path 6658" d="M610.9,359.513c-.153-.012-.3-.025-.451-.034-1.04-.065-1.427-.5-1.429-1.612-.005-3.054-.3-29.587-.337-30.934-.022-.887-.045-3.541,0-4.427.041-.866,9.942-.784,10.011-.209.074.615.117,1.235.155,1.854.14,2.355.316,4.709.4,7.067.07,2.056.245,20.4.364,23.266.034.833.112,1.663.167,2.5a2.217,2.217,0,0,1-1.941,2.177c-1.412.069-2.821.225-4.233.307-.9.052-1.8.035-2.7.049" transform="translate(-608.655 -321.861)" fill="#417f88" fill-rule="evenodd"/>
</svg>
