<svg xmlns="http://www.w3.org/2000/svg" width="24.246" height="35.889" viewBox="0 0 24.246 35.889">
  <path id="Path_6659" data-name="Path 6659" d="M259.788,15.777c.415.137.722.244,1.032.339a9.593,9.593,0,0,1,4.551,2.745,13.971,13.971,0,0,1,1.872,2.4,12.27,12.27,0,0,1,1.156,3.06,12.568,12.568,0,0,1,.323,3.132,6.618,6.618,0,0,1-2.258,5.02,11.187,11.187,0,0,1-3.562,2.243,15.066,15.066,0,0,1-4.381.968c-1.622.081-3.244.171-4.867.2-.923.018-1.85-.053-2.772-.125-1.378-.108-2.754-.249-4.131-.385a1.91,1.91,0,0,1-.8-.154,1.644,1.644,0,0,1-.689-.734,4.933,4.933,0,0,1-.206-1.4c-.079-1.431-.137-2.863-.2-4.295-.072-1.769-.155-3.538-.2-5.308-.071-2.744-.136-5.488-.164-8.232-.019-1.8.049-3.61.046-5.415,0-2.16-.048-4.32-.058-6.479a11.064,11.064,0,0,1,.095-1.643A1.5,1.5,0,0,1,245.894.5a15.7,15.7,0,0,1,2.9-.439c4.717-.23,10.951-.057,13.866,4.72a8.535,8.535,0,0,1,1.087,4.536,7.32,7.32,0,0,1-1.286,4.2,9.783,9.783,0,0,1-1.639,1.554,10.984,10.984,0,0,1-1.032.7m-5.725,7.8c-.006.112-.021.232-.018.351.04,1.378.057,2.757.135,4.132.064,1.123.094,1.106,1.145.8a2.335,2.335,0,0,0,1.807-3.162,2.982,2.982,0,0,0-3.069-2.121m-1.07-11.032c.6-.333,1.106-.58,1.582-.878a2.728,2.728,0,0,0,1.137-2.637,2.107,2.107,0,0,0-1.493-1.9,7.87,7.87,0,0,0-1.226-.317Z" transform="translate(-244.479 0)" fill="#417f88" fill-rule="evenodd"/>
</svg>
