<svg xmlns="http://www.w3.org/2000/svg" width="38.513" height="40.986" viewBox="0 0 38.513 40.986">
  <path id="Path_6662" data-name="Path 6662" d="M30.472,339.618c-.622.027-1.2.045-1.769.078-1.743.1-3.486.208-5.23.306a1.479,1.479,0,0,1-.688-.048c-.244-.122-.585-.346-.6-.548-.157-1.807-.257-3.617-.361-5.428A15.017,15.017,0,0,1,21.8,332.3a1.387,1.387,0,0,1,1.45-1.4c5.785-.58,11.526-1.281,17.345-1.507.479-.018.689.16.917.613a16.022,16.022,0,0,1,1.279,6.1,22.881,22.881,0,0,1-.247,4.45c-1.028,8.969-10.975,15.02-20.231,14.041a19.46,19.46,0,0,1-8.2-3.182A22.029,22.029,0,0,1,4.961,339.3c-2.827-9.782,3.955-20.409,13.828-23.865a34.818,34.818,0,0,1,9.613-1.675c1.405-.077,2.82-.038,4.229-.014,1.258.022,2.517.068,3.771.154,1.3.089,2.015.706,1.876,2.026a10.158,10.158,0,0,0,.132,1.953c.119,1.3.246,2.6.372,3.895.059.613.125,1.226.183,1.839a1.483,1.483,0,0,1,.016.489c-.234.928-.178,1.114-1.3,1.028-1.373-.1-2.739-.33-4.113-.381a21.678,21.678,0,0,0-12.057,2.9c-3.431,2.137-6.3,6.418-4.741,10.292,1.633,4.048,7.238,6.337,11.349,4.051a5.513,5.513,0,0,0,2.239-2.075,2.412,2.412,0,0,0,.114-.3" transform="translate(-4.314 -313.711)" fill="#edc8b6" fill-rule="evenodd"/>
</svg>
