<svg xmlns="http://www.w3.org/2000/svg" width="125.312" height="114.369" viewBox="0 0 125.312 114.369">
  <g id="Group_5301" data-name="Group 5301" transform="translate(-0.397 -697.631)">
    <path id="Path_6450" data-name="Path 6450" d="M113.9,442.816a28.739,28.739,0,1,1-28.735-28.265A28.5,28.5,0,0,1,113.9,442.816" transform="translate(0 312)" fill="#ff9f9f"/>
    <path id="Path_6455" data-name="Path 6455" d="M115.192,447.98c-8.423-6.9-19.948-5.378-30.006-4.368-10.669,1.074-22.077,1.93-32.272-2.216-7.323-2.979-12.465-7.818-14.53-15.611-2.137-8.066-2.784-16.379-6.878-23.837C24.608,389.377,12.925,385.519.4,385.633V500H117.221c8.824-16.831,14.366-38.6-2.029-52.02" transform="translate(0 312)" fill="#ff6969"/>
  </g>
</svg>
