<svg id="Group_5234" data-name="Group 5234" xmlns="http://www.w3.org/2000/svg" xmlns:xlink="http://www.w3.org/1999/xlink" width="252.096" height="188.475" viewBox="0 0 252.096 188.475">
  <defs>
    <clipPath id="clip-path">
      <rect id="Rectangle_1356" data-name="Rectangle 1356" width="252.096" height="188.475" fill="none"/>
    </clipPath>
  </defs>
  <g id="Group_5233" data-name="Group 5233" clip-path="url(#clip-path)">
    <path id="Path_6290" data-name="Path 6290" d="M405.59,188.765a3.886,3.886,0,0,1-2.038-3.338,7.134,7.134,0,0,1-.067-.965q-.181-.86.164-.341c.283.138.641.68.922.9a.726.726,0,0,0,.99-.26,5.936,5.936,0,0,1,2.122-2.634c2.318-1.276,2.575,1.261,2.166,2.7a5.5,5.5,0,0,1-4.564,3.818c-.918.136-.528,1.531.384,1.4,3.364-.5,6.527-3.927,5.711-7.492a2.7,2.7,0,0,0-2.963-2.347c-1.87.313-3.323,2.255-4.105,3.83l.99-.26c-.706-.539-1.126-1.564-2.205-1.364-.914.169-1.05,1.02-1.06,1.793-.031,2.3.624,4.737,2.824,5.819.833.41,1.567-.838.731-1.249" transform="translate(-190.282 -85.27)" fill="#27aae1"/>
    <path id="Path_6291" data-name="Path 6291" d="M245.135,196.778a3.887,3.887,0,0,0,2.038-3.338,7.045,7.045,0,0,0,.067-.965q.181-.86-.163-.341c-.283.138-.642.68-.923.9a.726.726,0,0,1-.99-.26,5.935,5.935,0,0,0-2.122-2.634c-2.318-1.276-2.576,1.261-2.166,2.7a5.5,5.5,0,0,0,4.564,3.818c.918.136.527,1.531-.385,1.4-3.365-.5-6.527-3.927-5.711-7.492a2.7,2.7,0,0,1,2.964-2.347c1.87.313,3.322,2.255,4.1,3.83l-.99-.26c.706-.539,1.125-1.564,2.2-1.364.914.169,1.05,1.02,1.06,1.793.032,2.3-.624,4.737-2.824,5.819-.832.41-1.567-.838-.73-1.249" transform="translate(-113.22 -89.062)" fill="#27aae1"/>
    <path id="Path_6292" data-name="Path 6292" d="M330.487,144.72c-1.123,8.492-2.844,16.057-8.712,22.618-5.93,6.63-15.214,10.986-24.207,10.309-9.452-.712-17.3-7.916-21.324-16.148-4.229-8.658-2.476-18.293-.508-27.306.2-.908-1.2-1.3-1.4-.384-1.61,7.371-3.252,15.289-1.42,22.785A32.384,32.384,0,0,0,285.7,174.814c12.658,8.808,29.956,2.958,38.791-8.515,4.989-6.477,6.391-13.646,7.44-21.58.122-.92-1.326-.911-1.447,0" transform="translate(-128.791 -63.085)" fill="#27aae1"/>
    <path id="Path_6293" data-name="Path 6293" d="M360.121,163.977a7.488,7.488,0,0,0-3.29-6.191,4.55,4.55,0,0,0-5.727.475c-.591.638.363,1.6.956.956,1.253-1.353,3.277-.965,4.575.1a6.227,6.227,0,0,1,2.132,4.659c.031.868,1.384.872,1.353,0" transform="translate(-166.089 -74.307)" fill="#27aae1"/>
    <path id="Path_6294" data-name="Path 6294" d="M297.168,145.129a4.891,4.891,0,0,0-4.889-2.561,6.151,6.151,0,0,0-4.8,4.07c-.331.8.966,1.142,1.293.356,1.22-2.936,5.418-4.613,7.244-1.189.406.762,1.563.085,1.157-.676" transform="translate(-136.035 -67.462)" fill="#27aae1"/>
    <path id="Path_6295" data-name="Path 6295" d="M325.644,172.772c-5.361,7.071-12.462,12.4-21.764,10.175-8.7-2.078-13.981-8.4-14.823-17.221-.089-.919-1.536-.928-1.447,0,.9,9.444,6.528,16.4,15.886,18.616,10.006,2.373,17.6-3.191,23.4-10.84.563-.742-.693-1.464-1.249-.731" transform="translate(-136.123 -78.11)" fill="#27aae1"/>
    <path id="Path_6296" data-name="Path 6296" d="M289.12,163.433a10.671,10.671,0,0,1-3.9,1.082c-.461.037-.465.761,0,.724a11.656,11.656,0,0,0,4.269-1.181c.418-.206.052-.831-.365-.625" transform="translate(-134.828 -77.333)" fill="#27aae1"/>
    <path id="Path_6297" data-name="Path 6297" d="M359.136,176.266a12.569,12.569,0,0,0,2.725,3.562c.343.313.856-.2.511-.511a12.007,12.007,0,0,1-2.612-3.415c-.213-.415-.837-.049-.625.365" transform="translate(-169.957 -83.167)" fill="#27aae1"/>
    <path id="Path_6298" data-name="Path 6298" d="M318.53,167.717a8.14,8.14,0,0,0-4.466-1.316.362.362,0,0,0,0,.724,7.408,7.408,0,0,1,4.1,1.217c.392.253.755-.372.365-.625" transform="translate(-148.48 -78.757)" fill="#27aae1"/>
    <path id="Path_6299" data-name="Path 6299" d="M381.744,164.067c1.227-.694,2.369.318,2.891,1.36a3.712,3.712,0,0,1-.417,3.674c-1.137,1.916-3.044,3.529-5.38,2.709-.88-.309-1.259,1.089-.384,1.4,3.6,1.264,7.376-2.144,7.934-5.647.46-2.889-2.378-6.436-5.373-4.742a.724.724,0,0,0,.73,1.249" transform="translate(-178.886 -76.853)" fill="#27aae1"/>
    <path id="Path_6300" data-name="Path 6300" d="M382.192,170.344c1.039-.213.745,1.429.473,1.9a1.5,1.5,0,0,1-1.715.734.362.362,0,0,0-.193.7,2.3,2.3,0,0,0,2.8-1.706c.3-1.089-.181-2.6-1.556-2.321-.456.094-.263.792.192.7" transform="translate(-180.09 -80.277)" fill="#27aae1"/>
    <path id="Path_6301" data-name="Path 6301" d="M269.313,140.919c-2.311-2.728-6.413-.131-6.786,2.892-.428,3.472,1.609,7.588,5.393,7.771.931.045.928-1.4,0-1.447-2.187-.106-3.343-1.957-3.77-3.928a4.427,4.427,0,0,1,.33-3.506c.783-1.169,2.517-2.284,3.81-.759.6.711,1.622-.317,1.023-1.023" transform="translate(-124.227 -66.152)" fill="#27aae1"/>
    <path id="Path_6302" data-name="Path 6302" d="M271.4,147.972c-1.147-.766-2.149.514-2.275,1.582a2.3,2.3,0,0,0,1.991,2.645c.461.058.456-.666,0-.724A1.517,1.517,0,0,1,269.822,150c-.032-.609.377-1.962,1.208-1.407.388.259.751-.367.366-.625" transform="translate(-127.365 -69.925)" fill="#27aae1"/>
    <path id="Path_6303" data-name="Path 6303" d="M367.974,154.169a14.1,14.1,0,0,0-1.776-2.424c-.627-.691-1.648.334-1.023,1.023a12.3,12.3,0,0,1,1.55,2.132.724.724,0,0,0,1.249-.731" transform="translate(-172.744 -71.712)" fill="#27aae1"/>
    <path id="Path_6304" data-name="Path 6304" d="M294.829,134.631a11.625,11.625,0,0,1-2.154,1.2.674.674,0,0,0-.241.917.688.688,0,0,0,.917.241,11.63,11.63,0,0,0,2.154-1.2c.7-.494.03-1.656-.676-1.157" transform="translate(-138.368 -63.663)" fill="#27aae1"/>
    <path id="Path_6305" data-name="Path 6305" d="M273.938,108.614c-2.306-2.616-2.888-7.228-3.057-10.557a14.484,14.484,0,0,1,4.336-11.419c5.753-5.758,13.8-7.306,21.656-7.4,1.551-.018,3.108,0,4.656.113a24.09,24.09,0,0,1,4.092.944c1.7.409,3.817-.161,5.551-.221,9.086-.315,17.226,2.881,22.624,10.458,6.081,8.535,7.394,24.526-4.219,29.251-.9.366-.506,1.844.406,1.473,9.755-3.97,11.747-16.116,8.469-25.121-3.111-8.545-10.824-15.739-19.934-17.2a37.053,37.053,0,0,0-6.7-.4c-1.642.036-3.391.4-5.025.309a18.619,18.619,0,0,1-2.6-.685,30.044,30.044,0,0,0-5.793-.445c-8.515-.08-17.276,1.333-23.73,7.336a15.994,15.994,0,0,0-5.348,12.332c.094,4,.775,9.2,3.531,12.321.652.739,1.729-.345,1.08-1.08" transform="translate(-127.469 -36.776)" fill="#27aae1"/>
    <path id="Path_6306" data-name="Path 6306" d="M330.86,88.924c1.829,3.259,3.466,6.75,6.452,9.127s6.674,3.534,10.221,4.777c4.3,1.51,8.738,3.364,11.2,7.453a11.537,11.537,0,0,1,1.322,7.751c-.175,1.314-.47,2.595-.768,3.884a10.478,10.478,0,0,1-.872,3.273h.659c-.018.1-.036.2-.054.3.373-.321-.169-.859-.54-.54l-.071.061a.384.384,0,0,0-.06.463l.066.1a.388.388,0,0,0,.659,0c.917-1.307,1.077-3.871,1.393-5.417a17.754,17.754,0,0,0,.429-6.1,12.958,12.958,0,0,0-5.93-8.684c-3.759-2.505-8.268-3.425-12.372-5.183a17.949,17.949,0,0,1-6.316-4.133c-2-2.185-3.316-4.957-4.755-7.522a.382.382,0,0,0-.659.386" transform="translate(-156.571 -41.817)" fill="#27aae1"/>
    <path id="Path_6307" data-name="Path 6307" d="M335.835,85.625a18.918,18.918,0,0,0,8.35,6.706c4.268,1.708,9.017,1.868,13.161,3.932,4.617,2.3,6.723,7.051,7.9,11.859,1.324,5.4.259,11.2-3.68,15.246-.343.352.2.893.54.54,6.338-6.516,5.391-17.612.193-24.614-2.461-3.315-6.479-4.715-10.339-5.649-6.191-1.5-11.563-2.986-15.469-8.406-.284-.4-.948-.014-.659.386" transform="translate(-158.916 -40.265)" fill="#27aae1"/>
    <path id="Path_6308" data-name="Path 6308" d="M330.777,80.518c-3.6,2.971-8.553,7.369-8.451,12.48a.764.764,0,0,0,1.528,0c-.092-4.633,4.752-8.719,8-11.4.759-.626-.327-1.7-1.08-1.081" transform="translate(-152.555 -38.021)" fill="#27aae1"/>
    <path id="Path_6309" data-name="Path 6309" d="M301.079,100.14c-6.87-2-15.429,1.527-21.064,5.463-4.329,3.024-5.343,7.231-4.938,12.35.038.487.8.491.764,0-.4-5.076.652-9.055,4.979-11.974,5.4-3.644,13.55-6.995,20.057-5.1a.382.382,0,0,0,.2-.737" transform="translate(-130.154 -47.123)" fill="#27aae1"/>
    <path id="Path_6310" data-name="Path 6310" d="M299.511,94.015c-5.583-2.7-11.769-2.1-17.426.093-4.66,1.807-9.435,4.37-11.4,9.226-.184.456.554.654.736.2,1.958-4.843,7.134-7.383,11.784-9.036,5.212-1.853,10.833-2.291,15.917.173.44.214.829-.445.386-.659" transform="translate(-128.102 -43.645)" fill="#27aae1"/>
    <path id="Path_6311" data-name="Path 6311" d="M339.128,82.217c4.71,7.462,14.055,6.643,21.069,10.426a16.552,16.552,0,0,1,8.206,11.926,28.268,28.268,0,0,1,.446,7.389c-.055.7-1.323,8.313-2.632,7.82-.46-.173-.659.565-.2.737l.31.116a.384.384,0,0,0,.371-.1c3-2.577,3.161-8.8,2.921-12.379-.288-4.3-1.336-8.582-4.062-12.017-6.6-8.321-20.015-5.193-25.767-14.306-.262-.415-.923-.032-.659.386" transform="translate(-160.48 -38.646)" fill="#27aae1"/>
    <path id="Path_6312" data-name="Path 6312" d="M355.742,279.624a55.022,55.022,0,0,0,5.712,10.072l.259-.99c-1.641.7-3.251,1.444-4.818,2.293-1.3.7-3.155,2.477-4.553,2.783-2.708.593-4.087-1.969-5.437-3.765-1.142-1.52-2.228-3.079-3.282-4.661-.514-.771-1.768-.047-1.25.731,1.353,2.029,2.766,4.013,4.263,5.939,1.015,1.307,2.222,3.34,4.009,3.7,1.54.308,2.863-1.011,4.049-1.76a53.663,53.663,0,0,1,7.75-4.008.725.725,0,0,0,.26-.99,55.042,55.042,0,0,1-5.712-10.072c-.371-.851-1.618-.115-1.249.731" transform="translate(-161.986 -131.82)" fill="#27aae1"/>
    <path id="Path_6313" data-name="Path 6313" d="M325.924,294.717a12.407,12.407,0,0,0,1,4.076c.3.673.929,1.333,1.162,2,.63,1.795-.122,1.955-1.577,2.651-2.022.967-4.779,2.91-6.766,1.455-1.694-1.24-3.19-4.064-4.475-5.7-.575-.732-1.592.3-1.023,1.023l3.2,4.072c.661.843,1.406,2.2,2.392,2.717,1.927,1.017,4.372-.865,6.046-1.666,1.243-.594,4.293-1.313,4.551-3.039.116-.78-.384-1.2-.738-1.789-1.2-2-2.095-3.369-2.317-5.8-.084-.92-1.532-.929-1.447,0" transform="translate(-148.65 -139.161)" fill="#27aae1"/>
    <path id="Path_6314" data-name="Path 6314" d="M370.76,303.861a10.761,10.761,0,0,0,12.89,5.64l-.89-.505q.7,3.75,1.409,7.5a13.1,13.1,0,0,0,1.676,5.248c1.213,1.728,4.206,3.358,5.963,1.419,1.706-1.883.913-5.778.055-7.835a14.132,14.132,0,0,0-7.534-7.36c-.846-.366-1.584.88-.731,1.249,3.816,1.65,9.077,6.572,7.6,11.354-.859,2.778-3.224,1.84-4.335-.116a11.9,11.9,0,0,1-1.209-3.875c-.506-2.656-1-5.313-1.5-7.97a.73.73,0,0,0-.89-.506,9.32,9.32,0,0,1-11.256-4.976c-.4-.842-1.644-.108-1.249.731" transform="translate(-175.444 -143.295)" fill="#27aae1"/>
    <path id="Path_6315" data-name="Path 6315" d="M333.147,316.153c2.129,4.633,6.966,8.466,12.253,6.886l-.89-.505q.7,3.75,1.409,7.5a13.121,13.121,0,0,0,1.676,5.248c1.235,1.763,4.218,3.429,5.923,1.307,1.625-2.024,1.01-5.529.1-7.686a14.043,14.043,0,0,0-7.524-7.229c-.846-.365-1.584.882-.731,1.249,4.2,1.81,8.371,6.074,7.588,11.042a2.162,2.162,0,0,1-1.4,1.944c-1.19.517-2.127-.481-2.941-1.916a11.913,11.913,0,0,1-1.209-3.875c-.506-2.656-1-5.314-1.5-7.971a.73.73,0,0,0-.89-.505c-4.7,1.406-8.766-2.19-10.618-6.221-.388-.845-1.636-.111-1.249.731" transform="translate(-157.643 -149.112)" fill="#27aae1"/>
    <path id="Path_6316" data-name="Path 6316" d="M327.677,210.98a74.572,74.572,0,0,0,5.738,25.43c.81,1.924,1.979,3.753,2.723,5.688.67,1.743.978,3.2-.695,4.47a14.952,14.952,0,0,1-2.891,1.48c-4.648,2.112-9.314,4.185-13.971,6.278l-6.52,2.93c-.975.438-2.67,1.631-3.725,1.674-2.039.084-2.376-2.054-2.905-3.557a42.1,42.1,0,0,1-1.931-13.991c0-9.134,1.548-18.349-1.453-27.2-.3-.877-1.7-.5-1.4.385,2.906,8.571,1.447,17.517,1.4,26.362a51.2,51.2,0,0,0,1.017,11.41,29.17,29.17,0,0,0,1.641,5.161c.395.92.957,2.837,2,3.256.781.313,1.676-.271,2.355-.575q3.261-1.462,6.52-2.93l13.039-5.86c2.836-1.274,7.258-2.325,9.092-5.051,1.67-2.482-.421-5.03-1.521-7.276a71.9,71.9,0,0,1-7.073-28.082c-.043-.927-1.49-.932-1.447,0" transform="translate(-142.278 -99.527)" fill="#27aae1"/>
    <path id="Path_6317" data-name="Path 6317" d="M278.657,209.63c-1.535.549-2.7,1.759-4.221,2.317a17.027,17.027,0,0,1-9.3.563c-5.2-1.2-9.365-4.715-13.272-8.145-.7-.613-1.725.407-1.023,1.023,4.1,3.6,8.47,7.248,13.911,8.517a17.832,17.832,0,0,0,7.646-.012,13.247,13.247,0,0,0,3.339-.933,32.475,32.475,0,0,1,3.3-1.935c.871-.311.5-1.71-.384-1.4" transform="translate(-118.611 -96.636)" fill="#27aae1"/>
    <path id="Path_6318" data-name="Path 6318" d="M355.555,204.171c9.353,2.691,23.713,2.758,27.679-8.212.317-.877-1.081-1.255-1.4-.385-3.663,10.131-17.419,9.641-25.9,7.2a.724.724,0,0,0-.384,1.4" transform="translate(-168.042 -92.331)" fill="#27aae1"/>
    <path id="Path_6319" data-name="Path 6319" d="M329.475,214.461c-.77,3.061-1.833,6.191-5.115,7.32-4.247,1.461-7.46-1.011-8.331-5.065-.2-.91-1.591-.525-1.4.385.908,4.228,3.906,7.067,8.484,6.488,4.732-.6,6.7-4.579,7.753-8.743a.724.724,0,0,0-1.4-.384" transform="translate(-148.906 -101.26)" fill="#27aae1"/>
    <path id="Path_6320" data-name="Path 6320" d="M330.431,212.408c-.787,2.468-1.412,5.473-3.132,7.491a14.349,14.349,0,0,1-5.714,3.695c-5.772,1.966-10.056-3.118-10.856-8.332-.071-.459-.768-.264-.7.193.768,5,4.563,10.037,10.2,9.227a14.033,14.033,0,0,0,7.05-3.724c2.243-2.141,2.942-5.516,3.849-8.356.142-.445-.557-.635-.7-.192" transform="translate(-146.734 -100.413)" fill="#27aae1"/>
    <path id="Path_6321" data-name="Path 6321" d="M367.446,286.02a9.887,9.887,0,0,1-4.57.688c-.464-.039-.461.685,0,.723a10.318,10.318,0,0,0,4.762-.713c.427-.171.241-.871-.192-.7" transform="translate(-171.584 -135.36)" fill="#27aae1"/>
    <path id="Path_6322" data-name="Path 6322" d="M320.279,305a5.729,5.729,0,0,1-1.39,2.113c-.384.259-.023.886.365.625a6.19,6.19,0,0,0,1.65-2.372c.223-.409-.4-.774-.625-.365" transform="translate(-150.852 -144.269)" fill="#27aae1"/>
    <path id="Path_6323" data-name="Path 6323" d="M323.292,104.457c4.12,5.418,10.126,8.3,16.065,11.3,6.664,3.36,13.754,7.611,15.49,15.449.2.909,1.6.524,1.4-.385-3.427-15.472-23.191-15.9-31.7-27.091-.556-.732-1.813-.012-1.249.73" transform="translate(-152.946 -48.949)" fill="#27aae1"/>
    <path id="Path_6324" data-name="Path 6324" d="M300.975,103.84c-10.409.224-20.609,6.269-24.687,16.03-.358.859,1.041,1.233,1.4.385,3.819-9.14,13.595-14.759,23.291-14.968a.724.724,0,0,0,0-1.447" transform="translate(-130.739 -49.147)" fill="#27aae1"/>
    <path id="Path_6325" data-name="Path 6325" d="M338.864,266.964q-15.546,7.347-31.5,13.774c-.426.172-.24.872.192.7q16.036-6.46,31.671-13.848c.421-.2.054-.823-.365-.625" transform="translate(-145.361 -126.335)" fill="#27aae1"/>
    <path id="Path_6326" data-name="Path 6326" d="M336.9,262.418q-15.677,6.621-31.584,12.674c-.431.164-.244.864.192.7q15.992-6.088,31.757-12.747c.428-.181.06-.8-.365-.625" transform="translate(-144.39 -124.187)" fill="#27aae1"/>
    <path id="Path_6327" data-name="Path 6327" d="M334.573,251.685a118.237,118.237,0,0,1-29.345,5.9c-.461.033-.465.757,0,.724a119.009,119.009,0,0,0,29.537-5.923c.439-.148.251-.847-.192-.7" transform="translate(-144.3 -119.112)" fill="#27aae1"/>
    <path id="Path_6328" data-name="Path 6328" d="M332.7,246.407q-14.033,3-28.3,4.589c-.457.051-.462.775,0,.724q14.358-1.6,28.494-4.615c.455-.1.263-.795-.192-.7" transform="translate(-143.909 -116.619)" fill="#27aae1"/>
    <path id="Path_6329" data-name="Path 6329" d="M342.348,44.742a.362.362,0,0,0,0-.724.362.362,0,0,0,0,.724" transform="translate(-161.867 -20.834)" fill="#39b54a"/>
    <path id="Path_6330" data-name="Path 6330" d="M58.258,127.4c-3.746,15.521.169,32.507,14.485,41.2,6.749,4.1,14.738,5.556,22.272,2.8a32.508,32.508,0,0,0,16.873-14.4c4.518-8.248,4.086-18.737,4.145-27.852a.724.724,0,0,0-1.447,0c-.062,9.531.438,20.527-4.972,28.837C104.526,165.8,95.076,171.956,85.54,171.4c-9.086-.534-17.672-6.65-22.4-14.223-5.473-8.767-5.856-19.575-3.486-29.393.219-.9-1.177-1.291-1.4-.384" transform="translate(-26.941 -60.051)" fill="#1c75bc"/>
    <path id="Path_6331" data-name="Path 6331" d="M72.662,149.7a6.542,6.542,0,0,1,2.306-3.838c1.4-1.064,3.441-1.2,4.361.561.379.727,1.478.084,1.1-.643a3.855,3.855,0,0,0-4.86-1.717,7.256,7.256,0,0,0-4.134,5.3c-.189.8,1.039,1.137,1.228.339" transform="translate(-33.8 -68.057)" fill="#1c75bc"/>
    <path id="Path_6332" data-name="Path 6332" d="M136.72,144.179c3.045-2.864,6.749.47,6.937,3.839.052.926,1.5.932,1.447,0a6.686,6.686,0,0,0-3.283-5.7,5.3,5.3,0,0,0-6.124.842c-.679.639.345,1.661,1.023,1.023" transform="translate(-64.119 -67.066)" fill="#1c75bc"/>
    <path id="Path_6333" data-name="Path 6333" d="M75.078,165.65c4.014,8.822,10.4,15.866,20.776,15.555,9.46-.283,16.279-5.742,19.183-14.628.29-.887-1.107-1.267-1.4-.384-2.8,8.558-9.535,13.64-18.645,13.576-9.491-.067-15.028-6.844-18.67-14.848-.385-.846-1.632-.112-1.249.731" transform="translate(-35.5 -77.878)" fill="#1c75bc"/>
    <path id="Path_6334" data-name="Path 6334" d="M145.394,164.811a11.547,11.547,0,0,0,3.9,2.095c.446.138.636-.56.192-.7a10.612,10.612,0,0,1-3.579-1.908c-.358-.291-.873.218-.511.511" transform="translate(-68.757 -77.721)" fill="#1c75bc"/>
    <path id="Path_6335" data-name="Path 6335" d="M74.816,161.719a11.98,11.98,0,0,1-3.3,2.761.362.362,0,0,0,.365.625,12.534,12.534,0,0,0,3.443-2.874c.3-.355-.213-.87-.511-.511" transform="translate(-33.767 -76.484)" fill="#1c75bc"/>
    <path id="Path_6336" data-name="Path 6336" d="M149.842,146.127a.362.362,0,0,0,0-.724.362.362,0,0,0,0,.724" transform="translate(-70.754 -68.819)" fill="#1c75bc"/>
    <path id="Path_6337" data-name="Path 6337" d="M108.316,161.195a7.481,7.481,0,0,1,4.27-.2c.452.11.645-.587.192-.7a8.19,8.19,0,0,0-4.654.2c-.438.15-.25.849.192.7" transform="translate(-51.057 -75.752)" fill="#1c75bc"/>
    <path id="Path_6338" data-name="Path 6338" d="M52.26,143.444c-2.428-2.2-5.9.264-6.282,3.111-.478,3.588,2.607,8.017,6.446,7.569.914-.106.924-1.555,0-1.447-2.317.27-3.823-1.431-4.562-3.441a4.725,4.725,0,0,1-.336-3c.451-1.34,2.249-3.1,3.711-1.772.688.624,1.715-.4,1.023-1.023" transform="translate(-21.738 -67.492)" fill="#1c75bc"/>
    <path id="Path_6339" data-name="Path 6339" d="M55.083,150.456c-1.249-.564-2.069.716-2.044,1.848a2.307,2.307,0,0,0,2.343,2.346c.464-.018.466-.741,0-.724a1.5,1.5,0,0,1-1.521-1.054c-.172-.522-.111-2.229.857-1.792.421.19.789-.433.365-.625" transform="translate(-25.103 -71.146)" fill="#1c75bc"/>
    <path id="Path_6340" data-name="Path 6340" d="M167.752,147.741c1.563-1.263,3.258.778,3.584,2.048a4.089,4.089,0,0,1-.287,2.361c-.729,2.069-2.363,4.2-4.826,3.773-.911-.159-1.3,1.235-.384,1.4,3.752.655,6.9-3.041,7.027-6.641.109-3.072-3.382-6.185-6.136-3.961-.725.585.3,1.6,1.023,1.023" transform="translate(-78.243 -69.085)" fill="#1c75bc"/>
    <path id="Path_6341" data-name="Path 6341" d="M168.207,154.325c1.029-.4,1.044,1.211.824,1.783a1.5,1.5,0,0,1-1.6.994c-.463-.044-.46.679,0,.723a2.286,2.286,0,0,0,2.438-2.119c.124-1.058-.553-2.58-1.853-2.079-.43.166-.243.865.192.7" transform="translate(-79.08 -72.665)" fill="#1c75bc"/>
    <path id="Path_6342" data-name="Path 6342" d="M117.639,301.823c-.08,2.737.57,6.459-.889,8.886-2.128,3.54-7.54,6.014-11.191,7.524-.849.35-.476,1.751.385,1.4,4.018-1.661,8.932-4.056,11.642-7.612,2.133-2.8,1.4-6.892,1.5-10.193a.724.724,0,0,0-1.447,0" transform="translate(-49.734 -142.521)" fill="#1c75bc"/>
    <path id="Path_6343" data-name="Path 6343" d="M105.336,334.67a28.5,28.5,0,0,1,6.554.955,11.57,11.57,0,0,1,2.855,1.3,8.61,8.61,0,0,1,1.661,1.376c.723.686.7,1.412.3,1.843-1.923,2.882-11.4-2.854-11.783-5.916-.115-.912-1.563-.923-1.447,0,.394,3.135,3.492,4.819,6.021,6.22a14.437,14.437,0,0,0,4.783,1.793c1.1.167,3.591.41,4.524-.535,1.615-1.636-1.322-4.529-2.534-5.469-3.108-2.411-6.887-2.621-10.67-2.892-.929-.066-1.185,1.262-.26,1.328" transform="translate(-48.97 -157.769)" fill="#1c75bc"/>
    <path id="Path_6344" data-name="Path 6344" d="M79.512,301.823c-.095,2.522,0,6.626-1.276,8.746-2.128,3.54-7.54,6.014-11.19,7.523-.849.351-.477,1.751.384,1.4,4.018-1.661,8.933-4.055,11.642-7.611,1.951-2.561,1.769-6.916,1.887-10.054.035-.931-1.412-.93-1.447,0" transform="translate(-31.505 -142.522)" fill="#1c75bc"/>
    <path id="Path_6345" data-name="Path 6345" d="M66.823,334.34a28.472,28.472,0,0,1,6.554.955,11.588,11.588,0,0,1,2.855,1.3,8.635,8.635,0,0,1,1.661,1.376c.911.875.548,1.613.3,1.843-1.923,2.882-11.615-2.835-11.783-5.916a.725.725,0,1,0-1.447,0c.394,3.135,3.492,4.819,6.021,6.22a14.436,14.436,0,0,0,4.783,1.793c1.1.168,3.591.41,4.524-.535,1.615-1.635-1.322-4.529-2.534-5.468-3.108-2.411-7.117-2.4-10.867-2.966-.277-.042-.988,1.336-.063,1.4" transform="translate(-30.742 -157.578)" fill="#1c75bc"/>
    <path id="Path_6346" data-name="Path 6346" d="M73.03,139.674a12.324,12.324,0,0,1,1.976-1.744.743.743,0,0,0,.26-.99.73.73,0,0,0-.99-.26,14.084,14.084,0,0,0-2.269,1.97c-.63.684.39,1.71,1.023,1.023" transform="translate(-33.987 -64.641)" fill="#1c75bc"/>
    <path id="Path_6347" data-name="Path 6347" d="M145.91,134.946a13.29,13.29,0,0,0,2.13,1.891.728.728,0,0,0,.99-.26.739.739,0,0,0-.26-.99,11.6,11.6,0,0,1-1.837-1.665c-.625-.693-1.645.333-1.023,1.023" transform="translate(-68.967 -63.276)" fill="#1c75bc"/>
    <path id="Path_6348" data-name="Path 6348" d="M95.63,209.565c1.943,3.932,4.634,7.48,9.415,7.54a8.983,8.983,0,0,0,8.678-6.824.724.724,0,0,0-1.4-.385,7.461,7.461,0,0,1-8.4,5.642c-3.668-.637-5.52-3.6-7.051-6.7-.412-.835-1.661-.1-1.249.731" transform="translate(-45.223 -98.666)" fill="#1c75bc"/>
    <path id="Path_6349" data-name="Path 6349" d="M80,206.385a38.694,38.694,0,0,0-14.16,7.345.729.729,0,0,0,0,1.023c1.181,1.18,2.9,3.858,4.663,4.2,1.489.293,3.493-1.177,4.762-1.74l-1.089-.625a105.477,105.477,0,0,1-.409,16.487c-.23,2.17-1.213,4.88-.885,7.046.186,1.232,1.072,1.632,2.208,1.754,5.1.548,10.623-1.123,15.7-1.53a35.9,35.9,0,0,1,16.426,2.471c.568.228.969-.413.89-.89-.956-5.746-1.659-11.528-2.064-17.341q-.145-2.073-.241-4.149c-.054-1.156-.656-2.8,1.294-2.864,1-.035,1.456,1,2.352,1.063.5.037,1.141-.49,1.5-.761a6.379,6.379,0,0,0,2.08-7.068c-1.116-3.426-6.659-4.284-9.683-5.267-.887-.289-1.268,1.108-.384,1.4a38.493,38.493,0,0,1,6.613,2.412,4.284,4.284,0,0,1,.99,6.955c-1.314,1.321-2.5-.231-4.059-.331a1.837,1.837,0,0,0-1.971.844c-.744,1.219-.2,3.377-.13,4.659q.191,3.632.527,7.254c.424,4.55,1.029,9.077,1.779,13.583l.89-.89a36.079,36.079,0,0,0-12.363-2.658c-4.829-.147-9.585.816-14.363,1.344-1.157.128-2.315.237-3.477.292-2.006.094-2.787.013-2.8-2.528-.011-2.066.584-4.273.771-6.338a105.741,105.741,0,0,0,.259-14.947.735.735,0,0,0-1.089-.625c-1.444.641-3.1,1.734-4.578.852a20.31,20.31,0,0,1-3.095-3.089v1.023a36.931,36.931,0,0,1,13.522-6.973.724.724,0,0,0-.384-1.4" transform="translate(-31.063 -97.266)" fill="#1c75bc"/>
    <path id="Path_6350" data-name="Path 6350" d="M82.777,272.6c0,2.68.02,5.36.034,8.041q.012,2.219.022,4.437c0,.717-.291,2.242.164,2.878.563.788,1.7.589,2.577.635l7.319.389c1.849.1,2.513.249,3.747-1.093a42.1,42.1,0,0,0,3.648-4.9l-1.322-.173c.775,2.073,1.1,6.191,3.9,6.123,2.576-.063,5.031-.5,7.635-.371.927.047,2.307.489,3.064-.208,1.258-1.158,1.086-4.855,1.233-6.416.264-2.791.435-5.6.515-8.4a.724.724,0,0,0-1.447,0,92.5,92.5,0,0,1-.9,11.677c-.186,1.19-.013,1.826-1.485,1.96-1.425.13-2.971-.136-4.413-.082a21.033,21.033,0,0,1-3.614.305c-2.022-.34-2.5-3.41-3.088-4.976a.735.735,0,0,0-1.323-.173,32.537,32.537,0,0,1-3.132,4.253c-1.453,1.523-3.109,1.016-5.105.91-1.735-.093-3.5-.1-5.228-.278-1.638-.169-1.288-.621-1.294-2.067-.016-4.159-.056-8.319-.056-12.478a.724.724,0,0,0-1.447,0" transform="translate(-39.162 -128.69)" fill="#1c75bc"/>
    <path id="Path_6351" data-name="Path 6351" d="M83.245,281.179a21.668,21.668,0,0,1,5.946-1.6c.457-.055.462-.78,0-.724a22.9,22.9,0,0,0-6.311,1.7c-.427.183-.059.806.365.625" transform="translate(-39.137 -131.981)" fill="#1c75bc"/>
    <path id="Path_6352" data-name="Path 6352" d="M133.384,277.7a8.135,8.135,0,0,1,4.387,2.645c.287.367.8-.148.511-.511a8.863,8.863,0,0,0-2.024-1.7A8.211,8.211,0,0,0,133.577,277c-.453-.105-.646.592-.192.7" transform="translate(-63.008 -131.097)" fill="#1c75bc"/>
    <path id="Path_6353" data-name="Path 6353" d="M114.127,270.744c-.12,1.068.378,3.726-1.408,3.594-.465-.034-.462.689,0,.724,2.4.177,1.966-2.839,2.132-4.318.052-.462-.672-.458-.724,0" transform="translate(-53.185 -127.979)" fill="#1c75bc"/>
    <path id="Path_6354" data-name="Path 6354" d="M141.3,252.41a.362.362,0,0,0,0-.724.362.362,0,0,0,0,.724" transform="translate(-66.709 -119.122)" fill="#1c75bc"/>
    <path id="Path_6355" data-name="Path 6355" d="M83.459,248.1a.362.362,0,0,0,0-.724.362.362,0,0,0,0,.724" transform="translate(-39.336 -117.084)" fill="#1c75bc"/>
    <path id="Path_6356" data-name="Path 6356" d="M91.988,208.644c2.459,5.619,6.826,10.937,13.744,9.838,5.107-.811,9.978-5.781,10.491-10.933.046-.463-.678-.46-.724,0-.521,5.231-6.048,10.4-11.373,10.332-6.052-.074-9.331-4.615-11.514-9.6-.186-.426-.81-.058-.625.365" transform="translate(-43.521 -98.069)" fill="#1c75bc"/>
    <path id="Path_6357" data-name="Path 6357" d="M183.189,205.75a3.886,3.886,0,0,0,3.47,1.8,7.058,7.058,0,0,0,.968,0q.871.122.329-.187c-.157-.272-.723-.592-.956-.858a.726.726,0,0,1,.191-1.005,5.931,5.931,0,0,0,2.481-2.3c1.113-2.4-1.436-2.482-2.842-1.974a5.5,5.5,0,0,0-3.494,4.816c-.073.925-1.491.632-1.419-.288.265-3.39,3.467-6.782,7.08-6.214a2.7,2.7,0,0,1,2.546,2.794c-.183,1.887-2.021,3.471-3.538,4.36q.1-.5.191-1.005c.587.667,1.638,1.014,1.513,2.106-.105.923-.945,1.118-1.715,1.181-2.289.19-4.769-.3-6-2.416-.466-.8.728-1.621,1.2-.815" transform="translate(-86.087 -94.415)" fill="#1c75bc"/>
    <path id="Path_6358" data-name="Path 6358" d="M46.887,238.614a3.885,3.885,0,0,1,1.808,3.468,7.061,7.061,0,0,1,0,.968q.122.871-.186.329c-.272-.156-.593-.722-.86-.955a.726.726,0,0,0-1,.192,5.935,5.935,0,0,1-2.3,2.484c-2.4,1.116-2.483-1.433-1.978-2.839a5.5,5.5,0,0,1,4.812-3.5c.925-.074.63-1.492-.29-1.418-3.39.27-6.778,3.477-6.2,7.089a2.7,2.7,0,0,0,2.8,2.542c1.887-.185,3.468-2.025,4.354-3.544l-1.005.192c.668.586,1.017,1.636,2.108,1.51.923-.106,1.116-.946,1.179-1.717.186-2.289-.3-4.768-2.424-6-.8-.465-1.62.73-.813,1.2" transform="translate(-19.229 -112.319)" fill="#1c75bc"/>
    <path id="Path_6359" data-name="Path 6359" d="M51.994,107.945c-3.158-11.013-.8-23.462,9.295-29.99a50.562,50.562,0,0,1,7.2-3.732c3.588-1.573,6.425-2.586,10.326-1.566,2.6.68,4.321-.447,6.76-1.26a24.809,24.809,0,0,1,10.182-1.071q-.183-.674-.366-1.348a27.277,27.277,0,0,0-4.773,2.732.73.73,0,0,0,.365,1.348c2.271.045,4.542.083,6.813.136,2.168.052,4.741.023,6.167,1.977q.13-.495.26-.99l-1.543.26a.73.73,0,0,0-.365,1.348l7.44,4.9q.086-.661.173-1.322l-1.055-.06c-.883-.31-1.251,1.079-.384,1.4a19.633,19.633,0,0,1,9.927,7.954l.432-1.063a3.908,3.908,0,0,1-2.968-.033.733.733,0,0,0-.817,1.063l3.459,7.857.432-1.063-2.008-.12a.733.733,0,0,0-1.089.625,20.692,20.692,0,0,0,1.008,6.661l.7-.916-2-.8a.732.732,0,0,0-1.209.319,4.01,4.01,0,0,0-.194,1.625c0-.332.474,3.544-.693,2.546-.7-.6-1.732.417-1.023,1.023a1.84,1.84,0,0,0,2.451.2c1.595-1.19.44-3.417.855-5.014l-1.209.319a4.635,4.635,0,0,0,3.021,1.22.728.728,0,0,0,.7-.916,19.548,19.548,0,0,1-.956-6.276l-1.089.625a4.043,4.043,0,0,0,3.123.266.737.737,0,0,0,.432-1.063L116.313,87.9l-.817,1.063a6.246,6.246,0,0,0,3.737.033.73.73,0,0,0,.432-1.063,21.291,21.291,0,0,0-10.792-8.618l-.384,1.4a2.076,2.076,0,0,0,1.824.06.732.732,0,0,0,.173-1.323l-7.44-4.9-.365,1.348a4.97,4.97,0,0,0,2.274-.458.725.725,0,0,0,.26-.99c-2.929-4.012-9.962-2.744-14.23-2.83l.365,1.348a27.272,27.272,0,0,1,4.773-2.732c.723-.323.265-1.29-.365-1.348A25.854,25.854,0,0,0,85.192,70c-1.762.586-3.381,1.638-5.278,1.4-1.455-.185-2.741-.851-4.238-.838-3.045.026-5.979,1.54-8.7,2.761a41.759,41.759,0,0,0-8.232,4.651C49.42,85.053,47.517,97.58,50.6,108.33a.724.724,0,0,0,1.4-.385" transform="translate(-23.303 -32.542)" fill="#1c75bc"/>
    <path id="Path_6360" data-name="Path 6360" d="M60.486,111.311a20.611,20.611,0,0,1,4.086-8.371,18.926,18.926,0,0,1,2.645-2.6c.711-.57,6.138-4.508,6.581-1.669.121.771,1.181.6,1.4,0,.79-2.205,2.381-4.928,5.128-3.441,1.215.657,2.222,1.587,3.482,2.18a.734.734,0,0,0,1.062-.817l-.844-4.808-.89.89a27.621,27.621,0,0,1,11.526,5.107.729.729,0,0,0,1.063-.432c.613-1.886,1.206-4.3,3.385-2.367a37.789,37.789,0,0,1,3.5,3.587.729.729,0,0,0,1.209-.319l.7-2.509-1.063.432a17.434,17.434,0,0,1,6.733,8.015c.291.681,1.362.307,1.348-.366l.993.277a13.291,13.291,0,0,1,.639,1.429c.347.822.668,1.654.972,2.493.523,1.448.977,2.917,1.4,4.4a.724.724,0,0,0,1.4-.384,63.592,63.592,0,0,0-2.052-6.125c-.43-1.082-.806-2.569-1.714-3.329-1.248-1.044-3.113-.5-3.078,1.241l1.348-.365a18.715,18.715,0,0,0-7.252-8.535.73.73,0,0,0-1.063.432l-.7,2.509,1.209-.319a37.527,37.527,0,0,0-3.838-3.889c-.614-.531-1.485-1.5-2.343-1.637-2.12-.34-2.7,3.661-3.12,4.945l1.063-.432a28.528,28.528,0,0,0-11.872-5.253.735.735,0,0,0-.89.89l.844,4.808,1.063-.817c-2.068-.973-3.978-3.282-6.483-2.877-2.438.4-3.517,2.949-4.253,5h1.4c-.724-4.642-6.882-.626-8.7.8a21.311,21.311,0,0,0-7.4,11.836.724.724,0,0,0,1.4.384" transform="translate(-27.956 -43.196)" fill="#1c75bc"/>
    <path id="Path_6361" data-name="Path 6361" d="M113.665,77.714A33.446,33.446,0,0,0,107.5,79.5c-.427.17-.241.87.193.7a33.43,33.43,0,0,1,6.165-1.79c.457-.086.263-.784-.192-.7" transform="translate(-50.765 -36.779)" fill="#1c75bc"/>
    <path id="Path_6362" data-name="Path 6362" d="M160.474,96.153a81.75,81.75,0,0,0,7.418,5.337c.394.251.757-.375.366-.625a80.167,80.167,0,0,1-7.272-5.223c-.359-.29-.874.219-.511.511" transform="translate(-75.893 -45.226)" fill="#1c75bc"/>
    <path id="Path_6363" data-name="Path 6363" d="M166.7,107.684a24.512,24.512,0,0,1,5.871,7.008.362.362,0,0,0,.625-.365,25.028,25.028,0,0,0-5.984-7.155c-.357-.293-.872.215-.511.511" transform="translate(-78.843 -50.683)" fill="#1c75bc"/>
    <path id="Path_6364" data-name="Path 6364" d="M170.065,120.66a35.476,35.476,0,0,1,2.406,6.072.362.362,0,0,0,.7-.192,36.493,36.493,0,0,0-2.479-6.245c-.211-.416-.835-.05-.625.365" transform="translate(-80.471 -56.848)" fill="#1c75bc"/>
    <path id="Path_6365" data-name="Path 6365" d="M66.51,96.222c-8.756,5.038-12.944,14.711-12.192,24.6.035.461.758.465.723,0-.733-9.64,3.282-19.051,11.834-23.972a.362.362,0,0,0-.365-.625" transform="translate(-25.668 -45.517)" fill="#1c75bc"/>
    <path id="Path_6366" data-name="Path 6366" d="M61.832,94.326C54.411,98.3,51.187,106.171,49,113.875a.362.362,0,0,0,.7.192c2.133-7.521,5.248-15.23,12.5-19.116.411-.22.046-.845-.365-.625" transform="translate(-23.185 -44.623)" fill="#1c75bc"/>
    <path id="Path_6367" data-name="Path 6367" d="M97.013,89.7a44.321,44.321,0,0,1,4.5,1.707c.422.187.79-.436.365-.625A45.859,45.859,0,0,0,97.205,89c-.445-.142-.635.556-.192.7" transform="translate(-45.797 -42.114)" fill="#1c75bc"/>
    <path id="Path_6368" data-name="Path 6368" d="M102.78,87.747c4.274,1.767,9.258,2.664,12.133,6.641.27.373.9.013.625-.366-3.005-4.158-8.081-5.118-12.566-6.973-.43-.178-.617.522-.192.7" transform="translate(-48.532 -41.187)" fill="#1c75bc"/>
    <path id="Path_6369" data-name="Path 6369" d="M113.017,86.551a21.2,21.2,0,0,1,7.468,6.458c.269.374.9.014.625-.366a21.969,21.969,0,0,0-7.727-6.718c-.412-.215-.778.409-.365.625" transform="translate(-53.405 -40.647)" fill="#1c75bc"/>
    <path id="Path_6370" data-name="Path 6370" d="M122.913,88.214a24.209,24.209,0,0,1,3.08,4.451c.221.41.846.045.625-.366a25.1,25.1,0,0,0-3.193-4.6c-.307-.351-.816.162-.511.511" transform="translate(-58.13 -41.453)" fill="#1c75bc"/>
    <path id="Path_6371" data-name="Path 6371" d="M168.342,123.108a20.052,20.052,0,0,1,1.442,7.869c.02.464.743.466.724,0a20.935,20.935,0,0,0-1.541-8.234c-.2-.421-.822-.054-.625.365" transform="translate(-79.658 -58.006)" fill="#1c75bc"/>
    <path id="Path_6372" data-name="Path 6372" d="M60.954,224.641a10.277,10.277,0,0,0-4.062,2.31q-2.484,1.981-4.961,3.971c-.727.581.3,1.6,1.023,1.023l3.917-3.134c1.384-1.108,2.7-2.364,4.467-2.774.907-.21.523-1.605-.384-1.4" transform="translate(-24.461 -106.312)" fill="#1c75bc"/>
    <path id="Path_6373" data-name="Path 6373" d="M154.162,217.032a15.11,15.11,0,0,0,15.367-4.636c.612-.7-.408-1.725-1.023-1.023a13.678,13.678,0,0,1-13.96,4.263.724.724,0,0,0-.384,1.4" transform="translate(-72.722 -99.931)" fill="#1c75bc"/>
    <path id="Path_6374" data-name="Path 6374" d="M82.05,255.268a41.307,41.307,0,0,1,9.245-3.589.724.724,0,0,0-.385-1.4,42.922,42.922,0,0,0-9.591,3.735c-.822.439-.092,1.688.731,1.249" transform="translate(-38.318 -118.446)" fill="#1c75bc"/>
    <path id="Path_6375" data-name="Path 6375" d="M128.548,251.526a16.074,16.074,0,0,1,6.208,2.967c.725.567,1.756-.449,1.023-1.023a17.747,17.747,0,0,0-6.846-3.34c-.9-.218-1.291,1.177-.384,1.4" transform="translate(-60.597 -118.375)" fill="#1c75bc"/>
    <path id="Path_6376" data-name="Path 6376" d="M113.807,235.592a.724.724,0,0,0,0-1.447.724.724,0,0,0,0,1.447" transform="translate(-53.534 -110.82)" fill="#1c75bc"/>
    <path id="Path_6377" data-name="Path 6377" d="M114.448,242.918a.724.724,0,0,0,0-1.447.724.724,0,0,0,0,1.447" transform="translate(-53.837 -114.288)" fill="#1c75bc"/>
    <path id="Path_6378" data-name="Path 6378" d="M114.448,249.511a.724.724,0,0,0,0-1.447.724.724,0,0,0,0,1.447" transform="translate(-53.837 -117.408)" fill="#1c75bc"/>
    <path id="Path_6379" data-name="Path 6379" d="M118.485,16.994c3.537,6.575,11.942,7.267,17.633,3.081,6.224-4.578,6.989-13.041.649-17.952-4.577-3.545-14.088-2.975-14.828,4.19-.561,5.442,8.041,10.793,11.775,5.727A4.072,4.072,0,0,0,131.8,5.63c-1.823-.724-5.3.019-3.782,2.6a.659.659,0,0,0,1.137-.665,1.749,1.749,0,0,1,2.681-.474,2.52,2.52,0,0,1,1.346,3.178c-.623,2.166-3.019,2.787-4.938,2.263-3.228-.881-6.224-4.507-4.435-7.858,3.061-5.736,11-3.682,14.2.6,8.347,11.164-11.917,23.083-18.387,11.059-.4-.746-1.539-.082-1.137.665" transform="translate(-56.039 0)" fill="#2b3990"/>
    <path id="Path_6380" data-name="Path 6380" d="M27.165,302.487c7.291-10.8-12.955-20.976-16.4-7.932-1.185,4.482,2.382,11.424,7.876,9.413,4.028-1.474,4.839-9.221.078-10.24A3.277,3.277,0,0,0,14.61,297c.007,1.691,1.783,4.3,3.369,2.26.565-.726-.451-1.758-1.023-1.023q-1.816-1.221.017-2.193,1.172-2.151,3.018.223a4.192,4.192,0,0,1,.531,2.413c-.171,3.265-3.282,5.146-6.1,3.187-3.533-2.453-3.032-7.774-.157-10.537,6.072-5.839,16.275,3.587,11.655,10.43-.522.774.731,1.5,1.249.731" transform="translate(-4.985 -136.505)" fill="#903bcc"/>
    <path id="Path_6381" data-name="Path 6381" d="M426.575,86.437c-1.489-3.49-2.991-7.089-3.428-10.89-.239-2.084-.224-4.716,1.1-6.482a3.558,3.558,0,0,1,6.293,3.187c-.163.564.581,1.236,1.052.712a7.913,7.913,0,0,1,2-1.8,2.349,2.349,0,0,1,3.583,2.155c-.257,2.275-1.95,4.225-3.505,5.746-2.6,2.546-5.363,4.951-8.042,7.418-.624.574.236,1.572.861,1,2.681-2.468,5.424-4.883,8.042-7.418,1.826-1.769,3.694-4.022,3.959-6.662a3.4,3.4,0,0,0-2.2-3.844c-2.232-.726-4.183.878-5.564,2.412l1.053.712c1.416-4.9-4.459-8.97-8.156-4.937-4.62,5.041-.444,14.107,1.76,19.274.333.782,1.514.2,1.183-.579" transform="translate(-199.516 -31.285)" fill="#ec008c"/>
    <path id="Path_6382" data-name="Path 6382" d="M420.369,219.05c.1-3.721,3.565-4.61,6.553-3.973a7.406,7.406,0,0,0,3.459.334c1.745-.429,2.861-1.988,3.882-3.339a9.142,9.142,0,0,1,2.706-2.889c1.887-.951,3.959.1,5.89.37a9.245,9.245,0,0,0,7.354-2.285c.649-.546-.286-1.473-.931-.931-2.509,2.109-4.947,2.188-7.993,1.516a8.06,8.06,0,0,0-3.812-.294c-2.266.588-3.481,2.782-4.836,4.483-1.623,2.038-2.739,2.292-5.369,1.766a8.454,8.454,0,0,0-3.923-.154,5.522,5.522,0,0,0-4.3,5.4.659.659,0,0,0,1.317,0" transform="translate(-198.336 -97.581)" fill="#2bb673"/>
    <path id="Path_6383" data-name="Path 6383" d="M9.875,37.981c-2.153-1.867-5.792-2.473-7.759.055a4.442,4.442,0,0,0,1.238,6.469V43.369C.386,44.695-1.08,48.7.919,51.474s6.231,2.662,8.464.293L8.259,51.3a6.371,6.371,0,0,0,7.918,5.281c4.149-1.161,5.706-5.986,4.683-9.8l-.967.744c3.116,1.34,7.339,2.856,10.135,0,2.622-2.677,1.035-6.7-.555-9.47l-.568.99c6.248.374,5.986-7.394,3.434-11.068-2.293-3.3-8.474-4.827-9.6.344l1.1-.291a9.654,9.654,0,0,0-15.51,9.721c.186.826,1.456.477,1.27-.35a8.329,8.329,0,0,1,13.309-8.44.667.667,0,0,0,1.1-.291c.969-4.439,6.047-1.977,7.583.574,1.717,2.849,2.106,8.771-2.685,8.484a.664.664,0,0,0-.568.991c1.333,2.318,2.837,5.519.685,7.8-2.309,2.445-5.858.992-8.465-.129a.668.668,0,0,0-.967.744c.745,2.777-.023,6.209-2.693,7.726A5.041,5.041,0,0,1,9.576,51.3a.668.668,0,0,0-1.124-.466c-1.8,1.914-5.1,1.971-6.542-.389a4.193,4.193,0,0,1,2.108-5.942.664.664,0,0,0,0-1.137A2.985,2.985,0,0,1,3.4,38.708c1.574-1.584,3.953-1.171,5.539.2.637.553,1.573-.374.931-.931" transform="translate(0 -11.814)" fill="#f7941e"/>
    <path id="Path_6384" data-name="Path 6384" d="M231.156,60.459c-.37-1.927-1.157-4.279-2.77-5.542-.823-.645-2.4-1.286-3.329-.484-.87.752-.627,2.484-.346,3.448.606,2.083,2.448,3.4,4.351,4.213l.332-1.227c-1.963-.142-4.317-.225-5.828,1.288-1.037,1.038-1.969,3.6-.931,4.922,2.425,3.09,6.975-1.219,7.462-3.791.129-.677-.876-1.235-1.2-.507-1.233,2.743-1.295,7.923,2.95,8.021,3.722.085,2.157-5.305,1.107-7.129a.659.659,0,0,0-1.137.664c1.129,2.038,4.966,5.566,7.258,3.052,2.914-3.195-1.078-5.853-3.811-6.779v1.27c2.888-1.149,4.91-5.325,2.053-7.743-3.289-2.783-6.686,3.154-7.352,5.61a.659.659,0,0,0,1.27.35c.6-2.23,1.522-4.44,4.062-4.651,1.243-.1,1.619-.232,1.968,1.108a3.649,3.649,0,0,1-2.351,4.057.665.665,0,0,0,0,1.27c1.712.58,5.535,3.291,2.42,4.394-1.961.694-3.45-.923-4.38-2.6l-1.137.664c.578,1,1.691,3.3.984,4.473q-2.521,1.382-3.37-1.562a5.647,5.647,0,0,1,.6-3.8l-1.2-.507a4.512,4.512,0,0,1-1.887,2.98c-.828.533-3.208,1.422-3.353-.575s1.992-3.113,3.638-3.228a15.435,15.435,0,0,1,2.167.07c.625.045.935-.97.332-1.227-1.5-.637-5.609-3.458-3.475-5.177,1.806-1.455,3.444,4.033,3.635,5.031.16.831,1.429.479,1.27-.35" transform="translate(-105.158 -25.278)" fill="#009444"/>
  </g>
</svg>
