<svg xmlns="http://www.w3.org/2000/svg" xmlns:xlink="http://www.w3.org/1999/xlink" width="286.322" height="359.961" viewBox="0 0 286.322 359.961">
  <defs>
    <clipPath id="clip-path">
      <rect id="Rectangle_1369" data-name="Rectangle 1369" width="88.903" height="83.961" fill="none"/>
    </clipPath>
    <clipPath id="clip-path-3">
      <rect id="Rectangle_1366" data-name="Rectangle 1366" width="24.231" height="32.533" fill="none"/>
    </clipPath>
    <clipPath id="clip-path-4">
      <rect id="Rectangle_1367" data-name="Rectangle 1367" width="24.151" height="32.433" fill="none"/>
    </clipPath>
  </defs>
  <g id="Group_5307" data-name="Group 5307" transform="translate(-45.097 -220.039)">
    <g id="Group_5272" data-name="Group 5272" transform="translate(143.806 496.039)">
      <g id="Group_5271" data-name="Group 5271" clip-path="url(#clip-path)">
        <g id="Group_5270" data-name="Group 5270">
          <g id="Group_5269" data-name="Group 5269" clip-path="url(#clip-path)">
            <path id="Path_6445" data-name="Path 6445" d="M44.452,83.961C88.243,83.961,94.091,0,85.58,0S58.115,20.017,44.452,20.017,11.835,0,3.324,0,.66,83.961,44.452,83.961" transform="translate(0)" fill="#ddcbfa"/>
            <g id="Group_5265" data-name="Group 5265" transform="translate(60.619 7.527)" opacity="0.5" style="mix-blend-mode: multiply;isolation: isolate">
              <g id="Group_5264" data-name="Group 5264">
                <g id="Group_5263" data-name="Group 5263" clip-path="url(#clip-path-3)">
                  <path id="Path_6446" data-name="Path 6446" d="M100.953,9.865c-4.709,0-12.98,6.581-21.506,11.795L100.186,42.4c4.636-16.779,4.412-32.533.768-32.533" transform="translate(-79.447 -9.865)" fill="#ddcbfa"/>
                </g>
              </g>
            </g>
            <g id="Group_5268" data-name="Group 5268" transform="translate(4.053 7.527)" opacity="0.5" style="mix-blend-mode: multiply;isolation: isolate">
              <g id="Group_5267" data-name="Group 5267">
                <g id="Group_5266" data-name="Group 5266" clip-path="url(#clip-path-4)">
                  <path id="Path_6447" data-name="Path 6447" d="M8.777,42.3,29.464,21.612C20.965,16.406,12.731,9.865,8.036,9.865,4.4,9.865,4.17,25.556,8.777,42.3" transform="translate(-5.312 -9.865)" fill="#ddcbfa"/>
                </g>
              </g>
            </g>
            <path id="Path_6448" data-name="Path 6448" d="M100.186,42.4c4.635-16.779,4.412-32.533.768-32.533-4.709,0-12.98,6.581-21.506,11.795" transform="translate(-18.828 -2.338)" fill="none" stroke="#73706d" stroke-linecap="round" stroke-linejoin="round" stroke-width="1.55"/>
            <path id="Path_6449" data-name="Path 6449" d="M29.464,21.612C20.965,16.406,12.732,9.865,8.037,9.865c-3.637,0-3.867,15.691.74,32.433" transform="translate(-1.259 -2.338)" fill="none" stroke="#73706d" stroke-linecap="round" stroke-linejoin="round" stroke-width="1.55"/>
            <line id="Line_3" data-name="Line 3" x2="20.772" transform="translate(34.002 72.366)" fill="none" stroke="#73706d" stroke-linecap="round" stroke-linejoin="round" stroke-width="1.55"/>
            <line id="Line_4" data-name="Line 4" x2="13.982" transform="translate(37.397 77.4)" fill="none" stroke="#73706d" stroke-linecap="round" stroke-linejoin="round" stroke-width="1.55"/>
          </g>
        </g>
      </g>
    </g>
    <g id="Group_5280" data-name="Group 5280" transform="translate(242.516 496.039)">
      <g id="Group_5271-2" data-name="Group 5271" clip-path="url(#clip-path)">
        <g id="Group_5270-2" data-name="Group 5270">
          <g id="Group_5269-2" data-name="Group 5269" clip-path="url(#clip-path)">
            <path id="Path_6445-2" data-name="Path 6445" d="M44.452,83.961C88.243,83.961,94.091,0,85.58,0S58.115,20.017,44.452,20.017,11.835,0,3.324,0,.66,83.961,44.452,83.961" transform="translate(0)" fill="#ddcbfa"/>
            <g id="Group_5265-2" data-name="Group 5265" transform="translate(60.619 7.527)" opacity="0.5" style="mix-blend-mode: multiply;isolation: isolate">
              <g id="Group_5264-2" data-name="Group 5264">
                <g id="Group_5263-2" data-name="Group 5263" clip-path="url(#clip-path-3)">
                  <path id="Path_6446-2" data-name="Path 6446" d="M100.953,9.865c-4.709,0-12.98,6.581-21.506,11.795L100.186,42.4c4.636-16.779,4.412-32.533.768-32.533" transform="translate(-79.447 -9.865)" fill="#ddcbfa"/>
                </g>
              </g>
            </g>
            <g id="Group_5268-2" data-name="Group 5268" transform="translate(4.053 7.527)" opacity="0.5" style="mix-blend-mode: multiply;isolation: isolate">
              <g id="Group_5267-2" data-name="Group 5267">
                <g id="Group_5266-2" data-name="Group 5266" clip-path="url(#clip-path-4)">
                  <path id="Path_6447-2" data-name="Path 6447" d="M8.777,42.3,29.464,21.612C20.965,16.406,12.731,9.865,8.036,9.865,4.4,9.865,4.17,25.556,8.777,42.3" transform="translate(-5.312 -9.865)" fill="#ddcbfa"/>
                </g>
              </g>
            </g>
            <path id="Path_6448-2" data-name="Path 6448" d="M100.186,42.4c4.635-16.779,4.412-32.533.768-32.533-4.709,0-12.98,6.581-21.506,11.795" transform="translate(-18.828 -2.338)" fill="none" stroke="#73706d" stroke-linecap="round" stroke-linejoin="round" stroke-width="1.55"/>
            <path id="Path_6449-2" data-name="Path 6449" d="M29.464,21.612C20.965,16.406,12.732,9.865,8.037,9.865c-3.637,0-3.867,15.691.74,32.433" transform="translate(-1.259 -2.338)" fill="none" stroke="#73706d" stroke-linecap="round" stroke-linejoin="round" stroke-width="1.55"/>
            <line id="Line_3-2" data-name="Line 3" x2="20.772" transform="translate(34.002 72.366)" fill="none" stroke="#73706d" stroke-linecap="round" stroke-linejoin="round" stroke-width="1.55"/>
            <line id="Line_4-2" data-name="Line 4" x2="13.982" transform="translate(37.397 77.4)" fill="none" stroke="#73706d" stroke-linecap="round" stroke-linejoin="round" stroke-width="1.55"/>
          </g>
        </g>
      </g>
    </g>
    <g id="Group_5277" data-name="Group 5277" transform="translate(143.806 406)">
      <g id="Group_5271-3" data-name="Group 5271" clip-path="url(#clip-path)">
        <g id="Group_5270-3" data-name="Group 5270">
          <g id="Group_5269-3" data-name="Group 5269" clip-path="url(#clip-path)">
            <path id="Path_6445-3" data-name="Path 6445" d="M44.452,83.961C88.243,83.961,94.091,0,85.58,0S58.115,20.017,44.452,20.017,11.835,0,3.324,0,.66,83.961,44.452,83.961" transform="translate(0)" fill="#ddcbfa"/>
            <g id="Group_5265-3" data-name="Group 5265" transform="translate(60.619 7.527)" opacity="0.5" style="mix-blend-mode: multiply;isolation: isolate">
              <g id="Group_5264-3" data-name="Group 5264">
                <g id="Group_5263-3" data-name="Group 5263" clip-path="url(#clip-path-3)">
                  <path id="Path_6446-3" data-name="Path 6446" d="M100.953,9.865c-4.709,0-12.98,6.581-21.506,11.795L100.186,42.4c4.636-16.779,4.412-32.533.768-32.533" transform="translate(-79.447 -9.865)" fill="#ddcbfa"/>
                </g>
              </g>
            </g>
            <g id="Group_5268-3" data-name="Group 5268" transform="translate(4.053 7.527)" opacity="0.5" style="mix-blend-mode: multiply;isolation: isolate">
              <g id="Group_5267-3" data-name="Group 5267">
                <g id="Group_5266-3" data-name="Group 5266" clip-path="url(#clip-path-4)">
                  <path id="Path_6447-3" data-name="Path 6447" d="M8.777,42.3,29.464,21.612C20.965,16.406,12.731,9.865,8.036,9.865,4.4,9.865,4.17,25.556,8.777,42.3" transform="translate(-5.312 -9.865)" fill="#ddcbfa"/>
                </g>
              </g>
            </g>
            <path id="Path_6448-3" data-name="Path 6448" d="M100.186,42.4c4.635-16.779,4.412-32.533.768-32.533-4.709,0-12.98,6.581-21.506,11.795" transform="translate(-18.828 -2.338)" fill="none" stroke="#73706d" stroke-linecap="round" stroke-linejoin="round" stroke-width="1.55"/>
            <path id="Path_6449-3" data-name="Path 6449" d="M29.464,21.612C20.965,16.406,12.732,9.865,8.037,9.865c-3.637,0-3.867,15.691.74,32.433" transform="translate(-1.259 -2.338)" fill="none" stroke="#73706d" stroke-linecap="round" stroke-linejoin="round" stroke-width="1.55"/>
            <line id="Line_3-3" data-name="Line 3" x2="20.772" transform="translate(34.002 72.366)" fill="none" stroke="#73706d" stroke-linecap="round" stroke-linejoin="round" stroke-width="1.55"/>
            <line id="Line_4-3" data-name="Line 4" x2="13.982" transform="translate(37.397 77.4)" fill="none" stroke="#73706d" stroke-linecap="round" stroke-linejoin="round" stroke-width="1.55"/>
          </g>
        </g>
      </g>
    </g>
    <g id="Group_5279" data-name="Group 5279" transform="translate(242.516 406)">
      <g id="Group_5271-4" data-name="Group 5271" clip-path="url(#clip-path)">
        <g id="Group_5270-4" data-name="Group 5270">
          <g id="Group_5269-4" data-name="Group 5269" clip-path="url(#clip-path)">
            <path id="Path_6445-4" data-name="Path 6445" d="M44.452,83.961C88.243,83.961,94.091,0,85.58,0S58.115,20.017,44.452,20.017,11.835,0,3.324,0,.66,83.961,44.452,83.961" transform="translate(0)" fill="#ddcbfa"/>
            <g id="Group_5265-4" data-name="Group 5265" transform="translate(60.619 7.527)" opacity="0.5" style="mix-blend-mode: multiply;isolation: isolate">
              <g id="Group_5264-4" data-name="Group 5264">
                <g id="Group_5263-4" data-name="Group 5263" clip-path="url(#clip-path-3)">
                  <path id="Path_6446-4" data-name="Path 6446" d="M100.953,9.865c-4.709,0-12.98,6.581-21.506,11.795L100.186,42.4c4.636-16.779,4.412-32.533.768-32.533" transform="translate(-79.447 -9.865)" fill="#ddcbfa"/>
                </g>
              </g>
            </g>
            <g id="Group_5268-4" data-name="Group 5268" transform="translate(4.053 7.527)" opacity="0.5" style="mix-blend-mode: multiply;isolation: isolate">
              <g id="Group_5267-4" data-name="Group 5267">
                <g id="Group_5266-4" data-name="Group 5266" clip-path="url(#clip-path-4)">
                  <path id="Path_6447-4" data-name="Path 6447" d="M8.777,42.3,29.464,21.612C20.965,16.406,12.731,9.865,8.036,9.865,4.4,9.865,4.17,25.556,8.777,42.3" transform="translate(-5.312 -9.865)" fill="#ddcbfa"/>
                </g>
              </g>
            </g>
            <path id="Path_6448-4" data-name="Path 6448" d="M100.186,42.4c4.635-16.779,4.412-32.533.768-32.533-4.709,0-12.98,6.581-21.506,11.795" transform="translate(-18.828 -2.338)" fill="none" stroke="#73706d" stroke-linecap="round" stroke-linejoin="round" stroke-width="1.55"/>
            <path id="Path_6449-4" data-name="Path 6449" d="M29.464,21.612C20.965,16.406,12.732,9.865,8.037,9.865c-3.637,0-3.867,15.691.74,32.433" transform="translate(-1.259 -2.338)" fill="none" stroke="#73706d" stroke-linecap="round" stroke-linejoin="round" stroke-width="1.55"/>
            <line id="Line_3-4" data-name="Line 3" x2="20.772" transform="translate(34.002 72.366)" fill="none" stroke="#73706d" stroke-linecap="round" stroke-linejoin="round" stroke-width="1.55"/>
            <line id="Line_4-4" data-name="Line 4" x2="13.982" transform="translate(37.397 77.4)" fill="none" stroke="#73706d" stroke-linecap="round" stroke-linejoin="round" stroke-width="1.55"/>
          </g>
        </g>
      </g>
    </g>
    <g id="Group_5278" data-name="Group 5278" transform="translate(143.806 312.039)">
      <g id="Group_5271-5" data-name="Group 5271" clip-path="url(#clip-path)">
        <g id="Group_5270-5" data-name="Group 5270">
          <g id="Group_5269-5" data-name="Group 5269" clip-path="url(#clip-path)">
            <path id="Path_6445-5" data-name="Path 6445" d="M44.452,83.961C88.243,83.961,94.091,0,85.58,0S58.115,20.017,44.452,20.017,11.835,0,3.324,0,.66,83.961,44.452,83.961" transform="translate(0)" fill="#ddcbfa"/>
            <g id="Group_5265-5" data-name="Group 5265" transform="translate(60.619 7.527)" opacity="0.5" style="mix-blend-mode: multiply;isolation: isolate">
              <g id="Group_5264-5" data-name="Group 5264">
                <g id="Group_5263-5" data-name="Group 5263" clip-path="url(#clip-path-3)">
                  <path id="Path_6446-5" data-name="Path 6446" d="M100.953,9.865c-4.709,0-12.98,6.581-21.506,11.795L100.186,42.4c4.636-16.779,4.412-32.533.768-32.533" transform="translate(-79.447 -9.865)" fill="#ddcbfa"/>
                </g>
              </g>
            </g>
            <g id="Group_5268-5" data-name="Group 5268" transform="translate(4.053 7.527)" opacity="0.5" style="mix-blend-mode: multiply;isolation: isolate">
              <g id="Group_5267-5" data-name="Group 5267">
                <g id="Group_5266-5" data-name="Group 5266" clip-path="url(#clip-path-4)">
                  <path id="Path_6447-5" data-name="Path 6447" d="M8.777,42.3,29.464,21.612C20.965,16.406,12.731,9.865,8.036,9.865,4.4,9.865,4.17,25.556,8.777,42.3" transform="translate(-5.312 -9.865)" fill="#ddcbfa"/>
                </g>
              </g>
            </g>
            <path id="Path_6448-5" data-name="Path 6448" d="M100.186,42.4c4.635-16.779,4.412-32.533.768-32.533-4.709,0-12.98,6.581-21.506,11.795" transform="translate(-18.828 -2.338)" fill="none" stroke="#73706d" stroke-linecap="round" stroke-linejoin="round" stroke-width="1.55"/>
            <path id="Path_6449-5" data-name="Path 6449" d="M29.464,21.612C20.965,16.406,12.732,9.865,8.037,9.865c-3.637,0-3.867,15.691.74,32.433" transform="translate(-1.259 -2.338)" fill="none" stroke="#73706d" stroke-linecap="round" stroke-linejoin="round" stroke-width="1.55"/>
            <line id="Line_3-5" data-name="Line 3" x2="20.772" transform="translate(34.002 72.366)" fill="none" stroke="#73706d" stroke-linecap="round" stroke-linejoin="round" stroke-width="1.55"/>
            <line id="Line_4-5" data-name="Line 4" x2="13.982" transform="translate(37.397 77.4)" fill="none" stroke="#73706d" stroke-linecap="round" stroke-linejoin="round" stroke-width="1.55"/>
          </g>
        </g>
      </g>
    </g>
    <g id="Group_5273" data-name="Group 5273" transform="translate(45.097 220.039)">
      <g id="Group_5271-6" data-name="Group 5271" clip-path="url(#clip-path)">
        <g id="Group_5270-6" data-name="Group 5270">
          <g id="Group_5269-6" data-name="Group 5269" clip-path="url(#clip-path)">
            <path id="Path_6445-6" data-name="Path 6445" d="M44.452,83.961C88.243,83.961,94.091,0,85.58,0S58.115,20.017,44.452,20.017,11.835,0,3.324,0,.66,83.961,44.452,83.961" transform="translate(0)" fill="#ddcbfa"/>
            <g id="Group_5265-6" data-name="Group 5265" transform="translate(60.619 7.527)" opacity="0.5" style="mix-blend-mode: multiply;isolation: isolate">
              <g id="Group_5264-6" data-name="Group 5264">
                <g id="Group_5263-6" data-name="Group 5263" clip-path="url(#clip-path-3)">
                  <path id="Path_6446-6" data-name="Path 6446" d="M100.953,9.865c-4.709,0-12.98,6.581-21.506,11.795L100.186,42.4c4.636-16.779,4.412-32.533.768-32.533" transform="translate(-79.447 -9.865)" fill="#ddcbfa"/>
                </g>
              </g>
            </g>
            <g id="Group_5268-6" data-name="Group 5268" transform="translate(4.053 7.527)" opacity="0.5" style="mix-blend-mode: multiply;isolation: isolate">
              <g id="Group_5267-6" data-name="Group 5267">
                <g id="Group_5266-6" data-name="Group 5266" clip-path="url(#clip-path-4)">
                  <path id="Path_6447-6" data-name="Path 6447" d="M8.777,42.3,29.464,21.612C20.965,16.406,12.731,9.865,8.036,9.865,4.4,9.865,4.17,25.556,8.777,42.3" transform="translate(-5.312 -9.865)" fill="#ddcbfa"/>
                </g>
              </g>
            </g>
            <path id="Path_6448-6" data-name="Path 6448" d="M100.186,42.4c4.635-16.779,4.412-32.533.768-32.533-4.709,0-12.98,6.581-21.506,11.795" transform="translate(-18.828 -2.338)" fill="none" stroke="#73706d" stroke-linecap="round" stroke-linejoin="round" stroke-width="1.55"/>
            <path id="Path_6449-6" data-name="Path 6449" d="M29.464,21.612C20.965,16.406,12.732,9.865,8.037,9.865c-3.637,0-3.867,15.691.74,32.433" transform="translate(-1.259 -2.338)" fill="none" stroke="#73706d" stroke-linecap="round" stroke-linejoin="round" stroke-width="1.55"/>
            <line id="Line_3-6" data-name="Line 3" x2="20.772" transform="translate(34.002 72.366)" fill="none" stroke="#73706d" stroke-linecap="round" stroke-linejoin="round" stroke-width="1.55"/>
            <line id="Line_4-6" data-name="Line 4" x2="13.982" transform="translate(37.397 77.4)" fill="none" stroke="#73706d" stroke-linecap="round" stroke-linejoin="round" stroke-width="1.55"/>
          </g>
        </g>
      </g>
    </g>
    <g id="Group_5274" data-name="Group 5274" transform="translate(45.097 312.039)">
      <g id="Group_5271-7" data-name="Group 5271" clip-path="url(#clip-path)">
        <g id="Group_5270-7" data-name="Group 5270">
          <g id="Group_5269-7" data-name="Group 5269" clip-path="url(#clip-path)">
            <path id="Path_6445-7" data-name="Path 6445" d="M44.452,83.961C88.243,83.961,94.091,0,85.58,0S58.115,20.017,44.452,20.017,11.835,0,3.324,0,.66,83.961,44.452,83.961" transform="translate(0)" fill="#ddcbfa"/>
            <g id="Group_5265-7" data-name="Group 5265" transform="translate(60.619 7.527)" opacity="0.5" style="mix-blend-mode: multiply;isolation: isolate">
              <g id="Group_5264-7" data-name="Group 5264">
                <g id="Group_5263-7" data-name="Group 5263" clip-path="url(#clip-path-3)">
                  <path id="Path_6446-7" data-name="Path 6446" d="M100.953,9.865c-4.709,0-12.98,6.581-21.506,11.795L100.186,42.4c4.636-16.779,4.412-32.533.768-32.533" transform="translate(-79.447 -9.865)" fill="#ddcbfa"/>
                </g>
              </g>
            </g>
            <g id="Group_5268-7" data-name="Group 5268" transform="translate(4.053 7.527)" opacity="0.5" style="mix-blend-mode: multiply;isolation: isolate">
              <g id="Group_5267-7" data-name="Group 5267">
                <g id="Group_5266-7" data-name="Group 5266" clip-path="url(#clip-path-4)">
                  <path id="Path_6447-7" data-name="Path 6447" d="M8.777,42.3,29.464,21.612C20.965,16.406,12.731,9.865,8.036,9.865,4.4,9.865,4.17,25.556,8.777,42.3" transform="translate(-5.312 -9.865)" fill="#ddcbfa"/>
                </g>
              </g>
            </g>
            <path id="Path_6448-7" data-name="Path 6448" d="M100.186,42.4c4.635-16.779,4.412-32.533.768-32.533-4.709,0-12.98,6.581-21.506,11.795" transform="translate(-18.828 -2.338)" fill="none" stroke="#73706d" stroke-linecap="round" stroke-linejoin="round" stroke-width="1.55"/>
            <path id="Path_6449-7" data-name="Path 6449" d="M29.464,21.612C20.965,16.406,12.732,9.865,8.037,9.865c-3.637,0-3.867,15.691.74,32.433" transform="translate(-1.259 -2.338)" fill="none" stroke="#73706d" stroke-linecap="round" stroke-linejoin="round" stroke-width="1.55"/>
            <line id="Line_3-7" data-name="Line 3" x2="20.772" transform="translate(34.002 72.366)" fill="none" stroke="#73706d" stroke-linecap="round" stroke-linejoin="round" stroke-width="1.55"/>
            <line id="Line_4-7" data-name="Line 4" x2="13.982" transform="translate(37.397 77.4)" fill="none" stroke="#73706d" stroke-linecap="round" stroke-linejoin="round" stroke-width="1.55"/>
          </g>
        </g>
      </g>
    </g>
    <g id="Group_5275" data-name="Group 5275" transform="translate(45.097 404.039)">
      <g id="Group_5271-8" data-name="Group 5271" clip-path="url(#clip-path)">
        <g id="Group_5270-8" data-name="Group 5270">
          <g id="Group_5269-8" data-name="Group 5269" clip-path="url(#clip-path)">
            <path id="Path_6445-8" data-name="Path 6445" d="M44.452,83.961C88.243,83.961,94.091,0,85.58,0S58.115,20.017,44.452,20.017,11.835,0,3.324,0,.66,83.961,44.452,83.961" transform="translate(0)" fill="#ddcbfa"/>
            <g id="Group_5265-8" data-name="Group 5265" transform="translate(60.619 7.527)" opacity="0.5" style="mix-blend-mode: multiply;isolation: isolate">
              <g id="Group_5264-8" data-name="Group 5264">
                <g id="Group_5263-8" data-name="Group 5263" clip-path="url(#clip-path-3)">
                  <path id="Path_6446-8" data-name="Path 6446" d="M100.953,9.865c-4.709,0-12.98,6.581-21.506,11.795L100.186,42.4c4.636-16.779,4.412-32.533.768-32.533" transform="translate(-79.447 -9.865)" fill="#ddcbfa"/>
                </g>
              </g>
            </g>
            <g id="Group_5268-8" data-name="Group 5268" transform="translate(4.053 7.527)" opacity="0.5" style="mix-blend-mode: multiply;isolation: isolate">
              <g id="Group_5267-8" data-name="Group 5267">
                <g id="Group_5266-8" data-name="Group 5266" clip-path="url(#clip-path-4)">
                  <path id="Path_6447-8" data-name="Path 6447" d="M8.777,42.3,29.464,21.612C20.965,16.406,12.731,9.865,8.036,9.865,4.4,9.865,4.17,25.556,8.777,42.3" transform="translate(-5.312 -9.865)" fill="#ddcbfa"/>
                </g>
              </g>
            </g>
            <path id="Path_6448-8" data-name="Path 6448" d="M100.186,42.4c4.635-16.779,4.412-32.533.768-32.533-4.709,0-12.98,6.581-21.506,11.795" transform="translate(-18.828 -2.338)" fill="none" stroke="#73706d" stroke-linecap="round" stroke-linejoin="round" stroke-width="1.55"/>
            <path id="Path_6449-8" data-name="Path 6449" d="M29.464,21.612C20.965,16.406,12.732,9.865,8.037,9.865c-3.637,0-3.867,15.691.74,32.433" transform="translate(-1.259 -2.338)" fill="none" stroke="#73706d" stroke-linecap="round" stroke-linejoin="round" stroke-width="1.55"/>
            <line id="Line_3-8" data-name="Line 3" x2="20.772" transform="translate(34.002 72.366)" fill="none" stroke="#73706d" stroke-linecap="round" stroke-linejoin="round" stroke-width="1.55"/>
            <line id="Line_4-8" data-name="Line 4" x2="13.982" transform="translate(37.397 77.4)" fill="none" stroke="#73706d" stroke-linecap="round" stroke-linejoin="round" stroke-width="1.55"/>
          </g>
        </g>
      </g>
    </g>
    <g id="Group_5276" data-name="Group 5276" transform="translate(45.097 496.039)">
      <g id="Group_5271-9" data-name="Group 5271" clip-path="url(#clip-path)">
        <g id="Group_5270-9" data-name="Group 5270">
          <g id="Group_5269-9" data-name="Group 5269" clip-path="url(#clip-path)">
            <path id="Path_6445-9" data-name="Path 6445" d="M44.452,83.961C88.243,83.961,94.091,0,85.58,0S58.115,20.017,44.452,20.017,11.835,0,3.324,0,.66,83.961,44.452,83.961" transform="translate(0)" fill="#ddcbfa"/>
            <g id="Group_5265-9" data-name="Group 5265" transform="translate(60.619 7.527)" opacity="0.5" style="mix-blend-mode: multiply;isolation: isolate">
              <g id="Group_5264-9" data-name="Group 5264">
                <g id="Group_5263-9" data-name="Group 5263" clip-path="url(#clip-path-3)">
                  <path id="Path_6446-9" data-name="Path 6446" d="M100.953,9.865c-4.709,0-12.98,6.581-21.506,11.795L100.186,42.4c4.636-16.779,4.412-32.533.768-32.533" transform="translate(-79.447 -9.865)" fill="#ddcbfa"/>
                </g>
              </g>
            </g>
            <g id="Group_5268-9" data-name="Group 5268" transform="translate(4.053 7.527)" opacity="0.5" style="mix-blend-mode: multiply;isolation: isolate">
              <g id="Group_5267-9" data-name="Group 5267">
                <g id="Group_5266-9" data-name="Group 5266" clip-path="url(#clip-path-4)">
                  <path id="Path_6447-9" data-name="Path 6447" d="M8.777,42.3,29.464,21.612C20.965,16.406,12.731,9.865,8.036,9.865,4.4,9.865,4.17,25.556,8.777,42.3" transform="translate(-5.312 -9.865)" fill="#ddcbfa"/>
                </g>
              </g>
            </g>
            <path id="Path_6448-9" data-name="Path 6448" d="M100.186,42.4c4.635-16.779,4.412-32.533.768-32.533-4.709,0-12.98,6.581-21.506,11.795" transform="translate(-18.828 -2.338)" fill="none" stroke="#73706d" stroke-linecap="round" stroke-linejoin="round" stroke-width="1.55"/>
            <path id="Path_6449-9" data-name="Path 6449" d="M29.464,21.612C20.965,16.406,12.732,9.865,8.037,9.865c-3.637,0-3.867,15.691.74,32.433" transform="translate(-1.259 -2.338)" fill="none" stroke="#73706d" stroke-linecap="round" stroke-linejoin="round" stroke-width="1.55"/>
            <line id="Line_3-9" data-name="Line 3" x2="20.772" transform="translate(34.002 72.366)" fill="none" stroke="#73706d" stroke-linecap="round" stroke-linejoin="round" stroke-width="1.55"/>
            <line id="Line_4-9" data-name="Line 4" x2="13.982" transform="translate(37.397 77.4)" fill="none" stroke="#73706d" stroke-linecap="round" stroke-linejoin="round" stroke-width="1.55"/>
          </g>
        </g>
      </g>
    </g>
  </g>
</svg>
