<svg xmlns="http://www.w3.org/2000/svg" width="24.72" height="37.652" viewBox="0 0 24.72 37.652">
  <path id="Path_6660" data-name="Path 6660" d="M325.389,961.514c.367.832.72,1.631,1.074,2.429.557,1.255,1.111,2.511,1.674,3.762.429.952.875,1.893,1.3,2.845.506,1.123,1.023,2.24,1.492,3.382.33.8.111,1.16-.677,1.344-.861.2-1.711.464-2.572.665-.492.115-1,.145-1.5.238-.738.138-1.473.305-2.21.447-.326.063-.656.093-.984.139a.993.993,0,0,0-.288.045c-.426.2-.65.119-.873-.312q-1.678-3.248-3.362-6.494-.922-1.774-1.857-3.541c-.069-.13-.156-.249-.235-.373l-.139.035c.009.642.015,1.284.029,1.926q.061,2.636.128,5.272c.013.543.04,1.086.032,1.628-.013.913-.329,1.23-1.146,1.242-1.106.017-2.211.08-3.317.083-1.163,0-2.328-.015-3.489-.074-.392-.02-.872.052-1.086-.487a1.479,1.479,0,0,1-.131-.535c.1-10.311.272-20.625.29-30.935,0-.875.012-1.75.041-2.625a1.549,1.549,0,0,1,1.2-1.323c6.267-1.32,15.1-2.283,20.055,3.021a13.02,13.02,0,0,1,2.014,13.754,8.47,8.47,0,0,1-1.8,2.39,7.05,7.05,0,0,1-3.2,1.853,4.459,4.459,0,0,0-.479.2m-8.951-5.581a4.856,4.856,0,0,0,3.156-1c1.132-.939,1.114-2.378.969-3.729a3.25,3.25,0,0,0-3.586-2.637c-.7.128-.7.142-.676.935.026.877.024,1.755.042,2.633.027,1.24.062,2.479.1,3.8" transform="translate(-307.262 -939.263)" fill="#417f88" fill-rule="evenodd"/>
</svg>
