<svg xmlns="http://www.w3.org/2000/svg" width="30.479" height="38.104" viewBox="0 0 30.479 38.104">
  <path id="Path_6655" data-name="Path 6655" d="M779.989,952.529c.112,1.948.236,3.72.308,5.494.062,1.543.56,16.607.7,18.977a3.017,3.017,0,0,1-.108,1.025.677.677,0,0,1-.444.417c-1.464.164-2.93.314-4.4.415a26.715,26.715,0,0,1-2.742.039c-1.136-.038-1.317-.107-1.379-1.361-.118-2.373-.159-4.752-.255-7.127-.076-1.891-.589-11.807-.656-12.435-.194-1.842-.39-3.685-.592-5.591-.7.1-4.336.439-5.52.51-.941.056-1.883.136-2.825.146-.718.008-1.437-.066-2.154-.126a.855.855,0,0,1-.771-.892c-.1-1.972-.189-7.128-.275-7.713a1.82,1.82,0,0,1,1.73-2.329c1.439-.127,24.866-1.222,26.322-1.168a13.821,13.821,0,0,1,1.564.2c.281.043.378.229.393.555.072,1.495.44,9.171.434,9.8-.007.72-.262.985-.928,1-.72.018-5.165.149-6.667.184-.6.013-1.191-.017-1.744-.027" transform="translate(-758.849 -940.809)" fill="#e96546" fill-rule="evenodd"/>
</svg>
