<svg xmlns="http://www.w3.org/2000/svg" xmlns:xlink="http://www.w3.org/1999/xlink" width="59.226" height="59.223" viewBox="0 0 59.226 59.223">
  <defs>
    <clipPath id="clip-path">
      <rect id="Rectangle_1373" data-name="Rectangle 1373" width="59.226" height="59.223" fill="none"/>
    </clipPath>
    <clipPath id="clip-path-3">
      <rect id="Rectangle_1371" data-name="Rectangle 1371" width="59.226" height="59.222" fill="none"/>
    </clipPath>
  </defs>
  <g id="Group_5304" data-name="Group 5304" transform="translate(-78.774 -514.582)">
    <g id="Group_5292" data-name="Group 5292" transform="translate(78.774 514.582)">
      <g id="Group_5291" data-name="Group 5291" clip-path="url(#clip-path)">
        <g id="Group_5290" data-name="Group 5290" transform="translate(0 0)">
          <g id="Group_5289" data-name="Group 5289" clip-path="url(#clip-path)">
            <path id="Path_6603" data-name="Path 6603" d="M59.226,29.611A29.611,29.611,0,1,1,29.614,0,29.611,29.611,0,0,1,59.226,29.611" transform="translate(-0.001 0)" fill="#f6ae5d"/>
            <g id="Group_5288" data-name="Group 5288" transform="translate(0 0.001)" opacity="0.72">
              <g id="Group_5287" data-name="Group 5287">
                <g id="Group_5286" data-name="Group 5286" clip-path="url(#clip-path-3)">
                  <path id="Path_6604" data-name="Path 6604" d="M29.613,0A29.611,29.611,0,1,0,59.226,29.61,29.611,29.611,0,0,0,29.613,0M29.49,57.6a27.8,27.8,0,1,1,27.8-27.8,27.8,27.8,0,0,1-27.8,27.8" transform="translate(0 -0.001)" fill="#230d00"/>
                </g>
              </g>
            </g>
            <path id="Path_6605" data-name="Path 6605" d="M57.031,32.016A25.288,25.288,0,1,1,31.743,6.728,25.288,25.288,0,0,1,57.031,32.016" transform="translate(-2.13 -2.22)" fill="#fe955c"/>
            <path id="Path_6606" data-name="Path 6606" d="M36.068,70.3a3.141,3.141,0,0,0,.633.783,2.68,2.68,0,0,1-.633-.783" transform="translate(-11.901 -23.196)" fill="#c6e68b"/>
          </g>
        </g>
      </g>
    </g>
    <text id="A" transform="translate(109 556)" fill="#343e47" font-size="30" font-family="Montserrat" font-weight="500"><tspan x="-10" y="0">A</tspan></text>
  </g>
</svg>
