<svg xmlns="http://www.w3.org/2000/svg" xmlns:xlink="http://www.w3.org/1999/xlink" width="204.575" height="159.911" viewBox="0 0 204.575 159.911">
  <defs>
    <clipPath id="clip-path">
      <rect id="Rectangle_1370" data-name="Rectangle 1370" width="204.575" height="159.911" fill="none"/>
    </clipPath>
  </defs>
  <g id="Group_5285" data-name="Group 5285" transform="translate(0 0)">
    <g id="Group_5284" data-name="Group 5284" transform="translate(0 0)" clip-path="url(#clip-path)">
      <path id="Path_6586" data-name="Path 6586" d="M73.007,80.127A118.215,118.215,0,0,1,62.63,64.187c-6.449-11.525-11.437-23-11.449-23.023h.008a1.375,1.375,0,1,1,2.521-1.1C53.738,40.1,64.917,65.8,75.142,78.4c3.359,4.233,6.734,6.756,8.67,6.649.088,0,.2-.006.308-.016,1.009-.162,1.372-.591,1.5-2.892.055-5.464-4.72-17.07-9.546-26.943-4.821-9.931-9.629-18.331-9.64-18.351a1.365,1.365,0,0,1,.509-1.872,1.379,1.379,0,0,1,1.88.506c.011.162,19.409,33.6,19.546,46.66.124,2.636-1.108,5.352-3.972,5.624-.173.016-.363.03-.58.03-3.793-.107-7.207-3.315-10.805-7.666" transform="translate(89.312 60.84)" fill="#161615"/>
      <path id="Path_6587" data-name="Path 6587" d="M60.319,61.861a1.377,1.377,0,0,1-.9-1.723L68.86,29.942a1.375,1.375,0,1,1,2.625.819L62.043,60.956a1.375,1.375,0,0,1-1.314.968,1.337,1.337,0,0,1-.41-.063" transform="translate(103.8 50.673)" fill="#161615"/>
      <path id="Path_6588" data-name="Path 6588" d="M55.827,78.89a4.3,4.3,0,0,1-3.708-3.09,17.113,17.113,0,0,1-.808-5.814c.022-10.764,4.967-28.2,4.972-28.265a1.374,1.374,0,0,1,2.644.748c.008.022-4.885,17.471-4.863,27.518a14.406,14.406,0,0,0,.624,4.835c.462,1.08.775,1.264,1.253,1.319a2.432,2.432,0,0,0,.269.006c2.71.184,5.4-3.758,7.007-8.312a52.827,52.827,0,0,0,2.314-8.953,1.373,1.373,0,1,1,2.716.412A55.3,55.3,0,0,1,65.8,68.778c-1.767,4.662-4.414,9.939-9.588,10.118-.151,0-.269-.005-.385-.005" transform="translate(89.73 71.213)" fill="#161615"/>
      <path id="Path_6589" data-name="Path 6589" d="M31.815,46.684a1.373,1.373,0,0,1,.245-2.735c5.794.528,11.47.739,16.88.739a211.293,211.293,0,0,0,42.8-4.288h.006a1.373,1.373,0,0,1,.613,2.677A215.137,215.137,0,0,1,48.939,47.44c-5.481,0-11.237-.223-17.125-.756" transform="translate(53.451 70.591)" fill="#161615"/>
      <path id="Path_6590" data-name="Path 6590" d="M32.031,115.209c-1.935-.19-3.106-1.778-3.637-3.474a20.96,20.96,0,0,1-.775-6.347c.008-9.648,3.244-23.931,4.06-27.394-8.6-8.345-12.43-17.894-12.43-26.217-.058-10.393,6.16-19.027,16.218-20.121a89.552,89.552,0,0,1,9.926-.476c9.159,0,19.2.866,28.268.866,10.737.033,20.005-1.306,24.711-6.091a1.374,1.374,0,0,1,1.941,1.946c-5.866,5.778-15.756,6.861-26.652,6.894-9.236-.005-19.277-.869-28.268-.863a87.24,87.24,0,0,0-9.621.456c-8.5.965-13.719,7.991-13.774,17.389,0,7.641,3.6,16.74,12.141,24.766a1.379,1.379,0,0,1,.39,1.328c.005.025-4.173,17.092-4.159,27.518A18.444,18.444,0,0,0,31,110.864c.47,1.295.882,1.567,1.267,1.605l.08.005c.533.269,3.161-2.323,5.335-6.864a144.576,144.576,0,0,0,6.833-16.575c4.3-12.116,7.636-24.227,7.647-24.258a1.374,1.374,0,0,1,2.65.731c-.025.044-7.537,27.408-14.687,41.355-2.515,4.59-4.439,8.048-7.779,8.356-.124,0-.22-.005-.313-.011" transform="translate(33.661 44.691)" fill="#161615"/>
      <path id="Path_6591" data-name="Path 6591" d="M47.982,82.542c-4.824-.3-8.895-6.262-12.685-11.943a126.9,126.9,0,0,1-6.418-11.443,1.374,1.374,0,0,1,2.474-1.2A126.269,126.269,0,0,0,37.617,69.12c3.417,5.627,8.274,10.967,10.366,10.673a1.581,1.581,0,0,0,.992-.357c.506-.363.932-1.344.926-3.068.033-4.629-3.057-12.952-6.207-19.89-3.139-6.971-6.267-12.658-6.273-12.674a1.374,1.374,0,0,1,2.408-1.322c.011.135,12.713,22.834,12.82,33.886-.005,2.07-.445,4-2,5.247a4.393,4.393,0,0,1-2.65.926Z" transform="translate(50.26 73.045)" fill="#161615"/>
      <path id="Path_6592" data-name="Path 6592" d="M26.773,53.587a30.877,30.877,0,0,1,.649-6.223,44.131,44.131,0,0,0,.951-8.975c.008-6.014-1.383-11.171-3.659-14.717-2.3-3.56-5.33-5.484-8.944-5.495a10.8,10.8,0,0,0-2.185.234,30.554,30.554,0,0,1-6.028.657C3.78,18.956.429,18.455,0,15.182c.366-3.222,3.747-5.176,11.121-8a15.722,15.722,0,0,1,5.393-.979c14.09.267,23.57,18.826,23.658,34.912a34.8,34.8,0,0,1-.783,7.512,17.783,17.783,0,0,0-.445,3.917c-.011,7.029,4.6,11.943,9.469,15.212a38.711,38.711,0,0,0,9.7,4.637,1.374,1.374,0,1,1-.756,2.642c-.022-.093-20.907-5.715-21.163-22.49a20.3,20.3,0,0,1,.517-4.516,32.094,32.094,0,0,0,.717-6.913A43.187,43.187,0,0,0,31.248,19.2C27.4,12.991,22.163,8.936,16.514,8.953a13.158,13.158,0,0,0-4.461.814,33.918,33.918,0,0,0-7.534,3.546C3,14.335,2.729,15.149,2.751,15.182c.016,0-.049.184.833.561a11.314,11.314,0,0,0,3.972.577,27.8,27.8,0,0,0,5.475-.6,13.285,13.285,0,0,1,2.738-.289c9.5.1,15.341,10.209,15.352,22.957a47.341,47.341,0,0,1-1.006,9.535,27.946,27.946,0,0,0-.591,5.662,25.534,25.534,0,0,0,25.341,25.44,1.373,1.373,0,0,1,0,2.746A28.249,28.249,0,0,1,26.773,53.587" transform="translate(0 10.855)" fill="#161615"/>
      <path id="Path_6593" data-name="Path 6593" d="M42.556,45.786a25.444,25.444,0,0,1,.709-5.935C45.918,29.134,55.654,25.4,58.427,24.519L66.7.921A1.376,1.376,0,0,1,69.277.877,139.439,139.439,0,0,1,75.61,22.509a43.527,43.527,0,0,1,8.051-.753A49.779,49.779,0,0,1,111.69,30.9L127.8,14.25a1.373,1.373,0,0,1,2.312,1.319c0,.025-3.136,11.52-5.19,23.8,2.166,2.746,4.365,8.716,4.417,15.7.107,10.058-5.316,22.083-23.733,26.072a61.923,61.923,0,0,1-13.4,1.471c-26.476-.038-49.51-16.88-49.645-36.825M59.821,26.968a22.852,22.852,0,0,0-5.981,2.754,17.683,17.683,0,0,0-7.9,10.772,22.537,22.537,0,0,0-.635,5.291c-.005,8.823,5.261,17.325,13.84,23.664S79.516,79.862,92.2,79.862a59.108,59.108,0,0,0,12.806-1.4c17.331-3.939,21.481-14.227,21.58-23.392.063-6.759-2.664-12.985-4.1-14.321a1.368,1.368,0,0,1-.379-1.2c1.245-7.62,2.922-14.992,4.068-19.667l-13.351,13.8a1.377,1.377,0,0,1-1.861.107,42.535,42.535,0,0,0-7.62-4.626,45.665,45.665,0,0,0-19.681-4.659,40.508,40.508,0,0,0-8.865.976,1.406,1.406,0,0,1-1.072-.209,1.391,1.391,0,0,1-.588-.921,118.312,118.312,0,0,0-5.11-18.9l-7.232,20.64a1.378,1.378,0,0,1-.973.877" transform="translate(74.419 0.001)" fill="#161615"/>
      <path id="Path_6594" data-name="Path 6594" d="M61.543,17.962c-9.97-1.875-8.419,7.424,1.718,8.367s8.933-6.363-1.718-8.367" transform="translate(95.853 30.977)" fill="#161615"/>
      <path id="Path_6595" data-name="Path 6595" d="M59.913,22.806a.683.683,0,0,1,.577-.781,138.562,138.562,0,0,1,18.485-1.212.686.686,0,1,1,0,1.372,138.319,138.319,0,0,0-18.282,1.2v.006a.534.534,0,0,1-.093.005.692.692,0,0,1-.687-.585" transform="translate(104.759 36.397)" fill="#161615"/>
      <path id="Path_6596" data-name="Path 6596" d="M76.945,28.241C71.744,24.2,61.972,23.978,60.683,24h-.137a.687.687,0,0,1-.036-1.374c.006,0,.069,0,.173,0,1.407.019,11.278.091,17.105,4.522a.7.7,0,0,1,.121.965.678.678,0,0,1-.547.269.7.7,0,0,1-.418-.14" transform="translate(104.648 39.565)" fill="#161615"/>
      <path id="Path_6597" data-name="Path 6597" d="M64.275,28.838c-.022-.016-13.164-10.585-15.852-12.424a.684.684,0,0,1-.176-.959.693.693,0,0,1,.957-.179c2.809,1.938,15.918,12.482,15.929,12.488a.687.687,0,0,1-.858,1.075" transform="translate(84.154 26.506)" fill="#161615"/>
      <path id="Path_6598" data-name="Path 6598" d="M62.148,23.71c-.016,0-8.768-3.07-13.43-3.054a.687.687,0,0,1,0-1.374c5.129.016,13.848,3.131,13.887,3.131a.688.688,0,0,1-.231,1.336.719.719,0,0,1-.225-.038" transform="translate(83.992 33.72)" fill="#161615"/>
      <path id="Path_6599" data-name="Path 6599" d="M65.056,26.067a8.042,8.042,0,0,1-5.486,1.952,17.289,17.289,0,0,1-7.389-1.985,1.377,1.377,0,0,1,1.193-2.482,14.723,14.723,0,0,0,6.2,1.718c2.911-.055,4.483-1.41,5.547-4.2a1.376,1.376,0,0,1,2.633.786,7.649,7.649,0,0,0-.228,1.839c.005,3.648,2.683,6.317,5.085,6.322a3.8,3.8,0,0,0,1.149-.179,1.373,1.373,0,0,1,.83,2.617,6.475,6.475,0,0,1-1.979.311c-3.617-.049-6.638-2.905-7.551-6.7" transform="translate(89.893 35.253)" fill="#161615"/>
      <path id="Path_6600" data-name="Path 6600" d="M64.453,19.432c-.016-2.727-2.04-4.03-4.56-4.1a5.284,5.284,0,0,0-4.643,2.526h.005a1.376,1.376,0,0,1-2.386-1.372,8.018,8.018,0,0,1,7.023-3.9c3.535.005,7.3,2.386,7.314,6.85a1.377,1.377,0,0,1-2.754,0" transform="translate(92.135 22.003)" fill="#161615"/>
      <path id="Path_6601" data-name="Path 6601" d="M70.259,23.316a1.369,1.369,0,0,1-1.1-1.6,5.953,5.953,0,0,0,.1-1.025,2.8,2.8,0,0,0-2.969-3.04,5.079,5.079,0,0,0-3.829,2.015v.005a1.376,1.376,0,0,1-2.119-1.756A7.83,7.83,0,0,1,66.293,14.9,5.669,5.669,0,0,1,72,20.689a7.581,7.581,0,0,1-.146,1.528,1.365,1.365,0,0,1-1.344,1.124,1.342,1.342,0,0,1-.256-.025" transform="translate(104.976 26.052)" fill="#161615"/>
      <path id="Path_6602" data-name="Path 6602" d="M59.768,33.705c-.256,0-.522-.011-.8-.038-4.505-.448-5.407-4.755-5.324-7.309a16.444,16.444,0,0,1,.33-3.271h.005a1.374,1.374,0,0,1,2.683.6,14.773,14.773,0,0,0-.269,2.672c.085,2.391.531,4.4,2.815,4.571.2.016.385.027.564.027a3.672,3.672,0,0,0,3.463-1.99,6.18,6.18,0,0,0,.723-2.152,1.373,1.373,0,1,1,2.732.275,8.855,8.855,0,0,1-1.066,3.227,6.459,6.459,0,0,1-5.783,3.389Z" transform="translate(93.796 38.499)" fill="#161615"/>
    </g>
  </g>
</svg>
