<svg xmlns="http://www.w3.org/2000/svg" width="139.516" height="174.798" viewBox="0 0 139.516 174.798">
  <g id="Group_24" data-name="Group 24" transform="translate(-433.76 -131.984)" opacity="0.85">
    <path id="Path_147" data-name="Path 147" d="M539.524,184.039a1.043,1.043,0,1,0,1.044,1.043,1.044,1.044,0,0,0-1.044-1.043ZM516.9,256.55q-7.47-1.479-11.059-4.1a8.292,8.292,0,0,0,.566,2.971,41.2,41.2,0,0,1-14.081-7.925,11.049,11.049,0,0,0-2.477,5.944q17.858,2.123,17.6,14.648c-.215,10.484-9.264,16.865-19.3,12.524Q495,292.093,516.9,293.7q21.9-1.605,28.748-13.09c-10.035,4.341-19.083-2.04-19.3-12.524q-.257-12.523,17.6-14.648a11.05,11.05,0,0,0-2.477-5.944,41.187,41.187,0,0,1-14.081,7.925,8.3,8.3,0,0,0,.566-2.971q-3.589,2.624-11.059,4.1Zm0-21.652q-12.7-.283-13.393-20.237c-2.363-1.953-4.362-4.429-3.414-6.811,1.757,4.592,5.944,6.36,11.18,4.564,4.76-2.68,5.9-8.546.25-11.284a7.97,7.97,0,0,1-3-2.223,4.327,4.327,0,0,1-1.07-3.9c1-2.568,2.772-2.768,9.448-2.83,6.676.061,8.445.262,9.448,2.83a4.325,4.325,0,0,1-1.071,3.9,7.958,7.958,0,0,1-3,2.223c-5.645,2.738-4.509,8.6.25,11.284,5.237,1.8,9.423.027,11.181-4.564.948,2.382-1.051,4.859-3.414,6.811Q529.6,234.616,516.9,234.9Zm0-89.883c-50.036,4.347-51.074,51.9-58.306,61.136a19.58,19.58,0,0,0,6.367,4.918,11,11,0,0,1-4.6.92q17.259,28.391,56.538,30.038,39.277-1.646,56.537-30.038a11,11,0,0,1-4.6-.92,19.581,19.581,0,0,0,6.367-4.918c-7.232-9.238-8.27-56.789-58.306-61.136Zm8.224,38.768c10.579,8.608,7.291,31.306,25.714,21.371,11.782-6.354,7.066-24.972-6.865-31.926-11.682-5.831-28.845,2.422-18.849,10.556Zm-16.448,0c-10.578,8.608-7.291,31.306-25.714,21.371-11.782-6.354-7.066-24.972,6.865-31.926,11.682-5.831,28.844,2.422,18.849,10.556Zm-14.758-2.769a4.651,4.651,0,0,1,3.17,1.241,3.423,3.423,0,1,0,1.338,4.654,4.671,4.671,0,1,1-4.508-5.9Zm.354,3.025a1.043,1.043,0,1,1-1.044,1.043,1.043,1.043,0,0,1,1.044-1.043Zm45.611-3.025a4.654,4.654,0,0,0-3.17,1.241,3.423,3.423,0,1,1-1.338,4.654,4.67,4.67,0,1,0,4.508-5.9Z" transform="translate(-13.377 -7.021)" fill="#fff" fill-rule="evenodd"/>
    <path id="Path_148" data-name="Path 148" d="M510.119,192.727q-5.524.159-5.968-1.256.611-1.663,5.968-1.38,5.357-.284,5.968,1.38-.442,1.415-5.968,1.256ZM446.26,273.817q8.679,6.324,20.059.142-11.088,3.766-20.059-.142ZM468.9,136.58q9.088,3.1,12.984,7.819-3.681-6.781-12.984-7.819Zm3.219,7.5q-15.662-6.059-26.11,15.709c5.631-15.977,14.335-21.992,26.11-15.709Zm79.213-7.5q-9.088,3.1-12.985,7.819,3.683-6.781,12.985-7.819Zm-3.22,7.5q15.662-6.059,26.11,15.709c-5.631-15.977-14.335-21.992-26.11-15.709ZM457.829,261.258q-.8-14.966,12.524-29.931-16.269,15.182-12.524,29.931Zm7.289-8.562q25.8-4.191,32.265,6.581-5.977-12.964-32.265-6.581Zm90,0q-25.805-4.191-32.267,6.581,5.978-12.964,32.267-6.581Zm7.289,8.562q.8-14.966-12.525-29.931,16.27,15.182,12.525,29.931Zm11.57,12.559q-8.681,6.324-20.061.142,11.088,3.766,20.061-.142Z" transform="translate(-6.601 -2.476)" fill="#4f6b7f" fill-rule="evenodd"/>
    <path id="Path_149" data-name="Path 149" d="M574.34,317.813q-7.3-.279-9.126-10.048a22.01,22.01,0,0,1,18.252,0q-1.83,9.768-9.126,10.048Z" transform="translate(-70.822 -93.634)" fill="#f05f64" fill-rule="evenodd"/>
    <path id="Path_150" data-name="Path 150" d="M574.34,305.784v4.088h0a24.923,24.923,0,0,0-8.02,1.822,20.847,20.847,0,0,1-1.106-3.928,20.245,20.245,0,0,1,9.126-1.981Z" transform="translate(-70.822 -93.633)" fill="#c35357" fill-rule="evenodd"/>
    <path id="Path_151" data-name="Path 151" d="M585,305.784v4.088h0a24.915,24.915,0,0,1,8.019,1.822,20.768,20.768,0,0,0,1.107-3.928A20.244,20.244,0,0,0,585,305.784Z" transform="translate(-81.482 -93.633)" fill="#c35357" fill-rule="evenodd"/>
    <path id="Path_152" data-name="Path 152" d="M516.9,308.786q-15.61-.453-13.393-22.715a10.679,10.679,0,0,1-3.428-4.275h0c-.068,16.094-18.522,16.011-25.219,4.42a8.638,8.638,0,0,0,.566,7.146q-7.483-6.491-8-14.647-2.868.391-8.836-1.152a19.58,19.58,0,0,0,6.367,4.918,11,11,0,0,1-4.6.92q17.259,28.391,56.538,30.038,39.277-1.646,56.537-30.038a11,11,0,0,1-4.6-.92,19.58,19.58,0,0,0,6.367-4.918q-5.969,1.544-8.836,1.152-.51,8.156-8,14.647a8.64,8.64,0,0,0,.566-7.146c-6.7,11.591-25.151,11.675-25.219-4.419h0a10.667,10.667,0,0,1-3.428,4.276q2.217,22.262-13.393,22.715Zm-13.951,47.541q6.178-7.838,4.388-19.1h0a15.535,15.535,0,0,1,.112,2.264c-.215,10.484-9.264,16.865-19.3,12.524Q495,363.5,516.9,365.109q21.9-1.605,28.748-13.09c-10.035,4.341-19.083-2.04-19.3-12.524a15.6,15.6,0,0,1,.113-2.264h0q-1.79,11.257,4.388,19.1a47.014,47.014,0,0,1-27.9,0Z" transform="translate(-13.377 -78.431)" fill="#b5c3cf" fill-rule="evenodd"/>
    <path id="Path_153" data-name="Path 153" d="M503.518,224.18q-7.3-.279-9.126-10.048a22.01,22.01,0,0,1,18.252,0q-1.83,9.768-9.126,10.048Zm0,62.5q-21.9-1.605-28.749-13.09c10.035,4.341,19.083-2.04,19.3-12.524q.258-12.523-17.6-14.648a11.05,11.05,0,0,1,2.477-5.944,41.187,41.187,0,0,0,14.081,7.925,8.294,8.294,0,0,1-.566-2.971q3.589,2.624,11.059,4.1,7.47-1.479,11.059-4.1a8.292,8.292,0,0,1-.566,2.971,41.187,41.187,0,0,0,14.081-7.925,11.053,11.053,0,0,1,2.477,5.944q-17.858,2.123-17.6,14.648c.215,10.484,9.264,16.865,19.3,12.524q-6.85,11.484-28.748,13.09Zm0-51.673q-39.277-1.646-56.538-30.038a11,11,0,0,0,4.6-.92,19.575,19.575,0,0,1-6.367-4.918c7.232-9.238,8.27-56.789,58.306-61.135,50.036,4.347,51.073,51.9,58.306,61.135a19.581,19.581,0,0,1-6.367,4.918,11,11,0,0,0,4.6.92q-17.259,28.391-56.537,30.038Zm-26.146-94.587q-8.245-10.359-20.025-8a47.735,47.735,0,0,1,3.326,4.458c-23.071-2.954-35.475,33.176-12.95,39.625q-4.054,17.65-9.977,21.37A11.029,11.029,0,0,0,441,200.989l-1.91.778a62.069,62.069,0,0,0,21.915,25.526c-11.429,12.655-15.159,24.136-11.514,32.992q2.163,5.179,8.845,9.481a26.539,26.539,0,0,1-19.388-1.132c-8.4-2.13-6.165,36.292,3.577,37.7,19.228,2.779,32.583-8.251,60.993-9.255,28.41,1,41.765,12.034,60.993,9.255,9.743-1.409,11.978-39.83,3.577-37.7a26.536,26.536,0,0,1-19.388,1.132q6.682-4.3,8.844-9.481c3.646-8.856-.084-20.337-11.514-32.992a62.069,62.069,0,0,0,21.915-25.526l-1.91-.778a11.035,11.035,0,0,0,3.255-3.113q-5.922-3.72-9.978-21.37c22.525-6.45,10.122-42.579-12.949-39.625a47.818,47.818,0,0,1,3.326-4.458q-11.78-2.364-20.025,8c-14.874-9.3-37.418-9.3-52.292,0Zm90.006,130.922q-8.681,6.324-20.061.142,11.088,3.766,20.061-.142ZM548.52,250.22q-25.805-4.191-32.267,6.581,5.978-12.964,32.267-6.581Zm7.289,8.562q.8-14.966-12.525-29.931,16.27,15.182,12.525,29.931ZM541.515,141.6q15.662-6.059,26.11,15.709c-5.631-15.977-14.335-21.992-26.11-15.709Zm3.22-7.5q-9.088,3.1-12.985,7.819,3.683-6.781,12.985-7.819ZM439.659,271.341q8.679,6.324,20.059.142-11.088,3.766-20.059-.142Zm18.858-21.121q25.8-4.191,32.265,6.581-5.977-12.964-32.265-6.581Zm-7.289,8.562q-.8-14.966,12.524-29.931-16.269,15.182-12.524,29.931ZM465.522,141.6q-15.662-6.059-26.11,15.709c5.631-15.977,14.335-21.992,26.11-15.709Zm-3.219-7.5q9.088,3.1,12.984,7.819-3.681-6.781-12.984-7.819Zm32.992,42.658c-10.578,8.608-7.291,31.306-25.714,21.371-11.782-6.354-7.066-24.972,6.865-31.926,11.682-5.831,28.844,2.422,18.849,10.556Zm-14.4.256a1.043,1.043,0,1,1-1.044,1.043,1.043,1.043,0,0,1,1.044-1.043Zm-.354-3.025a4.651,4.651,0,0,1,3.17,1.241,3.423,3.423,0,1,0,1.338,4.654,4.671,4.671,0,1,1-4.508-5.9Zm31.207,2.769c10.579,8.608,7.291,31.306,25.714,21.371,11.782-6.354,7.066-24.972-6.865-31.926-11.682-5.831-28.845,2.422-18.849,10.556Zm14.4.256a1.043,1.043,0,1,0,1.044,1.043,1.044,1.044,0,0,0-1.044-1.043Zm.354-3.025a4.654,4.654,0,0,0-3.17,1.241,3.423,3.423,0,1,1-1.338,4.654,4.67,4.67,0,1,0,4.508-5.9ZM503.518,190.25q-5.524.159-5.968-1.256.611-1.663,5.968-1.38,5.357-.284,5.968,1.38-.442,1.415-5.968,1.256Zm0-5.095c-6.676.062-8.445.263-9.448,2.831a4.327,4.327,0,0,0,1.07,3.9,7.97,7.97,0,0,0,3,2.223c5.646,2.738,4.509,8.6-.25,11.284-5.237,1.8-9.423.027-11.18-4.564-.948,2.382,1.051,4.859,3.414,6.811q.69,19.955,13.393,20.237,12.7-.283,13.393-20.237c2.363-1.953,4.362-4.429,3.414-6.811-1.757,4.592-5.944,6.36-11.181,4.564-4.76-2.68-5.9-8.546-.25-11.284a7.958,7.958,0,0,0,3-2.223,4.327,4.327,0,0,0,1.071-3.9c-1-2.568-2.772-2.768-9.448-2.831Z" fill="#343e47" fill-rule="evenodd"/>
  </g>
</svg>
