<svg xmlns="http://www.w3.org/2000/svg" width="109.353" height="162.536" viewBox="0 0 109.353 162.536">
  <g id="Group_5302" data-name="Group 5302" transform="translate(-265.647 -51.559)">
    <path id="Path_6451" data-name="Path 6451" d="M488.373,134.272a28.739,28.739,0,1,1-28.735-28.265,28.5,28.5,0,0,1,28.735,28.265" transform="translate(-125.398 51.559)" fill="#ffecc2"/>
    <path id="Path_6454" data-name="Path 6454" d="M403.714,48.592c5.059,2.546,10.605,3.881,15.743,6.253a34.574,34.574,0,0,1,12.408,9.667c6.567,7.881,9.715,17.18,11.326,27.2,1.522,9.472,1.972,20,6.4,28.7,5.091,9.991,15.91,18.651,27.416,19.559,8.845.7,16.707-2.191,23.387-7.142V0H399.069c-11.518,12.021-11.2,40.615,4.645,48.592" transform="translate(-125.398 51.559)" fill="#fcd260"/>
  </g>
</svg>
