<svg xmlns="http://www.w3.org/2000/svg" xmlns:xlink="http://www.w3.org/1999/xlink" width="137" height="129.684" viewBox="0 0 137 129.684">
  <defs>
    <clipPath id="clip-path">
      <rect id="Rectangle_1375" data-name="Rectangle 1375" width="137" height="129.684" fill="none"/>
    </clipPath>
  </defs>
  <g id="Group_5299" data-name="Group 5299" transform="translate(0 0)">
    <g id="Group_5298" data-name="Group 5298" transform="translate(0 0)" clip-path="url(#clip-path)">
      <path id="Path_6648" data-name="Path 6648" d="M81.789,66.69,26.809,40.908l-.911-.764L4.494,9.424l1.889-1.3.346,2.271L6.383,8.121l-1.889,1.3a2.3,2.3,0,0,1-.224-2.21A2.258,2.258,0,0,1,6.032,5.865L44.078,0l1.39.219L106.93,31.555a2.333,2.333,0,0,1,1.1,1.237L118.1,59.71a2.318,2.318,0,0,1-.2,2,2.284,2.284,0,0,1-1.675,1.079l-33.174,4.1ZM29.314,37.023,83.133,62.261l29.651-3.671-8.726-23.353L44.038,4.648,10.359,9.831Z" transform="translate(16.716 -0.001)" fill="#161615"/>
      <path id="Path_6649" data-name="Path 6649" d="M28.8,54.2a2.3,2.3,0,0,1-1.726-.855L.507,20.456a2.259,2.259,0,0,1-.489-1.711,2.33,2.33,0,0,1,.891-1.558L21.717,1.6a2.291,2.291,0,0,1,2.749,3.666L5.563,19.428,28.931,48.351,42.785,32.639a2.287,2.287,0,1,1,3.431,3.024L30.576,53.422a2.325,2.325,0,0,1-1.731.779Z" transform="translate(0.002 4.683)" fill="#161615"/>
      <path id="Path_6650" data-name="Path 6650" d="M11.442,85.786a2.281,2.281,0,0,1-1.222-1.868l-4.995-70.8a2.25,2.25,0,0,1,1.013-2.067,2.3,2.3,0,0,1,2.306-.143L73.117,43.733l2.734-23.017h.01a2.284,2.284,0,1,1,4.536.545l-2.775,23.4L110.894,40.9,109.036,17.06a2.29,2.29,0,0,1,4.567-.351l2.036,26.042a2.291,2.291,0,0,1-2.026,2.454L75.75,49.475,13.657,85.735a2.294,2.294,0,0,1-1.161.311,2.242,2.242,0,0,1-1.054-.26m3.08-5.86L70.22,47.4,10.073,16.825Z" transform="translate(21.35 43.632)" fill="#161615"/>
      <path id="Path_6651" data-name="Path 6651" d="M32.866,112.254a2.253,2.253,0,0,1-1.2-1.41L.1,7.166A2.289,2.289,0,1,1,4.483,5.832L35.305,107.107,132.436,67.39a2.29,2.29,0,0,1,1.731,4.241L34.715,112.3a2.343,2.343,0,0,1-.871.168,2.3,2.3,0,0,1-.978-.219" transform="translate(0.003 17.21)" fill="#161615"/>
    </g>
  </g>
</svg>
