<svg xmlns="http://www.w3.org/2000/svg" width="340.83" height="366.546" viewBox="0 0 340.83 366.546">
  <g id="Group_5282" data-name="Group 5282" transform="translate(-74.66 -41.453)">
    <g id="Group_5283" data-name="Group 5283" transform="translate(74.66 41.453)">
      <path id="Path_6458" data-name="Path 6458" d="M252.193,54.875a17.75,17.75,0,0,0-2.6-4.338c-1.736-1.737-5.1-3.147-6.293.324-.892,2.6,1.844,6.509,3.254,8.462,1.084,1.3,3.581,5.424,5.426,5.642,1.952.324,5.1-4.123,5.966-5.533a14.572,14.572,0,0,0,2.5-6.51c.109-2.6-1.628-4.448-4.231-3.038-1.627.868-3.254,3.364-4.014,4.99" transform="translate(-84.69 -41.886)" fill="#fff"/>
      <path id="Path_6459" data-name="Path 6459" d="M248.533,374.918c-7.19,1.736-10.908,7.562-12.77,12.15-2.6,6.446-1.381,11.415,2.108,17.108,7.066,11.529,23.554,12.893,31.489,3.843,3.224-3.6,4.436-10.29,4.215-15.5-.28-6.582-3.658-10.885-8.99-15.186-2.765-2.231-8.986-4.526-16.053-2.418" transform="translate(-84.169 -61.257)" fill="#5cb7ae"/>
      <path id="Path_6460" data-name="Path 6460" d="M248.34,374.315a17.953,17.953,0,0,0-10.07,6.9,22.153,22.153,0,0,0-4.512,11.792c-.205,4.7,1.924,9.407,4.709,13.1a21.036,21.036,0,0,0,8.885,6.79c6.736,2.736,14.949,2.006,20.608-2.752,3.311-2.783,4.955-6.712,5.7-10.9.763-4.3.834-8.936-.9-13.01a19.872,19.872,0,0,0-3.66-5.536,25.879,25.879,0,0,0-5.441-4.732,19.5,19.5,0,0,0-15.312-1.647.588.588,0,0,0,.312,1.133,18.6,18.6,0,0,1,13.572,1.062,19.971,19.971,0,0,1,4.365,3.327,23.271,23.271,0,0,1,3.925,4.63,18.586,18.586,0,0,1,2.383,11.425c-.294,4.13-1.312,8.736-4.176,11.884-4.579,5.033-11.91,6.549-18.36,4.878a21.285,21.285,0,0,1-15.141-16.064c-.975-4.654.614-9.4,3.079-13.339a17.178,17.178,0,0,1,10.352-7.8.588.588,0,0,0-.312-1.133" transform="translate(-84.132 -61.221)" fill="#000549"/>
      <path id="Path_6461" data-name="Path 6461" d="M234.25,399.166a52.717,52.717,0,0,0-6.491,5.856c-.924,1.1-2.088,2.816-.95,4.175,1.22,1.457,2.741,1.024,4.259.53a117.482,117.482,0,0,0,14.978-6.51c6.6-3.222,13.111-6.671,19.389-10.49,2.689-1.636,5.346-3.342,7.868-5.228a25.972,25.972,0,0,0,5.063-4.581c.863-1.105,1.76-2.738.688-4.011-1.014-1.2-2.76-.759-4.04-.3-2.189.785-4.1,2.121-6.239,3.01-.687.287-.386,1.425.313,1.134,1.626-.679,3.131-1.632,4.728-2.377.992-.463,3.317-1.737,4.324-.733a.948.948,0,0,1,.2.915,4.1,4.1,0,0,1-.837,1.567,22.683,22.683,0,0,1-4.386,4.052c-2.242,1.71-4.605,3.261-7,4.749-5.721,3.561-11.665,6.771-17.684,9.8-4.98,2.5-10.025,4.947-15.22,6.975-1.255.49-3.112,1.375-4.321,1.362-.06,0-.3-.027-.093.008a2.077,2.077,0,0,1-1.036-.564c-.718-.816.3-2.027.825-2.652A51.588,51.588,0,0,1,235.081,400c.577-.491-.258-1.318-.831-.831" transform="translate(-83.691 -61.498)" fill="#000549"/>
      <path id="Path_6462" data-name="Path 6462" d="M238.485,396.823c7.812-5.059,16.24-9.073,24.051-14.132.633-.41.044-1.429-.593-1.016-7.811,5.061-16.239,9.074-24.05,14.133-.633.409-.044,1.428.593,1.015" transform="translate(-84.362 -61.703)" fill="#000549"/>
      <path id="Path_6463" data-name="Path 6463" d="M242.959,391.129c3.154-1.331,5.857-3.458,8.818-5.142a.589.589,0,0,0-.593-1.016c-2.864,1.629-5.487,3.737-8.537,5.024a.608.608,0,0,0-.411.722.592.592,0,0,0,.723.411" transform="translate(-84.636 -61.9)" fill="#000549"/>
      <path id="Path_6464" data-name="Path 6464" d="M239.54,389.678c4.489-2.861,9.148-5.444,13.638-8.305.636-.405.047-1.423-.593-1.015-4.49,2.861-9.148,5.444-13.638,8.305-.636.405-.047,1.423.593,1.015" transform="translate(-84.425 -61.625)" fill="#000549"/>
      <path id="Path_6465" data-name="Path 6465" d="M246.921,382.844c.85-.606,1.754-1.13,2.6-1.736a.588.588,0,1,0-.592-1.015c-.85.606-1.754,1.13-2.6,1.736a.588.588,0,1,0,.593,1.015" transform="translate(-84.863 -61.61)" fill="#000549"/>
      <path id="Path_6466" data-name="Path 6466" d="M249.031,409.846c6.539-3.452,13.126-6.816,19.587-10.414.661-.369.07-1.384-.593-1.016-6.461,3.6-13.048,6.961-19.587,10.415-.67.353-.076,1.368.593,1.015" transform="translate(-84.989 -62.701)" fill="#000549"/>
      <path id="Path_6467" data-name="Path 6467" d="M253.375,411.035c3.68-1.288,6.866-3.6,10.43-5.141.692-.3.094-1.313-.593-1.016-3.468,1.5-6.569,3.769-10.149,5.023-.71.248-.4,1.384.312,1.133" transform="translate(-85.258 -63.087)" fill="#000549"/>
      <path id="Path_6468" data-name="Path 6468" d="M258.786,412.28a20.283,20.283,0,0,1,1.735-1.115.588.588,0,1,0-.593-1.015,20.45,20.45,0,0,0-1.735,1.115.644.644,0,0,0-.27.351.6.6,0,0,0,.059.453.594.594,0,0,0,.351.27.57.57,0,0,0,.453-.059" transform="translate(-85.57 -63.399)" fill="#000549"/>
      <path id="Path_6469" data-name="Path 6469" d="M260.367,413.715c.9-.389,1.7-.972,2.6-1.364a.59.59,0,0,0,.212-.8.606.606,0,0,0-.8-.212c-.9.392-1.7.974-2.6,1.365a.589.589,0,0,0-.211.8.607.607,0,0,0,.8.211" transform="translate(-85.664 -63.471)" fill="#000549"/>
      <path id="Path_6470" data-name="Path 6470" d="M365.276,213.414a23.386,23.386,0,0,0-4.251,3.509c-1.845,1.722-5.1,3.978-5.964,6.357-.927,2.99.72,7.358,1.095,10.3.681,4.142,1.315,8.154,1.692,12.266.133,2.295-.1,5.171,1.058,7.079,3.441-6.431,3.989-14.7,6.291-21.434" transform="translate(-91.338 -51.691)" fill="#ff6969"/>
      <path id="Path_6471" data-name="Path 6471" d="M406.181,223.039a23.325,23.325,0,0,1,2.132,5.085c.833,2.381,2.669,5.892,2.329,8.4-.57,3.075-4.057,6.177-5.756,8.6-2.529,3.351-4.956,6.609-7.2,10.075-1.185,1.972-2.312,4.629-4.227,5.78-.058-7.294,3.3-14.872,4.4-21.9" transform="translate(-93.64 -52.264)" fill="#ff6969"/>
      <path id="Path_6472" data-name="Path 6472" d="M376.717,231.314c-1.72-.672-12.618-3.9-13.056-6.227-.828-4.53,7.562-38.73,10.359-46.449,1.909-5.266,21.543-28.072,24.165-26.567,2.091,1.266,11.933,28.176,12.27,30.5,1.163,7.986-8.181,46.879-9.944,49.6-2.966,4.2-14.171,1.094-18.3-.134" transform="translate(-91.863 -48.035)" fill="#fff"/>
      <path id="Path_6473" data-name="Path 6473" d="M392.463,158.354a16.569,16.569,0,0,0,11.244,1.2c-1.7-4.028-3.168-7.082-3.839-7.487-.956-.549-4.183,2.145-7.984,6.039a5.391,5.391,0,0,1,.578.244" transform="translate(-93.547 -48.035)" fill="#a8b6ef"/>
      <path id="Path_6474" data-name="Path 6474" d="M410.476,184.018c-4.136,1.628-8.531,3.021-12.623,1.118-7.273.105-14.474-1.037-20.561-4.39q-1.3-.265-2.609-.528a5.191,5.191,0,0,1-.5-.127c-.03.071-.069.152-.092.219-2.06,5.682-7.147,25.709-9.358,37.692a4.906,4.906,0,0,1,3.244,1.067c1.187.918,4.864,1.3,6.609,1.656,3.251.66,6.446,1.525,9.686,2.239q9.312,2.051,18.745,3.2c3.318-12.436,8.384-35.912,7.509-41.916-.008-.057-.024-.137-.046-.227" transform="translate(-91.93 -49.707)" fill="#a8b6ef"/>
      <path id="Path_6475" data-name="Path 6475" d="M382.177,214.288c2.155.656,4.724.859,6.672,1.74-4.3,15.848-8.931,28.446-14,42.238-.426-4.241.514-9.141,1.181-13.207,1.224-7.644,4.135-23.264,6.146-30.771" transform="translate(-92.526 -51.743)" fill="#ff6969"/>
      <path id="Path_6476" data-name="Path 6476" d="M383.4,191.59c-6.1,4.059-5.821,14.518,1.572,17.011,7.09,2.462,16.313-4.517,13.377-12.377-2.016-5.4-8.282-9.126-14.95-4.634" transform="translate(-92.785 -50.273)" fill="#6076bf"/>
      <path id="Path_6477" data-name="Path 6477" d="M383.067,191.047c-6.66,4.537-6,16.03,2.314,18.27a11.806,11.806,0,0,0,11.527-3.745,9.593,9.593,0,0,0,.718-11.995,10.38,10.38,0,0,0-6.074-4.356,10.868,10.868,0,0,0-8.484,1.825c-.629.414-.041,1.432.592,1.015a9.977,9.977,0,0,1,6.867-1.844,8.865,8.865,0,0,1,5.273,2.917,8.567,8.567,0,0,1,.946,10.755,10.862,10.862,0,0,1-9.779,4.538,8.12,8.12,0,0,1-7.091-6.406,9.659,9.659,0,0,1,3.783-9.96c.623-.423.035-1.443-.592-1.015" transform="translate(-92.753 -50.236)" fill="#000549"/>
      <path id="Path_6478" data-name="Path 6478" d="M385.374,194.322c-4.108,2.734-3.921,9.779,1.059,11.459,4.775,1.658,10.988-3.043,9.011-8.339-1.357-3.638-5.578-6.147-10.07-3.12" transform="translate(-92.987 -50.474)" fill="#81d3c9"/>
      <path id="Path_6479" data-name="Path 6479" d="M381.984,214.817c2.154.625,4.456.8,6.531,1.681q-.134-.333-.27-.664c-3.9,14.336-8.878,28.3-14,42.238l1.155.157a43.891,43.891,0,0,1,.833-11.09c.418-2.52.83-5.041,1.274-7.557,1-5.689,2.085-11.366,3.291-17.016.583-2.731,1.19-5.46,1.908-8.16a.589.589,0,0,0-1.134-.312c-2.788,10.475-4.556,21.254-6.34,31.935-.671,4.021-1.377,8.111-1.008,12.2a.591.591,0,0,0,1.155.156c5.12-13.936,10.1-27.9,14-42.239a.594.594,0,0,0-.271-.664c-2.18-.929-4.55-1.142-6.812-1.8a.588.588,0,0,0-.312,1.133" transform="translate(-92.489 -51.706)" fill="#000549"/>
      <path id="Path_6480" data-name="Path 6480" d="M376.834,230.71c-3.263-1.251-6.641-2.156-9.79-3.7-.914-.449-2.663-1.175-2.87-2.227a9.418,9.418,0,0,1,.127-2.692c.835-7.5,2.745-14.953,4.5-22.277,1.655-6.895,3.257-13.911,5.588-20.618a25.118,25.118,0,0,1,3.911-6.35c2.377-3.2,4.93-6.274,7.565-9.263a102.767,102.767,0,0,1,7.8-8.1,21.738,21.738,0,0,1,2.964-2.383,4.765,4.765,0,0,1,.917-.482,1.058,1.058,0,0,1,.3-.066c.077,0,0-.007.008,0a6.87,6.87,0,0,1,1.222,1.982c.659,1.287,1.247,2.61,1.822,3.936,1.541,3.56,2.95,7.179,4.32,10.808,1.239,3.279,2.446,6.573,3.564,9.9a15.661,15.661,0,0,1,1.141,5.072,58.551,58.551,0,0,1-.893,8.872c-.612,3.977-1.366,7.934-2.177,11.875-1.525,7.406-3.205,14.808-5.28,22.082-.31,1.085-.627,2.171-.991,3.239a5.251,5.251,0,0,1-.777,1.716c-1.22,1.482-3.615,1.64-5.376,1.641a32.144,32.144,0,0,1-6.783-.852c-1.794-.387-3.565-.865-5.324-1.387a.588.588,0,0,0-.313,1.133c4.125,1.224,8.491,2.376,12.825,2.277,2.785-.064,5.619-.8,6.662-3.6.909-2.443,1.547-5,2.208-7.522,1.017-3.875,1.949-7.772,2.828-11.681a202.414,202.414,0,0,0,4.339-24.035,17.653,17.653,0,0,0-.055-6.3c-.739-2.7-1.753-5.352-2.707-7.985q-2.115-5.842-4.432-11.609a81.533,81.533,0,0,0-3.94-8.836,4.137,4.137,0,0,0-1.344-1.77,2.291,2.291,0,0,0-2.07.4c-2.55,1.459-4.705,3.819-6.731,5.9-2.969,3.053-5.783,6.262-8.481,9.556A83.965,83.965,0,0,0,374.69,176a25.26,25.26,0,0,0-2.552,6.447c-1.109,3.762-2.1,7.559-3.065,11.361-2.094,8.279-4.13,16.629-5.5,25.065-.217,1.342-.42,2.692-.535,4.048a6.162,6.162,0,0,0,.072,2.476c.466,1.294,2.208,2.068,3.337,2.624a55.067,55.067,0,0,0,5.979,2.411c1.359.479,2.746.893,4.092,1.409.706.272,1.013-.865.312-1.133" transform="translate(-91.824 -47.998)" fill="#000549"/>
      <path id="Path_6481" data-name="Path 6481" d="M375.081,180.675c5.656,3.176,12.3,3.291,18.518,4.538a64.828,64.828,0,0,0,9.569.678c2.8.141,5.536.2,8.163-.909.694-.293.1-1.306-.593-1.015-2.694,1.139-5.59.815-8.427.712a51.537,51.537,0,0,1-9.272-.792c-5.867-1.285-11.988-1.208-17.364-4.226a.588.588,0,0,0-.593,1.015" transform="translate(-92.529 -49.677)" fill="#000549"/>
      <path id="Path_6482" data-name="Path 6482" d="M392.346,158.428c1.269,1.464,3.476,1.927,5.306,2.15a12.9,12.9,0,0,0,5.84-.41c.705-.258.4-1.395-.312-1.133a11.934,11.934,0,0,1-5.259.4c-1.606-.172-3.629-.55-4.744-1.837-.5-.573-1.325.261-.831.831" transform="translate(-93.565 -48.357)" fill="#000549"/>
      <path id="Path_6483" data-name="Path 6483" d="M378.9,177.545a1.029,1.029,0,0,0,.724,1.926,1.029,1.029,0,0,0-.724-1.926" transform="translate(-92.735 -49.551)" fill="#fcd260"/>
      <path id="Path_6484" data-name="Path 6484" d="M385.476,179.277a1.03,1.03,0,0,0,.725,1.926,1.03,1.03,0,0,0-.725-1.926" transform="translate(-93.127 -49.655)" fill="#fcd260"/>
      <path id="Path_6485" data-name="Path 6485" d="M392.653,180.938a1.03,1.03,0,0,0,.726,1.926,1.03,1.03,0,0,0-.726-1.926" transform="translate(-93.554 -49.753)" fill="#fcd260"/>
      <path id="Path_6486" data-name="Path 6486" d="M400.769,181.778a1.03,1.03,0,0,0,.726,1.927,1.03,1.03,0,0,0-.726-1.927" transform="translate(-94.037 -49.804)" fill="#fcd260"/>
      <path id="Path_6487" data-name="Path 6487" d="M408.628,181.935a1.03,1.03,0,0,0,.726,1.926,1.03,1.03,0,0,0-.726-1.926" transform="translate(-94.505 -49.813)" fill="#fcd260"/>
      <path id="Path_6488" data-name="Path 6488" d="M364.942,212.869a29.129,29.129,0,0,0-4.589,3.8c-1.292,1.173-2.693,2.226-3.9,3.488a7.218,7.218,0,0,0-2.2,3.862,14.813,14.813,0,0,0,.371,5.094c.846,4.185,1.6,8.365,2.144,12.6.27,2.092.458,4.162.522,6.268a11.118,11.118,0,0,0,1.07,5.2.593.593,0,0,0,1.016,0c3.53-6.726,3.959-14.461,6.35-21.574.242-.719-.893-1.028-1.133-.313-2.356,7.009-2.756,14.67-6.232,21.295h1.016c-.908-1.626-.882-3.539-.928-5.348a56.818,56.818,0,0,0-.563-5.975c-.486-3.684-1.009-7.387-1.815-11.016a22,22,0,0,1-.735-5.071,6.187,6.187,0,0,1,2.2-4.443c1.152-1.152,2.45-2.14,3.654-3.233a27.5,27.5,0,0,1,4.351-3.619.588.588,0,0,0-.593-1.015" transform="translate(-91.3 -51.654)" fill="#000549"/>
      <path id="Path_6489" data-name="Path 6489" d="M405.637,223.3a27.639,27.639,0,0,1,2.172,5.224c.559,1.528,1.249,3,1.733,4.56a6.192,6.192,0,0,1-.1,4.95,22.983,22.983,0,0,1-3.242,4.431c-2.4,2.837-4.581,5.895-6.716,8.935a54.239,54.239,0,0,0-3.108,4.81c-.859,1.547-1.729,3.236-3.254,4.228l.884.508c.006-7.483,3.2-14.446,4.375-21.749.119-.74-1.014-1.058-1.133-.312-1.194,7.41-4.411,14.465-4.417,22.061a.593.593,0,0,0,.885.507,10.613,10.613,0,0,0,3.242-3.872c.989-1.734,2.023-3.4,3.164-5.047q3.716-5.348,7.858-10.363a16.746,16.746,0,0,0,2.82-4.3,6.92,6.92,0,0,0,.028-4.59c-.484-1.743-1.264-3.378-1.884-5.073a29.187,29.187,0,0,0-2.292-5.505c-.4-.642-1.414-.053-1.015.593" transform="translate(-93.603 -52.228)" fill="#000549"/>
      <path id="Path_6490" data-name="Path 6490" d="M383.067,191.047c-6.66,4.537-6,16.03,2.314,18.27a11.806,11.806,0,0,0,11.527-3.745,9.593,9.593,0,0,0,.718-11.995,10.38,10.38,0,0,0-6.074-4.356,10.868,10.868,0,0,0-8.484,1.825c-.629.414-.041,1.432.592,1.015a9.977,9.977,0,0,1,6.867-1.844,8.865,8.865,0,0,1,5.273,2.917,8.567,8.567,0,0,1,.946,10.755,10.862,10.862,0,0,1-9.779,4.538,8.12,8.12,0,0,1-7.091-6.406,9.659,9.659,0,0,1,3.783-9.96c.623-.423.035-1.443-.592-1.015" transform="translate(-92.753 -50.236)" fill="#000549"/>
      <path id="Path_6491" data-name="Path 6491" d="M385.039,193.778a7.455,7.455,0,0,0-3.149,6.878,6.514,6.514,0,0,0,4.753,5.779,8.145,8.145,0,0,0,7.952-2.571,6.658,6.658,0,0,0,.513-8.313,7.2,7.2,0,0,0-4.206-3.023,7.515,7.515,0,0,0-5.864,1.25c-.629.414-.041,1.432.593,1.015a6.542,6.542,0,0,1,4.5-1.22,5.789,5.789,0,0,1,3.441,1.912,5.578,5.578,0,0,1,.607,7.012,7.121,7.121,0,0,1-6.421,2.962,5.281,5.281,0,0,1-4.592-4.175,6.309,6.309,0,0,1,2.461-6.492c.622-.423.034-1.442-.593-1.015" transform="translate(-92.949 -50.438)" fill="#000549"/>
      <path id="Path_6492" data-name="Path 6492" d="M364.748,220.293a42.786,42.786,0,0,0,13.788,4.742c.74.118,1.059-1.015.312-1.134a41.847,41.847,0,0,1-13.507-4.622c-.664-.364-1.257.651-.593,1.015" transform="translate(-91.914 -52.036)" fill="#000549"/>
      <path id="Path_6493" data-name="Path 6493" d="M386.9,227.025a89.829,89.829,0,0,0,16.74,3.156c.755.055.751-1.122,0-1.176a88.241,88.241,0,0,1-16.429-3.114.588.588,0,0,0-.311,1.133" transform="translate(-93.225 -52.433)" fill="#000549"/>
      <path id="Path_6494" data-name="Path 6494" d="M368.843,241.141q-4.661,18.545-9.321,37.089a.588.588,0,0,0,1.133.312q4.659-18.545,9.32-37.089a.588.588,0,0,0-1.132-.312" transform="translate(-91.619 -53.317)" fill="#fcd260"/>
      <path id="Path_6495" data-name="Path 6495" d="M371.639,266.025q-4.658,18.546-9.32,37.093a.588.588,0,0,0,1.133.313q4.659-18.548,9.32-37.094a.588.588,0,0,0-1.133-.312" transform="translate(-91.785 -54.799)" fill="#fcd260"/>
      <path id="Path_6496" data-name="Path 6496" d="M385.885,247.714q-4.658,18.546-9.32,37.092a.588.588,0,0,0,1.133.312q4.66-18.546,9.32-37.092a.588.588,0,0,0-1.133-.312" transform="translate(-92.633 -53.708)" fill="#fcd260"/>
      <path id="Path_6497" data-name="Path 6497" d="M387.988,267.361q-1.514,6.035-3.031,12.066a.589.589,0,0,0,1.134.312q1.515-6.032,3.03-12.066a.588.588,0,0,0-1.133-.312" transform="translate(-93.133 -54.878)" fill="#fcd260"/>
      <path id="Path_6498" data-name="Path 6498" d="M356.238,261.155q-1.515,6.034-3.031,12.066a.589.589,0,0,0,1.134.312q1.515-6.032,3.03-12.066a.588.588,0,0,0-1.133-.312" transform="translate(-91.243 -54.509)" fill="#fcd260"/>
      <path id="Path_6499" data-name="Path 6499" d="M359.948,287.665q-1.515,6.034-3.032,12.066a.589.589,0,0,0,1.134.312q1.515-6.032,3.03-12.066a.588.588,0,0,0-1.132-.312" transform="translate(-91.464 -56.087)" fill="#fcd260"/>
      <path id="Path_6500" data-name="Path 6500" d="M371.1,290.7q-1.514,6.034-3.031,12.066a.589.589,0,0,0,1.134.312q1.515-6.032,3.03-12.066a.588.588,0,0,0-1.133-.312" transform="translate(-92.128 -56.268)" fill="#fcd260"/>
      <path id="Path_6501" data-name="Path 6501" d="M356.863,92.445a14.77,14.77,0,0,0-15.316-9.739c-6.986.544-12.538,5.54-15.549,11.641a21.648,21.648,0,0,0-2.391,10.082,21.908,21.908,0,0,0,3.85,11,16.864,16.864,0,0,0,9.144,7.268,16.163,16.163,0,0,0,10.328-.092,23.772,23.772,0,0,0,8.85-6.416,17.217,17.217,0,0,0,3.053-4.636,9.613,9.613,0,0,0,.71-2.505,16.144,16.144,0,0,0-.03-2.188.588.588,0,0,0-1.176,0V107a.588.588,0,0,0,1.176,0v-.074a.594.594,0,0,0-1-.415c-2.622,3.08-5.838,5.868-10.071,6.02-3.489.125-7.384-.787-9.67-3.6-4.8-5.89-1.29-15.511,5.967-17.229,3.805-.9,7.854.023,11.4,1.459.7.283,1.006-.853.312-1.134a20.785,20.785,0,0,0-11.369-1.594,11.516,11.516,0,0,0-8.494,6.706,12.333,12.333,0,0,0,.428,11.331c2.121,3.526,5.853,4.875,9.785,5.192,5.246.421,9.267-2.481,12.538-6.324l-1-.416V107a.588.588,0,0,0,1.176,0v-.148a.588.588,0,0,0-1.176,0,10.1,10.1,0,0,1-.389,3.752,14.249,14.249,0,0,1-2.4,4.047,24.493,24.493,0,0,1-7.116,5.944,15.035,15.035,0,0,1-18.3-3.557,23.238,23.238,0,0,1-5.1-10.33,18,18,0,0,1,.992-9.44c2.127-5.895,6.851-11.521,13.148-13.016,6.966-1.654,14.066,1.662,16.563,8.5.257.705,1.394.4,1.133-.312" transform="translate(-89.481 -43.907)" fill="#000549"/>
      <path id="Path_6502" data-name="Path 6502" d="M336.8,87.794a16.318,16.318,0,0,0-6.356,5.814,21.407,21.407,0,0,0-2.48,8.365c-.093.749,1.083.742,1.176,0a19.942,19.942,0,0,1,2.319-7.772,15.162,15.162,0,0,1,5.934-5.393c.663-.365.071-1.381-.593-1.015" transform="translate(-89.741 -44.208)" fill="#000549"/>
      <path id="Path_6503" data-name="Path 6503" d="M334.395,95.833A10.139,10.139,0,0,0,333,100.862a.588.588,0,0,0,1.176,0,8.932,8.932,0,0,1,1.234-4.435.588.588,0,0,0-1.015-.593" transform="translate(-90.041 -44.674)" fill="#000549"/>
      <path id="Path_6504" data-name="Path 6504" d="M331.123,113.758a13.836,13.836,0,0,0,15.915,7.369.589.589,0,0,0-.313-1.134,12.662,12.662,0,0,1-14.587-6.829c-.324-.683-1.338-.087-1.015.593" transform="translate(-89.925 -45.705)" fill="#000549"/>
      <path id="Path_6505" data-name="Path 6505" d="M337.133,114.039a6.007,6.007,0,0,0,2.122,1.823,8.694,8.694,0,0,0,2.7.813.606.606,0,0,0,.723-.41.592.592,0,0,0-.41-.723,8.244,8.244,0,0,1-2.362-.667,4.765,4.765,0,0,1-1.758-1.43.606.606,0,0,0-.8-.211.593.593,0,0,0-.211.8" transform="translate(-90.282 -45.722)" fill="#000549"/>
      <path id="Path_6506" data-name="Path 6506" d="M344.229,89.194a4.251,4.251,0,0,1,3.877,0,.6.6,0,0,0,.8-.211.593.593,0,0,0-.211-.8,5.446,5.446,0,0,0-5.063,0,.588.588,0,0,0,.593,1.015" transform="translate(-90.657 -44.198)" fill="#000549"/>
      <path id="Path_6507" data-name="Path 6507" d="M87.523,321.479c-1.031-2.073-1.989-4.213-4.005-5.505-1.423-.912-3.405-1.422-4.814-.208-3.558,3.068.529,8.568,2.548,11.249a24.559,24.559,0,0,0,3.835,4.621c1.447,1.164,2.811.91,4.2-.211a18.925,18.925,0,0,0,3.722-4.385c1.43-2.181,2.906-4.881,2.838-7.567-.055-2.2-1.572-4.237-3.963-3.654-2.566.625-4.319,3.438-5.379,5.66-.325.679.689,1.276,1.016.593.826-1.728,2.005-3.745,3.712-4.728a2.332,2.332,0,0,1,2.418-.192,2.806,2.806,0,0,1,1.021,2.32c.064,2.4-1.285,4.788-2.536,6.753a21.349,21.349,0,0,1-2.8,3.562c-.929.938-2.05,2-3.329,1.084a16.125,16.125,0,0,1-3.282-3.82c-.911-1.255-1.853-2.478-2.641-3.819-.877-1.5-2-3.538-1.4-5.316.679-2.032,2.582-1.961,4.162-.979,1.869,1.161,2.719,3.241,3.66,5.134.338.677,1.351.083,1.016-.593" transform="translate(-74.818 -57.742)" fill="#000549"/>
      <path id="Path_6508" data-name="Path 6508" d="M416.524,330.121c-1.032-2.074-1.99-4.212-4.006-5.505-1.422-.911-3.405-1.422-4.814-.207-3.556,3.067.527,8.567,2.548,11.248a24.564,24.564,0,0,0,3.836,4.622c1.447,1.164,2.811.911,4.2-.211a18.875,18.875,0,0,0,3.722-4.385c1.431-2.181,2.906-4.881,2.839-7.567-.054-2.2-1.572-4.238-3.963-3.655-2.565.625-4.319,3.438-5.378,5.66-.325.679.688,1.276,1.016.593.824-1.728,2.005-3.745,3.711-4.728a2.333,2.333,0,0,1,2.419-.192,2.811,2.811,0,0,1,1.02,2.321c.063,2.4-1.285,4.788-2.536,6.753a21.255,21.255,0,0,1-2.8,3.562c-.929.938-2.05,2-3.328,1.084a16.193,16.193,0,0,1-3.283-3.821c-.91-1.255-1.852-2.478-2.64-3.819-.877-1.5-2-3.536-1.4-5.315.679-2.032,2.579-1.962,4.16-.98,1.869,1.162,2.72,3.24,3.662,5.134.337.677,1.35.083,1.016-.593" transform="translate(-94.405 -58.257)" fill="#000549"/>
      <path id="Path_6509" data-name="Path 6509" d="M432.642,207.707a9.4,9.4,0,0,0-2.385-1.2c-1.265-.287-3.165.031-2.719,1.919.333,1.411,2.658,2.387,3.837,2.862.852.277,3.128,1.414,4.013.991.964-.4,1.115-3.278,1.107-4.153a7.705,7.705,0,0,0-.72-3.61c-.685-1.193-1.98-1.528-2.746-.165a6.383,6.383,0,0,0-.387,3.359" transform="translate(-95.665 -51.099)" fill="#ff6969"/>
      <path id="Path_6510" data-name="Path 6510" d="M340.07,316.731a9.394,9.394,0,0,0-2.385-1.2c-1.265-.287-3.165.031-2.719,1.919.333,1.411,2.658,2.387,3.837,2.862.852.276,3.128,1.414,4.013.991.964-.4,1.115-3.278,1.107-4.153a7.7,7.7,0,0,0-.72-3.609c-.686-1.194-1.98-1.528-2.746-.165a6.384,6.384,0,0,0-.387,3.359" transform="translate(-90.154 -57.59)" fill="#ff6969"/>
      <path id="Path_6511" data-name="Path 6511" d="M127.31,65.24a11.984,11.984,0,0,0-1.556-3.021c-1.089-1.24-3.282-2.33-4.232-.055-.711,1.7.954,4.442,1.813,5.811.67.92,2.165,3.79,3.389,4.017,1.3.3,3.6-2.54,4.241-3.448a9.787,9.787,0,0,0,1.954-4.254c.186-1.741-.9-3.052-2.7-2.221a8.117,8.117,0,0,0-2.906,3.17" transform="translate(-77.44 -42.608)" fill="#ff6969"/>
      <path id="Path_6512" data-name="Path 6512" d="M185.233,423.721a11.982,11.982,0,0,0-1.556-3.021c-1.088-1.239-3.282-2.331-4.232-.055-.711,1.7.954,4.442,1.813,5.81.67.921,2.165,3.791,3.389,4.018,1.3.3,3.6-2.54,4.241-3.448a9.786,9.786,0,0,0,1.954-4.255c.186-1.74-.9-3.051-2.7-2.22a8.123,8.123,0,0,0-2.906,3.17" transform="translate(-80.889 -63.95)" fill="#ff6969"/>
      <path id="Path_6513" data-name="Path 6513" d="M252.659,54.542c-1.031-2.074-1.989-4.212-4.005-5.505-1.422-.911-3.405-1.422-4.814-.207-3.556,3.067.527,8.568,2.548,11.248a24.562,24.562,0,0,0,3.836,4.622c1.447,1.164,2.811.911,4.2-.211a18.876,18.876,0,0,0,3.722-4.385c1.431-2.181,2.906-4.881,2.839-7.567-.054-2.2-1.572-4.238-3.963-3.655-2.565.625-4.319,3.438-5.379,5.66-.324.679.688,1.276,1.015.593.825-1.728,2.006-3.745,3.712-4.728a2.333,2.333,0,0,1,2.419-.192,2.812,2.812,0,0,1,1.02,2.321c.063,2.4-1.286,4.788-2.536,6.753a21.21,21.21,0,0,1-2.8,3.562c-.929.938-2.049,2-3.328,1.084a16.2,16.2,0,0,1-3.283-3.821c-.91-1.256-1.852-2.478-2.64-3.819-.877-1.5-2-3.536-1.4-5.316.679-2.032,2.58-1.962,4.16-.98,1.869,1.162,2.72,3.24,3.662,5.134.337.677,1.35.083,1.015-.593" transform="translate(-84.649 -41.85)" fill="#000549"/>
      <path id="Path_6514" data-name="Path 6514" d="M367.572,324.774a62.71,62.71,0,0,1,5.367,3.827v-.831c-6.051,7.313-12.03,14.686-17.8,22.22l.923-.119a28.063,28.063,0,0,0-3.567-2.285c.071.268.14.536.211.8,4.576-8.347,10.833-15.647,15.675-23.826a.588.588,0,0,0-1.015-.593c-4.842,8.179-11.1,15.479-15.675,23.826a.6.6,0,0,0,.211.8,26.412,26.412,0,0,1,3.33,2.1.6.6,0,0,0,.923-.118c5.713-7.454,11.634-14.746,17.62-21.982a.6.6,0,0,0,0-.831,65.258,65.258,0,0,0-5.6-4.01c-.639-.41-1.228.607-.593,1.015" transform="translate(-91.149 -58.255)" fill="#000549"/>
      <path id="Path_6515" data-name="Path 6515" d="M354.73,346.275c1.109.639,2.027,1.556,3.136,2.2a.588.588,0,1,0,.593-1.015c-1.109-.639-2.027-1.555-3.136-2.2a.588.588,0,1,0-.593,1.015" transform="translate(-91.318 -59.536)" fill="#000549"/>
      <path id="Path_6516" data-name="Path 6516" d="M356.11,343.351a18.914,18.914,0,0,0,3.567,2.757.591.591,0,0,0,.805-.211.6.6,0,0,0-.212-.8c-.578-.411-1.18-.787-1.76-1.2q-.222-.158-.439-.322l-.017-.013-.113-.089c-.073-.059-.147-.119-.219-.182a7.183,7.183,0,0,1-.781-.769.592.592,0,0,0-.831,0,.6.6,0,0,0,0,.831" transform="translate(-91.407 -59.368)" fill="#000549"/>
      <path id="Path_6517" data-name="Path 6517" d="M351.424,349.507c-.847,2.251-2.263,4.3-2.549,6.739a.59.59,0,0,0,.588.588c1.288-.089,2.372-1.138,3.274-1.966.431-.4.846-.813,1.3-1.181a9.647,9.647,0,0,0,1.87-1.67.592.592,0,0,0-.211-.8.6.6,0,0,0-.8.211,8.381,8.381,0,0,1-1.641,1.4c-.425.34-.814.725-1.213,1.095a14.276,14.276,0,0,1-1.345,1.144,5.16,5.16,0,0,1-.705.434,1.961,1.961,0,0,1-.525.166l.588.588a10.9,10.9,0,0,1,1.057-3.2c.493-1.073,1.034-2.125,1.449-3.231a.593.593,0,0,0-.41-.723.6.6,0,0,0-.723.411" transform="translate(-90.986 -59.768)" fill="#000549"/>
      <path id="Path_6518" data-name="Path 6518" d="M351.738,354.241c-.254-.185-.515-.361-.762-.555-.591-.46-1.43.367-.832.832l.01.008a.516.516,0,0,0-.043.125.552.552,0,0,0-.235.213c-.115.188-.2.389-.294.588-.325.681.688,1.277,1.016.593.02-.04.041-.08.06-.12a.577.577,0,0,0,.775-.568.619.619,0,0,0,.306-1.115" transform="translate(-91.024 -60.034)" fill="#262626"/>
      <path id="Path_6519" data-name="Path 6519" d="M361.152,340.575a.588.588,0,0,0,0,1.176.588.588,0,0,0,0-1.176" transform="translate(-91.683 -59.262)" fill="#262626"/>
      <path id="Path_6520" data-name="Path 6520" d="M364.4,336.013a.588.588,0,0,0,0,1.176.588.588,0,0,0,0-1.176" transform="translate(-91.877 -58.99)" fill="#262626"/>
      <path id="Path_6521" data-name="Path 6521" d="M367.9,331.388a.588.588,0,0,0,0,1.176.588.588,0,0,0,0-1.176" transform="translate(-92.085 -58.715)" fill="#262626"/>
      <path id="Path_6522" data-name="Path 6522" d="M343.153,359.9c1.278,2.175,2.121,4.951-.143,6.812a3.93,3.93,0,0,1-4.7.391c-2.819-1.552-5.086-4.771-8.565-4.832-3.846-.068-7.728,2.893-8.2,6.78a7.937,7.937,0,0,0,6.415,8.359,7.421,7.421,0,0,0,8.742-6.129c.1-.74-1.031-1.06-1.133-.313a6.277,6.277,0,0,1-7.8,5.2c-3.776-.932-6.335-5.418-4.415-8.995a7.25,7.25,0,0,1,4.589-3.47,5.669,5.669,0,0,1,4.777.792c2.41,1.513,4.706,4.462,7.8,4.426a5.589,5.589,0,0,0,4.667-3.058c1.044-2.175.125-4.623-1.013-6.559a.588.588,0,0,0-1.015.593" transform="translate(-89.356 -60.36)" fill="#000549"/>
      <path id="Path_6523" data-name="Path 6523" d="M113.029,348.464c8.9-12.263,16.664-25.3,25.6-37.542l-1.1-.3c.636,9.7.278,19.42,1.141,29.106a.6.6,0,0,0,.884.508c4.142-2.505,8.119-5.251,12.189-7.865l-.885-.508a251.47,251.47,0,0,1-3,37.511,63.958,63.958,0,0,1-1.154,6.292h1.134c-.85-4.2-2.208-8.223-3.316-12.352a142.946,142.946,0,0,1-2.691-14.719.592.592,0,0,0-.983-.259c-3.428,3.39-6.532,7.09-9.961,10.481l1,.416c.035-4.708-.116-9.413-.27-14.117a89.083,89.083,0,0,1-.047-9.96c.043-.548-.653-.72-1-.415a86.674,86.674,0,0,1-9.437,6.515c-3.053,2.005-6.391,3.939-9.032,6.492-.545.527.287,1.357.831.83,2.711-2.621,6.171-4.588,9.308-6.645a83.629,83.629,0,0,0,9.16-6.361l-1-.416a89.083,89.083,0,0,0,.047,9.96c.154,4.7.3,9.409.27,14.117a.594.594,0,0,0,1,.416c3.429-3.391,6.532-7.091,9.961-10.482l-.982-.259a142.973,142.973,0,0,0,2.69,14.718c1.108,4.13,2.467,8.152,3.316,12.353a.593.593,0,0,0,1.134,0,105.972,105.972,0,0,0,2.112-13.571c.785-6.662,1.387-13.351,1.766-20.049.2-3.495.332-7,.322-10.5a.592.592,0,0,0-.884-.507c-4.07,2.615-8.048,5.359-12.189,7.864l.885.508c-.862-9.687-.505-19.408-1.141-29.106a.593.593,0,0,0-1.095-.3c-8.941,12.24-16.7,25.28-25.6,37.542-.446.613.574,1.2,1.015.593" transform="translate(-76.878 -57.445)" fill="#000549"/>
      <path id="Path_6524" data-name="Path 6524" d="M395.568,118.116c3.428-5.194,6.39-10.674,9.834-15.859l-1.1-.3c.428,3.969.467,7.962.987,11.921.053.4.471.783.885.508,1.652-1.1,3.238-2.3,4.86-3.444l-.885-.508a100.532,100.532,0,0,1-.15,10.087,55.493,55.493,0,0,1-.759,7.866h1.134c-.434-1.721-1.069-3.358-1.593-5.048a60.59,60.59,0,0,1-1.354-5.951.593.593,0,0,0-.983-.26c-1.34,1.458-2.559,3.021-3.9,4.478l1,.416c-.125-3.278-.655-6.591-.561-9.872a.6.6,0,0,0-1-.416c-2.259,2.1-5.19,3.443-7.345,5.666-.527.543.3,1.375.831.83,2.154-2.22,5.085-3.562,7.345-5.665l-1-.416c-.095,3.281.435,6.594.561,9.872a.6.6,0,0,0,1,.416c1.34-1.458,2.559-3.021,3.9-4.478l-.983-.259c.4,1.984.753,4.014,1.354,5.95.525,1.69,1.16,3.328,1.593,5.048a.593.593,0,0,0,1.134,0,56.079,56.079,0,0,0,.781-7.845,101.615,101.615,0,0,0,.17-10.42.593.593,0,0,0-.884-.508c-1.622,1.147-3.208,2.34-4.86,3.444l.884.508c-.52-3.959-.56-7.953-.987-11.921a.593.593,0,0,0-1.095-.3c-3.444,5.185-6.407,10.665-9.834,15.859-.419.633.6,1.223,1.015.593" transform="translate(-93.7 -45.021)" fill="#000549"/>
      <path id="Path_6525" data-name="Path 6525" d="M159.293,124.318a27.2,27.2,0,0,1-2.531-6.345,1.13,1.13,0,0,0-.008-.194,1.211,1.211,0,0,0,.463-1.175c-.661-4.119-1.6-8.187-1.525-12.383a1.107,1.107,0,0,0-.2-.684c.1-.572.2-1.143.314-1.712a1.144,1.144,0,0,0,.827-1.053,38.222,38.222,0,0,1,2.162-9.583,1.8,1.8,0,0,0,.189-.762,1.181,1.181,0,0,0-2.31-.313c-.063.19-.123.38-.185.569-.434.575-1.8,1.78-2.078,2.087a23.071,23.071,0,0,0-2.229,2.9,1.2,1.2,0,0,0-.561.437c-4.2,5.879-5.6,14.074-5.78,21.179-.157,6.278,7.32,8.641,12.438,8.8a1.187,1.187,0,0,0,1.015-1.769" transform="translate(-78.898 -44.301)" fill="#a8b6ef"/>
      <path id="Path_6526" data-name="Path 6526" d="M173.473,106.561a1.2,1.2,0,0,0-.1-.3c.1-5.179-3.115-9.26-6.389-13.022l-.529-.757a1.171,1.171,0,0,0-.582-.447.936.936,0,0,0-.654-.161c-.3-.371-.6-.732-.914-1.081-.025-.028-.057-.066-.085-.1a1.118,1.118,0,0,0-.309-.352c-.592-.671-1.411-1.5-2.233-1.224a1.221,1.221,0,0,0-.559,1.905,1.167,1.167,0,0,0-.106.8c.793,3.858,3.041,7.156,4.389,10.815v0c.214.831.437,1.66.654,2.488a70.6,70.6,0,0,1,.947,7.618,1.2,1.2,0,0,0-.075.394c-.065,3.257-.582,6.471-.784,9.718a1.184,1.184,0,0,0,2.007.831c1.5-1.576,4.561-2.006,5.19-4.368a11.917,11.917,0,0,0,.341-2c1.128-3.551.471-7.184-.213-10.765" transform="translate(-79.793 -44.288)" fill="#ff6969"/>
      <path id="Path_6527" data-name="Path 6527" d="M156.854,87.67a21.706,21.706,0,0,0-12.073,5.9,17.37,17.37,0,0,0-5.461,11.406c-.642,8.049,2.994,15.769,10.413,19.34a20.871,20.871,0,0,0,21.791-2.526,18.547,18.547,0,0,0,6.609-9.265,19.333,19.333,0,0,0-.575-12.086c-2.992-8.276-12.086-14.2-20.86-12.752-.745.123-.429,1.256.312,1.134,7.528-1.24,15.019,3.42,18.545,9.965a17.294,17.294,0,0,1-2.8,20.373,19.968,19.968,0,0,1-19.928,5.125,18.075,18.075,0,0,1-8.305-5.391,17.62,17.62,0,0,1-3.991-10.007,17.07,17.07,0,0,1,3.934-13.31,20.519,20.519,0,0,1,12.385-6.734c.74-.094.75-1.271,0-1.176" transform="translate(-78.506 -44.193)" fill="#000549"/>
      <path id="Path_6528" data-name="Path 6528" d="M158.132,87.953c-5.358,2.912-8.354,8.8-10.238,14.363a69.263,69.263,0,0,0-2.27,8.831c-.607,3.073-1.141,6.411-.324,9.495a.588.588,0,0,0,1.133-.312c-.805-3.042-.192-6.383.432-9.4a71.333,71.333,0,0,1,2.058-7.985c1.781-5.379,4.623-11.159,9.8-13.974.665-.361.072-1.377-.593-1.015" transform="translate(-78.841 -44.217)" fill="#000549"/>
      <path id="Path_6529" data-name="Path 6529" d="M158.878,88.495a52.558,52.558,0,0,0-2.857,18.55,42.48,42.48,0,0,0,.915,9.263c.75,3.254,1.883,6.4,2.65,9.655.174.736,1.307.424,1.133-.312-.718-3.041-1.756-5.993-2.5-9.026a41.258,41.258,0,0,1-1.022-9.58,51.6,51.6,0,0,1,2.815-18.237c.262-.711-.874-1.018-1.133-.312" transform="translate(-79.504 -44.23)" fill="#000549"/>
      <path id="Path_6530" data-name="Path 6530" d="M159.5,88.944a82.881,82.881,0,0,1,5.806,17.384c1.236,5.969,1.737,12.34-.027,18.256a.589.589,0,0,0,1.134.312c1.788-5.994,1.323-12.443.1-18.5a83.956,83.956,0,0,0-6-18.046c-.312-.687-1.325-.091-1.015.593" transform="translate(-79.708 -44.227)" fill="#000549"/>
      <path id="Path_6531" data-name="Path 6531" d="M159.847,89.027c4.519,1.238,7.737,5.093,9.893,9.063a33.718,33.718,0,0,1,4.029,14.451,19.711,19.711,0,0,1-.886,7.256c-.245.718.89,1.026,1.134.313,1.558-4.553,1.067-9.734-.073-14.321a30.2,30.2,0,0,0-7.238-13.883,14.725,14.725,0,0,0-6.547-4.012.588.588,0,0,0-.312,1.133" transform="translate(-79.707 -44.217)" fill="#000549"/>
      <path id="Path_6532" data-name="Path 6532" d="M163.331,169.614c-1.036.27-2.079.505-3.128.721l.664.27c-.861-1.278-1.364-3.308-3.108-3.7a1.314,1.314,0,0,0-1.554.9,4.711,4.711,0,0,0-.174,1.508,21.551,21.551,0,0,1-.326,2.2l.41-.411q-1.019.178-2.038.356a8.654,8.654,0,0,0-1.682.348,1.83,1.83,0,0,0-1.126,1.737,2.185,2.185,0,0,0,.984,1.827,6.988,6.988,0,0,0,1.408.517c.657.228,1.3.482,1.948.749l-.432-.566c-.128,1.167-.331,2.353-.383,3.526a2.638,2.638,0,0,0,.407,1.754,1.392,1.392,0,0,0,1.087.529,2.379,2.379,0,0,0,.509-.059c.412-.083.046.045-.166-.115q-.145-.254-.292-.508a1.238,1.238,0,0,1,.119-.34.588.588,0,0,0,.831.831,9.384,9.384,0,0,0,1.024-1.289c.522-.679,1.167-1.39,1.79-2.051l-.712.091c1.038.545,2.053,1.2,3.14,1.648a1.631,1.631,0,0,0,1.823-.157,2.883,2.883,0,0,0,.344-2.672,11.587,11.587,0,0,0-1.853-2.781c-.03.237-.061.475-.092.712,1.142-1.132,3.359-2.213,3.5-4.021.119-1.584-1.765-1.825-2.92-1.547-.735.177-.424,1.311.312,1.133a1.928,1.928,0,0,1,1.2.01c.426.2.182.6-.024.918-.719,1.1-1.973,1.762-2.893,2.676a.6.6,0,0,0-.092.713c.453.686,1.068,1.256,1.487,1.966a2.484,2.484,0,0,1,.349,1.346c0,.172.023.6-.144.717-.2.136-.684-.149-.881-.249-.894-.457-1.767-.958-2.658-1.425a.6.6,0,0,0-.712.092,28.107,28.107,0,0,0-1.846,2.124,8.853,8.853,0,0,1-.968,1.217l.831.831a.617.617,0,0,0-.387-1.083,1.734,1.734,0,0,0-.377.071.566.566,0,0,1-.271.027.161.161,0,0,1-.15-.1,1.682,1.682,0,0,1-.142-.845c.016-1.224.255-2.472.387-3.689a.6.6,0,0,0-.432-.567c-.881-.366-1.772-.7-2.678-.992a.984.984,0,0,1-.8-.968c0-.638.518-.693,1.038-.788.981-.179,1.963-.349,2.944-.519a.566.566,0,0,0,.411-.411c.145-1.041.309-2.035.375-3.085.026-.42.034-.8.438-.636a2.43,2.43,0,0,1,.977.878c.474.693.748,1.516,1.223,2.222a.614.614,0,0,0,.664.27c1.049-.216,2.093-.451,3.128-.721a.588.588,0,0,0-.312-1.133" transform="translate(-79.221 -48.92)" fill="#000549"/>
      <path id="Path_6533" data-name="Path 6533" d="M212.49,388.753c-1.036.272-2.08.506-3.128.72a9.621,9.621,0,0,1-1-1.812c-.454-1.125-2.8-3.045-2.741,0a18.114,18.114,0,0,1-.349,2.572c-1.132.2-2.266.393-3.4.6-1.455.271-1.258,2.357,0,2.741a30.723,30.723,0,0,1,2.89,1.056c-.109.992-.207,1.983-.333,2.974-.437,3.426,1.874,1.794,1.444,2.23.1-.068,1.178-1.5,1.267-1.6.495-.6,1.014-1.174,1.547-1.737.81.423,1.615.858,2.416,1.3.9.5,2.294,1.171,2.139-1.226-.088-1.357-1.258-2.211-1.9-3.228.621-.635,1.935-1.549,2.53-2.211,1.881-2.092.06-2.755-1.382-2.375" transform="translate(-82.174 -61.968)" fill="#7a84dd"/>
      <path id="Path_6534" data-name="Path 6534" d="M309.761,82.329c-1.036.272-2.079.506-3.128.72a9.568,9.568,0,0,1-1-1.812c-.455-1.125-2.8-3.045-2.74,0a18.263,18.263,0,0,1-.349,2.572c-1.133.2-2.267.393-3.4.6-1.455.271-1.258,2.357,0,2.741a30.712,30.712,0,0,1,2.889,1.056c-.108.992-.206,1.983-.332,2.974-.437,3.426,1.873,1.794,1.444,2.23.1-.068,1.178-1.5,1.267-1.6.495-.6,1.015-1.174,1.547-1.737.81.423,1.615.858,2.415,1.3.9.5,2.295,1.171,2.139-1.226-.088-1.357-1.258-2.211-1.9-3.228.62-.635,1.935-1.549,2.53-2.211,1.881-2.093.059-2.755-1.383-2.375" transform="translate(-87.965 -43.724)" fill="#fcd260"/>
      <path id="Path_6535" data-name="Path 6535" d="M166.857,311.784c-1.036.272-2.079.506-3.128.72a9.566,9.566,0,0,1-1-1.812c-.455-1.125-2.8-3.045-2.74,0a18.248,18.248,0,0,1-.349,2.572c-1.133.2-2.267.393-3.4.6-1.455.271-1.258,2.357,0,2.741a30.715,30.715,0,0,1,2.889,1.056c-.108.992-.206,1.983-.332,2.974-.437,3.426,1.873,1.794,1.444,2.23.1-.068,1.178-1.5,1.267-1.6.495-.6,1.014-1.174,1.547-1.737.81.423,1.615.858,2.415,1.3.9.5,2.295,1.171,2.139-1.226-.088-1.357-1.258-2.211-1.9-3.228.62-.635,1.935-1.549,2.53-2.211,1.881-2.093.059-2.755-1.383-2.375" transform="translate(-79.457 -57.385)" fill="#fcd260"/>
      <path id="Path_6536" data-name="Path 6536" d="M350.427,171.739c-1.06-.148-2.114-.33-3.165-.532l.41.411c-.3-1.475.021-3.786-1.615-4.643a1.387,1.387,0,0,0-1.791.577,14.3,14.3,0,0,0-.731,1.447c-.308.554-.686,1.067-1.005,1.615l.664-.27q-.955-.214-1.908-.426a10.552,10.552,0,0,0-1.821-.366,1.823,1.823,0,0,0-1.731,1.1,2.187,2.187,0,0,0,.128,2.07,6.31,6.31,0,0,0,1.177,1.11c.491.44.965.9,1.43,1.365-.03-.238-.061-.475-.091-.712-.564,1.031-1.2,2.047-1.7,3.111a2.752,2.752,0,0,0-.335,1.851,1.4,1.4,0,0,0,.875.925,1.6,1.6,0,0,0,.383.107c.361.043.092.121-.107-.218l-.059-.453c.1-.324.378-.384.193-.3-.606.267-.175,1.3.452,1.074a9.464,9.464,0,0,0,1.5-.812c.814-.469,1.664-.871,2.52-1.256l-.712-.092c.711.853,1.364,1.787,2.134,2.586a1.751,1.751,0,0,0,1.715.67c.857-.263,1.3-1.392,1.425-2.19.191-1.235-.4-2.357-.634-3.54l-.41.723c1.506-.617,3.864-.756,4.785-2.3.824-1.383-.773-2.44-1.97-2.629-.74-.117-1.059,1.017-.312,1.133a1.977,1.977,0,0,1,1.212.516c.266.324-.074.58-.355.778-1.073.754-2.478.88-3.673,1.37a.608.608,0,0,0-.41.722,18.918,18.918,0,0,1,.631,2.549,2.551,2.551,0,0,1-.351,1.409c-.057.1-.169.325-.3.341-.277.031-.683-.56-.825-.731-.615-.741-1.211-1.5-1.828-2.237a.6.6,0,0,0-.712-.091,27.006,27.006,0,0,0-2.43,1.2c-.276.159-.55.318-.827.474l-.373.207c-.039.022-.312.136-.109.065q.226.537.452,1.074a.609.609,0,0,0-.083-1.137c-.192-.065-.5-.1-.564-.135-.05-.028-.1-.017-.113-.185a1.645,1.645,0,0,1,.168-.725,32.44,32.44,0,0,1,1.769-3.261.6.6,0,0,0-.092-.712c-.647-.649-1.312-1.279-2.011-1.871-.416-.352-.728-.706-.52-1.28s.683-.5,1.194-.386c.973.21,1.946.429,2.918.647a.6.6,0,0,0,.664-.27,22.792,22.792,0,0,0,1.29-2.2c.127-.286.387-1.25.818-.881a2.342,2.342,0,0,1,.608,1.291c.141.829.109,1.676.277,2.512a.571.571,0,0,0,.41.41c1.051.2,2.106.385,3.166.532.739.1,1.06-1.029.312-1.133" transform="translate(-90.311 -48.918)" fill="#000549"/>
      <path id="Path_6537" data-name="Path 6537" d="M127.211,137.049c-3.032,0-3.032,4.7,0,4.7s3.032-4.7,0-4.7" transform="translate(-77.654 -47.145)" fill="#000549"/>
      <path id="Path_6538" data-name="Path 6538" d="M201.254,72.493c-3.033,0-3.033,4.7,0,4.7s3.032-4.7,0-4.7" transform="translate(-82.062 -43.301)" fill="#000549"/>
      <path id="Path_6539" data-name="Path 6539" d="M331.253,144.493c-3.033,0-3.033,4.7,0,4.7s3.033-4.7,0-4.7" transform="translate(-89.801 -47.588)" fill="#000549"/>
      <path id="Path_6540" data-name="Path 6540" d="M359.253,61.493c-3.033,0-3.033,4.7,0,4.7s3.033-4.7,0-4.7" transform="translate(-91.469 -42.647)" fill="#000549"/>
      <path id="Path_6542" data-name="Path 6542" d="M380.253,410c-3.033,0-3.033,4.7,0,4.7s3.033-4.7,0-4.7" transform="translate(-92.719 -63.395)" fill="#000549"/>
      <path id="Path_6543" data-name="Path 6543" d="M297.253,370.485c-3.033,0-3.033,4.7,0,4.7s3.033-4.7,0-4.7" transform="translate(-87.777 -61.043)" fill="#000549"/>
      <path id="Path_6544" data-name="Path 6544" d="M204.254,362.485c-3.033,0-3.033,4.7,0,4.7s3.032-4.7,0-4.7" transform="translate(-82.241 -60.566)" fill="#000549"/>
      <path id="Path_6545" data-name="Path 6545" d="M122.253,400.485c-3.032,0-3.032,4.7,0,4.7s3.032-4.7,0-4.7" transform="translate(-77.359 -62.829)" fill="#000549"/>
      <path id="Path_6546" data-name="Path 6546" d="M134.254,281.485c-3.033,0-3.033,4.7,0,4.7s3.032-4.7,0-4.7" transform="translate(-78.073 -55.744)" fill="#000549"/>
      <path id="Path_6547" data-name="Path 6547" d="M108.569,185.827a9.1,9.1,0,0,1-.918-.574c-.372-.665-.745-1.331-1.135-1.986a1.216,1.216,0,0,0-.253-.3c-1.49-4.31-4.249-8.054-6.967-11.751-.9-1.539-1.841-3.055-2.655-4.643a1,1,0,0,0-.788-.582,1.381,1.381,0,0,0-.13-.173,16.225,16.225,0,0,1-1.079-2.962c-.314-1.269-2.422-1.025-2.31.313.064.766.114,1.531.169,2.3a1.141,1.141,0,0,0-.64.995c-.045.812-.1,1.623-.167,2.434-.658,6.38-2.937,12.5-3.124,18.962a1.06,1.06,0,0,0,.279.782,27.343,27.343,0,0,0-.177,5.632c0,.017-.008.035-.01.053a1.074,1.074,0,0,0-.637,1.649l.186.283c.011.016.028.028.039.044-.248,1.079-.522,2.154-.814,3.234a1.19,1.19,0,0,0,1.446,1.446c4.184-.832,7.6-3.241,10.9-5.849,2.463-1.588,4.946-3.144,7.483-4.615a1.22,1.22,0,0,0,.393-.355c1.924-.3,3.063-3.172.906-4.336" transform="translate(-75.419 -48.632)" fill="#5cb7ae"/>
      <path id="Path_6548" data-name="Path 6548" d="M94.39,161.336l35.558,15.154-18.809,12.461Z" transform="translate(-75.835 -48.591)" fill="#ff6969"/>
      <path id="Path_6549" data-name="Path 6549" d="M110.711,190.7l14.812,30.095a192.749,192.749,0,0,1-27.979-11.538L87.2,203.4Z" transform="translate(-75.407 -50.339)" fill="#fcd260"/>
      <path id="Path_6550" data-name="Path 6550" d="M131.008,177.449,112.2,189.91l14.812,30.095s4.751-31.311,4-42.556" transform="translate(-76.895 -49.55)" fill="#a8b6ef"/>
      <path id="Path_6551" data-name="Path 6551" d="M91.985,160.663c-.989,7.5-2.094,14.983-3.115,22.479-.559,4.109-1.105,8.22-1.6,12.337q-.329,2.713-.62,5.43c-.1.956.168,1.22.877,1.751,3.463,2.6,7.72,4.356,11.605,6.2q8.033,3.813,16.236,7.255c2.282.961,4.57,1.913,6.887,2.785a9.577,9.577,0,0,0,3.237.9.593.593,0,0,0,.567-.432c1.809-11.663,3.3-23.466,3.929-35.255a67.492,67.492,0,0,0,.088-7.692.622.622,0,0,0-.432-.567c-12.3-5.126-24.594-10.285-36.773-15.694-.685-.3-1.284.708-.592,1.016,12.271,5.449,24.66,10.646,37.053,15.812l-.432-.567a102.7,102.7,0,0,1-.637,15.186c-.558,6.286-1.286,12.558-2.11,18.813-.38,2.883-.783,5.763-1.229,8.636l.567-.432c-.078,0-.452-.035-.345.019s-.131-.036.062,0c-.163-.029-.321-.074-.48-.118-.567-.16-1.122-.368-1.673-.571-1.892-.695-3.758-1.46-5.619-2.232q-7.949-3.3-15.75-6.947a109.29,109.29,0,0,1-12.59-6.456,4.94,4.94,0,0,1-1.346-.98c-.168-.234.031-.053.032-.023a9.141,9.141,0,0,1,.129-1.223q.15-1.38.312-2.757c.473-4.047,1-8.087,1.546-12.124,1.1-8.185,2.314-16.355,3.393-24.542.1-.748-1.078-.74-1.176,0" transform="translate(-75.373 -48.517)" fill="#000549"/>
      <path id="Path_6552" data-name="Path 6552" d="M93.248,162.076c3.825,4.6,6.553,10.059,9.968,14.959a91.546,91.546,0,0,1,5.054,8.509c4.273,7.818,8.209,15.822,12.068,23.851q2.435,5.064,4.794,10.165c.316.687,1.33.089,1.016-.593q-4.858-10.567-10.084-20.962c-3.548-7.093-7.047-14.38-11.447-21-1.612-2.424-3.269-4.79-4.783-7.281a69.453,69.453,0,0,0-5.754-8.484c-.484-.582-1.312.253-.831.831" transform="translate(-75.758 -48.574)" fill="#000549"/>
      <path id="Path_6553" data-name="Path 6553" d="M129.186,177.153c-11.145,6.831-22,14.148-33.461,20.455-2.9,1.6-5.837,3.122-8.86,4.467-.69.308-.092,1.321.593,1.015a156.694,156.694,0,0,0,16.321-8.754c5.9-3.511,11.7-7.186,17.5-10.852,2.824-1.785,5.648-3.57,8.5-5.316.644-.394.054-1.412-.593-1.015" transform="translate(-75.369 -49.527)" fill="#000549"/>
      <path id="Path_6554" data-name="Path 6554" d="M92.708,194.063c3.727-1.642,7.18-3.818,10.815-5.643.676-.34.082-1.354-.593-1.015-3.635,1.825-7.088,4-10.815,5.643-.69.3-.093,1.318.593,1.015" transform="translate(-75.681 -50.139)" fill="#000549"/>
      <path id="Path_6555" data-name="Path 6555" d="M95.709,189.256a47.78,47.78,0,0,0,4.7-2.586.588.588,0,0,0-.593-1.015,47.989,47.989,0,0,1-4.7,2.586.591.591,0,0,0-.211.8.6.6,0,0,0,.8.211" transform="translate(-75.861 -50.034)" fill="#000549"/>
      <path id="Path_6556" data-name="Path 6556" d="M93.709,185.726a23.764,23.764,0,0,1,5.268-3,.6.6,0,0,0,.41-.723.592.592,0,0,0-.723-.41,24.843,24.843,0,0,0-5.548,3.116.6.6,0,0,0-.211.8.593.593,0,0,0,.8.211" transform="translate(-75.742 -49.795)" fill="#000549"/>
      <path id="Path_6557" data-name="Path 6557" d="M110.21,179.4c2.472-1.476,5.153-2.584,7.524-4.232.617-.429.03-1.448-.593-1.015-2.371,1.648-5.051,2.756-7.524,4.232a.588.588,0,0,0,.593,1.015" transform="translate(-76.725 -49.348)" fill="#000549"/>
      <path id="Path_6558" data-name="Path 6558" d="M113.209,181.976c1.74-.992,3.536-1.894,5.173-3.057a.6.6,0,0,0,.211-.8.592.592,0,0,0-.8-.211c-1.636,1.162-3.433,2.064-5.173,3.057a.588.588,0,0,0,.593,1.015" transform="translate(-76.903 -49.572)" fill="#000549"/>
      <path id="Path_6559" data-name="Path 6559" d="M115.318,184.86a12.875,12.875,0,0,0,1.757-.824,7.9,7.9,0,0,0,1.559-1.208A.588.588,0,0,0,117.8,182c-.112.111-.226.219-.343.324l-.173.148-.077.062c-.04.034-.082.065-.016.015a7.225,7.225,0,0,1-.712.477c-.237.14-.482.266-.732.384q-.2.093-.4.179c-.024.01-.133.055-.019.008l-.092.039-.235.1a.6.6,0,0,0-.411.722.594.594,0,0,0,.723.411" transform="translate(-77.036 -49.811)" fill="#000549"/>
      <path id="Path_6560" data-name="Path 6560" d="M100.46,205.592c2.869-1.906,5.9-3.541,8.934-5.173.667-.359.073-1.374-.593-1.015-3.03,1.632-6.065,3.266-8.934,5.173-.627.417-.04,1.435.593,1.015" transform="translate(-76.145 -50.853)" fill="#000549"/>
      <path id="Path_6561" data-name="Path 6561" d="M105.209,208.521a32.939,32.939,0,0,0,3.645-2.443.589.589,0,0,0,0-.831.6.6,0,0,0-.83,0,31.668,31.668,0,0,1-3.408,2.26.588.588,0,0,0,.593,1.015" transform="translate(-76.427 -51.195)" fill="#000549"/>
      <path id="Path_6562" data-name="Path 6562" d="M108.959,210.581c.878-.441,1.708-.97,2.586-1.411a.591.591,0,0,0,.211-.8.6.6,0,0,0-.8-.211c-.878.44-1.708.97-2.586,1.411a.591.591,0,0,0-.211.8.6.6,0,0,0,.8.211" transform="translate(-76.65 -51.374)" fill="#000549"/>
      <path id="Path_6563" data-name="Path 6563" d="M119.959,194.461c2.086-1.155,4.262-2.137,6.348-3.292.662-.367.07-1.382-.593-1.015-2.086,1.155-4.262,2.137-6.348,3.292-.662.366-.07,1.382.593,1.015" transform="translate(-77.305 -50.302)" fill="#000549"/>
      <path id="Path_6564" data-name="Path 6564" d="M121.818,198.61a32.654,32.654,0,0,0,4.137-1.94.594.594,0,0,0,.212-.8.6.6,0,0,0-.805-.211,30.814,30.814,0,0,1-3.856,1.822.6.6,0,0,0-.411.722.594.594,0,0,0,.723.411" transform="translate(-77.424 -50.63)" fill="#000549"/>
      <path id="Path_6565" data-name="Path 6565" d="M124.318,202.654a4.276,4.276,0,0,0,1.068-.55c.321-.224.627-.466.953-.685a.588.588,0,1,0-.593-1.015,10.887,10.887,0,0,1-1.669,1.1l.14-.059c-.07.029-.14.056-.211.08a.588.588,0,1,0,.312,1.133" transform="translate(-77.572 -50.912)" fill="#000549"/>
      <path id="Path_6566" data-name="Path 6566" d="M124.283,223.329c4.826,4.2,6.784,10.792,6.548,17.035-.2,5.3-2.014,11.614-6.7,14.674-3.751,2.452-8.588,2.68-12.863,1.748-4.166-.908-8.5-2.973-11.129-6.439-2.6-3.429-2.381-7.54.134-10.956a10.4,10.4,0,0,1,7.461-4.557,8.982,8.982,0,0,1,7.622,3.238c1.856,2.241,2.924,5.606,1.808,8.411-1,2.518-3.42,4.208-5.7,5.482-5.536,3.094-11.781,4.6-17.421,7.476-5.58,2.844-10.363,7.1-12.11,13.29-1.357,4.808-.884,10.683,3.289,13.989a11.766,11.766,0,0,0,3.578,1.882c.719.243,1.026-.893.312-1.133-6.372-2.155-7.717-8.971-5.931-14.821,2.217-7.255,8.807-11.275,15.447-14.013,5.636-2.325,12.2-3.932,16.891-8.04a8.748,8.748,0,0,0,3.275-6.645,10.964,10.964,0,0,0-3.93-8.022,10.121,10.121,0,0,0-7.806-2.194,11.421,11.421,0,0,0-7.327,4.447c-2.734,3.409-3.62,7.757-1.347,11.653,2.235,3.831,6.46,6.28,10.59,7.564,4.422,1.375,9.471,1.586,13.782-.291,5.072-2.206,7.743-7.36,8.763-12.581,1.22-6.237.3-13.247-3.336-18.566a18.1,18.1,0,0,0-3.074-3.462c-.569-.495-1.4.334-.831.831" transform="translate(-75.053 -52.223)" fill="#000549"/>
      <path id="Path_6567" data-name="Path 6567" d="M128.537,223.356c7.738-2.169,9.059,9.5,9.431,14.62.116,1.6.168,3.2.17,4.8a.6.6,0,0,0,.588.588c4.394.309,3.1-6.562,2.614-9.026-.89-4.489-2.119-9.454-5.825-12.482-2.537-2.073-5.553-2.194-8.019.052-.561.511.273,1.34.831.831,4.488-4.087,9.154,2.114,10.4,6.172a34.516,34.516,0,0,1,1.981,10.108c-.008,1.373-.207,3.294-1.982,3.168l.588.588a55.8,55.8,0,0,0-.886-10.439c-.643-3.353-1.762-7.456-4.777-9.47a6.453,6.453,0,0,0-5.426-.639.588.588,0,0,0,.312,1.133" transform="translate(-77.795 -52.099)" fill="#000549"/>
      <path id="Path_6568" data-name="Path 6568" d="M127.378,222.953c-2.037,2.379-1.716,5.265-1.348,8.175a22.156,22.156,0,0,1,.192,5.113c-.174,1.707-.558,3.389-.877,5.073a.6.6,0,0,0,.411.723,8.92,8.92,0,0,0,2.507.022.6.6,0,0,0,.567-.432c.863-6.343-.644-12.615-.45-18.964.023-.757-1.152-.756-1.176,0-.191,6.232,1.338,12.427.491,18.65l.567-.431a7.985,7.985,0,0,1-2.2.021l.411.723c.571-3.018,1.243-6.013.923-9.1-.3-2.906-1.3-6.276.807-8.739.489-.572-.339-1.407-.831-.831" transform="translate(-77.677 -52.208)" fill="#000549"/>
      <path id="Path_6569" data-name="Path 6569" d="M126.467,222.808c-1.108,2.494-3.562,3.918-6.087,4.665a17.586,17.586,0,0,1-8.062.473l.432.566a14.213,14.213,0,0,1,.213-3.135l-.982.259c2.223,1.859,5.439,1.694,8.091,1.027,2.633-.661,5.522-1.956,7.174-4.2.449-.61-.571-1.2-1.015-.593-1.42,1.931-4.049,3.023-6.286,3.614s-5.221.922-7.132-.676a.6.6,0,0,0-.983.259,15.565,15.565,0,0,0-.256,3.448.593.593,0,0,0,.432.567,18.823,18.823,0,0,0,8.866-.528c2.725-.841,5.411-2.45,6.61-5.15.3-.686-.708-1.285-1.015-.593" transform="translate(-76.858 -52.18)" fill="#000549"/>
      <path id="Path_6570" data-name="Path 6570" d="M317.272,42.589v11.4a1.176,1.176,0,0,0,2.351,0v-11.4a1.176,1.176,0,0,0-2.351,0" transform="translate(-89.105 -41.453)" fill="#7a84dd"/>
      <path id="Path_6571" data-name="Path 6571" d="M312.186,49.622h11.286a1.176,1.176,0,0,0,0-2.351H312.186a1.176,1.176,0,0,0,0,2.351" transform="translate(-88.734 -41.8)" fill="#7a84dd"/>
      <path id="Path_6572" data-name="Path 6572" d="M313.778,46.045l6.462,6.462a1.176,1.176,0,1,0,1.663-1.663l-6.462-6.462a1.176,1.176,0,0,0-1.663,1.663" transform="translate(-88.877 -41.608)" fill="#7a84dd"/>
      <path id="Path_6573" data-name="Path 6573" d="M315.439,52.781l6.651-6.938a1.176,1.176,0,1,0-1.663-1.663l-6.651,6.938a1.176,1.176,0,0,0,1.663,1.663" transform="translate(-88.876 -41.596)" fill="#7a84dd"/>
      <path id="Path_6574" data-name="Path 6574" d="M80.882,122.286v11.4a1.176,1.176,0,0,0,2.351,0v-11.4a1.176,1.176,0,0,0-2.351,0" transform="translate(-75.031 -46.198)" fill="#7a84dd"/>
      <path id="Path_6575" data-name="Path 6575" d="M75.8,129.319H87.082a1.176,1.176,0,0,0,0-2.351H75.8a1.176,1.176,0,0,0,0,2.351" transform="translate(-74.66 -46.545)" fill="#7a84dd"/>
      <path id="Path_6576" data-name="Path 6576" d="M77.388,125.742,83.85,132.2a1.176,1.176,0,0,0,1.663-1.663L79.05,124.08a1.176,1.176,0,0,0-1.663,1.663" transform="translate(-74.803 -46.353)" fill="#7a84dd"/>
      <path id="Path_6577" data-name="Path 6577" d="M79.049,132.478,85.7,125.54a1.175,1.175,0,0,0-1.662-1.663l-6.652,6.938a1.176,1.176,0,1,0,1.663,1.663" transform="translate(-74.803 -46.341)" fill="#7a84dd"/>
      <path id="Path_6578" data-name="Path 6578" d="M423.147,271.015v11.4a1.176,1.176,0,0,0,2.351,0v-11.4a1.176,1.176,0,0,0-2.351,0" transform="translate(-95.408 -55.053)" fill="#7a84dd"/>
      <path id="Path_6579" data-name="Path 6579" d="M418.06,278.047h11.286a1.176,1.176,0,0,0,0-2.351H418.06a1.176,1.176,0,0,0,0,2.351" transform="translate(-95.037 -55.399)" fill="#7a84dd"/>
      <path id="Path_6580" data-name="Path 6580" d="M419.653,274.471l6.462,6.462a1.176,1.176,0,0,0,1.663-1.663l-6.462-6.462a1.176,1.176,0,1,0-1.663,1.663" transform="translate(-95.18 -55.207)" fill="#7a84dd"/>
      <path id="Path_6581" data-name="Path 6581" d="M421.314,281.207l6.651-6.938a1.176,1.176,0,1,0-1.663-1.663l-6.651,6.938a1.176,1.176,0,1,0,1.663,1.663" transform="translate(-95.18 -55.195)" fill="#7a84dd"/>
      <path id="Path_6582" data-name="Path 6582" d="M304.616,405.126v11.4a1.176,1.176,0,0,0,2.351,0v-11.4a1.176,1.176,0,0,0-2.351,0" transform="translate(-88.351 -63.037)" fill="#7a84dd"/>
      <path id="Path_6583" data-name="Path 6583" d="M299.529,412.159h11.286a1.176,1.176,0,0,0,0-2.351H299.529a1.176,1.176,0,0,0,0,2.351" transform="translate(-87.981 -63.384)" fill="#7a84dd"/>
      <path id="Path_6584" data-name="Path 6584" d="M301.121,408.582l6.462,6.462a1.176,1.176,0,0,0,1.663-1.663l-6.462-6.462a1.176,1.176,0,0,0-1.663,1.663" transform="translate(-88.123 -63.192)" fill="#7a84dd"/>
      <path id="Path_6585" data-name="Path 6585" d="M302.783,415.318l6.651-6.938a1.175,1.175,0,1,0-1.662-1.663l-6.652,6.938a1.176,1.176,0,0,0,1.663,1.663" transform="translate(-88.123 -63.18)" fill="#7a84dd"/>
    </g>
  </g>
</svg>
