<svg xmlns="http://www.w3.org/2000/svg" xmlns:xlink="http://www.w3.org/1999/xlink" width="278.717" height="314.827" viewBox="0 0 278.717 314.827">
  <defs>
    <clipPath id="clip-path">
      <rect id="Rectangle_1361" data-name="Rectangle 1361" width="89.173" height="80.012" fill="none"/>
    </clipPath>
    <clipPath id="clip-path-3">
      <rect id="Rectangle_1362" data-name="Rectangle 1362" width="35.222" height="30.944" fill="none"/>
    </clipPath>
    <clipPath id="clip-path-4">
      <rect id="Rectangle_1363" data-name="Rectangle 1363" width="34.412" height="30.387" fill="none"/>
    </clipPath>
  </defs>
  <g id="Group_5308" data-name="Group 5308" transform="translate(-48.142 -242.773)">
    <g id="Group_5254" data-name="Group 5254" transform="translate(133.787 242.773)">
      <g id="Group_5260" data-name="Group 5260" transform="translate(0 0)">
        <g id="Group_5244" data-name="Group 5244">
          <g id="Group_5243" data-name="Group 5243" clip-path="url(#clip-path)">
            <path id="Path_6441" data-name="Path 6441" d="M46.829,7.28c9.029,0,40.117,44.765,40.117,53.316,0,4.024-7.956,18.61-40.117,18.61S6.712,64.62,6.712,60.6C6.712,52.045,37.8,7.28,46.829,7.28" transform="translate(-2.242 -2.432)" fill="#f8cbca"/>
          </g>
        </g>
        <g id="Group_5252" data-name="Group 5252">
          <g id="Group_5251" data-name="Group 5251" clip-path="url(#clip-path)">
            <path id="Path_6442" data-name="Path 6442" d="M79.537,25.207C69.689,12.075,59.2.783,54.282.783S38.875,12.075,29.027,25.207" transform="translate(-9.696 -0.262)" fill="none" stroke="#73706d" stroke-linecap="round" stroke-linejoin="round" stroke-width="1.565"/>
            <line id="Line_1" data-name="Line 1" x2="19.607" transform="translate(34.382 71.702)" fill="none" stroke="#73706d" stroke-linecap="round" stroke-linejoin="round" stroke-width="1.565"/>
            <line id="Line_2" data-name="Line 2" x2="27.478" transform="translate(30.447 67.03)" fill="none" stroke="#73706d" stroke-linecap="round" stroke-linejoin="round" stroke-width="1.565"/>
            <g id="Group_5247" data-name="Group 5247" transform="translate(53.952 49.068)" opacity="0.5" style="mix-blend-mode: multiply;isolation: isolate">
              <g id="Group_5246" data-name="Group 5246">
                <g id="Group_5245" data-name="Group 5245" clip-path="url(#clip-path-3)">
                  <path id="Path_6443" data-name="Path 6443" d="M81.011,104.621c27.96-2.51,35.222-16.076,35.222-20.092,0-2.043-1.628-5.965-4.278-10.851Z" transform="translate(-81.011 -73.678)" fill="#f8cbca"/>
                </g>
              </g>
            </g>
            <g id="Group_5250" data-name="Group 5250" transform="translate(0 49.539)" opacity="0.5" style="mix-blend-mode: multiply;isolation: isolate">
              <g id="Group_5249" data-name="Group 5249">
                <g id="Group_5248" data-name="Group 5248" clip-path="url(#clip-path-4)">
                  <path id="Path_6444" data-name="Path 6444" d="M4.025,74.385C1.526,79.052,0,82.789,0,84.766c0,3.976,7.133,17.306,34.412,20.006Z" transform="translate(0 -74.385)" fill="#f8cbca"/>
                </g>
              </g>
            </g>
          </g>
        </g>
      </g>
    </g>
    <g id="Group_5255" data-name="Group 5255" transform="translate(48.142 322.785)">
      <g id="Group_5253" data-name="Group 5253" transform="translate(0)" clip-path="url(#clip-path)">
        <g id="Group_5244-2" data-name="Group 5244" transform="translate(0 0)">
          <g id="Group_5243-2" data-name="Group 5243" clip-path="url(#clip-path)">
            <path id="Path_6441-2" data-name="Path 6441" d="M46.829,7.28c9.029,0,40.117,44.765,40.117,53.316,0,4.024-7.956,18.61-40.117,18.61S6.712,64.62,6.712,60.6C6.712,52.045,37.8,7.28,46.829,7.28" transform="translate(-2.242 -2.432)" fill="#f8cbca"/>
          </g>
        </g>
        <g id="Group_5252-2" data-name="Group 5252" transform="translate(0 0)">
          <g id="Group_5251-2" data-name="Group 5251" clip-path="url(#clip-path)">
            <path id="Path_6442-2" data-name="Path 6442" d="M79.537,25.207C69.689,12.075,59.2.783,54.282.783S38.875,12.075,29.027,25.207" transform="translate(-9.696 -0.262)" fill="none" stroke="#73706d" stroke-linecap="round" stroke-linejoin="round" stroke-width="1.565"/>
            <line id="Line_1-2" data-name="Line 1" x2="19.607" transform="translate(34.382 71.702)" fill="none" stroke="#73706d" stroke-linecap="round" stroke-linejoin="round" stroke-width="1.565"/>
            <line id="Line_2-2" data-name="Line 2" x2="27.478" transform="translate(30.447 67.03)" fill="none" stroke="#73706d" stroke-linecap="round" stroke-linejoin="round" stroke-width="1.565"/>
            <g id="Group_5247-2" data-name="Group 5247" transform="translate(53.952 49.068)" opacity="0.5" style="mix-blend-mode: multiply;isolation: isolate">
              <g id="Group_5246-2" data-name="Group 5246">
                <g id="Group_5245-2" data-name="Group 5245" clip-path="url(#clip-path-3)">
                  <path id="Path_6443-2" data-name="Path 6443" d="M81.011,104.621c27.96-2.51,35.222-16.076,35.222-20.092,0-2.043-1.628-5.965-4.278-10.851Z" transform="translate(-81.011 -73.678)" fill="#f8cbca"/>
                </g>
              </g>
            </g>
            <g id="Group_5250-2" data-name="Group 5250" transform="translate(0 49.539)" opacity="0.5" style="mix-blend-mode: multiply;isolation: isolate">
              <g id="Group_5249-2" data-name="Group 5249">
                <g id="Group_5248-2" data-name="Group 5248" clip-path="url(#clip-path-4)">
                  <path id="Path_6444-2" data-name="Path 6444" d="M4.025,74.385C1.526,79.052,0,82.789,0,84.766c0,3.976,7.133,17.306,34.412,20.006Z" transform="translate(0 -74.385)" fill="#f8cbca"/>
                </g>
              </g>
            </g>
          </g>
        </g>
      </g>
    </g>
    <g id="Group_5256" data-name="Group 5256" transform="translate(48.142 429.842)">
      <g id="Group_5253-2" data-name="Group 5253" transform="translate(0)" clip-path="url(#clip-path)">
        <g id="Group_5244-3" data-name="Group 5244" transform="translate(0 0)">
          <g id="Group_5243-3" data-name="Group 5243" clip-path="url(#clip-path)">
            <path id="Path_6441-3" data-name="Path 6441" d="M46.829,7.28c9.029,0,40.117,44.765,40.117,53.316,0,4.024-7.956,18.61-40.117,18.61S6.712,64.62,6.712,60.6C6.712,52.045,37.8,7.28,46.829,7.28" transform="translate(-2.242 -2.432)" fill="#f8cbca"/>
          </g>
        </g>
        <g id="Group_5252-3" data-name="Group 5252" transform="translate(0 0)">
          <g id="Group_5251-3" data-name="Group 5251" clip-path="url(#clip-path)">
            <path id="Path_6442-3" data-name="Path 6442" d="M79.537,25.207C69.689,12.075,59.2.783,54.282.783S38.875,12.075,29.027,25.207" transform="translate(-9.696 -0.262)" fill="none" stroke="#73706d" stroke-linecap="round" stroke-linejoin="round" stroke-width="1.565"/>
            <line id="Line_1-3" data-name="Line 1" x2="19.607" transform="translate(34.382 71.702)" fill="none" stroke="#73706d" stroke-linecap="round" stroke-linejoin="round" stroke-width="1.565"/>
            <line id="Line_2-3" data-name="Line 2" x2="27.478" transform="translate(30.447 67.03)" fill="none" stroke="#73706d" stroke-linecap="round" stroke-linejoin="round" stroke-width="1.565"/>
            <g id="Group_5247-3" data-name="Group 5247" transform="translate(53.952 49.068)" opacity="0.5" style="mix-blend-mode: multiply;isolation: isolate">
              <g id="Group_5246-3" data-name="Group 5246">
                <g id="Group_5245-3" data-name="Group 5245" clip-path="url(#clip-path-3)">
                  <path id="Path_6443-3" data-name="Path 6443" d="M81.011,104.621c27.96-2.51,35.222-16.076,35.222-20.092,0-2.043-1.628-5.965-4.278-10.851Z" transform="translate(-81.011 -73.678)" fill="#f8cbca"/>
                </g>
              </g>
            </g>
            <g id="Group_5250-3" data-name="Group 5250" transform="translate(0 49.539)" opacity="0.5" style="mix-blend-mode: multiply;isolation: isolate">
              <g id="Group_5249-3" data-name="Group 5249">
                <g id="Group_5248-3" data-name="Group 5248" clip-path="url(#clip-path-4)">
                  <path id="Path_6444-3" data-name="Path 6444" d="M4.025,74.385C1.526,79.052,0,82.789,0,84.766c0,3.976,7.133,17.306,34.412,20.006Z" transform="translate(0 -74.385)" fill="#f8cbca"/>
                </g>
              </g>
            </g>
          </g>
        </g>
      </g>
    </g>
    <g id="Group_5257" data-name="Group 5257" transform="translate(142.166 477.588)">
      <g id="Group_5262" data-name="Group 5262" transform="translate(0 0)">
        <g id="Group_5244-4" data-name="Group 5244">
          <g id="Group_5243-4" data-name="Group 5243" clip-path="url(#clip-path)">
            <path id="Path_6441-4" data-name="Path 6441" d="M46.829,7.28c9.029,0,40.117,44.765,40.117,53.316,0,4.024-7.956,18.61-40.117,18.61S6.712,64.62,6.712,60.6C6.712,52.045,37.8,7.28,46.829,7.28" transform="translate(-2.242 -2.432)" fill="#f8cbca"/>
          </g>
        </g>
        <g id="Group_5252-4" data-name="Group 5252">
          <g id="Group_5251-4" data-name="Group 5251" clip-path="url(#clip-path)">
            <path id="Path_6442-4" data-name="Path 6442" d="M79.537,25.207C69.689,12.075,59.2.783,54.282.783S38.875,12.075,29.027,25.207" transform="translate(-9.696 -0.262)" fill="none" stroke="#73706d" stroke-linecap="round" stroke-linejoin="round" stroke-width="1.565"/>
            <line id="Line_1-4" data-name="Line 1" x2="19.607" transform="translate(34.382 71.702)" fill="none" stroke="#73706d" stroke-linecap="round" stroke-linejoin="round" stroke-width="1.565"/>
            <line id="Line_2-4" data-name="Line 2" x2="27.478" transform="translate(30.447 67.03)" fill="none" stroke="#73706d" stroke-linecap="round" stroke-linejoin="round" stroke-width="1.565"/>
            <g id="Group_5247-4" data-name="Group 5247" transform="translate(53.952 49.068)" opacity="0.5" style="mix-blend-mode: multiply;isolation: isolate">
              <g id="Group_5246-4" data-name="Group 5246">
                <g id="Group_5245-4" data-name="Group 5245" clip-path="url(#clip-path-3)">
                  <path id="Path_6443-4" data-name="Path 6443" d="M81.011,104.621c27.96-2.51,35.222-16.076,35.222-20.092,0-2.043-1.628-5.965-4.278-10.851Z" transform="translate(-81.011 -73.678)" fill="#f8cbca"/>
                </g>
              </g>
            </g>
            <g id="Group_5250-4" data-name="Group 5250" transform="translate(0 49.539)" opacity="0.5" style="mix-blend-mode: multiply;isolation: isolate">
              <g id="Group_5249-4" data-name="Group 5249">
                <g id="Group_5248-4" data-name="Group 5248" clip-path="url(#clip-path-4)">
                  <path id="Path_6444-4" data-name="Path 6444" d="M4.025,74.385C1.526,79.052,0,82.789,0,84.766c0,3.976,7.133,17.306,34.412,20.006Z" transform="translate(0 -74.385)" fill="#f8cbca"/>
                </g>
              </g>
            </g>
          </g>
        </g>
      </g>
    </g>
    <g id="Group_5258" data-name="Group 5258" transform="translate(231.339 429.842)">
      <g id="Group_5261" data-name="Group 5261" transform="translate(0 0)">
        <g id="Group_5244-5" data-name="Group 5244">
          <g id="Group_5243-5" data-name="Group 5243" clip-path="url(#clip-path)">
            <path id="Path_6441-5" data-name="Path 6441" d="M46.829,7.28c9.029,0,40.117,44.765,40.117,53.316,0,4.024-7.956,18.61-40.117,18.61S6.712,64.62,6.712,60.6C6.712,52.045,37.8,7.28,46.829,7.28" transform="translate(-2.242 -2.432)" fill="#f8cbca"/>
          </g>
        </g>
        <g id="Group_5252-5" data-name="Group 5252">
          <g id="Group_5251-5" data-name="Group 5251" clip-path="url(#clip-path)">
            <path id="Path_6442-5" data-name="Path 6442" d="M79.537,25.207C69.689,12.075,59.2.783,54.282.783S38.875,12.075,29.027,25.207" transform="translate(-9.696 -0.262)" fill="none" stroke="#73706d" stroke-linecap="round" stroke-linejoin="round" stroke-width="1.565"/>
            <line id="Line_1-5" data-name="Line 1" x2="19.607" transform="translate(34.382 71.702)" fill="none" stroke="#73706d" stroke-linecap="round" stroke-linejoin="round" stroke-width="1.565"/>
            <line id="Line_2-5" data-name="Line 2" x2="27.478" transform="translate(30.447 67.03)" fill="none" stroke="#73706d" stroke-linecap="round" stroke-linejoin="round" stroke-width="1.565"/>
            <g id="Group_5247-5" data-name="Group 5247" transform="translate(53.952 49.068)" opacity="0.5" style="mix-blend-mode: multiply;isolation: isolate">
              <g id="Group_5246-5" data-name="Group 5246">
                <g id="Group_5245-5" data-name="Group 5245" clip-path="url(#clip-path-3)">
                  <path id="Path_6443-5" data-name="Path 6443" d="M81.011,104.621c27.96-2.51,35.222-16.076,35.222-20.092,0-2.043-1.628-5.965-4.278-10.851Z" transform="translate(-81.011 -73.678)" fill="#f8cbca"/>
                </g>
              </g>
            </g>
            <g id="Group_5250-5" data-name="Group 5250" transform="translate(0 49.539)" opacity="0.5" style="mix-blend-mode: multiply;isolation: isolate">
              <g id="Group_5249-5" data-name="Group 5249">
                <g id="Group_5248-5" data-name="Group 5248" clip-path="url(#clip-path-4)">
                  <path id="Path_6444-5" data-name="Path 6444" d="M4.025,74.385C1.526,79.052,0,82.789,0,84.766c0,3.976,7.133,17.306,34.412,20.006Z" transform="translate(0 -74.385)" fill="#f8cbca"/>
                </g>
              </g>
            </g>
          </g>
        </g>
      </g>
    </g>
    <g id="Group_5259" data-name="Group 5259" transform="translate(237.685 322.785)">
      <g id="Group_5253-3" data-name="Group 5253" transform="translate(0)" clip-path="url(#clip-path)">
        <g id="Group_5244-6" data-name="Group 5244" transform="translate(0 0)">
          <g id="Group_5243-6" data-name="Group 5243" clip-path="url(#clip-path)">
            <path id="Path_6441-6" data-name="Path 6441" d="M46.829,7.28c9.029,0,40.117,44.765,40.117,53.316,0,4.024-7.956,18.61-40.117,18.61S6.712,64.62,6.712,60.6C6.712,52.045,37.8,7.28,46.829,7.28" transform="translate(-2.242 -2.432)" fill="#f8cbca"/>
          </g>
        </g>
        <g id="Group_5252-6" data-name="Group 5252" transform="translate(0 0)">
          <g id="Group_5251-6" data-name="Group 5251" clip-path="url(#clip-path)">
            <path id="Path_6442-6" data-name="Path 6442" d="M79.537,25.207C69.689,12.075,59.2.783,54.282.783S38.875,12.075,29.027,25.207" transform="translate(-9.696 -0.262)" fill="none" stroke="#73706d" stroke-linecap="round" stroke-linejoin="round" stroke-width="1.565"/>
            <line id="Line_1-6" data-name="Line 1" x2="19.607" transform="translate(34.382 71.702)" fill="none" stroke="#73706d" stroke-linecap="round" stroke-linejoin="round" stroke-width="1.565"/>
            <line id="Line_2-6" data-name="Line 2" x2="27.478" transform="translate(30.447 67.03)" fill="none" stroke="#73706d" stroke-linecap="round" stroke-linejoin="round" stroke-width="1.565"/>
            <g id="Group_5247-6" data-name="Group 5247" transform="translate(53.952 49.068)" opacity="0.5" style="mix-blend-mode: multiply;isolation: isolate">
              <g id="Group_5246-6" data-name="Group 5246">
                <g id="Group_5245-6" data-name="Group 5245" clip-path="url(#clip-path-3)">
                  <path id="Path_6443-6" data-name="Path 6443" d="M81.011,104.621c27.96-2.51,35.222-16.076,35.222-20.092,0-2.043-1.628-5.965-4.278-10.851Z" transform="translate(-81.011 -73.678)" fill="#f8cbca"/>
                </g>
              </g>
            </g>
            <g id="Group_5250-6" data-name="Group 5250" transform="translate(0 49.539)" opacity="0.5" style="mix-blend-mode: multiply;isolation: isolate">
              <g id="Group_5249-6" data-name="Group 5249">
                <g id="Group_5248-6" data-name="Group 5248" clip-path="url(#clip-path-4)">
                  <path id="Path_6444-6" data-name="Path 6444" d="M4.025,74.385C1.526,79.052,0,82.789,0,84.766c0,3.976,7.133,17.306,34.412,20.006Z" transform="translate(0 -74.385)" fill="#f8cbca"/>
                </g>
              </g>
            </g>
          </g>
        </g>
      </g>
    </g>
  </g>
</svg>
