<svg xmlns="http://www.w3.org/2000/svg" width="260" height="80.528" viewBox="0 0 260 80.528">
  <g id="Ticket" transform="translate(-58 -262)">
    <g id="Barcode" transform="translate(0 -231)">
      <g id="D_0_2_4_9_1_J_K_9_9_1_0_0_1_H_A_3_8_4" data-name="D 0 2 4 9 1 J K 9 9 1 0 0 1 H A 3 8 4">
        <path id="Shape_01" d="M64.456,568.936a2.778,2.778,0,0,1-.824,2.184,3.334,3.334,0,0,1-2.3.728H59.72v-5.712h1.792a3.5,3.5,0,0,1,1.552.32,2.309,2.309,0,0,1,1.024.944A2.947,2.947,0,0,1,64.456,568.936Zm-1.256.032a1.973,1.973,0,0,0-.416-1.392,1.566,1.566,0,0,0-1.208-.448h-.648v3.72h.52Q63.2,570.848,63.2,568.968Z" fill="#843b90"/>
        <path id="Shape_02" d="M78.717,568.957a4.689,4.689,0,0,1-.164,1.313,2.666,2.666,0,0,1-.445.921,1.807,1.807,0,0,1-.676.543,2.092,2.092,0,0,1-1.68,0,1.815,1.815,0,0,1-.672-.543,2.71,2.71,0,0,1-.441-.921,5.473,5.473,0,0,1,0-2.629,2.707,2.707,0,0,1,.441-.922,1.794,1.794,0,0,1,.672-.539,2.049,2.049,0,0,1,1.68,0,1.786,1.786,0,0,1,.676.539,2.663,2.663,0,0,1,.445.922A4.666,4.666,0,0,1,78.717,568.957Zm-1.02,0a4.778,4.778,0,0,0-.094-1.039,2,2,0,0,0-.246-.656.884.884,0,0,0-.352-.344.923.923,0,0,0-.828,0,.893.893,0,0,0-.348.344,2.058,2.058,0,0,0-.242.656,6.055,6.055,0,0,0,0,2.078,2.106,2.106,0,0,0,.242.656.894.894,0,0,0,.348.34.923.923,0,0,0,.828,0,.885.885,0,0,0,.352-.34A2.04,2.04,0,0,0,77.6,570,4.81,4.81,0,0,0,77.7,568.957Z" fill="#843b90"/>
        <path id="Shape_03" d="M90.685,566a2.2,2.2,0,0,1,.734.117,1.592,1.592,0,0,1,.566.336,1.451,1.451,0,0,1,.367.52,1.671,1.671,0,0,1,.133.675,1.818,1.818,0,0,1-.094.594,2.467,2.467,0,0,1-.254.52,3.61,3.61,0,0,1-.367.48q-.211.231-.445.469l-1.3,1.332c.13-.036.257-.065.379-.086a2.078,2.078,0,0,1,.352-.031h1.484a.341.341,0,0,1,.254.094.308.308,0,0,1,.094.234v.594H88.614v-.328a.551.551,0,0,1,.043-.208.589.589,0,0,1,.133-.2l1.758-1.761q.219-.223.391-.426a2.966,2.966,0,0,0,.293-.406,1.874,1.874,0,0,0,.18-.407,1.487,1.487,0,0,0,.063-.433.98.98,0,0,0-.062-.364.672.672,0,0,0-.172-.265.686.686,0,0,0-.266-.164,1,1,0,0,0-.344-.055.885.885,0,0,0-.906.664.411.411,0,0,1-.137.219.349.349,0,0,1-.219.066.911.911,0,0,1-.133-.011l-.519-.094a2.117,2.117,0,0,1,.23-.731,1.738,1.738,0,0,1,1.02-.84A2.4,2.4,0,0,1,90.685,566Z" fill="#843b90"/>
        <path id="Shape_04" d="M106.043,569.668h.726v.57a.211.211,0,0,1-.05.141.192.192,0,0,1-.153.059h-.523v1.41h-.863v-1.41h-2.442a.273.273,0,0,1-.269-.219l-.1-.5,2.738-3.66h.938Zm-.863-1.891c0-.086,0-.178.007-.277s.015-.2.028-.309l-1.8,2.477h1.762Z" fill="#843b90"/>
        <path id="Shape_05" d="M118.4,569.539a1.789,1.789,0,0,1-.59-.1,1.517,1.517,0,0,1-.515-.317,1.6,1.6,0,0,1-.36-.519,1.786,1.786,0,0,1-.136-.727,1.833,1.833,0,0,1,.546-1.32,1.915,1.915,0,0,1,.625-.407,2.293,2.293,0,0,1,1.6-.007,1.716,1.716,0,0,1,.605.394,1.664,1.664,0,0,1,.383.6,2.148,2.148,0,0,1,.133.769,2.707,2.707,0,0,1-.047.512,2.426,2.426,0,0,1-.129.461,3.066,3.066,0,0,1-.207.433c-.081.139-.17.278-.269.418l-1.321,1.891a.541.541,0,0,1-.2.16.669.669,0,0,1-.308.067H117.3l1.8-2.243c.045-.057.086-.112.125-.164s.081-.108.117-.16a1.626,1.626,0,0,1-.441.192A1.863,1.863,0,0,1,118.4,569.539Zm1.348-1.73a1.127,1.127,0,0,0-.074-.422.819.819,0,0,0-.2-.313.867.867,0,0,0-.316-.195,1.07,1.07,0,0,0-.4-.07,1.046,1.046,0,0,0-.406.074.846.846,0,0,0-.3.207.906.906,0,0,0-.2.312,1.152,1.152,0,0,0-.066.4,1.007,1.007,0,0,0,.25.738.952.952,0,0,0,.711.254,1.131,1.131,0,0,0,.422-.074.942.942,0,0,0,.316-.211.881.881,0,0,0,.195-.313A1.084,1.084,0,0,0,119.745,567.809Z" fill="#843b90"/>
        <path id="Shape_06" d="M131.345,571.109h1.176v-3.375c0-.13,0-.267.012-.41l-.832.7a.327.327,0,0,1-.11.058.339.339,0,0,1-.105.016.335.335,0,0,1-.145-.032.277.277,0,0,1-.1-.078l-.312-.429,1.766-1.5h.808v5.054h1.043v.739h-3.2Z" fill="#843b90"/>
        <path id="Shape_07" d="M144.393,573.528a2.34,2.34,0,0,1-.408-.032,3.009,3.009,0,0,1-.3-.056v-1.008c.086.021.176.04.272.056a1.709,1.709,0,0,0,.3.024.868.868,0,0,0,.376-.08.553.553,0,0,0,.272-.3,1.685,1.685,0,0,0,.1-.64v-5.352H146.2v5.344a2.581,2.581,0,0,1-.232,1.184,1.377,1.377,0,0,1-.632.656A2.057,2.057,0,0,1,144.393,573.528Z" fill="#843b90"/>
        <path id="Shape_06-2" data-name="Shape_06" d="M161.592,571.848h-1.376l-1.5-2.408-.512.368v2.04H157v-5.712h1.208v2.616l.24-.336.24-.336,1.544-1.944h1.344l-1.992,2.528Z" fill="#843b90"/>
        <path id="Shape_08" d="M173.072,569.539a1.785,1.785,0,0,1-.59-.1,1.512,1.512,0,0,1-.516-.317,1.608,1.608,0,0,1-.359-.519,1.786,1.786,0,0,1-.137-.727,1.84,1.84,0,0,1,.547-1.32,1.915,1.915,0,0,1,.625-.407,2.106,2.106,0,0,1,.805-.148,2.129,2.129,0,0,1,.8.141,1.725,1.725,0,0,1,.6.394,1.677,1.677,0,0,1,.383.6,2.17,2.17,0,0,1,.133.769,2.707,2.707,0,0,1-.047.512,2.581,2.581,0,0,1-.129.461,3.065,3.065,0,0,1-.207.433q-.121.208-.27.418l-1.32,1.891a.558.558,0,0,1-.2.16.673.673,0,0,1-.309.067h-.906l1.8-2.243.125-.164c.042-.054.081-.108.117-.16a1.653,1.653,0,0,1-.441.192A1.868,1.868,0,0,1,173.072,569.539Zm1.347-1.73a1.107,1.107,0,0,0-.074-.422.817.817,0,0,0-.2-.313.867.867,0,0,0-.316-.195,1.074,1.074,0,0,0-.4-.07,1.046,1.046,0,0,0-.406.074.859.859,0,0,0-.3.207.919.919,0,0,0-.2.312,1.152,1.152,0,0,0-.067.4,1.011,1.011,0,0,0,.25.738.955.955,0,0,0,.711.254,1.127,1.127,0,0,0,.422-.074.946.946,0,0,0,.317-.211.881.881,0,0,0,.195-.313A1.106,1.106,0,0,0,174.419,567.809Z" fill="#843b90"/>
        <path id="Shape_09" d="M187.071,569.539a1.78,1.78,0,0,1-.59-.1,1.512,1.512,0,0,1-.516-.317,1.608,1.608,0,0,1-.359-.519,1.786,1.786,0,0,1-.137-.727,1.829,1.829,0,0,1,.547-1.32,1.9,1.9,0,0,1,.625-.407,2.29,2.29,0,0,1,1.6-.007,1.729,1.729,0,0,1,.606.394,1.678,1.678,0,0,1,.383.6,2.171,2.171,0,0,1,.132.769,2.709,2.709,0,0,1-.046.512,2.584,2.584,0,0,1-.129.461,3.3,3.3,0,0,1-.207.433q-.122.208-.27.418l-1.32,1.891a.558.558,0,0,1-.2.16.676.676,0,0,1-.309.067h-.906l1.8-2.243.125-.164c.041-.054.08-.108.117-.16a1.653,1.653,0,0,1-.441.192A1.868,1.868,0,0,1,187.071,569.539Zm1.347-1.73a1.127,1.127,0,0,0-.074-.422.829.829,0,0,0-.2-.313.871.871,0,0,0-.317-.195,1.065,1.065,0,0,0-.394-.07,1.042,1.042,0,0,0-.406.074.85.85,0,0,0-.305.207.919.919,0,0,0-.195.312,1.129,1.129,0,0,0-.067.4,1.011,1.011,0,0,0,.25.738.955.955,0,0,0,.711.254,1.127,1.127,0,0,0,.422-.074.932.932,0,0,0,.316-.211.9.9,0,0,0,.2-.313A1.106,1.106,0,0,0,188.418,567.809Z" fill="#843b90"/>
        <path id="Shape_10" d="M200.018,571.109h1.176v-3.375c0-.13,0-.267.012-.41l-.832.7a.332.332,0,0,1-.109.058.341.341,0,0,1-.106.016.33.33,0,0,1-.144-.032.268.268,0,0,1-.1-.078l-.313-.429,1.766-1.5h.809v5.054h1.043v.739h-3.2Z" fill="#843b90"/>
        <path id="Shape_11" d="M217.384,568.957a4.663,4.663,0,0,1-.164,1.313,2.654,2.654,0,0,1-.445.921,1.8,1.8,0,0,1-.676.543,2.008,2.008,0,0,1-.84.176,1.987,1.987,0,0,1-.839-.176,1.813,1.813,0,0,1-.672-.543,2.705,2.705,0,0,1-.442-.921,5.48,5.48,0,0,1,0-2.629,2.7,2.7,0,0,1,.442-.922,1.792,1.792,0,0,1,.672-.539,1.959,1.959,0,0,1,.839-.18,1.98,1.98,0,0,1,.84.18,1.781,1.781,0,0,1,.676.539,2.651,2.651,0,0,1,.445.922A4.641,4.641,0,0,1,217.384,568.957Zm-1.019,0a4.745,4.745,0,0,0-.094-1.039,2,2,0,0,0-.246-.656.886.886,0,0,0-.352-.344.923.923,0,0,0-.828,0,.889.889,0,0,0-.347.344,2.028,2.028,0,0,0-.242.656,6.042,6.042,0,0,0,0,2.078,2.074,2.074,0,0,0,.242.656.89.89,0,0,0,.347.34.923.923,0,0,0,.828,0,.887.887,0,0,0,.352-.34,2.046,2.046,0,0,0,.246-.656A4.777,4.777,0,0,0,216.365,568.957Z" fill="#843b90"/>
        <path id="Shape_12" d="M231.383,568.957a4.7,4.7,0,0,1-.164,1.313,2.671,2.671,0,0,1-.445.921,1.809,1.809,0,0,1-.676.543,2.093,2.093,0,0,1-1.68,0,1.829,1.829,0,0,1-.672-.543,2.723,2.723,0,0,1-.441-.921,5.48,5.48,0,0,1,0-2.629,2.72,2.72,0,0,1,.441-.922,1.807,1.807,0,0,1,.672-.539,2.05,2.05,0,0,1,1.68,0,1.788,1.788,0,0,1,.676.539,2.668,2.668,0,0,1,.445.922A4.677,4.677,0,0,1,231.383,568.957Zm-1.019,0a4.809,4.809,0,0,0-.094-1.039,2,2,0,0,0-.246-.656.886.886,0,0,0-.352-.344.923.923,0,0,0-.828,0,.9.9,0,0,0-.348.344,2.076,2.076,0,0,0-.242.656,6.042,6.042,0,0,0,0,2.078,2.124,2.124,0,0,0,.242.656.9.9,0,0,0,.348.34.923.923,0,0,0,.828,0,.887.887,0,0,0,.352-.34,2.046,2.046,0,0,0,.246-.656A4.841,4.841,0,0,0,230.364,568.957Z" fill="#843b90"/>
        <path id="Shape_13" d="M242.015,571.109h1.176v-3.375c0-.13,0-.267.011-.41l-.832.7a.323.323,0,0,1-.109.058.341.341,0,0,1-.106.016.33.33,0,0,1-.144-.032.277.277,0,0,1-.1-.078l-.312-.429,1.765-1.5h.809v5.054h1.043v.739h-3.2Z" fill="#843b90"/>
        <path id="Shape_14" d="M260.343,571.848h-1.208v-2.464h-2.264v2.464h-1.208v-5.712h1.208v2.24h2.264v-2.24h1.208Z" fill="#843b90"/>
        <path id="Shape_15" d="M274.634,571.848l-.416-1.36h-2.08l-.416,1.36h-1.3l2.016-5.736h1.48l2.024,5.736Zm-1.12-3.7c-.026-.091-.061-.206-.1-.344s-.085-.28-.128-.424-.077-.27-.1-.376c-.026.106-.064.24-.112.4s-.085.3-.128.448-.066.237-.088.3l-.408,1.328h1.488Z" fill="#843b90"/>
        <path id="Shape_16" d="M287.8,566a2.162,2.162,0,0,1,.719.113,1.611,1.611,0,0,1,.551.317,1.374,1.374,0,0,1,.351.476,1.41,1.41,0,0,1,.121.586,1.743,1.743,0,0,1-.062.488,1.052,1.052,0,0,1-.18.364,1.079,1.079,0,0,1-.289.265,1.809,1.809,0,0,1-.383.18,1.5,1.5,0,0,1,.774.5,1.35,1.35,0,0,1,.257.844,1.734,1.734,0,0,1-.16.762,1.634,1.634,0,0,1-.433.558,1.872,1.872,0,0,1-.629.344,2.5,2.5,0,0,1-.758.113,2.608,2.608,0,0,1-.758-.1,1.687,1.687,0,0,1-.566-.3,1.8,1.8,0,0,1-.407-.481,3.4,3.4,0,0,1-.289-.656l.438-.18a.573.573,0,0,1,.226-.047.407.407,0,0,1,.188.043.289.289,0,0,1,.125.129c.047.094.1.186.156.278a1.283,1.283,0,0,0,.207.242,1.048,1.048,0,0,0,.282.172,1.232,1.232,0,0,0,.828-.02.969.969,0,0,0,.312-.211.91.91,0,0,0,.188-.293.93.93,0,0,0,.062-.328,1.5,1.5,0,0,0-.043-.375.558.558,0,0,0-.183-.293.976.976,0,0,0-.4-.187,2.8,2.8,0,0,0-.7-.071v-.7a2.539,2.539,0,0,0,.6-.066,1.045,1.045,0,0,0,.382-.18.584.584,0,0,0,.2-.273,1.019,1.019,0,0,0,.058-.352.8.8,0,0,0-.226-.621.851.851,0,0,0-.61-.211.9.9,0,0,0-.586.188.979.979,0,0,0-.324.476.417.417,0,0,1-.133.219.336.336,0,0,1-.218.066.987.987,0,0,1-.137-.011l-.52-.094a2.107,2.107,0,0,1,.231-.731,1.753,1.753,0,0,1,.43-.523,1.813,1.813,0,0,1,.593-.317A2.4,2.4,0,0,1,287.8,566Z" fill="#843b90"/>
        <path id="Shape_17" d="M301.615,571.91a2.718,2.718,0,0,1-.82-.117,1.94,1.94,0,0,1-.633-.34,1.6,1.6,0,0,1-.41-.531,1.652,1.652,0,0,1-.145-.7,1.46,1.46,0,0,1,.25-.864,1.493,1.493,0,0,1,.786-.527,1.337,1.337,0,0,1-.633-.5,1.513,1.513,0,0,1-.078-1.391,1.554,1.554,0,0,1,.375-.5,1.747,1.747,0,0,1,.574-.328,2.22,2.22,0,0,1,.734-.117,2.189,2.189,0,0,1,.731.117,1.707,1.707,0,0,1,.574.328,1.5,1.5,0,0,1,.375.5,1.481,1.481,0,0,1-.078,1.391,1.345,1.345,0,0,1-.629.5,1.471,1.471,0,0,1,.781.527,1.441,1.441,0,0,1,.254.864,1.609,1.609,0,0,1-.148.7,1.529,1.529,0,0,1-.411.531,1.886,1.886,0,0,1-.632.34A2.685,2.685,0,0,1,301.615,571.91Zm0-.769a1.2,1.2,0,0,0,.43-.071.873.873,0,0,0,.308-.2.793.793,0,0,0,.188-.3,1.023,1.023,0,0,0,.066-.371.925.925,0,0,0-.265-.719,1.021,1.021,0,0,0-.727-.246,1.032,1.032,0,0,0-.73.246.931.931,0,0,0-.262.719,1.067,1.067,0,0,0,.063.371.839.839,0,0,0,.191.3.868.868,0,0,0,.309.2A1.213,1.213,0,0,0,301.615,571.141Zm0-2.672a.988.988,0,0,0,.4-.074.76.76,0,0,0,.265-.2.743.743,0,0,0,.141-.289,1.346,1.346,0,0,0,.043-.336.917.917,0,0,0-.051-.308.738.738,0,0,0-.422-.446,1.061,1.061,0,0,0-.758,0,.737.737,0,0,0-.265.184.722.722,0,0,0-.157.262.943.943,0,0,0-.05.308,1.442,1.442,0,0,0,.039.336.793.793,0,0,0,.144.289.756.756,0,0,0,.266.2A.979.979,0,0,0,301.615,568.469Z" fill="#843b90"/>
        <path id="Shape_18" d="M317.063,569.668h.727v.57a.207.207,0,0,1-.051.141.192.192,0,0,1-.152.059h-.524v1.41H316.2v-1.41h-2.442a.275.275,0,0,1-.269-.219l-.1-.5,2.739-3.66h.937Zm-.863-1.891c0-.086,0-.178.008-.277s.014-.2.027-.309l-1.8,2.477H316.2Z" fill="#843b90"/>
      </g>
      <g id="Barcode-2" data-name="Barcode">
        <rect id="Shape_3" width="2" height="63" transform="translate(205 493)" fill="#843b90"/>
        <rect id="Shape_4" width="3" height="63" transform="translate(200 493)" fill="#843b90"/>
        <rect id="Shape_5" width="5" height="63" transform="translate(210 493)" fill="#843b90"/>
        <rect id="Shape_6" width="2" height="63" transform="translate(218 493)" fill="#843b90"/>
        <rect id="Shape_7" width="3" height="63" transform="translate(222 493)" fill="#843b90"/>
        <rect id="Shape_8" width="2" height="63" transform="translate(227 493)" fill="#843b90"/>
        <rect id="Shape_9" width="10" height="63" transform="translate(232 493)" fill="#843b90"/>
        <rect id="Shape_10-2" data-name="Shape_10" width="3" height="63" transform="translate(249 493)" fill="#843b90"/>
        <rect id="Shape_11-2" data-name="Shape_11" width="2" height="63" transform="translate(245 493)" fill="#843b90"/>
        <rect id="Shape_12-2" data-name="Shape_12" width="5" height="63" transform="translate(254 493)" fill="#843b90"/>
        <rect id="Shape_13-2" data-name="Shape_13" width="2" height="63" transform="translate(262 493)" fill="#843b90"/>
        <rect id="Shape_14-2" data-name="Shape_14" width="2" height="63" transform="translate(267 493)" fill="#843b90"/>
        <rect id="Shape_15-2" data-name="Shape_15" width="3" height="63" transform="translate(271 493)" fill="#843b90"/>
        <rect id="Shape_16-2" data-name="Shape_16" width="11" height="63" transform="translate(276 493)" fill="#843b90"/>
        <rect id="Shape_17-2" data-name="Shape_17" width="2" height="63" transform="translate(294 493)" fill="#843b90"/>
        <rect id="Shape_18-2" data-name="Shape_18" width="2" height="63" transform="translate(289 493)" fill="#843b90"/>
        <rect id="Shape_19" width="5" height="63" transform="translate(298 493)" fill="#843b90"/>
        <rect id="Shape_20" width="4" height="63" transform="translate(305 493)" fill="#843b90"/>
        <rect id="Shape_21" width="2" height="63" transform="translate(311 493)" fill="#843b90"/>
        <rect id="Shape_22" width="2" height="63" transform="translate(316 493)" fill="#843b90"/>
        <rect id="Shape_23" width="2" height="63" transform="translate(63 493)" fill="#843b90"/>
        <rect id="Shape_24" width="2" height="63" transform="translate(58 493)" fill="#843b90"/>
        <rect id="Shape_25" width="6" height="63" transform="translate(67 493)" fill="#843b90"/>
        <rect id="Shape_26" width="3" height="63" transform="translate(75 493)" fill="#843b90"/>
        <rect id="Shape_27" width="2" height="63" transform="translate(80 493)" fill="#843b90"/>
        <rect id="Shape_28" width="2" height="63" transform="translate(85 493)" fill="#843b90"/>
        <rect id="Shape_29" width="11" height="63" transform="translate(89 493)" fill="#843b90"/>
        <rect id="Shape_30" width="2" height="63" transform="translate(107 493)" fill="#843b90"/>
        <rect id="Shape_31" width="3" height="63" transform="translate(102 493)" fill="#843b90"/>
        <rect id="Shape_32" width="4" height="63" transform="translate(112 493)" fill="#843b90"/>
        <rect id="Shape_33" width="2" height="63" transform="translate(120 493)" fill="#843b90"/>
        <rect id="Shape_34" width="3" height="63" transform="translate(124 493)" fill="#843b90"/>
        <rect id="Shape_35" width="2" height="63" transform="translate(129 493)" fill="#843b90"/>
        <rect id="Shape_36" width="10" height="63" transform="translate(134 493)" fill="#843b90"/>
        <rect id="Shape_37" width="3" height="63" transform="translate(151 493)" fill="#843b90"/>
        <rect id="Shape_38" width="2" height="63" transform="translate(147 493)" fill="#843b90"/>
        <rect id="Shape_39" width="5" height="63" transform="translate(156 493)" fill="#843b90"/>
        <rect id="Shape_40" width="3" height="63" transform="translate(163 493)" fill="#843b90"/>
        <rect id="Shape_41" width="2" height="63" transform="translate(169 493)" fill="#843b90"/>
        <rect id="Shape_42" width="3" height="63" transform="translate(173 493)" fill="#843b90"/>
        <rect id="Shape_43" width="20" height="63" transform="translate(178 493)" fill="#843b90"/>
      </g>
    </g>
  </g>
</svg>
