<svg xmlns="http://www.w3.org/2000/svg" width="51.085" height="41.029" viewBox="0 0 51.085 41.029">
  <g id="start" transform="translate(0 -50.394)">
    <g id="Group_3609" data-name="Group 3609" transform="translate(14.967 56.581)">
      <g id="Group_3608" data-name="Group 3608" transform="translate(0 0)">
        <path id="Path_1129" data-name="Path 1129" d="M155.637,112.7c-1.6-.066-3.218-.166-4.811-.3a.759.759,0,1,0-.124,1.512q.858.07,1.723.127v5.85a.759.759,0,0,0,1.518,0v-5.757c.545.03,1.09.058,1.632.08h.032a.759.759,0,0,0,.031-1.517Z" transform="translate(-150.005 -112.402)" fill="#b5d5f8"/>
      </g>
    </g>
    <g id="Group_3611" data-name="Group 3611" transform="translate(36.101 55.894)">
      <g id="Group_3610" data-name="Group 3610" transform="translate(0 0)">
        <path id="Path_1130" data-name="Path 1130" d="M368.162,106.173a.759.759,0,0,0-.854-.65c-1.587.215-3.2.4-4.795.551a.759.759,0,0,0,.07,1.514c.024,0,.048,0,.072,0q.79-.075,1.585-.162v5.713a.759.759,0,1,0,1.517,0v-5.887c.586-.071,1.172-.144,1.754-.223A.759.759,0,0,0,368.162,106.173Z" transform="translate(-361.826 -105.516)" fill="#b5d5f8"/>
      </g>
    </g>
    <g id="Group_3613" data-name="Group 3613" transform="translate(29.251 56.811)">
      <g id="Group_3612" data-name="Group 3612" transform="translate(0 0)">
        <path id="Path_1131" data-name="Path 1131" d="M298.269,117.268v-.225a2.316,2.316,0,0,0-.721-1.7,2.34,2.34,0,0,0-1.759-.637c-.63.033-1.268.062-1.895.086a.759.759,0,0,0-.731.758v6.56a.759.759,0,1,0,1.517,0v-2.245a2.1,2.1,0,0,1,1.453.576,2.029,2.029,0,0,1,.618,1.482.759.759,0,1,0,1.517,0,3.534,3.534,0,0,0-1.085-2.577l0,0A2.565,2.565,0,0,0,298.269,117.268Zm-1.517,0a1.046,1.046,0,0,1-.963,1.022h0c-.367.019-.737.037-1.108.054V116.28c.4-.017.794-.036,1.188-.057a.844.844,0,0,1,.634.223.813.813,0,0,1,.248.6Z" transform="translate(-293.163 -114.704)" fill="#b5d5f8"/>
      </g>
    </g>
    <g id="Group_3615" data-name="Group 3615" transform="translate(22.375 56.981)">
      <g id="Group_3614" data-name="Group 3614" transform="translate(0 0)">
        <path id="Path_1132" data-name="Path 1132" d="M226.763,116.406a2.5,2.5,0,0,0-1.782.726,2.454,2.454,0,0,0-.727,1.752V123.7a.759.759,0,0,0,1.517,0v-2.265c.551.007,1.1.013,1.654.013h.321v2.273a.759.759,0,1,0,1.517,0V118.9A2.512,2.512,0,0,0,226.763,116.406Zm.983,3.525c-.657,0-1.317,0-1.975-.011v-1.036a.947.947,0,0,1,.28-.677,1,1,0,0,1,1.695.7v1.028Z" transform="translate(-224.254 -116.406)" fill="#b5d5f8"/>
      </g>
    </g>
    <g id="Group_3617" data-name="Group 3617" transform="translate(8.641 56.092)">
      <g id="Group_3616" data-name="Group 3616" transform="translate(0 0)">
        <path id="Path_1133" data-name="Path 1133" d="M89.293,110.819l-.2-.024a1.162,1.162,0,0,1-.967-1.1.671.671,0,0,1,.215-.521.713.713,0,0,1,.569-.156c.613.074,1.235.145,1.851.211a.759.759,0,0,0,.16-1.509c-.608-.064-1.223-.134-1.828-.208a2.208,2.208,0,0,0-1.758.526,2.177,2.177,0,0,0-.726,1.657,2.655,2.655,0,0,0,2.3,2.6l.2.025a1.131,1.131,0,0,1,.968,1.071.71.71,0,0,1-.227.543.7.7,0,0,1-.56.159c-.606-.073-1.22-.151-1.825-.233a.759.759,0,1,0-.2,1.5c.613.083,1.235.162,1.848.236a2.4,2.4,0,0,0,.288.017,2.176,2.176,0,0,0,1.46-.548A2.237,2.237,0,0,0,91.6,113.4,2.64,2.64,0,0,0,89.293,110.819Z" transform="translate(-86.607 -107.497)" fill="#b5d5f8"/>
      </g>
    </g>
    <g id="Group_3619" data-name="Group 3619" transform="translate(0 50.394)">
      <g id="Group_3618" data-name="Group 3618" transform="translate(0 0)">
        <path id="Path_1134" data-name="Path 1134" d="M50.824,50.58a.758.758,0,0,0-.6-.178,175.306,175.306,0,0,1-42.33.855.759.759,0,1,0-.153,1.51,176.819,176.819,0,0,0,41.832-.742v14.59a175.057,175.057,0,0,1-48.05,0V52.025c1.168.16,2.345.31,3.511.446A.759.759,0,0,0,5.2,50.964C3.763,50.8,2.3,50.607.866,50.4A.759.759,0,0,0,0,51.153V67.275a.759.759,0,0,0,.652.751q.836.119,1.673.229V90.665a.759.759,0,0,0,.759.759H6.12a.759.759,0,0,0,.759-.759V68.8a176.6,176.6,0,0,0,18.663.989A176.56,176.56,0,0,0,44.206,68.8v6.744a.759.759,0,0,0,1.517,0V68.632q.76-.087,1.519-.182V89.906H45.723V78.073a.759.759,0,0,0-1.517,0V90.665a.759.759,0,0,0,.759.759H48a.759.759,0,0,0,.759-.759V68.256q.837-.111,1.673-.229a.759.759,0,0,0,.652-.751V51.153A.758.758,0,0,0,50.824,50.58ZM5.362,89.906H3.842V68.45q.759.094,1.519.182Z" transform="translate(0 -50.394)" fill="#b5d5f8"/>
      </g>
    </g>
  </g>
</svg>
