<svg xmlns="http://www.w3.org/2000/svg" width="145.014" height="158.191" viewBox="0 0 145.014 158.191">
  <g id="frau" transform="translate(-19.991 0)" opacity="0.18">
    <g id="Group_3601" data-name="Group 3601" transform="translate(19.991 0)">
      <path id="Path_1100" data-name="Path 1100" d="M162.368,34.27H151.822a2.637,2.637,0,0,0-2.637,2.637v2.637a2.637,2.637,0,0,0-2.637-2.637h-7.91A2.637,2.637,0,0,0,136,39.369l-.182,2.811h-5.091V36.907a2.637,2.637,0,0,0-2.637-2.637H117.546a2.637,2.637,0,0,0-2.637,2.637v15.82a2.637,2.637,0,0,0,2.637,2.637h10.546a2.637,2.637,0,0,0,2.637-2.637V47.453h4.746l-1.44,21.57a5.249,5.249,0,0,1-5.257,4.8H112.273V72.688a2.637,2.637,0,0,0-1.508-2.373,42.444,42.444,0,0,0-11.248-3.454,2.621,2.621,0,0,0-1.255.127,25.938,25.938,0,0,0-4.445-.939V58.856a21.974,21.974,0,0,0,2.267-1.337c8.859-6.2,16.189-12.424,16.189-25.82V29A29.087,29.087,0,0,0,65.884,5.652a21.069,21.069,0,0,0-24.8,20.708V65.909a2.637,2.637,0,0,0,2.637,2.637A39.078,39.078,0,0,0,70.788,57.717a22.055,22.055,0,0,0,1.935,1.139v7.193a25.931,25.931,0,0,0-4.448.928,2.618,2.618,0,0,0-1.252-.127A42.443,42.443,0,0,0,55.775,70.3a2.637,2.637,0,0,0-1.508,2.373v.087a62.538,62.538,0,0,0-15.82,40.6c0,7.232.345,15.556,2.486,21.093H35.811v-5.273a2.637,2.637,0,0,0-2.637-2.637H22.628a2.637,2.637,0,0,0-2.637,2.637v15.82a2.637,2.637,0,0,0,2.637,2.637H33.174a2.637,2.637,0,0,0,2.637-2.637v-5.273H50.884a40.34,40.34,0,0,0-4.527,18.456H51.63a34.983,34.983,0,0,1,2.637-13.22v.037a2.637,2.637,0,0,0,2.637,2.637H67.45a2.637,2.637,0,0,0,2.637-2.637V134.461H103.1l1.519,1.9a35.068,35.068,0,0,1,7.657,21.831h5.273a40.36,40.36,0,0,0-8.814-25.124l-2.017-2.521-1.012-3.037a32.9,32.9,0,0,1,.662-22.593l.148-.369a8.237,8.237,0,0,0,5.761-7.393v-.108l28.578-6.122a10.6,10.6,0,0,0,8.334-10.314V52.726a2.637,2.637,0,0,0,2.637,2.637h10.546A2.637,2.637,0,0,0,165,52.726V36.907A2.637,2.637,0,0,0,162.368,34.27ZM125.456,50.09h-5.273V39.543h5.273ZM30.537,142.371H25.264V131.825h5.273Zm20.431-9.023.185,1.121H46.776c-1.505-2.1-3.056-7.543-3.056-21.1A58.487,58.487,0,0,1,54.267,80.951V96.963C50.789,104.842,49.634,125.339,50.969,133.349ZM81.688,5.317a23.7,23.7,0,0,1,25.1,20.626l-14.43-7.216a2.616,2.616,0,0,0-1.637-.237L60.089,23.895A23.4,23.4,0,0,1,81.688,5.317ZM46.357,63.173V26.36A15.835,15.835,0,0,1,60.716,10.614,29,29,0,0,0,54.267,29v2.7c0,11.311,5.234,17.5,12.192,22.894A33.817,33.817,0,0,1,46.357,63.173ZM59.54,31.7V29.347l31.241-5.513,16.2,8.1c-.076,9.819-4.561,14.707-13.924,21.264a17.138,17.138,0,0,1-19.585,0C64.036,46.588,59.54,41.687,59.54,31.7ZM70.087,71.9a20.09,20.09,0,0,1,5.273-.715A2.637,2.637,0,0,0,78,68.546V60.855a20.505,20.505,0,0,0,10.546,0v7.691a2.637,2.637,0,0,0,2.637,2.637,20.09,20.09,0,0,1,5.273.715v4.219L83.27,78.95,70.087,76.116ZM55.741,126.849a110.633,110.633,0,0,1,2.033-23.5,10.782,10.782,0,0,0,2.2,1.173,32.638,32.638,0,0,1,.324,22.029H56.9A2.574,2.574,0,0,0,55.741,126.849Zm9.073,15.522H59.54V131.825h5.273Zm5.273-13.183a2.637,2.637,0,0,0-2.637-2.637H65.868a37.906,37.906,0,0,0,0-21.093h34.7a38.2,38.2,0,0,0,.134,23.73ZM107,97.153c0,1.432-2.254,3.032-5.273,3.032H64.813c-3.019,0-5.273-1.6-5.273-3.032V74.4a36.569,36.569,0,0,1,5.273-1.722v5.571A2.636,2.636,0,0,0,66.9,80.833l15.82,3.4a2.592,2.592,0,0,0,1.107,0l15.82-3.4a2.636,2.636,0,0,0,2.083-2.579V72.68A36.571,36.571,0,0,1,107,74.4V97.153Zm32.744-11.388-27.471,5.885V79.092h16.505a10.512,10.512,0,0,0,10.51-9.655l1.819-27.257h2.805V80.609h0A5.3,5.3,0,0,1,139.743,85.766ZM159.732,50.09h-5.273V39.543h5.273Z" transform="translate(-19.991 0)" fill="#b3c8e6"/>
    </g>
  </g>
</svg>
