<svg xmlns="http://www.w3.org/2000/svg" width="25" height="25" viewBox="0 0 25 25">
  <g id="Camera_Button" data-name="Camera Button" transform="translate(-207 -214)">
    <circle id="Circle" cx="12.5" cy="12.5" r="12.5" transform="translate(207 214)" fill="#fc92a4"/>
    <g id="Icon_Camera">
      <path id="Union_2" d="M222.2,220.7c-.061-.445-.118-.863-1.029-.863h-3.334c-.911,0-.968.418-1.029.863-.069.5-.142,1.042-1.471,1.042-2.5,0-2.5,2.479-2.5,5.623,0,4.837,1.177,5.805,6.667,5.805s6.667-1.024,6.667-5.805c0-3.082,0-5.623-2.5-5.623C222.338,221.738,222.265,221.2,222.2,220.7Zm-4.262-.028a0,0,0,0,0,0,0Zm-.043.278v0h3.218v0a2.092,2.092,0,0,0,.645,1.322,2.777,2.777,0,0,0,1.913.581,1.111,1.111,0,0,1,.743.2,1.336,1.336,0,0,1,.382.674,14.153,14.153,0,0,1,.263,3.642c0,2.412-.329,3.367-.893,3.858a3.166,3.166,0,0,1-1.515.622,17.315,17.315,0,0,1-3.147.214,17.761,17.761,0,0,1-3.152-.207,3.144,3.144,0,0,1-1.514-.611c-.559-.482-.89-1.43-.89-3.876a14.2,14.2,0,0,1,.263-3.663,1.292,1.292,0,0,1,.375-.656,1.142,1.142,0,0,1,.751-.193,2.778,2.778,0,0,0,1.913-.581A2.092,2.092,0,0,0,217.891,220.946Zm3.175-.278v0A.008.008,0,0,1,221.066,220.668Z" fill="#fff" fill-rule="evenodd"/>
      <g id="Union_3">
        <path id="Path_59" data-name="Path 59" d="M222.833,224.833a.555.555,0,1,1,.556-.555A.555.555,0,0,1,222.833,224.833Z" fill="#fff"/>
        <path id="Path_60" data-name="Path 60" d="M219.5,224.278a2.777,2.777,0,1,0,2.778,2.777A2.777,2.777,0,0,0,219.5,224.278Zm0,1.111a1.666,1.666,0,1,0,1.667,1.666A1.666,1.666,0,0,0,219.5,225.389Z" fill="#fff" fill-rule="evenodd"/>
      </g>
    </g>
  </g>
</svg>
