<svg xmlns="http://www.w3.org/2000/svg" width="20" height="18.333" viewBox="0 0 20 18.333">
  <g id="Icon_Email" transform="translate(-45 -298)">
    <path id="Shape_01" d="M63.31,303.1a5.732,5.732,0,0,0-.655-1.766,33.642,33.642,0,0,1-3.113,2.763A8.435,8.435,0,0,1,55,306.182a8.435,8.435,0,0,1-4.542-2.086,33.642,33.642,0,0,1-3.113-2.763,5.729,5.729,0,0,0-.655,1.766q-.012.054-.024.111a32.434,32.434,0,0,0,2.688,2.33C51.008,306.8,53.038,308,55,308s3.992-1.2,5.646-2.46a32.417,32.417,0,0,0,2.688-2.33Q63.322,303.153,63.31,303.1Z" fill="#fc92a4"/>
    <path id="Shape_02" d="M45,307.167c0,7.548,1.765,9.166,10,9.166s10-1.618,10-9.166S63.235,298,55,298,45,299.618,45,307.167Zm10,7.639a24.41,24.41,0,0,1-4.675-.335,4.506,4.506,0,0,1-2.235-.971,3.863,3.863,0,0,1-1.059-2.048,25.361,25.361,0,0,1,0-8.571,3.867,3.867,0,0,1,1.059-2.048,4.506,4.506,0,0,1,2.235-.971A24.424,24.424,0,0,1,55,299.528a24.424,24.424,0,0,1,4.675.334,4.506,4.506,0,0,1,2.235.971,3.867,3.867,0,0,1,1.059,2.048,25.361,25.361,0,0,1,0,8.571A3.863,3.863,0,0,1,61.91,313.5a4.506,4.506,0,0,1-2.235.971A24.41,24.41,0,0,1,55,314.806Z" fill="#fc92a4" fill-rule="evenodd"/>
  </g>
</svg>
