<svg xmlns="http://www.w3.org/2000/svg" width="21" height="12.25" viewBox="0 0 21 12.25">
  <g id="Icon_Hidden" data-name="Icon Hidden" transform="translate(-307 -394)">
    <path id="Shape" d="M313.211,400.744a.851.851,0,0,1,0-1.238.939.939,0,0,1,1.288,0,4.169,4.169,0,0,0,6,0,.94.94,0,0,1,1.289,0,.853.853,0,0,1,0,1.238A6.041,6.041,0,0,1,313.211,400.744Z" fill="#bfbfbf"/>
    <path id="Shape-2" data-name="Shape" d="M307.386,399.157a1.406,1.406,0,0,0,0,1.936c1.587,1.726,5.34,5.157,10.114,5.157s8.527-3.431,10.114-5.157a1.406,1.406,0,0,0,0-1.936c-1.587-1.726-5.34-5.157-10.114-5.157S308.973,397.431,307.386,399.157ZM317.5,395.75c-3.777,0-6.96,2.675-8.57,4.375,1.61,1.7,4.793,4.375,8.57,4.375s6.96-2.675,8.57-4.375C324.46,398.425,321.277,395.75,317.5,395.75Z" fill="#bfbfbf" fill-rule="evenodd"/>
  </g>
</svg>
