<svg id="Group_5242" data-name="Group 5242" xmlns="http://www.w3.org/2000/svg" xmlns:xlink="http://www.w3.org/1999/xlink" width="25.928" height="34.749" viewBox="0 0 25.928 34.749">
  <defs>
    <clipPath id="clip-path">
      <rect id="Rectangle_1360" data-name="Rectangle 1360" width="25.928" height="34.749" fill="none"/>
    </clipPath>
  </defs>
  <g id="Group_5241" data-name="Group 5241" clip-path="url(#clip-path)">
    <path id="Path_6428" data-name="Path 6428" d="M20.152,19.029a38.7,38.7,0,0,1,18.8-17.515c.534-.233.115-1.033-.415-.8A39.49,39.49,0,0,0,19.39,18.547c-.268.511.492,1,.763.482" transform="translate(-14.111 -0.49)" fill="#485a83"/>
    <path id="Path_6429" data-name="Path 6429" d="M75.15.777c2.389,3.37,1.235,8.915.354,12.63a37.186,37.186,0,0,1-4.875,11.417.451.451,0,0,0,.763.482,37.878,37.878,0,0,0,5.365-13.486c.688-3.726,1.4-8.357-.938-11.651-.336-.473-1,.139-.668.607" transform="translate(-51.495 0)" fill="#485a83"/>
    <path id="Path_6430" data-name="Path 6430" d="M16.168,67.537c4.491,3.43,9.28,6.9,15.127,7.182a.452.452,0,0,0,.032-.9C25.655,73.539,21,70.1,16.65,66.774c-.461-.353-.941.412-.482.763" transform="translate(-11.665 -48.669)" fill="#485a83"/>
    <path id="Path_6431" data-name="Path 6431" d="M55.247,31.219c-2.272,1.291-6.112,4.094-5.138,7.2.814,2.6,3.665,1.8,5.234.481,1.524-1.284,4.95-4.688,3.256-6.879-1.876-2.428-4.852-.207-6.05,1.608-1.051,1.593-3.148,6.019.393,6.384,2.587.266,5.465-3.351,5.858-5.616.536-3.089-2.577-4.12-4.831-2.534-1.716,1.208-4.2,4.052-2.807,6.284,1.969,3.146,6.049.3,7.281-1.976,1.138-2.1.169-5.957-2.887-4.912-.544.186-.351,1.068.2.88,1.472-.5,2.488.955,2.33,2.312a4.609,4.609,0,0,1-1.276,2.438c-.878.992-2.27,2.027-3.693,1.617-1.748-.5-1.549-2.414-.765-3.646a8.841,8.841,0,0,1,1.8-1.991c.431-.356,1.565-1.131,2.144-.943l1.67,1.927q-.086.445-.172.89a7.456,7.456,0,0,1-2.231,3.069,6.509,6.509,0,0,1-.945.75c-1.043.653-3.126,1.556-2.663-1.908.223-1.669,2.459-4.536,4.1-4.706,1-.1,1.343.178,1.7,1.08.388.995.239,1.19-.3,2.039a16.364,16.364,0,0,1-1.8,2.27,6.9,6.9,0,0,1-1.943,1.6,1.862,1.862,0,0,1-2.66-2.386c.683-1.985,2.891-3.549,4.62-4.532.5-.287.09-1.089-.415-.8" transform="translate(-36.459 -22.594)" fill="#485a83"/>
    <path id="Path_6432" data-name="Path 6432" d="M4.982,50.239A8.87,8.87,0,0,0,.229,51.271l.589.642a12.262,12.262,0,0,1,9.308-6.526c.576-.079.374-.958-.2-.88A13.094,13.094,0,0,0,.056,51.43a.455.455,0,0,0,.589.642,7.9,7.9,0,0,1,4.306-.93.452.452,0,0,0,.031-.9" transform="translate(0 -32.479)" fill="#485a83"/>
    <path id="Path_6433" data-name="Path 6433" d="M73.227,67.452a9.194,9.194,0,0,1-.385,9.224l.715-.062-2.732-2.867c-.4-.421-1.069.186-.668.607l2.732,2.867a.457.457,0,0,0,.715-.063,10.1,10.1,0,0,0,.423-10.122.451.451,0,0,0-.8.415" transform="translate(-51.114 -48.754)" fill="#485a83"/>
    <path id="Path_6434" data-name="Path 6434" d="M60.063,18.764a15.187,15.187,0,0,0,7.815,3.849c.564.1.835-.766.262-.863a14.349,14.349,0,0,1-7.409-3.593c-.426-.389-1.1.215-.668.607" transform="translate(-43.737 -13.16)" fill="#485a83"/>
    <path id="Path_6435" data-name="Path 6435" d="M62.98,9.175l-.07.532.685.575.941-1.309-.782-.033a1.443,1.443,0,0,1,.085,1.554c-.183.467.593.834.813.372A3.74,3.74,0,0,1,66.69,8.893l-.639-.532-.469,2.616a.452.452,0,0,0,.864.262,10.994,10.994,0,0,1,1.888-3.3L67.5,7.679A5.407,5.407,0,0,1,66.2,11.448l.813.372a6.938,6.938,0,0,1,2.317-3.839l-.755-.35a8.343,8.343,0,0,1-1.61,4.352l.813.372a12.445,12.445,0,0,1,2.3-4.691l-.832-.257a7.572,7.572,0,0,1-1.652,4.544l.832.257A6.089,6.089,0,0,1,70.2,8.168l-.755-.35A8.343,8.343,0,0,1,68.04,12.66l.813.372A8.116,8.116,0,0,1,70.2,10.016l-.832-.257a8.314,8.314,0,0,1-1.085,4.067l.813.372.941-2.265-.766.173.142.39a.456.456,0,0,0,.832.257l.858-1.054-.832-.257a4.6,4.6,0,0,1-.311,2.041l.864.262.353-1.067a.452.452,0,0,0-.864-.262l-.353,1.067c-.184.556.657.8.864.262a4.972,4.972,0,0,0,.35-2.272.456.456,0,0,0-.832-.257l-.858,1.054.832.257a1.521,1.521,0,0,0-.376-1.029c-.221-.31-.651-.1-.766.172l-.941,2.265c-.195.469.566.814.813.372a9.286,9.286,0,0,0,1.225-4.518.455.455,0,0,0-.832-.257A8.571,8.571,0,0,0,67.99,12.77a.453.453,0,0,0,.813.372A9.215,9.215,0,0,0,70.349,7.85a.457.457,0,0,0-.755-.35,7.051,7.051,0,0,0-2.077,4.676.455.455,0,0,0,.832.257,8.478,8.478,0,0,0,1.792-4.994.455.455,0,0,0-.832-.257,13.008,13.008,0,0,0-2.4,4.911.453.453,0,0,0,.813.372,9.327,9.327,0,0,0,1.749-4.8.456.456,0,0,0-.755-.35,7.8,7.8,0,0,0-2.573,4.245.454.454,0,0,0,.813.372A6.11,6.11,0,0,0,68.4,7.711a.456.456,0,0,0-.832-.257,11.715,11.715,0,0,0-1.989,3.524l.864.262q.234-1.308.469-2.616a.459.459,0,0,0-.639-.532,4.429,4.429,0,0,0-2.386,2.291l.813.372a2.459,2.459,0,0,0-.147-2.231.457.457,0,0,0-.782-.033L62.833,9.8c-.292.407.345.958.685.575a1.27,1.27,0,0,0,.264-1.615c-.236-.532-1.036-.114-.8.415" transform="translate(-45.804 -5.101)" fill="#485a83"/>
    <path id="Path_6436" data-name="Path 6436" d="M89.591,9.129A1.631,1.631,0,0,1,89.253,7.6l-.872-.032a5.831,5.831,0,0,1-.594,4.534c-.292.5.47.985.763.482a6.765,6.765,0,0,0,.711-5.214.455.455,0,0,0-.872-.032,2.589,2.589,0,0,0,.534,2.4c.371.449,1.037-.161.668-.607" transform="translate(-64.024 -5.128)" fill="#485a83"/>
    <path id="Path_6437" data-name="Path 6437" d="M65.343,15.751l2.4,1.5.372-.813a1.331,1.331,0,0,1-.627-2.04l-.832-.257a3.084,3.084,0,0,0,1.658,3.216c.514.257,1-.5.482-.763a2.232,2.232,0,0,1-1.238-2.422c.076-.481-.6-.579-.832-.257A2.242,2.242,0,0,0,67.855,17.3a.453.453,0,0,0,.372-.813l-2.4-1.5a.451.451,0,0,0-.482.763" transform="translate(-47.54 -10.017)" fill="#485a83"/>
    <path id="Path_6438" data-name="Path 6438" d="M18.779,76.928c-2.683,3.941-5.522,8.723-3.121,13.495a.451.451,0,0,0,.8-.415c-2.242-4.457.6-8.948,3.082-12.6.327-.48-.436-.962-.763-.482" transform="translate(-10.768 -56.001)" fill="#485a83"/>
    <path id="Path_6439" data-name="Path 6439" d="M18.027,100.1a12.446,12.446,0,0,0,8.457-3.087c1.951-1.727,3.829-4.443,2.926-7.147-.182-.546-1.064-.353-.88.2.857,2.565-1.174,5.108-3.064,6.627a11.5,11.5,0,0,1-7.408,2.506.452.452,0,0,0-.031.9" transform="translate(-12.85 -65.349)" fill="#485a83"/>
    <path id="Path_6440" data-name="Path 6440" d="M31.524,84.05a6.37,6.37,0,0,0-2.111,6.763.457.457,0,0,0,.539.341,8.535,8.535,0,0,0,5.55-5.467c.186-.55-.677-.813-.864-.262a7.568,7.568,0,0,1-4.885,4.849l.539.341a5.481,5.481,0,0,1,1.838-5.9c.451-.367-.158-1.033-.607-.668" transform="translate(-21.278 -61.267)" fill="#485a83"/>
  </g>
</svg>
