<svg id="Group_3601" data-name="Group 3601" xmlns="http://www.w3.org/2000/svg" width="44.271" height="48.293" viewBox="0 0 44.271 48.293">
  <path id="Path_1100" data-name="Path 1100" d="M63.457,10.462h-3.22a.8.8,0,0,0-.8.8v.8a.8.8,0,0,0-.8-.8H56.212a.8.8,0,0,0-.8.752l-.056.858H53.8v-1.61a.8.8,0,0,0-.8-.8h-3.22a.8.8,0,0,0-.8.8V16.1a.8.8,0,0,0,.8.8h3.22a.8.8,0,0,0,.8-.8v-1.61h1.449l-.439,6.585A1.6,1.6,0,0,1,53.2,22.536H48.163v-.345a.805.805,0,0,0-.46-.724,12.957,12.957,0,0,0-3.434-1.054.8.8,0,0,0-.383.039,7.918,7.918,0,0,0-1.357-.287v-2.2a6.708,6.708,0,0,0,.692-.408c2.7-1.892,4.942-3.793,4.942-7.883V8.852A8.88,8.88,0,0,0,34,1.725,6.432,6.432,0,0,0,26.43,8.047V20.121a.8.8,0,0,0,.8.8A11.93,11.93,0,0,0,35.5,17.62a6.733,6.733,0,0,0,.591.348v2.2a7.916,7.916,0,0,0-1.358.283.8.8,0,0,0-.382-.039,12.957,12.957,0,0,0-3.434,1.054.805.805,0,0,0-.46.724v.027a19.092,19.092,0,0,0-4.83,12.4,19.83,19.83,0,0,0,.759,6.439H24.821v-1.61a.8.8,0,0,0-.8-.8H20.8a.8.8,0,0,0-.8.8v4.83a.8.8,0,0,0,.8.8h3.22a.8.8,0,0,0,.8-.8v-1.61h4.6a12.315,12.315,0,0,0-1.382,5.634h1.61a10.68,10.68,0,0,1,.8-4.036v.011a.8.8,0,0,0,.8.8h3.22a.8.8,0,0,0,.8-.8v-3.22H45.362l.464.58a10.706,10.706,0,0,1,2.337,6.665h1.61a12.321,12.321,0,0,0-2.691-7.67l-.616-.77-.309-.927a10.045,10.045,0,0,1,.2-6.9l.045-.113a2.514,2.514,0,0,0,1.759-2.257v-.033l8.725-1.869a3.237,3.237,0,0,0,2.544-3.149V16.1a.8.8,0,0,0,.8.8h3.22a.8.8,0,0,0,.8-.8v-4.83A.8.8,0,0,0,63.457,10.462Zm-11.269,4.83h-1.61v-3.22h1.61ZM23.211,43.464H21.6v-3.22h1.61Zm6.237-2.754.056.342H28.168c-.46-.64-.933-2.3-.933-6.442a17.855,17.855,0,0,1,3.22-9.9V29.6C29.393,32.007,29.041,38.264,29.448,40.709ZM38.826,1.623a7.235,7.235,0,0,1,7.663,6.3l-4.405-2.2a.8.8,0,0,0-.5-.072l-9.352,1.65A7.144,7.144,0,0,1,38.826,1.623ZM28.04,19.286V8.047A4.834,4.834,0,0,1,32.424,3.24a8.855,8.855,0,0,0-1.969,5.612v.825c0,3.453,1.6,5.344,3.722,6.989A10.324,10.324,0,0,1,28.04,19.286Zm4.025-9.608V8.959L41.6,7.276,46.549,9.75c-.023,3-1.393,4.49-4.251,6.492a5.232,5.232,0,0,1-5.979,0C33.437,14.223,32.065,12.726,32.065,9.677Zm3.22,12.272a6.133,6.133,0,0,1,1.61-.218.8.8,0,0,0,.8-.8V18.578a6.26,6.26,0,0,0,3.22,0v2.348a.8.8,0,0,0,.8.8,6.133,6.133,0,0,1,1.61.218v1.288l-4.025.865-4.025-.865ZM30.9,38.725a33.775,33.775,0,0,1,.621-7.174,3.292,3.292,0,0,0,.673.358,9.964,9.964,0,0,1,.1,6.725H31.26A.786.786,0,0,0,30.9,38.725Zm2.77,4.739h-1.61v-3.22h1.61Zm1.61-4.025a.8.8,0,0,0-.8-.8H34a11.572,11.572,0,0,0,0-6.439H44.589a11.66,11.66,0,0,0,.041,7.244Zm11.269-9.78c0,.437-.688.926-1.61.926H33.675c-.922,0-1.61-.489-1.61-.926V22.715a11.164,11.164,0,0,1,1.61-.526v1.7a.8.8,0,0,0,.636.787l4.83,1.039a.791.791,0,0,0,.338,0l4.83-1.039a.8.8,0,0,0,.636-.787v-1.7a11.164,11.164,0,0,1,1.61.526v6.946Zm10-3.476-8.386,1.8V24.146H53.2A3.209,3.209,0,0,0,56.41,21.2l.555-8.321h.856V24.609h0A1.618,1.618,0,0,1,56.55,26.183Zm6.1-10.891h-1.61v-3.22h1.61Z" transform="translate(-19.991 0)" fill="#b3c8e6"/>
</svg>
