<svg xmlns="http://www.w3.org/2000/svg" width="48.972" height="46.099" viewBox="0 0 48.972 46.099">
  <g id="Group_3600" data-name="Group 3600" transform="translate(0.027 -0.097)">
    <path id="Path_1087" data-name="Path 1087" d="M124.15,335a1.65,1.65,0,1,0,1.65,1.65A1.652,1.652,0,0,0,124.15,335Zm0,2.2a.55.55,0,1,1,.55-.55A.551.551,0,0,1,124.15,337.2Z" transform="translate(-113.426 -303.93)" fill="#9ee0e2"/>
    <path id="Path_1088" data-name="Path 1088" d="M159.15,335a1.65,1.65,0,1,0,1.65,1.65A1.652,1.652,0,0,0,159.15,335Zm0,2.2a.55.55,0,1,1,.55-.55A.551.551,0,0,1,159.15,337.2Z" transform="translate(-144.576 -303.93)" fill="#9ee0e2"/>
    <path id="Path_1089" data-name="Path 1089" d="M124.15,370a1.65,1.65,0,1,0,1.65,1.65A1.652,1.652,0,0,0,124.15,370Zm0,2.2a.55.55,0,1,1,.55-.55A.551.551,0,0,1,124.15,372.2Z" transform="translate(-113.426 -335.08)" fill="#9ee0e2"/>
    <path id="Path_1090" data-name="Path 1090" d="M159.15,370a1.65,1.65,0,1,0,1.65,1.65A1.652,1.652,0,0,0,159.15,370Zm0,2.2a.55.55,0,1,1,.55-.55A.551.551,0,0,1,159.15,372.2Z" transform="translate(-144.576 -335.08)" fill="#9ee0e2"/>
    <path id="Path_1091" data-name="Path 1091" d="M352.149,334.7H350.5v-1.65a.55.55,0,0,0-.55-.55h-2.2a.55.55,0,0,0-.55.55v1.65h-1.65a.55.55,0,0,0-.55.55v2.2a.55.55,0,0,0,.55.55h1.65v1.65a.55.55,0,0,0,.55.55h2.2a.55.55,0,0,0,.55-.55V338h1.65a.55.55,0,0,0,.55-.55v-2.2A.55.55,0,0,0,352.149,334.7Zm-.55,2.2h-1.65a.55.55,0,0,0-.55.55v1.65h-1.1v-1.65a.55.55,0,0,0-.55-.55H346.1v-1.1h1.65a.55.55,0,0,0,.55-.55V333.6h1.1v1.65a.55.55,0,0,0,.55.55h1.65Z" transform="translate(-311.453 -301.705)" fill="#9ee0e2"/>
    <path id="Path_1092" data-name="Path 1092" d="M86.3,97.849H77.5v-2.2a.55.55,0,0,0-.55-.55h-1.1v-.275a1.927,1.927,0,0,0-1.375-1.844V90.7H87.121a3.025,3.025,0,0,0,0-6.049H63.474a1.925,1.925,0,1,1,0-3.85H76.947a.55.55,0,0,0,.55-.55v-2.2a.55.55,0,0,0-1.1,0V79.7H63.474a3.025,3.025,0,0,0,0,6.049H87.121a1.925,1.925,0,0,1,0,3.85h-13.2a.55.55,0,0,0-.55.55V92.98A1.928,1.928,0,0,0,72,94.824V95.1H70.9a.55.55,0,0,0-.55.55v2.2c-9.919.008-9.359-.019-9.5.021A11.549,11.549,0,1,0,72.888,107.2h2.069A11.55,11.55,0,1,0,86.3,97.849ZM73.1,94.824a.825.825,0,0,1,1.65,0V95.1H73.1ZM71.448,96.2H76.4v1.65H71.448ZM86.3,119.847a10.462,10.462,0,0,1-10.12-13.062.55.55,0,0,0-.533-.687H72.2a.55.55,0,0,0-.533.687,10.45,10.45,0,1,1-10.643-7.823c.365-.018-2.666-.013,25.27-.013a10.449,10.449,0,1,1,0,20.9Z" transform="translate(-48.9 -74.751)" fill="#9ee0e2"/>
    <path id="Path_1093" data-name="Path 1093" d="M97.149,302.5a7.149,7.149,0,1,0,7.149,7.149A7.157,7.157,0,0,0,97.149,302.5Zm0,13.2a6.049,6.049,0,1,1,6.049-6.049A6.056,6.056,0,0,1,97.149,315.7Z" transform="translate(-84.501 -275.005)" fill="#9ee0e2"/>
    <path id="Path_1094" data-name="Path 1094" d="M322.149,302.5a7.149,7.149,0,1,0,7.149,7.149A7.157,7.157,0,0,0,322.149,302.5Zm0,13.2a6.049,6.049,0,1,1,6.049-6.049A6.056,6.056,0,0,1,322.149,315.7Z" transform="translate(-284.753 -275.005)" fill="#9ee0e2"/>
    <path id="Path_1095" data-name="Path 1095" d="M237.7,317.5H230.55a.55.55,0,1,0,0,1.1H237.7a.55.55,0,1,0,0-1.1Z" transform="translate(-209.102 -288.355)" fill="#9ee0e2"/>
    <path id="Path_1096" data-name="Path 1096" d="M226.549,303.052a.55.55,0,0,0-.55-.55H215.55a.55.55,0,0,0,0,1.1H226A.55.55,0,0,0,226.549,303.052Z" transform="translate(-195.752 -275.005)" fill="#9ee0e2"/>
    <path id="Path_1097" data-name="Path 1097" d="M200.55,288.6H214.3a.55.55,0,1,0,0-1.1H200.55a.55.55,0,1,0,0,1.1Z" transform="translate(-182.402 -261.654)" fill="#9ee0e2"/>
    <path id="Path_1098" data-name="Path 1098" d="M83.3,174.1a3.3,3.3,0,1,0-3.3-3.3A3.3,3.3,0,0,0,83.3,174.1Zm0-5.5a2.2,2.2,0,1,1-2.2,2.2A2.2,2.2,0,0,1,83.3,168.6Z" transform="translate(-75.6 -154.852)" fill="#9ee0e2"/>
    <path id="Path_1099" data-name="Path 1099" d="M427.75,178a2.75,2.75,0,1,0-2.75-2.75A2.753,2.753,0,0,0,427.75,178Zm0-4.4a1.65,1.65,0,1,1-1.65,1.65A1.652,1.652,0,0,1,427.75,173.6Z" transform="translate(-382.654 -159.302)" fill="#9ee0e2"/>
    <ellipse id="Ellipse_7" data-name="Ellipse 7" cx="1" cy="0.5" rx="1" ry="0.5" transform="translate(-0.027 8.097)" fill="#9ee0e2"/>
    <circle id="Ellipse_8" data-name="Ellipse 8" cx="1" cy="1" r="1" transform="translate(6.973 0.097)" fill="#9ee0e2"/>
    <ellipse id="Ellipse_9" data-name="Ellipse 9" cx="0.5" cy="1" rx="0.5" ry="1" transform="translate(34.973 1.097)" fill="#9ee0e2"/>
    <ellipse id="Ellipse_10" data-name="Ellipse 10" cx="0.5" cy="1" rx="0.5" ry="1" transform="translate(46.973 8.097)" fill="#9ee0e2"/>
    <ellipse id="Ellipse_11" data-name="Ellipse 11" cx="1" cy="0.5" rx="1" ry="0.5" transform="translate(36.973 19.097)" fill="#9ee0e2"/>
    <ellipse id="Ellipse_12" data-name="Ellipse 12" cx="0.5" cy="1" rx="0.5" ry="1" transform="translate(16.973 16.097)" fill="#9ee0e2"/>
    <ellipse id="Ellipse_13" data-name="Ellipse 13" cx="0.5" cy="1" rx="0.5" ry="1" transform="translate(1.973 22.097)" fill="#9ee0e2"/>
  </g>
</svg>
