<svg xmlns="http://www.w3.org/2000/svg" width="47.408" height="40" viewBox="0 0 47.408 40">
  <g id="bonus" transform="translate(0 -5)">
    <path id="Path_1118" data-name="Path 1118" d="M16.481,42.522l4.7-4.584a.74.74,0,0,0-.411-1.263l-6.5-.944-2.907-5.889a.771.771,0,0,0-1.328,0L7.133,35.731l-6.5.944a.74.74,0,0,0-.411,1.263l4.7,4.584-1.11,6.473a.741.741,0,0,0,1.075.781L10.7,46.72l5.813,3.056a.74.74,0,0,0,1.075-.781l-1.11-6.473Zm-5.432,2.705a.739.739,0,0,0-.69,0L5.53,47.766l.921-5.377a.741.741,0,0,0-.213-.656L2.332,37.924l5.4-.785a.741.741,0,0,0,.558-.405L10.7,31.842l2.415,4.892a.741.741,0,0,0,.558.405l5.4.785-3.907,3.809a.741.741,0,0,0-.213.656l.922,5.377Z" transform="translate(0 -6.342)" fill="#f2ddb4"/>
    <path id="Path_1119" data-name="Path 1119" d="M56.471,37.179a.742.742,0,0,0-.6-.5l-6.5-.944-2.907-5.889a.771.771,0,0,0-1.328,0L42.232,35.73l-6.5.944a.74.74,0,0,0-.411,1.263l4.7,4.584-1.11,6.473a.74.74,0,0,0,1.075.781L45.8,46.719l5.813,3.056a.74.74,0,0,0,1.075-.781l-1.11-6.473,4.7-4.584a.742.742,0,0,0,.187-.759Zm-6.2,4.554a.741.741,0,0,0-.213.656l.921,5.377-4.829-2.539a.742.742,0,0,0-.69,0l-4.829,2.539.922-5.377a.741.741,0,0,0-.213-.656l-3.907-3.809,5.4-.785a.741.741,0,0,0,.558-.405L45.8,31.842l2.415,4.892a.741.741,0,0,0,.558.405l5.4.785Z" transform="translate(-9.1 -6.342)" fill="#f2ddb4"/>
    <path id="Path_1120" data-name="Path 1120" d="M22.477,20.1l-1.11,6.473a.74.74,0,0,0,1.074.781L28.254,24.3l5.813,3.056a.74.74,0,0,0,1.074-.781L34.031,20.1l4.7-4.584a.741.741,0,0,0-.411-1.264l-6.5-.944L28.918,7.424a.771.771,0,0,0-1.328,0l-2.907,5.889-6.5.944a.741.741,0,0,0-.411,1.264l4.7,4.584Zm2.8-5.381a.741.741,0,0,0,.558-.405l2.415-4.892,2.415,4.892a.741.741,0,0,0,.558.405l5.4.784-3.907,3.808a.741.741,0,0,0-.213.656l.922,5.377L28.6,22.81a.739.739,0,0,0-.689,0l-4.83,2.539L24,19.972a.741.741,0,0,0-.213-.656l-3.907-3.808Z" transform="translate(-4.55 -0.53)" fill="#f2ddb4"/>
    <path id="Path_1121" data-name="Path 1121" d="M8.741,8.7h1.481v1.481a.741.741,0,0,0,1.481,0V8.7h1.481a.741.741,0,0,0,0-1.481H11.7V5.741a.741.741,0,0,0-1.481,0V7.222H8.741a.741.741,0,1,0,0,1.481Z" transform="translate(-2.074 0)" fill="#f2ddb4"/>
    <path id="Path_1122" data-name="Path 1122" d="M33.185,53.222H31.7V51.741a.741.741,0,1,0-1.481,0v1.481H28.741a.741.741,0,1,0,0,1.481h1.481v1.481a.741.741,0,1,0,1.481,0V54.7h1.481a.741.741,0,0,0,0-1.481Z" transform="translate(-7.259 -11.926)" fill="#f2ddb4"/>
    <path id="Path_1123" data-name="Path 1123" d="M2.741,24.7H4.222v1.481a.741.741,0,1,0,1.481,0V24.7H7.185a.741.741,0,0,0,0-1.481H5.7V21.741a.741.741,0,1,0-1.481,0v1.481H2.741a.741.741,0,0,0,0,1.481Z" transform="translate(-0.518 -4.148)" fill="#f2ddb4"/>
    <path id="Path_1124" data-name="Path 1124" d="M54.741,23.222a.741.741,0,0,0,0,1.481h1.481v1.481a.741.741,0,1,0,1.481,0V24.7h1.481a.741.741,0,1,0,0-1.481H57.7V21.741a.741.741,0,1,0-1.481,0v1.481Z" transform="translate(-14 -4.148)" fill="#f2ddb4"/>
    <path id="Path_1125" data-name="Path 1125" d="M48.741,8.7h1.481v1.481a.741.741,0,0,0,1.481,0V8.7h1.481a.741.741,0,1,0,0-1.481H51.7V5.741a.741.741,0,0,0-1.481,0V7.222H48.741a.741.741,0,1,0,0,1.481Z" transform="translate(-12.444 0)" fill="#f2ddb4"/>
  </g>
</svg>
