<svg xmlns="http://www.w3.org/2000/svg" width="42.918" height="42.875" viewBox="0 0 42.918 42.875">
  <g id="e-book" transform="translate(-1 -1.062)">
    <path id="Path_1101" data-name="Path 1101" d="M57.153,30.914V17.692a.692.692,0,1,0-1.384,0V30.914A3.482,3.482,0,0,0,53,34.306v2.769a3.461,3.461,0,1,0,6.922,0V34.306A3.482,3.482,0,0,0,57.153,30.914Zm1.384,6.161a2.077,2.077,0,1,1-4.153,0V34.306a2.016,2.016,0,0,1,1.384-1.938v1.938a.692.692,0,1,0,1.384,0V32.368a2.016,2.016,0,0,1,1.384,1.938Z" transform="translate(-16.004 -4.905)" fill="#f3b9c2"/>
    <path id="Path_1102" data-name="Path 1102" d="M1.692,19.017a.654.654,0,0,0,.692-.692V5.865a.654.654,0,0,1,.692-.692h.692V29.4a.655.655,0,0,0,.969.623,17.661,17.661,0,0,1,13.291,0,.758.758,0,0,0,.554,0,17.661,17.661,0,0,1,13.291,0c.623.277.9-.415.9-.623V19.709a.692.692,0,0,0-1.384,0v4.707A2.016,2.016,0,0,1,30,22.478a.665.665,0,0,0-.485-.623.739.739,0,0,0-.761.208l-4.015,5.33a20.527,20.527,0,0,0-5.815,1.038V3.58c.761-.277,1.454-.485,2.215-.692a.7.7,0,0,0,.623-.831.657.657,0,0,0-.831-.485,19.235,19.235,0,0,0-2.63.831,18.807,18.807,0,0,0-14.122.069.605.605,0,0,0-.415.623v.692H3.077A2.04,2.04,0,0,0,1,5.865v12.46a.654.654,0,0,0,.692.692Zm29.766,7.268v2.146a29.135,29.135,0,0,0-3.323-.831Zm-2.423-2.215a3.793,3.793,0,0,0,1.108,1.246l-2.907,1.177ZM5.153,3.58a17.944,17.944,0,0,1,12.46,0V28.432a19.209,19.209,0,0,0-12.46,0Z" transform="translate(0 0)" fill="#f3b9c2"/>
    <path id="Path_1103" data-name="Path 1103" d="M1.692,31.892a.654.654,0,0,0,.692-.692V30.092a.654.654,0,0,0-.692-.692A.654.654,0,0,0,1,30.092V31.2A.654.654,0,0,0,1.692,31.892Z" transform="translate(0 -8.721)" fill="#f3b9c2"/>
    <path id="Path_1104" data-name="Path 1104" d="M3.077,46.076H6.884a.692.692,0,1,0,0-1.384H3.077A.654.654,0,0,1,2.384,44v-.692H23.844a.692.692,0,1,0,0-1.384H2.384v-6.23A.654.654,0,0,0,1.692,35,.654.654,0,0,0,1,35.692V44A2.04,2.04,0,0,0,3.077,46.076Z" transform="translate(0 -10.445)" fill="#f3b9c2"/>
    <path id="Path_1105" data-name="Path 1105" d="M36,35.631a2.04,2.04,0,0,0,2.077-2.077V19.017h.692a2.04,2.04,0,0,0,2.077-2.077V8.634a.692.692,0,0,1,1.384,0v1.384a.692.692,0,1,0,1.384,0V8.634a2.077,2.077,0,1,0-4.153,0v8.307a.654.654,0,0,1-.692.692h-.692V5.865A2.04,2.04,0,0,0,36,3.788H35.3V3.1a.605.605,0,0,0-.415-.623,19.4,19.4,0,0,0-8.445-1.384.625.625,0,0,0-.623.761.625.625,0,0,0,.761.623A18.046,18.046,0,0,1,33.99,3.581V16.595a.692.692,0,1,0,1.384,0V5.173h.692a.654.654,0,0,1,.692.692V33.554a.654.654,0,0,1-.692.692H12.461a.692.692,0,1,0,0,1.384h3.461a10.144,10.144,0,0,1,1.384,4.153h-.692a3.482,3.482,0,0,0-3.392,2.769H9.692a.692.692,0,0,0,0,1.384H36a.692.692,0,0,0,0-1.384H28.313a3.482,3.482,0,0,0-3.392-2.769H24.3a10.485,10.485,0,0,1,1.315-4.153Zm-11.976,0a11.759,11.759,0,0,0-1.108,4.153H18.691a11.14,11.14,0,0,0-1.108-4.153Zm.9,5.538a2.016,2.016,0,0,1,1.938,1.384H14.676a2.016,2.016,0,0,1,1.938-1.384h8.307Z" transform="translate(-2.462 0)" fill="#f3b9c2"/>
    <path id="Path_1106" data-name="Path 1106" d="M38.133,8.792a19.944,19.944,0,0,0-8.584,0A.759.759,0,0,0,29,9.623a.759.759,0,0,0,.831.554,17.483,17.483,0,0,1,8.03,0c.069,0,.623.208.831-.554a.7.7,0,0,0-.554-.831Z" transform="translate(-8.613 -2.235)" fill="#f3b9c2"/>
    <path id="Path_1107" data-name="Path 1107" d="M9.825,10.177a17.483,17.483,0,0,1,8.03,0,.624.624,0,0,0,.831-.554.7.7,0,0,0-.554-.831,19.944,19.944,0,0,0-8.584,0,.706.706,0,0,0,.277,1.384Z" transform="translate(-2.456 -2.235)" fill="#f3b9c2"/>
    <path id="Path_1108" data-name="Path 1108" d="M38.133,14.792a19.944,19.944,0,0,0-8.584,0,.706.706,0,1,0,.277,1.384,17.483,17.483,0,0,1,8.03,0,.734.734,0,0,0,.831-.554.7.7,0,0,0-.554-.831Z" transform="translate(-8.613 -4.082)" fill="#f3b9c2"/>
    <path id="Path_1109" data-name="Path 1109" d="M9.826,16.177a17.483,17.483,0,0,1,8.03,0,.691.691,0,0,0,.831-.554.655.655,0,0,0-.554-.831,19.944,19.944,0,0,0-8.584,0A.759.759,0,0,0,9,15.623.7.7,0,0,0,9.826,16.177Z" transform="translate(-2.457 -4.082)" fill="#f3b9c2"/>
    <path id="Path_1110" data-name="Path 1110" d="M38.133,20.792a19.944,19.944,0,0,0-8.584,0,.706.706,0,1,0,.277,1.384,17.483,17.483,0,0,1,8.03,0,.734.734,0,0,0,.831-.554.7.7,0,0,0-.554-.831Z" transform="translate(-8.613 -5.928)" fill="#f3b9c2"/>
    <path id="Path_1111" data-name="Path 1111" d="M9.826,22.177a17.483,17.483,0,0,1,8.03,0c.069,0,.623.208.831-.554a.7.7,0,0,0-.554-.831,19.944,19.944,0,0,0-8.584,0A.759.759,0,0,0,9,21.623.7.7,0,0,0,9.826,22.177Z" transform="translate(-2.457 -5.928)" fill="#f3b9c2"/>
    <path id="Path_1112" data-name="Path 1112" d="M38.687,27.623a.7.7,0,0,0-.554-.831,19.944,19.944,0,0,0-8.584,0,.706.706,0,1,0,.277,1.384,17.483,17.483,0,0,1,8.03,0A.734.734,0,0,0,38.687,27.623Z" transform="translate(-8.613 -7.775)" fill="#f3b9c2"/>
    <path id="Path_1113" data-name="Path 1113" d="M9.826,28.177a17.483,17.483,0,0,1,8.03,0c.069,0,.623.208.831-.554a.655.655,0,0,0-.554-.831,19.944,19.944,0,0,0-8.584,0A.759.759,0,0,0,9,27.623.7.7,0,0,0,9.826,28.177Z" transform="translate(-2.457 -7.775)" fill="#f3b9c2"/>
    <path id="Path_1114" data-name="Path 1114" d="M29.568,32.785a.657.657,0,0,0-.485.831.674.674,0,0,0,.692.554h.138a14.849,14.849,0,0,1,4.015-.485.692.692,0,1,0,0-1.384A17.176,17.176,0,0,0,29.568,32.785Z" transform="translate(-8.632 -9.614)" fill="#f3b9c2"/>
    <path id="Path_1115" data-name="Path 1115" d="M18.706,33.623a.712.712,0,0,0-.485-.831,20.263,20.263,0,0,0-8.653,0,.657.657,0,0,0-.485.831.759.759,0,0,0,.831.554,17.186,17.186,0,0,1,7.961,0A.672.672,0,0,0,18.706,33.623Z" transform="translate(-2.477 -9.622)" fill="#f3b9c2"/>
    <path id="Path_1116" data-name="Path 1116" d="M4.461,61H1.692a.692.692,0,0,0,0,1.384H4.461a.692.692,0,0,0,0-1.384Z" transform="translate(0 -18.447)" fill="#f3b9c2"/>
    <path id="Path_1117" data-name="Path 1117" d="M58.615,61H51.692a.692.692,0,1,0,0,1.384h6.922a.692.692,0,1,0,0-1.384Z" transform="translate(-15.388 -18.447)" fill="#f3b9c2"/>
    <circle id="Ellipse_14" data-name="Ellipse 14" cx="0.692" cy="0.692" r="0.692" transform="translate(28.689 31.477)" fill="#f3b9c2"/>
    <circle id="Ellipse_15" data-name="Ellipse 15" cx="0.692" cy="0.692" r="0.692" transform="translate(31.458 31.477)" fill="#f3b9c2"/>
    <circle id="Ellipse_16" data-name="Ellipse 16" cx="0.692" cy="0.692" r="0.692" transform="translate(25.92 31.477)" fill="#f3b9c2"/>
  </g>
</svg>
