<svg xmlns="http://www.w3.org/2000/svg" width="18.152" height="17.308" viewBox="0 0 18.152 17.308">
  <g id="Icon_Hotel" data-name="Icon Hotel" transform="translate(-231 -2526)">
    <g id="Icon_Hotel_2" data-name="Icon Hotel_2" transform="translate(231 2526)">
      <path id="Path_39" data-name="Path 39" d="M385,2577.633a.633.633,0,0,1,.633-.633h4.221a.633.633,0,1,1,0,1.266h-4.221A.633.633,0,0,1,385,2577.633Z" transform="translate(-376.135 -2573.201)" fill="#fc92a4"/>
      <path id="Path_40" data-name="Path 40" d="M372.727,2590.5a.633.633,0,1,0,0,1.266h4.221a.633.633,0,1,0,0-1.266Z" transform="translate(-368.677 -2581.002)" fill="#fc92a4"/>
      <path id="Path_41" data-name="Path 41" d="M372.727,2599.5a.633.633,0,1,0,0,1.266h4.221a.633.633,0,1,0,0-1.266Z" transform="translate(-368.677 -2586.203)" fill="#fc92a4"/>
      <path id="Path_42" data-name="Path 42" d="M373.5,2568a2.744,2.744,0,0,0-2.744,2.744v3.377h-2.7a2.744,2.744,0,0,0-2.744,2.744v7.176h-.673a.633.633,0,0,0,0,1.267h16.885a.633.633,0,0,0,0-1.267h-1.055v-13.3a2.744,2.744,0,0,0-2.744-2.744Zm-1.227,6.121h-.251v-3.377a1.478,1.478,0,0,1,1.477-1.477h4.221a1.478,1.478,0,0,1,1.477,1.477v13.3h-4.182V2581.3H377.6a.649.649,0,1,0,0-1.267h-2.586v-2.955H377.6a.649.649,0,1,0,0-1.266h-2.638a.9.9,0,0,0-.153.013A2.741,2.741,0,0,0,372.271,2574.121Zm1.477,2.744v7.176h-7.176v-7.176a1.478,1.478,0,0,1,1.477-1.477h4.221A1.478,1.478,0,0,1,373.749,2576.865Z" transform="translate(-364 -2568)" fill="#fc92a4" fill-rule="evenodd"/>
    </g>
  </g>
</svg>
