<svg xmlns="http://www.w3.org/2000/svg" width="171.5" height="171.328" viewBox="0 0 171.5 171.328">
  <g id="e-book" transform="translate(-1 -1.062)" opacity="0.26">
    <path id="Path_1101" data-name="Path 1101" d="M69.6,72.6V19.766a2.766,2.766,0,0,0-5.532,0V72.6A13.913,13.913,0,0,0,53,86.153V97.218a13.831,13.831,0,1,0,27.661,0V86.153A13.913,13.913,0,0,0,69.6,72.6Zm5.532,24.619a8.3,8.3,0,1,1-16.6,0V86.153a8.057,8.057,0,0,1,5.532-7.745v7.745a2.766,2.766,0,0,0,5.532,0V78.408a8.057,8.057,0,0,1,5.532,7.745Z" transform="translate(91.839 28.148)" fill="#f3b9c2"/>
    <path id="Path_1102" data-name="Path 1102" d="M3.766,72.809a2.613,2.613,0,0,0,2.766-2.766V20.253A2.613,2.613,0,0,1,9.3,17.487h2.766V114.3c0,3.6,3.6,2.766,3.873,2.49a70.574,70.574,0,0,1,53.11,0,3.03,3.03,0,0,0,2.213,0,70.574,70.574,0,0,1,53.11,0c2.49,1.106,3.6-1.66,3.6-2.49V75.575a2.766,2.766,0,0,0-5.532,0v18.81A8.057,8.057,0,0,1,116.9,86.64a2.657,2.657,0,0,0-1.936-2.49,2.953,2.953,0,0,0-3.043.83l-16.044,21.3a82.026,82.026,0,0,0-23.235,4.149v-99.3c3.043-1.106,5.809-1.936,8.852-2.766a2.8,2.8,0,0,0,2.49-3.319A2.625,2.625,0,0,0,80.665,3.1,76.863,76.863,0,0,0,70.153,6.422,75.151,75.151,0,0,0,13.724,6.7a2.419,2.419,0,0,0-1.66,2.49v2.766H9.3a8.15,8.15,0,0,0-8.3,8.3v49.79a2.613,2.613,0,0,0,2.766,2.766ZM122.71,101.854v8.575a116.423,116.423,0,0,0-13.277-3.319ZM113.028,93a15.158,15.158,0,0,0,4.426,4.979l-11.618,4.7ZM17.6,11.125a71.705,71.705,0,0,1,49.79,0v99.3a76.76,76.76,0,0,0-49.79,0Z" transform="translate(0 0)" fill="#f3b9c2"/>
    <path id="Path_1103" data-name="Path 1103" d="M3.766,39.358a2.613,2.613,0,0,0,2.766-2.766V32.166A2.613,2.613,0,0,0,3.766,29.4,2.613,2.613,0,0,0,1,32.166v4.426A2.613,2.613,0,0,0,3.766,39.358Z" transform="translate(0 50.048)" fill="#f3b9c2"/>
    <path id="Path_1104" data-name="Path 1104" d="M9.3,79.258H24.512a2.766,2.766,0,1,0,0-5.532H9.3A2.613,2.613,0,0,1,6.532,70.96V68.194h85.75a2.766,2.766,0,0,0,0-5.532H6.532v-24.9A2.613,2.613,0,0,0,3.766,35,2.613,2.613,0,0,0,1,37.766V70.96A8.15,8.15,0,0,0,9.3,79.258Z" transform="translate(0 59.938)" fill="#f3b9c2"/>
    <path id="Path_1105" data-name="Path 1105" d="M116.879,139.2a8.15,8.15,0,0,0,8.3-8.3V72.808h2.766a8.15,8.15,0,0,0,8.3-8.3V31.316a2.766,2.766,0,0,1,5.532,0v5.532a2.766,2.766,0,1,0,5.532,0V31.316a8.3,8.3,0,0,0-16.6,0V64.51a2.613,2.613,0,0,1-2.766,2.766h-2.766V20.252a8.15,8.15,0,0,0-8.3-8.3h-2.766V9.187a2.419,2.419,0,0,0-1.66-2.49A77.5,77.5,0,0,0,78.706,1.166a2.5,2.5,0,0,0-2.49,3.043A2.5,2.5,0,0,0,79.26,6.7a72.113,72.113,0,0,1,29.6,4.426v52a2.766,2.766,0,1,0,5.532,0V17.486h2.766a2.613,2.613,0,0,1,2.766,2.766V130.9a2.613,2.613,0,0,1-2.766,2.766H22.831a2.766,2.766,0,0,0,0,5.532H36.661c2.766,4.149,4.7,10.235,5.532,16.6H39.427a13.913,13.913,0,0,0-13.554,11.065H11.766a2.766,2.766,0,0,0,0,5.532H116.879a2.766,2.766,0,0,0,0-5.532h-30.7a13.913,13.913,0,0,0-13.554-11.065h-2.49c.83-6.639,2.766-12.724,5.256-16.6Zm-47.854,0a46.987,46.987,0,0,0-4.426,16.6H47.726A44.515,44.515,0,0,0,43.3,139.2Zm3.6,22.129a8.057,8.057,0,0,1,7.745,5.532H31.682a8.057,8.057,0,0,1,7.745-5.532H72.621Z" transform="translate(14.129 0.001)" fill="#f3b9c2"/>
    <path id="Path_1106" data-name="Path 1106" d="M65.54,10.192a79.694,79.694,0,0,0-34.3,0,3.034,3.034,0,0,0-2.213,3.319,3.034,3.034,0,0,0,3.319,2.213,69.861,69.861,0,0,1,32.087,0c.277,0,2.49.83,3.319-2.213a2.8,2.8,0,0,0-2.213-3.319Z" transform="translate(49.424 12.827)" fill="#f3b9c2"/>
    <path id="Path_1107" data-name="Path 1107" d="M12.353,15.724a69.861,69.861,0,0,1,32.087,0,2.493,2.493,0,0,0,3.319-2.213,2.8,2.8,0,0,0-2.213-3.319,79.694,79.694,0,0,0-34.3,0,2.821,2.821,0,0,0,1.106,5.532Z" transform="translate(14.096 12.827)" fill="#f3b9c2"/>
    <path id="Path_1108" data-name="Path 1108" d="M65.54,16.192a79.694,79.694,0,0,0-34.3,0,3.034,3.034,0,0,0-2.213,3.319,3.034,3.034,0,0,0,3.319,2.213,69.862,69.862,0,0,1,32.087,0,2.935,2.935,0,0,0,3.319-2.213,2.8,2.8,0,0,0-2.213-3.319Z" transform="translate(49.424 23.424)" fill="#f3b9c2"/>
    <path id="Path_1109" data-name="Path 1109" d="M12.347,21.724a69.862,69.862,0,0,1,32.087,0,2.763,2.763,0,0,0,3.319-2.213,2.617,2.617,0,0,0-2.213-3.319,79.694,79.694,0,0,0-34.3,0,3.034,3.034,0,0,0-2.213,3.319A2.8,2.8,0,0,0,12.347,21.724Z" transform="translate(14.102 23.424)" fill="#f3b9c2"/>
    <path id="Path_1110" data-name="Path 1110" d="M65.54,22.192a79.693,79.693,0,0,0-34.3,0,3.034,3.034,0,0,0-2.213,3.319,3.034,3.034,0,0,0,3.319,2.213,69.862,69.862,0,0,1,32.087,0,2.935,2.935,0,0,0,3.319-2.213,2.8,2.8,0,0,0-2.213-3.319Z" transform="translate(49.424 34.02)" fill="#f3b9c2"/>
    <path id="Path_1111" data-name="Path 1111" d="M12.347,27.724a69.862,69.862,0,0,1,32.087,0c.277,0,2.49.83,3.319-2.213a2.8,2.8,0,0,0-2.213-3.319,79.693,79.693,0,0,0-34.3,0,3.034,3.034,0,0,0-2.213,3.319A2.8,2.8,0,0,0,12.347,27.724Z" transform="translate(14.102 34.02)" fill="#f3b9c2"/>
    <path id="Path_1112" data-name="Path 1112" d="M67.753,31.511a2.8,2.8,0,0,0-2.213-3.319,79.693,79.693,0,0,0-34.3,0,3.034,3.034,0,0,0-2.213,3.319,3.034,3.034,0,0,0,3.319,2.213,69.862,69.862,0,0,1,32.087,0A2.935,2.935,0,0,0,67.753,31.511Z" transform="translate(49.424 44.617)" fill="#f3b9c2"/>
    <path id="Path_1113" data-name="Path 1113" d="M12.347,33.724a69.862,69.862,0,0,1,32.087,0c.277,0,2.49.83,3.319-2.213a2.617,2.617,0,0,0-2.213-3.319,79.693,79.693,0,0,0-34.3,0,3.034,3.034,0,0,0-2.213,3.319A2.8,2.8,0,0,0,12.347,33.724Z" transform="translate(14.102 44.617)" fill="#f3b9c2"/>
    <path id="Path_1114" data-name="Path 1114" d="M31.129,34.236a2.625,2.625,0,0,0-1.936,3.319,2.694,2.694,0,0,0,2.766,2.213h.553a59.335,59.335,0,0,1,16.044-1.936,2.766,2.766,0,1,0,0-5.532A68.634,68.634,0,0,0,31.129,34.236Z" transform="translate(49.535 55.17)" fill="#f3b9c2"/>
    <path id="Path_1115" data-name="Path 1115" d="M47.642,37.512a2.845,2.845,0,0,0-1.936-3.319,80.971,80.971,0,0,0-34.577,0,2.625,2.625,0,0,0-1.936,3.319,3.034,3.034,0,0,0,3.319,2.213,68.674,68.674,0,0,1,31.81,0A2.683,2.683,0,0,0,47.642,37.512Z" transform="translate(14.213 55.214)" fill="#f3b9c2"/>
    <path id="Path_1116" data-name="Path 1116" d="M14.831,61H3.766a2.766,2.766,0,0,0,0,5.532H14.831a2.766,2.766,0,0,0,0-5.532Z" transform="translate(0 105.858)" fill="#f3b9c2"/>
    <path id="Path_1117" data-name="Path 1117" d="M81.427,61H53.766a2.766,2.766,0,1,0,0,5.532H81.427a2.766,2.766,0,1,0,0-5.532Z" transform="translate(88.306 105.858)" fill="#f3b9c2"/>
    <circle id="Ellipse_14" data-name="Ellipse 14" cx="2.766" cy="2.766" r="2.766" transform="translate(111.645 122.6)" fill="#f3b9c2"/>
    <circle id="Ellipse_15" data-name="Ellipse 15" cx="2.766" cy="2.766" r="2.766" transform="translate(122.71 122.6)" fill="#f3b9c2"/>
    <circle id="Ellipse_16" data-name="Ellipse 16" cx="2.766" cy="2.766" r="2.766" transform="translate(100.581 122.6)" fill="#f3b9c2"/>
  </g>
</svg>
