<svg xmlns="http://www.w3.org/2000/svg" width="17.698" height="23.62" viewBox="0 0 17.698 23.62">
  <g id="unlock" transform="translate(-64.183)">
    <g id="Group_3603" data-name="Group 3603" transform="translate(66.419)">
      <g id="Group_3602" data-name="Group 3602">
        <path id="Path_1126" data-name="Path 1126" d="M119.26,0a6.621,6.621,0,0,0-6.613,6.613V9.851a.4.4,0,0,0,.4.4h2.217a.4.4,0,0,0,.4-.4V6.613a3.6,3.6,0,1,1,7.195,0V9.851a.4.4,0,0,0,.4.4h2.217a.4.4,0,0,0,.4-.4V6.613A6.621,6.621,0,0,0,119.26,0Zm5.815,9.452h-1.418V6.613a4.4,4.4,0,1,0-8.792,0V9.452h-1.418V6.613a5.814,5.814,0,1,1,11.629,0Z" transform="translate(-112.647)" fill="#d4e5f8"/>
      </g>
    </g>
    <g id="Group_3605" data-name="Group 3605" transform="translate(64.183 9.452)">
      <g id="Group_3604" data-name="Group 3604">
        <path id="Path_1127" data-name="Path 1127" d="M80.165,204.89H65.9a1.718,1.718,0,0,0-1.716,1.716v10.737a1.718,1.718,0,0,0,1.716,1.716H80.165a1.718,1.718,0,0,0,1.716-1.716V206.606A1.717,1.717,0,0,0,80.165,204.89Zm.917,12.452a.918.918,0,0,1-.917.917H65.9a.918.918,0,0,1-.917-.917V206.606a.918.918,0,0,1,.917-.917H80.165a.918.918,0,0,1,.917.917Z" transform="translate(-64.183 -204.89)" fill="#d4e5f8"/>
      </g>
    </g>
    <g id="Group_3607" data-name="Group 3607" transform="translate(70.951 13.392)">
      <g id="Group_3606" data-name="Group 3606">
        <path id="Path_1128" data-name="Path 1128" d="M214.313,293.973a2.081,2.081,0,1,0-2.686,0l-.449,2.139a.4.4,0,0,0,.391.481h2.8a.4.4,0,0,0,.391-.481Zm-.658-.506a.4.4,0,0,0-.176.419l.4,1.908h-1.818l.4-1.908a.4.4,0,0,0-.176-.419,1.282,1.282,0,1,1,1.37,0Z" transform="translate(-210.889 -290.307)" fill="#d4e5f8"/>
      </g>
    </g>
  </g>
</svg>
