<svg xmlns="http://www.w3.org/2000/svg" width="23.293" height="19.799" viewBox="0 0 23.293 19.799">
  <g id="Icon_Other" transform="translate(-30 -64)">
    <path id="Icon_Other-2" data-name="Icon_Other" d="M42.229,64a1.165,1.165,0,0,1,0,2.329H31.165a1.165,1.165,0,1,1,0-2.329Zm9.9,8.735a1.165,1.165,0,0,1,0,2.329H31.165a1.165,1.165,0,1,1,0-2.329Zm-9.317,9.9a1.165,1.165,0,0,0-1.165-1.165H31.165a1.165,1.165,0,1,0,0,2.329H41.647A1.165,1.165,0,0,0,42.811,82.635Z" fill="#3b2666" fill-rule="evenodd"/>
  </g>
</svg>
