<svg xmlns="http://www.w3.org/2000/svg" width="20" height="20" viewBox="0 0 20 20">
  <g id="Icon_Password" transform="translate(-45 -480)">
    <path id="Shape_01" d="M48.333,490a3.334,3.334,0,0,0,6.563.827.88.88,0,0,0,.1.006h1.667v.834a.833.833,0,0,0,1.667,0v-.834H60V492.5a.833.833,0,0,0,1.667,0V490a.833.833,0,0,0-.833-.833H55a.88.88,0,0,0-.1.006,3.334,3.334,0,0,0-6.563.827ZM50,490a1.667,1.667,0,1,0,1.667-1.667A1.667,1.667,0,0,0,50,490Z" fill="#fc92a4" fill-rule="evenodd"/>
    <path id="Shape_02" d="M45,490c0,8.235,1.765,10,10,10s10-1.765,10-10-1.765-10-10-10S45,481.765,45,490Zm1.667,0a22.418,22.418,0,0,0,.365,4.675,3.678,3.678,0,0,0,3.294,3.294,22.452,22.452,0,0,0,4.675.364,22.452,22.452,0,0,0,4.675-.364,3.678,3.678,0,0,0,3.294-3.294,30.146,30.146,0,0,0,0-9.35,3.678,3.678,0,0,0-3.294-3.294A22.452,22.452,0,0,0,55,481.667a22.452,22.452,0,0,0-4.675.364,3.678,3.678,0,0,0-3.294,3.294A22.418,22.418,0,0,0,46.667,490Z" fill="#fc92a4" fill-rule="evenodd"/>
  </g>
</svg>
