<svg xmlns="http://www.w3.org/2000/svg" xmlns:xlink="http://www.w3.org/1999/xlink" width="40.047" height="39.499" viewBox="0 0 40.047 39.499">
  <defs>
    <clipPath id="clip-path">
      <rect id="Rectangle_1359" data-name="Rectangle 1359" width="33.889" height="33.178" fill="none"/>
    </clipPath>
  </defs>
  <g id="Group_5240" data-name="Group 5240" transform="translate(0 7.046) rotate(-12)">
    <g id="Group_5239" data-name="Group 5239" clip-path="url(#clip-path)">
      <path id="Path_6413" data-name="Path 6413" d="M35.431,33.241a11.107,11.107,0,0,0-9.28-8.977A14.146,14.146,0,0,0,9.694,36.035c-.329,2.867,1.024,5.222,2.946,7.388a14.314,14.314,0,0,0,7.052,4.738A12.513,12.513,0,0,0,27.9,47.2a13.255,13.255,0,0,0,7.534-13.957c-.1-.57-1.048-.533-.95.043A12.453,12.453,0,0,1,22.411,47.571a10.915,10.915,0,0,1-7.469-3.1c-1.974-1.79-4.077-4.141-4.331-6.8a11.088,11.088,0,0,1,2.139-6.86,12.86,12.86,0,0,1,11.274-5.861c5.295.184,9.45,3.345,10.456,8.338.114.565,1.065.53.95-.043" transform="translate(-7.227 -18.016)" fill="#b43640"/>
      <path id="Path_6414" data-name="Path 6414" d="M40.758,42.752a8.737,8.737,0,0,0-7.287-7.115A10.9,10.9,0,0,0,23.1,39.4a11.03,11.03,0,0,0-2.56,5.709C20.312,47.35,21.4,49.2,22.9,50.89a11.278,11.278,0,0,0,5.257,3.624,9.674,9.674,0,0,0,6.559-.665,10.556,10.556,0,0,0,6.042-11.1c-.093-.571-1.044-.534-.95.043a9.622,9.622,0,0,1-3.646,9.1A8.63,8.63,0,0,1,24.9,51.619c-1.527-1.365-3.183-3.206-3.418-5.24a8.622,8.622,0,0,1,1.7-5.52,9.891,9.891,0,0,1,8.513-4.494c4.129.1,7.332,2.545,8.116,6.43.114.565,1.066.53.95-.043" transform="translate(-15.365 -26.575)" fill="#b43640"/>
      <path id="Path_6415" data-name="Path 6415" d="M58.467,68.3c.389-.216.88.264.53.6-.37.353-.912-.157-.626-.515.364-.455-.346-1.072-.712-.615a1.323,1.323,0,0,0,.117,1.783,1.374,1.374,0,0,0,1.875.015,1.192,1.192,0,0,0,.075-1.756,1.514,1.514,0,0,0-1.788-.272c-.524.291.006,1.052.528.762" transform="translate(-42.986 -50.473)" fill="#b43640"/>
      <path id="Path_6416" data-name="Path 6416" d="M59.66,52.934l.92-2.179c.137-.325.535-1.884.862-2.011l.593.474a2.207,2.207,0,0,1-.077.717,5.282,5.282,0,0,1-.376,1.038c-.327.735-.7,1.453-1.051,2.177-.253.522.6.948.851.424.6-1.247,2.874-4.7.854-5.875a1.2,1.2,0,0,0-1.646.62,33.768,33.768,0,0,0-1.782,4.191c-.224.531.625.959.851.424" transform="translate(-44.038 -35.627)" fill="#b43640"/>
      <path id="Path_6417" data-name="Path 6417" d="M59.956,74.129a17.586,17.586,0,0,0,.7,4.256c.217.728.474,1.865,1.517,1.792.988-.069,1.224-1.076,1.1-1.841a51.072,51.072,0,0,0-1.358-5.007c-.155-.565-1.054-.29-.9.274l.686,2.5c.07.254,1,2.949.121,2.812-.232-.036-.6-2.129-.635-2.33a17.516,17.516,0,0,1-.274-2.5.477.477,0,0,0-.95.043" transform="translate(-44.925 -54.712)" fill="#b43640"/>
      <path id="Path_6418" data-name="Path 6418" d="M5.438,22.719a105.058,105.058,0,0,1,11.81-5.486.457.457,0,0,0-.31-.86A106.993,106.993,0,0,0,4.909,21.957c-.527.286,0,1.047.528.762" transform="translate(-3.515 -12.242)" fill="#b43640"/>
      <path id="Path_6419" data-name="Path 6419" d="M16.033,4.27A6.863,6.863,0,0,0,7.061.492,6.965,6.965,0,0,0,3.04,9.721c.243.534,1.145.266.9-.274a6.091,6.091,0,0,1,3.432-8.1,5.872,5.872,0,0,1,7.761,3.191c.2.554,1.1.282.9-.274" transform="translate(-1.841 0.001)" fill="#b43640"/>
      <path id="Path_6420" data-name="Path 6420" d="M84.823,14.329a106.612,106.612,0,0,1,8.457,10.218c.352.483,1.144,0,.792-.483a108.559,108.559,0,0,0-8.617-10.4c-.412-.439-1.04.225-.632.66" transform="translate(-63.458 -10.134)" fill="#b43640"/>
      <path id="Path_6421" data-name="Path 6421" d="M95.691,21.37a6.129,6.129,0,0,0,1.792-9.335,8.153,8.153,0,0,0-10.521-1.963c-.5.322.026,1.085.528.762a7.14,7.14,0,0,1,9.2,1.683,5.266,5.266,0,0,1-1.529,8.09c-.532.279,0,1.039.528.762" transform="translate(-65.008 -6.688)" fill="#b43640"/>
      <path id="Path_6422" data-name="Path 6422" d="M84.052,103.765a37.306,37.306,0,0,0,1.859,4.1,1.177,1.177,0,0,0,1.6.58c.885-.451.749-1.664.794-2.473q.133-2.4.267-4.792c.043-.769-1.224-.706-1.266.058-.089,1.59-.09,3.211-.267,4.792-.012.107-.015.88-.2.891-.042,0-.441-.976-.5-1.1L85.252,103.4c-.321-.713-1.525-.355-1.2.365" transform="translate(-62.939 -75.404)" fill="#b43640"/>
      <path id="Path_6423" data-name="Path 6423" d="M3.189,91.382.631,95.023c-.394.562-1.063,1.521-.237,2.1.72.5,1.942-.119,2.63-.347A27.719,27.719,0,0,0,6.958,95.1c.712-.366,0-1.38-.7-1.016a25.458,25.458,0,0,1-2.669,1.2q-.677.255-1.368.472c-.226.071-1.122.2-1.2.343q.387.164.5-.161l.365-.52.731-1.04,1.7-2.428c.448-.637-.692-1.2-1.134-.566" transform="translate(0 -68.265)" fill="#b43640"/>
      <path id="Path_6424" data-name="Path 6424" d="M57.418,6.228c.955-.024,3.8.088,3.928-1.237.153-1.61-2.334-1.453-3.33-1.619-1.061-.177-2.666-.07-2.426,1.35.273,1.611,2.2,1.605,3.484,1.406.4-.061.356-.663-.046-.6-.824.127-2.018.345-2.6-.421-.619-.811.381-1.31,1.137-1.211.347.045.684.144,1.032.185a6.84,6.84,0,0,1,1.051.076q.839-.041.74,1.087-.2.056-.4.095a13.7,13.7,0,0,1-2.618.289.3.3,0,1,0,.046.6" transform="translate(-41.635 -2.478)" fill="#b43640"/>
      <path id="Path_6425" data-name="Path 6425" d="M58.658,6.9l.3.653a.325.325,0,0,0,.611-.025.853.853,0,0,1,.371-.551l-.493-.24q.042.454.084.908a.327.327,0,0,0,.6.127,2.028,2.028,0,0,0,.3-.833l-.611.025.256.524a.332.332,0,0,0,.584.05l.388-.574-.548.02.485.922a.333.333,0,0,0,.5.044,1.321,1.321,0,0,0,.474-.878l-.522.154.4.434a.333.333,0,0,0,.387.034l.435-.284c.332-.217-.019-.726-.352-.508l-.436.285.387.034-.4-.434a.32.32,0,0,0-.522.154.921.921,0,0,1-.326.6l.5.044-.485-.922c-.119-.226-.436-.145-.548.02l-.388.573.584.05-.256-.524c-.12-.245-.567-.3-.611.025a1.657,1.657,0,0,1-.244.681l.6.127-.084-.908a.329.329,0,0,0-.493-.24,1.65,1.65,0,0,0-.641.928l.611-.025-.3-.653c-.163-.355-.765-.177-.6.182" transform="translate(-43.931 -4.807)" fill="#b43640"/>
      <path id="Path_6426" data-name="Path 6426" d="M66.386,13.6a5.933,5.933,0,0,1,.108,2.471c-.063.38.559.513.622.132a6.669,6.669,0,0,0-.13-2.785c-.1-.378-.7-.194-.6.182" transform="translate(-49.735 -9.901)" fill="#b43640"/>
      <path id="Path_6427" data-name="Path 6427" d="M57.073,4.091,56.66,5.328c-.1.29.356.482.549.271l.809-.886L57.48,4.6l.132.634c-.017.252.345.546.549.271l.565-.765-.538-.114.2.54a.332.332,0,0,0,.476.163,1.962,1.962,0,0,0,.729-.857l-.6-.127.095.982a.331.331,0,0,0,.554.19,2.921,2.921,0,0,0,.784-.956l-.6-.127-.045,1.1a.329.329,0,0,0,.554.19,6.15,6.15,0,0,0,.565-.912L60.3,4.605q-.054.382-.108.764a.326.326,0,0,0,.487.32,1.383,1.383,0,0,0,.619-.554l-.584-.05.055.531.628.051-.333-.223c-.118.367.5.5.622.132l.029-.091a.3.3,0,0,0-.1-.286c-.468-.457-.828.053-.851.5-.019.349.549.366.628.051a1.133,1.133,0,0,0-.077-.845.331.331,0,0,0-.584-.05l-.4.329.487.32q.054-.382.108-.764c.045-.321-.436-.526-.595-.207a5.186,5.186,0,0,1-.473.785l.554.19.045-1.1c.013-.307-.47-.374-.6-.127a2.552,2.552,0,0,1-.692.83l.554.19q-.048-.491-.1-.982c-.027-.281-.473-.408-.6-.127a1.155,1.155,0,0,1-.514.633l.476.163-.2-.54c-.071-.2-.4-.3-.538-.114l-.565.765.549.271a1.788,1.788,0,0,0-.154-.948.332.332,0,0,0-.538-.114l-.809.886.549.271L57.7,4.223c.122-.366-.5-.495-.622-.132" transform="translate(-42.445 -2.904)" fill="#b43640"/>
    </g>
  </g>
</svg>
