<svg id="Star" xmlns="http://www.w3.org/2000/svg" width="10.734" height="10.198" viewBox="0 0 10.734 10.198">
  <path id="Fill_1" data-name="Fill 1" d="M5.891.329l1.2,2.4a.6.6,0,0,0,.45.325l2.682.39a.6.6,0,0,1,.394.23.578.578,0,0,1,.113.438.6.6,0,0,1-.172.338L8.61,6.333a.573.573,0,0,0-.174.517l.48,2.65a.6.6,0,0,1-.48.681.619.619,0,0,1-.382-.061L5.66,8.874a.621.621,0,0,0-.563,0L2.7,10.121a.6.6,0,0,1-.887-.616L2.3,6.855a.572.572,0,0,0-.173-.518L.178,4.457a.582.582,0,0,1,0-.838.594.594,0,0,1,.346-.17l2.682-.39a.6.6,0,0,0,.448-.325L4.809.329A.6.6,0,0,1,5.354,0h.071a.6.6,0,0,1,.465.329" transform="translate(0.002 0.004)" fill="#fccb40"/>
  <path id="Fill_4" data-name="Fill 4" d="M5.371,8.807a.68.68,0,0,0-.3.082L2.687,10.132a.622.622,0,0,1-.807-.247.586.586,0,0,1-.063-.371L2.3,6.87a.591.591,0,0,0-.174-.522L.176,4.465a.587.587,0,0,1,0-.838.616.616,0,0,1,.34-.168l2.692-.4a.58.58,0,0,0,.448-.325L4.826.306a.6.6,0,0,1,.55-.3c0,.162,0,8.7,0,8.8" transform="translate(0 0)" fill="#fac025"/>
</svg>
