<svg xmlns="http://www.w3.org/2000/svg" width="21.421" height="28.588" viewBox="0 0 21.421 28.588">
  <g id="unlock" transform="translate(-64.183)">
    <g id="Group_3603" data-name="Group 3603" transform="translate(66.889)">
      <g id="Group_3602" data-name="Group 3602">
        <path id="Path_1126" data-name="Path 1126" d="M120.651,0a8.013,8.013,0,0,0-8,8v3.919a.484.484,0,0,0,.483.483h2.683a.483.483,0,0,0,.483-.483V8a4.354,4.354,0,1,1,8.708,0v3.919a.484.484,0,0,0,.484.483h2.683a.483.483,0,0,0,.483-.483V8A8.013,8.013,0,0,0,120.651,0Zm7.038,11.44h-1.717V8a5.321,5.321,0,1,0-10.642,0V11.44h-1.717V8a7.038,7.038,0,1,1,14.075,0Z" transform="translate(-112.647)" fill="#d4e5f8"/>
      </g>
    </g>
    <g id="Group_3605" data-name="Group 3605" transform="translate(64.183 11.44)">
      <g id="Group_3604" data-name="Group 3604">
        <path id="Path_1127" data-name="Path 1127" d="M83.527,204.89H66.259a2.079,2.079,0,0,0-2.076,2.076v13a2.079,2.079,0,0,0,2.076,2.076H83.527a2.079,2.079,0,0,0,2.076-2.077v-13A2.079,2.079,0,0,0,83.527,204.89Zm1.11,15.072a1.111,1.111,0,0,1-1.11,1.11H66.259a1.111,1.111,0,0,1-1.11-1.11v-13a1.111,1.111,0,0,1,1.11-1.11H83.527a1.111,1.111,0,0,1,1.11,1.11Z" transform="translate(-64.183 -204.89)" fill="#d4e5f8"/>
      </g>
    </g>
    <g id="Group_3607" data-name="Group 3607" transform="translate(72.375 16.21)">
      <g id="Group_3606" data-name="Group 3606">
        <path id="Path_1128" data-name="Path 1128" d="M215.033,294.745a2.519,2.519,0,1,0-3.251,0l-.543,2.589a.483.483,0,0,0,.473.583H215.1a.483.483,0,0,0,.473-.583Zm-.8-.612a.483.483,0,0,0-.214.507l.485,2.31h-2.2l.485-2.31a.483.483,0,0,0-.214-.507,1.552,1.552,0,1,1,1.658,0Z" transform="translate(-210.889 -290.307)" fill="#d4e5f8"/>
      </g>
    </g>
  </g>
</svg>
