<svg xmlns="http://www.w3.org/2000/svg" width="18.75" height="20" viewBox="0 0 18.75 20">
  <g id="Icon_User" transform="translate(-45 -389)">
    <path id="Shape_01" d="M45,404.833c0,3.432,1.655,4.167,9.375,4.167s9.375-.735,9.375-4.167-1.655-4.166-9.375-4.166S45,401.4,45,404.833Zm1.7,0a3.163,3.163,0,0,0,.206,1.367,1.034,1.034,0,0,0,.587.486,7.878,7.878,0,0,0,2.327.487c1.154.114,2.637.16,4.55.16s3.4-.046,4.55-.16a7.878,7.878,0,0,0,2.327-.487,1.034,1.034,0,0,0,.587-.486,4.635,4.635,0,0,0,0-2.733,1.03,1.03,0,0,0-.587-.486,7.9,7.9,0,0,0-2.327-.488c-1.154-.114-2.637-.16-4.55-.16s-3.4.046-4.55.16a7.9,7.9,0,0,0-2.327.488,1.03,1.03,0,0,0-.587.486A3.16,3.16,0,0,0,46.7,404.833Z" fill="#fc92a4" fill-rule="evenodd"/>
    <path id="Shape_02" d="M49.261,394a5.115,5.115,0,1,0,5.114-5A5.058,5.058,0,0,0,49.261,394Zm1.7,0a3.41,3.41,0,1,0,3.409-3.333A3.372,3.372,0,0,0,50.966,394Z" fill="#fc92a4" fill-rule="evenodd"/>
  </g>
</svg>
